<svg width="45" height="152" viewBox="0 0 45 152" fill="none" xmlns="http://www.w3.org/2000/svg">
<mask id="path-1-outside-1_1172_1735" maskUnits="userSpaceOnUse" x="-1.1416" y="-1.33521" width="47" height="154" fill="black">
<rect fill="white" x="-1.1416" y="-1.33521" width="47" height="154"/>
<path d="M35.2684 2.37078C36.8964 0.890786 38.5244 0.150787 40.1524 0.150787C42.9644 0.150787 44.3704 1.77879 44.3704 5.03479L44.1484 8.58678V142.675C42.3724 144.747 40.3744 145.783 38.1544 145.783C36.8224 145.783 35.7124 145.413 34.8244 144.673C34.5284 142.453 34.3064 140.307 34.1584 138.235C34.0104 136.163 33.9364 134.091 33.9364 132.019C33.9364 124.767 34.4544 117.811 35.4904 111.151C36.6744 104.343 37.2664 97.3868 37.2664 90.2828C37.2664 87.1748 37.0444 84.0668 36.6004 80.9588C36.3044 77.7028 35.6384 74.3728 34.6024 70.9688C31.7904 71.1168 29.2744 72.0048 27.0544 73.6328C24.8344 75.2608 22.8364 77.2588 21.0604 79.6268C19.2844 81.9948 17.5824 84.5108 15.9544 87.1748C14.4744 89.8388 13.0684 92.2068 11.7364 94.2788C11.7364 100.791 11.5144 107.821 11.0704 115.369C10.7744 122.917 10.4784 130.613 10.1824 138.457C11.0704 139.641 11.5884 140.825 11.7364 142.009C12.0324 143.045 12.1804 144.229 12.1804 145.561C12.1804 149.261 11.0704 151.111 8.8504 151.111C5.7424 151.111 3.5964 149.853 2.4124 147.337C1.3764 144.821 0.858398 142.157 0.858398 139.345C0.858398 128.541 1.3024 117.959 2.1904 107.599C3.2264 97.0908 3.7444 86.2128 3.7444 74.9648C3.7444 71.1168 3.6704 67.3428 3.5224 63.6428C3.3744 59.7948 3.0784 55.8728 2.6344 51.8768C5.4464 49.3608 8.1844 46.1788 10.8484 42.3308C13.6604 38.4828 16.3984 34.3388 19.0624 29.8988C21.8744 25.4588 24.6124 20.8708 27.2764 16.1348C29.9404 11.2508 32.6044 6.66279 35.2684 2.37078ZM33.4924 53.4308C33.7884 50.7668 34.0844 48.0288 34.3804 45.2168C34.6764 42.2568 34.8244 39.2968 34.8244 36.3368C34.8244 31.7488 34.2324 27.7528 33.0484 24.3488L28.8304 27.0128C28.5344 28.3448 27.9424 29.4548 27.0544 30.3428C26.3144 31.0828 25.5004 31.8228 24.6124 32.5628C23.8724 33.3028 23.1324 34.1168 22.3924 35.0048C21.8004 35.8928 21.4304 37.0028 21.2824 38.3348C18.3224 41.7388 16.1764 45.5128 14.8444 49.6568C13.6604 53.8008 13.0684 58.1668 13.0684 62.7548C13.0684 66.8988 13.5124 70.9688 14.4004 74.9648L33.4924 53.4308Z"/>
</mask>
<path d="M35.2684 2.37078C36.8964 0.890786 38.5244 0.150787 40.1524 0.150787C42.9644 0.150787 44.3704 1.77879 44.3704 5.03479L44.1484 8.58678V142.675C42.3724 144.747 40.3744 145.783 38.1544 145.783C36.8224 145.783 35.7124 145.413 34.8244 144.673C34.5284 142.453 34.3064 140.307 34.1584 138.235C34.0104 136.163 33.9364 134.091 33.9364 132.019C33.9364 124.767 34.4544 117.811 35.4904 111.151C36.6744 104.343 37.2664 97.3868 37.2664 90.2828C37.2664 87.1748 37.0444 84.0668 36.6004 80.9588C36.3044 77.7028 35.6384 74.3728 34.6024 70.9688C31.7904 71.1168 29.2744 72.0048 27.0544 73.6328C24.8344 75.2608 22.8364 77.2588 21.0604 79.6268C19.2844 81.9948 17.5824 84.5108 15.9544 87.1748C14.4744 89.8388 13.0684 92.2068 11.7364 94.2788C11.7364 100.791 11.5144 107.821 11.0704 115.369C10.7744 122.917 10.4784 130.613 10.1824 138.457C11.0704 139.641 11.5884 140.825 11.7364 142.009C12.0324 143.045 12.1804 144.229 12.1804 145.561C12.1804 149.261 11.0704 151.111 8.8504 151.111C5.7424 151.111 3.5964 149.853 2.4124 147.337C1.3764 144.821 0.858398 142.157 0.858398 139.345C0.858398 128.541 1.3024 117.959 2.1904 107.599C3.2264 97.0908 3.7444 86.2128 3.7444 74.9648C3.7444 71.1168 3.6704 67.3428 3.5224 63.6428C3.3744 59.7948 3.0784 55.8728 2.6344 51.8768C5.4464 49.3608 8.1844 46.1788 10.8484 42.3308C13.6604 38.4828 16.3984 34.3388 19.0624 29.8988C21.8744 25.4588 24.6124 20.8708 27.2764 16.1348C29.9404 11.2508 32.6044 6.66279 35.2684 2.37078ZM33.4924 53.4308C33.7884 50.7668 34.0844 48.0288 34.3804 45.2168C34.6764 42.2568 34.8244 39.2968 34.8244 36.3368C34.8244 31.7488 34.2324 27.7528 33.0484 24.3488L28.8304 27.0128C28.5344 28.3448 27.9424 29.4548 27.0544 30.3428C26.3144 31.0828 25.5004 31.8228 24.6124 32.5628C23.8724 33.3028 23.1324 34.1168 22.3924 35.0048C21.8004 35.8928 21.4304 37.0028 21.2824 38.3348C18.3224 41.7388 16.1764 45.5128 14.8444 49.6568C13.6604 53.8008 13.0684 58.1668 13.0684 62.7548C13.0684 66.8988 13.5124 70.9688 14.4004 74.9648L33.4924 53.4308Z" fill="#F0F0F0"/>
<path d="M35.2684 2.37078L34.3365 1.34564L34.1933 1.47578L34.0913 1.64016L35.2684 2.37078ZM44.3704 5.03479L45.7531 5.12121L45.7558 5.07804V5.03479H44.3704ZM44.1484 8.58678L42.7657 8.50036L42.763 8.54353V8.58678H44.1484ZM44.1484 142.675L45.2003 143.576L45.5338 143.187V142.675H44.1484ZM34.8244 144.673L33.4511 144.856L33.5225 145.391L33.9375 145.737L34.8244 144.673ZM34.1584 138.235L35.5403 138.136L34.1584 138.235ZM35.4904 111.151L34.1255 110.913L34.1233 110.926L34.1214 110.938L35.4904 111.151ZM36.6004 80.9588L35.2207 81.0842L35.2239 81.1196L35.2289 81.1547L36.6004 80.9588ZM34.6024 70.9688L35.9278 70.5654L35.6122 69.5283L34.5296 69.5853L34.6024 70.9688ZM27.0544 73.6328L27.8737 74.75H27.8737L27.0544 73.6328ZM15.9544 87.1748L14.7722 86.4524L14.7573 86.4769L14.7433 86.502L15.9544 87.1748ZM11.7364 94.2788L10.571 93.5296L10.351 93.8719V94.2788H11.7364ZM11.0704 115.369L9.68735 115.287L9.68656 115.301L9.68603 115.315L11.0704 115.369ZM10.1824 138.457L8.79795 138.405L8.77943 138.895L9.07405 139.288L10.1824 138.457ZM11.7364 142.009L10.3617 142.181L10.3749 142.287L10.4043 142.389L11.7364 142.009ZM2.4124 147.337L1.13131 147.864L1.1443 147.896L1.15883 147.927L2.4124 147.337ZM2.1904 107.599L0.811646 107.463L0.810778 107.472L0.810022 107.48L2.1904 107.599ZM3.5224 63.6428L2.13798 63.696L2.13807 63.6982L3.5224 63.6428ZM2.6344 51.8768L1.7106 50.8443L1.1786 51.3203L1.25743 52.0298L2.6344 51.8768ZM10.8484 42.3308L9.72981 41.5134L9.71937 41.5276L9.7093 41.5422L10.8484 42.3308ZM19.0624 29.8988L17.892 29.1575L17.883 29.1716L17.8744 29.186L19.0624 29.8988ZM27.2764 16.1348L28.4839 16.814L28.4883 16.8061L28.4927 16.7982L27.2764 16.1348ZM33.4924 53.4308L34.5291 54.3499L34.8208 54.0208L34.8694 53.5838L33.4924 53.4308ZM34.3804 45.2168L35.7582 45.3618L35.759 45.3546L34.3804 45.2168ZM33.0484 24.3488L34.3569 23.8936L33.7838 22.2457L32.3086 23.1774L33.0484 24.3488ZM28.8304 27.0128L28.0906 25.8414L27.603 26.1493L27.478 26.7122L28.8304 27.0128ZM27.0544 30.3428L28.0341 31.3224L28.0341 31.3224L27.0544 30.3428ZM24.6124 32.5628L23.7255 31.4985L23.6772 31.5387L23.6327 31.5831L24.6124 32.5628ZM22.3924 35.0048L21.3281 34.1179L21.2807 34.1747L21.2396 34.2363L22.3924 35.0048ZM21.2824 38.3348L22.3279 39.2439L22.6116 38.9176L22.6594 38.4878L21.2824 38.3348ZM14.8444 49.6568L13.5254 49.2328L13.5185 49.2544L13.5123 49.2762L14.8444 49.6568ZM14.4004 74.9648L13.048 75.2653L13.6367 77.9146L15.4371 75.8839L14.4004 74.9648ZM36.2003 3.39593C37.6642 2.06517 38.9748 1.53622 40.1524 1.53622V-1.23465C38.074 -1.23465 36.1286 -0.283599 34.3365 1.34564L36.2003 3.39593ZM40.1524 1.53622C41.2876 1.53622 41.9029 1.85537 42.2674 2.27734C42.6653 2.73815 42.985 3.57463 42.985 5.03479H45.7558C45.7558 3.23895 45.3725 1.63342 44.3644 0.466238C43.3229 -0.739798 41.8292 -1.23465 40.1524 -1.23465V1.53622ZM42.9877 4.94837L42.7657 8.50036L45.5311 8.67321L45.7531 5.12121L42.9877 4.94837ZM42.763 8.58678V142.675H45.5338V8.58678H42.763ZM43.0965 141.773C41.518 143.615 39.8788 144.397 38.1544 144.397V147.168C40.87 147.168 43.2268 145.879 45.2003 143.576L43.0965 141.773ZM38.1544 144.397C37.0944 144.397 36.3131 144.11 35.7113 143.608L33.9375 145.737C35.1117 146.716 36.5504 147.168 38.1544 147.168V144.397ZM36.1977 144.49C35.9051 142.296 35.6862 140.178 35.5403 138.136L32.7765 138.333C32.9266 140.436 33.1517 142.61 33.4511 144.856L36.1977 144.49ZM35.5403 138.136C35.3947 136.097 35.3218 134.058 35.3218 132.019H32.551C32.551 134.124 32.6261 136.229 32.7765 138.333L35.5403 138.136ZM35.3218 132.019C35.3218 124.833 35.8351 117.948 36.8594 111.364L34.1214 110.938C33.0737 117.673 32.551 124.701 32.551 132.019H35.3218ZM36.8553 111.388C38.0534 104.5 38.6518 97.4641 38.6518 90.2828H35.881C35.881 97.3094 35.2954 104.186 34.1255 110.913L36.8553 111.388ZM38.6518 90.2828C38.6518 87.1086 38.4251 83.9351 37.9719 80.7629L35.2289 81.1547C35.6637 84.1985 35.881 87.241 35.881 90.2828H38.6518ZM37.9801 80.8334C37.6749 77.4752 36.989 74.0521 35.9278 70.5654L33.277 71.3722C34.2878 74.6935 34.9339 77.9304 35.2207 81.0842L37.9801 80.8334ZM34.5296 69.5853C31.4547 69.7471 28.6779 70.7242 26.2351 72.5156L27.8737 74.75C29.8709 73.2854 32.1261 72.4865 34.6752 72.3523L34.5296 69.5853ZM26.2351 72.5156C23.8973 74.23 21.8037 76.3267 19.952 78.7955L22.1687 80.4581C23.8691 78.1909 25.7715 76.2916 27.8737 74.75L26.2351 72.5156ZM19.952 78.7955C18.1483 81.2005 16.4219 83.753 14.7722 86.4524L17.1366 87.8972C18.7429 85.2686 20.4205 82.7891 22.1687 80.4581L19.952 78.7955ZM14.7433 86.502C13.2745 89.1458 11.8837 91.4876 10.571 93.5296L12.9018 95.028C14.2531 92.926 15.6743 90.5318 17.1655 87.8476L14.7433 86.502ZM10.351 94.2788C10.351 100.76 10.13 107.762 9.68735 115.287L12.4534 115.45C12.8988 107.879 13.1218 100.822 13.1218 94.2788H10.351ZM9.68603 115.315C9.39 122.863 9.09397 130.56 8.79795 138.405L11.5669 138.509C11.8628 130.666 12.1588 122.97 12.4548 115.423L9.68603 115.315ZM9.07405 139.288C9.8518 140.325 10.25 141.287 10.3617 142.181L13.1111 141.837C12.9268 140.363 12.289 138.957 11.2907 137.626L9.07405 139.288ZM10.4043 142.389C10.6577 143.276 10.795 144.328 10.795 145.561H13.5658C13.5658 144.129 13.4071 142.813 13.0685 141.628L10.4043 142.389ZM10.795 145.561C10.795 147.317 10.5234 148.405 10.1599 149.01C9.86405 149.504 9.49104 149.725 8.8504 149.725V152.496C10.4298 152.496 11.7217 151.793 12.5359 150.436C13.2824 149.192 13.5658 147.504 13.5658 145.561H10.795ZM8.8504 149.725C7.48191 149.725 6.42412 149.449 5.61054 148.972C4.80664 148.501 4.15353 147.783 3.66597 146.747L1.15883 147.927C1.85527 149.407 2.86716 150.576 4.20926 151.363C5.54168 152.144 7.11089 152.496 8.8504 152.496V149.725ZM3.69348 146.809C2.7287 144.466 2.24384 141.982 2.24384 139.345H-0.527039C-0.527039 142.332 0.0240982 145.175 1.13131 147.864L3.69348 146.809ZM2.24384 139.345C2.24384 128.579 2.68628 118.036 3.57077 107.717L0.810022 107.48C-0.0814786 117.881 -0.527039 128.503 -0.527039 139.345H2.24384ZM3.56915 107.735C4.60988 97.1787 5.12984 86.2553 5.12984 74.9648H2.35896C2.35896 86.1703 1.84291 97.0028 0.811646 107.463L3.56915 107.735ZM5.12984 74.9648C5.12984 71.099 5.0555 67.3066 4.90673 63.5874L2.13807 63.6982C2.2853 67.379 2.35896 71.1345 2.35896 74.9648H5.12984ZM4.90681 63.5895C4.75748 59.7068 4.45888 55.7515 4.01136 51.7238L1.25743 52.0298C1.69791 55.9941 1.99132 59.8828 2.13798 63.696L4.90681 63.5895ZM3.5582 52.9093C6.46793 50.3058 9.2757 47.0364 11.9875 43.1194L9.7093 41.5422C7.09309 45.3212 4.42487 48.4157 1.7106 50.8443L3.5582 52.9093ZM11.967 43.1482C14.8057 39.2637 17.5667 35.0845 20.2504 30.6116L17.8744 29.186C15.2301 33.5931 12.5151 37.7019 9.72981 41.5134L11.967 43.1482ZM20.2328 30.6401C23.0582 26.179 25.8085 21.5703 28.4839 16.814L26.0689 15.4556C23.4163 20.1713 20.6906 24.7385 17.892 29.1575L20.2328 30.6401ZM28.4927 16.7982C31.1455 11.9347 33.7965 7.36931 36.4455 3.10141L34.0913 1.64016C31.4123 5.95627 28.7353 10.5669 26.0601 15.4714L28.4927 16.7982ZM34.8694 53.5838C35.1657 50.917 35.462 48.1763 35.7582 45.3618L33.0026 45.0718C32.7068 47.8812 32.4111 50.6166 32.1154 53.2778L34.8694 53.5838ZM35.759 45.3546C36.0595 42.3491 36.2098 39.3431 36.2098 36.3368H33.439C33.439 39.2505 33.2933 42.1645 33.0018 45.0789L35.759 45.3546ZM36.2098 36.3368C36.2098 31.6341 35.6036 27.4777 34.3569 23.8936L31.7399 24.8039C32.8612 28.0278 33.439 31.8634 33.439 36.3368H36.2098ZM32.3086 23.1774L28.0906 25.8414L29.5702 28.1842L33.7882 25.5202L32.3086 23.1774ZM27.478 26.7122C27.234 27.8102 26.7603 28.6775 26.0747 29.3631L28.0341 31.3224C29.1245 30.232 29.8348 28.8794 30.1828 27.3133L27.478 26.7122ZM26.0747 29.3631C25.3672 30.0707 24.5846 30.7825 23.7255 31.4985L25.4993 33.6271C26.4162 32.863 27.2616 32.0949 28.0341 31.3224L26.0747 29.3631ZM23.6327 31.5831C22.8603 32.3556 22.0922 33.201 21.3281 34.1179L23.4567 35.8917C24.1726 35.0326 24.8845 34.25 25.5921 33.5424L23.6327 31.5831ZM21.2396 34.2363C20.4973 35.3497 20.0718 36.6847 19.9054 38.1818L22.6594 38.4878C22.789 37.3209 23.1034 36.4358 23.5452 35.7733L21.2396 34.2363ZM20.2369 37.4257C17.1584 40.966 14.9169 44.9038 13.5254 49.2328L16.1634 50.0807C17.4359 46.1218 19.4864 42.5116 22.3279 39.2439L20.2369 37.4257ZM13.5123 49.2762C12.2907 53.5517 11.683 58.0464 11.683 62.7548H14.4538C14.4538 58.2872 15.0301 54.0499 16.1765 50.0374L13.5123 49.2762ZM11.683 62.7548C11.683 66.9986 12.1378 71.1694 13.048 75.2653L15.7528 74.6642C14.887 70.7681 14.4538 66.799 14.4538 62.7548H11.683ZM15.4371 75.8839L34.5291 54.3499L32.4557 52.5117L13.3637 74.0457L15.4371 75.8839Z" fill="#F0F0F0" mask="url(#path-1-outside-1_1172_1735)"/>
</svg>
