<svg width="162" height="112" viewBox="0 0 162 112" fill="none" xmlns="http://www.w3.org/2000/svg">
<mask id="path-1-outside-1_1172_1723" maskUnits="userSpaceOnUse" x="-2.03307" y="-2.0942" width="167.086" height="116.481" fill="black">
<rect fill="white" x="-2.03307" y="-2.0942" width="167.086" height="116.481"/>
<path d="M41.8695 56.1768C42.3686 55.584 42.096 54.4745 41.0519 52.8482C40.0077 51.2219 38.5879 50.7914 36.7923 51.5568C34.423 53.6209 32.7709 55.9799 31.8359 58.6338C31.0329 61.2191 30.4823 63.9237 30.184 66.7473C29.8858 69.571 29.5876 72.3947 29.2894 75.2183C28.9912 78.042 28.0964 80.7584 26.6049 83.3676C26.6738 85.6671 26.3986 87.9784 25.7791 90.3017C25.0793 92.4998 24.4454 94.6637 23.8776 96.7934C23.4416 98.8545 23.1778 100.91 23.0861 102.959C23.1263 104.94 23.7087 106.806 24.8332 108.557C25.5561 109.683 26.7637 110.057 28.456 109.679C30.2803 109.232 32.182 108.495 34.1612 107.467C35.2167 106.919 36.43 106.206 37.8011 105.327C39.0918 104.324 40.3166 103.354 41.4754 102.419C42.7661 101.415 43.8991 100.577 44.8743 99.9036C45.9012 99.0369 46.5466 98.535 46.8104 98.398C47.4702 98.0555 48.9875 97.2677 51.3625 96.0347C53.7891 94.608 56.8095 92.8731 60.4236 90.8299C64.0377 88.7867 68.2197 86.5321 72.9697 84.066C77.6393 81.4748 82.613 78.8091 87.8908 76.069C92.7727 73.5344 97.8927 70.9595 103.251 68.3445C108.528 65.6044 113.821 63.0236 119.127 60.6022C124.433 58.1808 129.622 55.9873 134.694 54.0216C139.684 51.9308 144.426 50.1363 148.918 48.6382C149.893 47.9651 151.106 47.2518 152.558 46.4982C153.929 45.6196 155.234 44.7752 156.473 43.9651C157.764 42.9614 158.71 41.9695 159.312 40.9896C159.966 39.8161 159.892 38.6038 159.089 37.3528C158.446 36.3519 157.54 35.4881 156.369 34.7613C148.917 37.1291 141.534 39.8781 134.22 43.0083C126.957 45.945 119.961 49.1601 113.232 52.6538C109.802 54.4348 106.451 56.341 103.182 58.3723C99.9632 60.21 96.8511 62.076 93.8451 63.9702C91.9979 64.9293 90.0991 66.0819 88.1486 67.4282C86.3301 68.7059 84.3653 69.8928 82.2542 70.9889C80.8028 71.7424 79.2051 72.4051 77.4612 72.9769C75.8491 73.4802 74.1166 73.7959 72.2637 73.9239C71.3628 70.0548 71.5893 66.4343 72.9431 63.0626C74.2165 59.5658 75.0109 55.7339 75.3263 51.5669C75.1083 50.6793 75.0881 49.6889 75.2659 48.5958C75.3634 47.3776 75.4609 46.1594 75.5584 44.9411C75.6559 43.7229 75.7275 42.6015 75.7734 41.5768C75.7389 40.4271 75.4406 39.4144 74.8783 38.5387C73.6735 36.6622 72.2795 36.1349 70.6962 36.9569C69.3767 37.642 68.2208 38.9927 67.2284 41.0092C66.368 42.9571 66.2476 44.6877 66.8672 46.2008C67.4868 47.7139 67.6561 49.2107 67.3751 50.691C67.226 52.1028 66.9449 53.5832 66.5319 55.132C66.2509 56.6124 66.01 58.1552 65.8093 59.7607C65.5282 61.241 65.6315 62.772 66.1192 64.3536C64.599 66.6441 64.1258 69.0582 64.6996 71.596C65.1931 74.0086 65.0899 76.314 64.3901 78.5122C59.8639 82.6969 55.2918 85.9881 50.6738 88.3857C46.0558 90.7833 40.2043 92.9039 33.1195 94.7474C33.8651 91.5246 34.4387 88.3078 34.8401 85.0969C35.2932 81.6924 35.7865 78.3505 36.3199 75.0711C36.7729 71.6666 37.4125 68.4155 38.2384 65.3179C38.9841 62.0951 40.1945 59.048 41.8695 56.1768ZM102.647 38.6333C103.657 39.1099 104.615 39.7801 105.521 40.644C106.48 41.3142 107.397 41.9218 108.275 42.4669C109.153 43.012 110.122 43.4261 111.184 43.7091C112.377 43.9236 113.714 43.8134 115.194 43.3786C115.687 41.9548 116.14 40.4685 116.553 38.9197C117.018 37.1773 116.728 35.4929 115.684 33.8665L103.886 33.9868C102.911 34.6599 102.426 35.412 102.432 36.243C102.489 36.8805 102.561 37.6772 102.647 38.6333Z"/>
</mask>
<path d="M41.8695 56.1768C42.3686 55.584 42.096 54.4745 41.0519 52.8482C40.0077 51.2219 38.5879 50.7914 36.7923 51.5568C34.423 53.6209 32.7709 55.9799 31.8359 58.6338C31.0329 61.2191 30.4823 63.9237 30.184 66.7473C29.8858 69.571 29.5876 72.3947 29.2894 75.2183C28.9912 78.042 28.0964 80.7584 26.6049 83.3676C26.6738 85.6671 26.3986 87.9784 25.7791 90.3017C25.0793 92.4998 24.4454 94.6637 23.8776 96.7934C23.4416 98.8545 23.1778 100.91 23.0861 102.959C23.1263 104.94 23.7087 106.806 24.8332 108.557C25.5561 109.683 26.7637 110.057 28.456 109.679C30.2803 109.232 32.182 108.495 34.1612 107.467C35.2167 106.919 36.43 106.206 37.8011 105.327C39.0918 104.324 40.3166 103.354 41.4754 102.419C42.7661 101.415 43.8991 100.577 44.8743 99.9036C45.9012 99.0369 46.5466 98.535 46.8104 98.398C47.4702 98.0555 48.9875 97.2677 51.3625 96.0347C53.7891 94.608 56.8095 92.8731 60.4236 90.8299C64.0377 88.7867 68.2197 86.5321 72.9697 84.066C77.6393 81.4748 82.613 78.8091 87.8908 76.069C92.7727 73.5344 97.8927 70.9595 103.251 68.3445C108.528 65.6044 113.821 63.0236 119.127 60.6022C124.433 58.1808 129.622 55.9873 134.694 54.0216C139.684 51.9308 144.426 50.1363 148.918 48.6382C149.893 47.9651 151.106 47.2518 152.558 46.4982C153.929 45.6196 155.234 44.7752 156.473 43.9651C157.764 42.9614 158.71 41.9695 159.312 40.9896C159.966 39.8161 159.892 38.6038 159.089 37.3528C158.446 36.3519 157.54 35.4881 156.369 34.7613C148.917 37.1291 141.534 39.8781 134.22 43.0083C126.957 45.945 119.961 49.1601 113.232 52.6538C109.802 54.4348 106.451 56.341 103.182 58.3723C99.9632 60.21 96.8511 62.076 93.8451 63.9702C91.9979 64.9293 90.0991 66.0819 88.1486 67.4282C86.3301 68.7059 84.3653 69.8928 82.2542 70.9889C80.8028 71.7424 79.2051 72.4051 77.4612 72.9769C75.8491 73.4802 74.1166 73.7959 72.2637 73.9239C71.3628 70.0548 71.5893 66.4343 72.9431 63.0626C74.2165 59.5658 75.0109 55.7339 75.3263 51.5669C75.1083 50.6793 75.0881 49.6889 75.2659 48.5958C75.3634 47.3776 75.4609 46.1594 75.5584 44.9411C75.6559 43.7229 75.7275 42.6015 75.7734 41.5768C75.7389 40.4271 75.4406 39.4144 74.8783 38.5387C73.6735 36.6622 72.2795 36.1349 70.6962 36.9569C69.3767 37.642 68.2208 38.9927 67.2284 41.0092C66.368 42.9571 66.2476 44.6877 66.8672 46.2008C67.4868 47.7139 67.6561 49.2107 67.3751 50.691C67.226 52.1028 66.9449 53.5832 66.5319 55.132C66.2509 56.6124 66.01 58.1552 65.8093 59.7607C65.5282 61.241 65.6315 62.772 66.1192 64.3536C64.599 66.6441 64.1258 69.0582 64.6996 71.596C65.1931 74.0086 65.0899 76.314 64.3901 78.5122C59.8639 82.6969 55.2918 85.9881 50.6738 88.3857C46.0558 90.7833 40.2043 92.9039 33.1195 94.7474C33.8651 91.5246 34.4387 88.3078 34.8401 85.0969C35.2932 81.6924 35.7865 78.3505 36.3199 75.0711C36.7729 71.6666 37.4125 68.4155 38.2384 65.3179C38.9841 62.0951 40.1945 59.048 41.8695 56.1768ZM102.647 38.6333C103.657 39.1099 104.615 39.7801 105.521 40.644C106.48 41.3142 107.397 41.9218 108.275 42.4669C109.153 43.012 110.122 43.4261 111.184 43.7091C112.377 43.9236 113.714 43.8134 115.194 43.3786C115.687 41.9548 116.14 40.4685 116.553 38.9197C117.018 37.1773 116.728 35.4929 115.684 33.8665L103.886 33.9868C102.911 34.6599 102.426 35.412 102.432 36.243C102.489 36.8805 102.561 37.6772 102.647 38.6333Z" fill="#F0F0F0"/>
<path d="M41.8695 56.1768L40.595 55.5055L40.6487 55.4136L40.7179 55.3314L41.8695 56.1768ZM36.7923 51.5568L35.7793 50.5706L35.9394 50.4311L36.1403 50.3455L36.7923 51.5568ZM31.8359 58.6338L30.4508 58.2138L30.4575 58.1922L30.465 58.1708L31.8359 58.6338ZM30.184 66.7473L28.7513 66.5585L28.7513 66.5585L30.184 66.7473ZM26.6049 83.3676L25.166 83.3435L25.1557 83.0019L25.3251 82.7057L26.6049 83.3676ZM25.7791 90.3017L27.1778 90.6746L27.1704 90.7024L27.1617 90.7297L25.7791 90.3017ZM23.8776 96.7934L22.4642 96.4815L22.4707 96.4508L22.4788 96.4204L23.8776 96.7934ZM23.0861 102.959L21.6469 102.923L21.6461 102.883L21.6478 102.843L23.0861 102.959ZM28.456 109.679L28.8839 110.965L28.8693 110.968L28.8546 110.972L28.456 109.679ZM37.8011 105.327L38.7575 106.36L38.7094 106.398L38.6578 106.431L37.8011 105.327ZM41.4754 102.419L40.5003 101.401L40.5095 101.393L40.519 101.386L41.4754 102.419ZM44.8743 99.9036L45.8717 100.903L45.8228 100.945L45.7696 100.981L44.8743 99.9036ZM51.3625 96.0347L52.1746 97.1654L52.1433 97.1837L52.111 97.2005L51.3625 96.0347ZM72.9697 84.066L73.752 85.2136L73.7352 85.2229L73.7182 85.2318L72.9697 84.066ZM103.251 68.3445L103.999 69.5104L103.984 69.5183L103.968 69.526L103.251 68.3445ZM134.694 54.0216L135.337 55.2364L135.32 55.2438L135.302 55.2508L134.694 54.0216ZM148.918 48.6382L149.813 49.7159L149.652 49.8272L149.461 49.8908L148.918 48.6382ZM152.558 46.4982L153.414 47.6015L153.362 47.6351L153.306 47.6641L152.558 46.4982ZM156.473 43.9651L157.429 44.9979L157.386 45.0315L157.34 45.0616L156.473 43.9651ZM159.312 40.9896L160.599 41.6399L160.586 41.6627L160.572 41.6851L159.312 40.9896ZM156.369 34.7613L155.846 33.5023L156.521 33.2879L157.134 33.669L156.369 34.7613ZM134.22 43.0083L134.874 44.2189L134.861 44.2245L134.847 44.2299L134.22 43.0083ZM103.182 58.3723L104.022 59.4857L104.001 59.4991L103.979 59.5117L103.182 58.3723ZM93.8451 63.9702L94.6931 65.079L94.6448 65.1095L94.5936 65.1361L93.8451 63.9702ZM88.1486 67.4282L87.2441 66.3569L87.2534 66.3505L88.1486 67.4282ZM77.4612 72.9769L77.9973 74.2318L77.9875 74.2351L77.9776 74.2381L77.4612 72.9769ZM72.2637 73.9239L72.4363 75.2494L71.1347 75.3394L70.8569 74.1458L72.2637 73.9239ZM72.9431 63.0626L74.3097 63.5375L74.303 63.5559L74.2957 63.5742L72.9431 63.0626ZM75.3263 51.5669L76.7295 51.33L76.7771 51.524L76.7623 51.7199L75.3263 51.5669ZM75.2659 48.5958L76.7016 48.754L76.6976 48.8031L76.6897 48.8517L75.2659 48.5958ZM75.7734 41.5768L77.2123 41.601L77.2137 41.6468L77.2117 41.6924L75.7734 41.5768ZM67.2284 41.0092L65.8918 40.4595L65.902 40.4366L65.9131 40.414L67.2284 41.0092ZM66.8672 46.2008L68.2108 45.7813L66.8672 46.2008ZM67.3751 50.691L65.9423 50.5022L65.9475 50.4526L65.9568 50.4037L67.3751 50.691ZM66.5319 55.132L65.1137 54.8447L65.1219 54.8015L65.1332 54.759L66.5319 55.132ZM65.8093 59.7607L67.2394 59.9725L67.2346 60.0104L67.2275 60.048L65.8093 59.7607ZM66.1192 64.3536L67.5024 64.0445L67.6751 64.6045L67.356 65.0853L66.1192 64.3536ZM64.6996 71.596L66.1082 71.382L66.1111 71.3948L66.1137 71.4076L64.6996 71.596ZM64.3901 78.5122L65.7727 78.9402L65.6747 79.248L65.4317 79.4728L64.3901 78.5122ZM33.1195 94.7474L33.5681 96.028L31.1946 96.6456L31.7111 94.4132L33.1195 94.7474ZM34.8401 85.0969L33.41 84.8851L33.4112 84.8756L34.8401 85.0969ZM36.3199 75.0711L37.7487 75.2924L37.7464 75.3098L37.7436 75.327L36.3199 75.0711ZM38.2384 65.3179L39.6468 65.652L39.6423 65.6715L39.6372 65.6908L38.2384 65.3179ZM102.647 38.6333L102.039 39.8112L101.282 39.4538L101.213 38.683L102.647 38.6333ZM105.521 40.644L104.686 41.69L104.592 41.6243L104.51 41.546L105.521 40.644ZM111.184 43.7091L110.972 45.0134L110.907 45.0018L110.844 44.9848L111.184 43.7091ZM115.194 43.3786L116.567 43.8356L116.354 44.451L115.687 44.647L115.194 43.3786ZM116.553 38.9197L117.952 39.2927L116.553 38.9197ZM115.684 33.8665L115.602 32.5374L116.464 32.5287L116.914 33.2282L115.684 33.8665ZM103.886 33.9868L102.991 32.9092L103.349 32.6624L103.804 32.6577L103.886 33.9868ZM102.432 36.243L100.998 36.2926L100.993 36.2416L100.993 36.1906L102.432 36.243ZM40.7179 55.3314C40.6127 55.4563 40.7233 55.4914 40.6362 55.137C40.5495 54.7841 40.3087 54.2442 39.8223 53.4866L42.2815 52.2098C42.8392 53.0785 43.2567 53.9065 43.4426 54.6631C43.6281 55.4182 43.6254 56.3045 43.0211 57.0221L40.7179 55.3314ZM39.8223 53.4866C39.42 52.86 39.0626 52.6426 38.8121 52.5667C38.5608 52.4905 38.1385 52.4722 37.4443 52.7682L36.1403 50.3455C37.2416 49.876 38.4271 49.6903 39.5956 50.0445C40.765 50.399 41.6396 51.2101 42.2815 52.2098L39.8223 53.4866ZM37.8052 52.5431C35.5858 54.4767 34.0652 56.6605 33.2069 59.0967L30.465 58.1708C31.4767 55.2993 33.2603 52.7652 35.7793 50.5706L37.8052 52.5431ZM33.2211 59.0537C32.4425 61.5604 31.9071 64.1873 31.6168 66.9361L28.7513 66.5585C29.0574 63.66 29.6233 60.8779 30.4508 58.2138L33.2211 59.0537ZM31.6168 66.9361C31.3186 69.7598 31.0204 72.5835 30.7222 75.4071L27.8566 75.0295C28.1549 72.2059 28.4531 69.3822 28.7513 66.5585L31.6168 66.9361ZM30.7222 75.4071C30.4054 78.4064 29.455 81.2825 27.8848 84.0295L25.3251 82.7057C26.7377 80.2344 27.577 77.6776 27.8566 75.0295L30.7222 75.4071ZM28.0439 83.3917C28.1165 85.8154 27.8259 88.2439 27.1778 90.6746L24.3803 89.9287C24.9712 87.7129 25.2312 85.5187 25.166 83.3435L28.0439 83.3917ZM27.1617 90.7297C26.4674 92.9105 25.839 95.056 25.2763 97.1664L22.4788 96.4204C23.0518 94.2715 23.6911 92.0892 24.3964 89.8736L27.1617 90.7297ZM25.2909 97.1053C24.8682 99.1038 24.6131 101.093 24.5244 103.075L21.6478 102.843C21.7426 100.726 22.0151 98.6053 22.4642 96.4815L25.2909 97.1053ZM24.5254 102.995C24.5608 104.739 25.0697 106.372 26.0628 107.919L23.6036 109.196C22.3477 107.239 21.6919 105.141 21.6469 102.923L24.5254 102.995ZM26.0628 107.919C26.2584 108.224 26.4614 108.356 26.6817 108.424C26.9397 108.504 27.3721 108.539 28.0574 108.386L28.8546 110.972C27.8475 111.197 26.83 111.234 25.8804 110.94C24.893 110.635 24.1309 110.017 23.6036 109.196L26.0628 107.919ZM28.0281 108.393C29.7192 107.979 31.5135 107.288 33.4127 106.302L34.9097 108.633C32.8505 109.702 30.8414 110.485 28.8839 110.965L28.0281 108.393ZM33.4127 106.302C34.4201 105.779 35.5961 105.088 36.9443 104.224L38.6578 106.431C37.2639 107.324 36.0133 108.06 34.9097 108.633L33.4127 106.302ZM36.8447 104.295C38.1297 103.295 39.3482 102.331 40.5003 101.401L42.4505 103.437C41.2849 104.378 40.0539 105.352 38.7575 106.36L36.8447 104.295ZM40.519 101.386C41.8226 100.372 42.9768 99.5178 43.9791 98.826L45.7696 100.981C44.8214 101.636 43.7096 102.458 42.4318 103.452L40.519 101.386ZM43.8769 98.9041C44.3964 98.4656 44.8295 98.1108 45.1721 97.8444C45.4835 97.6022 45.8027 97.3668 46.0619 97.2322L47.5589 99.5639C47.5758 99.5551 47.5449 99.5705 47.4454 99.6404C47.3556 99.7036 47.2364 99.7922 47.0849 99.91C46.7821 100.145 46.3791 100.475 45.8717 100.903L43.8769 98.9041ZM46.0619 97.2322C46.0632 97.2315 46.0645 97.2309 46.0658 97.2302C46.0671 97.2295 46.0684 97.2288 46.0697 97.2282C46.071 97.2275 46.0723 97.2268 46.0736 97.2261C46.0749 97.2255 46.0762 97.2248 46.0776 97.2241C46.0789 97.2234 46.0802 97.2227 46.0815 97.222C46.0828 97.2213 46.0841 97.2207 46.0855 97.22C46.0868 97.2193 46.0881 97.2186 46.0895 97.2179C46.0908 97.2172 46.0921 97.2165 46.0935 97.2158C46.0948 97.2151 46.0962 97.2144 46.0975 97.2137C46.0989 97.213 46.1002 97.2123 46.1016 97.2116C46.1029 97.2109 46.1043 97.2102 46.1056 97.2095C46.107 97.2088 46.1084 97.2081 46.1097 97.2074C46.1111 97.2067 46.1125 97.206 46.1138 97.2052C46.1152 97.2045 46.1166 97.2038 46.118 97.2031C46.1194 97.2024 46.1207 97.2017 46.1221 97.2009C46.1235 97.2002 46.1249 97.1995 46.1263 97.1988C46.1277 97.1981 46.1291 97.1973 46.1305 97.1966C46.1319 97.1959 46.1333 97.1951 46.1347 97.1944C46.1361 97.1937 46.1375 97.193 46.1389 97.1922C46.1403 97.1915 46.1418 97.1908 46.1432 97.19C46.1446 97.1893 46.146 97.1885 46.1474 97.1878C46.1489 97.1871 46.1503 97.1863 46.1517 97.1856C46.1532 97.1848 46.1546 97.1841 46.156 97.1833C46.1575 97.1826 46.1589 97.1818 46.1604 97.1811C46.1618 97.1803 46.1632 97.1796 46.1647 97.1788C46.1662 97.1781 46.1676 97.1773 46.1691 97.1766C46.1705 97.1758 46.172 97.1751 46.1735 97.1743C46.1749 97.1735 46.1764 97.1728 46.1779 97.172C46.1793 97.1712 46.1808 97.1705 46.1823 97.1697C46.1838 97.1689 46.1853 97.1682 46.1867 97.1674C46.1882 97.1666 46.1897 97.1659 46.1912 97.1651C46.1927 97.1643 46.1942 97.1635 46.1957 97.1628C46.1972 97.162 46.1987 97.1612 46.2002 97.1604C46.2017 97.1596 46.2032 97.1589 46.2047 97.1581C46.2062 97.1573 46.2077 97.1565 46.2093 97.1557C46.2108 97.1549 46.2123 97.1541 46.2138 97.1533C46.2153 97.1526 46.2169 97.1518 46.2184 97.151C46.2199 97.1502 46.2215 97.1494 46.223 97.1486C46.2245 97.1478 46.2261 97.147 46.2276 97.1462C46.2292 97.1454 46.2307 97.1446 46.2323 97.1438C46.2338 97.143 46.2354 97.1422 46.2369 97.1413C46.2385 97.1405 46.24 97.1397 46.2416 97.1389C46.2432 97.1381 46.2447 97.1373 46.2463 97.1365C46.2479 97.1357 46.2494 97.1348 46.251 97.134C46.2526 97.1332 46.2542 97.1324 46.2558 97.1316C46.2573 97.1307 46.2589 97.1299 46.2605 97.1291C46.2621 97.1283 46.2637 97.1274 46.2653 97.1266C46.2669 97.1258 46.2685 97.125 46.2701 97.1241C46.2717 97.1233 46.2733 97.1225 46.2749 97.1216C46.2765 97.1208 46.2781 97.12 46.2798 97.1191C46.2814 97.1183 46.283 97.1174 46.2846 97.1166C46.2862 97.1157 46.2879 97.1149 46.2895 97.1141C46.2911 97.1132 46.2927 97.1124 46.2944 97.1115C46.296 97.1107 46.2977 97.1098 46.2993 97.109C46.3009 97.1081 46.3026 97.1073 46.3042 97.1064C46.3059 97.1055 46.3075 97.1047 46.3092 97.1038C46.3108 97.103 46.3125 97.1021 46.3142 97.1012C46.3158 97.1004 46.3175 97.0995 46.3191 97.0987C46.3208 97.0978 46.3225 97.0969 46.3242 97.096C46.3258 97.0952 46.3275 97.0943 46.3292 97.0934C46.3309 97.0926 46.3326 97.0917 46.3342 97.0908C46.3359 97.0899 46.3376 97.0891 46.3393 97.0882C46.341 97.0873 46.3427 97.0864 46.3444 97.0855C46.3461 97.0846 46.3478 97.0838 46.3495 97.0829C46.3512 97.082 46.3529 97.0811 46.3547 97.0802C46.3564 97.0793 46.3581 97.0784 46.3598 97.0775C46.3615 97.0766 46.3633 97.0758 46.365 97.0749C46.3667 97.074 46.3684 97.0731 46.3702 97.0722C46.3719 97.0713 46.3736 97.0704 46.3754 97.0695C46.3771 97.0686 46.3789 97.0676 46.3806 97.0667C46.3824 97.0658 46.3841 97.0649 46.3859 97.064C46.3876 97.0631 46.3894 97.0622 46.3911 97.0613C46.3929 97.0604 46.3947 97.0595 46.3964 97.0585C46.3982 97.0576 46.4 97.0567 46.4017 97.0558C46.4035 97.0549 46.4053 97.0539 46.4071 97.053C46.4088 97.0521 46.4106 97.0512 46.4124 97.0502C46.4142 97.0493 46.416 97.0484 46.4178 97.0474C46.4196 97.0465 46.4214 97.0456 46.4232 97.0447C46.425 97.0437 46.4268 97.0428 46.4286 97.0418C46.4304 97.0409 46.4322 97.04 46.434 97.039C46.4358 97.0381 46.4376 97.0371 46.4394 97.0362C46.4413 97.0353 46.4431 97.0343 46.4449 97.0334C46.4467 97.0324 46.4486 97.0315 46.4504 97.0305C46.4522 97.0296 46.4541 97.0286 46.4559 97.0277C46.4577 97.0267 46.4596 97.0258 46.4614 97.0248C46.4633 97.0238 46.4651 97.0229 46.467 97.0219C46.4688 97.0209 46.4707 97.02 46.4725 97.019C46.4744 97.0181 46.4762 97.0171 46.4781 97.0161C46.48 97.0152 46.4818 97.0142 46.4837 97.0132C46.4856 97.0122 46.4875 97.0113 46.4893 97.0103C46.4912 97.0093 46.4931 97.0083 46.495 97.0074C46.4969 97.0064 46.4987 97.0054 46.5006 97.0044C46.5025 97.0034 46.5044 97.0025 46.5063 97.0015C46.5082 97.0005 46.5101 96.9995 46.512 96.9985C46.5139 96.9975 46.5158 96.9965 46.5177 96.9956C46.5196 96.9946 46.5216 96.9936 46.5235 96.9926C46.5254 96.9916 46.5273 96.9906 46.5292 96.9896C46.5312 96.9886 46.5331 96.9876 46.535 96.9866C46.5369 96.9856 46.5389 96.9846 46.5408 96.9836C46.5428 96.9826 46.5447 96.9816 46.5466 96.9805C46.5486 96.9795 46.5505 96.9785 46.5525 96.9775C46.5544 96.9765 46.5564 96.9755 46.5583 96.9745C46.5603 96.9735 46.5622 96.9724 46.5642 96.9714C46.5662 96.9704 46.5681 96.9694 46.5701 96.9684C46.5721 96.9673 46.574 96.9663 46.576 96.9653C46.578 96.9643 46.58 96.9632 46.582 96.9622C46.5839 96.9612 46.5859 96.9601 46.5879 96.9591C46.5899 96.9581 46.5919 96.9571 46.5939 96.956C46.5959 96.955 46.5979 96.9539 46.5999 96.9529C46.6019 96.9519 46.6039 96.9508 46.6059 96.9498C46.6079 96.9487 46.6099 96.9477 46.6119 96.9466C46.614 96.9456 46.616 96.9446 46.618 96.9435C46.62 96.9424 46.622 96.9414 46.6241 96.9403C46.6261 96.9393 46.6281 96.9382 46.6302 96.9372C46.6322 96.9361 46.6342 96.9351 46.6363 96.934C46.6383 96.9329 46.6404 96.9319 46.6424 96.9308C46.6444 96.9298 46.6465 96.9287 46.6486 96.9276C46.6506 96.9266 46.6527 96.9255 46.6547 96.9244C46.6568 96.9234 46.6589 96.9223 46.6609 96.9212C46.663 96.9201 46.6651 96.9191 46.6671 96.918C46.6692 96.9169 46.6713 96.9158 46.6734 96.9148C46.6754 96.9137 46.6775 96.9126 46.6796 96.9115C46.6817 96.9104 46.6838 96.9093 46.6859 96.9082C46.688 96.9072 46.6901 96.9061 46.6922 96.905C46.6943 96.9039 46.6964 96.9028 46.6985 96.9017C46.7006 96.9006 46.7027 96.8995 46.7048 96.8984C46.7069 96.8973 46.709 96.8962 46.7112 96.8951C46.7133 96.894 46.7154 96.8929 46.7175 96.8918C46.7196 96.8907 46.7218 96.8896 46.7239 96.8885C46.7261 96.8874 46.7282 96.8863 46.7303 96.8852C46.7325 96.8841 46.7346 96.883 46.7368 96.8818C46.7389 96.8807 46.741 96.8796 46.7432 96.8785C46.7454 96.8774 46.7475 96.8763 46.7497 96.8751C46.7518 96.874 46.754 96.8729 46.7561 96.8718C46.7583 96.8706 46.7605 96.8695 46.7627 96.8684C46.7648 96.8673 46.767 96.8661 46.7692 96.865C46.7714 96.8639 46.7735 96.8627 46.7757 96.8616C46.7779 96.8605 46.7801 96.8593 46.7823 96.8582C46.7845 96.8571 46.7867 96.8559 46.7889 96.8548C46.7911 96.8536 46.7933 96.8525 46.7955 96.8514C46.7977 96.8502 46.7999 96.8491 46.8021 96.8479C46.8043 96.8468 46.8065 96.8456 46.8087 96.8445C46.811 96.8433 46.8132 96.8422 46.8154 96.841C46.8176 96.8399 46.8199 96.8387 46.8221 96.8375C46.8243 96.8364 46.8266 96.8352 46.8288 96.8341C46.831 96.8329 46.8333 96.8317 46.8355 96.8306C46.8378 96.8294 46.84 96.8282 46.8423 96.8271C46.8445 96.8259 46.8468 96.8247 46.849 96.8236C46.8513 96.8224 46.8535 96.8212 46.8558 96.82C46.8581 96.8189 46.8603 96.8177 46.8626 96.8165C46.8649 96.8153 46.8671 96.8141 46.8694 96.813C46.8717 96.8118 46.874 96.8106 46.8763 96.8094C46.8785 96.8082 46.8808 96.807 46.8831 96.8059C46.8854 96.8047 46.8877 96.8035 46.89 96.8023C46.8923 96.8011 46.8946 96.7999 46.8969 96.7987C46.8992 96.7975 46.9015 96.7963 46.9038 96.7951C46.9061 96.7939 46.9084 96.7927 46.9107 96.7915C46.9131 96.7903 46.9154 96.7891 46.9177 96.7879C46.92 96.7867 46.9224 96.7855 46.9247 96.7843C46.927 96.7831 46.9293 96.7819 46.9317 96.7806C46.934 96.7794 46.9364 96.7782 46.9387 96.777C46.941 96.7758 46.9434 96.7746 46.9457 96.7733C46.9481 96.7721 46.9504 96.7709 46.9528 96.7697C46.9551 96.7685 46.9575 96.7672 46.9599 96.766C46.9622 96.7648 46.9646 96.7636 46.967 96.7623C46.9693 96.7611 46.9717 96.7599 46.9741 96.7586C46.9764 96.7574 46.9788 96.7562 46.9812 96.7549C46.9836 96.7537 46.986 96.7524 46.9884 96.7512C46.9907 96.75 46.9931 96.7487 46.9955 96.7475C46.9979 96.7462 47.0003 96.745 47.0027 96.7438C47.0051 96.7425 47.0075 96.7413 47.0099 96.74C47.0123 96.7388 47.0148 96.7375 47.0172 96.7363C47.0196 96.735 47.022 96.7337 47.0244 96.7325C47.0268 96.7312 47.0293 96.73 47.0317 96.7287C47.0341 96.7275 47.0365 96.7262 47.039 96.7249C47.0414 96.7237 47.0439 96.7224 47.0463 96.7211C47.0487 96.7199 47.0512 96.7186 47.0536 96.7173C47.0561 96.7161 47.0585 96.7148 47.061 96.7135C47.0634 96.7122 47.0659 96.711 47.0683 96.7097C47.0708 96.7084 47.0733 96.7071 47.0757 96.7058C47.0782 96.7046 47.0807 96.7033 47.0831 96.702C47.0856 96.7007 47.0881 96.6994 47.0906 96.6981C47.093 96.6969 47.0955 96.6956 47.098 96.6943C47.1005 96.693 47.103 96.6917 47.1055 96.6904C47.108 96.6891 47.1105 96.6878 47.113 96.6865C47.1155 96.6852 47.118 96.6839 47.1205 96.6826C47.123 96.6813 47.1255 96.68 47.128 96.6787C47.1305 96.6774 47.133 96.6761 47.1355 96.6748C47.1381 96.6735 47.1406 96.6722 47.1431 96.6709C47.1456 96.6696 47.1482 96.6682 47.1507 96.6669C47.1532 96.6656 47.1558 96.6643 47.1583 96.663C47.1608 96.6617 47.1634 96.6603 47.1659 96.659C47.1685 96.6577 47.171 96.6564 47.1736 96.655C47.1761 96.6537 47.1787 96.6524 47.1812 96.6511C47.1838 96.6497 47.1864 96.6484 47.1889 96.6471C47.1915 96.6458 47.1941 96.6444 47.1966 96.6431C47.1992 96.6417 47.2018 96.6404 47.2043 96.6391C47.2069 96.6377 47.2095 96.6364 47.2121 96.6351C47.2147 96.6337 47.2173 96.6324 47.2199 96.631C47.2224 96.6297 47.225 96.6283 47.2276 96.627C47.2302 96.6256 47.2328 96.6243 47.2354 96.6229C47.238 96.6216 47.2407 96.6202 47.2433 96.6189C47.2459 96.6175 47.2485 96.6162 47.2511 96.6148C47.2537 96.6134 47.2563 96.6121 47.259 96.6107C47.2616 96.6094 47.2642 96.608 47.2668 96.6066C47.2695 96.6053 47.2721 96.6039 47.2747 96.6025C47.2774 96.6012 47.28 96.5998 47.2827 96.5984C47.2853 96.597 47.2879 96.5957 47.2906 96.5943C47.2932 96.5929 47.2959 96.5915 47.2985 96.5902C47.3012 96.5888 47.3039 96.5874 47.3065 96.586C47.3092 96.5846 47.3119 96.5833 47.3145 96.5819C47.3172 96.5805 47.3199 96.5791 47.3225 96.5777C47.3252 96.5763 47.3279 96.5749 47.3306 96.5735C47.3333 96.5721 47.3359 96.5707 47.3386 96.5693C47.3413 96.568 47.344 96.5666 47.3467 96.5652C47.3494 96.5638 47.3521 96.5624 47.3548 96.561C47.3575 96.5596 47.3602 96.5581 47.3629 96.5567C47.3656 96.5553 47.3683 96.5539 47.3711 96.5525C47.3738 96.5511 47.3765 96.5497 47.3792 96.5483C47.3819 96.5469 47.3847 96.5455 47.3874 96.544C47.3901 96.5426 47.3929 96.5412 47.3956 96.5398C47.3983 96.5384 47.4011 96.5369 47.4038 96.5355C47.4065 96.5341 47.4093 96.5327 47.412 96.5312C47.4148 96.5298 47.4175 96.5284 47.4203 96.527C47.423 96.5255 47.4258 96.5241 47.4286 96.5227C47.4313 96.5212 47.4341 96.5198 47.4368 96.5184C47.4396 96.5169 47.4424 96.5155 47.4452 96.5141C47.4479 96.5126 47.4507 96.5112 47.4535 96.5097C47.4563 96.5083 47.459 96.5068 47.4618 96.5054C47.4646 96.5039 47.4674 96.5025 47.4702 96.501C47.473 96.4996 47.4758 96.4981 47.4786 96.4967C47.4814 96.4952 47.4842 96.4938 47.487 96.4923C47.4898 96.4909 47.4926 96.4894 47.4954 96.4879C47.4983 96.4865 47.5011 96.485 47.5039 96.4836C47.5067 96.4821 47.5095 96.4806 47.5124 96.4792C47.5152 96.4777 47.518 96.4762 47.5208 96.4748C47.5237 96.4733 47.5265 96.4718 47.5293 96.4703C47.5322 96.4689 47.535 96.4674 47.5379 96.4659C47.5407 96.4644 47.5436 96.4629 47.5464 96.4615C47.5493 96.46 47.5521 96.4585 47.555 96.457C47.5579 96.4555 47.5607 96.4541 47.5636 96.4526C47.5665 96.4511 47.5693 96.4496 47.5722 96.4481C47.5751 96.4466 47.5779 96.4451 47.5808 96.4436C47.5837 96.4421 47.5866 96.4406 47.5895 96.4391C47.5923 96.4376 47.5952 96.4361 47.5981 96.4346C47.601 96.4331 47.6039 96.4316 47.6068 96.4301C47.6097 96.4286 47.6126 96.4271 47.6155 96.4256C47.6184 96.4241 47.6213 96.4226 47.6242 96.4211C47.6272 96.4196 47.6301 96.418 47.633 96.4165C47.6359 96.415 47.6388 96.4135 47.6417 96.412C47.6447 96.4105 47.6476 96.4089 47.6505 96.4074C47.6535 96.4059 47.6564 96.4044 47.6593 96.4029C47.6623 96.4013 47.6652 96.3998 47.6682 96.3983C47.6711 96.3967 47.674 96.3952 47.677 96.3937C47.6799 96.3922 47.6829 96.3906 47.6859 96.3891C47.6888 96.3875 47.6918 96.386 47.6947 96.3845C47.6977 96.3829 47.7007 96.3814 47.7036 96.3799C47.7066 96.3783 47.7096 96.3768 47.7125 96.3752C47.7155 96.3737 47.7185 96.3721 47.7215 96.3706C47.7245 96.369 47.7275 96.3675 47.7305 96.3659C47.7334 96.3644 47.7364 96.3628 47.7394 96.3613C47.7424 96.3597 47.7454 96.3582 47.7484 96.3566C47.7514 96.355 47.7544 96.3535 47.7575 96.3519C47.7605 96.3503 47.7635 96.3488 47.7665 96.3472C47.7695 96.3457 47.7725 96.3441 47.7755 96.3425C47.7786 96.3409 47.7816 96.3394 47.7846 96.3378C47.7877 96.3362 47.7907 96.3347 47.7937 96.3331C47.7968 96.3315 47.7998 96.3299 47.8028 96.3283C47.8059 96.3268 47.8089 96.3252 47.812 96.3236C47.815 96.322 47.8181 96.3204 47.8211 96.3188C47.8242 96.3173 47.8272 96.3157 47.8303 96.3141C47.8334 96.3125 47.8364 96.3109 47.8395 96.3093C47.8426 96.3077 47.8456 96.3061 47.8487 96.3045C47.8518 96.3029 47.8549 96.3013 47.858 96.2997C47.861 96.2981 47.8641 96.2965 47.8672 96.2949C47.8703 96.2933 47.8734 96.2917 47.8765 96.2901C47.8796 96.2885 47.8827 96.2869 47.8858 96.2853C47.8889 96.2837 47.892 96.2821 47.8951 96.2805C47.8982 96.2788 47.9013 96.2772 47.9044 96.2756C47.9075 96.274 47.9106 96.2724 47.9138 96.2708C47.9169 96.2691 47.92 96.2675 47.9231 96.2659C47.9263 96.2643 47.9294 96.2626 47.9325 96.261C47.9357 96.2594 47.9388 96.2578 47.9419 96.2561C47.9451 96.2545 47.9482 96.2529 47.9514 96.2512C47.9545 96.2496 47.9577 96.248 47.9608 96.2463C47.964 96.2447 47.9671 96.243 47.9703 96.2414C47.9735 96.2398 47.9766 96.2381 47.9798 96.2365C47.9829 96.2348 47.9861 96.2332 47.9893 96.2315C47.9925 96.2299 47.9956 96.2282 47.9988 96.2266C48.002 96.225 48.0052 96.2233 48.0084 96.2216C48.0116 96.22 48.0147 96.2183 48.0179 96.2167C48.0211 96.215 48.0243 96.2134 48.0275 96.2117C48.0307 96.21 48.0339 96.2084 48.0371 96.2067C48.0403 96.205 48.0435 96.2034 48.0468 96.2017C48.05 96.2 48.0532 96.1984 48.0564 96.1967C48.0596 96.195 48.0628 96.1934 48.0661 96.1917C48.0693 96.19 48.0725 96.1883 48.0758 96.1867C48.079 96.185 48.0822 96.1833 48.0855 96.1816C48.0887 96.1799 48.0919 96.1783 48.0952 96.1766C48.0984 96.1749 48.1017 96.1732 48.1049 96.1715C48.1082 96.1698 48.1114 96.1681 48.1147 96.1664C48.118 96.1647 48.1212 96.163 48.1245 96.1614C48.1277 96.1597 48.131 96.158 48.1343 96.1563C48.1375 96.1546 48.1408 96.1529 48.1441 96.1512C48.1474 96.1495 48.1507 96.1478 48.1539 96.1461C48.1572 96.1444 48.1605 96.1426 48.1638 96.1409C48.1671 96.1392 48.1704 96.1375 48.1737 96.1358C48.177 96.1341 48.1803 96.1324 48.1836 96.1307C48.1869 96.1289 48.1902 96.1272 48.1935 96.1255C48.1968 96.1238 48.2001 96.1221 48.2035 96.1204C48.2068 96.1186 48.2101 96.1169 48.2134 96.1152C48.2167 96.1135 48.2201 96.1117 48.2234 96.11C48.2267 96.1083 48.2301 96.1065 48.2334 96.1048C48.2367 96.1031 48.2401 96.1013 48.2434 96.0996C48.2468 96.0979 48.2501 96.0961 48.2535 96.0944C48.2568 96.0927 48.2602 96.0909 48.2635 96.0892C48.2669 96.0874 48.2702 96.0857 48.2736 96.0839C48.277 96.0822 48.2803 96.0804 48.2837 96.0787C48.2871 96.0769 48.2904 96.0752 48.2938 96.0734C48.2972 96.0717 48.3006 96.0699 48.3039 96.0682C48.3073 96.0664 48.3107 96.0647 48.3141 96.0629C48.3175 96.0611 48.3209 96.0594 48.3243 96.0576C48.3277 96.0559 48.3311 96.0541 48.3345 96.0523C48.3379 96.0506 48.3413 96.0488 48.3447 96.047C48.3481 96.0453 48.3515 96.0435 48.3549 96.0417C48.3583 96.0399 48.3618 96.0382 48.3652 96.0364C48.3686 96.0346 48.372 96.0328 48.3754 96.0311C48.3789 96.0293 48.3823 96.0275 48.3857 96.0257C48.3892 96.0239 48.3926 96.0221 48.3961 96.0204C48.3995 96.0186 48.403 96.0168 48.4064 96.015C48.4098 96.0132 48.4133 96.0114 48.4168 96.0096C48.4202 96.0078 48.4237 96.006 48.4271 96.0042C48.4306 96.0024 48.434 96.0006 48.4375 95.9988C48.441 95.997 48.4444 95.9952 48.4479 95.9934C48.4514 95.9916 48.4549 95.9898 48.4584 95.988C48.4618 95.9862 48.4653 95.9844 48.4688 95.9826C48.4723 95.9808 48.4758 95.979 48.4793 95.9772C48.4828 95.9753 48.4863 95.9735 48.4898 95.9717C48.4933 95.9699 48.4968 95.9681 48.5003 95.9662C48.5038 95.9644 48.5073 95.9626 48.5108 95.9608C48.5143 95.959 48.5178 95.9571 48.5214 95.9553C48.5249 95.9535 48.5284 95.9516 48.5319 95.9498C48.5355 95.948 48.539 95.9462 48.5425 95.9443C48.5461 95.9425 48.5496 95.9406 48.5531 95.9388C48.5567 95.937 48.5602 95.9351 48.5638 95.9333C48.5673 95.9314 48.5709 95.9296 48.5744 95.9278C48.5779 95.9259 48.5815 95.9241 48.5851 95.9222C48.5886 95.9204 48.5922 95.9185 48.5958 95.9167C48.5993 95.9148 48.6029 95.913 48.6065 95.9111C48.61 95.9093 48.6136 95.9074 48.6172 95.9055C48.6208 95.9037 48.6243 95.9018 48.6279 95.9C48.6315 95.8981 48.6351 95.8962 48.6387 95.8944C48.6423 95.8925 48.6459 95.8906 48.6495 95.8888C48.6531 95.8869 48.6567 95.885 48.6603 95.8832C48.6639 95.8813 48.6675 95.8794 48.6711 95.8776C48.6747 95.8757 48.6783 95.8738 48.682 95.8719C48.6856 95.87 48.6892 95.8682 48.6928 95.8663C48.6964 95.8644 48.7001 95.8625 48.7037 95.8606C48.7073 95.8587 48.711 95.8569 48.7146 95.855C48.7182 95.8531 48.7219 95.8512 48.7255 95.8493C48.7292 95.8474 48.7328 95.8455 48.7365 95.8436C48.7401 95.8417 48.7438 95.8398 48.7474 95.8379C48.7511 95.836 48.7547 95.8341 48.7584 95.8322C48.7621 95.8303 48.7657 95.8284 48.7694 95.8265C48.7731 95.8246 48.7768 95.8227 48.7804 95.8208C48.7841 95.8189 48.7878 95.817 48.7915 95.8151C48.7952 95.8132 48.7989 95.8112 48.8025 95.8093C48.8062 95.8074 48.8099 95.8055 48.8136 95.8036C48.8173 95.8017 48.821 95.7997 48.8247 95.7978C48.8284 95.7959 48.8321 95.794 48.8358 95.792C48.8395 95.7901 48.8433 95.7882 48.847 95.7863C48.8507 95.7843 48.8544 95.7824 48.8581 95.7805C48.8619 95.7785 48.8656 95.7766 48.8693 95.7747C48.873 95.7727 48.8768 95.7708 48.8805 95.7688C48.8842 95.7669 48.888 95.765 48.8917 95.763C48.8955 95.7611 48.8992 95.7591 48.903 95.7572C48.9067 95.7552 48.9105 95.7533 48.9142 95.7513C48.918 95.7494 48.9217 95.7474 48.9255 95.7455C48.9293 95.7435 48.933 95.7416 48.9368 95.7396C48.9406 95.7377 48.9443 95.7357 48.9481 95.7337C48.9519 95.7318 48.9557 95.7298 48.9594 95.7279C48.9632 95.7259 48.967 95.7239 48.9708 95.722C48.9746 95.72 48.9784 95.718 48.9822 95.7161C48.986 95.7141 48.9898 95.7121 48.9935 95.7101C48.9974 95.7082 49.0012 95.7062 49.005 95.7042C49.0088 95.7022 49.0126 95.7003 49.0164 95.6983C49.0202 95.6963 49.024 95.6943 49.0279 95.6923C49.0317 95.6904 49.0355 95.6884 49.0393 95.6864C49.0432 95.6844 49.047 95.6824 49.0508 95.6804C49.0547 95.6784 49.0585 95.6764 49.0623 95.6744C49.0662 95.6724 49.07 95.6705 49.0739 95.6685C49.0777 95.6665 49.0816 95.6645 49.0854 95.6625C49.0893 95.6605 49.0931 95.6585 49.097 95.6565C49.1008 95.6544 49.1047 95.6524 49.1086 95.6504C49.1124 95.6484 49.1163 95.6464 49.1202 95.6444C49.1241 95.6424 49.1279 95.6404 49.1318 95.6384C49.1357 95.6364 49.1396 95.6343 49.1435 95.6323C49.1473 95.6303 49.1512 95.6283 49.1551 95.6263C49.159 95.6242 49.1629 95.6222 49.1668 95.6202C49.1707 95.6182 49.1746 95.6161 49.1785 95.6141C49.1824 95.6121 49.1863 95.6101 49.1903 95.608C49.1942 95.606 49.1981 95.604 49.202 95.6019C49.2059 95.5999 49.2098 95.5979 49.2138 95.5958C49.2177 95.5938 49.2216 95.5917 49.2255 95.5897C49.2295 95.5877 49.2334 95.5856 49.2374 95.5836C49.2413 95.5815 49.2452 95.5795 49.2492 95.5774C49.2531 95.5754 49.2571 95.5733 49.261 95.5713C49.265 95.5692 49.2689 95.5672 49.2729 95.5651C49.2768 95.5631 49.2808 95.561 49.2848 95.5589C49.2887 95.5569 49.2927 95.5548 49.2967 95.5528C49.3007 95.5507 49.3046 95.5486 49.3086 95.5466C49.3126 95.5445 49.3166 95.5424 49.3205 95.5404C49.3245 95.5383 49.3285 95.5362 49.3325 95.5342C49.3365 95.5321 49.3405 95.53 49.3445 95.5279C49.3485 95.5259 49.3525 95.5238 49.3565 95.5217C49.3605 95.5196 49.3645 95.5176 49.3685 95.5155C49.3725 95.5134 49.3765 95.5113 49.3806 95.5092C49.3846 95.5071 49.3886 95.505 49.3926 95.503C49.3966 95.5009 49.4007 95.4988 49.4047 95.4967C49.4087 95.4946 49.4128 95.4925 49.4168 95.4904C49.4208 95.4883 49.4249 95.4862 49.4289 95.4841C49.433 95.482 49.437 95.4799 49.4411 95.4778C49.4451 95.4757 49.4492 95.4736 49.4532 95.4715C49.4573 95.4694 49.4613 95.4673 49.4654 95.4652C49.4695 95.4631 49.4735 95.461 49.4776 95.4588C49.4817 95.4567 49.4857 95.4546 49.4898 95.4525C49.4939 95.4504 49.498 95.4483 49.502 95.4461C49.5061 95.444 49.5102 95.4419 49.5143 95.4398C49.5184 95.4377 49.5225 95.4355 49.5266 95.4334C49.5307 95.4313 49.5348 95.4292 49.5389 95.427C49.543 95.4249 49.5471 95.4228 49.5512 95.4206C49.5553 95.4185 49.5594 95.4164 49.5635 95.4142C49.5676 95.4121 49.5718 95.41 49.5759 95.4078C49.58 95.4057 49.5841 95.4035 49.5883 95.4014C49.5924 95.3992 49.5965 95.3971 49.6007 95.3949C49.6048 95.3928 49.6089 95.3907 49.6131 95.3885C49.6172 95.3864 49.6213 95.3842 49.6255 95.382C49.6296 95.3799 49.6338 95.3777 49.638 95.3756C49.6421 95.3734 49.6463 95.3713 49.6504 95.3691C49.6546 95.3669 49.6588 95.3648 49.6629 95.3626C49.6671 95.3605 49.6713 95.3583 49.6754 95.3561C49.6796 95.354 49.6838 95.3518 49.688 95.3496C49.6921 95.3474 49.6963 95.3453 49.7005 95.3431C49.7047 95.3409 49.7089 95.3388 49.7131 95.3366C49.7173 95.3344 49.7215 95.3322 49.7257 95.33C49.7299 95.3279 49.7341 95.3257 49.7383 95.3235C49.7425 95.3213 49.7467 95.3191 49.7509 95.3169C49.7551 95.3147 49.7593 95.3126 49.7636 95.3104C49.7678 95.3082 49.772 95.306 49.7762 95.3038C49.7805 95.3016 49.7847 95.2994 49.7889 95.2972C49.7932 95.295 49.7974 95.2928 49.8016 95.2906C49.8059 95.2884 49.8101 95.2862 49.8144 95.284C49.8186 95.2818 49.8229 95.2796 49.8271 95.2774C49.8314 95.2752 49.8356 95.273 49.8399 95.2707C49.8441 95.2685 49.8484 95.2663 49.8527 95.2641C49.8569 95.2619 49.8612 95.2597 49.8655 95.2575C49.8697 95.2552 49.874 95.253 49.8783 95.2508C49.8826 95.2486 49.8869 95.2464 49.8912 95.2441C49.8954 95.2419 49.8997 95.2397 49.904 95.2374C49.9083 95.2352 49.9126 95.233 49.9169 95.2308C49.9212 95.2285 49.9255 95.2263 49.9298 95.2241C49.9341 95.2218 49.9384 95.2196 49.9427 95.2174C49.947 95.2151 49.9513 95.2129 49.9557 95.2106C49.96 95.2084 49.9643 95.2061 49.9686 95.2039C49.973 95.2017 49.9773 95.1994 49.9816 95.1972C49.9859 95.1949 49.9903 95.1927 49.9946 95.1904C49.999 95.1882 50.0033 95.1859 50.0076 95.1836C50.012 95.1814 50.0163 95.1791 50.0207 95.1769C50.025 95.1746 50.0294 95.1724 50.0338 95.1701C50.0381 95.1678 50.0425 95.1656 50.0468 95.1633C50.0512 95.161 50.0556 95.1588 50.0599 95.1565C50.0643 95.1542 50.0687 95.152 50.0731 95.1497C50.0774 95.1474 50.0818 95.1451 50.0862 95.1429C50.0906 95.1406 50.095 95.1383 50.0994 95.136C50.1037 95.1338 50.1081 95.1315 50.1125 95.1292C50.1169 95.1269 50.1213 95.1246 50.1257 95.1223C50.1301 95.1201 50.1345 95.1178 50.139 95.1155C50.1434 95.1132 50.1478 95.1109 50.1522 95.1086C50.1566 95.1063 50.161 95.104 50.1655 95.1017C50.1699 95.0994 50.1743 95.0971 50.1787 95.0948C50.1832 95.0925 50.1876 95.0902 50.192 95.0879C50.1965 95.0856 50.2009 95.0833 50.2053 95.081C50.2098 95.0787 50.2142 95.0764 50.2187 95.0741C50.2231 95.0718 50.2276 95.0695 50.232 95.0671C50.2365 95.0648 50.241 95.0625 50.2454 95.0602C50.2499 95.0579 50.2543 95.0556 50.2588 95.0532C50.2633 95.0509 50.2678 95.0486 50.2722 95.0463C50.2767 95.044 50.2812 95.0416 50.2857 95.0393C50.2901 95.037 50.2946 95.0347 50.2991 95.0323C50.3036 95.03 50.3081 95.0277 50.3126 95.0253C50.3171 95.023 50.3216 95.0207 50.3261 95.0183C50.3306 95.016 50.3351 95.0136 50.3396 95.0113C50.3441 95.009 50.3486 95.0066 50.3531 95.0043C50.3576 95.0019 50.3622 94.9996 50.3667 94.9972C50.3712 94.9949 50.3757 94.9925 50.3802 94.9902C50.3848 94.9878 50.3893 94.9855 50.3938 94.9831C50.3984 94.9808 50.4029 94.9784 50.4075 94.9761C50.412 94.9737 50.4165 94.9714 50.4211 94.969C50.4256 94.9666 50.4302 94.9643 50.4347 94.9619C50.4393 94.9595 50.4438 94.9572 50.4484 94.9548C50.453 94.9524 50.4575 94.9501 50.4621 94.9477C50.4667 94.9453 50.4712 94.943 50.4758 94.9406C50.4804 94.9382 50.485 94.9358 50.4895 94.9335C50.4941 94.9311 50.4987 94.9287 50.5033 94.9263C50.5079 94.9239 50.5125 94.9216 50.5171 94.9192C50.5216 94.9168 50.5262 94.9144 50.5308 94.912C50.5354 94.9096 50.54 94.9072 50.5447 94.9048C50.5493 94.9025 50.5539 94.9001 50.5585 94.8977C50.5631 94.8953 50.5677 94.8929 50.5723 94.8905C50.577 94.8881 50.5816 94.8857 50.5862 94.8833C50.5908 94.8809 50.5955 94.8785 50.6001 94.8761C50.6047 94.8737 50.6093 94.8713 50.614 94.8688L52.111 97.2005C52.1064 97.2029 52.1017 97.2053 52.0971 97.2077C52.0925 97.2101 52.0878 97.2125 52.0832 97.2149C52.0786 97.2173 52.074 97.2197 52.0693 97.2221C52.0647 97.2245 52.0601 97.2269 52.0555 97.2293C52.0509 97.2317 52.0463 97.2341 52.0417 97.2365C52.0371 97.2389 52.0325 97.2413 52.0279 97.2437C52.0233 97.2461 52.0187 97.2485 52.0141 97.2508C52.0095 97.2532 52.0049 97.2556 52.0003 97.258C51.9957 97.2604 51.9911 97.2628 51.9865 97.2651C51.982 97.2675 51.9774 97.2699 51.9728 97.2723C51.9683 97.2746 51.9637 97.277 51.9591 97.2794C51.9545 97.2817 51.95 97.2841 51.9454 97.2865C51.9409 97.2889 51.9363 97.2912 51.9318 97.2936C51.9272 97.2959 51.9226 97.2983 51.9181 97.3007C51.9136 97.303 51.909 97.3054 51.9045 97.3077C51.8999 97.3101 51.8954 97.3125 51.8909 97.3148C51.8863 97.3172 51.8818 97.3195 51.8773 97.3219C51.8727 97.3242 51.8682 97.3266 51.8637 97.3289C51.8592 97.3313 51.8547 97.3336 51.8501 97.336C51.8456 97.3383 51.8411 97.3406 51.8366 97.343C51.8321 97.3453 51.8276 97.3477 51.8231 97.35C51.8186 97.3523 51.8141 97.3547 51.8096 97.357C51.8051 97.3593 51.8006 97.3617 51.7961 97.364C51.7916 97.3663 51.7871 97.3687 51.7827 97.371C51.7782 97.3733 51.7737 97.3756 51.7692 97.378C51.7648 97.3803 51.7603 97.3826 51.7558 97.3849C51.7514 97.3872 51.7469 97.3896 51.7424 97.3919C51.738 97.3942 51.7335 97.3965 51.7291 97.3988C51.7246 97.4011 51.7201 97.4034 51.7157 97.4058C51.7112 97.4081 51.7068 97.4104 51.7024 97.4127C51.6979 97.415 51.6935 97.4173 51.689 97.4196C51.6846 97.4219 51.6802 97.4242 51.6757 97.4265C51.6713 97.4288 51.6669 97.4311 51.6625 97.4334C51.658 97.4357 51.6536 97.438 51.6492 97.4403C51.6448 97.4426 51.6404 97.4449 51.636 97.4471C51.6316 97.4494 51.6271 97.4517 51.6227 97.454C51.6183 97.4563 51.6139 97.4586 51.6095 97.4609C51.6052 97.4631 51.6008 97.4654 51.5964 97.4677C51.592 97.47 51.5876 97.4723 51.5832 97.4745C51.5788 97.4768 51.5744 97.4791 51.5701 97.4814C51.5657 97.4836 51.5613 97.4859 51.5569 97.4882C51.5526 97.4904 51.5482 97.4927 51.5438 97.495C51.5395 97.4972 51.5351 97.4995 51.5308 97.5018C51.5264 97.504 51.522 97.5063 51.5177 97.5086C51.5133 97.5108 51.509 97.5131 51.5047 97.5153C51.5003 97.5176 51.496 97.5198 51.4916 97.5221C51.4873 97.5243 51.483 97.5266 51.4786 97.5288C51.4743 97.5311 51.47 97.5333 51.4657 97.5356C51.4613 97.5378 51.457 97.5401 51.4527 97.5423C51.4484 97.5445 51.4441 97.5468 51.4397 97.549C51.4354 97.5513 51.4311 97.5535 51.4268 97.5557C51.4225 97.558 51.4182 97.5602 51.4139 97.5624C51.4096 97.5647 51.4053 97.5669 51.401 97.5691C51.3967 97.5714 51.3924 97.5736 51.3882 97.5758C51.3839 97.578 51.3796 97.5803 51.3753 97.5825C51.371 97.5847 51.3668 97.5869 51.3625 97.5891C51.3582 97.5914 51.3539 97.5936 51.3497 97.5958C51.3454 97.598 51.3411 97.6002 51.3369 97.6024C51.3326 97.6046 51.3284 97.6068 51.3241 97.6091C51.3199 97.6113 51.3156 97.6135 51.3114 97.6157C51.3071 97.6179 51.3029 97.6201 51.2986 97.6223C51.2944 97.6245 51.2902 97.6267 51.2859 97.6289C51.2817 97.6311 51.2775 97.6333 51.2733 97.6355C51.269 97.6377 51.2648 97.6398 51.2606 97.642C51.2564 97.6442 51.2521 97.6464 51.2479 97.6486C51.2437 97.6508 51.2395 97.653 51.2353 97.6552C51.2311 97.6573 51.2269 97.6595 51.2227 97.6617C51.2185 97.6639 51.2143 97.6661 51.2101 97.6683C51.2059 97.6704 51.2017 97.6726 51.1975 97.6748C51.1933 97.6769 51.1892 97.6791 51.185 97.6813C51.1808 97.6835 51.1766 97.6856 51.1724 97.6878C51.1683 97.69 51.1641 97.6921 51.1599 97.6943C51.1558 97.6965 51.1516 97.6986 51.1474 97.7008C51.1433 97.7029 51.1391 97.7051 51.135 97.7073C51.1308 97.7094 51.1267 97.7116 51.1225 97.7137C51.1184 97.7159 51.1142 97.718 51.1101 97.7202C51.1059 97.7223 51.1018 97.7245 51.0977 97.7266C51.0935 97.7288 51.0894 97.7309 51.0853 97.7331C51.0811 97.7352 51.077 97.7373 51.0729 97.7395C51.0688 97.7416 51.0647 97.7438 51.0605 97.7459C51.0564 97.748 51.0523 97.7502 51.0482 97.7523C51.0441 97.7544 51.04 97.7566 51.0359 97.7587C51.0318 97.7608 51.0277 97.763 51.0236 97.7651C51.0195 97.7672 51.0154 97.7693 51.0113 97.7715C51.0072 97.7736 51.0031 97.7757 50.9991 97.7778C50.995 97.7799 50.9909 97.7821 50.9868 97.7842C50.9827 97.7863 50.9787 97.7884 50.9746 97.7905C50.9705 97.7926 50.9665 97.7947 50.9624 97.7968C50.9583 97.799 50.9543 97.8011 50.9502 97.8032C50.9462 97.8053 50.9421 97.8074 50.9381 97.8095C50.934 97.8116 50.93 97.8137 50.9259 97.8158C50.9219 97.8179 50.9178 97.82 50.9138 97.8221C50.9098 97.8242 50.9057 97.8263 50.9017 97.8284C50.8977 97.8305 50.8937 97.8325 50.8896 97.8346C50.8856 97.8367 50.8816 97.8388 50.8776 97.8409C50.8736 97.843 50.8695 97.8451 50.8655 97.8471C50.8615 97.8492 50.8575 97.8513 50.8535 97.8534C50.8495 97.8555 50.8455 97.8575 50.8415 97.8596C50.8375 97.8617 50.8335 97.8638 50.8295 97.8658C50.8255 97.8679 50.8215 97.87 50.8176 97.8721C50.8136 97.8741 50.8096 97.8762 50.8056 97.8783C50.8016 97.8803 50.7977 97.8824 50.7937 97.8844C50.7897 97.8865 50.7857 97.8886 50.7818 97.8906C50.7778 97.8927 50.7739 97.8947 50.7699 97.8968C50.7659 97.8988 50.762 97.9009 50.758 97.903C50.7541 97.905 50.7501 97.9071 50.7462 97.9091C50.7422 97.9112 50.7383 97.9132 50.7344 97.9152C50.7304 97.9173 50.7265 97.9193 50.7226 97.9214C50.7186 97.9234 50.7147 97.9255 50.7108 97.9275C50.7068 97.9295 50.7029 97.9316 50.699 97.9336C50.6951 97.9356 50.6912 97.9377 50.6873 97.9397C50.6834 97.9417 50.6794 97.9438 50.6755 97.9458C50.6716 97.9478 50.6677 97.9498 50.6638 97.9519C50.6599 97.9539 50.656 97.9559 50.6521 97.9579C50.6482 97.96 50.6443 97.962 50.6405 97.964C50.6366 97.966 50.6327 97.968 50.6288 97.97C50.6249 97.9721 50.6211 97.9741 50.6172 97.9761C50.6133 97.9781 50.6095 97.9801 50.6056 97.9821C50.6017 97.9841 50.5979 97.9861 50.594 97.9881C50.5901 97.9901 50.5863 97.9921 50.5824 97.9941C50.5786 97.9961 50.5747 97.9981 50.5709 98.0001C50.567 98.0021 50.5632 98.0041 50.5593 98.0061C50.5555 98.0081 50.5517 98.0101 50.5478 98.0121C50.544 98.0141 50.5402 98.0161 50.5363 98.0181C50.5325 98.02 50.5287 98.022 50.5249 98.024C50.521 98.026 50.5172 98.028 50.5134 98.03C50.5096 98.0319 50.5058 98.0339 50.502 98.0359C50.4982 98.0379 50.4944 98.0398 50.4906 98.0418C50.4868 98.0438 50.483 98.0458 50.4792 98.0477C50.4754 98.0497 50.4716 98.0517 50.4678 98.0536C50.464 98.0556 50.4602 98.0576 50.4564 98.0595C50.4527 98.0615 50.4489 98.0635 50.4451 98.0654C50.4413 98.0674 50.4376 98.0693 50.4338 98.0713C50.43 98.0733 50.4263 98.0752 50.4225 98.0772C50.4187 98.0791 50.415 98.0811 50.4112 98.083C50.4075 98.085 50.4037 98.0869 50.4 98.0889C50.3962 98.0908 50.3925 98.0927 50.3887 98.0947C50.385 98.0966 50.3812 98.0986 50.3775 98.1005C50.3738 98.1025 50.37 98.1044 50.3663 98.1063C50.3626 98.1083 50.3589 98.1102 50.3551 98.1121C50.3514 98.1141 50.3477 98.116 50.344 98.1179C50.3403 98.1199 50.3366 98.1218 50.3328 98.1237C50.3291 98.1256 50.3254 98.1276 50.3217 98.1295C50.318 98.1314 50.3143 98.1333 50.3106 98.1352C50.3069 98.1372 50.3032 98.1391 50.2995 98.141C50.2959 98.1429 50.2922 98.1448 50.2885 98.1467C50.2848 98.1487 50.2811 98.1506 50.2774 98.1525C50.2738 98.1544 50.2701 98.1563 50.2664 98.1582C50.2628 98.1601 50.2591 98.162 50.2554 98.1639C50.2518 98.1658 50.2481 98.1677 50.2444 98.1696C50.2408 98.1715 50.2371 98.1734 50.2335 98.1753C50.2298 98.1772 50.2262 98.1791 50.2225 98.181C50.2189 98.1829 50.2153 98.1848 50.2116 98.1866C50.208 98.1885 50.2043 98.1904 50.2007 98.1923C50.1971 98.1942 50.1935 98.1961 50.1898 98.198C50.1862 98.1998 50.1826 98.2017 50.179 98.2036C50.1753 98.2055 50.1717 98.2074 50.1681 98.2092C50.1645 98.2111 50.1609 98.213 50.1573 98.2148C50.1537 98.2167 50.1501 98.2186 50.1465 98.2205C50.1429 98.2223 50.1393 98.2242 50.1357 98.2261C50.1321 98.2279 50.1285 98.2298 50.1249 98.2316C50.1214 98.2335 50.1178 98.2354 50.1142 98.2372C50.1106 98.2391 50.107 98.2409 50.1035 98.2428C50.0999 98.2446 50.0963 98.2465 50.0928 98.2484C50.0892 98.2502 50.0856 98.252 50.0821 98.2539C50.0785 98.2557 50.075 98.2576 50.0714 98.2594C50.0679 98.2613 50.0643 98.2631 50.0608 98.265C50.0572 98.2668 50.0537 98.2686 50.0501 98.2705C50.0466 98.2723 50.0431 98.2742 50.0395 98.276C50.036 98.2778 50.0325 98.2797 50.0289 98.2815C50.0254 98.2833 50.0219 98.2852 50.0184 98.287C50.0148 98.2888 50.0113 98.2906 50.0078 98.2925C50.0043 98.2943 50.0008 98.2961 49.9973 98.2979C49.9938 98.2997 49.9903 98.3016 49.9868 98.3034C49.9833 98.3052 49.9798 98.307 49.9763 98.3088C49.9728 98.3106 49.9693 98.3125 49.9658 98.3143C49.9623 98.3161 49.9588 98.3179 49.9554 98.3197C49.9519 98.3215 49.9484 98.3233 49.9449 98.3251C49.9415 98.3269 49.938 98.3287 49.9345 98.3305C49.9311 98.3323 49.9276 98.3341 49.9241 98.3359C49.9207 98.3377 49.9172 98.3395 49.9138 98.3413C49.9103 98.3431 49.9069 98.3449 49.9034 98.3467C49.9 98.3485 49.8965 98.3502 49.8931 98.352C49.8896 98.3538 49.8862 98.3556 49.8828 98.3574C49.8793 98.3592 49.8759 98.361 49.8725 98.3627C49.869 98.3645 49.8656 98.3663 49.8622 98.3681C49.8588 98.3698 49.8554 98.3716 49.8519 98.3734C49.8485 98.3752 49.8451 98.3769 49.8417 98.3787C49.8383 98.3805 49.8349 98.3822 49.8315 98.384C49.8281 98.3858 49.8247 98.3875 49.8213 98.3893C49.8179 98.3911 49.8145 98.3928 49.8111 98.3946C49.8077 98.3963 49.8043 98.3981 49.801 98.3999C49.7976 98.4016 49.7942 98.4034 49.7908 98.4051C49.7874 98.4069 49.7841 98.4086 49.7807 98.4104C49.7773 98.4121 49.774 98.4139 49.7706 98.4156C49.7672 98.4174 49.7639 98.4191 49.7605 98.4208C49.7572 98.4226 49.7538 98.4243 49.7505 98.4261C49.7471 98.4278 49.7438 98.4295 49.7404 98.4313C49.7371 98.433 49.7337 98.4347 49.7304 98.4365C49.7271 98.4382 49.7237 98.4399 49.7204 98.4417C49.7171 98.4434 49.7137 98.4451 49.7104 98.4469C49.7071 98.4486 49.7038 98.4503 49.7005 98.452C49.6972 98.4537 49.6938 98.4555 49.6905 98.4572C49.6872 98.4589 49.6839 98.4606 49.6806 98.4623C49.6773 98.4641 49.674 98.4658 49.6707 98.4675C49.6674 98.4692 49.6641 98.4709 49.6608 98.4726C49.6575 98.4743 49.6542 98.476 49.651 98.4777C49.6477 98.4794 49.6444 98.4811 49.6411 98.4828C49.6378 98.4845 49.6346 98.4862 49.6313 98.4879C49.628 98.4896 49.6248 98.4913 49.6215 98.493C49.6182 98.4947 49.615 98.4964 49.6117 98.4981C49.6085 98.4998 49.6052 98.5015 49.6019 98.5032C49.5987 98.5049 49.5954 98.5066 49.5922 98.5082C49.589 98.5099 49.5857 98.5116 49.5825 98.5133C49.5792 98.515 49.576 98.5167 49.5728 98.5183C49.5695 98.52 49.5663 98.5217 49.5631 98.5234C49.5598 98.525 49.5566 98.5267 49.5534 98.5284C49.5502 98.53 49.547 98.5317 49.5438 98.5334C49.5406 98.5351 49.5373 98.5367 49.5341 98.5384C49.5309 98.54 49.5277 98.5417 49.5245 98.5434C49.5213 98.545 49.5181 98.5467 49.5149 98.5483C49.5118 98.55 49.5086 98.5517 49.5054 98.5533C49.5022 98.555 49.499 98.5566 49.4958 98.5583C49.4927 98.5599 49.4895 98.5616 49.4863 98.5632C49.4831 98.5649 49.48 98.5665 49.4768 98.5682C49.4736 98.5698 49.4705 98.5714 49.4673 98.5731C49.4641 98.5747 49.461 98.5764 49.4578 98.578C49.4547 98.5796 49.4515 98.5813 49.4484 98.5829C49.4452 98.5845 49.4421 98.5862 49.439 98.5878C49.4358 98.5894 49.4327 98.5911 49.4295 98.5927C49.4264 98.5943 49.4233 98.5959 49.4201 98.5976C49.417 98.5992 49.4139 98.6008 49.4108 98.6024C49.4077 98.604 49.4045 98.6057 49.4014 98.6073C49.3983 98.6089 49.3952 98.6105 49.3921 98.6121C49.389 98.6137 49.3859 98.6154 49.3828 98.617C49.3797 98.6186 49.3766 98.6202 49.3735 98.6218C49.3704 98.6234 49.3673 98.625 49.3642 98.6266C49.3611 98.6282 49.358 98.6298 49.355 98.6314C49.3519 98.633 49.3488 98.6346 49.3457 98.6362C49.3427 98.6378 49.3396 98.6394 49.3365 98.641C49.3334 98.6426 49.3304 98.6442 49.3273 98.6458C49.3243 98.6474 49.3212 98.6489 49.3181 98.6505C49.3151 98.6521 49.312 98.6537 49.309 98.6553C49.3059 98.6569 49.3029 98.6584 49.2998 98.66C49.2968 98.6616 49.2938 98.6632 49.2907 98.6648C49.2877 98.6663 49.2847 98.6679 49.2816 98.6695C49.2786 98.6711 49.2756 98.6726 49.2726 98.6742C49.2695 98.6758 49.2665 98.6773 49.2635 98.6789C49.2605 98.6805 49.2575 98.682 49.2545 98.6836C49.2514 98.6852 49.2484 98.6867 49.2454 98.6883C49.2424 98.6898 49.2394 98.6914 49.2364 98.6929C49.2335 98.6945 49.2305 98.696 49.2275 98.6976C49.2245 98.6992 49.2215 98.7007 49.2185 98.7023C49.2155 98.7038 49.2125 98.7054 49.2096 98.7069C49.2066 98.7084 49.2036 98.71 49.2007 98.7115C49.1977 98.7131 49.1947 98.7146 49.1918 98.7161C49.1888 98.7177 49.1858 98.7192 49.1829 98.7208C49.1799 98.7223 49.177 98.7238 49.174 98.7254C49.1711 98.7269 49.1681 98.7284 49.1652 98.7299C49.1622 98.7315 49.1593 98.733 49.1563 98.7345C49.1534 98.7361 49.1505 98.7376 49.1475 98.7391C49.1446 98.7406 49.1417 98.7421 49.1388 98.7437C49.1358 98.7452 49.1329 98.7467 49.13 98.7482C49.1271 98.7497 49.1242 98.7512 49.1213 98.7527C49.1183 98.7543 49.1154 98.7558 49.1125 98.7573C49.1096 98.7588 49.1067 98.7603 49.1038 98.7618C49.1009 98.7633 49.098 98.7648 49.0951 98.7663C49.0922 98.7678 49.0894 98.7693 49.0865 98.7708C49.0836 98.7723 49.0807 98.7738 49.0778 98.7753C49.075 98.7768 49.0721 98.7783 49.0692 98.7798C49.0663 98.7813 49.0635 98.7827 49.0606 98.7842C49.0577 98.7857 49.0549 98.7872 49.052 98.7887C49.0492 98.7902 49.0463 98.7917 49.0434 98.7931C49.0406 98.7946 49.0377 98.7961 49.0349 98.7976C49.032 98.7991 49.0292 98.8005 49.0264 98.802C49.0235 98.8035 49.0207 98.805 49.0179 98.8064C49.015 98.8079 49.0122 98.8094 49.0094 98.8108C49.0065 98.8123 49.0037 98.8138 49.0009 98.8152C48.9981 98.8167 48.9953 98.8182 48.9925 98.8196C48.9896 98.8211 48.9868 98.8225 48.984 98.824C48.9812 98.8255 48.9784 98.8269 48.9756 98.8284C48.9728 98.8298 48.97 98.8313 48.9672 98.8327C48.9644 98.8342 48.9616 98.8356 48.9589 98.8371C48.9561 98.8385 48.9533 98.84 48.9505 98.8414C48.9477 98.8428 48.9449 98.8443 48.9422 98.8457C48.9394 98.8472 48.9366 98.8486 48.9339 98.85C48.9311 98.8515 48.9283 98.8529 48.9256 98.8543C48.9228 98.8558 48.9201 98.8572 48.9173 98.8586C48.9145 98.8601 48.9118 98.8615 48.909 98.8629C48.9063 98.8643 48.9035 98.8658 48.9008 98.8672C48.8981 98.8686 48.8953 98.87 48.8926 98.8715C48.8899 98.8729 48.8871 98.8743 48.8844 98.8757C48.8817 98.8771 48.879 98.8785 48.8762 98.88C48.8735 98.8814 48.8708 98.8828 48.8681 98.8842C48.8654 98.8856 48.8626 98.887 48.8599 98.8884C48.8572 98.8898 48.8545 98.8912 48.8518 98.8926C48.8491 98.894 48.8464 98.8954 48.8437 98.8968C48.841 98.8982 48.8383 98.8996 48.8357 98.901C48.833 98.9024 48.8303 98.9038 48.8276 98.9052C48.8249 98.9066 48.8222 98.908 48.8196 98.9094C48.8169 98.9108 48.8142 98.9122 48.8115 98.9135C48.8089 98.9149 48.8062 98.9163 48.8035 98.9177C48.8009 98.9191 48.7982 98.9205 48.7956 98.9218C48.7929 98.9232 48.7902 98.9246 48.7876 98.926C48.785 98.9273 48.7823 98.9287 48.7797 98.9301C48.777 98.9315 48.7744 98.9328 48.7718 98.9342C48.7691 98.9356 48.7665 98.9369 48.7639 98.9383C48.7612 98.9397 48.7586 98.941 48.756 98.9424C48.7533 98.9438 48.7507 98.9451 48.7481 98.9465C48.7455 98.9478 48.7429 98.9492 48.7403 98.9505C48.7377 98.9519 48.7351 98.9533 48.7325 98.9546C48.7298 98.956 48.7272 98.9573 48.7246 98.9587C48.722 98.96 48.7194 98.9614 48.7169 98.9627C48.7143 98.964 48.7117 98.9654 48.7091 98.9667C48.7065 98.9681 48.7039 98.9694 48.7014 98.9707C48.6988 98.9721 48.6962 98.9734 48.6936 98.9748C48.6911 98.9761 48.6885 98.9774 48.6859 98.9788C48.6834 98.9801 48.6808 98.9814 48.6783 98.9827C48.6757 98.9841 48.6731 98.9854 48.6706 98.9867C48.668 98.9881 48.6655 98.9894 48.6629 98.9907C48.6604 98.992 48.6579 98.9933 48.6553 98.9947C48.6528 98.996 48.6502 98.9973 48.6477 98.9986C48.6452 98.9999 48.6427 99.0012 48.6401 99.0025C48.6376 99.0039 48.6351 99.0052 48.6326 99.0065C48.63 99.0078 48.6275 99.0091 48.625 99.0104C48.6225 99.0117 48.62 99.013 48.6175 99.0143C48.615 99.0156 48.6125 99.0169 48.61 99.0182C48.6075 99.0195 48.605 99.0208 48.6025 99.0221C48.6 99.0234 48.5975 99.0247 48.595 99.026C48.5925 99.0272 48.5901 99.0285 48.5876 99.0298C48.5851 99.0311 48.5826 99.0324 48.5802 99.0337C48.5777 99.035 48.5752 99.0362 48.5727 99.0375C48.5703 99.0388 48.5678 99.0401 48.5654 99.0414C48.5629 99.0426 48.5604 99.0439 48.558 99.0452C48.5555 99.0465 48.5531 99.0477 48.5506 99.049C48.5482 99.0503 48.5457 99.0515 48.5433 99.0528C48.5409 99.0541 48.5384 99.0553 48.536 99.0566C48.5336 99.0579 48.5311 99.0591 48.5287 99.0604C48.5263 99.0616 48.5239 99.0629 48.5214 99.0642C48.519 99.0654 48.5166 99.0667 48.5142 99.0679C48.5118 99.0692 48.5094 99.0704 48.5069 99.0717C48.5045 99.0729 48.5021 99.0742 48.4997 99.0754C48.4973 99.0767 48.4949 99.0779 48.4925 99.0792C48.4902 99.0804 48.4878 99.0816 48.4854 99.0829C48.483 99.0841 48.4806 99.0854 48.4782 99.0866C48.4758 99.0878 48.4735 99.0891 48.4711 99.0903C48.4687 99.0915 48.4663 99.0928 48.464 99.094C48.4616 99.0952 48.4592 99.0965 48.4569 99.0977C48.4545 99.0989 48.4522 99.1001 48.4498 99.1014C48.4474 99.1026 48.4451 99.1038 48.4427 99.105C48.4404 99.1062 48.4381 99.1075 48.4357 99.1087C48.4334 99.1099 48.431 99.1111 48.4287 99.1123C48.4264 99.1135 48.424 99.1147 48.4217 99.1159C48.4194 99.1172 48.417 99.1184 48.4147 99.1196C48.4124 99.1208 48.4101 99.122 48.4078 99.1232C48.4054 99.1244 48.4031 99.1256 48.4008 99.1268C48.3985 99.128 48.3962 99.1292 48.3939 99.1304C48.3916 99.1316 48.3893 99.1328 48.387 99.134C48.3847 99.1351 48.3824 99.1363 48.3801 99.1375C48.3778 99.1387 48.3756 99.1399 48.3733 99.1411C48.371 99.1423 48.3687 99.1435 48.3664 99.1446C48.3642 99.1458 48.3619 99.147 48.3596 99.1482C48.3573 99.1494 48.3551 99.1505 48.3528 99.1517C48.3505 99.1529 48.3483 99.1541 48.346 99.1552C48.3438 99.1564 48.3415 99.1576 48.3393 99.1587C48.337 99.1599 48.3348 99.1611 48.3325 99.1622C48.3303 99.1634 48.328 99.1646 48.3258 99.1657C48.3236 99.1669 48.3213 99.1681 48.3191 99.1692C48.3169 99.1704 48.3146 99.1715 48.3124 99.1727C48.3102 99.1738 48.308 99.175 48.3058 99.1761C48.3035 99.1773 48.3013 99.1784 48.2991 99.1796C48.2969 99.1807 48.2947 99.1819 48.2925 99.183C48.2903 99.1842 48.2881 99.1853 48.2859 99.1865C48.2837 99.1876 48.2815 99.1887 48.2793 99.1899C48.2771 99.191 48.2749 99.1921 48.2727 99.1933C48.2705 99.1944 48.2684 99.1956 48.2662 99.1967C48.264 99.1978 48.2618 99.1989 48.2597 99.2001C48.2575 99.2012 48.2553 99.2023 48.2532 99.2034C48.251 99.2046 48.2488 99.2057 48.2467 99.2068C48.2445 99.2079 48.2424 99.2091 48.2402 99.2102C48.2381 99.2113 48.2359 99.2124 48.2338 99.2135C48.2316 99.2146 48.2295 99.2157 48.2273 99.2169C48.2252 99.218 48.2231 99.2191 48.2209 99.2202C48.2188 99.2213 48.2167 99.2224 48.2145 99.2235C48.2124 99.2246 48.2103 99.2257 48.2082 99.2268C48.2061 99.2279 48.2039 99.229 48.2018 99.2301C48.1997 99.2312 48.1976 99.2323 48.1955 99.2334C48.1934 99.2345 48.1913 99.2356 48.1892 99.2367C48.1871 99.2378 48.185 99.2388 48.1829 99.2399C48.1808 99.241 48.1787 99.2421 48.1766 99.2432C48.1745 99.2443 48.1725 99.2453 48.1704 99.2464C48.1683 99.2475 48.1662 99.2486 48.1641 99.2497C48.1621 99.2507 48.16 99.2518 48.1579 99.2529C48.1559 99.254 48.1538 99.255 48.1517 99.2561C48.1497 99.2572 48.1476 99.2582 48.1456 99.2593C48.1435 99.2604 48.1415 99.2614 48.1394 99.2625C48.1374 99.2636 48.1353 99.2646 48.1333 99.2657C48.1312 99.2667 48.1292 99.2678 48.1272 99.2689C48.1251 99.2699 48.1231 99.271 48.1211 99.272C48.119 99.2731 48.117 99.2741 48.115 99.2752C48.113 99.2762 48.111 99.2773 48.1089 99.2783C48.1069 99.2794 48.1049 99.2804 48.1029 99.2814C48.1009 99.2825 48.0989 99.2835 48.0969 99.2846C48.0949 99.2856 48.0929 99.2867 48.0909 99.2877C48.0889 99.2887 48.0869 99.2898 48.0849 99.2908C48.0829 99.2918 48.081 99.2929 48.079 99.2939C48.077 99.2949 48.075 99.2959 48.073 99.297C48.0711 99.298 48.0691 99.299 48.0671 99.3C48.0651 99.3011 48.0632 99.3021 48.0612 99.3031C48.0593 99.3041 48.0573 99.3051 48.0553 99.3061C48.0534 99.3072 48.0514 99.3082 48.0495 99.3092C48.0475 99.3102 48.0456 99.3112 48.0436 99.3122C48.0417 99.3132 48.0398 99.3142 48.0378 99.3152C48.0359 99.3162 48.034 99.3173 48.032 99.3183C48.0301 99.3193 48.0282 99.3203 48.0263 99.3213C48.0243 99.3222 48.0224 99.3232 48.0205 99.3242C48.0186 99.3252 48.0167 99.3262 48.0147 99.3272C48.0128 99.3282 48.0109 99.3292 48.009 99.3302C48.0071 99.3312 48.0052 99.3322 48.0033 99.3332C48.0014 99.3341 47.9995 99.3351 47.9976 99.3361C47.9958 99.3371 47.9939 99.3381 47.992 99.339C47.9901 99.34 47.9882 99.341 47.9863 99.342C47.9845 99.3429 47.9826 99.3439 47.9807 99.3449C47.9788 99.3459 47.977 99.3468 47.9751 99.3478C47.9733 99.3488 47.9714 99.3497 47.9695 99.3507C47.9677 99.3517 47.9658 99.3526 47.964 99.3536C47.9621 99.3545 47.9603 99.3555 47.9584 99.3565C47.9566 99.3574 47.9547 99.3584 47.9529 99.3593C47.9511 99.3603 47.9492 99.3612 47.9474 99.3622C47.9456 99.3631 47.9437 99.3641 47.9419 99.365C47.9401 99.366 47.9383 99.3669 47.9364 99.3679C47.9346 99.3688 47.9328 99.3698 47.931 99.3707C47.9292 99.3716 47.9274 99.3726 47.9256 99.3735C47.9238 99.3745 47.922 99.3754 47.9202 99.3763C47.9184 99.3773 47.9166 99.3782 47.9148 99.3791C47.913 99.3801 47.9112 99.381 47.9094 99.3819C47.9076 99.3828 47.9059 99.3838 47.9041 99.3847C47.9023 99.3856 47.9005 99.3865 47.8987 99.3875C47.897 99.3884 47.8952 99.3893 47.8934 99.3902C47.8917 99.3911 47.8899 99.392 47.8882 99.393C47.8864 99.3939 47.8846 99.3948 47.8829 99.3957C47.8811 99.3966 47.8794 99.3975 47.8776 99.3984C47.8759 99.3993 47.8741 99.4002 47.8724 99.4011C47.8707 99.402 47.8689 99.4029 47.8672 99.4038C47.8655 99.4047 47.8637 99.4056 47.862 99.4065C47.8603 99.4074 47.8585 99.4083 47.8568 99.4092C47.8551 99.4101 47.8534 99.411 47.8517 99.4119C47.85 99.4128 47.8483 99.4137 47.8465 99.4146C47.8448 99.4154 47.8431 99.4163 47.8414 99.4172C47.8397 99.4181 47.838 99.419 47.8363 99.4199C47.8346 99.4207 47.833 99.4216 47.8313 99.4225C47.8296 99.4234 47.8279 99.4242 47.8262 99.4251C47.8245 99.426 47.8228 99.4269 47.8212 99.4277C47.8195 99.4286 47.8178 99.4295 47.8162 99.4303C47.8145 99.4312 47.8128 99.4321 47.8112 99.4329C47.8095 99.4338 47.8078 99.4346 47.8062 99.4355C47.8045 99.4364 47.8029 99.4372 47.8012 99.4381C47.7996 99.4389 47.7979 99.4398 47.7963 99.4406C47.7947 99.4415 47.793 99.4423 47.7914 99.4432C47.7898 99.444 47.7881 99.4449 47.7865 99.4457C47.7849 99.4466 47.7832 99.4474 47.7816 99.4483C47.78 99.4491 47.7784 99.4499 47.7768 99.4508C47.7751 99.4516 47.7735 99.4525 47.7719 99.4533C47.7703 99.4541 47.7687 99.455 47.7671 99.4558C47.7655 99.4566 47.7639 99.4575 47.7623 99.4583C47.7607 99.4591 47.7591 99.4599 47.7575 99.4608C47.7559 99.4616 47.7544 99.4624 47.7528 99.4632C47.7512 99.4641 47.7496 99.4649 47.748 99.4657C47.7465 99.4665 47.7449 99.4673 47.7433 99.4681C47.7417 99.469 47.7402 99.4698 47.7386 99.4706C47.737 99.4714 47.7355 99.4722 47.7339 99.473C47.7324 99.4738 47.7308 99.4746 47.7293 99.4754C47.7277 99.4762 47.7262 99.4771 47.7246 99.4779C47.7231 99.4787 47.7215 99.4795 47.72 99.4802C47.7185 99.4811 47.7169 99.4818 47.7154 99.4826C47.7139 99.4834 47.7123 99.4842 47.7108 99.485C47.7093 99.4858 47.7078 99.4866 47.7063 99.4874C47.7047 99.4882 47.7032 99.489 47.7017 99.4897C47.7002 99.4905 47.6987 99.4913 47.6972 99.4921C47.6957 99.4929 47.6942 99.4937 47.6927 99.4944C47.6912 99.4952 47.6897 99.496 47.6882 99.4968C47.6867 99.4975 47.6852 99.4983 47.6837 99.4991C47.6823 99.4998 47.6808 99.5006 47.6793 99.5014C47.6778 99.5022 47.6763 99.5029 47.6749 99.5037C47.6734 99.5044 47.6719 99.5052 47.6705 99.506C47.669 99.5067 47.6675 99.5075 47.6661 99.5082C47.6646 99.509 47.6632 99.5098 47.6617 99.5105C47.6603 99.5113 47.6588 99.512 47.6574 99.5128C47.6559 99.5135 47.6545 99.5143 47.653 99.515C47.6516 99.5158 47.6502 99.5165 47.6487 99.5173C47.6473 99.518 47.6459 99.5187 47.6445 99.5195C47.643 99.5202 47.6416 99.521 47.6402 99.5217C47.6388 99.5224 47.6373 99.5232 47.6359 99.5239C47.6345 99.5246 47.6331 99.5254 47.6317 99.5261C47.6303 99.5268 47.6289 99.5276 47.6275 99.5283C47.6261 99.529 47.6247 99.5297 47.6233 99.5305C47.6219 99.5312 47.6205 99.5319 47.6191 99.5326C47.6178 99.5333 47.6164 99.5341 47.615 99.5348C47.6136 99.5355 47.6122 99.5362 47.6109 99.5369C47.6095 99.5376 47.6081 99.5383 47.6067 99.5391C47.6054 99.5398 47.604 99.5405 47.6027 99.5412C47.6013 99.5419 47.5999 99.5426 47.5986 99.5433C47.5972 99.544 47.5959 99.5447 47.5945 99.5454C47.5932 99.5461 47.5918 99.5468 47.5905 99.5475C47.5892 99.5482 47.5878 99.5489 47.5865 99.5496C47.5852 99.5503 47.5838 99.551 47.5825 99.5516C47.5812 99.5523 47.5798 99.553 47.5785 99.5537C47.5772 99.5544 47.5759 99.5551 47.5746 99.5558C47.5733 99.5564 47.5719 99.5571 47.5706 99.5578C47.5693 99.5585 47.568 99.5592 47.5667 99.5598C47.5654 99.5605 47.5641 99.5612 47.5628 99.5619C47.5615 99.5625 47.5602 99.5632 47.5589 99.5639L46.0619 97.2322ZM50.5504 94.904C52.986 93.4721 56.0136 91.733 59.6316 89.6876L61.2155 91.9722C57.6053 94.0132 54.5922 95.744 52.1746 97.1654L50.5504 94.904ZM59.6316 89.6876C63.2634 87.6344 67.4604 85.3718 72.2212 82.9001L73.7182 85.2318C68.979 87.6923 64.8119 89.939 61.2155 91.9722L59.6316 89.6876ZM72.1873 82.9183C76.8693 80.3203 81.8544 77.6485 87.1423 74.9031L88.6393 77.2348C83.3717 79.9697 78.4094 82.6293 73.752 85.2136L72.1873 82.9183ZM87.1423 74.9031C92.0352 72.3628 97.1656 69.7828 102.533 67.1631L103.968 69.526C98.6198 72.1363 93.5102 74.7059 88.6393 77.2348L87.1423 74.9031ZM102.502 67.1787C107.8 64.4279 113.114 61.8367 118.442 59.4052L119.812 61.7992C114.527 64.2105 109.256 66.7809 103.999 69.5104L102.502 67.1787ZM118.442 59.4052C123.772 56.9732 128.986 54.7688 134.085 52.7924L135.302 55.2508C130.258 57.2057 125.095 59.3884 119.812 61.7992L118.442 59.4052ZM134.05 52.8067C139.069 50.7041 143.844 48.8966 148.375 47.3856L149.461 49.8908C145.008 51.376 140.3 53.1574 135.337 55.2364L134.05 52.8067ZM148.022 47.5606C149.058 46.846 150.324 46.1036 151.809 45.3324L153.306 47.6641C151.889 48.4 150.728 49.0842 149.813 49.7159L148.022 47.5606ZM151.701 45.395C153.069 44.5184 154.37 43.6762 155.606 42.8686L157.34 45.0616C156.097 45.8742 154.789 46.7208 153.414 47.6015L151.701 45.395ZM155.517 42.9323C156.729 41.9894 157.553 41.1065 158.053 40.2941L160.572 41.6851C159.867 42.8325 158.798 43.9333 157.429 44.9979L155.517 42.9323ZM158.026 40.3393C158.442 39.5936 158.423 38.8693 157.859 37.9911L160.318 36.7144C161.361 38.3383 161.491 40.0385 160.599 41.6399L158.026 40.3393ZM157.859 37.9911C157.346 37.1917 156.608 36.477 155.604 35.8537L157.134 33.669C158.471 34.4993 159.546 35.5121 160.318 36.7144L157.859 37.9911ZM156.893 36.0204C149.486 38.3736 142.147 41.1063 134.874 44.2189L133.566 41.7977C140.922 38.6498 148.348 35.8845 155.846 33.5023L156.893 36.0204ZM134.847 44.2299C127.625 47.1502 120.67 50.3468 113.981 53.8196L112.484 51.4879C119.253 47.9734 126.289 44.7397 133.592 41.7867L134.847 44.2299ZM113.981 53.8196C110.582 55.5843 107.262 57.473 104.022 59.4857L102.341 57.2589C105.641 55.209 109.022 53.2854 112.484 51.4879L113.981 53.8196ZM103.979 59.5117C100.777 61.3399 97.6818 63.1957 94.6931 65.079L92.9971 62.8614C96.0204 60.9562 99.1496 59.0801 102.384 57.2329L103.979 59.5117ZM94.5936 65.1361C92.8043 66.065 90.9544 67.1871 89.0438 68.5058L87.2534 66.3505C89.2437 64.9767 91.1914 63.7935 93.0966 62.8044L94.5936 65.1361ZM89.053 68.4994C87.1823 69.8139 85.165 71.032 83.0027 72.1547L81.5057 69.823C83.5655 68.7536 85.4779 67.598 87.2441 66.3569L89.053 68.4994ZM83.0027 72.1547C81.4769 72.9469 79.8073 73.6384 77.9973 74.2318L76.925 71.722C78.603 71.1718 80.1287 70.5379 81.5057 69.823L83.0027 72.1547ZM77.9776 74.2381C76.2464 74.7787 74.3975 75.1139 72.4363 75.2494L72.0911 72.5984C73.8358 72.4779 75.4519 72.1818 76.9447 71.7157L77.9776 74.2381ZM70.8569 74.1458C69.9029 70.0483 70.1367 66.1717 71.5905 62.5511L74.2957 63.5742C73.0419 66.6969 72.8228 70.0612 73.6705 73.702L70.8569 74.1458ZM71.5764 62.5878C72.8079 59.2061 73.5822 55.4839 73.8903 51.414L76.7623 51.7199C76.4396 55.984 75.6251 59.9255 74.3097 63.5375L71.5764 62.5878ZM73.9231 51.8039C73.6568 50.7199 73.6439 49.5587 73.8422 48.3399L76.6897 48.8517C76.5324 49.8192 76.5597 50.6388 76.7295 51.33L73.9231 51.8039ZM73.8303 48.4377C73.9278 47.2194 74.0253 46.0012 74.1228 44.783L76.994 45.0993C76.8965 46.3175 76.799 47.5357 76.7016 48.754L73.8303 48.4377ZM74.1228 44.783C74.2193 43.5763 74.29 42.4693 74.3351 41.4613L77.2117 41.6924C77.1651 42.7336 77.0924 43.8695 76.994 45.0993L74.1228 44.783ZM74.3344 41.5527C74.3058 40.5987 74.0621 39.8208 73.6487 39.1771L76.1079 37.9003C76.8191 39.008 77.172 40.2555 77.2123 41.601L74.3344 41.5527ZM73.6487 39.1771C73.1263 38.3634 72.696 38.0607 72.4366 37.9626C72.2511 37.8925 71.9649 37.8527 71.4447 38.1228L69.9476 35.7911C71.0107 35.2392 72.2132 35.052 73.4218 35.5091C74.5564 35.9382 75.4256 36.8375 76.1079 37.9003L73.6487 39.1771ZM71.4447 38.1228C70.4823 38.6224 69.4809 39.7001 68.5437 41.6043L65.9131 40.414C66.9607 38.2854 68.2712 36.6615 69.9476 35.7911L71.4447 38.1228ZM68.565 41.5588C67.7924 43.3079 67.7606 44.6817 68.2108 45.7813L65.5235 46.6203C64.7345 44.6936 64.9436 42.6064 65.8918 40.4595L68.565 41.5588ZM68.2108 45.7813C68.9188 47.5101 69.1212 49.251 68.7933 50.9783L65.9568 50.4037C66.191 49.1703 66.0548 47.9178 65.5235 46.6203L68.2108 45.7813ZM68.8078 50.8798C68.6514 52.3613 68.3577 53.9035 67.9306 55.505L65.1332 54.759C65.5321 53.2629 65.8005 51.8443 65.9423 50.5022L68.8078 50.8798ZM67.9502 55.4193C67.6742 56.8729 67.4372 58.3906 67.2394 59.9725L64.3791 59.5488C64.5828 57.9199 64.8275 56.3518 65.1137 54.8447L67.9502 55.4193ZM67.2275 60.048C66.9865 61.3176 67.0707 62.6442 67.5024 64.0445L64.736 64.6628C64.1924 62.8998 64.0699 61.1644 64.391 59.4734L67.2275 60.048ZM67.356 65.0853C66.0073 67.1175 65.6142 69.197 66.1082 71.382L63.291 71.8099C62.6375 68.9194 63.1908 66.1707 64.8824 63.622L67.356 65.0853ZM66.1137 71.4076C66.6474 74.0168 66.5387 76.5341 65.7727 78.9402L63.0075 78.0842C63.6411 76.094 63.7388 74.0005 63.2855 71.7844L66.1137 71.4076ZM65.4317 79.4728C60.8363 83.7215 56.1679 87.0877 51.4223 89.5515L49.9253 87.2199C54.4158 84.8885 58.8915 81.6724 63.3485 77.5516L65.4317 79.4728ZM51.4223 89.5515C46.682 92.0126 40.7214 94.1667 33.5681 96.028L32.6708 93.4668C39.6872 91.6411 45.4295 89.554 49.9253 87.2199L51.4223 89.5515ZM31.7111 94.4132C32.4476 91.2299 33.0138 88.0538 33.41 84.8851L36.2703 85.3087C35.8635 88.5617 35.2826 91.8194 34.5279 95.0815L31.7111 94.4132ZM33.4112 84.8756C33.8658 81.4599 34.3607 78.1064 34.8961 74.8152L37.7436 75.327C37.2122 78.5945 36.7206 81.9249 36.269 85.3182L33.4112 84.8756ZM34.891 74.8498C35.3504 71.3976 35.9996 68.0957 36.8397 64.9449L39.6372 65.6908C38.8254 68.7354 38.1955 71.9356 37.7487 75.2924L34.891 74.8498ZM36.8301 64.9837C37.6031 61.6428 38.8584 58.4823 40.595 55.5055L43.144 56.848C41.5305 59.6138 40.3652 62.5473 39.6468 65.652L36.8301 64.9837ZM103.255 37.4555C104.434 38.012 105.526 38.782 106.533 39.7419L104.51 41.546C103.704 40.7783 102.88 40.2079 102.039 39.8112L103.255 37.4555ZM106.357 39.5979C107.295 40.2542 108.189 40.8461 109.04 41.3746L107.51 43.5593C106.606 42.9975 105.664 42.3741 104.686 41.69L106.357 39.5979ZM109.04 41.3746C109.78 41.834 110.605 42.1882 111.524 42.4333L110.844 44.9848C109.64 44.6639 108.526 44.1901 107.51 43.5593L109.04 41.3746ZM111.396 42.4048C112.29 42.5655 113.38 42.4984 114.701 42.1102L115.687 44.647C114.048 45.1284 112.464 45.2816 110.972 45.0134L111.396 42.4048ZM113.821 42.9216C114.304 41.5272 114.749 40.0691 115.155 38.5467L117.952 39.2927C117.532 40.868 117.07 42.3824 116.567 43.8356L113.821 42.9216ZM115.155 38.5467C115.527 37.1507 115.305 35.8295 114.454 34.5049L116.914 33.2282C118.151 35.1563 118.509 37.2038 117.952 39.2927L115.155 38.5467ZM115.766 35.1956L103.968 35.3159L103.804 32.6577L115.602 32.5374L115.766 35.1956ZM104.781 35.0645C104.012 35.5957 103.87 36.0137 103.872 36.2954L100.993 36.1906C100.983 34.8103 101.81 33.7242 102.991 32.9092L104.781 35.0645ZM103.867 36.1934C103.924 36.8308 103.996 37.6276 104.082 38.5837L101.213 38.683C101.127 37.7268 101.055 36.9301 100.998 36.2926L103.867 36.1934Z" fill="#F0F0F0" mask="url(#path-1-outside-1_1172_1723)"/>
</svg>
