<svg width="50" height="152" viewBox="0 0 50 152" fill="none" xmlns="http://www.w3.org/2000/svg">
<mask id="path-1-outside-1_1172_1729" maskUnits="userSpaceOnUse" x="-1.87793" y="-1.80615" width="53" height="155" fill="black">
<rect fill="white" x="-1.87793" y="-1.80615" width="53" height="155"/>
<path d="M42.7461 108.904C43.0421 108.164 44.1521 107.794 46.0761 107.794C48.0001 107.794 49.0361 108.756 49.1841 110.68C48.4441 113.788 47.1121 116.452 45.1881 118.672C43.2641 120.744 41.1181 122.668 38.7501 124.444C36.3821 126.22 34.0141 127.996 31.6461 129.772C29.2781 131.548 27.2801 133.768 25.6521 136.432C23.5801 137.616 21.6561 139.096 19.8801 140.872C18.2521 142.648 16.6241 144.35 14.9961 145.978C13.3681 147.458 11.6661 148.79 9.89007 149.974C8.11407 151.01 6.19007 151.528 4.11807 151.528C2.78607 151.528 1.89807 150.714 1.45407 149.086C1.01007 147.31 0.78807 145.312 0.78807 143.092C0.78807 141.908 0.86207 140.502 1.01007 138.874C1.30607 137.246 1.60207 135.692 1.89807 134.212C2.19407 132.584 2.41607 131.178 2.56407 129.994C2.86007 128.662 3.00807 127.848 3.00807 127.552C3.00807 126.812 3.00807 125.11 3.00807 122.446C3.15607 119.634 3.30407 116.156 3.45207 112.012C3.60007 107.868 3.67407 103.132 3.67407 97.8038C3.82207 92.4758 3.89607 86.8518 3.89607 80.9318C3.89607 75.4558 3.82207 69.7578 3.67407 63.8378C3.67407 57.9178 3.52607 52.0718 3.23007 46.2998C2.93407 40.5278 2.49007 34.9778 1.89807 29.6498C1.45407 24.3218 0.86207 19.3638 0.12207 14.7758C0.27007 13.5918 0.34407 12.1858 0.34407 10.5578C0.49207 8.92984 0.64007 7.37584 0.78807 5.89584C1.08407 4.26784 1.52807 2.93584 2.12007 1.89984C2.86007 0.715835 3.97007 0.123834 5.45007 0.123834C6.63407 0.123834 7.81807 0.419834 9.00207 1.01184C10.3341 8.55984 11.2961 16.2558 11.8881 24.0998C12.6281 31.7958 12.9981 39.4178 12.9981 46.9658C12.9981 50.8138 12.8501 54.6618 12.5541 58.5098C12.4061 62.2098 12.1841 65.8358 11.8881 69.3878C11.8881 71.4598 11.7401 73.6798 11.4441 76.0478C11.1481 78.2678 11.0001 80.5618 11.0001 82.9298C11.0001 84.5578 11.1481 86.2598 11.4441 88.0358C11.7401 89.6638 12.2581 91.2918 12.9981 92.9198C16.8461 91.5878 19.9541 89.4418 22.3221 86.4818C24.8381 83.5218 27.8721 80.7838 31.4241 78.2678C32.3121 77.9718 33.2001 77.4538 34.0881 76.7138C35.1241 75.9738 36.1601 75.2338 37.1961 74.4938C38.2321 73.7538 39.1941 73.0878 40.0821 72.4958C41.1181 71.9038 42.1541 71.6078 43.1901 71.6078C45.4101 71.6078 46.5201 72.4958 46.5201 74.2718C46.5201 75.7518 45.8541 77.4538 44.5221 79.3778C43.1901 81.1538 41.7101 82.1898 40.0821 82.4858C38.4541 82.7818 37.0481 83.4478 35.8641 84.4838C34.6801 85.3718 33.4961 86.4078 32.3121 87.5918C31.1281 88.6278 29.8701 89.6638 28.5381 90.6998C27.3541 91.7358 25.9481 92.4758 24.3201 92.9198C22.9881 95.4358 21.0641 97.1378 18.5481 98.0258C16.1801 98.9138 14.1821 100.246 12.5541 102.022C10.9261 108.09 10.1121 113.714 10.1121 118.894C10.1121 124.074 10.9261 130.142 12.5541 137.098C15.0701 134.73 17.6601 132.51 20.3241 130.438C23.1361 128.218 25.8741 125.998 28.5381 123.778C31.3501 121.558 33.9401 119.264 36.3081 116.896C38.8241 114.528 40.9701 111.864 42.7461 108.904ZM30.3141 48.2978C29.4261 47.7058 28.3901 47.2618 27.2061 46.9658C26.1701 46.5218 25.2081 46.0778 24.3201 45.6338C23.4321 45.1898 22.6181 44.5978 21.8781 43.8578C21.1381 42.9698 20.6201 41.7858 20.3241 40.3058C21.3601 39.1218 22.4701 37.9378 23.6541 36.7538C24.9861 35.4218 26.6141 34.7558 28.5381 34.7558L33.8661 44.7458C33.7181 45.9298 33.2741 46.7438 32.5341 47.1878C31.9421 47.4838 31.2021 47.8538 30.3141 48.2978Z"/>
</mask>
<path d="M42.7461 108.904C43.0421 108.164 44.1521 107.794 46.0761 107.794C48.0001 107.794 49.0361 108.756 49.1841 110.68C48.4441 113.788 47.1121 116.452 45.1881 118.672C43.2641 120.744 41.1181 122.668 38.7501 124.444C36.3821 126.22 34.0141 127.996 31.6461 129.772C29.2781 131.548 27.2801 133.768 25.6521 136.432C23.5801 137.616 21.6561 139.096 19.8801 140.872C18.2521 142.648 16.6241 144.35 14.9961 145.978C13.3681 147.458 11.6661 148.79 9.89007 149.974C8.11407 151.01 6.19007 151.528 4.11807 151.528C2.78607 151.528 1.89807 150.714 1.45407 149.086C1.01007 147.31 0.78807 145.312 0.78807 143.092C0.78807 141.908 0.86207 140.502 1.01007 138.874C1.30607 137.246 1.60207 135.692 1.89807 134.212C2.19407 132.584 2.41607 131.178 2.56407 129.994C2.86007 128.662 3.00807 127.848 3.00807 127.552C3.00807 126.812 3.00807 125.11 3.00807 122.446C3.15607 119.634 3.30407 116.156 3.45207 112.012C3.60007 107.868 3.67407 103.132 3.67407 97.8038C3.82207 92.4758 3.89607 86.8518 3.89607 80.9318C3.89607 75.4558 3.82207 69.7578 3.67407 63.8378C3.67407 57.9178 3.52607 52.0718 3.23007 46.2998C2.93407 40.5278 2.49007 34.9778 1.89807 29.6498C1.45407 24.3218 0.86207 19.3638 0.12207 14.7758C0.27007 13.5918 0.34407 12.1858 0.34407 10.5578C0.49207 8.92984 0.64007 7.37584 0.78807 5.89584C1.08407 4.26784 1.52807 2.93584 2.12007 1.89984C2.86007 0.715835 3.97007 0.123834 5.45007 0.123834C6.63407 0.123834 7.81807 0.419834 9.00207 1.01184C10.3341 8.55984 11.2961 16.2558 11.8881 24.0998C12.6281 31.7958 12.9981 39.4178 12.9981 46.9658C12.9981 50.8138 12.8501 54.6618 12.5541 58.5098C12.4061 62.2098 12.1841 65.8358 11.8881 69.3878C11.8881 71.4598 11.7401 73.6798 11.4441 76.0478C11.1481 78.2678 11.0001 80.5618 11.0001 82.9298C11.0001 84.5578 11.1481 86.2598 11.4441 88.0358C11.7401 89.6638 12.2581 91.2918 12.9981 92.9198C16.8461 91.5878 19.9541 89.4418 22.3221 86.4818C24.8381 83.5218 27.8721 80.7838 31.4241 78.2678C32.3121 77.9718 33.2001 77.4538 34.0881 76.7138C35.1241 75.9738 36.1601 75.2338 37.1961 74.4938C38.2321 73.7538 39.1941 73.0878 40.0821 72.4958C41.1181 71.9038 42.1541 71.6078 43.1901 71.6078C45.4101 71.6078 46.5201 72.4958 46.5201 74.2718C46.5201 75.7518 45.8541 77.4538 44.5221 79.3778C43.1901 81.1538 41.7101 82.1898 40.0821 82.4858C38.4541 82.7818 37.0481 83.4478 35.8641 84.4838C34.6801 85.3718 33.4961 86.4078 32.3121 87.5918C31.1281 88.6278 29.8701 89.6638 28.5381 90.6998C27.3541 91.7358 25.9481 92.4758 24.3201 92.9198C22.9881 95.4358 21.0641 97.1378 18.5481 98.0258C16.1801 98.9138 14.1821 100.246 12.5541 102.022C10.9261 108.09 10.1121 113.714 10.1121 118.894C10.1121 124.074 10.9261 130.142 12.5541 137.098C15.0701 134.73 17.6601 132.51 20.3241 130.438C23.1361 128.218 25.8741 125.998 28.5381 123.778C31.3501 121.558 33.9401 119.264 36.3081 116.896C38.8241 114.528 40.9701 111.864 42.7461 108.904ZM30.3141 48.2978C29.4261 47.7058 28.3901 47.2618 27.2061 46.9658C26.1701 46.5218 25.2081 46.0778 24.3201 45.6338C23.4321 45.1898 22.6181 44.5978 21.8781 43.8578C21.1381 42.9698 20.6201 41.7858 20.3241 40.3058C21.3601 39.1218 22.4701 37.9378 23.6541 36.7538C24.9861 35.4218 26.6141 34.7558 28.5381 34.7558L33.8661 44.7458C33.7181 45.9298 33.2741 46.7438 32.5341 47.1878C31.9421 47.4838 31.2021 47.8538 30.3141 48.2978Z" fill="#F0F0F0"/>
<path d="M42.7461 108.904L43.9341 109.617L43.9912 109.521L44.0324 109.418L42.7461 108.904ZM49.1841 110.68L50.5318 111.001L50.5821 110.79L50.5654 110.574L49.1841 110.68ZM45.1881 118.672L46.2033 119.615L46.2195 119.597L46.235 119.579L45.1881 118.672ZM38.7501 124.444L39.5813 125.552H39.5813L38.7501 124.444ZM25.6521 136.432L26.3394 137.635L26.6486 137.458L26.8342 137.154L25.6521 136.432ZM19.8801 140.872L18.9004 139.892L18.8791 139.913L18.8588 139.936L19.8801 140.872ZM14.9961 145.978L15.928 147.003L15.9524 146.981L15.9757 146.958L14.9961 145.978ZM9.89007 149.974L10.5882 151.171L10.624 151.15L10.6586 151.127L9.89007 149.974ZM1.45407 149.086L0.109998 149.422L0.113573 149.436L0.11745 149.45L1.45407 149.086ZM1.01007 138.874L-0.35302 138.626L-0.36408 138.687L-0.369678 138.748L1.01007 138.874ZM1.89807 134.212L3.2566 134.484L3.25899 134.472L3.26116 134.46L1.89807 134.212ZM2.56407 129.994L1.21162 129.693L1.19744 129.757L1.18933 129.822L2.56407 129.994ZM3.00807 122.446L1.62455 122.373L1.62263 122.409V122.446H3.00807ZM3.67407 97.8038L2.28917 97.7654L2.28863 97.7846V97.8038H3.67407ZM3.67407 63.8378H2.28863V63.8552L2.28907 63.8725L3.67407 63.8378ZM1.89807 29.6498L0.517418 29.7649L0.519001 29.7839L0.521106 29.8028L1.89807 29.6498ZM0.12207 14.7758L-1.25267 14.604L-1.27726 14.8007L-1.24569 14.9965L0.12207 14.7758ZM0.34407 10.5578L-1.03568 10.4324L-1.04137 10.495V10.5578H0.34407ZM0.78807 5.89584L-0.57502 5.648L-0.584962 5.70268L-0.590492 5.75798L0.78807 5.89584ZM2.12007 1.89984L0.945221 1.16556L0.930734 1.18874L0.917172 1.21247L2.12007 1.89984ZM9.00207 1.01184L10.3664 0.771067L10.2453 0.0844655L9.62166 -0.227337L9.00207 1.01184ZM11.8881 24.0998L10.5066 24.2041L10.5076 24.2183L10.509 24.2324L11.8881 24.0998ZM12.5541 58.5098L11.1727 58.4036L11.1708 58.429L11.1697 58.4545L12.5541 58.5098ZM11.8881 69.3878L10.5074 69.2728L10.5026 69.3302V69.3878H11.8881ZM11.4441 76.0478L12.8174 76.2309L12.8188 76.2197L11.4441 76.0478ZM11.4441 88.0358L10.0775 88.2636L10.0792 88.2737L10.081 88.2837L11.4441 88.0358ZM12.9981 92.9198L11.7368 93.4931L12.2589 94.6418L13.4513 94.2291L12.9981 92.9198ZM22.3221 86.4818L21.2665 85.5846L21.2531 85.6003L21.2402 85.6164L22.3221 86.4818ZM31.4241 78.2678L30.986 76.9535L30.791 77.0185L30.6233 77.1373L31.4241 78.2678ZM34.0881 76.7138L33.2828 75.5865L33.2408 75.6165L33.2011 75.6495L34.0881 76.7138ZM40.0821 72.4958L39.3947 71.2929L39.3533 71.3166L39.3136 71.3431L40.0821 72.4958ZM44.5221 79.3778L45.6304 80.2091L45.6462 80.1881L45.6612 80.1665L44.5221 79.3778ZM40.0821 82.4858L39.8342 81.1228L40.0821 82.4858ZM35.8641 84.4838L36.6953 85.5922L36.7371 85.5609L36.7764 85.5265L35.8641 84.4838ZM32.3121 87.5918L33.2244 88.6345L33.2591 88.6041L33.2917 88.5715L32.3121 87.5918ZM28.5381 90.6998L27.6875 89.6062L27.6559 89.6308L27.6258 89.6572L28.5381 90.6998ZM24.3201 92.9198L23.9555 91.5832L23.3765 91.7411L23.0956 92.2716L24.3201 92.9198ZM18.5481 98.0258L18.087 96.7194L18.0742 96.7239L18.0616 96.7286L18.5481 98.0258ZM12.5541 102.022L11.5328 101.086L11.3038 101.336L11.216 101.663L12.5541 102.022ZM12.5541 137.098L11.2051 137.414L11.7529 139.754L13.5036 138.107L12.5541 137.098ZM20.3241 130.438L21.1747 131.531L21.1826 131.525L20.3241 130.438ZM28.5381 123.778L27.6796 122.69L27.6652 122.702L27.6511 122.714L28.5381 123.778ZM36.3081 116.896L35.3585 115.887L35.3433 115.901L35.3284 115.916L36.3081 116.896ZM30.3141 48.2978L29.5456 49.4506L30.2145 49.8966L30.9337 49.537L30.3141 48.2978ZM27.2061 46.9658L26.6603 48.2393L26.7624 48.283L26.8701 48.3099L27.2061 46.9658ZM21.8781 43.8578L20.8137 44.7448L20.854 44.7931L20.8984 44.8375L21.8781 43.8578ZM20.3241 40.3058L19.2814 39.3935L18.8316 39.9077L18.9655 40.5776L20.3241 40.3058ZM23.6541 36.7538L22.6744 35.7742L22.6744 35.7742L23.6541 36.7538ZM28.5381 34.7558L29.7605 34.1039L29.3693 33.3704H28.5381V34.7558ZM33.8661 44.7458L35.2408 44.9177L35.2953 44.4816L35.0885 44.0939L33.8661 44.7458ZM32.5341 47.1878L33.1537 48.427L33.2012 48.4032L33.2469 48.3758L32.5341 47.1878ZM44.0324 109.418C43.9691 109.577 43.885 109.504 44.2387 109.386C44.5908 109.268 45.18 109.179 46.0761 109.179V106.408C45.0481 106.408 44.1203 106.504 43.3625 106.757C42.6061 107.009 41.8191 107.491 41.4597 108.389L44.0324 109.418ZM46.0761 109.179C46.8164 109.179 47.1721 109.362 47.3534 109.531C47.5352 109.699 47.7456 110.043 47.8027 110.786L50.5654 110.574C50.4746 109.393 50.0929 108.293 49.2388 107.5C48.384 106.706 47.2598 106.408 46.0761 106.408V109.179ZM47.8363 110.359C47.1433 113.27 45.9066 115.727 44.1411 117.764L46.235 119.579C48.3175 117.176 49.7448 114.306 50.5318 111.001L47.8363 110.359ZM44.1728 117.729C42.3077 119.738 40.2237 121.607 37.9188 123.335L39.5813 125.552C42.0124 123.729 44.2205 121.75 46.2033 119.615L44.1728 117.729ZM37.9188 123.335C35.5508 125.111 33.1828 126.887 30.8148 128.663L32.4773 130.88C34.8453 129.104 37.2133 127.328 39.5813 125.552L37.9188 123.335ZM30.8148 128.663C28.2989 130.55 26.1843 132.904 24.4699 135.709L26.8342 137.154C28.3758 134.632 30.2573 132.545 32.4773 130.88L30.8148 128.663ZM24.9647 135.229C22.7803 136.477 20.7589 138.034 18.9004 139.892L20.8597 141.852C22.5532 140.158 24.3798 138.755 26.3394 137.635L24.9647 135.229ZM18.8588 139.936C17.2437 141.698 15.6296 143.385 14.0164 144.998L15.9757 146.958C17.6185 145.315 19.2604 143.598 20.9014 141.808L18.8588 139.936ZM14.0641 144.953C12.4858 146.388 10.8382 147.677 9.12157 148.821L10.6586 151.127C12.4939 149.903 14.2504 148.528 15.928 147.003L14.0641 144.953ZM9.19199 148.777C7.62959 149.689 5.94677 150.142 4.11807 150.142V152.913C6.43337 152.913 8.59855 152.331 10.5882 151.171L9.19199 148.777ZM4.11807 150.142C3.75902 150.142 3.54991 150.043 3.38924 149.896C3.20064 149.723 2.97029 149.38 2.79069 148.721L0.11745 149.45C0.381854 150.42 0.817499 151.298 1.5169 151.939C2.24423 152.605 3.14512 152.913 4.11807 152.913V150.142ZM2.79814 148.75C2.3867 147.104 2.17351 145.222 2.17351 143.092H-0.597367C-0.597367 145.402 -0.366559 147.516 0.109998 149.422L2.79814 148.75ZM2.17351 143.092C2.17351 141.962 2.2443 140.6 2.38982 138.999L-0.369678 138.748C-0.520157 140.404 -0.597367 141.854 -0.597367 143.092H2.17351ZM2.37316 139.122C2.66785 137.501 2.96234 135.955 3.2566 134.484L0.539537 133.94C0.241806 135.429 -0.0557071 136.991 -0.35302 138.626L2.37316 139.122ZM3.26116 134.46C3.56014 132.815 3.78668 131.383 3.93881 130.166L1.18933 129.822C1.04546 130.973 0.828002 132.352 0.53498 133.964L3.26116 134.46ZM3.91652 130.294C4.06627 129.621 4.18157 129.064 4.26016 128.632C4.33155 128.24 4.39351 127.843 4.39351 127.552H1.62263C1.62263 127.533 1.62322 127.566 1.60704 127.688C1.59243 127.797 1.56872 127.945 1.53398 128.137C1.46457 128.518 1.35788 129.035 1.21162 129.693L3.91652 130.294ZM4.39351 127.552C4.39351 127.55 4.39351 127.549 4.39351 127.548C4.39351 127.546 4.39351 127.545 4.39351 127.543C4.39351 127.542 4.39351 127.54 4.39351 127.539C4.39351 127.537 4.39351 127.536 4.39351 127.534C4.39351 127.533 4.39351 127.531 4.39351 127.53C4.39351 127.528 4.39351 127.527 4.39351 127.525C4.39351 127.524 4.39351 127.522 4.39351 127.521C4.39351 127.519 4.39351 127.518 4.39351 127.516C4.39351 127.515 4.39351 127.513 4.39351 127.512C4.39351 127.51 4.39351 127.509 4.39351 127.507C4.39351 127.506 4.39351 127.504 4.39351 127.503C4.39351 127.501 4.39351 127.5 4.39351 127.498C4.39351 127.497 4.39351 127.495 4.39351 127.494C4.39351 127.492 4.39351 127.491 4.39351 127.489C4.39351 127.487 4.39351 127.486 4.39351 127.484C4.39351 127.483 4.39351 127.481 4.39351 127.48C4.39351 127.478 4.39351 127.477 4.39351 127.475C4.39351 127.473 4.39351 127.472 4.39351 127.47C4.39351 127.469 4.39351 127.467 4.39351 127.465C4.39351 127.464 4.39351 127.462 4.39351 127.461C4.39351 127.459 4.39351 127.458 4.39351 127.456C4.39351 127.454 4.39351 127.453 4.39351 127.451C4.39351 127.45 4.39351 127.448 4.39351 127.446C4.39351 127.445 4.39351 127.443 4.39351 127.441C4.39351 127.44 4.39351 127.438 4.39351 127.437C4.39351 127.435 4.39351 127.433 4.39351 127.432C4.39351 127.43 4.39351 127.428 4.39351 127.427C4.39351 127.425 4.39351 127.423 4.39351 127.422C4.39351 127.42 4.39351 127.419 4.39351 127.417C4.39351 127.415 4.39351 127.414 4.39351 127.412C4.39351 127.41 4.39351 127.409 4.39351 127.407C4.39351 127.405 4.39351 127.404 4.39351 127.402C4.39351 127.4 4.39351 127.398 4.39351 127.397C4.39351 127.395 4.39351 127.393 4.39351 127.392C4.39351 127.39 4.39351 127.388 4.39351 127.387C4.39351 127.385 4.39351 127.383 4.39351 127.381C4.39351 127.38 4.39351 127.378 4.39351 127.376C4.39351 127.375 4.39351 127.373 4.39351 127.371C4.39351 127.369 4.39351 127.368 4.39351 127.366C4.39351 127.364 4.39351 127.363 4.39351 127.361C4.39351 127.359 4.39351 127.357 4.39351 127.356C4.39351 127.354 4.39351 127.352 4.39351 127.35C4.39351 127.349 4.39351 127.347 4.39351 127.345C4.39351 127.343 4.39351 127.342 4.39351 127.34C4.39351 127.338 4.39351 127.336 4.39351 127.334C4.39351 127.333 4.39351 127.331 4.39351 127.329C4.39351 127.327 4.39351 127.326 4.39351 127.324C4.39351 127.322 4.39351 127.32 4.39351 127.318C4.39351 127.317 4.39351 127.315 4.39351 127.313C4.39351 127.311 4.39351 127.309 4.39351 127.308C4.39351 127.306 4.39351 127.304 4.39351 127.302C4.39351 127.3 4.39351 127.298 4.39351 127.297C4.39351 127.295 4.39351 127.293 4.39351 127.291C4.39351 127.289 4.39351 127.287 4.39351 127.286C4.39351 127.284 4.39351 127.282 4.39351 127.28C4.39351 127.278 4.39351 127.276 4.39351 127.275C4.39351 127.273 4.39351 127.271 4.39351 127.269C4.39351 127.267 4.39351 127.265 4.39351 127.263C4.39351 127.261 4.39351 127.26 4.39351 127.258C4.39351 127.256 4.39351 127.254 4.39351 127.252C4.39351 127.25 4.39351 127.248 4.39351 127.246C4.39351 127.244 4.39351 127.243 4.39351 127.241C4.39351 127.239 4.39351 127.237 4.39351 127.235C4.39351 127.233 4.39351 127.231 4.39351 127.229C4.39351 127.227 4.39351 127.225 4.39351 127.223C4.39351 127.222 4.39351 127.22 4.39351 127.218C4.39351 127.216 4.39351 127.214 4.39351 127.212C4.39351 127.21 4.39351 127.208 4.39351 127.206C4.39351 127.204 4.39351 127.202 4.39351 127.2C4.39351 127.198 4.39351 127.196 4.39351 127.194C4.39351 127.192 4.39351 127.19 4.39351 127.188C4.39351 127.187 4.39351 127.185 4.39351 127.183C4.39351 127.181 4.39351 127.179 4.39351 127.177C4.39351 127.175 4.39351 127.173 4.39351 127.171C4.39351 127.169 4.39351 127.167 4.39351 127.165C4.39351 127.163 4.39351 127.161 4.39351 127.159C4.39351 127.157 4.39351 127.155 4.39351 127.153C4.39351 127.151 4.39351 127.149 4.39351 127.147C4.39351 127.145 4.39351 127.143 4.39351 127.141C4.39351 127.139 4.39351 127.137 4.39351 127.135C4.39351 127.132 4.39351 127.13 4.39351 127.128C4.39351 127.126 4.39351 127.124 4.39351 127.122C4.39351 127.12 4.39351 127.118 4.39351 127.116C4.39351 127.114 4.39351 127.112 4.39351 127.11C4.39351 127.108 4.39351 127.106 4.39351 127.104C4.39351 127.102 4.39351 127.1 4.39351 127.098C4.39351 127.095 4.39351 127.093 4.39351 127.091C4.39351 127.089 4.39351 127.087 4.39351 127.085C4.39351 127.083 4.39351 127.081 4.39351 127.079C4.39351 127.077 4.39351 127.075 4.39351 127.072C4.39351 127.07 4.39351 127.068 4.39351 127.066C4.39351 127.064 4.39351 127.062 4.39351 127.06C4.39351 127.058 4.39351 127.056 4.39351 127.053C4.39351 127.051 4.39351 127.049 4.39351 127.047C4.39351 127.045 4.39351 127.043 4.39351 127.041C4.39351 127.038 4.39351 127.036 4.39351 127.034C4.39351 127.032 4.39351 127.03 4.39351 127.028C4.39351 127.026 4.39351 127.023 4.39351 127.021C4.39351 127.019 4.39351 127.017 4.39351 127.015C4.39351 127.013 4.39351 127.01 4.39351 127.008C4.39351 127.006 4.39351 127.004 4.39351 127.002C4.39351 126.999 4.39351 126.997 4.39351 126.995C4.39351 126.993 4.39351 126.991 4.39351 126.988C4.39351 126.986 4.39351 126.984 4.39351 126.982C4.39351 126.98 4.39351 126.977 4.39351 126.975C4.39351 126.973 4.39351 126.971 4.39351 126.969C4.39351 126.966 4.39351 126.964 4.39351 126.962C4.39351 126.96 4.39351 126.957 4.39351 126.955C4.39351 126.953 4.39351 126.951 4.39351 126.948C4.39351 126.946 4.39351 126.944 4.39351 126.942C4.39351 126.939 4.39351 126.937 4.39351 126.935C4.39351 126.933 4.39351 126.93 4.39351 126.928C4.39351 126.926 4.39351 126.924 4.39351 126.921C4.39351 126.919 4.39351 126.917 4.39351 126.914C4.39351 126.912 4.39351 126.91 4.39351 126.908C4.39351 126.905 4.39351 126.903 4.39351 126.901C4.39351 126.898 4.39351 126.896 4.39351 126.894C4.39351 126.892 4.39351 126.889 4.39351 126.887C4.39351 126.885 4.39351 126.882 4.39351 126.88C4.39351 126.878 4.39351 126.875 4.39351 126.873C4.39351 126.871 4.39351 126.868 4.39351 126.866C4.39351 126.864 4.39351 126.861 4.39351 126.859C4.39351 126.857 4.39351 126.854 4.39351 126.852C4.39351 126.85 4.39351 126.847 4.39351 126.845C4.39351 126.843 4.39351 126.84 4.39351 126.838C4.39351 126.835 4.39351 126.833 4.39351 126.831C4.39351 126.828 4.39351 126.826 4.39351 126.824C4.39351 126.821 4.39351 126.819 4.39351 126.816C4.39351 126.814 4.39351 126.812 4.39351 126.809C4.39351 126.807 4.39351 126.805 4.39351 126.802C4.39351 126.8 4.39351 126.797 4.39351 126.795C4.39351 126.792 4.39351 126.79 4.39351 126.788C4.39351 126.785 4.39351 126.783 4.39351 126.78C4.39351 126.778 4.39351 126.776 4.39351 126.773C4.39351 126.771 4.39351 126.768 4.39351 126.766C4.39351 126.763 4.39351 126.761 4.39351 126.759C4.39351 126.756 4.39351 126.754 4.39351 126.751C4.39351 126.749 4.39351 126.746 4.39351 126.744C4.39351 126.741 4.39351 126.739 4.39351 126.736C4.39351 126.734 4.39351 126.732 4.39351 126.729C4.39351 126.727 4.39351 126.724 4.39351 126.722C4.39351 126.719 4.39351 126.717 4.39351 126.714C4.39351 126.712 4.39351 126.709 4.39351 126.707C4.39351 126.704 4.39351 126.702 4.39351 126.699C4.39351 126.697 4.39351 126.694 4.39351 126.692C4.39351 126.689 4.39351 126.687 4.39351 126.684C4.39351 126.682 4.39351 126.679 4.39351 126.677C4.39351 126.674 4.39351 126.672 4.39351 126.669C4.39351 126.666 4.39351 126.664 4.39351 126.661C4.39351 126.659 4.39351 126.656 4.39351 126.654C4.39351 126.651 4.39351 126.649 4.39351 126.646C4.39351 126.644 4.39351 126.641 4.39351 126.638C4.39351 126.636 4.39351 126.633 4.39351 126.631C4.39351 126.628 4.39351 126.626 4.39351 126.623C4.39351 126.62 4.39351 126.618 4.39351 126.615C4.39351 126.613 4.39351 126.61 4.39351 126.608C4.39351 126.605 4.39351 126.602 4.39351 126.6C4.39351 126.597 4.39351 126.595 4.39351 126.592C4.39351 126.589 4.39351 126.587 4.39351 126.584C4.39351 126.581 4.39351 126.579 4.39351 126.576C4.39351 126.574 4.39351 126.571 4.39351 126.568C4.39351 126.566 4.39351 126.563 4.39351 126.561C4.39351 126.558 4.39351 126.555 4.39351 126.553C4.39351 126.55 4.39351 126.547 4.39351 126.545C4.39351 126.542 4.39351 126.539 4.39351 126.537C4.39351 126.534 4.39351 126.531 4.39351 126.529C4.39351 126.526 4.39351 126.523 4.39351 126.521C4.39351 126.518 4.39351 126.515 4.39351 126.513C4.39351 126.51 4.39351 126.507 4.39351 126.505C4.39351 126.502 4.39351 126.499 4.39351 126.497C4.39351 126.494 4.39351 126.491 4.39351 126.488C4.39351 126.486 4.39351 126.483 4.39351 126.48C4.39351 126.478 4.39351 126.475 4.39351 126.472C4.39351 126.47 4.39351 126.467 4.39351 126.464C4.39351 126.461 4.39351 126.459 4.39351 126.456C4.39351 126.453 4.39351 126.45 4.39351 126.448C4.39351 126.445 4.39351 126.442 4.39351 126.439C4.39351 126.437 4.39351 126.434 4.39351 126.431C4.39351 126.428 4.39351 126.426 4.39351 126.423C4.39351 126.42 4.39351 126.417 4.39351 126.415C4.39351 126.412 4.39351 126.409 4.39351 126.406C4.39351 126.404 4.39351 126.401 4.39351 126.398C4.39351 126.395 4.39351 126.392 4.39351 126.39C4.39351 126.387 4.39351 126.384 4.39351 126.381C4.39351 126.379 4.39351 126.376 4.39351 126.373C4.39351 126.37 4.39351 126.367 4.39351 126.364C4.39351 126.362 4.39351 126.359 4.39351 126.356C4.39351 126.353 4.39351 126.35 4.39351 126.348C4.39351 126.345 4.39351 126.342 4.39351 126.339C4.39351 126.336 4.39351 126.333 4.39351 126.331C4.39351 126.328 4.39351 126.325 4.39351 126.322C4.39351 126.319 4.39351 126.316 4.39351 126.314C4.39351 126.311 4.39351 126.308 4.39351 126.305C4.39351 126.302 4.39351 126.299 4.39351 126.296C4.39351 126.293 4.39351 126.291 4.39351 126.288C4.39351 126.285 4.39351 126.282 4.39351 126.279C4.39351 126.276 4.39351 126.273 4.39351 126.27C4.39351 126.268 4.39351 126.265 4.39351 126.262C4.39351 126.259 4.39351 126.256 4.39351 126.253C4.39351 126.25 4.39351 126.247 4.39351 126.244C4.39351 126.241 4.39351 126.238 4.39351 126.236C4.39351 126.233 4.39351 126.23 4.39351 126.227C4.39351 126.224 4.39351 126.221 4.39351 126.218C4.39351 126.215 4.39351 126.212 4.39351 126.209C4.39351 126.206 4.39351 126.203 4.39351 126.2C4.39351 126.197 4.39351 126.194 4.39351 126.191C4.39351 126.188 4.39351 126.186 4.39351 126.183C4.39351 126.18 4.39351 126.177 4.39351 126.174C4.39351 126.171 4.39351 126.168 4.39351 126.165C4.39351 126.162 4.39351 126.159 4.39351 126.156C4.39351 126.153 4.39351 126.15 4.39351 126.147C4.39351 126.144 4.39351 126.141 4.39351 126.138C4.39351 126.135 4.39351 126.132 4.39351 126.129C4.39351 126.126 4.39351 126.123 4.39351 126.12C4.39351 126.117 4.39351 126.114 4.39351 126.111C4.39351 126.108 4.39351 126.105 4.39351 126.102C4.39351 126.099 4.39351 126.096 4.39351 126.093C4.39351 126.089 4.39351 126.086 4.39351 126.083C4.39351 126.08 4.39351 126.077 4.39351 126.074C4.39351 126.071 4.39351 126.068 4.39351 126.065C4.39351 126.062 4.39351 126.059 4.39351 126.056C4.39351 126.053 4.39351 126.05 4.39351 126.047C4.39351 126.044 4.39351 126.041 4.39351 126.037C4.39351 126.034 4.39351 126.031 4.39351 126.028C4.39351 126.025 4.39351 126.022 4.39351 126.019C4.39351 126.016 4.39351 126.013 4.39351 126.01C4.39351 126.007 4.39351 126.003 4.39351 126C4.39351 125.997 4.39351 125.994 4.39351 125.991C4.39351 125.988 4.39351 125.985 4.39351 125.982C4.39351 125.978 4.39351 125.975 4.39351 125.972C4.39351 125.969 4.39351 125.966 4.39351 125.963C4.39351 125.96 4.39351 125.956 4.39351 125.953C4.39351 125.95 4.39351 125.947 4.39351 125.944C4.39351 125.941 4.39351 125.938 4.39351 125.934C4.39351 125.931 4.39351 125.928 4.39351 125.925C4.39351 125.922 4.39351 125.919 4.39351 125.915C4.39351 125.912 4.39351 125.909 4.39351 125.906C4.39351 125.903 4.39351 125.899 4.39351 125.896C4.39351 125.893 4.39351 125.89 4.39351 125.887C4.39351 125.883 4.39351 125.88 4.39351 125.877C4.39351 125.874 4.39351 125.871 4.39351 125.867C4.39351 125.864 4.39351 125.861 4.39351 125.858C4.39351 125.855 4.39351 125.851 4.39351 125.848C4.39351 125.845 4.39351 125.842 4.39351 125.838C4.39351 125.835 4.39351 125.832 4.39351 125.829C4.39351 125.825 4.39351 125.822 4.39351 125.819C4.39351 125.816 4.39351 125.812 4.39351 125.809C4.39351 125.806 4.39351 125.803 4.39351 125.799C4.39351 125.796 4.39351 125.793 4.39351 125.79C4.39351 125.786 4.39351 125.783 4.39351 125.78C4.39351 125.777 4.39351 125.773 4.39351 125.77C4.39351 125.767 4.39351 125.763 4.39351 125.76C4.39351 125.757 4.39351 125.753 4.39351 125.75C4.39351 125.747 4.39351 125.744 4.39351 125.74C4.39351 125.737 4.39351 125.734 4.39351 125.73C4.39351 125.727 4.39351 125.724 4.39351 125.72C4.39351 125.717 4.39351 125.714 4.39351 125.71C4.39351 125.707 4.39351 125.704 4.39351 125.7C4.39351 125.697 4.39351 125.694 4.39351 125.69C4.39351 125.687 4.39351 125.684 4.39351 125.68C4.39351 125.677 4.39351 125.674 4.39351 125.67C4.39351 125.667 4.39351 125.663 4.39351 125.66C4.39351 125.657 4.39351 125.653 4.39351 125.65C4.39351 125.647 4.39351 125.643 4.39351 125.64C4.39351 125.636 4.39351 125.633 4.39351 125.63C4.39351 125.626 4.39351 125.623 4.39351 125.62C4.39351 125.616 4.39351 125.613 4.39351 125.609C4.39351 125.606 4.39351 125.603 4.39351 125.599C4.39351 125.596 4.39351 125.592 4.39351 125.589C4.39351 125.585 4.39351 125.582 4.39351 125.579C4.39351 125.575 4.39351 125.572 4.39351 125.568C4.39351 125.565 4.39351 125.561 4.39351 125.558C4.39351 125.555 4.39351 125.551 4.39351 125.548C4.39351 125.544 4.39351 125.541 4.39351 125.537C4.39351 125.534 4.39351 125.53 4.39351 125.527C4.39351 125.523 4.39351 125.52 4.39351 125.516C4.39351 125.513 4.39351 125.51 4.39351 125.506C4.39351 125.503 4.39351 125.499 4.39351 125.496C4.39351 125.492 4.39351 125.489 4.39351 125.485C4.39351 125.482 4.39351 125.478 4.39351 125.475C4.39351 125.471 4.39351 125.468 4.39351 125.464C4.39351 125.461 4.39351 125.457 4.39351 125.454C4.39351 125.45 4.39351 125.447 4.39351 125.443C4.39351 125.44 4.39351 125.436 4.39351 125.432C4.39351 125.429 4.39351 125.425 4.39351 125.422C4.39351 125.418 4.39351 125.415 4.39351 125.411C4.39351 125.408 4.39351 125.404 4.39351 125.401C4.39351 125.397 4.39351 125.394 4.39351 125.39C4.39351 125.386 4.39351 125.383 4.39351 125.379C4.39351 125.376 4.39351 125.372 4.39351 125.369C4.39351 125.365 4.39351 125.361 4.39351 125.358C4.39351 125.354 4.39351 125.351 4.39351 125.347C4.39351 125.343 4.39351 125.34 4.39351 125.336C4.39351 125.333 4.39351 125.329 4.39351 125.325C4.39351 125.322 4.39351 125.318 4.39351 125.315C4.39351 125.311 4.39351 125.307 4.39351 125.304C4.39351 125.3 4.39351 125.297 4.39351 125.293C4.39351 125.289 4.39351 125.286 4.39351 125.282C4.39351 125.278 4.39351 125.275 4.39351 125.271C4.39351 125.268 4.39351 125.264 4.39351 125.26C4.39351 125.257 4.39351 125.253 4.39351 125.249C4.39351 125.246 4.39351 125.242 4.39351 125.238C4.39351 125.235 4.39351 125.231 4.39351 125.227C4.39351 125.224 4.39351 125.22 4.39351 125.216C4.39351 125.213 4.39351 125.209 4.39351 125.205C4.39351 125.202 4.39351 125.198 4.39351 125.194C4.39351 125.191 4.39351 125.187 4.39351 125.183C4.39351 125.179 4.39351 125.176 4.39351 125.172C4.39351 125.168 4.39351 125.165 4.39351 125.161C4.39351 125.157 4.39351 125.153 4.39351 125.15C4.39351 125.146 4.39351 125.142 4.39351 125.139C4.39351 125.135 4.39351 125.131 4.39351 125.127C4.39351 125.124 4.39351 125.12 4.39351 125.116C4.39351 125.112 4.39351 125.109 4.39351 125.105C4.39351 125.101 4.39351 125.097 4.39351 125.094C4.39351 125.09 4.39351 125.086 4.39351 125.082C4.39351 125.079 4.39351 125.075 4.39351 125.071C4.39351 125.067 4.39351 125.064 4.39351 125.06C4.39351 125.056 4.39351 125.052 4.39351 125.048C4.39351 125.045 4.39351 125.041 4.39351 125.037C4.39351 125.033 4.39351 125.029 4.39351 125.026C4.39351 125.022 4.39351 125.018 4.39351 125.014C4.39351 125.01 4.39351 125.007 4.39351 125.003C4.39351 124.999 4.39351 124.995 4.39351 124.991C4.39351 124.987 4.39351 124.984 4.39351 124.98C4.39351 124.976 4.39351 124.972 4.39351 124.968C4.39351 124.964 4.39351 124.961 4.39351 124.957C4.39351 124.953 4.39351 124.949 4.39351 124.945C4.39351 124.941 4.39351 124.938 4.39351 124.934C4.39351 124.93 4.39351 124.926 4.39351 124.922C4.39351 124.918 4.39351 124.914 4.39351 124.91C4.39351 124.907 4.39351 124.903 4.39351 124.899C4.39351 124.895 4.39351 124.891 4.39351 124.887C4.39351 124.883 4.39351 124.879 4.39351 124.876C4.39351 124.872 4.39351 124.868 4.39351 124.864C4.39351 124.86 4.39351 124.856 4.39351 124.852C4.39351 124.848 4.39351 124.844 4.39351 124.84C4.39351 124.836 4.39351 124.832 4.39351 124.829C4.39351 124.825 4.39351 124.821 4.39351 124.817C4.39351 124.813 4.39351 124.809 4.39351 124.805C4.39351 124.801 4.39351 124.797 4.39351 124.793C4.39351 124.789 4.39351 124.785 4.39351 124.781C4.39351 124.777 4.39351 124.773 4.39351 124.769C4.39351 124.765 4.39351 124.761 4.39351 124.757C4.39351 124.754 4.39351 124.75 4.39351 124.746C4.39351 124.742 4.39351 124.738 4.39351 124.734C4.39351 124.73 4.39351 124.726 4.39351 124.722C4.39351 124.718 4.39351 124.714 4.39351 124.71C4.39351 124.706 4.39351 124.702 4.39351 124.698C4.39351 124.694 4.39351 124.69 4.39351 124.686C4.39351 124.682 4.39351 124.678 4.39351 124.674C4.39351 124.67 4.39351 124.666 4.39351 124.662C4.39351 124.657 4.39351 124.653 4.39351 124.649C4.39351 124.645 4.39351 124.641 4.39351 124.637C4.39351 124.633 4.39351 124.629 4.39351 124.625C4.39351 124.621 4.39351 124.617 4.39351 124.613C4.39351 124.609 4.39351 124.605 4.39351 124.601C4.39351 124.597 4.39351 124.593 4.39351 124.589C4.39351 124.585 4.39351 124.58 4.39351 124.576C4.39351 124.572 4.39351 124.568 4.39351 124.564C4.39351 124.56 4.39351 124.556 4.39351 124.552C4.39351 124.548 4.39351 124.544 4.39351 124.54C4.39351 124.535 4.39351 124.531 4.39351 124.527C4.39351 124.523 4.39351 124.519 4.39351 124.515C4.39351 124.511 4.39351 124.507 4.39351 124.503C4.39351 124.498 4.39351 124.494 4.39351 124.49C4.39351 124.486 4.39351 124.482 4.39351 124.478C4.39351 124.474 4.39351 124.469 4.39351 124.465C4.39351 124.461 4.39351 124.457 4.39351 124.453C4.39351 124.449 4.39351 124.445 4.39351 124.44C4.39351 124.436 4.39351 124.432 4.39351 124.428C4.39351 124.424 4.39351 124.42 4.39351 124.415C4.39351 124.411 4.39351 124.407 4.39351 124.403C4.39351 124.399 4.39351 124.394 4.39351 124.39C4.39351 124.386 4.39351 124.382 4.39351 124.378C4.39351 124.374 4.39351 124.369 4.39351 124.365C4.39351 124.361 4.39351 124.357 4.39351 124.352C4.39351 124.348 4.39351 124.344 4.39351 124.34C4.39351 124.336 4.39351 124.331 4.39351 124.327C4.39351 124.323 4.39351 124.319 4.39351 124.314C4.39351 124.31 4.39351 124.306 4.39351 124.302C4.39351 124.298 4.39351 124.293 4.39351 124.289C4.39351 124.285 4.39351 124.281 4.39351 124.276C4.39351 124.272 4.39351 124.268 4.39351 124.263C4.39351 124.259 4.39351 124.255 4.39351 124.251C4.39351 124.246 4.39351 124.242 4.39351 124.238C4.39351 124.234 4.39351 124.229 4.39351 124.225C4.39351 124.221 4.39351 124.216 4.39351 124.212C4.39351 124.208 4.39351 124.204 4.39351 124.199C4.39351 124.195 4.39351 124.191 4.39351 124.186C4.39351 124.182 4.39351 124.178 4.39351 124.173C4.39351 124.169 4.39351 124.165 4.39351 124.16C4.39351 124.156 4.39351 124.152 4.39351 124.147C4.39351 124.143 4.39351 124.139 4.39351 124.134C4.39351 124.13 4.39351 124.126 4.39351 124.121C4.39351 124.117 4.39351 124.113 4.39351 124.108C4.39351 124.104 4.39351 124.1 4.39351 124.095C4.39351 124.091 4.39351 124.087 4.39351 124.082C4.39351 124.078 4.39351 124.074 4.39351 124.069C4.39351 124.065 4.39351 124.06 4.39351 124.056C4.39351 124.052 4.39351 124.047 4.39351 124.043C4.39351 124.038 4.39351 124.034 4.39351 124.03C4.39351 124.025 4.39351 124.021 4.39351 124.016C4.39351 124.012 4.39351 124.008 4.39351 124.003C4.39351 123.999 4.39351 123.994 4.39351 123.99C4.39351 123.986 4.39351 123.981 4.39351 123.977C4.39351 123.972 4.39351 123.968 4.39351 123.963C4.39351 123.959 4.39351 123.955 4.39351 123.95C4.39351 123.946 4.39351 123.941 4.39351 123.937C4.39351 123.932 4.39351 123.928 4.39351 123.923C4.39351 123.919 4.39351 123.915 4.39351 123.91C4.39351 123.906 4.39351 123.901 4.39351 123.897C4.39351 123.892 4.39351 123.888 4.39351 123.883C4.39351 123.879 4.39351 123.874 4.39351 123.87C4.39351 123.865 4.39351 123.861 4.39351 123.856C4.39351 123.852 4.39351 123.847 4.39351 123.843C4.39351 123.838 4.39351 123.834 4.39351 123.829C4.39351 123.825 4.39351 123.82 4.39351 123.816C4.39351 123.811 4.39351 123.807 4.39351 123.802C4.39351 123.798 4.39351 123.793 4.39351 123.789C4.39351 123.784 4.39351 123.78 4.39351 123.775C4.39351 123.771 4.39351 123.766 4.39351 123.762C4.39351 123.757 4.39351 123.752 4.39351 123.748C4.39351 123.743 4.39351 123.739 4.39351 123.734C4.39351 123.73 4.39351 123.725 4.39351 123.721C4.39351 123.716 4.39351 123.711 4.39351 123.707C4.39351 123.702 4.39351 123.698 4.39351 123.693C4.39351 123.689 4.39351 123.684 4.39351 123.679C4.39351 123.675 4.39351 123.67 4.39351 123.666C4.39351 123.661 4.39351 123.656 4.39351 123.652C4.39351 123.647 4.39351 123.643 4.39351 123.638C4.39351 123.633 4.39351 123.629 4.39351 123.624C4.39351 123.62 4.39351 123.615 4.39351 123.61C4.39351 123.606 4.39351 123.601 4.39351 123.596C4.39351 123.592 4.39351 123.587 4.39351 123.582C4.39351 123.578 4.39351 123.573 4.39351 123.569C4.39351 123.564 4.39351 123.559 4.39351 123.555C4.39351 123.55 4.39351 123.545 4.39351 123.541C4.39351 123.536 4.39351 123.531 4.39351 123.527C4.39351 123.522 4.39351 123.517 4.39351 123.513C4.39351 123.508 4.39351 123.503 4.39351 123.499C4.39351 123.494 4.39351 123.489 4.39351 123.485C4.39351 123.48 4.39351 123.475 4.39351 123.47C4.39351 123.466 4.39351 123.461 4.39351 123.456C4.39351 123.452 4.39351 123.447 4.39351 123.442C4.39351 123.438 4.39351 123.433 4.39351 123.428C4.39351 123.423 4.39351 123.419 4.39351 123.414C4.39351 123.409 4.39351 123.404 4.39351 123.4C4.39351 123.395 4.39351 123.39 4.39351 123.386C4.39351 123.381 4.39351 123.376 4.39351 123.371C4.39351 123.367 4.39351 123.362 4.39351 123.357C4.39351 123.352 4.39351 123.348 4.39351 123.343C4.39351 123.338 4.39351 123.333 4.39351 123.328C4.39351 123.324 4.39351 123.319 4.39351 123.314C4.39351 123.309 4.39351 123.305 4.39351 123.3C4.39351 123.295 4.39351 123.29 4.39351 123.285C4.39351 123.281 4.39351 123.276 4.39351 123.271C4.39351 123.266 4.39351 123.261 4.39351 123.257C4.39351 123.252 4.39351 123.247 4.39351 123.242C4.39351 123.237 4.39351 123.233 4.39351 123.228C4.39351 123.223 4.39351 123.218 4.39351 123.213C4.39351 123.208 4.39351 123.204 4.39351 123.199C4.39351 123.194 4.39351 123.189 4.39351 123.184C4.39351 123.179 4.39351 123.175 4.39351 123.17C4.39351 123.165 4.39351 123.16 4.39351 123.155C4.39351 123.15 4.39351 123.145 4.39351 123.141C4.39351 123.136 4.39351 123.131 4.39351 123.126C4.39351 123.121 4.39351 123.116 4.39351 123.111C4.39351 123.106 4.39351 123.102 4.39351 123.097C4.39351 123.092 4.39351 123.087 4.39351 123.082C4.39351 123.077 4.39351 123.072 4.39351 123.067C4.39351 123.062 4.39351 123.058 4.39351 123.053C4.39351 123.048 4.39351 123.043 4.39351 123.038C4.39351 123.033 4.39351 123.028 4.39351 123.023C4.39351 123.018 4.39351 123.013 4.39351 123.008C4.39351 123.003 4.39351 122.998 4.39351 122.994C4.39351 122.989 4.39351 122.984 4.39351 122.979C4.39351 122.974 4.39351 122.969 4.39351 122.964C4.39351 122.959 4.39351 122.954 4.39351 122.949C4.39351 122.944 4.39351 122.939 4.39351 122.934C4.39351 122.929 4.39351 122.924 4.39351 122.919C4.39351 122.914 4.39351 122.909 4.39351 122.904C4.39351 122.899 4.39351 122.894 4.39351 122.889C4.39351 122.884 4.39351 122.879 4.39351 122.874C4.39351 122.869 4.39351 122.864 4.39351 122.859C4.39351 122.854 4.39351 122.849 4.39351 122.844C4.39351 122.839 4.39351 122.834 4.39351 122.829C4.39351 122.824 4.39351 122.819 4.39351 122.814C4.39351 122.809 4.39351 122.804 4.39351 122.799C4.39351 122.794 4.39351 122.789 4.39351 122.784C4.39351 122.779 4.39351 122.774 4.39351 122.769C4.39351 122.764 4.39351 122.759 4.39351 122.754C4.39351 122.749 4.39351 122.744 4.39351 122.738C4.39351 122.733 4.39351 122.728 4.39351 122.723C4.39351 122.718 4.39351 122.713 4.39351 122.708C4.39351 122.703 4.39351 122.698 4.39351 122.693C4.39351 122.688 4.39351 122.683 4.39351 122.678C4.39351 122.672 4.39351 122.667 4.39351 122.662C4.39351 122.657 4.39351 122.652 4.39351 122.647C4.39351 122.642 4.39351 122.637 4.39351 122.632C4.39351 122.626 4.39351 122.621 4.39351 122.616C4.39351 122.611 4.39351 122.606 4.39351 122.601C4.39351 122.596 4.39351 122.591 4.39351 122.585C4.39351 122.58 4.39351 122.575 4.39351 122.57C4.39351 122.565 4.39351 122.56 4.39351 122.555C4.39351 122.549 4.39351 122.544 4.39351 122.539C4.39351 122.534 4.39351 122.529 4.39351 122.524C4.39351 122.518 4.39351 122.513 4.39351 122.508C4.39351 122.503 4.39351 122.498 4.39351 122.493C4.39351 122.487 4.39351 122.482 4.39351 122.477C4.39351 122.472 4.39351 122.467 4.39351 122.461C4.39351 122.456 4.39351 122.451 4.39351 122.446H1.62263C1.62263 122.451 1.62263 122.456 1.62263 122.461C1.62263 122.467 1.62263 122.472 1.62263 122.477C1.62263 122.482 1.62263 122.487 1.62263 122.493C1.62263 122.498 1.62263 122.503 1.62263 122.508C1.62263 122.513 1.62263 122.518 1.62263 122.524C1.62263 122.529 1.62263 122.534 1.62263 122.539C1.62263 122.544 1.62263 122.549 1.62263 122.555C1.62263 122.56 1.62263 122.565 1.62263 122.57C1.62263 122.575 1.62263 122.58 1.62263 122.585C1.62263 122.591 1.62263 122.596 1.62263 122.601C1.62263 122.606 1.62263 122.611 1.62263 122.616C1.62263 122.621 1.62263 122.626 1.62263 122.632C1.62263 122.637 1.62263 122.642 1.62263 122.647C1.62263 122.652 1.62263 122.657 1.62263 122.662C1.62263 122.667 1.62263 122.672 1.62263 122.678C1.62263 122.683 1.62263 122.688 1.62263 122.693C1.62263 122.698 1.62263 122.703 1.62263 122.708C1.62263 122.713 1.62263 122.718 1.62263 122.723C1.62263 122.728 1.62263 122.733 1.62263 122.738C1.62263 122.744 1.62263 122.749 1.62263 122.754C1.62263 122.759 1.62263 122.764 1.62263 122.769C1.62263 122.774 1.62263 122.779 1.62263 122.784C1.62263 122.789 1.62263 122.794 1.62263 122.799C1.62263 122.804 1.62263 122.809 1.62263 122.814C1.62263 122.819 1.62263 122.824 1.62263 122.829C1.62263 122.834 1.62263 122.839 1.62263 122.844C1.62263 122.849 1.62263 122.854 1.62263 122.859C1.62263 122.864 1.62263 122.869 1.62263 122.874C1.62263 122.879 1.62263 122.884 1.62263 122.889C1.62263 122.894 1.62263 122.899 1.62263 122.904C1.62263 122.909 1.62263 122.914 1.62263 122.919C1.62263 122.924 1.62263 122.929 1.62263 122.934C1.62263 122.939 1.62263 122.944 1.62263 122.949C1.62263 122.954 1.62263 122.959 1.62263 122.964C1.62263 122.969 1.62263 122.974 1.62263 122.979C1.62263 122.984 1.62263 122.989 1.62263 122.994C1.62263 122.998 1.62263 123.003 1.62263 123.008C1.62263 123.013 1.62263 123.018 1.62263 123.023C1.62263 123.028 1.62263 123.033 1.62263 123.038C1.62263 123.043 1.62263 123.048 1.62263 123.053C1.62263 123.058 1.62263 123.062 1.62263 123.067C1.62263 123.072 1.62263 123.077 1.62263 123.082C1.62263 123.087 1.62263 123.092 1.62263 123.097C1.62263 123.102 1.62263 123.106 1.62263 123.111C1.62263 123.116 1.62263 123.121 1.62263 123.126C1.62263 123.131 1.62263 123.136 1.62263 123.141C1.62263 123.145 1.62263 123.15 1.62263 123.155C1.62263 123.16 1.62263 123.165 1.62263 123.17C1.62263 123.175 1.62263 123.179 1.62263 123.184C1.62263 123.189 1.62263 123.194 1.62263 123.199C1.62263 123.204 1.62263 123.208 1.62263 123.213C1.62263 123.218 1.62263 123.223 1.62263 123.228C1.62263 123.233 1.62263 123.237 1.62263 123.242C1.62263 123.247 1.62263 123.252 1.62263 123.257C1.62263 123.261 1.62263 123.266 1.62263 123.271C1.62263 123.276 1.62263 123.281 1.62263 123.285C1.62263 123.29 1.62263 123.295 1.62263 123.3C1.62263 123.305 1.62263 123.309 1.62263 123.314C1.62263 123.319 1.62263 123.324 1.62263 123.328C1.62263 123.333 1.62263 123.338 1.62263 123.343C1.62263 123.348 1.62263 123.352 1.62263 123.357C1.62263 123.362 1.62263 123.367 1.62263 123.371C1.62263 123.376 1.62263 123.381 1.62263 123.386C1.62263 123.39 1.62263 123.395 1.62263 123.4C1.62263 123.404 1.62263 123.409 1.62263 123.414C1.62263 123.419 1.62263 123.423 1.62263 123.428C1.62263 123.433 1.62263 123.438 1.62263 123.442C1.62263 123.447 1.62263 123.452 1.62263 123.456C1.62263 123.461 1.62263 123.466 1.62263 123.47C1.62263 123.475 1.62263 123.48 1.62263 123.485C1.62263 123.489 1.62263 123.494 1.62263 123.499C1.62263 123.503 1.62263 123.508 1.62263 123.513C1.62263 123.517 1.62263 123.522 1.62263 123.527C1.62263 123.531 1.62263 123.536 1.62263 123.541C1.62263 123.545 1.62263 123.55 1.62263 123.555C1.62263 123.559 1.62263 123.564 1.62263 123.569C1.62263 123.573 1.62263 123.578 1.62263 123.582C1.62263 123.587 1.62263 123.592 1.62263 123.596C1.62263 123.601 1.62263 123.606 1.62263 123.61C1.62263 123.615 1.62263 123.62 1.62263 123.624C1.62263 123.629 1.62263 123.633 1.62263 123.638C1.62263 123.643 1.62263 123.647 1.62263 123.652C1.62263 123.656 1.62263 123.661 1.62263 123.666C1.62263 123.67 1.62263 123.675 1.62263 123.679C1.62263 123.684 1.62263 123.689 1.62263 123.693C1.62263 123.698 1.62263 123.702 1.62263 123.707C1.62263 123.711 1.62263 123.716 1.62263 123.721C1.62263 123.725 1.62263 123.73 1.62263 123.734C1.62263 123.739 1.62263 123.743 1.62263 123.748C1.62263 123.752 1.62263 123.757 1.62263 123.762C1.62263 123.766 1.62263 123.771 1.62263 123.775C1.62263 123.78 1.62263 123.784 1.62263 123.789C1.62263 123.793 1.62263 123.798 1.62263 123.802C1.62263 123.807 1.62263 123.811 1.62263 123.816C1.62263 123.82 1.62263 123.825 1.62263 123.829C1.62263 123.834 1.62263 123.838 1.62263 123.843C1.62263 123.847 1.62263 123.852 1.62263 123.856C1.62263 123.861 1.62263 123.865 1.62263 123.87C1.62263 123.874 1.62263 123.879 1.62263 123.883C1.62263 123.888 1.62263 123.892 1.62263 123.897C1.62263 123.901 1.62263 123.906 1.62263 123.91C1.62263 123.915 1.62263 123.919 1.62263 123.923C1.62263 123.928 1.62263 123.932 1.62263 123.937C1.62263 123.941 1.62263 123.946 1.62263 123.95C1.62263 123.955 1.62263 123.959 1.62263 123.963C1.62263 123.968 1.62263 123.972 1.62263 123.977C1.62263 123.981 1.62263 123.986 1.62263 123.99C1.62263 123.994 1.62263 123.999 1.62263 124.003C1.62263 124.008 1.62263 124.012 1.62263 124.016C1.62263 124.021 1.62263 124.025 1.62263 124.03C1.62263 124.034 1.62263 124.038 1.62263 124.043C1.62263 124.047 1.62263 124.052 1.62263 124.056C1.62263 124.06 1.62263 124.065 1.62263 124.069C1.62263 124.074 1.62263 124.078 1.62263 124.082C1.62263 124.087 1.62263 124.091 1.62263 124.095C1.62263 124.1 1.62263 124.104 1.62263 124.108C1.62263 124.113 1.62263 124.117 1.62263 124.121C1.62263 124.126 1.62263 124.13 1.62263 124.134C1.62263 124.139 1.62263 124.143 1.62263 124.147C1.62263 124.152 1.62263 124.156 1.62263 124.16C1.62263 124.165 1.62263 124.169 1.62263 124.173C1.62263 124.178 1.62263 124.182 1.62263 124.186C1.62263 124.191 1.62263 124.195 1.62263 124.199C1.62263 124.204 1.62263 124.208 1.62263 124.212C1.62263 124.216 1.62263 124.221 1.62263 124.225C1.62263 124.229 1.62263 124.234 1.62263 124.238C1.62263 124.242 1.62263 124.246 1.62263 124.251C1.62263 124.255 1.62263 124.259 1.62263 124.263C1.62263 124.268 1.62263 124.272 1.62263 124.276C1.62263 124.281 1.62263 124.285 1.62263 124.289C1.62263 124.293 1.62263 124.298 1.62263 124.302C1.62263 124.306 1.62263 124.31 1.62263 124.314C1.62263 124.319 1.62263 124.323 1.62263 124.327C1.62263 124.331 1.62263 124.336 1.62263 124.34C1.62263 124.344 1.62263 124.348 1.62263 124.352C1.62263 124.357 1.62263 124.361 1.62263 124.365C1.62263 124.369 1.62263 124.374 1.62263 124.378C1.62263 124.382 1.62263 124.386 1.62263 124.39C1.62263 124.394 1.62263 124.399 1.62263 124.403C1.62263 124.407 1.62263 124.411 1.62263 124.415C1.62263 124.42 1.62263 124.424 1.62263 124.428C1.62263 124.432 1.62263 124.436 1.62263 124.44C1.62263 124.445 1.62263 124.449 1.62263 124.453C1.62263 124.457 1.62263 124.461 1.62263 124.465C1.62263 124.469 1.62263 124.474 1.62263 124.478C1.62263 124.482 1.62263 124.486 1.62263 124.49C1.62263 124.494 1.62263 124.498 1.62263 124.503C1.62263 124.507 1.62263 124.511 1.62263 124.515C1.62263 124.519 1.62263 124.523 1.62263 124.527C1.62263 124.531 1.62263 124.535 1.62263 124.54C1.62263 124.544 1.62263 124.548 1.62263 124.552C1.62263 124.556 1.62263 124.56 1.62263 124.564C1.62263 124.568 1.62263 124.572 1.62263 124.576C1.62263 124.58 1.62263 124.585 1.62263 124.589C1.62263 124.593 1.62263 124.597 1.62263 124.601C1.62263 124.605 1.62263 124.609 1.62263 124.613C1.62263 124.617 1.62263 124.621 1.62263 124.625C1.62263 124.629 1.62263 124.633 1.62263 124.637C1.62263 124.641 1.62263 124.645 1.62263 124.649C1.62263 124.653 1.62263 124.657 1.62263 124.662C1.62263 124.666 1.62263 124.67 1.62263 124.674C1.62263 124.678 1.62263 124.682 1.62263 124.686C1.62263 124.69 1.62263 124.694 1.62263 124.698C1.62263 124.702 1.62263 124.706 1.62263 124.71C1.62263 124.714 1.62263 124.718 1.62263 124.722C1.62263 124.726 1.62263 124.73 1.62263 124.734C1.62263 124.738 1.62263 124.742 1.62263 124.746C1.62263 124.75 1.62263 124.754 1.62263 124.757C1.62263 124.761 1.62263 124.765 1.62263 124.769C1.62263 124.773 1.62263 124.777 1.62263 124.781C1.62263 124.785 1.62263 124.789 1.62263 124.793C1.62263 124.797 1.62263 124.801 1.62263 124.805C1.62263 124.809 1.62263 124.813 1.62263 124.817C1.62263 124.821 1.62263 124.825 1.62263 124.829C1.62263 124.832 1.62263 124.836 1.62263 124.84C1.62263 124.844 1.62263 124.848 1.62263 124.852C1.62263 124.856 1.62263 124.86 1.62263 124.864C1.62263 124.868 1.62263 124.872 1.62263 124.876C1.62263 124.879 1.62263 124.883 1.62263 124.887C1.62263 124.891 1.62263 124.895 1.62263 124.899C1.62263 124.903 1.62263 124.907 1.62263 124.91C1.62263 124.914 1.62263 124.918 1.62263 124.922C1.62263 124.926 1.62263 124.93 1.62263 124.934C1.62263 124.938 1.62263 124.941 1.62263 124.945C1.62263 124.949 1.62263 124.953 1.62263 124.957C1.62263 124.961 1.62263 124.964 1.62263 124.968C1.62263 124.972 1.62263 124.976 1.62263 124.98C1.62263 124.984 1.62263 124.987 1.62263 124.991C1.62263 124.995 1.62263 124.999 1.62263 125.003C1.62263 125.007 1.62263 125.01 1.62263 125.014C1.62263 125.018 1.62263 125.022 1.62263 125.026C1.62263 125.029 1.62263 125.033 1.62263 125.037C1.62263 125.041 1.62263 125.045 1.62263 125.048C1.62263 125.052 1.62263 125.056 1.62263 125.06C1.62263 125.064 1.62263 125.067 1.62263 125.071C1.62263 125.075 1.62263 125.079 1.62263 125.082C1.62263 125.086 1.62263 125.09 1.62263 125.094C1.62263 125.097 1.62263 125.101 1.62263 125.105C1.62263 125.109 1.62263 125.112 1.62263 125.116C1.62263 125.12 1.62263 125.124 1.62263 125.127C1.62263 125.131 1.62263 125.135 1.62263 125.139C1.62263 125.142 1.62263 125.146 1.62263 125.15C1.62263 125.153 1.62263 125.157 1.62263 125.161C1.62263 125.165 1.62263 125.168 1.62263 125.172C1.62263 125.176 1.62263 125.179 1.62263 125.183C1.62263 125.187 1.62263 125.191 1.62263 125.194C1.62263 125.198 1.62263 125.202 1.62263 125.205C1.62263 125.209 1.62263 125.213 1.62263 125.216C1.62263 125.22 1.62263 125.224 1.62263 125.227C1.62263 125.231 1.62263 125.235 1.62263 125.238C1.62263 125.242 1.62263 125.246 1.62263 125.249C1.62263 125.253 1.62263 125.257 1.62263 125.26C1.62263 125.264 1.62263 125.268 1.62263 125.271C1.62263 125.275 1.62263 125.278 1.62263 125.282C1.62263 125.286 1.62263 125.289 1.62263 125.293C1.62263 125.297 1.62263 125.3 1.62263 125.304C1.62263 125.307 1.62263 125.311 1.62263 125.315C1.62263 125.318 1.62263 125.322 1.62263 125.325C1.62263 125.329 1.62263 125.333 1.62263 125.336C1.62263 125.34 1.62263 125.343 1.62263 125.347C1.62263 125.351 1.62263 125.354 1.62263 125.358C1.62263 125.361 1.62263 125.365 1.62263 125.369C1.62263 125.372 1.62263 125.376 1.62263 125.379C1.62263 125.383 1.62263 125.386 1.62263 125.39C1.62263 125.394 1.62263 125.397 1.62263 125.401C1.62263 125.404 1.62263 125.408 1.62263 125.411C1.62263 125.415 1.62263 125.418 1.62263 125.422C1.62263 125.425 1.62263 125.429 1.62263 125.432C1.62263 125.436 1.62263 125.44 1.62263 125.443C1.62263 125.447 1.62263 125.45 1.62263 125.454C1.62263 125.457 1.62263 125.461 1.62263 125.464C1.62263 125.468 1.62263 125.471 1.62263 125.475C1.62263 125.478 1.62263 125.482 1.62263 125.485C1.62263 125.489 1.62263 125.492 1.62263 125.496C1.62263 125.499 1.62263 125.503 1.62263 125.506C1.62263 125.51 1.62263 125.513 1.62263 125.516C1.62263 125.52 1.62263 125.523 1.62263 125.527C1.62263 125.53 1.62263 125.534 1.62263 125.537C1.62263 125.541 1.62263 125.544 1.62263 125.548C1.62263 125.551 1.62263 125.555 1.62263 125.558C1.62263 125.561 1.62263 125.565 1.62263 125.568C1.62263 125.572 1.62263 125.575 1.62263 125.579C1.62263 125.582 1.62263 125.585 1.62263 125.589C1.62263 125.592 1.62263 125.596 1.62263 125.599C1.62263 125.603 1.62263 125.606 1.62263 125.609C1.62263 125.613 1.62263 125.616 1.62263 125.62C1.62263 125.623 1.62263 125.626 1.62263 125.63C1.62263 125.633 1.62263 125.636 1.62263 125.64C1.62263 125.643 1.62263 125.647 1.62263 125.65C1.62263 125.653 1.62263 125.657 1.62263 125.66C1.62263 125.663 1.62263 125.667 1.62263 125.67C1.62263 125.674 1.62263 125.677 1.62263 125.68C1.62263 125.684 1.62263 125.687 1.62263 125.69C1.62263 125.694 1.62263 125.697 1.62263 125.7C1.62263 125.704 1.62263 125.707 1.62263 125.71C1.62263 125.714 1.62263 125.717 1.62263 125.72C1.62263 125.724 1.62263 125.727 1.62263 125.73C1.62263 125.734 1.62263 125.737 1.62263 125.74C1.62263 125.744 1.62263 125.747 1.62263 125.75C1.62263 125.753 1.62263 125.757 1.62263 125.76C1.62263 125.763 1.62263 125.767 1.62263 125.77C1.62263 125.773 1.62263 125.777 1.62263 125.78C1.62263 125.783 1.62263 125.786 1.62263 125.79C1.62263 125.793 1.62263 125.796 1.62263 125.799C1.62263 125.803 1.62263 125.806 1.62263 125.809C1.62263 125.812 1.62263 125.816 1.62263 125.819C1.62263 125.822 1.62263 125.825 1.62263 125.829C1.62263 125.832 1.62263 125.835 1.62263 125.838C1.62263 125.842 1.62263 125.845 1.62263 125.848C1.62263 125.851 1.62263 125.855 1.62263 125.858C1.62263 125.861 1.62263 125.864 1.62263 125.867C1.62263 125.871 1.62263 125.874 1.62263 125.877C1.62263 125.88 1.62263 125.883 1.62263 125.887C1.62263 125.89 1.62263 125.893 1.62263 125.896C1.62263 125.899 1.62263 125.903 1.62263 125.906C1.62263 125.909 1.62263 125.912 1.62263 125.915C1.62263 125.919 1.62263 125.922 1.62263 125.925C1.62263 125.928 1.62263 125.931 1.62263 125.934C1.62263 125.938 1.62263 125.941 1.62263 125.944C1.62263 125.947 1.62263 125.95 1.62263 125.953C1.62263 125.956 1.62263 125.96 1.62263 125.963C1.62263 125.966 1.62263 125.969 1.62263 125.972C1.62263 125.975 1.62263 125.978 1.62263 125.982C1.62263 125.985 1.62263 125.988 1.62263 125.991C1.62263 125.994 1.62263 125.997 1.62263 126C1.62263 126.003 1.62263 126.007 1.62263 126.01C1.62263 126.013 1.62263 126.016 1.62263 126.019C1.62263 126.022 1.62263 126.025 1.62263 126.028C1.62263 126.031 1.62263 126.034 1.62263 126.037C1.62263 126.041 1.62263 126.044 1.62263 126.047C1.62263 126.05 1.62263 126.053 1.62263 126.056C1.62263 126.059 1.62263 126.062 1.62263 126.065C1.62263 126.068 1.62263 126.071 1.62263 126.074C1.62263 126.077 1.62263 126.08 1.62263 126.083C1.62263 126.086 1.62263 126.089 1.62263 126.093C1.62263 126.096 1.62263 126.099 1.62263 126.102C1.62263 126.105 1.62263 126.108 1.62263 126.111C1.62263 126.114 1.62263 126.117 1.62263 126.12C1.62263 126.123 1.62263 126.126 1.62263 126.129C1.62263 126.132 1.62263 126.135 1.62263 126.138C1.62263 126.141 1.62263 126.144 1.62263 126.147C1.62263 126.15 1.62263 126.153 1.62263 126.156C1.62263 126.159 1.62263 126.162 1.62263 126.165C1.62263 126.168 1.62263 126.171 1.62263 126.174C1.62263 126.177 1.62263 126.18 1.62263 126.183C1.62263 126.186 1.62263 126.188 1.62263 126.191C1.62263 126.194 1.62263 126.197 1.62263 126.2C1.62263 126.203 1.62263 126.206 1.62263 126.209C1.62263 126.212 1.62263 126.215 1.62263 126.218C1.62263 126.221 1.62263 126.224 1.62263 126.227C1.62263 126.23 1.62263 126.233 1.62263 126.236C1.62263 126.238 1.62263 126.241 1.62263 126.244C1.62263 126.247 1.62263 126.25 1.62263 126.253C1.62263 126.256 1.62263 126.259 1.62263 126.262C1.62263 126.265 1.62263 126.268 1.62263 126.27C1.62263 126.273 1.62263 126.276 1.62263 126.279C1.62263 126.282 1.62263 126.285 1.62263 126.288C1.62263 126.291 1.62263 126.293 1.62263 126.296C1.62263 126.299 1.62263 126.302 1.62263 126.305C1.62263 126.308 1.62263 126.311 1.62263 126.314C1.62263 126.316 1.62263 126.319 1.62263 126.322C1.62263 126.325 1.62263 126.328 1.62263 126.331C1.62263 126.333 1.62263 126.336 1.62263 126.339C1.62263 126.342 1.62263 126.345 1.62263 126.348C1.62263 126.35 1.62263 126.353 1.62263 126.356C1.62263 126.359 1.62263 126.362 1.62263 126.364C1.62263 126.367 1.62263 126.37 1.62263 126.373C1.62263 126.376 1.62263 126.379 1.62263 126.381C1.62263 126.384 1.62263 126.387 1.62263 126.39C1.62263 126.392 1.62263 126.395 1.62263 126.398C1.62263 126.401 1.62263 126.404 1.62263 126.406C1.62263 126.409 1.62263 126.412 1.62263 126.415C1.62263 126.417 1.62263 126.42 1.62263 126.423C1.62263 126.426 1.62263 126.428 1.62263 126.431C1.62263 126.434 1.62263 126.437 1.62263 126.439C1.62263 126.442 1.62263 126.445 1.62263 126.448C1.62263 126.45 1.62263 126.453 1.62263 126.456C1.62263 126.459 1.62263 126.461 1.62263 126.464C1.62263 126.467 1.62263 126.47 1.62263 126.472C1.62263 126.475 1.62263 126.478 1.62263 126.48C1.62263 126.483 1.62263 126.486 1.62263 126.488C1.62263 126.491 1.62263 126.494 1.62263 126.497C1.62263 126.499 1.62263 126.502 1.62263 126.505C1.62263 126.507 1.62263 126.51 1.62263 126.513C1.62263 126.515 1.62263 126.518 1.62263 126.521C1.62263 126.523 1.62263 126.526 1.62263 126.529C1.62263 126.531 1.62263 126.534 1.62263 126.537C1.62263 126.539 1.62263 126.542 1.62263 126.545C1.62263 126.547 1.62263 126.55 1.62263 126.553C1.62263 126.555 1.62263 126.558 1.62263 126.561C1.62263 126.563 1.62263 126.566 1.62263 126.568C1.62263 126.571 1.62263 126.574 1.62263 126.576C1.62263 126.579 1.62263 126.581 1.62263 126.584C1.62263 126.587 1.62263 126.589 1.62263 126.592C1.62263 126.595 1.62263 126.597 1.62263 126.6C1.62263 126.602 1.62263 126.605 1.62263 126.608C1.62263 126.61 1.62263 126.613 1.62263 126.615C1.62263 126.618 1.62263 126.62 1.62263 126.623C1.62263 126.626 1.62263 126.628 1.62263 126.631C1.62263 126.633 1.62263 126.636 1.62263 126.638C1.62263 126.641 1.62263 126.644 1.62263 126.646C1.62263 126.649 1.62263 126.651 1.62263 126.654C1.62263 126.656 1.62263 126.659 1.62263 126.661C1.62263 126.664 1.62263 126.666 1.62263 126.669C1.62263 126.672 1.62263 126.674 1.62263 126.677C1.62263 126.679 1.62263 126.682 1.62263 126.684C1.62263 126.687 1.62263 126.689 1.62263 126.692C1.62263 126.694 1.62263 126.697 1.62263 126.699C1.62263 126.702 1.62263 126.704 1.62263 126.707C1.62263 126.709 1.62263 126.712 1.62263 126.714C1.62263 126.717 1.62263 126.719 1.62263 126.722C1.62263 126.724 1.62263 126.727 1.62263 126.729C1.62263 126.732 1.62263 126.734 1.62263 126.736C1.62263 126.739 1.62263 126.741 1.62263 126.744C1.62263 126.746 1.62263 126.749 1.62263 126.751C1.62263 126.754 1.62263 126.756 1.62263 126.759C1.62263 126.761 1.62263 126.763 1.62263 126.766C1.62263 126.768 1.62263 126.771 1.62263 126.773C1.62263 126.776 1.62263 126.778 1.62263 126.78C1.62263 126.783 1.62263 126.785 1.62263 126.788C1.62263 126.79 1.62263 126.792 1.62263 126.795C1.62263 126.797 1.62263 126.8 1.62263 126.802C1.62263 126.805 1.62263 126.807 1.62263 126.809C1.62263 126.812 1.62263 126.814 1.62263 126.816C1.62263 126.819 1.62263 126.821 1.62263 126.824C1.62263 126.826 1.62263 126.828 1.62263 126.831C1.62263 126.833 1.62263 126.835 1.62263 126.838C1.62263 126.84 1.62263 126.843 1.62263 126.845C1.62263 126.847 1.62263 126.85 1.62263 126.852C1.62263 126.854 1.62263 126.857 1.62263 126.859C1.62263 126.861 1.62263 126.864 1.62263 126.866C1.62263 126.868 1.62263 126.871 1.62263 126.873C1.62263 126.875 1.62263 126.878 1.62263 126.88C1.62263 126.882 1.62263 126.885 1.62263 126.887C1.62263 126.889 1.62263 126.892 1.62263 126.894C1.62263 126.896 1.62263 126.898 1.62263 126.901C1.62263 126.903 1.62263 126.905 1.62263 126.908C1.62263 126.91 1.62263 126.912 1.62263 126.914C1.62263 126.917 1.62263 126.919 1.62263 126.921C1.62263 126.924 1.62263 126.926 1.62263 126.928C1.62263 126.93 1.62263 126.933 1.62263 126.935C1.62263 126.937 1.62263 126.939 1.62263 126.942C1.62263 126.944 1.62263 126.946 1.62263 126.948C1.62263 126.951 1.62263 126.953 1.62263 126.955C1.62263 126.957 1.62263 126.96 1.62263 126.962C1.62263 126.964 1.62263 126.966 1.62263 126.969C1.62263 126.971 1.62263 126.973 1.62263 126.975C1.62263 126.977 1.62263 126.98 1.62263 126.982C1.62263 126.984 1.62263 126.986 1.62263 126.988C1.62263 126.991 1.62263 126.993 1.62263 126.995C1.62263 126.997 1.62263 126.999 1.62263 127.002C1.62263 127.004 1.62263 127.006 1.62263 127.008C1.62263 127.01 1.62263 127.013 1.62263 127.015C1.62263 127.017 1.62263 127.019 1.62263 127.021C1.62263 127.023 1.62263 127.026 1.62263 127.028C1.62263 127.03 1.62263 127.032 1.62263 127.034C1.62263 127.036 1.62263 127.038 1.62263 127.041C1.62263 127.043 1.62263 127.045 1.62263 127.047C1.62263 127.049 1.62263 127.051 1.62263 127.053C1.62263 127.056 1.62263 127.058 1.62263 127.06C1.62263 127.062 1.62263 127.064 1.62263 127.066C1.62263 127.068 1.62263 127.07 1.62263 127.072C1.62263 127.075 1.62263 127.077 1.62263 127.079C1.62263 127.081 1.62263 127.083 1.62263 127.085C1.62263 127.087 1.62263 127.089 1.62263 127.091C1.62263 127.093 1.62263 127.095 1.62263 127.098C1.62263 127.1 1.62263 127.102 1.62263 127.104C1.62263 127.106 1.62263 127.108 1.62263 127.11C1.62263 127.112 1.62263 127.114 1.62263 127.116C1.62263 127.118 1.62263 127.12 1.62263 127.122C1.62263 127.124 1.62263 127.126 1.62263 127.128C1.62263 127.13 1.62263 127.132 1.62263 127.135C1.62263 127.137 1.62263 127.139 1.62263 127.141C1.62263 127.143 1.62263 127.145 1.62263 127.147C1.62263 127.149 1.62263 127.151 1.62263 127.153C1.62263 127.155 1.62263 127.157 1.62263 127.159C1.62263 127.161 1.62263 127.163 1.62263 127.165C1.62263 127.167 1.62263 127.169 1.62263 127.171C1.62263 127.173 1.62263 127.175 1.62263 127.177C1.62263 127.179 1.62263 127.181 1.62263 127.183C1.62263 127.185 1.62263 127.187 1.62263 127.188C1.62263 127.19 1.62263 127.192 1.62263 127.194C1.62263 127.196 1.62263 127.198 1.62263 127.2C1.62263 127.202 1.62263 127.204 1.62263 127.206C1.62263 127.208 1.62263 127.21 1.62263 127.212C1.62263 127.214 1.62263 127.216 1.62263 127.218C1.62263 127.22 1.62263 127.222 1.62263 127.223C1.62263 127.225 1.62263 127.227 1.62263 127.229C1.62263 127.231 1.62263 127.233 1.62263 127.235C1.62263 127.237 1.62263 127.239 1.62263 127.241C1.62263 127.243 1.62263 127.244 1.62263 127.246C1.62263 127.248 1.62263 127.25 1.62263 127.252C1.62263 127.254 1.62263 127.256 1.62263 127.258C1.62263 127.26 1.62263 127.261 1.62263 127.263C1.62263 127.265 1.62263 127.267 1.62263 127.269C1.62263 127.271 1.62263 127.273 1.62263 127.275C1.62263 127.276 1.62263 127.278 1.62263 127.28C1.62263 127.282 1.62263 127.284 1.62263 127.286C1.62263 127.287 1.62263 127.289 1.62263 127.291C1.62263 127.293 1.62263 127.295 1.62263 127.297C1.62263 127.298 1.62263 127.3 1.62263 127.302C1.62263 127.304 1.62263 127.306 1.62263 127.308C1.62263 127.309 1.62263 127.311 1.62263 127.313C1.62263 127.315 1.62263 127.317 1.62263 127.318C1.62263 127.32 1.62263 127.322 1.62263 127.324C1.62263 127.326 1.62263 127.327 1.62263 127.329C1.62263 127.331 1.62263 127.333 1.62263 127.334C1.62263 127.336 1.62263 127.338 1.62263 127.34C1.62263 127.342 1.62263 127.343 1.62263 127.345C1.62263 127.347 1.62263 127.349 1.62263 127.35C1.62263 127.352 1.62263 127.354 1.62263 127.356C1.62263 127.357 1.62263 127.359 1.62263 127.361C1.62263 127.363 1.62263 127.364 1.62263 127.366C1.62263 127.368 1.62263 127.369 1.62263 127.371C1.62263 127.373 1.62263 127.375 1.62263 127.376C1.62263 127.378 1.62263 127.38 1.62263 127.381C1.62263 127.383 1.62263 127.385 1.62263 127.387C1.62263 127.388 1.62263 127.39 1.62263 127.392C1.62263 127.393 1.62263 127.395 1.62263 127.397C1.62263 127.398 1.62263 127.4 1.62263 127.402C1.62263 127.404 1.62263 127.405 1.62263 127.407C1.62263 127.409 1.62263 127.41 1.62263 127.412C1.62263 127.414 1.62263 127.415 1.62263 127.417C1.62263 127.419 1.62263 127.42 1.62263 127.422C1.62263 127.423 1.62263 127.425 1.62263 127.427C1.62263 127.428 1.62263 127.43 1.62263 127.432C1.62263 127.433 1.62263 127.435 1.62263 127.437C1.62263 127.438 1.62263 127.44 1.62263 127.441C1.62263 127.443 1.62263 127.445 1.62263 127.446C1.62263 127.448 1.62263 127.45 1.62263 127.451C1.62263 127.453 1.62263 127.454 1.62263 127.456C1.62263 127.458 1.62263 127.459 1.62263 127.461C1.62263 127.462 1.62263 127.464 1.62263 127.465C1.62263 127.467 1.62263 127.469 1.62263 127.47C1.62263 127.472 1.62263 127.473 1.62263 127.475C1.62263 127.477 1.62263 127.478 1.62263 127.48C1.62263 127.481 1.62263 127.483 1.62263 127.484C1.62263 127.486 1.62263 127.487 1.62263 127.489C1.62263 127.491 1.62263 127.492 1.62263 127.494C1.62263 127.495 1.62263 127.497 1.62263 127.498C1.62263 127.5 1.62263 127.501 1.62263 127.503C1.62263 127.504 1.62263 127.506 1.62263 127.507C1.62263 127.509 1.62263 127.51 1.62263 127.512C1.62263 127.513 1.62263 127.515 1.62263 127.516C1.62263 127.518 1.62263 127.519 1.62263 127.521C1.62263 127.522 1.62263 127.524 1.62263 127.525C1.62263 127.527 1.62263 127.528 1.62263 127.53C1.62263 127.531 1.62263 127.533 1.62263 127.534C1.62263 127.536 1.62263 127.537 1.62263 127.539C1.62263 127.54 1.62263 127.542 1.62263 127.543C1.62263 127.545 1.62263 127.546 1.62263 127.548C1.62263 127.549 1.62263 127.55 1.62263 127.552H4.39351ZM4.39159 122.519C4.54014 119.696 4.68846 116.21 4.83663 112.061L2.06752 111.962C1.91968 116.102 1.772 119.572 1.62455 122.373L4.39159 122.519ZM4.83663 112.061C4.98535 107.897 5.05951 103.144 5.05951 97.8038H2.28863C2.28863 103.12 2.21479 107.839 2.06752 111.962L4.83663 112.061ZM5.05897 97.8423C5.20737 92.5002 5.28151 86.8633 5.28151 80.9318H2.51063C2.51063 86.8404 2.43677 92.4515 2.28917 97.7654L5.05897 97.8423ZM5.28151 80.9318C5.28151 75.4434 5.20734 69.7338 5.05908 63.8032L2.28907 63.8725C2.4368 69.7819 2.51063 75.4683 2.51063 80.9318H5.28151ZM5.05951 63.8378C5.05951 57.8948 4.91093 52.0251 4.61369 46.2289L1.84645 46.3708C2.14121 52.1186 2.28863 57.9409 2.28863 63.8378H5.05951ZM4.61369 46.2289C4.31639 40.4316 3.87029 34.8541 3.27503 29.4968L0.521106 29.8028C1.10985 35.1015 1.55175 40.6241 1.84645 46.3708L4.61369 46.2289ZM3.27872 29.5348C2.8322 24.1766 2.23624 19.183 1.48983 14.5552L-1.24569 14.9965C-0.5121 19.5447 0.0759362 24.4671 0.517418 29.7649L3.27872 29.5348ZM1.49681 14.9477C1.65397 13.6904 1.72951 12.2242 1.72951 10.5578H-1.04137C-1.04137 12.1475 -1.11383 13.4933 -1.25267 14.604L1.49681 14.9477ZM1.72382 10.6833C1.87148 9.05901 2.01908 7.50917 2.16663 6.0337L-0.590492 5.75798C-0.738944 7.2425 -0.887337 8.80066 -1.03568 10.4324L1.72382 10.6833ZM2.15116 6.14367C2.42912 4.61491 2.8326 3.44535 3.32297 2.5872L0.917172 1.21247C0.223538 2.42634 -0.260978 3.92078 -0.57502 5.648L2.15116 6.14367ZM3.29492 2.63412C3.76394 1.88368 4.41317 1.50927 5.45007 1.50927V-1.2616C3.52697 -1.2616 1.9562 -0.452007 0.945221 1.16556L3.29492 2.63412ZM5.45007 1.50927C6.39472 1.50927 7.36791 1.74372 8.38248 2.25101L9.62166 -0.227337C8.26824 -0.904049 6.87343 -1.2616 5.45007 -1.2616V1.50927ZM7.63771 1.2526C8.96153 8.75425 9.91792 16.4047 10.5066 24.2041L13.2696 23.9956C12.6742 16.107 11.7066 8.36542 10.3664 0.771067L7.63771 1.2526ZM10.509 24.2324C11.2449 31.8854 11.6126 39.4632 11.6126 46.9658H14.3835C14.3835 39.3725 14.0113 31.7062 13.2671 23.9672L10.509 24.2324ZM11.6126 46.9658C11.6126 50.7783 11.466 54.5908 11.1727 58.4036L13.9354 58.6161C14.2341 54.7329 14.3835 50.8494 14.3835 46.9658H11.6126ZM11.1697 58.4545C11.0225 62.1353 10.8017 65.7414 10.5074 69.2728L13.2687 69.5029C13.5664 65.9303 13.7896 62.2844 13.9384 58.5652L11.1697 58.4545ZM10.5026 69.3878C10.5026 71.3946 10.3593 73.5567 10.0693 75.876L12.8188 76.2197C13.1209 73.803 13.2735 71.5251 13.2735 69.3878H10.5026ZM10.0708 75.8647C9.76625 78.1488 9.61463 80.5041 9.61463 82.9298H12.3855C12.3855 80.6196 12.5299 78.3869 12.8174 76.2309L10.0708 75.8647ZM9.61463 82.9298C9.61463 84.6417 9.77024 86.4201 10.0775 88.2636L12.8107 87.8081C12.5259 86.0995 12.3855 84.474 12.3855 82.9298H9.61463ZM10.081 88.2837C10.399 90.0326 10.9534 91.7696 11.7368 93.4931L14.2593 92.3465C13.5628 90.8141 13.0812 89.2951 12.8072 87.788L10.081 88.2837ZM13.4513 94.2291C17.5274 92.8181 20.8603 90.5269 23.4039 87.3473L21.2402 85.6164C19.0479 88.3568 16.1648 90.3576 12.5449 91.6106L13.4513 94.2291ZM23.3777 87.3791C25.8105 84.517 28.7561 81.8555 32.2249 79.3984L30.6233 77.1373C26.9881 79.7122 23.8657 82.5266 21.2665 85.5846L23.3777 87.3791ZM31.8622 79.5822C32.9476 79.2204 33.9844 78.6036 34.975 77.7782L33.2011 75.6495C32.4157 76.304 31.6766 76.7233 30.986 76.9535L31.8622 79.5822ZM34.8933 77.8412C35.9293 77.1012 36.9653 76.3612 38.0013 75.6212L36.3908 73.3665C35.3548 74.1065 34.3188 74.8465 33.2828 75.5865L34.8933 77.8412ZM38.0013 75.6212C39.0275 74.8883 39.9771 74.2309 40.8506 73.6486L39.3136 71.3431C38.4111 71.9447 37.4367 72.6194 36.3908 73.3665L38.0013 75.6212ZM40.7694 73.6987C41.6283 73.208 42.4297 72.9933 43.1901 72.9933V70.2224C41.8784 70.2224 40.6079 70.5997 39.3947 71.2929L40.7694 73.6987ZM43.1901 72.9933C44.1521 72.9933 44.6172 73.1917 44.8221 73.3557C44.968 73.4724 45.1346 73.6896 45.1346 74.2718H47.9055C47.9055 73.0781 47.5171 71.9633 46.553 71.192C45.648 70.468 44.4481 70.2224 43.1901 70.2224V72.9933ZM45.1346 74.2718C45.1346 75.3495 44.6405 76.7728 43.383 78.5892L45.6612 80.1665C47.0676 78.1349 47.9055 76.1542 47.9055 74.2718H45.1346ZM43.4137 78.5466C42.2183 80.1405 41.0152 80.908 39.8342 81.1228L40.3299 83.8489C42.4049 83.4717 44.1618 82.1672 45.6304 80.2091L43.4137 78.5466ZM39.8342 81.1228C37.9732 81.4611 36.3341 82.2316 34.9518 83.4412L36.7764 85.5265C37.762 84.6641 38.935 84.1026 40.3299 83.8489L39.8342 81.1228ZM35.0328 83.3755C33.7901 84.3075 32.5569 85.3877 31.3324 86.6122L33.2917 88.5715C34.4353 87.4279 35.5701 86.4361 36.6953 85.5922L35.0328 83.3755ZM31.3998 86.5492C30.2372 87.5664 28.9999 88.5855 27.6875 89.6062L29.3886 91.7934C30.7402 90.7422 32.0189 89.6893 33.2244 88.6345L31.3998 86.5492ZM27.6258 89.6572C26.611 90.5451 25.396 91.1904 23.9555 91.5832L24.6846 94.2565C26.5001 93.7613 28.0971 92.9266 29.4504 91.7425L27.6258 89.6572ZM23.0956 92.2716C21.9145 94.5027 20.2516 95.9554 18.087 96.7194L19.0092 99.3323C21.8765 98.3203 24.0617 96.369 25.5445 93.5681L23.0956 92.2716ZM18.0616 96.7286C15.4999 97.6893 13.3155 99.1409 11.5328 101.086L13.5754 102.958C15.0486 101.351 16.8603 100.138 19.0345 99.3231L18.0616 96.7286ZM11.216 101.663C9.56296 107.824 8.72663 113.57 8.72663 118.894H11.4975C11.4975 113.858 12.2892 108.356 13.8922 102.381L11.216 101.663ZM8.72663 118.894C8.72663 124.212 9.56128 130.39 11.2051 137.414L13.9031 136.782C12.2909 129.894 11.4975 123.936 11.4975 118.894H8.72663ZM13.5036 138.107C15.9887 135.768 18.5457 133.576 21.1746 131.531L19.4735 129.344C16.7744 131.444 14.1514 133.692 11.6045 136.089L13.5036 138.107ZM21.1826 131.525C24.0038 129.298 26.7513 127.07 29.425 124.842L27.6511 122.714C24.9968 124.925 22.2683 127.138 19.4656 129.35L21.1826 131.525ZM29.3966 124.865C32.2481 122.614 34.8789 120.284 37.2877 117.875L35.3284 115.916C33.0012 118.243 30.4521 120.502 27.6796 122.69L29.3966 124.865ZM37.2576 117.905C39.8662 115.45 42.0925 112.686 43.9341 109.617L41.5581 108.191C39.8476 111.042 37.7819 113.606 35.3585 115.887L37.2576 117.905ZM31.0826 47.1451C30.045 46.4533 28.8584 45.9508 27.5421 45.6218L26.8701 48.3099C27.9218 48.5728 28.8072 48.9583 29.5456 49.4506L31.0826 47.1451ZM27.7518 45.6924C26.7375 45.2577 25.8004 44.825 24.9397 44.3947L23.7005 46.873C24.6157 47.3306 25.6026 47.786 26.6603 48.2393L27.7518 45.6924ZM24.9397 44.3947C24.1919 44.0208 23.4982 43.5186 22.8577 42.8782L20.8984 44.8375C21.738 45.6771 22.6722 46.3589 23.7005 46.873L24.9397 44.3947ZM22.9424 42.9709C22.3885 42.3063 21.9467 41.3548 21.6826 40.0341L18.9655 40.5776C19.2934 42.2169 19.8876 43.6334 20.8137 44.7448L22.9424 42.9709ZM21.3667 41.2182C22.3812 40.0587 23.4701 38.8971 24.6337 37.7335L22.6744 35.7742C21.4701 36.9786 20.3389 38.185 19.2814 39.3935L21.3667 41.2182ZM24.6337 37.7335C25.6997 36.6675 26.9727 36.1413 28.5381 36.1413V33.3704C26.2554 33.3704 24.2724 34.1762 22.6744 35.7742L24.6337 37.7335ZM27.3156 35.4078L32.6436 45.3978L35.0885 44.0939L29.7605 34.1039L27.3156 35.4078ZM32.4913 44.574C32.3747 45.5072 32.0699 45.8507 31.8213 45.9998L33.2469 48.3758C34.4782 47.637 35.0615 46.3525 35.2408 44.9177L32.4913 44.574ZM31.9145 45.9487C31.3225 46.2447 30.5825 46.6147 29.6945 47.0587L30.9337 49.537C31.8217 49.093 32.5617 48.723 33.1537 48.427L31.9145 45.9487Z" fill="#F0F0F0" mask="url(#path-1-outside-1_1172_1729)"/>
</svg>
