<svg width="144" height="138" viewBox="0 0 144 138" fill="none" xmlns="http://www.w3.org/2000/svg">
<mask id="path-1-outside-1_1172_1740" maskUnits="userSpaceOnUse" x="-2.27552" y="-1.93423" width="148.273" height="142.771" fill="black">
<rect fill="white" x="-2.27552" y="-1.93423" width="148.273" height="142.771"/>
<path d="M79.601 34.396C78.8582 34.7286 77.7022 34.2837 76.1331 33.0614C74.564 31.8391 74.3711 30.5042 75.5542 29.0567C78.2639 27.3403 81.1555 26.3124 84.2291 25.973C87.2023 25.7376 90.2563 25.7474 93.391 26.0024C96.5257 26.2574 99.6605 26.5123 102.795 26.7673C105.93 27.0222 109.064 26.7298 112.197 25.8899C114.689 26.3733 117.261 26.5544 119.913 26.4333C122.444 26.2181 124.925 26.055 127.356 25.944C129.687 25.9371 131.978 26.0813 134.228 26.3766C136.379 26.7761 138.299 27.6339 139.989 28.9503C141.075 29.7965 141.247 30.9332 140.506 32.3606C139.665 33.892 138.492 35.4387 136.987 37.0004C136.185 37.8333 135.172 38.7754 133.948 39.8267C132.603 40.7839 131.309 41.6891 130.064 42.5422C128.72 43.4995 127.586 44.3475 126.663 45.0864C125.519 45.8354 124.846 46.3141 124.646 46.5223C124.144 47.0429 122.991 48.2402 121.186 50.1143C119.159 51.9985 116.682 54.3512 113.753 57.1725C110.824 59.9937 107.554 63.2784 103.943 67.0266C100.212 70.6808 96.3403 74.5902 92.3284 78.7549C88.6175 82.6072 84.8164 86.6627 80.9253 90.9214C76.9134 95.086 73.0724 99.2926 69.4023 103.541C65.7321 107.79 62.3331 111.976 59.2053 116.101C55.9567 120.131 53.0796 123.995 50.5739 127.693C49.6508 128.431 48.6377 129.374 47.5344 130.519C46.3105 131.57 45.1366 132.569 44.013 133.516C42.6683 134.474 41.4036 135.129 40.2187 135.481C38.8128 135.844 37.5064 135.555 36.2994 134.615C35.3338 133.863 34.5688 132.903 34.0044 131.734C38.0333 125.578 42.4641 119.553 47.297 113.658C51.9089 107.774 56.7724 102.177 61.8875 96.8673C64.4952 94.1602 67.2236 91.5472 70.0727 89.0282C72.7008 86.5193 75.3391 84.1095 77.9876 81.7988C79.3918 80.3411 81.0169 78.8734 82.863 77.3956C84.6089 76.0219 86.2842 74.5021 87.8889 72.8362C88.9922 71.691 90.0249 70.3996 90.987 68.9621C91.8489 67.6288 92.5297 66.1545 93.0295 64.5391C88.9886 63.0315 84.9997 62.5668 81.0626 63.1447C77.0048 63.6287 72.675 63.6274 68.0732 63.1409C67.1484 62.785 66.0732 62.5852 64.8475 62.5417C63.5011 62.4041 62.1548 62.2665 60.8084 62.129C59.462 61.9914 58.2261 61.8488 57.1008 61.7011C55.8547 61.4594 54.8092 61.0095 53.9643 60.3513C52.1539 58.941 51.8504 57.6111 53.0539 56.3617C54.0569 55.3206 55.7535 54.5463 58.1436 54.039C60.4334 53.6358 62.3425 53.8472 63.8708 54.6732C65.399 55.4992 66.997 55.9239 68.6647 55.9473C70.232 56.0748 71.8997 56.0981 73.6676 56.0174C75.3353 56.0407 77.0633 56.1111 78.8517 56.2285C80.5193 56.2519 82.1675 56.6245 83.796 57.3464C86.5873 56.4226 89.3098 56.4475 91.9635 57.4212C94.4964 58.3009 97.0285 58.6331 99.5598 58.418C105 55.1834 109.475 51.7441 112.985 48.1001C116.495 44.456 119.944 39.6701 123.33 33.7424C119.673 33.8098 116.057 33.7262 112.48 33.4914C108.682 33.2668 104.945 33.0891 101.268 32.9585C97.4701 32.7338 93.8033 32.7022 90.2674 32.8637C86.6108 32.9312 83.0553 33.442 79.601 34.396ZM48.6685 84.9296C48.9915 85.9102 49.5355 86.8807 50.3005 87.8411C50.8445 88.8116 51.3281 89.7351 51.7514 90.6116C52.1747 91.4881 52.4374 92.4217 52.5394 93.4124C52.5411 94.5072 52.1612 95.6692 51.3996 96.8984C49.7524 97.0732 48.0448 97.2009 46.2768 97.2817C44.2878 97.3725 42.5088 96.8068 40.9397 95.5845L43.3646 85.1719C44.2877 84.433 45.2014 84.1424 46.1058 84.3002C46.7892 84.468 47.6434 84.6778 48.6685 84.9296Z"/>
</mask>
<path d="M79.601 34.396C78.8582 34.7286 77.7022 34.2837 76.1331 33.0614C74.564 31.8391 74.3711 30.5042 75.5542 29.0567C78.2639 27.3403 81.1555 26.3124 84.2291 25.973C87.2023 25.7376 90.2563 25.7474 93.391 26.0024C96.5257 26.2574 99.6605 26.5123 102.795 26.7673C105.93 27.0222 109.064 26.7298 112.197 25.8899C114.689 26.3733 117.261 26.5544 119.913 26.4333C122.444 26.2181 124.925 26.055 127.356 25.944C129.687 25.9371 131.978 26.0813 134.228 26.3766C136.379 26.7761 138.299 27.6339 139.989 28.9503C141.075 29.7965 141.247 30.9332 140.506 32.3606C139.665 33.892 138.492 35.4387 136.987 37.0004C136.185 37.8333 135.172 38.7754 133.948 39.8267C132.603 40.7839 131.309 41.6891 130.064 42.5422C128.72 43.4995 127.586 44.3475 126.663 45.0864C125.519 45.8354 124.846 46.3141 124.646 46.5223C124.144 47.0429 122.991 48.2402 121.186 50.1143C119.159 51.9985 116.682 54.3512 113.753 57.1725C110.824 59.9937 107.554 63.2784 103.943 67.0266C100.212 70.6808 96.3403 74.5902 92.3284 78.7549C88.6175 82.6072 84.8164 86.6627 80.9253 90.9214C76.9134 95.086 73.0724 99.2926 69.4023 103.541C65.7321 107.79 62.3331 111.976 59.2053 116.101C55.9567 120.131 53.0796 123.995 50.5739 127.693C49.6508 128.431 48.6377 129.374 47.5344 130.519C46.3105 131.57 45.1366 132.569 44.013 133.516C42.6683 134.474 41.4036 135.129 40.2187 135.481C38.8128 135.844 37.5064 135.555 36.2994 134.615C35.3338 133.863 34.5688 132.903 34.0044 131.734C38.0333 125.578 42.4641 119.553 47.297 113.658C51.9089 107.774 56.7724 102.177 61.8875 96.8673C64.4952 94.1602 67.2236 91.5472 70.0727 89.0282C72.7008 86.5193 75.3391 84.1095 77.9876 81.7988C79.3918 80.3411 81.0169 78.8734 82.863 77.3956C84.6089 76.0219 86.2842 74.5021 87.8889 72.8362C88.9922 71.691 90.0249 70.3996 90.987 68.9621C91.8489 67.6288 92.5297 66.1545 93.0295 64.5391C88.9886 63.0315 84.9997 62.5668 81.0626 63.1447C77.0048 63.6287 72.675 63.6274 68.0732 63.1409C67.1484 62.785 66.0732 62.5852 64.8475 62.5417C63.5011 62.4041 62.1548 62.2665 60.8084 62.129C59.462 61.9914 58.2261 61.8488 57.1008 61.7011C55.8547 61.4594 54.8092 61.0095 53.9643 60.3513C52.1539 58.941 51.8504 57.6111 53.0539 56.3617C54.0569 55.3206 55.7535 54.5463 58.1436 54.039C60.4334 53.6358 62.3425 53.8472 63.8708 54.6732C65.399 55.4992 66.997 55.9239 68.6647 55.9473C70.232 56.0748 71.8997 56.0981 73.6676 56.0174C75.3353 56.0407 77.0633 56.1111 78.8517 56.2285C80.5193 56.2519 82.1675 56.6245 83.796 57.3464C86.5873 56.4226 89.3098 56.4475 91.9635 57.4212C94.4964 58.3009 97.0285 58.6331 99.5598 58.418C105 55.1834 109.475 51.7441 112.985 48.1001C116.495 44.456 119.944 39.6701 123.33 33.7424C119.673 33.8098 116.057 33.7262 112.48 33.4914C108.682 33.2668 104.945 33.0891 101.268 32.9585C97.4701 32.7338 93.8033 32.7022 90.2674 32.8637C86.6108 32.9312 83.0553 33.442 79.601 34.396ZM48.6685 84.9296C48.9915 85.9102 49.5355 86.8807 50.3005 87.8411C50.8445 88.8116 51.3281 89.7351 51.7514 90.6116C52.1747 91.4881 52.4374 92.4217 52.5394 93.4124C52.5411 94.5072 52.1612 95.6692 51.3996 96.8984C49.7524 97.0732 48.0448 97.2009 46.2768 97.2817C44.2878 97.3725 42.5088 96.8068 40.9397 95.5845L43.3646 85.1719C44.2877 84.433 45.2014 84.1424 46.1058 84.3002C46.7892 84.468 47.6434 84.6778 48.6685 84.9296Z" fill="#F0F0F0"/>
<path d="M79.601 34.396L79.1174 33.1455L79.0068 33.1761L78.9038 33.2222L79.601 34.396ZM75.5542 29.0567L74.6765 27.9796L74.4934 28.0955L74.361 28.2575L75.5542 29.0567ZM84.2291 25.973L84.0408 24.6707L84.0159 24.6727L83.9912 24.6754L84.2291 25.973ZM93.391 26.0024L93.4639 24.7005L93.4638 24.7005L93.391 26.0024ZM112.197 25.8899L112.45 24.6128L112.08 24.541L111.724 24.6363L112.197 25.8899ZM119.913 26.4333L120.047 27.7389L120.079 27.7375L120.11 27.7348L119.913 26.4333ZM127.356 25.944L127.291 24.6367L127.256 24.6368L127.222 24.6383L127.356 25.944ZM134.228 26.3766L134.469 25.097L134.426 25.089L134.382 25.0833L134.228 26.3766ZM140.506 32.3606L141.824 32.9753L141.831 32.963L141.837 32.9506L140.506 32.3606ZM133.948 39.8267L134.887 40.8623L134.937 40.8267L134.984 40.7871L133.948 39.8267ZM130.064 42.5422L129.145 41.4927L129.135 41.4996L129.125 41.5066L130.064 42.5422ZM126.663 45.0864L127.558 46.1523L127.613 46.1165L127.663 46.0762L126.663 45.0864ZM121.186 50.1143L122.26 51.0403L122.286 51.016L122.31 50.9905L121.186 50.1143ZM103.943 67.0266L105.042 67.9294L105.055 67.9163L105.068 67.9028L103.943 67.0266ZM80.9253 90.9214L82.0501 91.7976L82.0618 91.7854L82.0731 91.773L80.9253 90.9214ZM59.2053 116.101L60.4038 116.893L60.4153 116.879L60.4264 116.864L59.2053 116.101ZM50.5739 127.693L51.5741 128.682L51.7268 128.56L51.8332 128.403L50.5739 127.693ZM47.5344 130.519L48.57 131.479L48.6168 131.439L48.6592 131.395L47.5344 130.519ZM44.013 133.516L44.9524 134.552L44.9974 134.52L45.0392 134.485L44.013 133.516ZM40.2187 135.481L40.6772 136.739L40.7046 136.732L40.7316 136.723L40.2187 135.481ZM34.0044 131.734L32.7343 131.04L32.3695 131.597L32.6654 132.21L34.0044 131.734ZM47.297 113.658L48.489 114.459L48.4977 114.449L48.5061 114.438L47.297 113.658ZM70.0727 89.0282L71.1225 89.9763L71.1413 89.9597L71.1593 89.9425L70.0727 89.0282ZM77.9876 81.7988L79.0309 82.7525L79.0735 82.7153L79.1124 82.675L77.9876 81.7988ZM82.863 77.3956L81.8716 76.3988L81.8629 76.4058L82.863 77.3956ZM90.987 68.9621L92.2502 69.6669L92.2556 69.6588L92.2609 69.6506L90.987 68.9621ZM93.0295 64.5391L94.4402 64.9352L94.7912 63.8006L93.5448 63.3356L93.0295 64.5391ZM81.0626 63.1447L81.3143 64.4407L81.3357 64.4382L81.357 64.4351L81.0626 63.1447ZM68.0732 63.1409L67.5422 64.3384L67.7443 64.4162L67.9606 64.4391L68.0732 63.1409ZM64.8475 62.5417L64.7407 63.8405L64.7951 63.8461L64.8496 63.848L64.8475 62.5417ZM57.1008 61.7011L56.8473 62.9783L56.8969 62.9879L56.947 62.9944L57.1008 61.7011ZM58.1436 54.039L57.8046 52.7559L57.7775 52.7607L57.7508 52.7663L58.1436 54.039ZM63.8708 54.6732L63.1524 55.7846L63.8708 54.6732ZM68.6647 55.9473L68.7375 54.6454L68.6825 54.6409L68.6274 54.6401L68.6647 55.9473ZM73.6676 56.0174L73.6304 54.7102L73.5817 54.7095L73.5332 54.7117L73.6676 56.0174ZM78.8517 56.2285L78.8045 57.5323L78.8467 57.5351L78.889 57.5357L78.8517 56.2285ZM83.796 57.3464L83.1902 58.513L83.7669 58.7686L84.3528 58.5747L83.796 57.3464ZM91.9635 57.4212L91.4565 58.6278L91.4698 58.6327L91.4833 58.6374L91.9635 57.4212ZM99.5598 58.418L99.7573 59.7195L100.112 59.6894L100.404 59.5157L99.5598 58.418ZM123.33 33.7424L124.638 34.3744L125.773 32.3885L123.24 32.4353L123.33 33.7424ZM112.48 33.4914L112.527 32.1876L112.517 32.187L112.48 33.4914ZM101.268 32.9585L101.231 34.2629L101.251 34.2641L101.27 34.2648L101.268 32.9585ZM90.2674 32.8637L90.3577 34.1708L90.3798 34.1704L90.4019 34.1694L90.2674 32.8637ZM48.6685 84.9296L50.0701 84.6083L49.8278 83.8729L49.0014 83.6699L48.6685 84.9296ZM50.3005 87.8411L51.6026 87.2945L51.5493 87.1993L51.48 87.1123L50.3005 87.8411ZM52.5394 93.4124L54.0018 93.4643L54.0018 93.4051L53.9957 93.3459L52.5394 93.4124ZM51.3996 96.8984L51.6306 98.1967L52.3427 98.1212L52.6859 97.5673L51.3996 96.8984ZM46.2768 97.2817L46.4112 98.5873L46.2768 97.2817ZM40.9397 95.5845L39.5074 95.268L39.3302 96.0291L40.0051 96.5548L40.9397 95.5845ZM43.3646 85.1719L42.3644 84.1821L42.026 84.453L41.9323 84.8554L43.3646 85.1719ZM46.1058 84.3002L46.4387 83.0405L46.384 83.027L46.3285 83.0173L46.1058 84.3002ZM78.9038 33.2222C79.0604 33.1521 79.0772 33.2563 78.7079 33.1142C78.3403 32.9727 77.7988 32.6606 77.0678 32.0911L75.1984 34.0317C76.0365 34.6845 76.8576 35.206 77.6459 35.5093C78.4326 35.8121 79.3988 35.9726 80.2983 35.5699L78.9038 33.2222ZM77.0678 32.0911C76.4632 31.6202 76.2959 31.2642 76.2619 31.0287C76.2277 30.7924 76.2899 30.4156 76.7474 29.8559L74.361 28.2575C73.6354 29.1453 73.2025 30.1597 73.3613 31.2583C73.5202 32.3577 74.2339 33.2803 75.1984 34.0317L77.0678 32.0911ZM76.4319 30.1338C78.9703 28.526 81.6455 27.5822 84.4669 27.2706L83.9912 24.6754C80.6656 25.0427 77.5576 26.1547 74.6765 27.9796L76.4319 30.1338ZM84.4173 27.2753C87.3 27.0471 90.2665 27.0561 93.3181 27.3043L93.4638 24.7005C90.246 24.4387 87.1045 24.4282 84.0408 24.6707L84.4173 27.2753ZM93.3181 27.3043C96.4529 27.5593 99.5876 27.8142 102.722 28.0692L102.868 25.4653C99.7333 25.2104 96.5986 24.9554 93.4639 24.7005L93.3181 27.3043ZM102.722 28.0692C106.052 28.34 109.371 28.0278 112.669 27.1435L111.724 24.6363C108.757 25.4318 105.808 25.7044 102.868 25.4653L102.722 28.0692ZM111.943 27.1671C114.57 27.6766 117.273 27.8657 120.047 27.7389L119.778 25.1276C117.249 25.2432 114.808 25.0701 112.45 24.6128L111.943 27.1671ZM120.11 27.7348C122.622 27.5214 125.082 27.3597 127.491 27.2497L127.222 24.6383C124.769 24.7504 122.267 24.9149 119.715 25.1318L120.11 27.7348ZM127.421 27.2513C129.681 27.2446 131.899 27.3845 134.075 27.67L134.382 25.0833C132.056 24.7781 129.693 24.6295 127.291 24.6367L127.421 27.2513ZM133.988 27.6562C135.881 28.0078 137.562 28.7581 139.054 29.9205L140.923 27.98C139.036 26.5098 136.877 25.5443 134.469 25.097L133.988 27.6562ZM139.054 29.9205C139.348 30.1495 139.452 30.3534 139.484 30.5607C139.521 30.8036 139.475 31.1926 139.175 31.7705L141.837 32.9506C142.278 32.1012 142.518 31.2082 142.382 30.3143C142.241 29.3849 141.716 28.5972 140.923 27.98L139.054 29.9205ZM139.188 31.7459C138.408 33.1655 137.306 34.6256 135.863 36.1242L138.112 37.8766C139.678 36.2517 140.921 34.6186 141.824 32.9753L139.188 31.7459ZM135.863 36.1242C135.097 36.9192 134.116 37.8325 132.912 38.8662L134.984 40.7871C136.228 39.7183 137.273 38.7475 138.112 37.8766L135.863 36.1242ZM133.009 38.7911C131.67 39.7441 130.382 40.6446 129.145 41.4927L130.984 43.5917C132.236 42.7336 133.537 41.8238 134.887 40.8623L133.009 38.7911ZM129.125 41.5066C127.767 42.4734 126.611 43.3372 125.663 44.0967L127.663 46.0762C128.561 45.3578 129.673 44.5255 131.004 43.5779L129.125 41.5066ZM125.768 44.0206C125.189 44.3995 124.718 44.7175 124.361 44.9715C124.037 45.2024 123.718 45.4415 123.521 45.6461L125.771 47.3985C125.758 47.4118 125.781 47.3873 125.876 47.3122C125.962 47.2443 126.082 47.1552 126.24 47.0428C126.555 46.8183 126.993 46.5224 127.558 46.1523L125.768 44.0206ZM123.521 45.6461C123.52 45.6471 123.519 45.6481 123.518 45.6492C123.517 45.6502 123.516 45.6512 123.515 45.6522C123.514 45.6533 123.513 45.6543 123.512 45.6553C123.511 45.6564 123.51 45.6574 123.509 45.6584C123.508 45.6595 123.507 45.6605 123.506 45.6615C123.505 45.6626 123.504 45.6636 123.503 45.6647C123.502 45.6657 123.501 45.6668 123.5 45.6678C123.499 45.6689 123.498 45.6699 123.497 45.671C123.496 45.6721 123.495 45.6731 123.494 45.6742C123.493 45.6752 123.492 45.6763 123.491 45.6774C123.49 45.6785 123.489 45.6795 123.488 45.6806C123.487 45.6817 123.486 45.6827 123.485 45.6838C123.484 45.6849 123.483 45.686 123.482 45.6871C123.481 45.6881 123.48 45.6892 123.479 45.6903C123.477 45.6914 123.476 45.6925 123.475 45.6936C123.474 45.6947 123.473 45.6958 123.472 45.6969C123.471 45.698 123.47 45.6991 123.469 45.7002C123.468 45.7013 123.467 45.7024 123.466 45.7035C123.465 45.7046 123.464 45.7057 123.463 45.7069C123.462 45.708 123.46 45.7091 123.459 45.7102C123.458 45.7113 123.457 45.7124 123.456 45.7136C123.455 45.7147 123.454 45.7158 123.453 45.717C123.452 45.7181 123.451 45.7192 123.45 45.7204C123.448 45.7215 123.447 45.7226 123.446 45.7238C123.445 45.7249 123.444 45.726 123.443 45.7272C123.442 45.7283 123.441 45.7295 123.44 45.7306C123.439 45.7318 123.437 45.733 123.436 45.7341C123.435 45.7353 123.434 45.7364 123.433 45.7376C123.432 45.7387 123.431 45.7399 123.43 45.7411C123.428 45.7422 123.427 45.7434 123.426 45.7446C123.425 45.7458 123.424 45.7469 123.423 45.7481C123.422 45.7493 123.421 45.7505 123.419 45.7516C123.418 45.7528 123.417 45.754 123.416 45.7552C123.415 45.7564 123.414 45.7576 123.413 45.7588C123.411 45.76 123.41 45.7612 123.409 45.7623C123.408 45.7635 123.407 45.7647 123.406 45.766C123.404 45.7671 123.403 45.7684 123.402 45.7696C123.401 45.7708 123.4 45.772 123.399 45.7732C123.398 45.7744 123.396 45.7756 123.395 45.7768C123.394 45.7781 123.393 45.7793 123.392 45.7805C123.39 45.7817 123.389 45.783 123.388 45.7842C123.387 45.7854 123.386 45.7866 123.385 45.7879C123.383 45.7891 123.382 45.7903 123.381 45.7916C123.38 45.7928 123.379 45.7941 123.377 45.7953C123.376 45.7966 123.375 45.7978 123.374 45.799C123.373 45.8003 123.371 45.8015 123.37 45.8028C123.369 45.8041 123.368 45.8053 123.367 45.8066C123.365 45.8078 123.364 45.8091 123.363 45.8104C123.362 45.8116 123.36 45.8129 123.359 45.8142C123.358 45.8154 123.357 45.8167 123.356 45.818C123.354 45.8193 123.353 45.8205 123.352 45.8218C123.351 45.8231 123.349 45.8244 123.348 45.8257C123.347 45.8269 123.346 45.8282 123.344 45.8295C123.343 45.8308 123.342 45.8321 123.341 45.8334C123.339 45.8347 123.338 45.836 123.337 45.8373C123.336 45.8386 123.334 45.8399 123.333 45.8412C123.332 45.8425 123.331 45.8438 123.329 45.8451C123.328 45.8464 123.327 45.8478 123.326 45.8491C123.324 45.8504 123.323 45.8517 123.322 45.853C123.32 45.8543 123.319 45.8557 123.318 45.857C123.317 45.8583 123.315 45.8597 123.314 45.861C123.313 45.8623 123.312 45.8637 123.31 45.865C123.309 45.8663 123.308 45.8677 123.306 45.869C123.305 45.8704 123.304 45.8717 123.302 45.873C123.301 45.8744 123.3 45.8757 123.299 45.8771C123.297 45.8784 123.296 45.8798 123.295 45.8812C123.293 45.8825 123.292 45.8839 123.291 45.8852C123.289 45.8866 123.288 45.888 123.287 45.8893C123.285 45.8907 123.284 45.8921 123.283 45.8934C123.282 45.8948 123.28 45.8962 123.279 45.8976C123.278 45.899 123.276 45.9003 123.275 45.9017C123.274 45.9031 123.272 45.9045 123.271 45.9059C123.27 45.9073 123.268 45.9087 123.267 45.91C123.266 45.9114 123.264 45.9128 123.263 45.9142C123.261 45.9156 123.26 45.917 123.259 45.9184C123.257 45.9198 123.256 45.9212 123.255 45.9227C123.253 45.9241 123.252 45.9255 123.251 45.9269C123.249 45.9283 123.248 45.9297 123.247 45.9311C123.245 45.9326 123.244 45.934 123.242 45.9354C123.241 45.9368 123.24 45.9383 123.238 45.9397C123.237 45.9411 123.236 45.9426 123.234 45.944C123.233 45.9454 123.231 45.9469 123.23 45.9483C123.229 45.9497 123.227 45.9512 123.226 45.9526C123.224 45.9541 123.223 45.9555 123.222 45.957C123.22 45.9584 123.219 45.9599 123.217 45.9613C123.216 45.9628 123.215 45.9642 123.213 45.9657C123.212 45.9672 123.21 45.9686 123.209 45.9701C123.208 45.9716 123.206 45.973 123.205 45.9745C123.203 45.976 123.202 45.9774 123.2 45.9789C123.199 45.9804 123.198 45.9819 123.196 45.9834C123.195 45.9848 123.193 45.9863 123.192 45.9878C123.19 45.9893 123.189 45.9908 123.188 45.9923C123.186 45.9938 123.185 45.9953 123.183 45.9968C123.182 45.9983 123.18 45.9998 123.179 46.0013C123.178 46.0028 123.176 46.0043 123.175 46.0058C123.173 46.0073 123.172 46.0088 123.17 46.0103C123.169 46.0118 123.167 46.0133 123.166 46.0149C123.164 46.0164 123.163 46.0179 123.161 46.0194C123.16 46.0209 123.159 46.0225 123.157 46.024C123.156 46.0255 123.154 46.027 123.153 46.0286C123.151 46.0301 123.15 46.0316 123.148 46.0332C123.147 46.0347 123.145 46.0363 123.144 46.0378C123.142 46.0393 123.141 46.0409 123.139 46.0424C123.138 46.044 123.136 46.0455 123.135 46.0471C123.133 46.0487 123.132 46.0502 123.13 46.0518C123.129 46.0533 123.127 46.0549 123.126 46.0565C123.124 46.058 123.123 46.0596 123.121 46.0611C123.12 46.0627 123.118 46.0643 123.117 46.0659C123.115 46.0674 123.114 46.069 123.112 46.0706C123.111 46.0722 123.109 46.0738 123.108 46.0753C123.106 46.0769 123.105 46.0785 123.103 46.0801C123.101 46.0817 123.1 46.0833 123.098 46.0849C123.097 46.0865 123.095 46.0881 123.094 46.0897C123.092 46.0913 123.091 46.0929 123.089 46.0945C123.088 46.0961 123.086 46.0977 123.085 46.0993C123.083 46.1009 123.081 46.1025 123.08 46.1041C123.078 46.1058 123.077 46.1074 123.075 46.109C123.074 46.1106 123.072 46.1122 123.07 46.1139C123.069 46.1155 123.067 46.1171 123.066 46.1188C123.064 46.1204 123.063 46.122 123.061 46.1237C123.059 46.1253 123.058 46.1269 123.056 46.1286C123.055 46.1302 123.053 46.1319 123.052 46.1335C123.05 46.1352 123.048 46.1368 123.047 46.1385C123.045 46.1401 123.044 46.1418 123.042 46.1434C123.04 46.1451 123.039 46.1467 123.037 46.1484C123.036 46.1501 123.034 46.1517 123.032 46.1534C123.031 46.1551 123.029 46.1567 123.028 46.1584C123.026 46.1601 123.024 46.1617 123.023 46.1634C123.021 46.1651 123.02 46.1668 123.018 46.1685C123.016 46.1702 123.015 46.1718 123.013 46.1735C123.011 46.1752 123.01 46.1769 123.008 46.1786C123.007 46.1803 123.005 46.182 123.003 46.1837C123.002 46.1854 123 46.1871 122.998 46.1888C122.997 46.1905 122.995 46.1922 122.993 46.1939C122.992 46.1956 122.99 46.1973 122.988 46.199C122.987 46.2008 122.985 46.2025 122.983 46.2042C122.982 46.2059 122.98 46.2076 122.979 46.2094C122.977 46.2111 122.975 46.2128 122.974 46.2145C122.972 46.2163 122.97 46.218 122.969 46.2197C122.967 46.2215 122.965 46.2232 122.964 46.2249C122.962 46.2267 122.96 46.2284 122.958 46.2302C122.957 46.2319 122.955 46.2337 122.953 46.2354C122.952 46.2372 122.95 46.2389 122.948 46.2407C122.947 46.2424 122.945 46.2442 122.943 46.2459C122.942 46.2477 122.94 46.2495 122.938 46.2512C122.936 46.253 122.935 46.2548 122.933 46.2565C122.931 46.2583 122.93 46.2601 122.928 46.2619C122.926 46.2636 122.925 46.2654 122.923 46.2672C122.921 46.269 122.919 46.2707 122.918 46.2725C122.916 46.2743 122.914 46.2761 122.912 46.2779C122.911 46.2797 122.909 46.2815 122.907 46.2833C122.906 46.2851 122.904 46.2869 122.902 46.2887C122.9 46.2905 122.899 46.2923 122.897 46.2941C122.895 46.2959 122.893 46.2977 122.892 46.2995C122.89 46.3013 122.888 46.3031 122.886 46.305C122.885 46.3068 122.883 46.3086 122.881 46.3104C122.879 46.3122 122.878 46.3141 122.876 46.3159C122.874 46.3177 122.872 46.3196 122.871 46.3214C122.869 46.3232 122.867 46.3251 122.865 46.3269C122.864 46.3287 122.862 46.3306 122.86 46.3324C122.858 46.3343 122.856 46.3361 122.855 46.338C122.853 46.3398 122.851 46.3417 122.849 46.3435C122.848 46.3454 122.846 46.3472 122.844 46.3491C122.842 46.3509 122.84 46.3528 122.839 46.3547C122.837 46.3565 122.835 46.3584 122.833 46.3603C122.831 46.3621 122.83 46.364 122.828 46.3659C122.826 46.3677 122.824 46.3696 122.822 46.3715C122.821 46.3734 122.819 46.3753 122.817 46.3771C122.815 46.379 122.813 46.3809 122.811 46.3828C122.81 46.3847 122.808 46.3866 122.806 46.3885C122.804 46.3904 122.802 46.3923 122.8 46.3942C122.799 46.3961 122.797 46.398 122.795 46.3999C122.793 46.4018 122.791 46.4037 122.789 46.4056C122.788 46.4075 122.786 46.4094 122.784 46.4113C122.782 46.4132 122.78 46.4152 122.778 46.4171C122.777 46.419 122.775 46.4209 122.773 46.4229C122.771 46.4248 122.769 46.4267 122.767 46.4286C122.765 46.4306 122.764 46.4325 122.762 46.4344C122.76 46.4364 122.758 46.4383 122.756 46.4403C122.754 46.4422 122.752 46.4441 122.75 46.4461C122.749 46.448 122.747 46.45 122.745 46.4519C122.743 46.4539 122.741 46.4558 122.739 46.4578C122.737 46.4597 122.735 46.4617 122.734 46.4637C122.732 46.4656 122.73 46.4676 122.728 46.4696C122.726 46.4715 122.724 46.4735 122.722 46.4755C122.72 46.4774 122.718 46.4794 122.716 46.4814C122.715 46.4834 122.713 46.4853 122.711 46.4873C122.709 46.4893 122.707 46.4913 122.705 46.4933C122.703 46.4953 122.701 46.4973 122.699 46.4993C122.697 46.5013 122.695 46.5032 122.693 46.5052C122.692 46.5072 122.69 46.5092 122.688 46.5112C122.686 46.5133 122.684 46.5152 122.682 46.5173C122.68 46.5193 122.678 46.5213 122.676 46.5233C122.674 46.5253 122.672 46.5273 122.67 46.5293C122.668 46.5314 122.666 46.5334 122.664 46.5354C122.662 46.5374 122.661 46.5395 122.659 46.5415C122.657 46.5435 122.655 46.5455 122.653 46.5476C122.651 46.5496 122.649 46.5516 122.647 46.5537C122.645 46.5557 122.643 46.5578 122.641 46.5598C122.639 46.5619 122.637 46.5639 122.635 46.566C122.633 46.568 122.631 46.57 122.629 46.5721C122.627 46.5742 122.625 46.5762 122.623 46.5783C122.621 46.5803 122.619 46.5824 122.617 46.5845C122.615 46.5865 122.613 46.5886 122.611 46.5907C122.609 46.5927 122.607 46.5948 122.605 46.5969C122.603 46.599 122.601 46.601 122.599 46.6031C122.597 46.6052 122.595 46.6073 122.593 46.6094C122.591 46.6115 122.589 46.6135 122.587 46.6156C122.585 46.6177 122.583 46.6198 122.581 46.6219C122.579 46.624 122.577 46.6261 122.575 46.6282C122.573 46.6303 122.571 46.6324 122.569 46.6345C122.567 46.6366 122.565 46.6387 122.563 46.6408C122.561 46.643 122.559 46.6451 122.557 46.6472C122.555 46.6493 122.553 46.6514 122.551 46.6536C122.549 46.6557 122.547 46.6578 122.544 46.6599C122.542 46.662 122.54 46.6642 122.538 46.6663C122.536 46.6684 122.534 46.6706 122.532 46.6727C122.53 46.6748 122.528 46.677 122.526 46.6791C122.524 46.6813 122.522 46.6834 122.52 46.6856C122.518 46.6877 122.516 46.6899 122.514 46.692C122.511 46.6942 122.509 46.6963 122.507 46.6985C122.505 46.7006 122.503 46.7028 122.501 46.705C122.499 46.7071 122.497 46.7093 122.495 46.7115C122.493 46.7136 122.491 46.7158 122.489 46.718C122.486 46.7201 122.484 46.7223 122.482 46.7245C122.48 46.7267 122.478 46.7289 122.476 46.731C122.474 46.7332 122.472 46.7354 122.47 46.7376C122.468 46.7398 122.465 46.742 122.463 46.7442C122.461 46.7464 122.459 46.7486 122.457 46.7508C122.455 46.753 122.453 46.7552 122.451 46.7574C122.448 46.7596 122.446 46.7618 122.444 46.764C122.442 46.7662 122.44 46.7684 122.438 46.7706C122.436 46.7728 122.434 46.7751 122.431 46.7773C122.429 46.7795 122.427 46.7817 122.425 46.7839C122.423 46.7862 122.421 46.7884 122.419 46.7906C122.416 46.7929 122.414 46.7951 122.412 46.7973C122.41 46.7996 122.408 46.8018 122.406 46.804C122.403 46.8063 122.401 46.8085 122.399 46.8108C122.397 46.813 122.395 46.8153 122.393 46.8175C122.391 46.8198 122.388 46.822 122.386 46.8243C122.384 46.8265 122.382 46.8288 122.38 46.8311C122.377 46.8333 122.375 46.8356 122.373 46.8378C122.371 46.8401 122.369 46.8424 122.367 46.8446C122.364 46.8469 122.362 46.8492 122.36 46.8515C122.358 46.8537 122.356 46.856 122.353 46.8583C122.351 46.8606 122.349 46.8629 122.347 46.8652C122.345 46.8674 122.342 46.8697 122.34 46.872C122.338 46.8743 122.336 46.8766 122.334 46.8789C122.331 46.8812 122.329 46.8835 122.327 46.8858C122.325 46.8881 122.322 46.8904 122.32 46.8927C122.318 46.895 122.316 46.8973 122.314 46.8997C122.311 46.902 122.309 46.9043 122.307 46.9066C122.305 46.9089 122.302 46.9112 122.3 46.9136C122.298 46.9159 122.296 46.9182 122.293 46.9205C122.291 46.9229 122.289 46.9252 122.287 46.9275C122.284 46.9299 122.282 46.9322 122.28 46.9345C122.278 46.9369 122.275 46.9392 122.273 46.9416C122.271 46.9439 122.269 46.9463 122.266 46.9486C122.264 46.951 122.262 46.9533 122.26 46.9557C122.257 46.958 122.255 46.9604 122.253 46.9627C122.251 46.9651 122.248 46.9674 122.246 46.9698C122.244 46.9722 122.241 46.9745 122.239 46.9769C122.237 46.9793 122.235 46.9817 122.232 46.984C122.23 46.9864 122.228 46.9888 122.225 46.9912C122.223 46.9935 122.221 46.9959 122.219 46.9983C122.216 47.0007 122.214 47.0031 122.212 47.0055C122.209 47.0079 122.207 47.0103 122.205 47.0127C122.202 47.015 122.2 47.0174 122.198 47.0198C122.195 47.0222 122.193 47.0247 122.191 47.0271C122.189 47.0295 122.186 47.0319 122.184 47.0343C122.182 47.0367 122.179 47.0391 122.177 47.0415C122.175 47.0439 122.172 47.0464 122.17 47.0488C122.168 47.0512 122.165 47.0536 122.163 47.056C122.161 47.0585 122.158 47.0609 122.156 47.0633C122.154 47.0658 122.151 47.0682 122.149 47.0706C122.146 47.0731 122.144 47.0755 122.142 47.078C122.139 47.0804 122.137 47.0828 122.135 47.0853C122.132 47.0877 122.13 47.0902 122.128 47.0926C122.125 47.0951 122.123 47.0975 122.121 47.1C122.118 47.1025 122.116 47.1049 122.113 47.1074C122.111 47.1098 122.109 47.1123 122.106 47.1148C122.104 47.1172 122.102 47.1197 122.099 47.1222C122.097 47.1247 122.094 47.1271 122.092 47.1296C122.09 47.1321 122.087 47.1346 122.085 47.1371C122.082 47.1395 122.08 47.142 122.078 47.1445C122.075 47.147 122.073 47.1495 122.07 47.152C122.068 47.1545 122.066 47.157 122.063 47.1595C122.061 47.162 122.058 47.1645 122.056 47.167C122.054 47.1695 122.051 47.172 122.049 47.1745C122.046 47.177 122.044 47.1795 122.042 47.182C122.039 47.1845 122.037 47.1871 122.034 47.1896C122.032 47.1921 122.029 47.1946 122.027 47.1971C122.025 47.1997 122.022 47.2022 122.02 47.2047C122.017 47.2072 122.015 47.2098 122.012 47.2123C122.01 47.2149 122.007 47.2174 122.005 47.2199C122.003 47.2225 122 47.225 121.998 47.2276C121.995 47.2301 121.993 47.2327 121.99 47.2352C121.988 47.2377 121.985 47.2403 121.983 47.2429C121.98 47.2454 121.978 47.248 121.976 47.2505C121.973 47.2531 121.971 47.2557 121.968 47.2582C121.966 47.2608 121.963 47.2634 121.961 47.2659C121.958 47.2685 121.956 47.2711 121.953 47.2737C121.951 47.2762 121.948 47.2788 121.946 47.2814C121.943 47.284 121.941 47.2866 121.938 47.2891C121.936 47.2917 121.933 47.2943 121.931 47.2969C121.928 47.2995 121.926 47.3021 121.923 47.3047C121.921 47.3073 121.918 47.3099 121.916 47.3125C121.913 47.3151 121.911 47.3177 121.908 47.3203C121.906 47.3229 121.903 47.3255 121.901 47.3281C121.898 47.3307 121.896 47.3334 121.893 47.336C121.891 47.3386 121.888 47.3412 121.886 47.3438C121.883 47.3464 121.881 47.3491 121.878 47.3517C121.876 47.3543 121.873 47.357 121.87 47.3596C121.868 47.3622 121.865 47.3649 121.863 47.3675C121.86 47.3701 121.858 47.3728 121.855 47.3754C121.853 47.3781 121.85 47.3807 121.848 47.3834C121.845 47.386 121.842 47.3887 121.84 47.3913C121.837 47.394 121.835 47.3966 121.832 47.3993C121.83 47.4019 121.827 47.4046 121.825 47.4073C121.822 47.4099 121.819 47.4126 121.817 47.4153C121.814 47.4179 121.812 47.4206 121.809 47.4233C121.807 47.426 121.804 47.4286 121.801 47.4313C121.799 47.434 121.796 47.4367 121.794 47.4394C121.791 47.442 121.788 47.4447 121.786 47.4474C121.783 47.4501 121.781 47.4528 121.778 47.4555C121.776 47.4582 121.773 47.4609 121.77 47.4636C121.768 47.4663 121.765 47.469 121.762 47.4717C121.76 47.4744 121.757 47.4771 121.755 47.4798C121.752 47.4825 121.749 47.4852 121.747 47.488C121.744 47.4907 121.742 47.4934 121.739 47.4961C121.736 47.4988 121.734 47.5016 121.731 47.5043C121.728 47.507 121.726 47.5097 121.723 47.5125C121.721 47.5152 121.718 47.5179 121.715 47.5207C121.713 47.5234 121.71 47.5261 121.707 47.5289C121.705 47.5316 121.702 47.5344 121.699 47.5371C121.697 47.5399 121.694 47.5426 121.692 47.5454C121.689 47.5481 121.686 47.5509 121.684 47.5536C121.681 47.5564 121.678 47.5591 121.676 47.5619C121.673 47.5647 121.67 47.5674 121.668 47.5702C121.665 47.573 121.662 47.5757 121.66 47.5785C121.657 47.5813 121.654 47.584 121.652 47.5868C121.649 47.5896 121.646 47.5924 121.644 47.5952C121.641 47.598 121.638 47.6007 121.636 47.6035C121.633 47.6063 121.63 47.6091 121.627 47.6119C121.625 47.6147 121.622 47.6175 121.619 47.6203C121.617 47.6231 121.614 47.6259 121.611 47.6287C121.609 47.6315 121.606 47.6343 121.603 47.6371C121.6 47.6399 121.598 47.6427 121.595 47.6455C121.592 47.6483 121.59 47.6512 121.587 47.654C121.584 47.6568 121.581 47.6596 121.579 47.6625C121.576 47.6653 121.573 47.6681 121.571 47.6709C121.568 47.6738 121.565 47.6766 121.562 47.6794C121.56 47.6823 121.557 47.6851 121.554 47.6879C121.551 47.6908 121.549 47.6936 121.546 47.6965C121.543 47.6993 121.54 47.7022 121.538 47.705C121.535 47.7078 121.532 47.7107 121.53 47.7136C121.527 47.7164 121.524 47.7193 121.521 47.7221C121.518 47.725 121.516 47.7279 121.513 47.7307C121.51 47.7336 121.507 47.7365 121.505 47.7393C121.502 47.7422 121.499 47.7451 121.496 47.7479C121.494 47.7508 121.491 47.7537 121.488 47.7566C121.485 47.7595 121.483 47.7623 121.48 47.7652C121.477 47.7681 121.474 47.771 121.471 47.7739C121.469 47.7768 121.466 47.7797 121.463 47.7826C121.46 47.7855 121.457 47.7884 121.455 47.7913C121.452 47.7942 121.449 47.7971 121.446 47.8C121.443 47.8029 121.441 47.8058 121.438 47.8087C121.435 47.8116 121.432 47.8145 121.429 47.8174C121.427 47.8204 121.424 47.8233 121.421 47.8262C121.418 47.8291 121.415 47.8321 121.413 47.835C121.41 47.8379 121.407 47.8408 121.404 47.8438C121.401 47.8467 121.398 47.8496 121.396 47.8526C121.393 47.8555 121.39 47.8584 121.387 47.8614C121.384 47.8643 121.381 47.8673 121.379 47.8702C121.376 47.8732 121.373 47.8761 121.37 47.8791C121.367 47.882 121.364 47.885 121.362 47.8879C121.359 47.8909 121.356 47.8939 121.353 47.8968C121.35 47.8998 121.347 47.9028 121.344 47.9057C121.342 47.9087 121.339 47.9117 121.336 47.9146C121.333 47.9176 121.33 47.9206 121.327 47.9236C121.324 47.9266 121.321 47.9295 121.319 47.9325C121.316 47.9355 121.313 47.9385 121.31 47.9415C121.307 47.9445 121.304 47.9475 121.301 47.9504C121.298 47.9534 121.296 47.9564 121.293 47.9594C121.29 47.9624 121.287 47.9654 121.284 47.9684C121.281 47.9714 121.278 47.9745 121.275 47.9775C121.272 47.9805 121.269 47.9835 121.267 47.9865C121.264 47.9895 121.261 47.9925 121.258 47.9956C121.255 47.9986 121.252 48.0016 121.249 48.0046C121.246 48.0077 121.243 48.0107 121.24 48.0137C121.237 48.0167 121.235 48.0198 121.232 48.0228C121.229 48.0258 121.226 48.0289 121.223 48.0319C121.22 48.035 121.217 48.038 121.214 48.041C121.211 48.0441 121.208 48.0471 121.205 48.0502C121.202 48.0532 121.199 48.0563 121.196 48.0594C121.193 48.0624 121.191 48.0655 121.188 48.0685C121.185 48.0716 121.182 48.0747 121.179 48.0777C121.176 48.0808 121.173 48.0839 121.17 48.0869C121.167 48.09 121.164 48.0931 121.161 48.0962C121.158 48.0992 121.155 48.1023 121.152 48.1054C121.149 48.1085 121.146 48.1116 121.143 48.1147C121.14 48.1177 121.137 48.1208 121.134 48.1239C121.131 48.127 121.128 48.1301 121.125 48.1332C121.122 48.1363 121.119 48.1394 121.116 48.1425C121.113 48.1456 121.11 48.1487 121.107 48.1518C121.104 48.1549 121.101 48.158 121.098 48.1611C121.095 48.1643 121.092 48.1674 121.089 48.1705C121.086 48.1736 121.083 48.1767 121.08 48.1799C121.077 48.183 121.074 48.1861 121.071 48.1892C121.068 48.1924 121.065 48.1955 121.062 48.1986C121.059 48.2018 121.056 48.2049 121.053 48.208C121.05 48.2112 121.047 48.2143 121.044 48.2175C121.041 48.2206 121.038 48.2238 121.035 48.2269C121.032 48.2301 121.029 48.2332 121.026 48.2364C121.023 48.2395 121.02 48.2427 121.017 48.2458C121.014 48.249 121.011 48.2522 121.008 48.2553C121.005 48.2585 121.002 48.2617 120.998 48.2648C120.995 48.268 120.992 48.2712 120.989 48.2743C120.986 48.2775 120.983 48.2807 120.98 48.2839C120.977 48.287 120.974 48.2902 120.971 48.2934C120.968 48.2966 120.965 48.2998 120.962 48.303C120.959 48.3062 120.956 48.3094 120.952 48.3126C120.949 48.3158 120.946 48.319 120.943 48.3222C120.94 48.3254 120.937 48.3286 120.934 48.3318C120.931 48.335 120.928 48.3382 120.925 48.3414C120.922 48.3446 120.919 48.3478 120.915 48.351C120.912 48.3542 120.909 48.3575 120.906 48.3607C120.903 48.3639 120.9 48.3671 120.897 48.3704C120.894 48.3736 120.891 48.3768 120.887 48.38C120.884 48.3833 120.881 48.3865 120.878 48.3897C120.875 48.393 120.872 48.3962 120.869 48.3995C120.866 48.4027 120.863 48.406 120.859 48.4092C120.856 48.4124 120.853 48.4157 120.85 48.419C120.847 48.4222 120.844 48.4255 120.841 48.4287C120.837 48.432 120.834 48.4352 120.831 48.4385C120.828 48.4418 120.825 48.445 120.822 48.4483C120.819 48.4516 120.815 48.4548 120.812 48.4581C120.809 48.4614 120.806 48.4647 120.803 48.4679C120.8 48.4712 120.796 48.4745 120.793 48.4778C120.79 48.4811 120.787 48.4843 120.784 48.4876C120.781 48.4909 120.777 48.4942 120.774 48.4975C120.771 48.5008 120.768 48.5041 120.765 48.5074C120.762 48.5107 120.758 48.514 120.755 48.5173C120.752 48.5206 120.749 48.5239 120.746 48.5272C120.743 48.5305 120.739 48.5338 120.736 48.5372C120.733 48.5405 120.73 48.5438 120.727 48.5471C120.723 48.5504 120.72 48.5538 120.717 48.5571C120.714 48.5604 120.711 48.5637 120.707 48.5671C120.704 48.5704 120.701 48.5737 120.698 48.5771C120.694 48.5804 120.691 48.5837 120.688 48.5871C120.685 48.5904 120.682 48.5938 120.678 48.5971C120.675 48.6004 120.672 48.6038 120.669 48.6071C120.665 48.6105 120.662 48.6138 120.659 48.6172C120.656 48.6206 120.653 48.6239 120.649 48.6273C120.646 48.6306 120.643 48.634 120.64 48.6374C120.636 48.6407 120.633 48.6441 120.63 48.6475C120.627 48.6508 120.623 48.6542 120.62 48.6576C120.617 48.661 120.614 48.6643 120.61 48.6677C120.607 48.6711 120.604 48.6745 120.601 48.6779C120.597 48.6813 120.594 48.6847 120.591 48.688C120.588 48.6914 120.584 48.6948 120.581 48.6982C120.578 48.7016 120.574 48.705 120.571 48.7084C120.568 48.7118 120.565 48.7152 120.561 48.7186C120.558 48.722 120.555 48.7255 120.551 48.7289C120.548 48.7323 120.545 48.7357 120.542 48.7391C120.538 48.7425 120.535 48.746 120.532 48.7494C120.528 48.7528 120.525 48.7562 120.522 48.7597C120.518 48.7631 120.515 48.7665 120.512 48.7699C120.509 48.7734 120.505 48.7768 120.502 48.7803C120.499 48.7837 120.495 48.7871 120.492 48.7906C120.489 48.794 120.485 48.7975 120.482 48.8009C120.479 48.8044 120.475 48.8078 120.472 48.8113C120.469 48.8147 120.465 48.8182 120.462 48.8216C120.459 48.8251 120.455 48.8286 120.452 48.832C120.449 48.8355 120.445 48.839 120.442 48.8424C120.439 48.8459 120.435 48.8494 120.432 48.8528C120.429 48.8563 120.425 48.8598 120.422 48.8633C120.419 48.8668 120.415 48.8702 120.412 48.8737C120.409 48.8772 120.405 48.8807 120.402 48.8842C120.398 48.8877 120.395 48.8912 120.392 48.8947C120.388 48.8981 120.385 48.9017 120.382 48.9051C120.378 48.9087 120.375 48.9122 120.372 48.9157C120.368 48.9192 120.365 48.9227 120.361 48.9262C120.358 48.9297 120.355 48.9332 120.351 48.9367C120.348 48.9402 120.344 48.9438 120.341 48.9473C120.338 48.9508 120.334 48.9543 120.331 48.9579C120.327 48.9614 120.324 48.9649 120.321 48.9684C120.317 48.972 120.314 48.9755 120.31 48.979C120.307 48.9826 120.304 48.9861 120.3 48.9897C120.297 48.9932 120.293 48.9967 120.29 49.0003C120.287 49.0038 120.283 49.0074 120.28 49.0109C120.276 49.0145 120.273 49.018 120.269 49.0216C120.266 49.0252 120.263 49.0287 120.259 49.0323C120.256 49.0358 120.252 49.0394 120.249 49.043C120.245 49.0465 120.242 49.0501 120.239 49.0537C120.235 49.0573 120.232 49.0608 120.228 49.0644C120.225 49.068 120.221 49.0716 120.218 49.0751C120.214 49.0787 120.211 49.0823 120.208 49.0859C120.204 49.0895 120.201 49.0931 120.197 49.0967C120.194 49.1003 120.19 49.1039 120.187 49.1075C120.183 49.1111 120.18 49.1147 120.176 49.1183C120.173 49.1219 120.169 49.1255 120.166 49.1291C120.162 49.1327 120.159 49.1363 120.155 49.1399C120.152 49.1435 120.149 49.1471 120.145 49.1508C120.142 49.1544 120.138 49.158 120.135 49.1616C120.131 49.1653 120.128 49.1689 120.124 49.1725C120.121 49.1761 120.117 49.1798 120.114 49.1834C120.11 49.187 120.107 49.1907 120.103 49.1943C120.1 49.198 120.096 49.2016 120.093 49.2053C120.089 49.2089 120.086 49.2125 120.082 49.2162C120.078 49.2198 120.075 49.2235 120.071 49.2271C120.068 49.2308 120.064 49.2345 120.061 49.2381L122.31 50.9905C122.314 50.9869 122.318 50.9832 122.321 50.9795C122.325 50.9759 122.328 50.9722 122.332 50.9686C122.335 50.9649 122.339 50.9613 122.342 50.9577C122.346 50.954 122.349 50.9504 122.353 50.9467C122.356 50.9431 122.36 50.9394 122.363 50.9358C122.367 50.9322 122.37 50.9285 122.374 50.9249C122.377 50.9213 122.381 50.9177 122.384 50.914C122.388 50.9104 122.391 50.9068 122.395 50.9032C122.398 50.8996 122.402 50.8959 122.405 50.8923C122.409 50.8887 122.412 50.8851 122.416 50.8815C122.419 50.8779 122.422 50.8743 122.426 50.8707C122.429 50.8671 122.433 50.8635 122.436 50.8599C122.44 50.8563 122.443 50.8527 122.447 50.8491C122.45 50.8455 122.454 50.8419 122.457 50.8383C122.461 50.8347 122.464 50.8311 122.467 50.8275C122.471 50.824 122.474 50.8204 122.478 50.8168C122.481 50.8132 122.485 50.8097 122.488 50.8061C122.492 50.8025 122.495 50.7989 122.498 50.7954C122.502 50.7918 122.505 50.7882 122.509 50.7847C122.512 50.7811 122.516 50.7776 122.519 50.774C122.522 50.7704 122.526 50.7669 122.529 50.7633C122.533 50.7598 122.536 50.7562 122.54 50.7527C122.543 50.7491 122.546 50.7456 122.55 50.7421C122.553 50.7385 122.557 50.735 122.56 50.7314C122.563 50.7279 122.567 50.7244 122.57 50.7208C122.574 50.7173 122.577 50.7138 122.58 50.7103C122.584 50.7067 122.587 50.7032 122.591 50.6997C122.594 50.6962 122.597 50.6926 122.601 50.6891C122.604 50.6856 122.608 50.6821 122.611 50.6786C122.614 50.6751 122.618 50.6716 122.621 50.6681C122.624 50.6646 122.628 50.6611 122.631 50.6575C122.635 50.6541 122.638 50.6505 122.641 50.6471C122.645 50.6436 122.648 50.6401 122.651 50.6366C122.655 50.6331 122.658 50.6296 122.662 50.6261C122.665 50.6226 122.668 50.6192 122.672 50.6157C122.675 50.6122 122.678 50.6087 122.682 50.6052C122.685 50.6018 122.688 50.5983 122.692 50.5948C122.695 50.5914 122.698 50.5879 122.702 50.5844C122.705 50.581 122.708 50.5775 122.712 50.574C122.715 50.5706 122.718 50.5671 122.722 50.5637C122.725 50.5602 122.728 50.5568 122.732 50.5533C122.735 50.5499 122.738 50.5464 122.742 50.543C122.745 50.5395 122.748 50.5361 122.752 50.5327C122.755 50.5292 122.758 50.5258 122.761 50.5223C122.765 50.5189 122.768 50.5155 122.771 50.5121C122.775 50.5086 122.778 50.5052 122.781 50.5018C122.785 50.4984 122.788 50.4949 122.791 50.4915C122.794 50.4881 122.798 50.4847 122.801 50.4813C122.804 50.4779 122.808 50.4745 122.811 50.471C122.814 50.4676 122.817 50.4642 122.821 50.4608C122.824 50.4574 122.827 50.454 122.831 50.4506C122.834 50.4472 122.837 50.4438 122.84 50.4404C122.844 50.4371 122.847 50.4337 122.85 50.4303C122.853 50.4269 122.857 50.4235 122.86 50.4201C122.863 50.4167 122.866 50.4134 122.87 50.41C122.873 50.4066 122.876 50.4032 122.879 50.3999C122.883 50.3965 122.886 50.3931 122.889 50.3898C122.892 50.3864 122.896 50.383 122.899 50.3797C122.902 50.3763 122.905 50.373 122.909 50.3696C122.912 50.3662 122.915 50.3629 122.918 50.3595C122.922 50.3562 122.925 50.3528 122.928 50.3495C122.931 50.3462 122.934 50.3428 122.938 50.3395C122.941 50.3361 122.944 50.3328 122.947 50.3295C122.951 50.3261 122.954 50.3228 122.957 50.3195C122.96 50.3161 122.963 50.3128 122.967 50.3095C122.97 50.3062 122.973 50.3028 122.976 50.2995C122.979 50.2962 122.983 50.2929 122.986 50.2896C122.989 50.2862 122.992 50.2829 122.995 50.2796C122.998 50.2763 123.002 50.273 123.005 50.2697C123.008 50.2664 123.011 50.2631 123.014 50.2598C123.018 50.2565 123.021 50.2532 123.024 50.2499C123.027 50.2466 123.03 50.2433 123.033 50.24C123.037 50.2367 123.04 50.2335 123.043 50.2302C123.046 50.2269 123.049 50.2236 123.052 50.2203C123.056 50.2171 123.059 50.2138 123.062 50.2105C123.065 50.2072 123.068 50.204 123.071 50.2007C123.074 50.1974 123.078 50.1942 123.081 50.1909C123.084 50.1876 123.087 50.1844 123.09 50.1811C123.093 50.1779 123.096 50.1746 123.1 50.1714C123.103 50.1681 123.106 50.1648 123.109 50.1616C123.112 50.1584 123.115 50.1551 123.118 50.1519C123.121 50.1486 123.125 50.1454 123.128 50.1422C123.131 50.1389 123.134 50.1357 123.137 50.1324C123.14 50.1292 123.143 50.126 123.146 50.1228C123.15 50.1195 123.153 50.1163 123.156 50.1131C123.159 50.1099 123.162 50.1067 123.165 50.1034C123.168 50.1002 123.171 50.097 123.174 50.0938C123.177 50.0906 123.18 50.0874 123.184 50.0842C123.187 50.081 123.19 50.0778 123.193 50.0746C123.196 50.0714 123.199 50.0682 123.202 50.065C123.205 50.0618 123.208 50.0586 123.211 50.0554C123.214 50.0522 123.217 50.049 123.221 50.0458C123.224 50.0426 123.227 50.0394 123.23 50.0363C123.233 50.0331 123.236 50.0299 123.239 50.0267C123.242 50.0236 123.245 50.0204 123.248 50.0172C123.251 50.0141 123.254 50.0109 123.257 50.0077C123.26 50.0046 123.263 50.0014 123.266 49.9982C123.269 49.9951 123.272 49.9919 123.275 49.9888C123.279 49.9856 123.282 49.9825 123.285 49.9793C123.288 49.9762 123.291 49.973 123.294 49.9699C123.297 49.9667 123.3 49.9636 123.303 49.9604C123.306 49.9573 123.309 49.9542 123.312 49.951C123.315 49.9479 123.318 49.9448 123.321 49.9416C123.324 49.9385 123.327 49.9354 123.33 49.9323C123.333 49.9291 123.336 49.926 123.339 49.9229C123.342 49.9198 123.345 49.9167 123.348 49.9135C123.351 49.9104 123.354 49.9073 123.357 49.9042C123.36 49.9011 123.363 49.898 123.366 49.8949C123.369 49.8918 123.372 49.8887 123.375 49.8856C123.378 49.8825 123.381 49.8794 123.384 49.8763C123.387 49.8732 123.39 49.8701 123.393 49.8671C123.396 49.864 123.399 49.8609 123.402 49.8578C123.405 49.8547 123.408 49.8516 123.411 49.8486C123.414 49.8455 123.416 49.8424 123.419 49.8393C123.422 49.8363 123.425 49.8332 123.428 49.8301C123.431 49.8271 123.434 49.824 123.437 49.8209C123.44 49.8179 123.443 49.8148 123.446 49.8118C123.449 49.8087 123.452 49.8057 123.455 49.8026C123.458 49.7995 123.461 49.7965 123.464 49.7934C123.467 49.7904 123.469 49.7874 123.472 49.7843C123.475 49.7813 123.478 49.7782 123.481 49.7752C123.484 49.7722 123.487 49.7691 123.49 49.7661C123.493 49.7631 123.496 49.7601 123.499 49.757C123.502 49.754 123.505 49.751 123.507 49.748C123.51 49.7449 123.513 49.7419 123.516 49.7389C123.519 49.7359 123.522 49.7329 123.525 49.7299C123.528 49.7269 123.531 49.7238 123.534 49.7208C123.536 49.7178 123.539 49.7148 123.542 49.7118C123.545 49.7088 123.548 49.7058 123.551 49.7028C123.554 49.6999 123.557 49.6969 123.56 49.6939C123.562 49.6909 123.565 49.6879 123.568 49.6849C123.571 49.6819 123.574 49.679 123.577 49.676C123.58 49.673 123.583 49.67 123.585 49.667C123.588 49.6641 123.591 49.6611 123.594 49.6581C123.597 49.6552 123.6 49.6522 123.603 49.6492C123.605 49.6463 123.608 49.6433 123.611 49.6403C123.614 49.6374 123.617 49.6344 123.62 49.6315C123.623 49.6285 123.625 49.6256 123.628 49.6226C123.631 49.6197 123.634 49.6167 123.637 49.6138C123.64 49.6109 123.642 49.6079 123.645 49.605C123.648 49.602 123.651 49.5991 123.654 49.5962C123.656 49.5932 123.659 49.5903 123.662 49.5874C123.665 49.5845 123.668 49.5815 123.671 49.5786C123.673 49.5757 123.676 49.5728 123.679 49.5698C123.682 49.5669 123.685 49.564 123.687 49.5611C123.69 49.5582 123.693 49.5553 123.696 49.5524C123.699 49.5495 123.701 49.5466 123.704 49.5437C123.707 49.5408 123.71 49.5379 123.713 49.535C123.715 49.5321 123.718 49.5292 123.721 49.5263C123.724 49.5234 123.727 49.5205 123.729 49.5176C123.732 49.5147 123.735 49.5119 123.738 49.509C123.74 49.5061 123.743 49.5032 123.746 49.5003C123.749 49.4975 123.752 49.4946 123.754 49.4917C123.757 49.4889 123.76 49.486 123.763 49.4831C123.765 49.4803 123.768 49.4774 123.771 49.4745C123.774 49.4717 123.776 49.4688 123.779 49.466C123.782 49.4631 123.785 49.4602 123.787 49.4574C123.79 49.4546 123.793 49.4517 123.796 49.4489C123.798 49.446 123.801 49.4432 123.804 49.4403C123.807 49.4375 123.809 49.4347 123.812 49.4318C123.815 49.429 123.817 49.4262 123.82 49.4233C123.823 49.4205 123.826 49.4177 123.828 49.4149C123.831 49.412 123.834 49.4092 123.836 49.4064C123.839 49.4036 123.842 49.4007 123.845 49.3979C123.847 49.3951 123.85 49.3923 123.853 49.3895C123.855 49.3867 123.858 49.3839 123.861 49.3811C123.864 49.3783 123.866 49.3755 123.869 49.3727C123.872 49.3699 123.874 49.3671 123.877 49.3643C123.88 49.3615 123.882 49.3587 123.885 49.3559C123.888 49.3531 123.89 49.3504 123.893 49.3476C123.896 49.3448 123.899 49.342 123.901 49.3392C123.904 49.3364 123.907 49.3337 123.909 49.3309C123.912 49.3281 123.915 49.3254 123.917 49.3226C123.92 49.3198 123.923 49.3171 123.925 49.3143C123.928 49.3115 123.931 49.3088 123.933 49.306C123.936 49.3033 123.938 49.3005 123.941 49.2978C123.944 49.295 123.946 49.2923 123.949 49.2895C123.952 49.2868 123.954 49.284 123.957 49.2813C123.96 49.2785 123.962 49.2758 123.965 49.2731C123.968 49.2703 123.97 49.2676 123.973 49.2649C123.975 49.2621 123.978 49.2594 123.981 49.2567C123.983 49.254 123.986 49.2512 123.989 49.2485C123.991 49.2458 123.994 49.2431 123.996 49.2404C123.999 49.2376 124.002 49.2349 124.004 49.2322C124.007 49.2295 124.009 49.2268 124.012 49.2241C124.015 49.2214 124.017 49.2187 124.02 49.216C124.023 49.2133 124.025 49.2106 124.028 49.2079C124.03 49.2052 124.033 49.2025 124.035 49.1998C124.038 49.1971 124.041 49.1944 124.043 49.1918C124.046 49.1891 124.048 49.1864 124.051 49.1837C124.054 49.181 124.056 49.1784 124.059 49.1757C124.061 49.173 124.064 49.1703 124.066 49.1677C124.069 49.165 124.072 49.1623 124.074 49.1597C124.077 49.157 124.079 49.1543 124.082 49.1517C124.084 49.149 124.087 49.1464 124.09 49.1437C124.092 49.1411 124.095 49.1384 124.097 49.1358C124.1 49.1331 124.102 49.1305 124.105 49.1278C124.107 49.1252 124.11 49.1225 124.112 49.1199C124.115 49.1173 124.118 49.1146 124.12 49.112C124.123 49.1094 124.125 49.1067 124.128 49.1041C124.13 49.1015 124.133 49.0988 124.135 49.0962C124.138 49.0936 124.14 49.091 124.143 49.0884C124.145 49.0858 124.148 49.0831 124.15 49.0805C124.153 49.0779 124.155 49.0753 124.158 49.0727C124.16 49.0701 124.163 49.0675 124.165 49.0649C124.168 49.0623 124.17 49.0597 124.173 49.0571C124.175 49.0545 124.178 49.0519 124.18 49.0493C124.183 49.0467 124.185 49.0441 124.188 49.0415C124.19 49.039 124.193 49.0364 124.195 49.0338C124.198 49.0312 124.2 49.0286 124.203 49.0261C124.205 49.0235 124.208 49.0209 124.21 49.0183C124.213 49.0158 124.215 49.0132 124.218 49.0106C124.22 49.0081 124.223 49.0055 124.225 49.0029C124.228 49.0004 124.23 48.9978 124.233 48.9953C124.235 48.9927 124.237 48.9901 124.24 48.9876C124.242 48.9851 124.245 48.9825 124.247 48.98C124.25 48.9774 124.252 48.9749 124.255 48.9723C124.257 48.9698 124.26 48.9673 124.262 48.9647C124.264 48.9622 124.267 48.9597 124.269 48.9571C124.272 48.9546 124.274 48.9521 124.277 48.9495C124.279 48.947 124.281 48.9445 124.284 48.942C124.286 48.9395 124.289 48.9369 124.291 48.9344C124.294 48.9319 124.296 48.9294 124.298 48.9269C124.301 48.9244 124.303 48.9219 124.306 48.9194C124.308 48.9169 124.31 48.9144 124.313 48.9119C124.315 48.9094 124.318 48.9069 124.32 48.9044C124.322 48.9019 124.325 48.8994 124.327 48.8969C124.33 48.8944 124.332 48.8919 124.334 48.8895C124.337 48.887 124.339 48.8845 124.342 48.882C124.344 48.8795 124.346 48.8771 124.349 48.8746C124.351 48.8721 124.354 48.8696 124.356 48.8672C124.358 48.8647 124.361 48.8622 124.363 48.8598C124.365 48.8573 124.368 48.8549 124.37 48.8524C124.373 48.8499 124.375 48.8475 124.377 48.845C124.38 48.8426 124.382 48.8401 124.384 48.8377C124.387 48.8352 124.389 48.8328 124.391 48.8304C124.394 48.8279 124.396 48.8255 124.398 48.823C124.401 48.8206 124.403 48.8182 124.405 48.8157C124.408 48.8133 124.41 48.8109 124.412 48.8085C124.415 48.806 124.417 48.8036 124.42 48.8012C124.422 48.7988 124.424 48.7963 124.426 48.7939C124.429 48.7915 124.431 48.7891 124.433 48.7867C124.436 48.7843 124.438 48.7819 124.44 48.7795C124.443 48.7771 124.445 48.7746 124.447 48.7722C124.45 48.7698 124.452 48.7674 124.454 48.7651C124.457 48.7627 124.459 48.7603 124.461 48.7579C124.464 48.7555 124.466 48.7531 124.468 48.7507C124.47 48.7483 124.473 48.7459 124.475 48.7436C124.477 48.7412 124.48 48.7388 124.482 48.7364C124.484 48.7341 124.486 48.7317 124.489 48.7293C124.491 48.7269 124.493 48.7246 124.496 48.7222C124.498 48.7199 124.5 48.7175 124.502 48.7151C124.505 48.7128 124.507 48.7104 124.509 48.7081C124.511 48.7057 124.514 48.7034 124.516 48.701C124.518 48.6987 124.521 48.6963 124.523 48.694C124.525 48.6916 124.527 48.6893 124.53 48.6869C124.532 48.6846 124.534 48.6823 124.536 48.6799C124.539 48.6776 124.541 48.6753 124.543 48.6729C124.545 48.6706 124.548 48.6683 124.55 48.666C124.552 48.6636 124.554 48.6613 124.556 48.659C124.559 48.6567 124.561 48.6544 124.563 48.6521C124.565 48.6497 124.568 48.6474 124.57 48.6451C124.572 48.6428 124.574 48.6405 124.576 48.6382C124.579 48.6359 124.581 48.6336 124.583 48.6313C124.585 48.629 124.588 48.6267 124.59 48.6244C124.592 48.6221 124.594 48.6198 124.596 48.6176C124.599 48.6153 124.601 48.613 124.603 48.6107C124.605 48.6084 124.607 48.6061 124.61 48.6039C124.612 48.6016 124.614 48.5993 124.616 48.597C124.618 48.5948 124.621 48.5925 124.623 48.5902C124.625 48.588 124.627 48.5857 124.629 48.5835C124.631 48.5812 124.634 48.5789 124.636 48.5767C124.638 48.5744 124.64 48.5722 124.642 48.5699C124.644 48.5677 124.647 48.5654 124.649 48.5632C124.651 48.5609 124.653 48.5587 124.655 48.5564C124.657 48.5542 124.66 48.552 124.662 48.5497C124.664 48.5475 124.666 48.5453 124.668 48.543C124.67 48.5408 124.672 48.5386 124.675 48.5363C124.677 48.5341 124.679 48.5319 124.681 48.5297C124.683 48.5275 124.685 48.5252 124.687 48.523C124.69 48.5208 124.692 48.5186 124.694 48.5164C124.696 48.5142 124.698 48.512 124.7 48.5098C124.702 48.5076 124.704 48.5054 124.707 48.5032C124.709 48.501 124.711 48.4988 124.713 48.4966C124.715 48.4944 124.717 48.4922 124.719 48.49C124.721 48.4878 124.723 48.4856 124.726 48.4834C124.728 48.4813 124.73 48.4791 124.732 48.4769C124.734 48.4747 124.736 48.4725 124.738 48.4704C124.74 48.4682 124.742 48.466 124.744 48.4639C124.747 48.4617 124.749 48.4595 124.751 48.4574C124.753 48.4552 124.755 48.453 124.757 48.4509C124.759 48.4487 124.761 48.4466 124.763 48.4444C124.765 48.4423 124.767 48.4401 124.769 48.438C124.771 48.4358 124.774 48.4337 124.776 48.4315C124.778 48.4294 124.78 48.4272 124.782 48.4251C124.784 48.423 124.786 48.4208 124.788 48.4187C124.79 48.4166 124.792 48.4144 124.794 48.4123C124.796 48.4102 124.798 48.4081 124.8 48.406C124.802 48.4038 124.804 48.4017 124.806 48.3996C124.808 48.3975 124.81 48.3954 124.812 48.3932C124.814 48.3911 124.817 48.389 124.819 48.3869C124.821 48.3848 124.823 48.3827 124.825 48.3806C124.827 48.3785 124.829 48.3764 124.831 48.3743C124.833 48.3722 124.835 48.3701 124.837 48.368C124.839 48.3659 124.841 48.3639 124.843 48.3618C124.845 48.3597 124.847 48.3576 124.849 48.3555C124.851 48.3534 124.853 48.3514 124.855 48.3493C124.857 48.3472 124.859 48.3451 124.861 48.3431C124.863 48.341 124.865 48.3389 124.867 48.3369C124.869 48.3348 124.871 48.3327 124.873 48.3307C124.875 48.3286 124.877 48.3266 124.879 48.3245C124.881 48.3224 124.883 48.3204 124.885 48.3184C124.887 48.3163 124.889 48.3143 124.891 48.3122C124.892 48.3102 124.894 48.3081 124.896 48.3061C124.898 48.304 124.9 48.302 124.902 48.3C124.904 48.2979 124.906 48.2959 124.908 48.2939C124.91 48.2919 124.912 48.2898 124.914 48.2878C124.916 48.2858 124.918 48.2838 124.92 48.2817C124.922 48.2797 124.924 48.2777 124.926 48.2757C124.928 48.2737 124.93 48.2717 124.932 48.2697C124.933 48.2677 124.935 48.2657 124.937 48.2636C124.939 48.2616 124.941 48.2596 124.943 48.2576C124.945 48.2556 124.947 48.2537 124.949 48.2517C124.951 48.2497 124.953 48.2477 124.955 48.2457C124.957 48.2437 124.958 48.2417 124.96 48.2397C124.962 48.2378 124.964 48.2358 124.966 48.2338C124.968 48.2318 124.97 48.2298 124.972 48.2279C124.974 48.2259 124.976 48.2239 124.977 48.222C124.979 48.22 124.981 48.218 124.983 48.2161C124.985 48.2141 124.987 48.2121 124.989 48.2102C124.991 48.2082 124.993 48.2063 124.994 48.2043C124.996 48.2024 124.998 48.2004 125 48.1985C125.002 48.1965 125.004 48.1946 125.006 48.1927C125.008 48.1907 125.009 48.1888 125.011 48.1868C125.013 48.1849 125.015 48.183 125.017 48.181C125.019 48.1791 125.021 48.1772 125.022 48.1753C125.024 48.1733 125.026 48.1714 125.028 48.1695C125.03 48.1676 125.032 48.1657 125.034 48.1637C125.035 48.1618 125.037 48.1599 125.039 48.158C125.041 48.1561 125.043 48.1542 125.045 48.1523C125.046 48.1504 125.048 48.1485 125.05 48.1466C125.052 48.1447 125.054 48.1428 125.056 48.1409C125.057 48.139 125.059 48.1371 125.061 48.1352C125.063 48.1333 125.065 48.1314 125.066 48.1295C125.068 48.1277 125.07 48.1258 125.072 48.1239C125.074 48.122 125.076 48.1201 125.077 48.1183C125.079 48.1164 125.081 48.1145 125.083 48.1127C125.085 48.1108 125.086 48.1089 125.088 48.1071C125.09 48.1052 125.092 48.1033 125.094 48.1015C125.095 48.0996 125.097 48.0978 125.099 48.0959C125.101 48.0941 125.102 48.0922 125.104 48.0904C125.106 48.0885 125.108 48.0867 125.11 48.0848C125.111 48.083 125.113 48.0811 125.115 48.0793C125.117 48.0775 125.118 48.0756 125.12 48.0738C125.122 48.072 125.124 48.0701 125.125 48.0683C125.127 48.0665 125.129 48.0646 125.131 48.0628C125.133 48.061 125.134 48.0592 125.136 48.0574C125.138 48.0555 125.14 48.0537 125.141 48.0519C125.143 48.0501 125.145 48.0483 125.146 48.0465C125.148 48.0447 125.15 48.0429 125.152 48.0411C125.153 48.0393 125.155 48.0375 125.157 48.0357C125.159 48.0339 125.16 48.0321 125.162 48.0303C125.164 48.0285 125.166 48.0267 125.167 48.0249C125.169 48.0231 125.171 48.0214 125.172 48.0196C125.174 48.0178 125.176 48.016 125.178 48.0143C125.179 48.0125 125.181 48.0107 125.183 48.0089C125.184 48.0072 125.186 48.0054 125.188 48.0036C125.189 48.0019 125.191 48.0001 125.193 47.9983C125.195 47.9966 125.196 47.9948 125.198 47.9931C125.2 47.9913 125.201 47.9896 125.203 47.9878C125.205 47.9861 125.206 47.9843 125.208 47.9826C125.21 47.9808 125.211 47.9791 125.213 47.9773C125.215 47.9756 125.216 47.9739 125.218 47.9721C125.22 47.9704 125.221 47.9687 125.223 47.9669C125.225 47.9652 125.226 47.9635 125.228 47.9618C125.23 47.96 125.231 47.9583 125.233 47.9566C125.235 47.9549 125.236 47.9532 125.238 47.9514C125.24 47.9497 125.241 47.948 125.243 47.9463C125.245 47.9446 125.246 47.9429 125.248 47.9412C125.25 47.9395 125.251 47.9378 125.253 47.9361C125.254 47.9344 125.256 47.9327 125.258 47.931C125.259 47.9293 125.261 47.9276 125.263 47.9259C125.264 47.9242 125.266 47.9226 125.268 47.9209C125.269 47.9192 125.271 47.9175 125.272 47.9158C125.274 47.9141 125.276 47.9125 125.277 47.9108C125.279 47.9091 125.28 47.9075 125.282 47.9058C125.284 47.9041 125.285 47.9025 125.287 47.9008C125.288 47.8991 125.29 47.8975 125.292 47.8958C125.293 47.8942 125.295 47.8925 125.296 47.8909C125.298 47.8892 125.3 47.8876 125.301 47.8859C125.303 47.8843 125.304 47.8826 125.306 47.881C125.308 47.8793 125.309 47.8777 125.311 47.8761C125.312 47.8744 125.314 47.8728 125.315 47.8712C125.317 47.8695 125.319 47.8679 125.32 47.8663C125.322 47.8646 125.323 47.863 125.325 47.8614C125.326 47.8598 125.328 47.8582 125.329 47.8565C125.331 47.8549 125.333 47.8533 125.334 47.8517C125.336 47.8501 125.337 47.8485 125.339 47.8469C125.34 47.8453 125.342 47.8437 125.343 47.8421C125.345 47.8405 125.346 47.8389 125.348 47.8373C125.35 47.8357 125.351 47.8341 125.353 47.8325C125.354 47.8309 125.356 47.8293 125.357 47.8278C125.359 47.8262 125.36 47.8246 125.362 47.823C125.363 47.8214 125.365 47.8198 125.366 47.8183C125.368 47.8167 125.369 47.8151 125.371 47.8135C125.372 47.812 125.374 47.8104 125.375 47.8089C125.377 47.8073 125.378 47.8057 125.38 47.8042C125.381 47.8026 125.383 47.8011 125.384 47.7995C125.386 47.7979 125.387 47.7964 125.389 47.7948C125.39 47.7933 125.392 47.7917 125.393 47.7902C125.395 47.7887 125.396 47.7871 125.398 47.7856C125.399 47.784 125.401 47.7825 125.402 47.781C125.404 47.7794 125.405 47.7779 125.407 47.7764C125.408 47.7749 125.41 47.7733 125.411 47.7718C125.413 47.7703 125.414 47.7688 125.415 47.7673C125.417 47.7657 125.418 47.7642 125.42 47.7627C125.421 47.7612 125.423 47.7597 125.424 47.7582C125.426 47.7567 125.427 47.7552 125.429 47.7537C125.43 47.7522 125.431 47.7507 125.433 47.7492C125.434 47.7477 125.436 47.7462 125.437 47.7447C125.439 47.7432 125.44 47.7417 125.442 47.7402C125.443 47.7387 125.444 47.7372 125.446 47.7358C125.447 47.7343 125.449 47.7328 125.45 47.7313C125.452 47.7298 125.453 47.7284 125.454 47.7269C125.456 47.7254 125.457 47.724 125.459 47.7225C125.46 47.721 125.461 47.7196 125.463 47.7181C125.464 47.7166 125.466 47.7152 125.467 47.7137C125.468 47.7123 125.47 47.7108 125.471 47.7094C125.473 47.7079 125.474 47.7065 125.475 47.705C125.477 47.7036 125.478 47.7021 125.48 47.7007C125.481 47.6993 125.482 47.6978 125.484 47.6964C125.485 47.695 125.487 47.6935 125.488 47.6921C125.489 47.6907 125.491 47.6892 125.492 47.6878C125.493 47.6864 125.495 47.685 125.496 47.6835C125.497 47.6821 125.499 47.6807 125.5 47.6793C125.502 47.6779 125.503 47.6765 125.504 47.6751C125.506 47.6736 125.507 47.6722 125.508 47.6708C125.51 47.6694 125.511 47.668 125.512 47.6666C125.514 47.6652 125.515 47.6638 125.516 47.6624C125.518 47.6611 125.519 47.6597 125.52 47.6583C125.522 47.6569 125.523 47.6555 125.524 47.6541C125.526 47.6527 125.527 47.6514 125.528 47.65C125.53 47.6486 125.531 47.6472 125.532 47.6458C125.534 47.6445 125.535 47.6431 125.536 47.6417C125.538 47.6404 125.539 47.639 125.54 47.6376C125.542 47.6363 125.543 47.6349 125.544 47.6336C125.546 47.6322 125.547 47.6308 125.548 47.6295C125.549 47.6281 125.551 47.6268 125.552 47.6254C125.553 47.6241 125.555 47.6228 125.556 47.6214C125.557 47.6201 125.559 47.6187 125.56 47.6174C125.561 47.6161 125.562 47.6147 125.564 47.6134C125.565 47.6121 125.566 47.6107 125.568 47.6094C125.569 47.6081 125.57 47.6067 125.571 47.6054C125.573 47.6041 125.574 47.6028 125.575 47.6015C125.576 47.6002 125.578 47.5988 125.579 47.5975C125.58 47.5962 125.582 47.5949 125.583 47.5936C125.584 47.5923 125.585 47.591 125.587 47.5897C125.588 47.5884 125.589 47.5871 125.59 47.5858C125.592 47.5845 125.593 47.5832 125.594 47.5819C125.595 47.5806 125.596 47.5793 125.598 47.5781C125.599 47.5768 125.6 47.5755 125.601 47.5742C125.603 47.5729 125.604 47.5717 125.605 47.5704C125.606 47.5691 125.608 47.5678 125.609 47.5666C125.61 47.5653 125.611 47.564 125.612 47.5628C125.614 47.5615 125.615 47.5602 125.616 47.559C125.617 47.5577 125.619 47.5565 125.62 47.5552C125.621 47.5539 125.622 47.5527 125.623 47.5514C125.625 47.5502 125.626 47.549 125.627 47.5477C125.628 47.5465 125.629 47.5452 125.631 47.544C125.632 47.5427 125.633 47.5415 125.634 47.5403C125.635 47.539 125.637 47.5378 125.638 47.5366C125.639 47.5354 125.64 47.5341 125.641 47.5329C125.642 47.5317 125.644 47.5305 125.645 47.5292C125.646 47.528 125.647 47.5268 125.648 47.5256C125.649 47.5244 125.651 47.5232 125.652 47.522C125.653 47.5208 125.654 47.5195 125.655 47.5184C125.656 47.5171 125.658 47.5159 125.659 47.5147C125.66 47.5136 125.661 47.5124 125.662 47.5112C125.663 47.51 125.664 47.5088 125.666 47.5076C125.667 47.5064 125.668 47.5052 125.669 47.504C125.67 47.5029 125.671 47.5017 125.672 47.5005C125.674 47.4993 125.675 47.4982 125.676 47.497C125.677 47.4958 125.678 47.4946 125.679 47.4935C125.68 47.4923 125.681 47.4911 125.683 47.49C125.684 47.4888 125.685 47.4877 125.686 47.4865C125.687 47.4854 125.688 47.4842 125.689 47.483C125.69 47.4819 125.691 47.4807 125.693 47.4796C125.694 47.4784 125.695 47.4773 125.696 47.4762C125.697 47.475 125.698 47.4739 125.699 47.4728C125.7 47.4716 125.701 47.4705 125.702 47.4694C125.704 47.4682 125.705 47.4671 125.706 47.466C125.707 47.4648 125.708 47.4637 125.709 47.4626C125.71 47.4615 125.711 47.4604 125.712 47.4593C125.713 47.4581 125.714 47.457 125.715 47.4559C125.716 47.4548 125.718 47.4537 125.719 47.4526C125.72 47.4515 125.721 47.4504 125.722 47.4493C125.723 47.4482 125.724 47.4471 125.725 47.446C125.726 47.4449 125.727 47.4438 125.728 47.4427C125.729 47.4416 125.73 47.4405 125.731 47.4395C125.732 47.4384 125.733 47.4373 125.734 47.4362C125.735 47.4351 125.736 47.4341 125.737 47.433C125.739 47.4319 125.74 47.4309 125.741 47.4298C125.742 47.4287 125.743 47.4276 125.744 47.4266C125.745 47.4255 125.746 47.4245 125.747 47.4234C125.748 47.4223 125.749 47.4213 125.75 47.4202C125.751 47.4192 125.752 47.4181 125.753 47.4171C125.754 47.416 125.755 47.415 125.756 47.4139C125.757 47.4129 125.758 47.4119 125.759 47.4108C125.76 47.4098 125.761 47.4088 125.762 47.4077C125.763 47.4067 125.764 47.4057 125.765 47.4046C125.766 47.4036 125.767 47.4026 125.768 47.4016C125.769 47.4005 125.77 47.3995 125.771 47.3985L123.521 45.6461ZM120.112 49.1883C118.078 51.0795 115.594 53.4379 112.662 56.2622L114.843 58.0827C117.769 55.2646 120.241 52.9175 122.26 51.0403L120.112 49.1883ZM112.662 56.2622C109.719 59.0972 106.437 62.3937 102.818 66.1504L105.068 67.9028C108.671 64.1631 111.929 60.8902 114.843 58.0827L112.662 56.2622ZM102.845 66.1238C99.1036 69.7876 95.2232 73.706 91.2036 77.8787L93.4532 79.6311C97.4574 75.4744 101.32 71.574 105.042 67.9294L102.845 66.1238ZM91.2036 77.8787C87.4843 81.7397 83.6756 85.8034 79.7775 90.0697L82.0731 91.773C85.9573 87.522 89.7507 83.4747 93.4532 79.6311L91.2036 77.8787ZM79.8005 90.0452C75.7731 94.226 71.9166 98.4496 68.2311 102.716L70.5735 104.367C74.2283 100.136 78.0538 95.9461 82.0501 91.7976L79.8005 90.0452ZM68.2311 102.716C64.5449 106.983 61.1291 111.19 57.9841 115.337L60.4264 116.864C63.5372 112.763 66.9194 108.597 70.5735 104.367L68.2311 102.716ZM58.0067 115.308C54.7398 119.361 51.8419 123.252 49.3146 126.982L51.8332 128.403C54.3173 124.737 57.1736 120.901 60.4038 116.893L58.0067 115.308ZM49.5737 126.703C48.5938 127.487 47.5387 128.47 46.4096 129.643L48.6592 131.395C49.7366 130.277 50.7079 129.376 51.5741 128.682L49.5737 126.703ZM46.4988 129.558C45.2777 130.607 44.107 131.604 42.9868 132.548L45.0392 134.485C46.1663 133.535 47.3432 132.533 48.57 131.479L46.4988 129.558ZM43.0735 132.481C41.8105 133.38 40.6882 133.947 39.7058 134.239L40.7316 136.723C42.119 136.31 43.5262 135.567 44.9524 134.552L43.0735 132.481ZM39.7602 134.224C38.8669 134.455 38.0813 134.305 37.2341 133.645L35.3648 135.586C36.9315 136.806 38.7588 137.234 40.6772 136.739L39.7602 134.224ZM37.2341 133.645C36.4628 133.044 35.8275 132.26 35.3435 131.258L32.6654 132.21C33.3102 133.545 34.2048 134.682 35.3648 135.586L37.2341 133.645ZM35.2746 132.428C39.2787 126.31 43.6834 120.32 48.489 114.459L46.1051 112.858C41.2448 118.785 36.7878 124.846 32.7343 131.04L35.2746 132.428ZM48.5061 114.438C53.0924 108.586 57.9278 103.022 63.0123 97.7435L60.7627 95.9911C55.617 101.333 50.7255 106.962 46.0879 112.879L48.5061 114.438ZM63.0123 97.7435C65.596 95.0613 68.2994 92.4723 71.1225 89.9763L69.0229 88.0802C66.1478 90.6221 63.3944 93.2591 60.7627 95.9911L63.0123 97.7435ZM71.1593 89.9425C73.7738 87.4465 76.3977 85.0499 79.0309 82.7525L76.9443 80.845C74.2805 83.1691 71.6278 85.5921 68.9862 88.1139L71.1593 89.9425ZM79.1124 82.675C80.4725 81.2631 82.0549 79.833 83.8632 78.3854L81.8629 76.4058C79.979 77.9139 78.311 79.4192 76.8628 80.9226L79.1124 82.675ZM83.8544 78.3923C85.6504 76.9792 87.37 75.4188 89.0137 73.7124L86.7641 71.96C85.1983 73.5854 83.5673 75.0646 81.8716 76.3988L83.8544 78.3923ZM89.0137 73.7124C90.1735 72.5084 91.2516 71.1587 92.2502 69.6669L89.7239 68.2574C88.7981 69.6405 87.8108 70.8735 86.7641 71.96L89.0137 73.7124ZM92.2609 69.6506C93.1865 68.2187 93.9112 66.645 94.4402 64.9352L91.6187 64.1429C91.1482 65.6639 90.5113 67.0389 89.7132 68.2737L92.2609 69.6506ZM93.5448 63.3356C89.2655 61.7391 84.996 61.2338 80.7681 61.8544L81.357 64.4351C85.0034 63.8998 88.7118 64.324 92.5141 65.7426L93.5448 63.3356ZM80.8109 61.8487C76.8867 62.3168 72.6803 62.3178 68.1857 61.8426L67.9606 64.4391C72.6697 64.937 77.1228 64.9406 81.3143 64.4407L80.8109 61.8487ZM68.6042 61.9433C67.4748 61.5086 66.2121 61.2839 64.8455 61.2354L64.8496 63.848C65.9343 63.8865 66.822 64.0613 67.5422 64.3384L68.6042 61.9433ZM64.9543 61.2429C63.6079 61.1053 62.2616 60.9677 60.9152 60.8301L60.7016 63.4278C62.048 63.5654 63.3943 63.7029 64.7407 63.8405L64.9543 61.2429ZM60.9152 60.8301C59.5816 60.6939 58.3616 60.553 57.2545 60.4078L56.947 62.9944C58.0906 63.1445 59.3424 63.2889 60.7016 63.4278L60.9152 60.8301ZM57.3542 60.424C56.3203 60.2234 55.5201 59.8649 54.899 59.3811L53.0297 61.3216C54.0983 62.1541 55.3891 62.6954 56.8473 62.9783L57.3542 60.424ZM54.899 59.3811C54.1139 58.7695 53.8678 58.3333 53.8114 58.0859C53.771 57.9089 53.7832 57.6485 54.1787 57.2379L51.9291 55.4855C51.1211 56.3244 50.6833 57.3536 50.9464 58.5065C51.1934 59.5889 52.0042 60.5228 53.0297 61.3216L54.899 59.3811ZM54.1787 57.2379C54.9103 56.4785 56.2792 55.7908 58.5364 55.3117L57.7508 52.7663C55.2277 53.3019 53.2035 54.1626 51.9291 55.4855L54.1787 57.2379ZM58.4826 55.3221C60.5387 54.9601 62.0418 55.1844 63.1524 55.7846L64.5891 53.5619C62.6431 52.5101 60.3281 52.3115 57.8046 52.7559L58.4826 55.3221ZM63.1524 55.7846C64.8985 56.7283 66.7561 57.2272 68.7019 57.2545L68.6274 54.6401C67.2379 54.6206 65.8996 54.2702 64.5891 53.5619L63.1524 55.7846ZM68.5918 57.2492C70.2366 57.383 71.974 57.4065 73.8021 57.323L73.5332 54.7117C71.8254 54.7897 70.2275 54.7665 68.7375 54.6454L68.5918 57.2492ZM73.7049 57.3246C75.3425 57.3475 77.0422 57.4166 78.8045 57.5323L78.8989 54.9247C77.0844 54.8056 75.3281 54.734 73.6304 54.7102L73.7049 57.3246ZM78.889 57.5357C80.3193 57.5557 81.7484 57.8739 83.1902 58.513L84.4018 56.1798C82.5865 55.3751 80.7194 54.948 78.8144 54.9213L78.889 57.5357ZM84.3528 58.5747C86.8294 57.7551 89.1717 57.7895 91.4565 58.6278L92.4705 56.2147C89.448 55.1056 86.3453 55.0901 83.2393 56.118L84.3528 58.5747ZM91.4833 58.6374C94.2225 59.5887 96.9866 59.955 99.7573 59.7195L99.3622 57.1164C97.0705 57.3112 94.7703 57.0131 92.4437 56.2051L91.4833 58.6374ZM100.404 59.5157C105.927 56.2317 110.503 52.721 114.11 48.9763L111.86 47.2239C108.447 50.7673 104.072 54.1352 98.7156 57.3203L100.404 59.5157ZM114.11 48.9763C117.713 45.2357 121.219 40.3594 124.638 34.3744L122.022 33.1103C118.668 38.9808 115.278 43.6763 111.86 47.2239L114.11 48.9763ZM123.24 32.4353C119.628 32.5019 116.057 32.4193 112.527 32.1876L112.433 34.7953C116.056 35.0331 119.719 35.1177 123.42 35.0494L123.24 32.4353ZM112.517 32.187C108.706 31.9616 104.956 31.7833 101.266 31.6521L101.27 34.2648C104.934 34.3949 108.658 34.572 112.443 34.7959L112.517 32.187ZM101.304 31.654C97.4536 31.4262 93.7295 31.3938 90.133 31.5581L90.4019 34.1694C93.8771 34.0106 97.4867 34.0414 101.231 34.2629L101.304 31.654ZM90.1771 31.5566C86.3865 31.6266 82.6987 32.1564 79.1174 33.1455L80.0847 35.6466C83.412 34.7276 86.8351 34.2358 90.3577 34.1708L90.1771 31.5566ZM47.2668 85.2509C47.644 86.396 48.2708 87.5027 49.1209 88.5699L51.48 87.1123C50.8001 86.2587 50.3389 85.4244 50.0701 84.6083L47.2668 85.2509ZM48.9983 88.3878C49.531 89.3381 50.002 90.2379 50.4124 91.0876L53.0904 90.1356C52.6542 89.2324 52.158 88.2852 51.6026 87.2945L48.9983 88.3878ZM50.4124 91.0876C50.7692 91.8263 50.9948 92.6209 51.0831 93.4789L53.9957 93.3459C53.88 92.2225 53.5803 91.1499 53.0904 90.1356L50.4124 91.0876ZM51.0769 93.3604C51.0782 94.1811 50.7933 95.132 50.1134 96.2295L52.6859 97.5673C53.5291 96.2063 54.004 94.8333 54.0018 93.4643L51.0769 93.3604ZM51.1686 95.6001C49.5554 95.7712 47.88 95.8967 46.1424 95.976L46.4112 98.5873C48.2095 98.5052 49.9494 98.3751 51.6306 98.1967L51.1686 95.6001ZM46.1424 95.976C44.5488 96.0488 43.1523 95.6097 41.8744 94.6143L40.0051 96.5548C41.8653 98.0039 44.0269 98.6963 46.4112 98.5873L46.1424 95.976ZM42.3721 95.9011L44.7969 85.4884L41.9323 84.8554L39.5074 95.268L42.3721 95.9011ZM44.3648 86.1617C45.0932 85.5786 45.5764 85.5295 45.883 85.583L46.3285 83.0173C44.8263 82.7553 43.4821 83.2874 42.3644 84.1821L44.3648 86.1617ZM45.7728 85.5598C46.4562 85.7277 47.3104 85.9375 48.3355 86.1893L49.0014 83.6699C47.9764 83.4181 47.1221 83.2083 46.4387 83.0405L45.7728 85.5598Z" fill="#F0F0F0" mask="url(#path-1-outside-1_1172_1740)"/>
</svg>
