<svg width="144" height="139" viewBox="0 0 144 139" fill="none" xmlns="http://www.w3.org/2000/svg">
<mask id="path-1-outside-1_1172_1741" maskUnits="userSpaceOnUse" x="-2.73005" y="-1.90461" width="148.273" height="142.771" fill="black">
<rect fill="white" x="-2.73005" y="-1.90461" width="148.273" height="142.771"/>
<path d="M108.887 57.593C108.627 58.3017 109.281 59.2671 110.851 60.4894C112.42 61.7117 113.916 61.6931 115.341 60.4336C116.844 57.7771 117.563 55.0568 117.498 52.2727C117.333 49.5928 116.887 46.876 116.159 44.1222C115.432 41.3685 114.704 38.6147 113.976 35.861C113.249 33.1072 113.124 30.2762 113.601 27.3678C112.714 25.2186 112.148 22.9551 111.903 20.5775C111.779 18.2938 111.605 16.0622 111.38 13.8827C111.056 11.8073 110.57 9.789 109.924 7.8278C109.178 5.97072 107.96 4.38403 106.27 3.06772C105.184 2.22152 103.908 2.23003 102.443 3.09324C100.877 4.06057 99.3419 5.32511 97.8374 6.88686C97.035 7.71979 96.1426 8.75591 95.16 9.99522C94.2982 11.3285 93.4865 12.6098 92.7249 13.839C91.863 15.1723 91.0913 16.3025 90.4096 17.2294C89.7483 18.3545 89.3174 19.0212 89.1168 19.2294C88.6153 19.75 87.4619 20.9474 85.6566 22.8214C83.8717 24.8937 81.6354 27.4344 78.9478 30.4437C76.2602 33.453 73.1111 36.8318 69.5004 40.58C66.0105 44.4222 62.2596 48.4256 58.2477 52.5903C54.5368 56.4426 50.615 60.4041 46.4825 64.4747C42.4706 68.6394 38.3882 72.6579 34.2353 76.5304C30.0824 80.4029 25.9592 84.0252 21.8657 87.3974C17.8929 90.8635 14.0502 93.9753 10.3376 96.7328C9.65589 97.6598 8.76343 98.6959 7.66018 99.8411C6.67761 101.08 5.7452 102.268 4.86294 103.403C4.00108 104.736 3.46051 105.955 3.24123 107.06C3.04235 108.363 3.54641 109.485 4.75339 110.425C5.71898 111.177 6.88516 111.721 8.25194 112.057C14.4533 107.593 20.4533 102.79 26.2518 97.6482C32.0706 92.7043 37.5376 87.5773 42.6527 82.2674C45.2604 79.5603 47.7474 76.7593 50.1137 73.8642C52.5004 71.1673 54.7766 68.4754 56.9424 65.7886C58.3465 64.3309 59.7302 62.6752 61.0936 60.8212C62.3566 59.0715 63.7905 57.3636 65.3953 55.6978C66.4985 54.5525 67.7726 53.4492 69.2176 52.3878C70.5622 51.4306 72.0879 50.6144 73.7947 49.9392C76.0302 53.3208 77.1105 56.805 77.0358 60.3917C77.0818 64.0724 77.7006 67.926 78.8923 71.9525C79.4159 72.7248 79.7891 73.6534 80.0118 74.7381C80.3552 75.9168 80.6986 77.0956 81.042 78.2743C81.3854 79.4531 81.7186 80.5327 82.0416 81.5133C82.4854 82.5879 83.1296 83.4543 83.9745 84.1125C85.785 85.5228 87.292 85.6033 88.4956 84.3539C89.4985 83.3127 90.1088 81.6923 90.3264 79.4926C90.4436 77.397 89.9387 75.7279 88.8116 74.4855C87.6845 73.243 86.9892 71.8812 86.7257 70.4002C86.3619 69.0234 86.0984 67.5424 85.9352 65.9573C85.6717 64.4763 85.3478 62.9483 84.9636 61.3733C84.7001 59.8923 84.0549 58.4785 83.0281 57.1319C83.6469 54.5157 83.2312 52.0961 81.7811 49.873C80.4517 47.7439 79.7249 45.5376 79.6008 43.254C82.3852 37.9509 85.5326 33.4774 89.043 29.8333C92.5534 26.1892 97.3294 22.4376 103.371 18.5783C103.818 21.8426 104.426 25.0497 105.194 28.1997C105.983 31.5479 106.712 34.8491 107.38 38.1032C108.169 41.4514 108.726 44.7106 109.053 47.8808C109.5 51.145 109.445 54.3825 108.887 57.593ZM57.6771 92.3309C56.5518 92.1832 55.406 91.8374 54.2398 91.2935C53.094 90.9477 52.0086 90.6489 50.9835 90.3971C49.9584 90.1453 48.8934 90.0447 47.7884 90.0951C46.5832 90.2497 45.3583 90.7536 44.114 91.6067C44.1565 93.0978 44.2594 94.6359 44.4226 96.221C44.6062 98.0043 45.4826 99.507 47.0517 100.729L58.1668 97.0862C58.8485 96.1593 59.038 95.3046 58.7354 94.5221C58.4532 93.9378 58.1004 93.2074 57.6771 92.3309Z"/>
</mask>
<path d="M108.887 57.593C108.627 58.3017 109.281 59.2671 110.851 60.4894C112.42 61.7117 113.916 61.6931 115.341 60.4336C116.844 57.7771 117.563 55.0568 117.498 52.2727C117.333 49.5928 116.887 46.876 116.159 44.1222C115.432 41.3685 114.704 38.6147 113.976 35.861C113.249 33.1072 113.124 30.2762 113.601 27.3678C112.714 25.2186 112.148 22.9551 111.903 20.5775C111.779 18.2938 111.605 16.0622 111.38 13.8827C111.056 11.8073 110.57 9.789 109.924 7.8278C109.178 5.97072 107.96 4.38403 106.27 3.06772C105.184 2.22152 103.908 2.23003 102.443 3.09324C100.877 4.06057 99.3419 5.32511 97.8374 6.88686C97.035 7.71979 96.1426 8.75591 95.16 9.99522C94.2982 11.3285 93.4865 12.6098 92.7249 13.839C91.863 15.1723 91.0913 16.3025 90.4096 17.2294C89.7483 18.3545 89.3174 19.0212 89.1168 19.2294C88.6153 19.75 87.4619 20.9474 85.6566 22.8214C83.8717 24.8937 81.6354 27.4344 78.9478 30.4437C76.2602 33.453 73.1111 36.8318 69.5004 40.58C66.0105 44.4222 62.2596 48.4256 58.2477 52.5903C54.5368 56.4426 50.615 60.4041 46.4825 64.4747C42.4706 68.6394 38.3882 72.6579 34.2353 76.5304C30.0824 80.4029 25.9592 84.0252 21.8657 87.3974C17.8929 90.8635 14.0502 93.9753 10.3376 96.7328C9.65589 97.6598 8.76343 98.6959 7.66018 99.8411C6.67761 101.08 5.7452 102.268 4.86294 103.403C4.00108 104.736 3.46051 105.955 3.24123 107.06C3.04235 108.363 3.54641 109.485 4.75339 110.425C5.71898 111.177 6.88516 111.721 8.25194 112.057C14.4533 107.593 20.4533 102.79 26.2518 97.6482C32.0706 92.7043 37.5376 87.5773 42.6527 82.2674C45.2604 79.5603 47.7474 76.7593 50.1137 73.8642C52.5004 71.1673 54.7766 68.4754 56.9424 65.7886C58.3465 64.3309 59.7302 62.6752 61.0936 60.8212C62.3566 59.0715 63.7905 57.3636 65.3953 55.6978C66.4985 54.5525 67.7726 53.4492 69.2176 52.3878C70.5622 51.4306 72.0879 50.6144 73.7947 49.9392C76.0302 53.3208 77.1105 56.805 77.0358 60.3917C77.0818 64.0724 77.7006 67.926 78.8923 71.9525C79.4159 72.7248 79.7891 73.6534 80.0118 74.7381C80.3552 75.9168 80.6986 77.0956 81.042 78.2743C81.3854 79.4531 81.7186 80.5327 82.0416 81.5133C82.4854 82.5879 83.1296 83.4543 83.9745 84.1125C85.785 85.5228 87.292 85.6033 88.4956 84.3539C89.4985 83.3127 90.1088 81.6923 90.3264 79.4926C90.4436 77.397 89.9387 75.7279 88.8116 74.4855C87.6845 73.243 86.9892 71.8812 86.7257 70.4002C86.3619 69.0234 86.0984 67.5424 85.9352 65.9573C85.6717 64.4763 85.3478 62.9483 84.9636 61.3733C84.7001 59.8923 84.0549 58.4785 83.0281 57.1319C83.6469 54.5157 83.2312 52.0961 81.7811 49.873C80.4517 47.7439 79.7249 45.5376 79.6008 43.254C82.3852 37.9509 85.5326 33.4774 89.043 29.8333C92.5534 26.1892 97.3294 22.4376 103.371 18.5783C103.818 21.8426 104.426 25.0497 105.194 28.1997C105.983 31.5479 106.712 34.8491 107.38 38.1032C108.169 41.4514 108.726 44.7106 109.053 47.8808C109.5 51.145 109.445 54.3825 108.887 57.593ZM57.6771 92.3309C56.5518 92.1832 55.406 91.8374 54.2398 91.2935C53.094 90.9477 52.0086 90.6489 50.9835 90.3971C49.9584 90.1453 48.8934 90.0447 47.7884 90.0951C46.5832 90.2497 45.3583 90.7536 44.114 91.6067C44.1565 93.0978 44.2594 94.6359 44.4226 96.221C44.6062 98.0043 45.4826 99.507 47.0517 100.729L58.1668 97.0862C58.8485 96.1593 59.038 95.3046 58.7354 94.5221C58.4532 93.9378 58.1004 93.2074 57.6771 92.3309Z" fill="#F0F0F0"/>
<path d="M108.887 57.593L110.332 57.8452L110.315 57.948L110.279 58.0462L108.887 57.593ZM115.341 60.4336L116.652 61.0612L116.55 61.2408L116.391 61.3816L115.341 60.4336ZM117.498 52.2727L118.958 52.2546L118.96 52.277L118.96 52.2994L117.498 52.2727ZM116.159 44.1222L117.582 43.8717L117.582 43.8717L116.159 44.1222ZM113.601 27.3678L114.971 26.9601L115.103 27.2793L115.049 27.6095L113.601 27.3678ZM111.903 20.5775L110.447 20.644L110.444 20.6156L110.442 20.5872L111.903 20.5775ZM111.38 13.8827L112.828 13.7542L112.833 13.7851L112.837 13.8162L111.38 13.8827ZM109.924 7.8278L111.298 7.4312L111.313 7.46854L111.326 7.50651L109.924 7.8278ZM102.443 3.09324L101.578 2.00788L101.591 2.00012L101.603 1.99262L102.443 3.09324ZM95.16 9.99522L93.8862 9.30672L93.9182 9.25712L93.9552 9.21046L95.16 9.99522ZM92.7249 13.839L94.0112 14.5079L94.005 14.5178L93.9987 14.5275L92.7249 13.839ZM90.4096 17.2294L89.1088 16.5846L89.1404 16.5309L89.1775 16.4804L90.4096 17.2294ZM85.6566 22.8215L84.4842 21.9975L84.5072 21.9708L84.5318 21.9453L85.6566 22.8215ZM69.5004 40.58L68.3501 39.731L68.3627 39.7172L68.3756 39.7038L69.5004 40.58ZM46.4825 64.4747L45.3577 63.5985L45.3694 63.5864L45.3814 63.5745L46.4825 64.4747ZM21.8657 87.3974L20.8224 86.4436L20.8365 86.4313L20.851 86.4194L21.8657 87.3974ZM10.3376 96.7328L9.10552 95.9837L9.21827 95.8304L9.37595 95.7133L10.3376 96.7328ZM7.66018 99.8411L6.45537 99.0564L6.49298 99.009L6.53538 98.9649L7.66018 99.8411ZM4.86294 103.403L3.58908 102.714L3.6179 102.67L3.65072 102.628L4.86294 103.403ZM3.24123 107.06L1.79203 106.831L1.79591 106.806L1.80091 106.781L3.24123 107.06ZM8.25194 112.057L9.19719 113.088L8.63561 113.493L7.91897 113.317L8.25194 112.057ZM26.2518 97.6482L25.2005 96.7015L25.2109 96.6922L25.2216 96.6832L26.2518 97.6482ZM50.1137 73.8642L48.9206 73.065L48.9361 73.046L48.9525 73.0275L50.1137 73.8642ZM56.9423 65.7886L55.7438 64.996L55.7787 64.9527L55.8176 64.9124L56.9423 65.7886ZM61.0936 60.8212L62.3321 61.5615L62.3256 61.5703L61.0936 60.8212ZM69.2176 52.3878L68.2617 51.364L68.2699 51.358L68.2781 51.3522L69.2176 52.3878ZM73.7947 49.9392L73.1575 48.74L74.3563 48.2658L75.0458 49.3089L73.7947 49.9392ZM77.0358 60.3917L75.5734 60.3524L75.5732 60.333L75.5736 60.3136L77.0358 60.3917ZM78.8923 71.9525L77.6499 72.5959L77.5355 72.427L77.4795 72.2378L78.8923 71.9525ZM80.0118 74.7381L78.5974 75.0184L78.5836 74.9708L78.5737 74.9226L80.0118 74.7381ZM82.0416 81.5133L80.6721 81.921L80.6544 81.8783L80.64 81.8346L82.0416 81.5133ZM90.3264 79.4926L91.787 79.6114L91.7856 79.6361L91.7832 79.6607L90.3264 79.4926ZM88.8116 74.4855L87.6908 75.2833L88.8116 74.4855ZM86.7257 70.4002L88.1483 70.1497L88.1611 70.1981L88.1698 70.247L86.7257 70.4002ZM85.9352 65.9573L87.3793 65.8041L87.387 65.8473L87.3914 65.8908L85.9352 65.9573ZM84.9636 61.3733L83.5352 61.6012L83.5262 61.564L83.5195 61.5265L84.9636 61.3733ZM83.0281 57.1319L81.8304 57.8374L81.4668 57.3606L81.5967 56.8115L83.0281 57.1319ZM81.7811 49.873L80.5253 50.4963L80.518 50.4851L80.511 50.4738L81.7811 49.873ZM79.6008 43.254L78.1401 43.2637L78.1227 42.9439L78.2722 42.6591L79.6008 43.254ZM103.371 18.5783L102.489 17.5041L104.513 16.2112L104.822 18.4723L103.371 18.5783ZM105.194 28.1997L106.623 27.9718L106.625 27.9811L105.194 28.1997ZM107.38 38.1032L105.949 38.3218L105.945 38.3048L105.942 38.2877L107.38 38.1032ZM109.053 47.8808L107.601 47.9868L107.598 47.9671L107.596 47.9473L109.053 47.8808ZM57.6771 92.3309L57.8309 91.0376L58.6749 91.1483L59.0161 91.8549L57.6771 92.3309ZM54.2398 91.2935L54.6558 90.0565L54.7682 90.0904L54.8738 90.1397L54.2398 91.2935ZM47.7884 90.0952L47.5227 88.8009L47.5879 88.7925L47.654 88.7895L47.7884 90.0952ZM44.114 91.6067L42.652 91.5862L42.6336 90.9417L43.1943 90.5572L44.114 91.6067ZM44.4226 96.221L42.9663 96.2875L44.4226 96.221ZM47.0517 100.729L47.6043 101.959L46.7919 102.225L46.117 101.7L47.0517 100.729ZM58.1668 97.0862L59.3988 97.8353L59.1489 98.1752L58.7194 98.316L58.1668 97.0862ZM58.7354 94.5221L60.0744 94.0461L60.097 94.0929L60.1156 94.1409L58.7354 94.5221ZM110.279 58.0462C110.333 57.8969 110.216 57.8968 110.425 58.2052C110.633 58.5123 111.054 58.9497 111.785 59.5191L109.916 61.4597C109.078 60.8068 108.387 60.1504 107.94 59.492C107.495 58.8349 107.181 57.9979 107.496 57.1399L110.279 58.0462ZM111.785 59.5191C112.39 59.9901 112.805 60.0882 113.07 60.085C113.334 60.0817 113.74 59.9726 114.291 59.4856L116.391 61.3816C115.517 62.1541 114.462 62.6841 113.23 62.6994C111.998 62.7147 110.88 62.211 109.916 61.4597L111.785 59.5191ZM114.03 59.806C115.438 57.3174 116.095 54.8017 116.036 52.246L118.96 52.2994C119.03 55.3118 118.249 58.2367 116.652 61.0612L114.03 59.806ZM116.038 52.2909C115.878 49.6925 115.445 47.0535 114.737 44.3727L117.582 43.8717C118.329 46.6985 118.788 49.4931 118.958 52.2546L116.038 52.2909ZM114.737 44.3727C114.009 41.619 113.281 38.8652 112.554 36.1115L115.399 35.6105C116.127 38.3642 116.854 41.118 117.582 43.8717L114.737 44.3727ZM112.554 36.1115C111.781 33.1864 111.651 30.1881 112.154 27.1261L115.049 27.6095C114.596 30.3642 114.717 33.028 115.399 35.6105L112.554 36.1115ZM112.232 27.7755C111.297 25.5102 110.703 23.1316 110.447 20.644L113.359 20.5109C113.593 22.7787 114.132 24.9269 114.971 26.9601L112.232 27.7755ZM110.442 20.5872C110.319 18.3216 110.146 16.109 109.924 13.9492L112.837 13.8162C113.063 16.0155 113.239 18.266 113.364 20.5677L110.442 20.5872ZM109.932 14.0113C109.617 11.9989 109.147 10.0451 108.523 8.14909L111.326 7.50651C111.993 9.53294 112.494 11.6158 112.828 13.7542L109.932 14.0113ZM108.55 8.22441C107.893 6.58969 106.828 5.20043 105.335 4.03799L107.205 2.09745C109.092 3.56763 110.463 5.35177 111.298 7.4312L108.55 8.22441ZM105.335 4.03799C105.041 3.80902 104.802 3.74521 104.569 3.74676C104.297 3.74858 103.875 3.84432 103.282 4.19386L101.603 1.99262C102.475 1.47894 103.424 1.13883 104.427 1.13214C105.471 1.12519 106.412 1.48023 107.205 2.09745L105.335 4.03799ZM103.307 4.17861C101.856 5.07532 100.406 6.26448 98.9622 7.76307L96.7126 6.01067C98.2779 4.38574 99.8981 3.04582 101.578 2.00788L103.307 4.17861ZM98.9622 7.76307C98.1964 8.55803 97.331 9.56134 96.3648 10.78L93.9552 9.21046C94.9542 7.95048 95.8737 6.88156 96.7126 6.01067L98.9622 7.76307ZM96.4339 10.6837C95.5758 12.0112 94.7683 13.2859 94.0112 14.5079L91.4386 13.1701C92.2046 11.9338 93.0205 10.6459 93.8862 9.30672L96.4339 10.6837ZM93.9987 14.5275C93.1283 15.8742 92.3422 17.0258 91.6416 17.9785L89.1775 16.4804C89.8403 15.5791 90.5978 14.4705 91.451 13.1505L93.9987 14.5275ZM91.7104 17.8743C91.3758 18.4435 91.0931 18.9079 90.8643 19.2618C90.6564 19.5834 90.4387 19.901 90.2416 20.1056L87.992 18.3532C87.9792 18.3665 88.0029 18.3428 88.072 18.247C88.1344 18.1606 88.2154 18.0413 88.3166 17.8848C88.5188 17.572 88.7821 17.1405 89.1088 16.5846L91.7104 17.8743ZM90.2416 20.1056C90.2406 20.1066 90.2396 20.1077 90.2387 20.1087C90.2377 20.1097 90.2367 20.1107 90.2357 20.1118C90.2347 20.1128 90.2337 20.1138 90.2327 20.1149C90.2317 20.1159 90.2307 20.1169 90.2297 20.118C90.2287 20.119 90.2277 20.12 90.2267 20.1211C90.2257 20.1221 90.2247 20.1232 90.2237 20.1242C90.2227 20.1253 90.2217 20.1263 90.2207 20.1274C90.2197 20.1284 90.2186 20.1295 90.2176 20.1305C90.2166 20.1316 90.2156 20.1326 90.2146 20.1337C90.2135 20.1348 90.2125 20.1358 90.2115 20.1369C90.2104 20.138 90.2094 20.139 90.2084 20.1401C90.2073 20.1412 90.2063 20.1423 90.2053 20.1433C90.2042 20.1444 90.2032 20.1455 90.2021 20.1466C90.2011 20.1477 90.2001 20.1488 90.199 20.1499C90.198 20.1509 90.1969 20.152 90.1959 20.1531C90.1948 20.1542 90.1937 20.1553 90.1927 20.1564C90.1916 20.1575 90.1906 20.1586 90.1895 20.1597C90.1884 20.1608 90.1874 20.1619 90.1863 20.163C90.1852 20.1642 90.1842 20.1653 90.1831 20.1664C90.182 20.1675 90.1809 20.1686 90.1799 20.1697C90.1788 20.1709 90.1777 20.172 90.1766 20.1731C90.1755 20.1742 90.1744 20.1754 90.1733 20.1765C90.1723 20.1776 90.1712 20.1787 90.1701 20.1799C90.169 20.181 90.1679 20.1822 90.1668 20.1833C90.1657 20.1844 90.1646 20.1856 90.1635 20.1867C90.1624 20.1879 90.1613 20.189 90.1602 20.1902C90.1591 20.1913 90.1579 20.1925 90.1568 20.1936C90.1557 20.1948 90.1546 20.196 90.1535 20.1971C90.1524 20.1983 90.1512 20.1994 90.1501 20.2006C90.149 20.2018 90.1479 20.2029 90.1467 20.2041C90.1456 20.2053 90.1445 20.2065 90.1433 20.2076C90.1422 20.2088 90.1411 20.21 90.1399 20.2112C90.1388 20.2124 90.1377 20.2135 90.1365 20.2147C90.1354 20.2159 90.1342 20.2171 90.1331 20.2183C90.1319 20.2195 90.1308 20.2207 90.1296 20.2219C90.1285 20.2231 90.1273 20.2243 90.1262 20.2255C90.125 20.2267 90.1238 20.2279 90.1227 20.2291C90.1215 20.2303 90.1203 20.2315 90.1192 20.2327C90.118 20.2339 90.1168 20.2352 90.1157 20.2364C90.1145 20.2376 90.1133 20.2388 90.1121 20.24C90.111 20.2413 90.1098 20.2425 90.1086 20.2437C90.1074 20.2449 90.1062 20.2462 90.105 20.2474C90.1038 20.2486 90.1026 20.2499 90.1015 20.2511C90.1003 20.2524 90.0991 20.2536 90.0979 20.2548C90.0967 20.2561 90.0955 20.2573 90.0943 20.2586C90.0931 20.2598 90.0919 20.2611 90.0906 20.2623C90.0894 20.2636 90.0882 20.2648 90.087 20.2661C90.0858 20.2674 90.0846 20.2686 90.0834 20.2699C90.0822 20.2712 90.0809 20.2724 90.0797 20.2737C90.0785 20.275 90.0773 20.2762 90.076 20.2775C90.0748 20.2788 90.0736 20.2801 90.0723 20.2813C90.0711 20.2826 90.0699 20.2839 90.0686 20.2852C90.0674 20.2865 90.0662 20.2878 90.0649 20.2891C90.0637 20.2903 90.0624 20.2916 90.0612 20.2929C90.0599 20.2942 90.0587 20.2955 90.0574 20.2968C90.0562 20.2981 90.0549 20.2994 90.0537 20.3007C90.0524 20.302 90.0511 20.3034 90.0499 20.3047C90.0486 20.306 90.0473 20.3073 90.0461 20.3086C90.0448 20.3099 90.0435 20.3112 90.0423 20.3126C90.041 20.3139 90.0397 20.3152 90.0384 20.3165C90.0372 20.3179 90.0359 20.3192 90.0346 20.3205C90.0333 20.3218 90.032 20.3232 90.0307 20.3245C90.0295 20.3259 90.0282 20.3272 90.0269 20.3285C90.0256 20.3299 90.0243 20.3312 90.023 20.3326C90.0217 20.3339 90.0204 20.3353 90.0191 20.3366C90.0178 20.338 90.0165 20.3393 90.0152 20.3407C90.0139 20.342 90.0126 20.3434 90.0112 20.3448C90.0099 20.3461 90.0086 20.3475 90.0073 20.3489C90.006 20.3502 90.0047 20.3516 90.0033 20.353C90.002 20.3543 90.0007 20.3557 89.9994 20.3571C89.998 20.3585 89.9967 20.3599 89.9954 20.3612C89.994 20.3626 89.9927 20.364 89.9914 20.3654C89.99 20.3668 89.9887 20.3682 89.9873 20.3696C89.986 20.371 89.9847 20.3724 89.9833 20.3738C89.982 20.3752 89.9806 20.3766 89.9793 20.378C89.9779 20.3794 89.9766 20.3808 89.9752 20.3822C89.9738 20.3836 89.9725 20.385 89.9711 20.3864C89.9698 20.3878 89.9684 20.3893 89.967 20.3907C89.9657 20.3921 89.9643 20.3935 89.9629 20.3949C89.9615 20.3964 89.9602 20.3978 89.9588 20.3992C89.9574 20.4006 89.956 20.4021 89.9546 20.4035C89.9533 20.405 89.9519 20.4064 89.9505 20.4078C89.9491 20.4093 89.9477 20.4107 89.9463 20.4122C89.9449 20.4136 89.9435 20.4151 89.9421 20.4165C89.9407 20.418 89.9393 20.4194 89.9379 20.4209C89.9365 20.4223 89.9351 20.4238 89.9337 20.4252C89.9323 20.4267 89.9309 20.4282 89.9295 20.4296C89.9281 20.4311 89.9267 20.4326 89.9252 20.434C89.9238 20.4355 89.9224 20.437 89.921 20.4385C89.9196 20.4399 89.9181 20.4414 89.9167 20.4429C89.9153 20.4444 89.9139 20.4459 89.9124 20.4473C89.911 20.4488 89.9096 20.4503 89.9081 20.4518C89.9067 20.4533 89.9052 20.4548 89.9038 20.4563C89.9024 20.4578 89.9009 20.4593 89.8995 20.4608C89.898 20.4623 89.8966 20.4638 89.8951 20.4653C89.8937 20.4668 89.8922 20.4683 89.8908 20.4698C89.8893 20.4713 89.8878 20.4729 89.8864 20.4744C89.8849 20.4759 89.8835 20.4774 89.882 20.4789C89.8805 20.4805 89.879 20.482 89.8776 20.4835C89.8761 20.485 89.8746 20.4866 89.8732 20.4881C89.8717 20.4896 89.8702 20.4912 89.8687 20.4927C89.8672 20.4943 89.8658 20.4958 89.8643 20.4973C89.8628 20.4989 89.8613 20.5004 89.8598 20.502C89.8583 20.5035 89.8568 20.5051 89.8553 20.5066C89.8538 20.5082 89.8523 20.5097 89.8508 20.5113C89.8493 20.5129 89.8478 20.5144 89.8463 20.516C89.8448 20.5175 89.8433 20.5191 89.8418 20.5207C89.8403 20.5222 89.8388 20.5238 89.8372 20.5254C89.8357 20.527 89.8342 20.5286 89.8327 20.5301C89.8312 20.5317 89.8296 20.5333 89.8281 20.5349C89.8266 20.5365 89.8251 20.538 89.8235 20.5396C89.822 20.5412 89.8205 20.5428 89.8189 20.5444C89.8174 20.546 89.8158 20.5476 89.8143 20.5492C89.8128 20.5508 89.8112 20.5524 89.8097 20.554C89.8081 20.5556 89.8066 20.5572 89.805 20.5588C89.8035 20.5605 89.8019 20.5621 89.8004 20.5637C89.7988 20.5653 89.7972 20.5669 89.7957 20.5685C89.7941 20.5702 89.7926 20.5718 89.791 20.5734C89.7894 20.575 89.7879 20.5767 89.7863 20.5783C89.7847 20.5799 89.7831 20.5816 89.7816 20.5832C89.78 20.5848 89.7784 20.5865 89.7768 20.5881C89.7752 20.5898 89.7737 20.5914 89.7721 20.593C89.7705 20.5947 89.7689 20.5963 89.7673 20.598C89.7657 20.5996 89.7641 20.6013 89.7625 20.603C89.7609 20.6046 89.7593 20.6063 89.7577 20.6079C89.7561 20.6096 89.7545 20.6113 89.7529 20.6129C89.7513 20.6146 89.7497 20.6163 89.7481 20.6179C89.7465 20.6196 89.7449 20.6213 89.7433 20.623C89.7416 20.6246 89.74 20.6263 89.7384 20.628C89.7368 20.6297 89.7352 20.6314 89.7335 20.6331C89.7319 20.6347 89.7303 20.6364 89.7286 20.6381C89.727 20.6398 89.7254 20.6415 89.7237 20.6432C89.7221 20.6449 89.7205 20.6466 89.7188 20.6483C89.7172 20.65 89.7155 20.6517 89.7139 20.6534C89.7123 20.6551 89.7106 20.6569 89.7089 20.6586C89.7073 20.6603 89.7056 20.662 89.704 20.6637C89.7023 20.6654 89.7007 20.6672 89.699 20.6689C89.6974 20.6706 89.6957 20.6723 89.694 20.6741C89.6924 20.6758 89.6907 20.6775 89.689 20.6793C89.6874 20.681 89.6857 20.6827 89.684 20.6845C89.6823 20.6862 89.6807 20.6879 89.679 20.6897C89.6773 20.6914 89.6756 20.6932 89.6739 20.6949C89.6722 20.6967 89.6705 20.6984 89.6689 20.7002C89.6672 20.7019 89.6655 20.7037 89.6638 20.7055C89.6621 20.7072 89.6604 20.709 89.6587 20.7108C89.657 20.7125 89.6553 20.7143 89.6536 20.7161C89.6519 20.7178 89.6502 20.7196 89.6484 20.7214C89.6467 20.7232 89.645 20.7249 89.6433 20.7267C89.6416 20.7285 89.6399 20.7303 89.6382 20.7321C89.6364 20.7339 89.6347 20.7356 89.633 20.7374C89.6313 20.7392 89.6295 20.741 89.6278 20.7428C89.6261 20.7446 89.6243 20.7464 89.6226 20.7482C89.6209 20.75 89.6191 20.7518 89.6174 20.7536C89.6156 20.7554 89.6139 20.7572 89.6122 20.7591C89.6104 20.7609 89.6087 20.7627 89.6069 20.7645C89.6052 20.7663 89.6034 20.7681 89.6017 20.77C89.5999 20.7718 89.5981 20.7736 89.5964 20.7754C89.5946 20.7773 89.5929 20.7791 89.5911 20.7809C89.5893 20.7827 89.5876 20.7846 89.5858 20.7864C89.584 20.7883 89.5822 20.7901 89.5805 20.7919C89.5787 20.7938 89.5769 20.7956 89.5751 20.7975C89.5734 20.7993 89.5716 20.8012 89.5698 20.803C89.568 20.8049 89.5662 20.8067 89.5644 20.8086C89.5626 20.8105 89.5608 20.8123 89.559 20.8142C89.5573 20.816 89.5555 20.8179 89.5537 20.8198C89.5519 20.8216 89.55 20.8235 89.5482 20.8254C89.5464 20.8273 89.5446 20.8291 89.5428 20.831C89.541 20.8329 89.5392 20.8348 89.5374 20.8367C89.5356 20.8386 89.5338 20.8404 89.5319 20.8423C89.5301 20.8442 89.5283 20.8461 89.5265 20.848C89.5246 20.8499 89.5228 20.8518 89.521 20.8537C89.5192 20.8556 89.5173 20.8575 89.5155 20.8594C89.5136 20.8613 89.5118 20.8632 89.51 20.8651C89.5081 20.867 89.5063 20.869 89.5044 20.8709C89.5026 20.8728 89.5008 20.8747 89.4989 20.8766C89.4971 20.8785 89.4952 20.8805 89.4933 20.8824C89.4915 20.8843 89.4896 20.8862 89.4878 20.8882C89.4859 20.8901 89.4841 20.892 89.4822 20.894C89.4803 20.8959 89.4785 20.8978 89.4766 20.8998C89.4747 20.9017 89.4728 20.9037 89.471 20.9056C89.4691 20.9076 89.4672 20.9095 89.4653 20.9115C89.4635 20.9134 89.4616 20.9154 89.4597 20.9173C89.4578 20.9193 89.4559 20.9212 89.454 20.9232C89.4521 20.9252 89.4502 20.9271 89.4484 20.9291C89.4465 20.9311 89.4446 20.933 89.4427 20.935C89.4408 20.937 89.4389 20.9389 89.437 20.9409C89.4351 20.9429 89.4331 20.9449 89.4312 20.9469C89.4293 20.9488 89.4274 20.9508 89.4255 20.9528C89.4236 20.9548 89.4217 20.9568 89.4197 20.9588C89.4178 20.9608 89.4159 20.9628 89.414 20.9648C89.4121 20.9668 89.4101 20.9688 89.4082 20.9708C89.4063 20.9728 89.4043 20.9748 89.4024 20.9768C89.4005 20.9788 89.3985 20.9808 89.3966 20.9828C89.3947 20.9848 89.3927 20.9869 89.3908 20.9889C89.3888 20.9909 89.3869 20.9929 89.3849 20.9949C89.383 20.997 89.381 20.999 89.3791 21.001C89.3771 21.003 89.3752 21.0051 89.3732 21.0071C89.3712 21.0091 89.3693 21.0112 89.3673 21.0132C89.3654 21.0153 89.3634 21.0173 89.3614 21.0193C89.3595 21.0214 89.3575 21.0234 89.3555 21.0255C89.3535 21.0275 89.3516 21.0296 89.3496 21.0316C89.3476 21.0337 89.3456 21.0358 89.3436 21.0378C89.3416 21.0399 89.3397 21.0419 89.3377 21.044C89.3357 21.0461 89.3337 21.0481 89.3317 21.0502C89.3297 21.0523 89.3277 21.0543 89.3257 21.0564C89.3237 21.0585 89.3217 21.0606 89.3197 21.0627C89.3177 21.0647 89.3157 21.0668 89.3137 21.0689C89.3117 21.071 89.3097 21.0731 89.3076 21.0752C89.3056 21.0773 89.3036 21.0793 89.3016 21.0814C89.2996 21.0835 89.2976 21.0856 89.2955 21.0877C89.2935 21.0898 89.2915 21.0919 89.2895 21.094C89.2874 21.0962 89.2854 21.0983 89.2834 21.1004C89.2813 21.1025 89.2793 21.1046 89.2772 21.1067C89.2752 21.1088 89.2732 21.111 89.2711 21.1131C89.2691 21.1152 89.267 21.1173 89.265 21.1195C89.2629 21.1216 89.2609 21.1237 89.2588 21.1258C89.2568 21.128 89.2547 21.1301 89.2527 21.1322C89.2506 21.1344 89.2485 21.1365 89.2465 21.1387C89.2444 21.1408 89.2423 21.1429 89.2403 21.1451C89.2382 21.1472 89.2361 21.1494 89.2341 21.1515C89.232 21.1537 89.2299 21.1559 89.2278 21.158C89.2258 21.1602 89.2237 21.1623 89.2216 21.1645C89.2195 21.1667 89.2174 21.1688 89.2153 21.171C89.2132 21.1732 89.2112 21.1753 89.2091 21.1775C89.207 21.1797 89.2049 21.1818 89.2028 21.184C89.2007 21.1862 89.1986 21.1884 89.1965 21.1906C89.1944 21.1928 89.1923 21.1949 89.1902 21.1971C89.188 21.1993 89.1859 21.2015 89.1838 21.2037C89.1817 21.2059 89.1796 21.2081 89.1775 21.2103C89.1754 21.2125 89.1732 21.2147 89.1711 21.2169C89.169 21.2191 89.1669 21.2213 89.1647 21.2235C89.1626 21.2257 89.1605 21.2279 89.1583 21.2302C89.1562 21.2324 89.1541 21.2346 89.1519 21.2368C89.1498 21.239 89.1477 21.2413 89.1455 21.2435C89.1434 21.2457 89.1412 21.2479 89.1391 21.2502C89.1369 21.2524 89.1348 21.2546 89.1326 21.2569C89.1305 21.2591 89.1283 21.2613 89.1262 21.2636C89.124 21.2658 89.1218 21.2681 89.1197 21.2703C89.1175 21.2725 89.1153 21.2748 89.1132 21.277C89.111 21.2793 89.1088 21.2816 89.1067 21.2838C89.1045 21.2861 89.1023 21.2883 89.1001 21.2906C89.0979 21.2928 89.0958 21.2951 89.0936 21.2974C89.0914 21.2996 89.0892 21.3019 89.087 21.3042C89.0848 21.3064 89.0827 21.3087 89.0805 21.311C89.0783 21.3133 89.0761 21.3156 89.0739 21.3178C89.0717 21.3201 89.0695 21.3224 89.0673 21.3247C89.0651 21.327 89.0629 21.3293 89.0607 21.3316C89.0585 21.3338 89.0562 21.3361 89.054 21.3384C89.0518 21.3407 89.0496 21.343 89.0474 21.3453C89.0452 21.3476 89.0429 21.35 89.0407 21.3523C89.0385 21.3546 89.0363 21.3569 89.034 21.3592C89.0318 21.3615 89.0296 21.3638 89.0274 21.3661C89.0251 21.3685 89.0229 21.3708 89.0206 21.3731C89.0184 21.3754 89.0162 21.3777 89.0139 21.3801C89.0117 21.3824 89.0094 21.3847 89.0072 21.3871C89.0049 21.3894 89.0027 21.3917 89.0004 21.3941C88.9982 21.3964 88.9959 21.3987 88.9937 21.4011C88.9914 21.4034 88.9892 21.4058 88.9869 21.4081C88.9846 21.4105 88.9824 21.4128 88.9801 21.4152C88.9778 21.4175 88.9756 21.4199 88.9733 21.4223C88.971 21.4246 88.9687 21.427 88.9665 21.4293C88.9642 21.4317 88.9619 21.4341 88.9596 21.4364C88.9573 21.4388 88.9551 21.4412 88.9528 21.4436C88.9505 21.4459 88.9482 21.4483 88.9459 21.4507C88.9436 21.4531 88.9413 21.4555 88.939 21.4578C88.9367 21.4602 88.9344 21.4626 88.9321 21.465C88.9298 21.4674 88.9275 21.4698 88.9252 21.4722C88.9229 21.4746 88.9206 21.477 88.9183 21.4794C88.9159 21.4818 88.9136 21.4842 88.9113 21.4866C88.909 21.489 88.9067 21.4914 88.9044 21.4938C88.902 21.4962 88.8997 21.4986 88.8974 21.501C88.8951 21.5035 88.8927 21.5059 88.8904 21.5083C88.8881 21.5107 88.8857 21.5132 88.8834 21.5156C88.8811 21.518 88.8787 21.5204 88.8764 21.5229C88.874 21.5253 88.8717 21.5277 88.8693 21.5302C88.867 21.5326 88.8646 21.535 88.8623 21.5375C88.8599 21.5399 88.8576 21.5424 88.8552 21.5448C88.8529 21.5473 88.8505 21.5497 88.8481 21.5522C88.8458 21.5546 88.8434 21.5571 88.841 21.5595C88.8387 21.562 88.8363 21.5644 88.8339 21.5669C88.8316 21.5694 88.8292 21.5718 88.8268 21.5743C88.8244 21.5768 88.8221 21.5792 88.8197 21.5817C88.8173 21.5842 88.8149 21.5867 88.8125 21.5891C88.8101 21.5916 88.8077 21.5941 88.8054 21.5966C88.803 21.5991 88.8006 21.6016 88.7982 21.604C88.7958 21.6065 88.7934 21.609 88.791 21.6115C88.7886 21.614 88.7862 21.6165 88.7838 21.619C88.7814 21.6215 88.7789 21.624 88.7765 21.6265C88.7741 21.629 88.7717 21.6315 88.7693 21.634C88.7669 21.6365 88.7645 21.639 88.762 21.6416C88.7596 21.6441 88.7572 21.6466 88.7548 21.6491C88.7523 21.6516 88.7499 21.6541 88.7475 21.6567C88.745 21.6592 88.7426 21.6617 88.7402 21.6643C88.7377 21.6668 88.7353 21.6693 88.7328 21.6719C88.7304 21.6744 88.728 21.6769 88.7255 21.6795C88.7231 21.682 88.7206 21.6845 88.7182 21.6871C88.7157 21.6896 88.7133 21.6922 88.7108 21.6947C88.7084 21.6973 88.7059 21.6998 88.7034 21.7024C88.701 21.705 88.6985 21.7075 88.696 21.7101C88.6936 21.7126 88.6911 21.7152 88.6886 21.7178C88.6862 21.7203 88.6837 21.7229 88.6812 21.7255C88.6787 21.728 88.6763 21.7306 88.6738 21.7332C88.6713 21.7358 88.6688 21.7383 88.6663 21.7409C88.6638 21.7435 88.6613 21.7461 88.6589 21.7487C88.6564 21.7513 88.6539 21.7538 88.6514 21.7564C88.6489 21.759 88.6464 21.7616 88.6439 21.7642C88.6414 21.7668 88.6389 21.7694 88.6364 21.772C88.6339 21.7746 88.6313 21.7772 88.6288 21.7798C88.6263 21.7824 88.6238 21.785 88.6213 21.7877C88.6188 21.7903 88.6163 21.7929 88.6137 21.7955C88.6112 21.7981 88.6087 21.8007 88.6062 21.8034C88.6036 21.806 88.6011 21.8086 88.5986 21.8112C88.596 21.8139 88.5935 21.8165 88.591 21.8191C88.5884 21.8218 88.5859 21.8244 88.5834 21.827C88.5808 21.8297 88.5783 21.8323 88.5757 21.835C88.5732 21.8376 88.5706 21.8403 88.5681 21.8429C88.5655 21.8455 88.563 21.8482 88.5604 21.8509C88.5579 21.8535 88.5553 21.8562 88.5528 21.8588C88.5502 21.8615 88.5476 21.8641 88.5451 21.8668C88.5425 21.8695 88.5399 21.8721 88.5374 21.8748C88.5348 21.8775 88.5322 21.8801 88.5296 21.8828C88.5271 21.8855 88.5245 21.8882 88.5219 21.8908C88.5193 21.8935 88.5167 21.8962 88.5141 21.8989C88.5116 21.9016 88.509 21.9043 88.5064 21.907C88.5038 21.9096 88.5012 21.9123 88.4986 21.915C88.496 21.9177 88.4934 21.9204 88.4908 21.9231C88.4882 21.9258 88.4856 21.9285 88.483 21.9312C88.4804 21.9339 88.4778 21.9366 88.4752 21.9393C88.4726 21.9421 88.4699 21.9448 88.4673 21.9475C88.4647 21.9502 88.4621 21.9529 88.4595 21.9556C88.4569 21.9584 88.4542 21.9611 88.4516 21.9638C88.449 21.9665 88.4464 21.9693 88.4437 21.972C88.4411 21.9747 88.4385 21.9775 88.4358 21.9802C88.4332 21.9829 88.4305 21.9857 88.4279 21.9884C88.4253 21.9912 88.4226 21.9939 88.42 21.9966C88.4173 21.9994 88.4147 22.0021 88.412 22.0049C88.4094 22.0076 88.4067 22.0104 88.4041 22.0132C88.4014 22.0159 88.3988 22.0187 88.3961 22.0214C88.3934 22.0242 88.3908 22.027 88.3881 22.0297C88.3854 22.0325 88.3828 22.0353 88.3801 22.038C88.3774 22.0408 88.3748 22.0436 88.3721 22.0464C88.3694 22.0491 88.3667 22.0519 88.364 22.0547C88.3614 22.0575 88.3587 22.0603 88.356 22.0631C88.3533 22.0658 88.3506 22.0686 88.3479 22.0714C88.3453 22.0742 88.3426 22.077 88.3399 22.0798C88.3372 22.0826 88.3345 22.0854 88.3318 22.0882C88.3291 22.091 88.3264 22.0938 88.3237 22.0966C88.3209 22.0994 88.3182 22.1023 88.3155 22.1051C88.3128 22.1079 88.3101 22.1107 88.3074 22.1135C88.3047 22.1163 88.302 22.1192 88.2992 22.122C88.2965 22.1248 88.2938 22.1276 88.2911 22.1305C88.2883 22.1333 88.2856 22.1361 88.2829 22.139C88.2802 22.1418 88.2774 22.1446 88.2747 22.1475C88.272 22.1503 88.2692 22.1531 88.2665 22.156C88.2637 22.1588 88.261 22.1617 88.2583 22.1645C88.2555 22.1674 88.2528 22.1702 88.25 22.1731C88.2473 22.1759 88.2445 22.1788 88.2418 22.1817C88.239 22.1845 88.2362 22.1874 88.2335 22.1902C88.2307 22.1931 88.228 22.196 88.2252 22.1988C88.2224 22.2017 88.2197 22.2046 88.2169 22.2075C88.2141 22.2103 88.2113 22.2132 88.2086 22.2161C88.2058 22.219 88.203 22.2219 88.2002 22.2248C88.1975 22.2276 88.1947 22.2305 88.1919 22.2334C88.1891 22.2363 88.1863 22.2392 88.1835 22.2421C88.1807 22.245 88.1779 22.2479 88.1752 22.2508C88.1724 22.2537 88.1696 22.2566 88.1668 22.2595C88.164 22.2624 88.1612 22.2653 88.1584 22.2682C88.1556 22.2711 88.1527 22.2741 88.1499 22.277C88.1471 22.2799 88.1443 22.2828 88.1415 22.2857C88.1387 22.2887 88.1359 22.2916 88.133 22.2945C88.1302 22.2974 88.1274 22.3004 88.1246 22.3033C88.1217 22.3062 88.1189 22.3092 88.1161 22.3121C88.1133 22.315 88.1104 22.318 88.1076 22.3209C88.1048 22.3239 88.1019 22.3268 88.0991 22.3298C88.0962 22.3327 88.0934 22.3357 88.0906 22.3386C88.0877 22.3416 88.0849 22.3445 88.082 22.3475C88.0792 22.3504 88.0763 22.3534 88.0735 22.3564C88.0706 22.3593 88.0678 22.3623 88.0649 22.3653C88.062 22.3682 88.0592 22.3712 88.0563 22.3742C88.0534 22.3771 88.0506 22.3801 88.0477 22.3831C88.0448 22.3861 88.042 22.3891 88.0391 22.392C88.0362 22.395 88.0333 22.398 88.0305 22.401C88.0276 22.404 88.0247 22.407 88.0218 22.41C88.0189 22.413 88.016 22.416 88.0132 22.419C88.0103 22.422 88.0074 22.425 88.0045 22.428C88.0016 22.431 87.9987 22.434 87.9958 22.437C87.9929 22.44 87.99 22.443 87.9871 22.446C87.9842 22.449 87.9813 22.4521 87.9784 22.4551C87.9754 22.4581 87.9725 22.4611 87.9696 22.4642C87.9667 22.4672 87.9638 22.4702 87.9609 22.4732C87.958 22.4763 87.955 22.4793 87.9521 22.4823C87.9492 22.4854 87.9463 22.4884 87.9433 22.4915C87.9404 22.4945 87.9375 22.4975 87.9345 22.5006C87.9316 22.5036 87.9287 22.5067 87.9257 22.5097C87.9228 22.5128 87.9198 22.5158 87.9169 22.5189C87.9139 22.5219 87.911 22.525 87.9081 22.5281C87.9051 22.5311 87.9022 22.5342 87.8992 22.5373C87.8963 22.5403 87.8933 22.5434 87.8903 22.5465C87.8874 22.5495 87.8844 22.5526 87.8814 22.5557C87.8785 22.5588 87.8755 22.5618 87.8725 22.5649C87.8696 22.568 87.8666 22.5711 87.8636 22.5742C87.8607 22.5773 87.8577 22.5804 87.8547 22.5834C87.8517 22.5865 87.8487 22.5896 87.8458 22.5927C87.8428 22.5958 87.8398 22.5989 87.8368 22.602C87.8338 22.6051 87.8308 22.6082 87.8278 22.6114C87.8248 22.6145 87.8218 22.6176 87.8188 22.6207C87.8158 22.6238 87.8128 22.6269 87.8098 22.63C87.8068 22.6332 87.8038 22.6363 87.8008 22.6394C87.7978 22.6425 87.7948 22.6456 87.7918 22.6488C87.7888 22.6519 87.7858 22.655 87.7827 22.6582C87.7797 22.6613 87.7767 22.6644 87.7737 22.6676C87.7706 22.6707 87.7676 22.6739 87.7646 22.677C87.7616 22.6801 87.7585 22.6833 87.7555 22.6864C87.7525 22.6896 87.7494 22.6927 87.7464 22.6959C87.7434 22.699 87.7403 22.7022 87.7373 22.7054C87.7342 22.7085 87.7312 22.7117 87.7281 22.7148C87.7251 22.718 87.722 22.7212 87.719 22.7243C87.7159 22.7275 87.7129 22.7307 87.7098 22.7339C87.7067 22.737 87.7037 22.7402 87.7006 22.7434C87.6976 22.7466 87.6945 22.7498 87.6914 22.7529C87.6884 22.7561 87.6853 22.7593 87.6822 22.7625C87.6791 22.7657 87.6761 22.7689 87.673 22.7721C87.6699 22.7753 87.6668 22.7785 87.6637 22.7817C87.6607 22.7849 87.6576 22.7881 87.6545 22.7913C87.6514 22.7945 87.6483 22.7977 87.6452 22.8009C87.6421 22.8041 87.639 22.8073 87.6359 22.8106C87.6328 22.8138 87.6297 22.817 87.6266 22.8202C87.6235 22.8234 87.6204 22.8267 87.6173 22.8299C87.6142 22.8331 87.6111 22.8363 87.608 22.8396C87.6049 22.8428 87.6017 22.846 87.5986 22.8493C87.5955 22.8525 87.5924 22.8558 87.5893 22.859C87.5861 22.8622 87.583 22.8655 87.5799 22.8687C87.5768 22.872 87.5736 22.8752 87.5705 22.8785C87.5674 22.8817 87.5642 22.885 87.5611 22.8883C87.558 22.8915 87.5548 22.8948 87.5517 22.898C87.5485 22.9013 87.5454 22.9046 87.5422 22.9078C87.5391 22.9111 87.5359 22.9144 87.5328 22.9176C87.5296 22.9209 87.5265 22.9242 87.5233 22.9275C87.5202 22.9307 87.517 22.934 87.5138 22.9373C87.5107 22.9406 87.5075 22.9439 87.5043 22.9472C87.5012 22.9505 87.498 22.9537 87.4948 22.957C87.4917 22.9603 87.4885 22.9636 87.4853 22.9669C87.4821 22.9702 87.4789 22.9735 87.4758 22.9768C87.4726 22.9801 87.4694 22.9834 87.4662 22.9867C87.463 22.9901 87.4598 22.9934 87.4566 22.9967C87.4534 23 87.4502 23.0033 87.447 23.0066C87.4438 23.01 87.4406 23.0133 87.4374 23.0166C87.4342 23.0199 87.431 23.0233 87.4278 23.0266C87.4246 23.0299 87.4214 23.0332 87.4182 23.0366C87.415 23.0399 87.4118 23.0433 87.4085 23.0466C87.4053 23.0499 87.4021 23.0533 87.3989 23.0566C87.3957 23.06 87.3924 23.0633 87.3892 23.0667C87.386 23.07 87.3828 23.0734 87.3795 23.0767C87.3763 23.0801 87.3731 23.0834 87.3698 23.0868C87.3666 23.0902 87.3633 23.0935 87.3601 23.0969C87.3569 23.1003 87.3536 23.1036 87.3504 23.107C87.3471 23.1104 87.3439 23.1137 87.3406 23.1171C87.3374 23.1205 87.3341 23.1239 87.3308 23.1273C87.3276 23.1306 87.3243 23.134 87.3211 23.1374C87.3178 23.1408 87.3145 23.1442 87.3113 23.1476C87.308 23.151 87.3047 23.1544 87.3015 23.1578C87.2982 23.1612 87.2949 23.1646 87.2916 23.168C87.2884 23.1714 87.2851 23.1748 87.2818 23.1782C87.2785 23.1816 87.2752 23.185 87.2719 23.1884C87.2687 23.1918 87.2654 23.1952 87.2621 23.1986C87.2588 23.2021 87.2555 23.2055 87.2522 23.2089C87.2489 23.2123 87.2456 23.2158 87.2423 23.2192C87.239 23.2226 87.2357 23.226 87.2324 23.2295C87.2291 23.2329 87.2258 23.2363 87.2224 23.2398C87.2191 23.2432 87.2158 23.2467 87.2125 23.2501C87.2092 23.2536 87.2059 23.257 87.2026 23.2604C87.1992 23.2639 87.1959 23.2673 87.1926 23.2708C87.1893 23.2743 87.1859 23.2777 87.1826 23.2812C87.1793 23.2846 87.1759 23.2881 87.1726 23.2916C87.1692 23.295 87.1659 23.2985 87.1626 23.302C87.1592 23.3054 87.1559 23.3089 87.1525 23.3124C87.1492 23.3158 87.1458 23.3193 87.1425 23.3228C87.1391 23.3263 87.1358 23.3298 87.1324 23.3333C87.1291 23.3367 87.1257 23.3402 87.1223 23.3437C87.119 23.3472 87.1156 23.3507 87.1122 23.3542C87.1089 23.3577 87.1055 23.3612 87.1021 23.3647C87.0988 23.3682 87.0954 23.3717 87.092 23.3752C87.0886 23.3787 87.0853 23.3822 87.0819 23.3857C87.0785 23.3892 87.0751 23.3927 87.0717 23.3963C87.0683 23.3998 87.0649 23.4033 87.0616 23.4068C87.0582 23.4103 87.0548 23.4139 87.0514 23.4174C87.048 23.4209 87.0446 23.4244 87.0412 23.428C87.0378 23.4315 87.0344 23.435 87.031 23.4386C87.0276 23.4421 87.0242 23.4456 87.0207 23.4492C87.0173 23.4527 87.0139 23.4563 87.0105 23.4598C87.0071 23.4634 87.0037 23.4669 87.0002 23.4705C86.9968 23.474 86.9934 23.4776 86.99 23.4811C86.9865 23.4847 86.9831 23.4882 86.9797 23.4918C86.9762 23.4954 86.9728 23.4989 86.9694 23.5025C86.9659 23.5061 86.9625 23.5096 86.9591 23.5132C86.9556 23.5168 86.9522 23.5204 86.9487 23.5239C86.9453 23.5275 86.9418 23.5311 86.9384 23.5347C86.9349 23.5383 86.9315 23.5418 86.928 23.5454C86.9246 23.549 86.9211 23.5526 86.9176 23.5562C86.9142 23.5598 86.9107 23.5634 86.9073 23.567C86.9038 23.5706 86.9003 23.5742 86.8968 23.5778C86.8934 23.5814 86.8899 23.585 86.8864 23.5886C86.8829 23.5922 86.8795 23.5958 86.876 23.5994C86.8725 23.6031 86.869 23.6067 86.8655 23.6103C86.8621 23.6139 86.8586 23.6175 86.8551 23.6212C86.8516 23.6248 86.8481 23.6284 86.8446 23.632C86.8411 23.6357 86.8376 23.6393 86.8341 23.6429C86.8306 23.6466 86.8271 23.6502 86.8236 23.6538C86.8201 23.6575 86.8166 23.6611 86.8131 23.6648C86.8095 23.6684 86.806 23.6721 86.8025 23.6757C86.799 23.6794 86.7955 23.683 86.792 23.6867C86.7884 23.6903 86.7849 23.694 86.7814 23.6977L84.5318 21.9453C84.5353 21.9416 84.5388 21.9379 84.5424 21.9343C84.5459 21.9306 84.5494 21.927 84.5529 21.9233C84.5564 21.9197 84.5599 21.916 84.5634 21.9124C84.567 21.9087 84.5705 21.9051 84.574 21.9014C84.5775 21.8978 84.581 21.8942 84.5845 21.8905C84.588 21.8869 84.5915 21.8833 84.595 21.8796C84.5985 21.876 84.602 21.8724 84.6055 21.8688C84.609 21.8651 84.6125 21.8615 84.6159 21.8579C84.6194 21.8543 84.6229 21.8507 84.6264 21.847C84.6299 21.8434 84.6333 21.8398 84.6368 21.8362C84.6403 21.8326 84.6438 21.829 84.6472 21.8254C84.6507 21.8218 84.6542 21.8182 84.6577 21.8146C84.6611 21.811 84.6646 21.8074 84.668 21.8038C84.6715 21.8002 84.675 21.7966 84.6784 21.793C84.6819 21.7894 84.6853 21.7859 84.6888 21.7823C84.6922 21.7787 84.6957 21.7751 84.6991 21.7715C84.7026 21.768 84.706 21.7644 84.7095 21.7608C84.7129 21.7572 84.7163 21.7537 84.7198 21.7501C84.7232 21.7465 84.7266 21.743 84.7301 21.7394C84.7335 21.7358 84.7369 21.7323 84.7404 21.7287C84.7438 21.7252 84.7472 21.7216 84.7506 21.7181C84.7541 21.7145 84.7575 21.711 84.7609 21.7074C84.7643 21.7039 84.7677 21.7003 84.7711 21.6968C84.7746 21.6932 84.778 21.6897 84.7814 21.6862C84.7848 21.6826 84.7882 21.6791 84.7916 21.6756C84.795 21.672 84.7984 21.6685 84.8018 21.665C84.8052 21.6615 84.8086 21.6579 84.812 21.6544C84.8153 21.6509 84.8187 21.6474 84.8221 21.6439C84.8255 21.6403 84.8289 21.6368 84.8323 21.6333C84.8357 21.6298 84.839 21.6263 84.8424 21.6228C84.8458 21.6193 84.8492 21.6158 84.8525 21.6123C84.8559 21.6088 84.8593 21.6053 84.8626 21.6018C84.866 21.5983 84.8694 21.5948 84.8727 21.5913C84.8761 21.5878 84.8795 21.5843 84.8828 21.5809C84.8862 21.5774 84.8895 21.5739 84.8929 21.5704C84.8962 21.5669 84.8996 21.5634 84.9029 21.56C84.9063 21.5565 84.9096 21.553 84.913 21.5496C84.9163 21.5461 84.9196 21.5426 84.923 21.5392C84.9263 21.5357 84.9297 21.5322 84.933 21.5288C84.9363 21.5253 84.9396 21.5219 84.943 21.5184C84.9463 21.5149 84.9496 21.5115 84.9529 21.508C84.9563 21.5046 84.9596 21.5012 84.9629 21.4977C84.9662 21.4943 84.9695 21.4908 84.9728 21.4874C84.9762 21.4839 84.9795 21.4805 84.9828 21.4771C84.9861 21.4736 84.9894 21.4702 84.9927 21.4668C84.996 21.4634 84.9993 21.4599 85.0026 21.4565C85.0059 21.4531 85.0092 21.4497 85.0125 21.4462C85.0158 21.4428 85.0191 21.4394 85.0223 21.436C85.0256 21.4326 85.0289 21.4292 85.0322 21.4258C85.0355 21.4224 85.0388 21.419 85.042 21.4156C85.0453 21.4122 85.0486 21.4088 85.0519 21.4054C85.0551 21.402 85.0584 21.3986 85.0617 21.3952C85.0649 21.3918 85.0682 21.3884 85.0715 21.385C85.0747 21.3816 85.078 21.3782 85.0812 21.3749C85.0845 21.3715 85.0878 21.3681 85.091 21.3647C85.0943 21.3613 85.0975 21.358 85.1008 21.3546C85.104 21.3512 85.1073 21.3479 85.1105 21.3445C85.1137 21.3411 85.117 21.3378 85.1202 21.3344C85.1235 21.331 85.1267 21.3277 85.1299 21.3243C85.1332 21.321 85.1364 21.3176 85.1396 21.3143C85.1428 21.3109 85.1461 21.3076 85.1493 21.3042C85.1525 21.3009 85.1557 21.2975 85.1589 21.2942C85.1622 21.2909 85.1654 21.2875 85.1686 21.2842C85.1718 21.2808 85.175 21.2775 85.1782 21.2742C85.1814 21.2709 85.1846 21.2675 85.1878 21.2642C85.191 21.2609 85.1942 21.2576 85.1974 21.2542C85.2006 21.2509 85.2038 21.2476 85.207 21.2443C85.2102 21.241 85.2134 21.2377 85.2166 21.2343C85.2198 21.231 85.223 21.2277 85.2262 21.2244C85.2293 21.2211 85.2325 21.2178 85.2357 21.2145C85.2389 21.2112 85.2421 21.2079 85.2452 21.2046C85.2484 21.2013 85.2516 21.1981 85.2547 21.1948C85.2579 21.1915 85.2611 21.1882 85.2642 21.1849C85.2674 21.1816 85.2706 21.1783 85.2737 21.1751C85.2769 21.1718 85.28 21.1685 85.2832 21.1652C85.2863 21.162 85.2895 21.1587 85.2926 21.1554C85.2958 21.1522 85.2989 21.1489 85.3021 21.1456C85.3052 21.1424 85.3084 21.1391 85.3115 21.1359C85.3146 21.1326 85.3178 21.1293 85.3209 21.1261C85.324 21.1228 85.3272 21.1196 85.3303 21.1163C85.3334 21.1131 85.3365 21.1098 85.3397 21.1066C85.3428 21.1034 85.3459 21.1001 85.349 21.0969C85.3521 21.0936 85.3553 21.0904 85.3584 21.0872C85.3615 21.0839 85.3646 21.0807 85.3677 21.0775C85.3708 21.0743 85.3739 21.071 85.377 21.0678C85.3801 21.0646 85.3832 21.0614 85.3863 21.0582C85.3894 21.0549 85.3925 21.0517 85.3956 21.0485C85.3987 21.0453 85.4018 21.0421 85.4049 21.0389C85.408 21.0357 85.4111 21.0325 85.4141 21.0293C85.4172 21.0261 85.4203 21.0229 85.4234 21.0197C85.4265 21.0165 85.4295 21.0133 85.4326 21.0101C85.4357 21.0069 85.4388 21.0037 85.4418 21.0005C85.4449 20.9974 85.448 20.9942 85.451 20.991C85.4541 20.9878 85.4571 20.9846 85.4602 20.9815C85.4633 20.9783 85.4663 20.9751 85.4694 20.9719C85.4724 20.9688 85.4755 20.9656 85.4785 20.9624C85.4816 20.9593 85.4846 20.9561 85.4877 20.953C85.4907 20.9498 85.4938 20.9466 85.4968 20.9435C85.4998 20.9403 85.5029 20.9372 85.5059 20.934C85.5089 20.9309 85.512 20.9277 85.515 20.9246C85.518 20.9215 85.521 20.9183 85.5241 20.9152C85.5271 20.912 85.5301 20.9089 85.5331 20.9058C85.5362 20.9026 85.5392 20.8995 85.5422 20.8964C85.5452 20.8932 85.5482 20.8901 85.5512 20.887C85.5542 20.8839 85.5572 20.8807 85.5602 20.8776C85.5632 20.8745 85.5662 20.8714 85.5692 20.8683C85.5722 20.8652 85.5752 20.8621 85.5782 20.8589C85.5812 20.8558 85.5842 20.8527 85.5872 20.8496C85.5902 20.8465 85.5932 20.8434 85.5962 20.8403C85.5991 20.8372 85.6021 20.8341 85.6051 20.831C85.6081 20.828 85.6111 20.8249 85.614 20.8218C85.617 20.8187 85.62 20.8156 85.6229 20.8125C85.6259 20.8094 85.6289 20.8064 85.6318 20.8033C85.6348 20.8002 85.6378 20.7971 85.6407 20.7941C85.6437 20.791 85.6467 20.7879 85.6496 20.7849C85.6526 20.7818 85.6555 20.7787 85.6585 20.7757C85.6614 20.7726 85.6643 20.7695 85.6673 20.7665C85.6702 20.7634 85.6732 20.7604 85.6761 20.7573C85.6791 20.7543 85.682 20.7512 85.6849 20.7482C85.6879 20.7451 85.6908 20.7421 85.6937 20.739C85.6967 20.736 85.6996 20.733 85.7025 20.7299C85.7054 20.7269 85.7084 20.7239 85.7113 20.7208C85.7142 20.7178 85.7171 20.7148 85.72 20.7118C85.7229 20.7087 85.7258 20.7057 85.7288 20.7027C85.7317 20.6997 85.7346 20.6966 85.7375 20.6936C85.7404 20.6906 85.7433 20.6876 85.7462 20.6846C85.7491 20.6816 85.752 20.6786 85.7549 20.6756C85.7578 20.6726 85.7607 20.6696 85.7636 20.6666C85.7664 20.6636 85.7693 20.6606 85.7722 20.6576C85.7751 20.6546 85.778 20.6516 85.7809 20.6486C85.7837 20.6456 85.7866 20.6426 85.7895 20.6396C85.7924 20.6367 85.7952 20.6337 85.7981 20.6307C85.801 20.6277 85.8038 20.6247 85.8067 20.6218C85.8096 20.6188 85.8124 20.6158 85.8153 20.6129C85.8182 20.6099 85.821 20.6069 85.8239 20.604C85.8267 20.601 85.8296 20.598 85.8324 20.5951C85.8353 20.5921 85.8381 20.5892 85.841 20.5862C85.8438 20.5833 85.8466 20.5803 85.8495 20.5774C85.8523 20.5744 85.8552 20.5715 85.858 20.5685C85.8608 20.5656 85.8637 20.5626 85.8665 20.5597C85.8693 20.5568 85.8721 20.5538 85.875 20.5509C85.8778 20.548 85.8806 20.545 85.8834 20.5421C85.8863 20.5392 85.8891 20.5363 85.8919 20.5333C85.8947 20.5304 85.8975 20.5275 85.9003 20.5246C85.9031 20.5217 85.906 20.5187 85.9088 20.5158C85.9116 20.5129 85.9144 20.51 85.9172 20.5071C85.92 20.5042 85.9228 20.5013 85.9256 20.4984C85.9283 20.4955 85.9311 20.4926 85.9339 20.4897C85.9367 20.4868 85.9395 20.4839 85.9423 20.481C85.9451 20.4781 85.9479 20.4752 85.9506 20.4724C85.9534 20.4695 85.9562 20.4666 85.959 20.4637C85.9617 20.4608 85.9645 20.4579 85.9673 20.4551C85.9701 20.4522 85.9728 20.4493 85.9756 20.4464C85.9783 20.4436 85.9811 20.4407 85.9839 20.4378C85.9866 20.435 85.9894 20.4321 85.9922 20.4293C85.9949 20.4264 85.9977 20.4235 86.0004 20.4207C86.0032 20.4178 86.0059 20.415 86.0087 20.4121C86.0114 20.4093 86.0141 20.4064 86.0169 20.4036C86.0196 20.4007 86.0224 20.3979 86.0251 20.3951C86.0278 20.3922 86.0306 20.3894 86.0333 20.3866C86.036 20.3837 86.0387 20.3809 86.0415 20.3781C86.0442 20.3752 86.0469 20.3724 86.0496 20.3696C86.0524 20.3668 86.0551 20.3639 86.0578 20.3611C86.0605 20.3583 86.0632 20.3555 86.0659 20.3527C86.0686 20.3499 86.0713 20.347 86.0741 20.3442C86.0768 20.3414 86.0795 20.3386 86.0822 20.3358C86.0849 20.333 86.0876 20.3302 86.0903 20.3274C86.093 20.3246 86.0957 20.3218 86.0983 20.319C86.101 20.3162 86.1037 20.3134 86.1064 20.3107C86.1091 20.3079 86.1118 20.3051 86.1144 20.3023C86.1171 20.2995 86.1198 20.2967 86.1225 20.294C86.1252 20.2912 86.1278 20.2884 86.1305 20.2856C86.1332 20.2829 86.1358 20.2801 86.1385 20.2773C86.1412 20.2746 86.1438 20.2718 86.1465 20.269C86.1492 20.2663 86.1518 20.2635 86.1545 20.2608C86.1571 20.258 86.1598 20.2552 86.1624 20.2525C86.1651 20.2497 86.1677 20.247 86.1704 20.2442C86.173 20.2415 86.1757 20.2388 86.1783 20.236C86.1809 20.2333 86.1836 20.2305 86.1862 20.2278C86.1889 20.2251 86.1915 20.2223 86.1941 20.2196C86.1968 20.2169 86.1994 20.2141 86.202 20.2114C86.2046 20.2087 86.2073 20.206 86.2099 20.2032C86.2125 20.2005 86.2151 20.1978 86.2177 20.1951C86.2203 20.1924 86.223 20.1897 86.2256 20.1869C86.2282 20.1842 86.2308 20.1815 86.2334 20.1788C86.236 20.1761 86.2386 20.1734 86.2412 20.1707C86.2438 20.168 86.2464 20.1653 86.249 20.1626C86.2516 20.1599 86.2542 20.1572 86.2568 20.1546C86.2594 20.1519 86.262 20.1492 86.2645 20.1465C86.2671 20.1438 86.2697 20.1411 86.2723 20.1384C86.2749 20.1358 86.2775 20.1331 86.28 20.1304C86.2826 20.1277 86.2852 20.1251 86.2878 20.1224C86.2903 20.1197 86.2929 20.1171 86.2955 20.1144C86.298 20.1117 86.3006 20.1091 86.3032 20.1064C86.3057 20.1038 86.3083 20.1011 86.3108 20.0985C86.3134 20.0958 86.3159 20.0931 86.3185 20.0905C86.321 20.0878 86.3236 20.0852 86.3261 20.0826C86.3287 20.0799 86.3312 20.0773 86.3338 20.0746C86.3363 20.072 86.3388 20.0694 86.3414 20.0667C86.3439 20.0641 86.3464 20.0615 86.349 20.0588C86.3515 20.0562 86.354 20.0536 86.3566 20.051C86.3591 20.0483 86.3616 20.0457 86.3641 20.0431C86.3667 20.0405 86.3692 20.0379 86.3717 20.0353C86.3742 20.0326 86.3767 20.03 86.3792 20.0274C86.3817 20.0248 86.3843 20.0222 86.3868 20.0196C86.3893 20.017 86.3918 20.0144 86.3943 20.0118C86.3968 20.0092 86.3993 20.0066 86.4018 20.004C86.4043 20.0014 86.4068 19.9989 86.4093 19.9963C86.4117 19.9937 86.4142 19.9911 86.4167 19.9885C86.4192 19.9859 86.4217 19.9834 86.4242 19.9808C86.4266 19.9782 86.4291 19.9756 86.4316 19.9731C86.4341 19.9705 86.4366 19.9679 86.439 19.9654C86.4415 19.9628 86.444 19.9602 86.4464 19.9577C86.4489 19.9551 86.4514 19.9526 86.4538 19.95C86.4563 19.9474 86.4588 19.9449 86.4612 19.9423C86.4637 19.9398 86.4661 19.9372 86.4686 19.9347C86.471 19.9321 86.4735 19.9296 86.4759 19.9271C86.4784 19.9245 86.4808 19.922 86.4832 19.9195C86.4857 19.9169 86.4881 19.9144 86.4906 19.9119C86.493 19.9093 86.4954 19.9068 86.4979 19.9043C86.5003 19.9017 86.5027 19.8992 86.5052 19.8967C86.5076 19.8942 86.51 19.8917 86.5124 19.8892C86.5149 19.8866 86.5173 19.8841 86.5197 19.8816C86.5221 19.8791 86.5245 19.8766 86.5269 19.8741C86.5293 19.8716 86.5318 19.8691 86.5342 19.8666C86.5366 19.8641 86.539 19.8616 86.5414 19.8591C86.5438 19.8566 86.5462 19.8541 86.5486 19.8516C86.551 19.8492 86.5534 19.8467 86.5558 19.8442C86.5581 19.8417 86.5605 19.8392 86.5629 19.8367C86.5653 19.8343 86.5677 19.8318 86.5701 19.8293C86.5725 19.8268 86.5748 19.8244 86.5772 19.8219C86.5796 19.8194 86.582 19.817 86.5843 19.8145C86.5867 19.812 86.5891 19.8096 86.5914 19.8071C86.5938 19.8047 86.5962 19.8022 86.5985 19.7998C86.6009 19.7973 86.6033 19.7949 86.6056 19.7924C86.608 19.79 86.6103 19.7875 86.6127 19.7851C86.615 19.7826 86.6174 19.7802 86.6197 19.7778C86.6221 19.7753 86.6244 19.7729 86.6268 19.7705C86.6291 19.768 86.6315 19.7656 86.6338 19.7632C86.6361 19.7608 86.6385 19.7583 86.6408 19.7559C86.6431 19.7535 86.6455 19.7511 86.6478 19.7486C86.6501 19.7462 86.6524 19.7438 86.6548 19.7414C86.6571 19.739 86.6594 19.7366 86.6617 19.7342C86.664 19.7318 86.6663 19.7294 86.6687 19.727C86.671 19.7246 86.6733 19.7222 86.6756 19.7198C86.6779 19.7174 86.6802 19.715 86.6825 19.7126C86.6848 19.7102 86.6871 19.7078 86.6894 19.7054C86.6917 19.7031 86.694 19.7007 86.6963 19.6983C86.6986 19.6959 86.7009 19.6935 86.7032 19.6912C86.7055 19.6888 86.7077 19.6864 86.71 19.684C86.7123 19.6817 86.7146 19.6793 86.7169 19.6769C86.7191 19.6746 86.7214 19.6722 86.7237 19.6699C86.726 19.6675 86.7282 19.6651 86.7305 19.6628C86.7328 19.6604 86.735 19.6581 86.7373 19.6557C86.7396 19.6534 86.7418 19.651 86.7441 19.6487C86.7463 19.6463 86.7486 19.644 86.7508 19.6417C86.7531 19.6393 86.7553 19.637 86.7576 19.6347C86.7598 19.6323 86.7621 19.63 86.7643 19.6277C86.7666 19.6253 86.7688 19.623 86.771 19.6207C86.7733 19.6184 86.7755 19.6161 86.7778 19.6137C86.78 19.6114 86.7822 19.6091 86.7844 19.6068C86.7867 19.6045 86.7889 19.6022 86.7911 19.5999C86.7933 19.5976 86.7956 19.5952 86.7978 19.5929C86.8 19.5906 86.8022 19.5883 86.8044 19.586C86.8066 19.5837 86.8089 19.5814 86.8111 19.5792C86.8133 19.5769 86.8155 19.5746 86.8177 19.5723C86.8199 19.57 86.8221 19.5677 86.8243 19.5654C86.8265 19.5632 86.8287 19.5609 86.8309 19.5586C86.8331 19.5563 86.8352 19.554 86.8374 19.5518C86.8396 19.5495 86.8418 19.5472 86.844 19.545C86.8462 19.5427 86.8483 19.5404 86.8505 19.5382C86.8527 19.5359 86.8549 19.5337 86.8571 19.5314C86.8592 19.5292 86.8614 19.5269 86.8636 19.5246C86.8657 19.5224 86.8679 19.5201 86.8701 19.5179C86.8722 19.5157 86.8744 19.5134 86.8766 19.5112C86.8787 19.5089 86.8809 19.5067 86.883 19.5045C86.8852 19.5022 86.8873 19.5 86.8895 19.4978C86.8916 19.4955 86.8938 19.4933 86.8959 19.4911C86.898 19.4889 86.9002 19.4866 86.9023 19.4844C86.9045 19.4822 86.9066 19.48 86.9087 19.4778C86.9109 19.4755 86.913 19.4733 86.9151 19.4711C86.9173 19.4689 86.9194 19.4667 86.9215 19.4645C86.9236 19.4623 86.9258 19.4601 86.9279 19.4579C86.93 19.4557 86.9321 19.4535 86.9342 19.4513C86.9363 19.4491 86.9384 19.4469 86.9406 19.4447C86.9427 19.4425 86.9448 19.4404 86.9469 19.4382C86.949 19.436 86.9511 19.4338 86.9532 19.4316C86.9553 19.4294 86.9574 19.4273 86.9595 19.4251C86.9616 19.4229 86.9636 19.4208 86.9657 19.4186C86.9678 19.4164 86.9699 19.4143 86.972 19.4121C86.9741 19.4099 86.9762 19.4078 86.9782 19.4056C86.9803 19.4035 86.9824 19.4013 86.9845 19.3991C86.9865 19.397 86.9886 19.3948 86.9907 19.3927C86.9927 19.3905 86.9948 19.3884 86.9969 19.3863C86.9989 19.3841 87.001 19.382 87.0031 19.3798C87.0051 19.3777 87.0072 19.3756 87.0092 19.3734C87.0113 19.3713 87.0133 19.3692 87.0154 19.3671C87.0174 19.3649 87.0195 19.3628 87.0215 19.3607C87.0236 19.3586 87.0256 19.3564 87.0276 19.3543C87.0297 19.3522 87.0317 19.3501 87.0338 19.348C87.0358 19.3459 87.0378 19.3438 87.0399 19.3416C87.0419 19.3395 87.0439 19.3374 87.0459 19.3353C87.048 19.3332 87.05 19.3311 87.052 19.329C87.054 19.3269 87.056 19.3249 87.058 19.3228C87.0601 19.3207 87.0621 19.3186 87.0641 19.3165C87.0661 19.3144 87.0681 19.3123 87.0701 19.3103C87.0721 19.3082 87.0741 19.3061 87.0761 19.304C87.0781 19.3019 87.0801 19.2999 87.0821 19.2978C87.0841 19.2957 87.0861 19.2937 87.0881 19.2916C87.0901 19.2895 87.092 19.2875 87.094 19.2854C87.096 19.2834 87.098 19.2813 87.1 19.2792C87.102 19.2772 87.1039 19.2751 87.1059 19.2731C87.1079 19.271 87.1099 19.269 87.1118 19.2669C87.1138 19.2649 87.1158 19.2629 87.1177 19.2608C87.1197 19.2588 87.1216 19.2567 87.1236 19.2547C87.1256 19.2527 87.1275 19.2506 87.1295 19.2486C87.1314 19.2466 87.1334 19.2446 87.1353 19.2425C87.1373 19.2405 87.1392 19.2385 87.1412 19.2365C87.1431 19.2345 87.1451 19.2324 87.147 19.2304C87.1489 19.2284 87.1509 19.2264 87.1528 19.2244C87.1547 19.2224 87.1567 19.2204 87.1586 19.2184C87.1605 19.2164 87.1625 19.2144 87.1644 19.2124C87.1663 19.2104 87.1682 19.2084 87.1701 19.2064C87.1721 19.2044 87.174 19.2024 87.1759 19.2004C87.1778 19.1984 87.1797 19.1964 87.1816 19.1945C87.1835 19.1925 87.1855 19.1905 87.1874 19.1885C87.1893 19.1865 87.1912 19.1846 87.1931 19.1826C87.195 19.1806 87.1969 19.1787 87.1988 19.1767C87.2006 19.1747 87.2025 19.1728 87.2044 19.1708C87.2063 19.1688 87.2082 19.1669 87.2101 19.1649C87.212 19.163 87.2139 19.161 87.2157 19.1591C87.2176 19.1571 87.2195 19.1552 87.2214 19.1532C87.2232 19.1513 87.2251 19.1493 87.227 19.1474C87.2289 19.1454 87.2307 19.1435 87.2326 19.1416C87.2345 19.1396 87.2363 19.1377 87.2382 19.1358C87.24 19.1338 87.2419 19.1319 87.2437 19.13C87.2456 19.1281 87.2475 19.1261 87.2493 19.1242C87.2512 19.1223 87.253 19.1204 87.2548 19.1185C87.2567 19.1166 87.2585 19.1146 87.2604 19.1127C87.2622 19.1108 87.264 19.1089 87.2659 19.107C87.2677 19.1051 87.2696 19.1032 87.2714 19.1013C87.2732 19.0994 87.275 19.0975 87.2769 19.0956C87.2787 19.0937 87.2805 19.0918 87.2823 19.0899C87.2842 19.088 87.286 19.0862 87.2878 19.0843C87.2896 19.0824 87.2914 19.0805 87.2932 19.0786C87.295 19.0767 87.2968 19.0749 87.2986 19.073C87.3004 19.0711 87.3023 19.0692 87.3041 19.0674C87.3059 19.0655 87.3077 19.0636 87.3094 19.0618C87.3112 19.0599 87.313 19.0581 87.3148 19.0562C87.3166 19.0543 87.3184 19.0525 87.3202 19.0506C87.322 19.0488 87.3238 19.0469 87.3255 19.0451C87.3273 19.0432 87.3291 19.0414 87.3309 19.0395C87.3326 19.0377 87.3344 19.0359 87.3362 19.034C87.338 19.0322 87.3397 19.0303 87.3415 19.0285C87.3433 19.0267 87.345 19.0249 87.3468 19.023C87.3485 19.0212 87.3503 19.0194 87.3521 19.0176C87.3538 19.0157 87.3556 19.0139 87.3573 19.0121C87.3591 19.0103 87.3608 19.0085 87.3626 19.0067C87.3643 19.0048 87.366 19.003 87.3678 19.0012C87.3695 18.9994 87.3713 18.9976 87.373 18.9958C87.3747 18.994 87.3765 18.9922 87.3782 18.9904C87.3799 18.9886 87.3817 18.9868 87.3834 18.985C87.3851 18.9832 87.3868 18.9815 87.3886 18.9797C87.3903 18.9779 87.392 18.9761 87.3937 18.9743C87.3954 18.9725 87.3971 18.9708 87.3988 18.969C87.4006 18.9672 87.4023 18.9654 87.404 18.9637C87.4057 18.9619 87.4074 18.9601 87.4091 18.9584C87.4108 18.9566 87.4125 18.9548 87.4142 18.9531C87.4159 18.9513 87.4176 18.9495 87.4193 18.9478C87.4209 18.946 87.4226 18.9443 87.4243 18.9425C87.426 18.9408 87.4277 18.939 87.4294 18.9373C87.431 18.9355 87.4327 18.9338 87.4344 18.9321C87.4361 18.9303 87.4378 18.9286 87.4394 18.9269C87.4411 18.9251 87.4428 18.9234 87.4444 18.9217C87.4461 18.9199 87.4478 18.9182 87.4494 18.9165C87.4511 18.9148 87.4527 18.913 87.4544 18.9113C87.456 18.9096 87.4577 18.9079 87.4593 18.9062C87.461 18.9045 87.4627 18.9027 87.4643 18.901C87.4659 18.8993 87.4676 18.8976 87.4692 18.8959C87.4709 18.8942 87.4725 18.8925 87.4741 18.8908C87.4758 18.8891 87.4774 18.8874 87.479 18.8857C87.4807 18.884 87.4823 18.8823 87.4839 18.8807C87.4856 18.879 87.4872 18.8773 87.4888 18.8756C87.4904 18.8739 87.492 18.8722 87.4937 18.8706C87.4953 18.8689 87.4969 18.8672 87.4985 18.8655C87.5001 18.8639 87.5017 18.8622 87.5033 18.8605C87.5049 18.8589 87.5065 18.8572 87.5081 18.8555C87.5097 18.8539 87.5113 18.8522 87.5129 18.8506C87.5145 18.8489 87.5161 18.8472 87.5177 18.8456C87.5193 18.8439 87.5209 18.8423 87.5225 18.8406C87.5241 18.839 87.5256 18.8374 87.5272 18.8357C87.5288 18.8341 87.5304 18.8324 87.532 18.8308C87.5335 18.8292 87.5351 18.8275 87.5367 18.8259C87.5383 18.8243 87.5398 18.8226 87.5414 18.821C87.543 18.8194 87.5445 18.8178 87.5461 18.8161C87.5476 18.8145 87.5492 18.8129 87.5508 18.8113C87.5523 18.8097 87.5539 18.8081 87.5554 18.8064C87.557 18.8048 87.5585 18.8032 87.5601 18.8016C87.5616 18.8 87.5632 18.7984 87.5647 18.7968C87.5662 18.7952 87.5678 18.7936 87.5693 18.792C87.5709 18.7904 87.5724 18.7888 87.5739 18.7872C87.5755 18.7856 87.577 18.7841 87.5785 18.7825C87.58 18.7809 87.5816 18.7793 87.5831 18.7777C87.5846 18.7762 87.5861 18.7746 87.5876 18.773C87.5892 18.7714 87.5907 18.7698 87.5922 18.7683C87.5937 18.7667 87.5952 18.7651 87.5967 18.7636C87.5982 18.762 87.5997 18.7605 87.6012 18.7589C87.6027 18.7573 87.6042 18.7558 87.6057 18.7542C87.6072 18.7527 87.6087 18.7511 87.6102 18.7496C87.6117 18.748 87.6132 18.7465 87.6147 18.7449C87.6162 18.7434 87.6176 18.7419 87.6191 18.7403C87.6206 18.7388 87.6221 18.7372 87.6236 18.7357C87.625 18.7342 87.6265 18.7326 87.628 18.7311C87.6294 18.7296 87.6309 18.7281 87.6324 18.7265C87.6339 18.725 87.6353 18.7235 87.6368 18.722C87.6382 18.7205 87.6397 18.7189 87.6412 18.7174C87.6426 18.7159 87.6441 18.7144 87.6455 18.7129C87.647 18.7114 87.6484 18.7099 87.6499 18.7084C87.6513 18.7069 87.6528 18.7054 87.6542 18.7039C87.6556 18.7024 87.6571 18.7009 87.6585 18.6994C87.66 18.6979 87.6614 18.6964 87.6628 18.6949C87.6643 18.6935 87.6657 18.692 87.6671 18.6905C87.6685 18.689 87.67 18.6875 87.6714 18.6861C87.6728 18.6846 87.6742 18.6831 87.6756 18.6816C87.6771 18.6802 87.6785 18.6787 87.6799 18.6772C87.6813 18.6758 87.6827 18.6743 87.6841 18.6728C87.6855 18.6714 87.6869 18.6699 87.6883 18.6685C87.6897 18.667 87.6911 18.6656 87.6925 18.6641C87.6939 18.6627 87.6953 18.6612 87.6967 18.6598C87.6981 18.6583 87.6995 18.6569 87.7009 18.6554C87.7023 18.654 87.7037 18.6526 87.705 18.6511C87.7064 18.6497 87.7078 18.6482 87.7092 18.6468C87.7106 18.6454 87.7119 18.644 87.7133 18.6425C87.7147 18.6411 87.7161 18.6397 87.7174 18.6383C87.7188 18.6369 87.7202 18.6354 87.7215 18.634C87.7229 18.6326 87.7242 18.6312 87.7256 18.6298C87.727 18.6284 87.7283 18.627 87.7297 18.6256C87.731 18.6242 87.7324 18.6228 87.7337 18.6214C87.7351 18.62 87.7364 18.6186 87.7377 18.6172C87.7391 18.6158 87.7404 18.6144 87.7418 18.613C87.7431 18.6116 87.7444 18.6102 87.7458 18.6088C87.7471 18.6075 87.7484 18.6061 87.7498 18.6047C87.7511 18.6033 87.7524 18.6019 87.7537 18.6006C87.7551 18.5992 87.7564 18.5978 87.7577 18.5965C87.759 18.5951 87.7603 18.5937 87.7616 18.5924C87.763 18.591 87.7643 18.5896 87.7656 18.5883C87.7669 18.5869 87.7682 18.5856 87.7695 18.5842C87.7708 18.5829 87.7721 18.5815 87.7734 18.5802C87.7747 18.5788 87.776 18.5775 87.7773 18.5761C87.7786 18.5748 87.7799 18.5735 87.7811 18.5721C87.7824 18.5708 87.7837 18.5694 87.785 18.5681C87.7863 18.5668 87.7876 18.5655 87.7888 18.5641C87.7901 18.5628 87.7914 18.5615 87.7927 18.5602C87.7939 18.5588 87.7952 18.5575 87.7965 18.5562C87.7977 18.5549 87.799 18.5536 87.8003 18.5523C87.8015 18.551 87.8028 18.5496 87.8041 18.5483C87.8053 18.547 87.8066 18.5457 87.8078 18.5444C87.8091 18.5431 87.8103 18.5418 87.8116 18.5405C87.8128 18.5392 87.8141 18.5379 87.8153 18.5367C87.8166 18.5354 87.8178 18.5341 87.819 18.5328C87.8203 18.5315 87.8215 18.5302 87.8227 18.5289C87.824 18.5277 87.8252 18.5264 87.8264 18.5251C87.8277 18.5238 87.8289 18.5226 87.8301 18.5213C87.8313 18.52 87.8326 18.5188 87.8338 18.5175C87.835 18.5162 87.8362 18.515 87.8374 18.5137C87.8386 18.5124 87.8398 18.5112 87.841 18.5099C87.8423 18.5087 87.8435 18.5074 87.8447 18.5062C87.8459 18.5049 87.8471 18.5037 87.8483 18.5024C87.8495 18.5012 87.8507 18.5 87.8519 18.4987C87.853 18.4975 87.8542 18.4962 87.8554 18.495C87.8566 18.4938 87.8578 18.4925 87.859 18.4913C87.8602 18.4901 87.8614 18.4889 87.8625 18.4876C87.8637 18.4864 87.8649 18.4852 87.8661 18.484C87.8672 18.4828 87.8684 18.4815 87.8696 18.4803C87.8707 18.4791 87.8719 18.4779 87.8731 18.4767C87.8742 18.4755 87.8754 18.4743 87.8765 18.4731C87.8777 18.4719 87.8789 18.4707 87.88 18.4695C87.8812 18.4683 87.8823 18.4671 87.8835 18.4659C87.8846 18.4647 87.8858 18.4635 87.8869 18.4623C87.8881 18.4611 87.8892 18.46 87.8903 18.4588C87.8915 18.4576 87.8926 18.4564 87.8937 18.4552C87.8949 18.4541 87.896 18.4529 87.8971 18.4517C87.8983 18.4505 87.8994 18.4494 87.9005 18.4482C87.9016 18.447 87.9028 18.4459 87.9039 18.4447C87.905 18.4436 87.9061 18.4424 87.9072 18.4412C87.9083 18.4401 87.9094 18.4389 87.9106 18.4378C87.9117 18.4366 87.9128 18.4355 87.9139 18.4343C87.915 18.4332 87.9161 18.432 87.9172 18.4309C87.9183 18.4298 87.9194 18.4286 87.9205 18.4275C87.9216 18.4263 87.9227 18.4252 87.9237 18.4241C87.9248 18.423 87.9259 18.4218 87.927 18.4207C87.9281 18.4196 87.9292 18.4185 87.9303 18.4173C87.9313 18.4162 87.9324 18.4151 87.9335 18.414C87.9346 18.4129 87.9356 18.4118 87.9367 18.4106C87.9378 18.4095 87.9388 18.4084 87.9399 18.4073C87.941 18.4062 87.942 18.4051 87.9431 18.404C87.9441 18.4029 87.9452 18.4018 87.9463 18.4007C87.9473 18.3996 87.9484 18.3985 87.9494 18.3975C87.9505 18.3964 87.9515 18.3953 87.9525 18.3942C87.9536 18.3931 87.9546 18.392 87.9557 18.3909C87.9567 18.3899 87.9577 18.3888 87.9588 18.3877C87.9598 18.3866 87.9608 18.3856 87.9619 18.3845C87.9629 18.3834 87.9639 18.3824 87.965 18.3813C87.966 18.3802 87.967 18.3792 87.968 18.3781C87.969 18.3771 87.9701 18.376 87.9711 18.375C87.9721 18.3739 87.9731 18.3729 87.9741 18.3718C87.9751 18.3708 87.9761 18.3697 87.9771 18.3687C87.9781 18.3676 87.9791 18.3666 87.9801 18.3656C87.9811 18.3645 87.9821 18.3635 87.9831 18.3625C87.9841 18.3614 87.9851 18.3604 87.9861 18.3594C87.9871 18.3583 87.9881 18.3573 87.9891 18.3563C87.99 18.3553 87.991 18.3542 87.992 18.3532L90.2416 20.1056ZM86.829 23.6454C85.0374 25.7254 82.7958 28.2722 80.1053 31.2847L77.7904 29.6027C80.475 26.5967 82.7059 24.062 84.4842 21.9975L86.829 23.6454ZM80.1053 31.2847C77.4045 34.3087 74.2441 37.6995 70.6252 41.4562L68.3756 39.7038C71.9781 35.964 75.1159 32.5973 77.7904 29.6027L80.1053 31.2847ZM70.6508 41.4289C67.1516 45.2812 63.3921 49.2938 59.3725 53.4665L57.1229 51.7141C61.127 47.5574 64.8694 43.5631 68.3501 39.731L70.6508 41.4289ZM59.3725 53.4665C55.6532 57.3275 51.7235 61.297 47.5836 65.3749L45.3814 63.5745C49.5066 59.5112 53.4204 55.5577 57.1229 51.7141L59.3725 53.4665ZM47.6073 65.3509C43.5799 69.5317 39.481 73.5665 35.3108 77.4552L33.1598 75.6057C37.2955 71.7494 41.3614 67.747 45.3577 63.5985L47.6073 65.3509ZM35.3108 77.4552C31.1397 81.3446 26.9963 84.9848 22.8804 88.3753L20.851 86.4194C24.922 83.0657 29.025 79.4613 33.1598 75.6057L35.3108 77.4552ZM22.909 88.3511C18.9138 91.8368 15.0439 94.971 11.2992 97.7523L9.37595 95.7133C13.0566 92.9795 16.8721 89.8902 20.8224 86.4436L22.909 88.3511ZM11.5696 97.4819C10.8459 98.4659 9.91408 99.5452 8.78498 100.717L6.53538 98.9649C7.61278 97.8465 8.46584 96.8536 9.10552 95.9837L11.5696 97.4819ZM8.86498 100.626C7.88466 101.862 6.95474 103.046 6.07516 104.178L3.65072 102.628C4.53566 101.489 5.47056 100.299 6.45537 99.0564L8.86498 100.626ZM6.1368 104.091C5.32723 105.344 4.86336 106.424 4.68156 107.34L1.80091 106.781C2.05767 105.487 2.67493 104.129 3.58908 102.714L6.1368 104.091ZM4.69043 107.289C4.56405 108.117 4.84082 108.795 5.68806 109.455L3.81873 111.395C2.252 110.175 1.52065 108.61 1.79203 106.831L4.69043 107.289ZM5.68806 109.455C6.45932 110.056 7.41283 110.509 8.5849 110.797L7.91897 113.317C6.3575 112.933 4.97864 112.299 3.81873 111.395L5.68806 109.455ZM7.30668 111.025C13.4702 106.589 19.4348 101.814 25.2005 96.7015L27.303 98.5949C21.4717 103.766 15.4365 108.597 9.19719 113.088L7.30668 111.025ZM25.2216 96.6832C31.0081 91.7667 36.4434 86.6694 41.5279 81.3912L43.7775 83.1436C38.6318 88.4853 33.1332 93.6418 27.2819 98.6133L25.2216 96.6832ZM41.5279 81.3912C44.1116 78.7091 46.5758 75.9337 48.9206 73.065L51.3069 74.6634C48.919 77.5849 46.4092 80.4116 43.7775 83.1436L41.5279 81.3912ZM48.9525 73.0275C51.3269 70.3445 53.5906 67.6673 55.7438 64.996L58.1409 66.5812C55.9627 69.2835 53.674 71.9901 51.275 74.7009L48.9525 73.0275ZM55.8176 64.9124C57.1777 63.5004 58.5261 61.8881 59.8615 60.0722L62.3256 61.5703C60.9344 63.4622 59.5153 65.1614 58.0672 66.6648L55.8176 64.9124ZM59.8551 60.081C61.1544 58.2809 62.6267 56.5279 64.2705 54.8216L66.5201 56.574C64.9543 58.1994 63.5588 59.862 62.332 61.5615L59.8551 60.081ZM64.2705 54.8216C65.4303 53.6176 66.7621 52.4655 68.2617 51.364L70.1734 53.4116C68.7831 54.4328 67.5668 55.4874 66.5201 56.574L64.2705 54.8216ZM68.2781 51.3522C69.7222 50.3242 71.351 49.4547 73.1575 48.74L74.4319 51.1384C72.8249 51.7741 71.4023 52.537 70.157 53.4234L68.2781 51.3522ZM75.0458 49.3089C77.4133 52.8901 78.5783 56.6182 78.498 60.4697L75.5736 60.3136C75.6428 56.9917 74.6471 53.7515 72.5435 50.5695L75.0458 49.3089ZM78.4982 60.4309C78.5426 63.9904 79.1412 67.7345 80.3052 71.6672L77.4795 72.2378C76.2599 68.1174 75.6209 64.1544 75.5734 60.3524L78.4982 60.4309ZM80.1347 71.3091C80.7742 72.2524 81.2016 73.3442 81.4499 74.5536L78.5737 74.9226C78.3766 73.9626 78.0577 73.1973 77.6499 72.5959L80.1347 71.3091ZM81.4261 74.4578C81.7696 75.6366 82.113 76.8153 82.4564 77.9941L79.6277 78.5546C79.2843 77.3758 78.9409 76.1971 78.5974 75.0184L81.4261 74.4578ZM82.4564 77.9941C82.7965 79.1616 83.1255 80.2274 83.4433 81.192L80.64 81.8346C80.3118 80.8381 79.9743 79.7445 79.6277 78.5546L82.4564 77.9941ZM83.4112 81.1056C83.7794 81.9973 84.2881 82.6584 84.9092 83.1422L83.0399 85.0828C81.9712 84.2503 81.1913 83.1786 80.6721 81.921L83.4112 81.1056ZM84.9092 83.1422C85.6943 83.7538 86.2095 83.9106 86.4899 83.9256C86.6904 83.9363 86.9753 83.8882 87.3708 83.4777L89.6204 85.2301C88.8123 86.0689 87.7419 86.6053 86.4355 86.5356C85.2088 86.4701 84.0653 85.8815 83.0399 85.0828L84.9092 83.1422ZM87.3708 83.4777C88.1023 82.7183 88.6641 81.4018 88.8695 79.3244L91.7832 79.6607C91.5535 81.9828 90.8948 83.9072 89.6204 85.2301L87.3708 83.4777ZM88.8657 79.3738C88.971 77.4921 88.5098 76.1862 87.6908 75.2833L89.9324 73.6876C91.3676 75.2697 91.9162 77.3018 91.787 79.6114L88.8657 79.3738ZM87.6908 75.2833C86.4031 73.8638 85.5891 72.2815 85.2816 70.5535L88.1698 70.247C88.3894 71.481 88.966 72.6222 89.9324 73.6876L87.6908 75.2833ZM85.3031 70.6507C84.9213 69.2059 84.6477 67.6628 84.4789 66.0238L87.3914 65.8908C87.5491 67.422 87.8025 68.8409 88.1483 70.1497L85.3031 70.6507ZM84.4911 66.1105C84.2323 64.6562 83.9138 63.1532 83.5352 61.6012L86.3919 61.1453C86.7818 62.7434 87.111 64.2963 87.3793 65.8041L84.4911 66.1105ZM83.5195 61.5265C83.2935 60.2563 82.7395 59.0296 81.8304 57.8374L84.2258 56.4263C85.3703 57.9273 86.1067 59.5283 86.4077 61.22L83.5195 61.5265ZM81.5967 56.8115C82.1457 54.4902 81.7739 52.4104 80.5253 50.4963L83.0368 49.2497C84.6885 51.7818 85.148 54.5412 84.4595 57.4523L81.5967 56.8115ZM80.511 50.4738C79.0733 48.1714 78.2759 45.7634 78.1401 43.2637L81.0615 43.2442C81.1739 45.3118 81.8301 47.3165 83.0512 49.2722L80.511 50.4738ZM78.2722 42.6591C81.0992 37.275 84.3109 32.7018 87.9182 28.9571L90.1678 30.7095C86.7544 34.2529 83.6713 38.6268 80.9294 43.8488L78.2722 42.6591ZM87.9182 28.9571C91.5215 25.2165 96.3888 21.4006 102.489 17.5041L104.253 19.6526C98.27 23.4745 93.5852 27.1619 90.1678 30.7095L87.9182 28.9571ZM104.822 18.4723C105.264 21.6966 105.864 24.8631 106.623 27.9718L103.766 28.4277C102.987 25.2364 102.372 21.9885 101.919 18.6844L104.822 18.4723ZM106.625 27.9811C107.416 31.3403 108.147 34.6528 108.818 37.9188L105.942 38.2877C105.276 35.0453 104.55 31.7555 103.764 28.4184L106.625 27.9811ZM108.81 37.8846C109.61 41.2796 110.177 44.5897 110.509 47.8143L107.596 47.9473C107.276 44.8315 106.727 41.6231 105.949 38.3218L108.81 37.8846ZM110.504 47.7748C110.968 51.1586 110.91 54.5166 110.332 57.8452L107.442 57.3409C107.979 54.2483 108.032 51.1314 107.601 47.9868L110.504 47.7748ZM57.5234 93.6243C56.2092 93.4518 54.9017 93.0517 53.6058 92.4473L54.8738 90.1397C55.9102 90.6231 56.8943 90.9147 57.8309 91.0376L57.5234 93.6243ZM53.8238 92.5305C52.7019 92.1919 51.6443 91.9009 50.6505 91.6568L51.3165 89.1374C52.3729 89.3969 53.4862 89.7035 54.6558 90.0565L53.8238 92.5305ZM50.6505 91.6568C49.7866 91.4446 48.8798 91.3571 47.9229 91.4008L47.654 88.7895C48.907 88.7323 50.1302 88.8461 51.3165 89.1374L50.6505 91.6568ZM48.0542 91.3894C47.1507 91.5053 46.1446 91.8945 45.0336 92.6562L43.1943 90.5572C44.5721 89.6127 46.0156 88.9942 47.5227 88.8009L48.0542 91.3894ZM45.576 91.6272C45.6176 93.0875 45.7184 94.5965 45.8789 96.1545L42.9663 96.2875C42.8003 94.6753 42.6954 93.1081 42.652 91.5862L45.576 91.6272ZM45.8789 96.1545C46.026 97.5832 46.7084 98.7636 47.9863 99.759L46.117 101.7C44.2567 100.25 43.1865 98.4253 42.9663 96.2875L45.8789 96.1545ZM46.499 99.4996L57.6142 95.8565L58.7194 98.316L47.6043 101.959L46.499 99.4996ZM56.9347 96.3372C57.4727 95.6057 57.4578 95.1686 57.3552 94.9033L60.1156 94.1409C60.6182 95.4406 60.2243 96.7129 59.3988 97.8353L56.9347 96.3372ZM57.3964 94.9981C57.1142 94.4138 56.7614 93.6834 56.3381 92.8069L59.0161 91.8549C59.4395 92.7314 59.7922 93.4618 60.0744 94.0461L57.3964 94.9981Z" fill="#F0F0F0" mask="url(#path-1-outside-1_1172_1741)"/>
</svg>
