<svg width="120" height="166" viewBox="0 0 120 166" fill="none" xmlns="http://www.w3.org/2000/svg">
<mask id="path-1-outside-1_1172_1743" maskUnits="userSpaceOnUse" x="-2.51259" y="-1.56847" width="124.607" height="169.052" fill="black">
<rect fill="white" x="-2.51259" y="-1.56847" width="124.607" height="169.052"/>
<path d="M56.3374 44.1209C55.696 44.7144 54.3901 44.6316 52.4197 43.8728C50.4494 43.1139 49.8281 41.782 50.556 39.8771C52.7345 37.1861 55.3164 35.1547 58.3015 33.783C61.219 32.5533 64.2962 31.5531 67.5331 30.7827C70.77 30.0122 74.0069 29.2417 77.2437 28.4712C80.4806 27.7007 83.5416 26.3581 86.4265 24.4435C89.0897 24.1244 91.7366 23.4629 94.3672 22.4589C96.8462 21.3965 99.2915 20.4051 101.703 19.4848C104.047 18.7065 106.399 18.0995 108.759 17.6636C111.051 17.3698 113.258 17.6316 115.38 18.4488C116.744 18.9742 117.281 20.1057 116.992 21.8433C116.635 23.7229 115.949 25.728 114.934 27.8587C114.393 28.995 113.674 30.3152 112.779 31.8193C111.731 33.265 110.718 34.6397 109.738 35.9433C108.691 37.389 107.821 38.6509 107.128 39.7288C106.216 40.8905 105.693 41.6133 105.557 41.8974C105.219 42.6076 104.441 44.2411 103.223 46.7978C101.786 49.4383 100.045 52.7179 97.9992 56.6366C95.9534 60.5554 93.7128 65.0716 91.2773 70.1851C88.6903 75.2402 86.0438 80.6086 83.3377 86.2903C80.8347 91.5458 78.3059 97.0436 75.7514 102.784C73.0453 108.465 70.5247 114.134 68.1894 119.791C65.8542 125.447 63.772 130.949 61.9428 136.296C59.962 141.584 58.302 146.576 56.9626 151.271C56.2699 152.349 55.5514 153.67 54.8072 155.232C53.9115 156.736 53.0496 158.169 52.2215 159.531C51.1742 160.977 50.1107 162.08 49.0308 162.841C47.7318 163.685 46.3244 163.816 44.8088 163.232C43.5962 162.765 42.519 162.014 41.577 160.979C43.6632 153.209 46.1958 145.444 49.1751 137.682C51.9351 130.004 55.0402 122.543 58.4904 115.299C60.2493 111.606 62.1598 107.971 64.2219 104.395C66.0648 100.902 67.9496 97.5095 69.8763 94.2173C70.8234 92.2287 71.9898 90.1564 73.3753 88.0005C74.6932 85.9866 75.8934 83.8434 76.9758 81.5707C77.72 80.0082 78.3464 78.3164 78.8551 76.4951C79.2961 74.8159 79.5098 73.0492 79.4961 71.1948C74.9465 70.9554 70.7826 71.7892 67.0045 73.696C63.0749 75.5444 58.7162 76.9755 53.9285 77.9892C52.8838 77.9231 51.7376 78.07 50.4899 78.4299C49.0907 78.7315 47.6915 79.0331 46.2923 79.3347C44.893 79.6362 43.6034 79.896 42.4234 80.1139C41.0918 80.2734 39.8956 80.1489 38.8346 79.7403C36.5611 78.8646 35.8302 77.5746 36.6421 75.8701C37.3186 74.4497 38.7786 73.0789 41.0222 71.7577C43.1981 70.5786 45.1873 70.168 46.9899 70.5261C48.7924 70.8841 50.5367 70.7995 52.2228 70.2722C53.8413 69.887 55.5274 69.3597 57.2811 68.6904C58.9672 68.1631 60.7291 67.665 62.5668 67.196C64.2529 66.6688 66.031 66.5131 67.9012 66.7291C70.4154 64.8398 73.1637 63.9652 76.1463 64.1053C78.9773 64.1871 81.6323 63.6968 84.1113 62.6344C88.5523 57.4528 91.9566 52.3763 94.3244 47.4048C96.6922 42.4334 98.6323 36.2886 100.145 28.9705C96.4856 30.2508 92.8184 31.3599 89.1431 32.2977C85.2485 33.3192 81.4298 34.3699 77.6868 35.4497C73.7922 36.4712 70.0912 37.6513 66.5837 38.99C62.9247 40.2703 59.5092 41.9806 56.3374 44.1209ZM41.3659 107.19C42.0047 108.109 42.8627 108.944 43.9399 109.695C44.798 110.529 45.5802 111.335 46.2867 112.111C46.9931 112.888 47.5561 113.777 47.9757 114.779C48.3276 115.923 48.3169 117.264 47.9435 118.801C46.3413 119.529 44.6634 120.227 42.9096 120.897C40.9367 121.65 38.965 121.647 36.9946 120.888L36.1047 109.198C36.7974 108.121 37.6242 107.514 38.585 107.38C39.3266 107.33 40.2535 107.266 41.3659 107.19Z"/>
</mask>
<path d="M56.3374 44.1209C55.696 44.7144 54.3901 44.6316 52.4197 43.8728C50.4494 43.1139 49.8281 41.782 50.556 39.8771C52.7345 37.1861 55.3164 35.1547 58.3015 33.783C61.219 32.5533 64.2962 31.5531 67.5331 30.7827C70.77 30.0122 74.0069 29.2417 77.2437 28.4712C80.4806 27.7007 83.5416 26.3581 86.4265 24.4435C89.0897 24.1244 91.7366 23.4629 94.3672 22.4589C96.8462 21.3965 99.2915 20.4051 101.703 19.4848C104.047 18.7065 106.399 18.0995 108.759 17.6636C111.051 17.3698 113.258 17.6316 115.38 18.4488C116.744 18.9742 117.281 20.1057 116.992 21.8433C116.635 23.7229 115.949 25.728 114.934 27.8587C114.393 28.995 113.674 30.3152 112.779 31.8193C111.731 33.265 110.718 34.6397 109.738 35.9433C108.691 37.389 107.821 38.6509 107.128 39.7288C106.216 40.8905 105.693 41.6133 105.557 41.8974C105.219 42.6076 104.441 44.2411 103.223 46.7978C101.786 49.4383 100.045 52.7179 97.9992 56.6366C95.9534 60.5554 93.7128 65.0716 91.2773 70.1851C88.6903 75.2402 86.0438 80.6086 83.3377 86.2903C80.8347 91.5458 78.3059 97.0436 75.7514 102.784C73.0453 108.465 70.5247 114.134 68.1894 119.791C65.8542 125.447 63.772 130.949 61.9428 136.296C59.962 141.584 58.302 146.576 56.9626 151.271C56.2699 152.349 55.5514 153.67 54.8072 155.232C53.9115 156.736 53.0496 158.169 52.2215 159.531C51.1742 160.977 50.1107 162.08 49.0308 162.841C47.7318 163.685 46.3244 163.816 44.8088 163.232C43.5962 162.765 42.519 162.014 41.577 160.979C43.6632 153.209 46.1958 145.444 49.1751 137.682C51.9351 130.004 55.0402 122.543 58.4904 115.299C60.2493 111.606 62.1598 107.971 64.2219 104.395C66.0648 100.902 67.9496 97.5095 69.8763 94.2173C70.8234 92.2287 71.9898 90.1564 73.3753 88.0005C74.6932 85.9866 75.8934 83.8434 76.9758 81.5707C77.72 80.0082 78.3464 78.3164 78.8551 76.4951C79.2961 74.8159 79.5098 73.0492 79.4961 71.1948C74.9465 70.9554 70.7826 71.7892 67.0045 73.696C63.0749 75.5444 58.7162 76.9755 53.9285 77.9892C52.8838 77.9231 51.7376 78.07 50.4899 78.4299C49.0907 78.7315 47.6915 79.0331 46.2923 79.3347C44.893 79.6362 43.6034 79.896 42.4234 80.1139C41.0918 80.2734 39.8956 80.1489 38.8346 79.7403C36.5611 78.8646 35.8302 77.5746 36.6421 75.8701C37.3186 74.4497 38.7786 73.0789 41.0222 71.7577C43.1981 70.5786 45.1873 70.168 46.9899 70.5261C48.7924 70.8841 50.5367 70.7995 52.2228 70.2722C53.8413 69.887 55.5274 69.3597 57.2811 68.6904C58.9672 68.1631 60.7291 67.665 62.5668 67.196C64.2529 66.6688 66.031 66.5131 67.9012 66.7291C70.4154 64.8398 73.1637 63.9652 76.1463 64.1053C78.9773 64.1871 81.6323 63.6968 84.1113 62.6344C88.5523 57.4528 91.9566 52.3763 94.3244 47.4048C96.6922 42.4334 98.6323 36.2886 100.145 28.9705C96.4856 30.2508 92.8184 31.3599 89.1431 32.2977C85.2485 33.3192 81.4298 34.3699 77.6868 35.4497C73.7922 36.4712 70.0912 37.6513 66.5837 38.99C62.9247 40.2703 59.5092 41.9806 56.3374 44.1209ZM41.3659 107.19C42.0047 108.109 42.8627 108.944 43.9399 109.695C44.798 110.529 45.5802 111.335 46.2867 112.111C46.9931 112.888 47.5561 113.777 47.9757 114.779C48.3276 115.923 48.3169 117.264 47.9435 118.801C46.3413 119.529 44.6634 120.227 42.9096 120.897C40.9367 121.65 38.965 121.647 36.9946 120.888L36.1047 109.198C36.7974 108.121 37.6242 107.514 38.585 107.38C39.3266 107.33 40.2535 107.266 41.3659 107.19Z" fill="#F0F0F0"/>
<path d="M56.3374 44.1209L55.5134 43.0547L55.419 43.1183L55.3364 43.1948L56.3374 44.1209ZM50.556 39.8771L49.415 39.1005L49.2782 39.2694L49.2025 39.4674L50.556 39.8771ZM58.3015 33.783L57.7384 32.5756L57.7157 32.5852L57.6934 32.5955L58.3015 33.783ZM67.5331 30.7827L67.2143 29.4954L67.2143 29.4954L67.5331 30.7827ZM86.4265 24.4435L86.284 23.1248L85.9165 23.1688L85.6121 23.3708L86.4265 24.4435ZM94.3672 22.4589L94.881 23.686L94.9102 23.6749L94.9388 23.6626L94.3672 22.4589ZM101.703 19.4848L101.253 18.2347L101.221 18.2455L101.189 18.2577L101.703 19.4848ZM108.759 17.6636L108.603 16.3466L108.56 16.352L108.518 16.3599L108.759 17.6636ZM116.992 21.8433L118.407 22.0354L118.41 22.0214L118.412 22.0073L116.992 21.8433ZM112.779 31.8193L113.965 32.5366L114.001 32.4866L114.033 32.434L112.779 31.8193ZM109.738 35.9433L108.566 35.2065L108.559 35.2162L108.552 35.226L109.738 35.9433ZM107.128 39.7288L108.282 40.4891L108.323 40.4376L108.358 40.383L107.128 39.7288ZM103.223 46.7978L104.503 47.3673L104.52 47.3357L104.536 47.3033L103.223 46.7978ZM91.2773 70.1851L92.573 70.7245L92.5816 70.7076L92.5897 70.6906L91.2773 70.1851ZM75.7514 102.784L77.0638 103.289L77.0711 103.274L77.078 103.258L75.7514 102.784ZM61.9428 136.296L63.2993 136.697L63.3058 136.68L63.3119 136.662L61.9428 136.296ZM56.9626 151.271L58.1923 151.926L58.2987 151.76L58.3516 151.575L56.9626 151.271ZM54.8072 155.232L56.0612 155.847L56.0931 155.793L56.1197 155.738L54.8072 155.232ZM52.2215 159.531L53.408 160.249L53.4405 160.204L53.4691 160.157L52.2215 159.531ZM49.0308 162.841L49.8333 163.922L49.8568 163.906L49.8797 163.89L49.0308 162.841ZM41.577 160.979L40.1828 160.695L40.0073 161.349L40.4662 161.853L41.577 160.979ZM49.1751 137.682L50.5278 138.093L50.5328 138.081L50.5375 138.067L49.1751 137.682ZM64.2219 104.395L65.4855 104.993L65.4981 104.971L65.5099 104.949L64.2219 104.395ZM69.8763 94.2173L71.1356 94.8231L71.1644 94.7739L71.1887 94.7227L69.8763 94.2173ZM73.3753 88.0005L72.1518 87.3369L72.1457 87.3464L73.3753 88.0005ZM78.8551 76.4951L80.2459 76.7915L80.2486 76.782L80.2511 76.7724L78.8551 76.4951ZM79.4961 71.1948L80.9333 71.146L80.9244 69.9358L79.6204 69.8672L79.4961 71.1948ZM67.0045 73.696L67.6251 74.8777L67.6444 74.8686L67.6634 74.859L67.0045 73.696ZM53.9285 77.9892L53.7878 79.3159L54 79.3293L54.2091 79.2851L53.9285 77.9892ZM50.49 78.4299L50.7761 79.7246L50.8286 79.7132L50.8801 79.6984L50.49 78.4299ZM42.4234 80.1139L42.5659 81.4326L42.6152 81.4267L42.664 81.4177L42.4234 80.1139ZM41.0222 71.7577L40.3237 70.6154L40.2999 70.6283L40.2766 70.642L41.0222 71.7577ZM46.9899 70.5261L46.6483 71.8266L46.9899 70.5261ZM52.2228 70.2722L51.904 68.985L51.8512 68.9976L51.7994 69.0137L52.2228 70.2722ZM57.2811 68.6904L56.8577 67.4319L56.812 67.4462L56.7673 67.4632L57.2811 68.6904ZM62.5668 67.196L62.9101 68.4772L62.9504 68.4669L62.9901 68.4545L62.5668 67.196ZM67.9012 66.7291L67.6814 68.0487L68.2967 68.1198L68.787 67.7513L67.9012 66.7291ZM76.1463 64.1053L76.0307 65.4334L76.0446 65.434L76.0586 65.4344L76.1463 64.1053ZM84.1113 62.6344L84.683 63.8381L85.0055 63.6999L85.2271 63.4413L84.1113 62.6344ZM100.145 28.9705L101.556 29.1824L102.027 26.9044L99.6718 27.7284L100.145 28.9705ZM89.1431 32.2977L88.7997 31.0165L88.7896 31.0191L89.1431 32.2977ZM77.6868 35.4497L78.0402 36.7283L78.0587 36.7235L78.077 36.7182L77.6868 35.4497ZM66.5837 38.99L67.0566 40.232L67.0772 40.2248L67.0975 40.2171L66.5837 38.99ZM41.3659 107.19L42.5813 106.447L42.1362 105.808L41.3029 105.864L41.3659 107.19ZM43.9399 109.695L44.9954 108.763L44.9172 108.687L44.8266 108.624L43.9399 109.695ZM47.9757 114.779L49.3589 114.38L49.3412 114.323L49.3179 114.267L47.9757 114.779ZM47.9435 118.801L48.5455 119.991L49.189 119.699L49.3453 119.056L47.9435 118.801ZM42.9096 120.897L43.4234 122.124L43.4234 122.124L42.9096 120.897ZM36.9946 120.888L35.5609 121.021L35.6214 121.814L36.4088 122.118L36.9946 120.888ZM36.1047 109.198L34.875 108.544L34.639 108.912L34.671 109.331L36.1047 109.198ZM38.585 107.38L38.522 106.054L38.4669 106.058L38.4121 106.065L38.585 107.38ZM55.3364 43.1948C55.4393 43.0996 55.4515 43.2048 55.0176 43.1773C54.5855 43.1499 53.9282 42.9982 53.0055 42.6428L51.8339 45.1027C52.8816 45.5062 53.8625 45.7753 54.7362 45.8306C55.6083 45.8859 56.5941 45.7357 57.3384 45.047L55.3364 43.1948ZM53.0055 42.6428C52.2304 42.3443 51.9222 42.0128 51.7983 41.7473C51.6741 41.4811 51.6222 41.0386 51.9095 40.2867L49.2025 39.4674C48.7619 40.6205 48.6567 41.7964 49.1537 42.862C49.6511 43.9284 50.6387 44.6424 51.8339 45.1027L53.0055 42.6428ZM51.6971 40.6537C53.7476 38.1208 56.152 36.2377 58.9096 34.9705L57.6934 32.5955C54.4807 34.0717 51.7215 36.2513 49.415 39.1005L51.6971 40.6537ZM58.8646 34.9903C61.6996 33.7953 64.6947 32.8214 67.8519 32.0699L67.2143 29.4954C63.8976 30.2849 60.7384 31.3112 57.7384 32.5756L58.8646 34.9903ZM67.8519 32.0699C71.0888 31.2994 74.3257 30.5289 77.5626 29.7584L76.9249 27.1839C73.688 27.9544 70.4511 28.7249 67.2143 29.4954L67.8519 32.0699ZM77.5626 29.7584C80.9865 28.9434 84.2143 27.5248 87.2409 25.5161L85.6121 23.3708C82.8688 25.1914 79.9748 26.458 76.9249 27.1839L77.5626 29.7584ZM86.5691 25.7622C89.3658 25.4271 92.1373 24.7331 94.881 23.686L93.8534 21.2318C91.3358 22.1926 88.8135 22.8217 86.284 23.1248L86.5691 25.7622ZM94.9388 23.6626C97.3996 22.608 99.8256 21.6245 102.217 20.7119L101.189 18.2577C98.7574 19.1858 96.2928 20.185 93.7956 21.2552L94.9388 23.6626ZM102.152 20.7349C104.43 19.9786 106.712 19.3898 108.999 18.9674L108.518 16.3599C106.085 16.8092 103.663 17.4345 101.253 18.2347L102.152 20.7349ZM108.914 18.9807C110.951 18.7196 112.903 18.9503 114.794 19.6788L115.966 17.2189C113.613 16.3129 111.151 16.0201 108.603 16.3466L108.914 18.9807ZM114.794 19.6788C115.185 19.8295 115.377 20.0248 115.487 20.2566C115.613 20.5213 115.691 20.9639 115.572 21.6792L118.412 22.0073C118.583 20.985 118.536 19.9931 118.125 19.1264C117.697 18.2267 116.939 17.5936 115.966 17.2189L114.794 19.6788ZM115.577 21.6512C115.244 23.4033 114.598 25.3026 113.622 27.3532L116.247 28.3641C117.299 26.1534 118.026 24.0425 118.407 22.0354L115.577 21.6512ZM113.622 27.3532C113.103 28.4414 112.407 29.7238 111.525 31.2045L114.033 32.434C114.942 30.9066 115.682 29.5486 116.247 28.3641L113.622 27.3532ZM111.592 31.1019C110.549 32.5417 109.541 33.9099 108.566 35.2065L110.91 36.6802C111.895 35.3695 112.914 33.9882 113.965 32.5366L111.592 31.1019ZM108.552 35.226C107.495 36.6852 106.609 37.969 105.899 39.0747L108.358 40.383C109.033 39.3328 109.887 38.0929 110.925 36.6607L108.552 35.226ZM105.974 38.9686C105.513 39.5557 105.142 40.0427 104.865 40.4249C104.612 40.7745 104.373 41.1225 104.245 41.3919L106.87 42.4029C106.864 42.4147 106.882 42.377 106.955 42.2657C107.021 42.1643 107.114 42.0301 107.238 41.8595C107.485 41.5188 107.831 41.0635 108.282 40.4891L105.974 38.9686ZM104.245 41.3919C104.244 41.3933 104.244 41.3947 104.243 41.3961C104.242 41.3975 104.242 41.3989 104.241 41.4003C104.24 41.4017 104.24 41.4031 104.239 41.4045C104.238 41.4059 104.238 41.4073 104.237 41.4087C104.236 41.4102 104.235 41.4116 104.235 41.413C104.234 41.4144 104.233 41.4158 104.233 41.4173C104.232 41.4187 104.231 41.4201 104.231 41.4216C104.23 41.423 104.229 41.4245 104.229 41.4259C104.228 41.4273 104.227 41.4288 104.227 41.4302C104.226 41.4317 104.225 41.4331 104.225 41.4346C104.224 41.4361 104.223 41.4375 104.222 41.439C104.222 41.4404 104.221 41.4419 104.22 41.4434C104.22 41.4449 104.219 41.4463 104.218 41.4478C104.218 41.4493 104.217 41.4508 104.216 41.4523C104.215 41.4538 104.215 41.4552 104.214 41.4567C104.213 41.4582 104.213 41.4597 104.212 41.4612C104.211 41.4627 104.21 41.4642 104.21 41.4657C104.209 41.4672 104.208 41.4687 104.208 41.4703C104.207 41.4718 104.206 41.4733 104.205 41.4748C104.205 41.4763 104.204 41.4778 104.203 41.4794C104.202 41.4809 104.202 41.4824 104.201 41.484C104.2 41.4855 104.2 41.487 104.199 41.4886C104.198 41.4901 104.197 41.4917 104.197 41.4932C104.196 41.4948 104.195 41.4963 104.194 41.4979C104.194 41.4994 104.193 41.501 104.192 41.5026C104.191 41.5041 104.191 41.5057 104.19 41.5073C104.189 41.5088 104.188 41.5104 104.188 41.512C104.187 41.5136 104.186 41.5151 104.185 41.5167C104.185 41.5183 104.184 41.5199 104.183 41.5215C104.182 41.5231 104.182 41.5247 104.181 41.5263C104.18 41.5279 104.179 41.5295 104.179 41.5311C104.178 41.5327 104.177 41.5343 104.176 41.5359C104.175 41.5375 104.175 41.5391 104.174 41.5408C104.173 41.5424 104.172 41.544 104.172 41.5456C104.171 41.5473 104.17 41.5489 104.169 41.5505C104.169 41.5522 104.168 41.5538 104.167 41.5554C104.166 41.5571 104.165 41.5587 104.165 41.5604C104.164 41.562 104.163 41.5637 104.162 41.5653C104.161 41.567 104.161 41.5686 104.16 41.5703C104.159 41.572 104.158 41.5736 104.158 41.5753C104.157 41.577 104.156 41.5786 104.155 41.5803C104.154 41.582 104.154 41.5837 104.153 41.5853C104.152 41.587 104.151 41.5887 104.15 41.5904C104.15 41.5921 104.149 41.5938 104.148 41.5955C104.147 41.5972 104.146 41.5989 104.145 41.6006C104.145 41.6023 104.144 41.604 104.143 41.6057C104.142 41.6074 104.141 41.6091 104.141 41.6109C104.14 41.6126 104.139 41.6143 104.138 41.616C104.137 41.6177 104.136 41.6195 104.136 41.6212C104.135 41.6229 104.134 41.6247 104.133 41.6264C104.132 41.6282 104.132 41.6299 104.131 41.6316C104.13 41.6334 104.129 41.6351 104.128 41.6369C104.127 41.6386 104.126 41.6404 104.126 41.6422C104.125 41.6439 104.124 41.6457 104.123 41.6474C104.122 41.6492 104.121 41.651 104.121 41.6528C104.12 41.6545 104.119 41.6563 104.118 41.6581C104.117 41.6599 104.116 41.6617 104.116 41.6635C104.115 41.6652 104.114 41.667 104.113 41.6688C104.112 41.6706 104.111 41.6724 104.11 41.6742C104.11 41.676 104.109 41.6778 104.108 41.6796C104.107 41.6815 104.106 41.6833 104.105 41.6851C104.104 41.6869 104.103 41.6887 104.103 41.6906C104.102 41.6924 104.101 41.6942 104.1 41.696C104.099 41.6979 104.098 41.6997 104.097 41.7015C104.097 41.7034 104.096 41.7052 104.095 41.7071C104.094 41.7089 104.093 41.7107 104.092 41.7126C104.091 41.7145 104.09 41.7163 104.089 41.7182C104.089 41.72 104.088 41.7219 104.087 41.7238C104.086 41.7256 104.085 41.7275 104.084 41.7294C104.083 41.7312 104.082 41.7331 104.081 41.735C104.081 41.7369 104.08 41.7388 104.079 41.7406C104.078 41.7425 104.077 41.7444 104.076 41.7463C104.075 41.7482 104.074 41.7501 104.073 41.752C104.072 41.7539 104.072 41.7558 104.071 41.7577C104.07 41.7596 104.069 41.7615 104.068 41.7635C104.067 41.7654 104.066 41.7673 104.065 41.7692C104.064 41.7712 104.063 41.7731 104.062 41.775C104.061 41.7769 104.061 41.7789 104.06 41.7808C104.059 41.7827 104.058 41.7847 104.057 41.7866C104.056 41.7886 104.055 41.7905 104.054 41.7925C104.053 41.7944 104.052 41.7964 104.051 41.7983C104.05 41.8003 104.049 41.8022 104.048 41.8042C104.048 41.8062 104.047 41.8081 104.046 41.8101C104.045 41.8121 104.044 41.8141 104.043 41.816C104.042 41.818 104.041 41.82 104.04 41.822C104.039 41.824 104.038 41.826 104.037 41.8279C104.036 41.8299 104.035 41.8319 104.034 41.8339C104.033 41.8359 104.032 41.8379 104.031 41.84C104.031 41.842 104.03 41.844 104.029 41.846C104.028 41.848 104.027 41.85 104.026 41.852C104.025 41.8541 104.024 41.8561 104.023 41.8581C104.022 41.8601 104.021 41.8622 104.02 41.8642C104.019 41.8662 104.018 41.8683 104.017 41.8703C104.016 41.8724 104.015 41.8744 104.014 41.8765C104.013 41.8785 104.012 41.8806 104.011 41.8826C104.01 41.8847 104.009 41.8867 104.008 41.8888C104.007 41.8909 104.006 41.8929 104.005 41.895C104.004 41.8971 104.003 41.8991 104.002 41.9012C104.001 41.9033 104 41.9054 103.999 41.9075C103.998 41.9096 103.997 41.9116 103.996 41.9137C103.995 41.9158 103.994 41.9179 103.993 41.92C103.992 41.9221 103.991 41.9242 103.99 41.9263C103.989 41.9284 103.988 41.9305 103.987 41.9326C103.986 41.9348 103.985 41.9369 103.984 41.939C103.983 41.9411 103.982 41.9432 103.981 41.9454C103.98 41.9475 103.979 41.9496 103.978 41.9517C103.977 41.9539 103.976 41.956 103.975 41.9582C103.974 41.9603 103.973 41.9624 103.972 41.9646C103.971 41.9667 103.97 41.9689 103.969 41.9711C103.968 41.9732 103.967 41.9754 103.966 41.9775C103.965 41.9797 103.964 41.9819 103.963 41.984C103.962 41.9862 103.961 41.9884 103.96 41.9905C103.959 41.9927 103.958 41.9949 103.957 41.9971C103.956 41.9993 103.955 42.0014 103.953 42.0036C103.952 42.0058 103.951 42.008 103.95 42.0102C103.949 42.0124 103.948 42.0146 103.947 42.0168C103.946 42.019 103.945 42.0212 103.944 42.0234C103.943 42.0257 103.942 42.0279 103.941 42.0301C103.94 42.0323 103.939 42.0345 103.938 42.0368C103.937 42.039 103.936 42.0412 103.935 42.0434C103.933 42.0457 103.932 42.0479 103.931 42.0501C103.93 42.0524 103.929 42.0546 103.928 42.0569C103.927 42.0591 103.926 42.0614 103.925 42.0636C103.924 42.0659 103.923 42.0681 103.922 42.0704C103.921 42.0727 103.92 42.0749 103.918 42.0772C103.917 42.0795 103.916 42.0817 103.915 42.084C103.914 42.0863 103.913 42.0886 103.912 42.0908C103.911 42.0931 103.91 42.0954 103.909 42.0977C103.908 42.1 103.907 42.1023 103.905 42.1046C103.904 42.1069 103.903 42.1092 103.902 42.1115C103.901 42.1138 103.9 42.1161 103.899 42.1184C103.898 42.1207 103.897 42.123 103.896 42.1253C103.894 42.1276 103.893 42.13 103.892 42.1323C103.891 42.1346 103.89 42.137 103.889 42.1393C103.888 42.1416 103.887 42.1439 103.886 42.1463C103.884 42.1486 103.883 42.151 103.882 42.1533C103.881 42.1556 103.88 42.158 103.879 42.1603C103.878 42.1627 103.877 42.1651 103.875 42.1674C103.874 42.1698 103.873 42.1721 103.872 42.1745C103.871 42.1769 103.87 42.1792 103.869 42.1816C103.868 42.184 103.866 42.1864 103.865 42.1888C103.864 42.1911 103.863 42.1935 103.862 42.1959C103.861 42.1983 103.86 42.2007 103.859 42.2031C103.857 42.2055 103.856 42.2079 103.855 42.2103C103.854 42.2127 103.853 42.2151 103.852 42.2175C103.851 42.2199 103.849 42.2223 103.848 42.2247C103.847 42.2271 103.846 42.2296 103.845 42.232C103.844 42.2344 103.842 42.2368 103.841 42.2393C103.84 42.2417 103.839 42.2441 103.838 42.2466C103.837 42.249 103.835 42.2514 103.834 42.2539C103.833 42.2563 103.832 42.2588 103.831 42.2612C103.83 42.2637 103.828 42.2661 103.827 42.2686C103.826 42.271 103.825 42.2735 103.824 42.276C103.823 42.2784 103.821 42.2809 103.82 42.2834C103.819 42.2858 103.818 42.2883 103.817 42.2908C103.816 42.2933 103.814 42.2958 103.813 42.2982C103.812 42.3007 103.811 42.3032 103.81 42.3057C103.808 42.3082 103.807 42.3107 103.806 42.3132C103.805 42.3157 103.804 42.3182 103.802 42.3207C103.801 42.3232 103.8 42.3257 103.799 42.3282C103.798 42.3308 103.796 42.3333 103.795 42.3358C103.794 42.3383 103.793 42.3408 103.792 42.3434C103.79 42.3459 103.789 42.3484 103.788 42.351C103.787 42.3535 103.786 42.356 103.784 42.3586C103.783 42.3611 103.782 42.3637 103.781 42.3662C103.78 42.3688 103.778 42.3713 103.777 42.3739C103.776 42.3764 103.775 42.379 103.774 42.3816C103.772 42.3841 103.771 42.3867 103.77 42.3892C103.769 42.3918 103.767 42.3944 103.766 42.397C103.765 42.3996 103.764 42.4021 103.762 42.4047C103.761 42.4073 103.76 42.4099 103.759 42.4125C103.758 42.4151 103.756 42.4177 103.755 42.4203C103.754 42.4229 103.753 42.4255 103.751 42.4281C103.75 42.4307 103.749 42.4333 103.748 42.4359C103.746 42.4385 103.745 42.4411 103.744 42.4438C103.743 42.4464 103.741 42.449 103.74 42.4516C103.739 42.4543 103.738 42.4569 103.736 42.4595C103.735 42.4622 103.734 42.4648 103.733 42.4674C103.731 42.4701 103.73 42.4727 103.729 42.4754C103.728 42.478 103.726 42.4807 103.725 42.4833C103.724 42.486 103.723 42.4886 103.721 42.4913C103.72 42.4939 103.719 42.4966 103.717 42.4993C103.716 42.502 103.715 42.5046 103.714 42.5073C103.712 42.51 103.711 42.5127 103.71 42.5153C103.709 42.518 103.707 42.5207 103.706 42.5234C103.705 42.5261 103.703 42.5288 103.702 42.5315C103.701 42.5342 103.7 42.5369 103.698 42.5396C103.697 42.5423 103.696 42.545 103.694 42.5477C103.693 42.5504 103.692 42.5531 103.69 42.5559C103.689 42.5586 103.688 42.5613 103.687 42.564C103.685 42.5667 103.684 42.5695 103.683 42.5722C103.681 42.5749 103.68 42.5777 103.679 42.5804C103.677 42.5832 103.676 42.5859 103.675 42.5886C103.674 42.5914 103.672 42.5941 103.671 42.5969C103.67 42.5996 103.668 42.6024 103.667 42.6052C103.666 42.6079 103.664 42.6107 103.663 42.6135C103.662 42.6162 103.66 42.619 103.659 42.6218C103.658 42.6245 103.656 42.6273 103.655 42.6301C103.654 42.6329 103.652 42.6357 103.651 42.6385C103.65 42.6413 103.648 42.6441 103.647 42.6468C103.646 42.6496 103.644 42.6524 103.643 42.6552C103.642 42.658 103.64 42.6608 103.639 42.6637C103.638 42.6665 103.636 42.6693 103.635 42.6721C103.634 42.6749 103.632 42.6777 103.631 42.6806C103.63 42.6834 103.628 42.6862 103.627 42.6891C103.626 42.6919 103.624 42.6947 103.623 42.6975C103.622 42.7004 103.62 42.7032 103.619 42.7061C103.618 42.7089 103.616 42.7118 103.615 42.7146C103.614 42.7175 103.612 42.7203 103.611 42.7232C103.609 42.726 103.608 42.7289 103.607 42.7318C103.605 42.7346 103.604 42.7375 103.603 42.7404C103.601 42.7433 103.6 42.7461 103.598 42.749C103.597 42.7519 103.596 42.7548 103.594 42.7577C103.593 42.7606 103.592 42.7634 103.59 42.7663C103.589 42.7692 103.587 42.7721 103.586 42.775C103.585 42.7779 103.583 42.7808 103.582 42.7838C103.581 42.7867 103.579 42.7896 103.578 42.7925C103.576 42.7954 103.575 42.7983 103.574 42.8012C103.572 42.8042 103.571 42.8071 103.569 42.81C103.568 42.813 103.567 42.8159 103.565 42.8188C103.564 42.8218 103.562 42.8247 103.561 42.8276C103.56 42.8306 103.558 42.8335 103.557 42.8365C103.555 42.8394 103.554 42.8424 103.553 42.8453C103.551 42.8483 103.55 42.8513 103.548 42.8542C103.547 42.8572 103.546 42.8602 103.544 42.8631C103.543 42.8661 103.541 42.8691 103.54 42.8721C103.538 42.8751 103.537 42.878 103.536 42.881C103.534 42.884 103.533 42.887 103.531 42.89C103.53 42.893 103.528 42.896 103.527 42.899C103.526 42.902 103.524 42.905 103.523 42.908C103.521 42.911 103.52 42.914 103.518 42.917C103.517 42.92 103.516 42.923 103.514 42.9261C103.513 42.9291 103.511 42.9321 103.51 42.9351C103.508 42.9382 103.507 42.9412 103.506 42.9442C103.504 42.9473 103.503 42.9503 103.501 42.9534C103.5 42.9564 103.498 42.9594 103.497 42.9625C103.495 42.9655 103.494 42.9686 103.492 42.9717C103.491 42.9747 103.49 42.9778 103.488 42.9808C103.487 42.9839 103.485 42.987 103.484 42.99C103.482 42.9931 103.481 42.9962 103.479 42.9993C103.478 43.0023 103.476 43.0054 103.475 43.0085C103.473 43.0116 103.472 43.0147 103.47 43.0178C103.469 43.0209 103.468 43.024 103.466 43.0271C103.465 43.0302 103.463 43.0333 103.462 43.0364C103.46 43.0395 103.459 43.0426 103.457 43.0457C103.456 43.0488 103.454 43.0519 103.453 43.055C103.451 43.0582 103.45 43.0613 103.448 43.0644C103.447 43.0675 103.445 43.0707 103.444 43.0738C103.442 43.0769 103.441 43.0801 103.439 43.0832C103.438 43.0864 103.436 43.0895 103.435 43.0926C103.433 43.0958 103.432 43.0989 103.43 43.1021C103.429 43.1053 103.427 43.1084 103.426 43.1116C103.424 43.1147 103.423 43.1179 103.421 43.1211C103.42 43.1242 103.418 43.1274 103.417 43.1306C103.415 43.1338 103.414 43.137 103.412 43.1401C103.411 43.1433 103.409 43.1465 103.408 43.1497C103.406 43.1529 103.405 43.1561 103.403 43.1593C103.402 43.1625 103.4 43.1657 103.399 43.1689C103.397 43.1721 103.395 43.1753 103.394 43.1785C103.392 43.1817 103.391 43.1849 103.389 43.1881C103.388 43.1914 103.386 43.1946 103.385 43.1978C103.383 43.201 103.382 43.2043 103.38 43.2075C103.379 43.2107 103.377 43.214 103.375 43.2172C103.374 43.2205 103.372 43.2237 103.371 43.2269C103.369 43.2302 103.368 43.2334 103.366 43.2367C103.365 43.2399 103.363 43.2432 103.362 43.2465C103.36 43.2497 103.358 43.253 103.357 43.2563C103.355 43.2595 103.354 43.2628 103.352 43.2661C103.351 43.2693 103.349 43.2726 103.348 43.2759C103.346 43.2792 103.344 43.2825 103.343 43.2858C103.341 43.2891 103.34 43.2923 103.338 43.2956C103.337 43.2989 103.335 43.3022 103.333 43.3055C103.332 43.3088 103.33 43.3121 103.329 43.3155C103.327 43.3188 103.326 43.3221 103.324 43.3254C103.322 43.3287 103.321 43.332 103.319 43.3354C103.318 43.3387 103.316 43.342 103.314 43.3453C103.313 43.3487 103.311 43.352 103.31 43.3553C103.308 43.3587 103.307 43.362 103.305 43.3654C103.303 43.3687 103.302 43.3721 103.3 43.3754C103.299 43.3788 103.297 43.3821 103.295 43.3855C103.294 43.3888 103.292 43.3922 103.291 43.3956C103.289 43.3989 103.287 43.4023 103.286 43.4057C103.284 43.4091 103.283 43.4124 103.281 43.4158C103.279 43.4192 103.278 43.4226 103.276 43.426C103.274 43.4294 103.273 43.4327 103.271 43.4361C103.27 43.4395 103.268 43.4429 103.266 43.4463C103.265 43.4497 103.263 43.4531 103.262 43.4565C103.26 43.46 103.258 43.4634 103.257 43.4668C103.255 43.4702 103.253 43.4736 103.252 43.477C103.25 43.4805 103.248 43.4839 103.247 43.4873C103.245 43.4908 103.244 43.4942 103.242 43.4976C103.24 43.5011 103.239 43.5045 103.237 43.5079C103.235 43.5114 103.234 43.5148 103.232 43.5183C103.23 43.5217 103.229 43.5252 103.227 43.5287C103.226 43.5321 103.224 43.5356 103.222 43.539C103.221 43.5425 103.219 43.546 103.217 43.5494C103.216 43.5529 103.214 43.5564 103.212 43.5599C103.211 43.5633 103.209 43.5668 103.207 43.5703C103.206 43.5738 103.204 43.5773 103.202 43.5808C103.201 43.5843 103.199 43.5878 103.197 43.5913C103.196 43.5948 103.194 43.5983 103.192 43.6018C103.191 43.6053 103.189 43.6088 103.187 43.6123C103.186 43.6158 103.184 43.6194 103.182 43.6229C103.181 43.6264 103.179 43.6299 103.177 43.6334C103.176 43.637 103.174 43.6405 103.172 43.6441C103.171 43.6476 103.169 43.6511 103.167 43.6547C103.165 43.6582 103.164 43.6618 103.162 43.6653C103.16 43.6689 103.159 43.6724 103.157 43.676C103.155 43.6795 103.154 43.6831 103.152 43.6866C103.15 43.6902 103.149 43.6938 103.147 43.6973C103.145 43.7009 103.143 43.7045 103.142 43.7081C103.14 43.7117 103.138 43.7152 103.137 43.7188C103.135 43.7224 103.133 43.726 103.131 43.7296C103.13 43.7332 103.128 43.7368 103.126 43.7404C103.125 43.744 103.123 43.7476 103.121 43.7512C103.119 43.7548 103.118 43.7584 103.116 43.762C103.114 43.7656 103.113 43.7692 103.111 43.7729C103.109 43.7765 103.107 43.7801 103.106 43.7837C103.104 43.7873 103.102 43.791 103.1 43.7946C103.099 43.7983 103.097 43.8019 103.095 43.8055C103.094 43.8092 103.092 43.8128 103.09 43.8165C103.088 43.8201 103.087 43.8238 103.085 43.8274C103.083 43.8311 103.081 43.8347 103.08 43.8384C103.078 43.8421 103.076 43.8457 103.074 43.8494C103.073 43.8531 103.071 43.8567 103.069 43.8604C103.067 43.8641 103.066 43.8678 103.064 43.8715C103.062 43.8751 103.06 43.8788 103.059 43.8825C103.057 43.8862 103.055 43.8899 103.053 43.8936C103.052 43.8973 103.05 43.901 103.048 43.9047C103.046 43.9084 103.045 43.9121 103.043 43.9158C103.041 43.9195 103.039 43.9232 103.037 43.927C103.036 43.9307 103.034 43.9344 103.032 43.9381C103.03 43.9419 103.029 43.9456 103.027 43.9493C103.025 43.9531 103.023 43.9568 103.021 43.9605C103.02 43.9643 103.018 43.968 103.016 43.9718C103.014 43.9755 103.013 43.9793 103.011 43.983C103.009 43.9868 103.007 43.9905 103.005 43.9943C103.004 43.998 103.002 44.0018 103 44.0056C102.998 44.0093 102.996 44.0131 102.995 44.0169C102.993 44.0207 102.991 44.0244 102.989 44.0282C102.987 44.032 102.986 44.0358 102.984 44.0396C102.982 44.0434 102.98 44.0472 102.978 44.051C102.977 44.0548 102.975 44.0586 102.973 44.0624C102.971 44.0662 102.969 44.07 102.968 44.0738C102.966 44.0776 102.964 44.0814 102.962 44.0852C102.96 44.089 102.958 44.0929 102.957 44.0967C102.955 44.1005 102.953 44.1043 102.951 44.1082C102.949 44.112 102.948 44.1158 102.946 44.1197C102.944 44.1235 102.942 44.1274 102.94 44.1312C102.938 44.135 102.937 44.1389 102.935 44.1427C102.933 44.1466 102.931 44.1505 102.929 44.1543C102.927 44.1582 102.926 44.162 102.924 44.1659C102.922 44.1698 102.92 44.1736 102.918 44.1775C102.916 44.1814 102.914 44.1853 102.913 44.1891C102.911 44.193 102.909 44.1969 102.907 44.2008C102.905 44.2047 102.903 44.2086 102.901 44.2125C102.9 44.2164 102.898 44.2203 102.896 44.2242C102.894 44.2281 102.892 44.232 102.89 44.2359C102.888 44.2398 102.887 44.2437 102.885 44.2476C102.883 44.2515 102.881 44.2555 102.879 44.2594C102.877 44.2633 102.875 44.2672 102.874 44.2712C102.872 44.2751 102.87 44.279 102.868 44.283C102.866 44.2869 102.864 44.2908 102.862 44.2948C102.86 44.2987 102.859 44.3027 102.857 44.3066C102.855 44.3106 102.853 44.3145 102.851 44.3185C102.849 44.3224 102.847 44.3264 102.845 44.3304C102.843 44.3343 102.842 44.3383 102.84 44.3423C102.838 44.3462 102.836 44.3502 102.834 44.3542C102.832 44.3582 102.83 44.3622 102.828 44.3661C102.826 44.3701 102.824 44.3741 102.823 44.3781C102.821 44.3821 102.819 44.3861 102.817 44.3901C102.815 44.3941 102.813 44.3981 102.811 44.4021C102.809 44.4061 102.807 44.4101 102.805 44.4142C102.804 44.4182 102.802 44.4222 102.8 44.4262C102.798 44.4302 102.796 44.4343 102.794 44.4383C102.792 44.4423 102.79 44.4464 102.788 44.4504C102.786 44.4544 102.784 44.4585 102.782 44.4625C102.78 44.4666 102.779 44.4706 102.777 44.4746C102.775 44.4787 102.773 44.4827 102.771 44.4868C102.769 44.4909 102.767 44.4949 102.765 44.499C102.763 44.503 102.761 44.5071 102.759 44.5112C102.757 44.5152 102.755 44.5193 102.753 44.5234C102.751 44.5275 102.749 44.5316 102.748 44.5356C102.746 44.5397 102.744 44.5438 102.742 44.5479C102.74 44.552 102.738 44.5561 102.736 44.5602C102.734 44.5643 102.732 44.5684 102.73 44.5725C102.728 44.5766 102.726 44.5807 102.724 44.5848C102.722 44.589 102.72 44.5931 102.718 44.5972C102.716 44.6013 102.714 44.6054 102.712 44.6096C102.71 44.6137 102.708 44.6178 102.706 44.622C102.704 44.6261 102.703 44.6302 102.701 44.6344C102.699 44.6385 102.697 44.6427 102.695 44.6468C102.693 44.651 102.691 44.6551 102.689 44.6593C102.687 44.6634 102.685 44.6676 102.683 44.6717C102.681 44.6759 102.679 44.6801 102.677 44.6842C102.675 44.6884 102.673 44.6926 102.671 44.6968C102.669 44.7009 102.667 44.7051 102.665 44.7093C102.663 44.7135 102.661 44.7177 102.659 44.7219C102.657 44.726 102.655 44.7302 102.653 44.7344C102.651 44.7386 102.649 44.7428 102.647 44.747C102.645 44.7512 102.643 44.7554 102.641 44.7597C102.639 44.7639 102.637 44.7681 102.635 44.7723C102.633 44.7765 102.631 44.7808 102.629 44.785C102.627 44.7892 102.625 44.7934 102.623 44.7977C102.621 44.8019 102.619 44.8061 102.617 44.8104C102.615 44.8146 102.613 44.8189 102.611 44.8231C102.609 44.8274 102.607 44.8316 102.605 44.8359C102.603 44.8401 102.601 44.8444 102.598 44.8486C102.596 44.8529 102.594 44.8572 102.592 44.8614C102.59 44.8657 102.588 44.87 102.586 44.8742C102.584 44.8785 102.582 44.8828 102.58 44.8871C102.578 44.8914 102.576 44.8956 102.574 44.8999C102.572 44.9042 102.57 44.9085 102.568 44.9128C102.566 44.9171 102.564 44.9214 102.562 44.9257C102.56 44.93 102.558 44.9343 102.556 44.9386C102.554 44.9429 102.552 44.9472 102.549 44.9516C102.547 44.9559 102.545 44.9602 102.543 44.9645C102.541 44.9689 102.539 44.9732 102.537 44.9775C102.535 44.9818 102.533 44.9862 102.531 44.9905C102.529 44.9949 102.527 44.9992 102.525 45.0035C102.523 45.0079 102.521 45.0122 102.518 45.0166C102.516 45.021 102.514 45.0253 102.512 45.0297C102.51 45.034 102.508 45.0384 102.506 45.0427C102.504 45.0471 102.502 45.0515 102.5 45.0559C102.498 45.0602 102.496 45.0646 102.494 45.069C102.491 45.0734 102.489 45.0778 102.487 45.0822C102.485 45.0865 102.483 45.0909 102.481 45.0953C102.479 45.0997 102.477 45.1041 102.475 45.1085C102.473 45.1129 102.471 45.1173 102.468 45.1217C102.466 45.1261 102.464 45.1306 102.462 45.135C102.46 45.1394 102.458 45.1438 102.456 45.1482C102.454 45.1526 102.452 45.1571 102.449 45.1615C102.447 45.1659 102.445 45.1704 102.443 45.1748C102.441 45.1793 102.439 45.1837 102.437 45.1881C102.435 45.1926 102.433 45.197 102.43 45.2015C102.428 45.2059 102.426 45.2104 102.424 45.2148C102.422 45.2193 102.42 45.2238 102.418 45.2282C102.416 45.2327 102.413 45.2372 102.411 45.2416C102.409 45.2461 102.407 45.2506 102.405 45.2551C102.403 45.2595 102.401 45.264 102.399 45.2685C102.396 45.273 102.394 45.2775 102.392 45.282C102.39 45.2865 102.388 45.291 102.386 45.2955C102.384 45.3 102.381 45.3045 102.379 45.309C102.377 45.3135 102.375 45.318 102.373 45.3225C102.371 45.327 102.368 45.3316 102.366 45.3361C102.364 45.3406 102.362 45.3451 102.36 45.3497C102.358 45.3542 102.356 45.3587 102.353 45.3633C102.351 45.3678 102.349 45.3723 102.347 45.3769C102.345 45.3814 102.343 45.386 102.34 45.3905C102.338 45.3951 102.336 45.3996 102.334 45.4042C102.332 45.4087 102.33 45.4133 102.327 45.4178C102.325 45.4224 102.323 45.427 102.321 45.4316C102.319 45.4361 102.317 45.4407 102.314 45.4453C102.312 45.4499 102.31 45.4544 102.308 45.459C102.306 45.4636 102.303 45.4682 102.301 45.4728C102.299 45.4774 102.297 45.482 102.295 45.4866C102.292 45.4912 102.29 45.4958 102.288 45.5004C102.286 45.505 102.284 45.5096 102.281 45.5142C102.279 45.5188 102.277 45.5234 102.275 45.5281C102.273 45.5327 102.27 45.5373 102.268 45.5419C102.266 45.5466 102.264 45.5512 102.262 45.5558C102.259 45.5605 102.257 45.5651 102.255 45.5697C102.253 45.5744 102.251 45.579 102.248 45.5837C102.246 45.5883 102.244 45.593 102.242 45.5976C102.24 45.6023 102.237 45.6069 102.235 45.6116C102.233 45.6163 102.231 45.6209 102.228 45.6256C102.226 45.6303 102.224 45.6349 102.222 45.6396C102.22 45.6443 102.217 45.649 102.215 45.6537C102.213 45.6583 102.211 45.663 102.208 45.6677C102.206 45.6724 102.204 45.6771 102.202 45.6818C102.199 45.6865 102.197 45.6912 102.195 45.6959C102.193 45.7006 102.19 45.7053 102.188 45.71C102.186 45.7147 102.184 45.7195 102.181 45.7242C102.179 45.7289 102.177 45.7336 102.175 45.7383C102.172 45.7431 102.17 45.7478 102.168 45.7525C102.166 45.7573 102.163 45.762 102.161 45.7668C102.159 45.7715 102.157 45.7762 102.154 45.781C102.152 45.7857 102.15 45.7905 102.148 45.7952C102.145 45.8 102.143 45.8047 102.141 45.8095C102.139 45.8143 102.136 45.819 102.134 45.8238C102.132 45.8286 102.13 45.8333 102.127 45.8381C102.125 45.8429 102.123 45.8477 102.12 45.8524C102.118 45.8572 102.116 45.862 102.114 45.8668C102.111 45.8716 102.109 45.8764 102.107 45.8812C102.104 45.886 102.102 45.8908 102.1 45.8956C102.098 45.9004 102.095 45.9052 102.093 45.91C102.091 45.9148 102.088 45.9196 102.086 45.9244C102.084 45.9293 102.082 45.9341 102.079 45.9389C102.077 45.9437 102.075 45.9486 102.072 45.9534C102.07 45.9582 102.068 45.9631 102.065 45.9679C102.063 45.9727 102.061 45.9776 102.058 45.9824C102.056 45.9873 102.054 45.9921 102.052 45.997C102.049 46.0018 102.047 46.0067 102.045 46.0115C102.042 46.0164 102.04 46.0213 102.038 46.0261C102.035 46.031 102.033 46.0359 102.031 46.0407C102.028 46.0456 102.026 46.0505 102.024 46.0554C102.021 46.0603 102.019 46.0651 102.017 46.07C102.014 46.0749 102.012 46.0798 102.01 46.0847C102.007 46.0896 102.005 46.0945 102.003 46.0994C102 46.1043 101.998 46.1092 101.996 46.1141C101.993 46.119 101.991 46.1239 101.989 46.1289C101.986 46.1338 101.984 46.1387 101.982 46.1436C101.979 46.1485 101.977 46.1535 101.975 46.1584C101.972 46.1633 101.97 46.1683 101.968 46.1732C101.965 46.1781 101.963 46.1831 101.961 46.188C101.958 46.193 101.956 46.1979 101.954 46.2029C101.951 46.2078 101.949 46.2128 101.946 46.2177C101.944 46.2227 101.942 46.2276 101.939 46.2326C101.937 46.2376 101.935 46.2425 101.932 46.2475C101.93 46.2525 101.927 46.2575 101.925 46.2624C101.923 46.2674 101.92 46.2724 101.918 46.2774C101.916 46.2824 101.913 46.2874 101.911 46.2924L104.536 47.3033C104.538 47.2983 104.54 47.2933 104.543 47.2883C104.545 47.2834 104.548 47.2784 104.55 47.2734C104.552 47.2684 104.555 47.2634 104.557 47.2585C104.559 47.2535 104.562 47.2485 104.564 47.2436C104.567 47.2386 104.569 47.2336 104.571 47.2287C104.574 47.2237 104.576 47.2188 104.578 47.2138C104.581 47.2089 104.583 47.2039 104.585 47.199C104.588 47.194 104.59 47.1891 104.592 47.1841C104.595 47.1792 104.597 47.1743 104.6 47.1693C104.602 47.1644 104.604 47.1595 104.607 47.1546C104.609 47.1496 104.611 47.1447 104.614 47.1398C104.616 47.1349 104.618 47.13 104.621 47.1251C104.623 47.1202 104.625 47.1152 104.628 47.1103C104.63 47.1054 104.632 47.1005 104.635 47.0956C104.637 47.0907 104.639 47.0859 104.642 47.081C104.644 47.0761 104.646 47.0712 104.649 47.0663C104.651 47.0614 104.653 47.0566 104.656 47.0517C104.658 47.0468 104.66 47.0419 104.663 47.0371C104.665 47.0322 104.667 47.0273 104.669 47.0225C104.672 47.0176 104.674 47.0128 104.676 47.0079C104.679 47.0031 104.681 46.9982 104.683 46.9934C104.686 46.9885 104.688 46.9837 104.69 46.9788C104.693 46.974 104.695 46.9692 104.697 46.9643C104.699 46.9595 104.702 46.9547 104.704 46.9498C104.706 46.945 104.709 46.9402 104.711 46.9354C104.713 46.9306 104.716 46.9258 104.718 46.9209C104.72 46.9161 104.722 46.9113 104.725 46.9065C104.727 46.9017 104.729 46.8969 104.732 46.8921C104.734 46.8873 104.736 46.8825 104.738 46.8777C104.741 46.873 104.743 46.8682 104.745 46.8634C104.748 46.8586 104.75 46.8538 104.752 46.8491C104.754 46.8443 104.757 46.8395 104.759 46.8347C104.761 46.83 104.763 46.8252 104.766 46.8204C104.768 46.8157 104.77 46.8109 104.772 46.8062C104.775 46.8014 104.777 46.7967 104.779 46.7919C104.782 46.7872 104.784 46.7824 104.786 46.7777C104.788 46.7729 104.791 46.7682 104.793 46.7635C104.795 46.7587 104.797 46.754 104.8 46.7493C104.802 46.7446 104.804 46.7398 104.806 46.7351C104.809 46.7304 104.811 46.7257 104.813 46.721C104.815 46.7163 104.818 46.7116 104.82 46.7068C104.822 46.7021 104.824 46.6974 104.827 46.6927C104.829 46.688 104.831 46.6834 104.833 46.6787C104.835 46.674 104.838 46.6693 104.84 46.6646C104.842 46.6599 104.844 46.6552 104.847 46.6506C104.849 46.6459 104.851 46.6412 104.853 46.6365C104.856 46.6319 104.858 46.6272 104.86 46.6225C104.862 46.6179 104.864 46.6132 104.867 46.6086C104.869 46.6039 104.871 46.5993 104.873 46.5946C104.875 46.59 104.878 46.5853 104.88 46.5807C104.882 46.576 104.884 46.5714 104.887 46.5668C104.889 46.5621 104.891 46.5575 104.893 46.5529C104.895 46.5482 104.898 46.5436 104.9 46.539C104.902 46.5344 104.904 46.5298 104.906 46.5251C104.909 46.5205 104.911 46.5159 104.913 46.5113C104.915 46.5067 104.917 46.5021 104.919 46.4975C104.922 46.4929 104.924 46.4883 104.926 46.4837C104.928 46.4791 104.93 46.4745 104.933 46.4699C104.935 46.4654 104.937 46.4608 104.939 46.4562C104.941 46.4516 104.944 46.4471 104.946 46.4425C104.948 46.4379 104.95 46.4333 104.952 46.4288C104.954 46.4242 104.957 46.4197 104.959 46.4151C104.961 46.4105 104.963 46.406 104.965 46.4014C104.967 46.3969 104.97 46.3923 104.972 46.3878C104.974 46.3833 104.976 46.3787 104.978 46.3742C104.98 46.3697 104.983 46.3651 104.985 46.3606C104.987 46.3561 104.989 46.3515 104.991 46.347C104.993 46.3425 104.995 46.338 104.998 46.3335C105 46.3289 105.002 46.3244 105.004 46.3199C105.006 46.3154 105.008 46.3109 105.011 46.3064C105.013 46.3019 105.015 46.2974 105.017 46.2929C105.019 46.2884 105.021 46.2839 105.023 46.2794C105.025 46.275 105.028 46.2705 105.03 46.266C105.032 46.2615 105.034 46.257 105.036 46.2526C105.038 46.2481 105.04 46.2436 105.043 46.2392C105.045 46.2347 105.047 46.2302 105.049 46.2258C105.051 46.2213 105.053 46.2169 105.055 46.2124C105.057 46.208 105.06 46.2035 105.062 46.1991C105.064 46.1946 105.066 46.1902 105.068 46.1858C105.07 46.1813 105.072 46.1769 105.074 46.1724C105.076 46.168 105.079 46.1636 105.081 46.1592C105.083 46.1547 105.085 46.1503 105.087 46.1459C105.089 46.1415 105.091 46.1371 105.093 46.1327C105.095 46.1283 105.097 46.1239 105.1 46.1195C105.102 46.1151 105.104 46.1107 105.106 46.1063C105.108 46.1019 105.11 46.0975 105.112 46.0931C105.114 46.0887 105.116 46.0843 105.118 46.0799C105.12 46.0756 105.123 46.0712 105.125 46.0668C105.127 46.0624 105.129 46.0581 105.131 46.0537C105.133 46.0493 105.135 46.045 105.137 46.0406C105.139 46.0362 105.141 46.0319 105.143 46.0275C105.145 46.0232 105.147 46.0188 105.15 46.0145C105.152 46.0101 105.154 46.0058 105.156 46.0015C105.158 45.9971 105.16 45.9928 105.162 45.9885C105.164 45.9841 105.166 45.9798 105.168 45.9755C105.17 45.9712 105.172 45.9668 105.174 45.9625C105.176 45.9582 105.178 45.9539 105.18 45.9496C105.183 45.9453 105.185 45.9409 105.187 45.9367C105.189 45.9323 105.191 45.928 105.193 45.9238C105.195 45.9194 105.197 45.9152 105.199 45.9109C105.201 45.9066 105.203 45.9023 105.205 45.898C105.207 45.8937 105.209 45.8895 105.211 45.8852C105.213 45.8809 105.215 45.8766 105.217 45.8724C105.219 45.8681 105.221 45.8638 105.223 45.8596C105.225 45.8553 105.227 45.8511 105.229 45.8468C105.231 45.8425 105.233 45.8383 105.235 45.834C105.238 45.8298 105.24 45.8256 105.242 45.8213C105.244 45.8171 105.246 45.8128 105.248 45.8086C105.25 45.8044 105.252 45.8001 105.254 45.7959C105.256 45.7917 105.258 45.7875 105.26 45.7833C105.262 45.779 105.264 45.7748 105.266 45.7706C105.268 45.7664 105.27 45.7622 105.272 45.758C105.274 45.7538 105.276 45.7496 105.278 45.7454C105.28 45.7412 105.282 45.737 105.284 45.7328C105.286 45.7286 105.288 45.7244 105.29 45.7202C105.292 45.7161 105.294 45.7119 105.296 45.7077C105.298 45.7035 105.3 45.6993 105.302 45.6952C105.304 45.691 105.306 45.6868 105.308 45.6827C105.31 45.6785 105.312 45.6744 105.314 45.6702C105.316 45.666 105.317 45.6619 105.319 45.6577C105.321 45.6536 105.323 45.6494 105.325 45.6453C105.327 45.6412 105.329 45.637 105.331 45.6329C105.333 45.6288 105.335 45.6246 105.337 45.6205C105.339 45.6164 105.341 45.6122 105.343 45.6081C105.345 45.604 105.347 45.5999 105.349 45.5958C105.351 45.5917 105.353 45.5876 105.355 45.5834C105.357 45.5793 105.359 45.5752 105.361 45.5711C105.363 45.567 105.365 45.563 105.367 45.5589C105.368 45.5548 105.37 45.5507 105.372 45.5466C105.374 45.5425 105.376 45.5384 105.378 45.5343C105.38 45.5303 105.382 45.5262 105.384 45.5221C105.386 45.518 105.388 45.514 105.39 45.5099C105.392 45.5059 105.394 45.5018 105.396 45.4977C105.398 45.4937 105.4 45.4896 105.401 45.4856C105.403 45.4815 105.405 45.4775 105.407 45.4734C105.409 45.4694 105.411 45.4654 105.413 45.4613C105.415 45.4573 105.417 45.4533 105.419 45.4492C105.421 45.4452 105.423 45.4412 105.425 45.4372C105.426 45.4331 105.428 45.4291 105.43 45.4251C105.432 45.4211 105.434 45.4171 105.436 45.4131C105.438 45.4091 105.44 45.4051 105.442 45.401C105.444 45.3971 105.446 45.3931 105.447 45.3891C105.449 45.3851 105.451 45.3811 105.453 45.3771C105.455 45.3731 105.457 45.3691 105.459 45.3651C105.461 45.3612 105.463 45.3572 105.464 45.3532C105.466 45.3492 105.468 45.3453 105.47 45.3413C105.472 45.3373 105.474 45.3334 105.476 45.3294C105.478 45.3255 105.48 45.3215 105.481 45.3176C105.483 45.3136 105.485 45.3097 105.487 45.3057C105.489 45.3018 105.491 45.2978 105.493 45.2939C105.495 45.29 105.496 45.286 105.498 45.2821C105.5 45.2782 105.502 45.2742 105.504 45.2703C105.506 45.2664 105.508 45.2625 105.51 45.2586C105.511 45.2546 105.513 45.2507 105.515 45.2468C105.517 45.2429 105.519 45.239 105.521 45.2351C105.523 45.2312 105.524 45.2273 105.526 45.2234C105.528 45.2195 105.53 45.2156 105.532 45.2117C105.534 45.2079 105.536 45.204 105.537 45.2001C105.539 45.1962 105.541 45.1923 105.543 45.1885C105.545 45.1846 105.547 45.1807 105.548 45.1768C105.55 45.173 105.552 45.1691 105.554 45.1653C105.556 45.1614 105.558 45.1575 105.56 45.1537C105.561 45.1498 105.563 45.146 105.565 45.1421C105.567 45.1383 105.569 45.1344 105.571 45.1306C105.572 45.1268 105.574 45.1229 105.576 45.1191C105.578 45.1153 105.58 45.1114 105.581 45.1076C105.583 45.1038 105.585 45.1 105.587 45.0962C105.589 45.0923 105.591 45.0885 105.592 45.0847C105.594 45.0809 105.596 45.0771 105.598 45.0733C105.6 45.0695 105.601 45.0657 105.603 45.0619C105.605 45.0581 105.607 45.0543 105.609 45.0505C105.61 45.0467 105.612 45.0429 105.614 45.0392C105.616 45.0354 105.618 45.0316 105.619 45.0278C105.621 45.0241 105.623 45.0203 105.625 45.0165C105.627 45.0127 105.628 45.009 105.63 45.0052C105.632 45.0015 105.634 44.9977 105.636 44.9939C105.637 44.9902 105.639 44.9864 105.641 44.9827C105.643 44.979 105.645 44.9752 105.646 44.9715C105.648 44.9677 105.65 44.964 105.652 44.9603C105.653 44.9565 105.655 44.9528 105.657 44.9491C105.659 44.9453 105.661 44.9416 105.662 44.9379C105.664 44.9342 105.666 44.9305 105.668 44.9268C105.669 44.923 105.671 44.9193 105.673 44.9156C105.675 44.9119 105.676 44.9082 105.678 44.9045C105.68 44.9008 105.682 44.8971 105.683 44.8934C105.685 44.8898 105.687 44.8861 105.689 44.8824C105.69 44.8787 105.692 44.875 105.694 44.8714C105.696 44.8677 105.697 44.864 105.699 44.8603C105.701 44.8567 105.703 44.853 105.704 44.8493C105.706 44.8457 105.708 44.842 105.71 44.8384C105.711 44.8347 105.713 44.8311 105.715 44.8274C105.717 44.8238 105.718 44.8201 105.72 44.8165C105.722 44.8128 105.724 44.8092 105.725 44.8055C105.727 44.8019 105.729 44.7983 105.731 44.7947C105.732 44.791 105.734 44.7874 105.736 44.7838C105.737 44.7802 105.739 44.7766 105.741 44.7729C105.743 44.7693 105.744 44.7657 105.746 44.7621C105.748 44.7585 105.749 44.7549 105.751 44.7513C105.753 44.7477 105.755 44.7441 105.756 44.7405C105.758 44.7369 105.76 44.7333 105.761 44.7298C105.763 44.7262 105.765 44.7226 105.767 44.719C105.768 44.7154 105.77 44.7119 105.772 44.7083C105.773 44.7047 105.775 44.7011 105.777 44.6976C105.778 44.694 105.78 44.6905 105.782 44.6869C105.784 44.6833 105.785 44.6798 105.787 44.6762C105.789 44.6727 105.79 44.6692 105.792 44.6656C105.794 44.6621 105.795 44.6585 105.797 44.655C105.799 44.6515 105.8 44.6479 105.802 44.6444C105.804 44.6409 105.805 44.6373 105.807 44.6338C105.809 44.6303 105.81 44.6268 105.812 44.6233C105.814 44.6197 105.815 44.6162 105.817 44.6127C105.819 44.6092 105.821 44.6057 105.822 44.6022C105.824 44.5987 105.826 44.5952 105.827 44.5917C105.829 44.5882 105.831 44.5847 105.832 44.5813C105.834 44.5778 105.835 44.5743 105.837 44.5708C105.839 44.5673 105.84 44.5639 105.842 44.5604C105.844 44.5569 105.845 44.5534 105.847 44.55C105.849 44.5465 105.85 44.5431 105.852 44.5396C105.854 44.5361 105.855 44.5327 105.857 44.5292C105.859 44.5258 105.86 44.5223 105.862 44.5189C105.864 44.5154 105.865 44.512 105.867 44.5086C105.868 44.5051 105.87 44.5017 105.872 44.4983C105.873 44.4948 105.875 44.4914 105.877 44.488C105.878 44.4846 105.88 44.4811 105.881 44.4777C105.883 44.4743 105.885 44.4709 105.886 44.4675C105.888 44.4641 105.89 44.4607 105.891 44.4573C105.893 44.4539 105.894 44.4505 105.896 44.4471C105.898 44.4437 105.899 44.4403 105.901 44.4369C105.903 44.4335 105.904 44.4301 105.906 44.4268C105.907 44.4234 105.909 44.42 105.911 44.4166C105.912 44.4133 105.914 44.4099 105.915 44.4065C105.917 44.4031 105.919 44.3998 105.92 44.3964C105.922 44.3931 105.923 44.3897 105.925 44.3864C105.927 44.383 105.928 44.3797 105.93 44.3763C105.931 44.373 105.933 44.3696 105.935 44.3663C105.936 44.363 105.938 44.3596 105.939 44.3563C105.941 44.353 105.942 44.3496 105.944 44.3463C105.946 44.343 105.947 44.3397 105.949 44.3363C105.95 44.333 105.952 44.3297 105.954 44.3264C105.955 44.3231 105.957 44.3198 105.958 44.3165C105.96 44.3132 105.961 44.3099 105.963 44.3066C105.965 44.3033 105.966 44.3 105.968 44.2967C105.969 44.2934 105.971 44.2901 105.972 44.2868C105.974 44.2836 105.976 44.2803 105.977 44.277C105.979 44.2737 105.98 44.2705 105.982 44.2672C105.983 44.2639 105.985 44.2607 105.986 44.2574C105.988 44.2541 105.99 44.2509 105.991 44.2476C105.993 44.2444 105.994 44.2411 105.996 44.2379C105.997 44.2346 105.999 44.2314 106 44.2282C106.002 44.2249 106.003 44.2217 106.005 44.2184C106.007 44.2152 106.008 44.212 106.01 44.2088C106.011 44.2055 106.013 44.2023 106.014 44.1991C106.016 44.1959 106.017 44.1927 106.019 44.1894C106.02 44.1862 106.022 44.183 106.023 44.1798C106.025 44.1766 106.026 44.1734 106.028 44.1702C106.029 44.167 106.031 44.1638 106.032 44.1606C106.034 44.1574 106.036 44.1543 106.037 44.1511C106.039 44.1479 106.04 44.1447 106.042 44.1415C106.043 44.1384 106.045 44.1352 106.046 44.132C106.048 44.1288 106.049 44.1257 106.051 44.1225C106.052 44.1194 106.054 44.1162 106.055 44.113C106.057 44.1099 106.058 44.1067 106.06 44.1036C106.061 44.1004 106.063 44.0973 106.064 44.0942C106.066 44.091 106.067 44.0879 106.069 44.0847C106.07 44.0816 106.072 44.0785 106.073 44.0754C106.075 44.0722 106.076 44.0691 106.078 44.066C106.079 44.0629 106.081 44.0597 106.082 44.0566C106.084 44.0535 106.085 44.0504 106.086 44.0473C106.088 44.0442 106.089 44.0411 106.091 44.038C106.092 44.0349 106.094 44.0318 106.095 44.0287C106.097 44.0256 106.098 44.0225 106.1 44.0195C106.101 44.0164 106.103 44.0133 106.104 44.0102C106.106 44.0071 106.107 44.004 106.109 44.001C106.11 43.9979 106.111 43.9948 106.113 43.9918C106.114 43.9887 106.116 43.9857 106.117 43.9826C106.119 43.9795 106.12 43.9765 106.122 43.9734C106.123 43.9704 106.125 43.9673 106.126 43.9643C106.127 43.9613 106.129 43.9582 106.13 43.9552C106.132 43.9522 106.133 43.9491 106.135 43.9461C106.136 43.9431 106.138 43.94 106.139 43.937C106.14 43.934 106.142 43.931 106.143 43.928C106.145 43.9249 106.146 43.9219 106.148 43.9189C106.149 43.9159 106.15 43.9129 106.152 43.9099C106.153 43.9069 106.155 43.9039 106.156 43.9009C106.158 43.8979 106.159 43.8949 106.16 43.892C106.162 43.889 106.163 43.886 106.165 43.883C106.166 43.88 106.168 43.8771 106.169 43.8741C106.17 43.8711 106.172 43.8681 106.173 43.8652C106.175 43.8622 106.176 43.8593 106.177 43.8563C106.179 43.8533 106.18 43.8504 106.182 43.8474C106.183 43.8445 106.184 43.8415 106.186 43.8386C106.187 43.8356 106.189 43.8327 106.19 43.8298C106.191 43.8268 106.193 43.8239 106.194 43.821C106.196 43.818 106.197 43.8151 106.198 43.8122C106.2 43.8093 106.201 43.8063 106.203 43.8034C106.204 43.8005 106.205 43.7976 106.207 43.7947C106.208 43.7918 106.21 43.7889 106.211 43.786C106.212 43.7831 106.214 43.7802 106.215 43.7773C106.216 43.7744 106.218 43.7715 106.219 43.7686C106.221 43.7657 106.222 43.7628 106.223 43.76C106.225 43.7571 106.226 43.7542 106.227 43.7513C106.229 43.7485 106.23 43.7456 106.232 43.7427C106.233 43.7399 106.234 43.737 106.236 43.7341C106.237 43.7313 106.238 43.7284 106.24 43.7256C106.241 43.7227 106.242 43.7199 106.244 43.717C106.245 43.7142 106.246 43.7113 106.248 43.7085C106.249 43.7057 106.251 43.7028 106.252 43.7C106.253 43.6972 106.255 43.6943 106.256 43.6915C106.257 43.6887 106.259 43.6859 106.26 43.683C106.261 43.6802 106.263 43.6774 106.264 43.6746C106.265 43.6718 106.267 43.669 106.268 43.6662C106.269 43.6634 106.271 43.6606 106.272 43.6578C106.273 43.655 106.275 43.6522 106.276 43.6494C106.277 43.6466 106.279 43.6438 106.28 43.6411C106.281 43.6383 106.283 43.6355 106.284 43.6327C106.285 43.6299 106.287 43.6272 106.288 43.6244C106.289 43.6216 106.291 43.6189 106.292 43.6161C106.293 43.6134 106.294 43.6106 106.296 43.6078C106.297 43.6051 106.298 43.6023 106.3 43.5996C106.301 43.5968 106.302 43.5941 106.304 43.5914C106.305 43.5886 106.306 43.5859 106.308 43.5832C106.309 43.5804 106.31 43.5777 106.311 43.575C106.313 43.5722 106.314 43.5695 106.315 43.5668C106.317 43.5641 106.318 43.5614 106.319 43.5587C106.32 43.5559 106.322 43.5532 106.323 43.5505C106.324 43.5478 106.326 43.5451 106.327 43.5424C106.328 43.5397 106.33 43.537 106.331 43.5343C106.332 43.5317 106.333 43.529 106.335 43.5263C106.336 43.5236 106.337 43.5209 106.338 43.5182C106.34 43.5156 106.341 43.5129 106.342 43.5102C106.344 43.5076 106.345 43.5049 106.346 43.5022C106.347 43.4996 106.349 43.4969 106.35 43.4943C106.351 43.4916 106.352 43.4889 106.354 43.4863C106.355 43.4836 106.356 43.481 106.357 43.4784C106.359 43.4757 106.36 43.4731 106.361 43.4705C106.362 43.4678 106.364 43.4652 106.365 43.4626C106.366 43.4599 106.367 43.4573 106.369 43.4547C106.37 43.4521 106.371 43.4495 106.372 43.4468C106.374 43.4442 106.375 43.4416 106.376 43.439C106.377 43.4364 106.379 43.4338 106.38 43.4312C106.381 43.4286 106.382 43.426 106.384 43.4234C106.385 43.4208 106.386 43.4182 106.387 43.4157C106.389 43.4131 106.39 43.4105 106.391 43.4079C106.392 43.4053 106.393 43.4028 106.395 43.4002C106.396 43.3976 106.397 43.3951 106.398 43.3925C106.4 43.3899 106.401 43.3874 106.402 43.3848C106.403 43.3823 106.404 43.3797 106.406 43.3772C106.407 43.3746 106.408 43.3721 106.409 43.3695C106.41 43.367 106.412 43.3644 106.413 43.3619C106.414 43.3594 106.415 43.3568 106.417 43.3543C106.418 43.3518 106.419 43.3493 106.42 43.3467C106.421 43.3442 106.423 43.3417 106.424 43.3392C106.425 43.3367 106.426 43.3342 106.427 43.3316C106.429 43.3291 106.43 43.3266 106.431 43.3241C106.432 43.3216 106.433 43.3191 106.434 43.3166C106.436 43.3142 106.437 43.3117 106.438 43.3092C106.439 43.3067 106.44 43.3042 106.442 43.3017C106.443 43.2993 106.444 43.2968 106.445 43.2943C106.446 43.2918 106.447 43.2894 106.449 43.2869C106.45 43.2844 106.451 43.282 106.452 43.2795C106.453 43.2771 106.454 43.2746 106.456 43.2722C106.457 43.2697 106.458 43.2673 106.459 43.2648C106.46 43.2624 106.461 43.2599 106.463 43.2575C106.464 43.2551 106.465 43.2526 106.466 43.2502C106.467 43.2478 106.468 43.2453 106.47 43.2429C106.471 43.2405 106.472 43.2381 106.473 43.2357C106.474 43.2332 106.475 43.2308 106.476 43.2284C106.478 43.226 106.479 43.2236 106.48 43.2212C106.481 43.2188 106.482 43.2164 106.483 43.214C106.484 43.2116 106.486 43.2092 106.487 43.2068C106.488 43.2044 106.489 43.2021 106.49 43.1997C106.491 43.1973 106.492 43.1949 106.494 43.1926C106.495 43.1902 106.496 43.1878 106.497 43.1854C106.498 43.1831 106.499 43.1807 106.5 43.1784C106.501 43.176 106.503 43.1736 106.504 43.1713C106.505 43.1689 106.506 43.1666 106.507 43.1642C106.508 43.1619 106.509 43.1596 106.51 43.1572C106.512 43.1549 106.513 43.1526 106.514 43.1502C106.515 43.1479 106.516 43.1456 106.517 43.1432C106.518 43.1409 106.519 43.1386 106.52 43.1363C106.521 43.134 106.523 43.1316 106.524 43.1293C106.525 43.127 106.526 43.1247 106.527 43.1224C106.528 43.1201 106.529 43.1178 106.53 43.1155C106.531 43.1132 106.532 43.1109 106.534 43.1086C106.535 43.1063 106.536 43.1041 106.537 43.1018C106.538 43.0995 106.539 43.0972 106.54 43.095C106.541 43.0927 106.542 43.0904 106.543 43.0881C106.544 43.0859 106.545 43.0836 106.547 43.0813C106.548 43.0791 106.549 43.0768 106.55 43.0746C106.551 43.0723 106.552 43.0701 106.553 43.0678C106.554 43.0656 106.555 43.0633 106.556 43.0611C106.557 43.0589 106.558 43.0566 106.559 43.0544C106.56 43.0521 106.561 43.0499 106.563 43.0477C106.564 43.0455 106.565 43.0432 106.566 43.041C106.567 43.0388 106.568 43.0366 106.569 43.0344C106.57 43.0322 106.571 43.03 106.572 43.0278C106.573 43.0256 106.574 43.0234 106.575 43.0212C106.576 43.019 106.577 43.0168 106.578 43.0146C106.579 43.0124 106.58 43.0102 106.581 43.008C106.582 43.0058 106.584 43.0037 106.585 43.0015C106.586 42.9993 106.587 42.9971 106.588 42.995C106.589 42.9928 106.59 42.9906 106.591 42.9885C106.592 42.9863 106.593 42.9841 106.594 42.982C106.595 42.9798 106.596 42.9777 106.597 42.9755C106.598 42.9734 106.599 42.9713 106.6 42.9691C106.601 42.967 106.602 42.9648 106.603 42.9627C106.604 42.9606 106.605 42.9584 106.606 42.9563C106.607 42.9542 106.608 42.9521 106.609 42.9499C106.61 42.9478 106.611 42.9457 106.612 42.9436C106.613 42.9415 106.614 42.9394 106.615 42.9373C106.616 42.9351 106.617 42.933 106.618 42.931C106.619 42.9289 106.62 42.9268 106.621 42.9247C106.622 42.9226 106.623 42.9205 106.624 42.9184C106.625 42.9163 106.626 42.9142 106.627 42.9122C106.628 42.9101 106.629 42.908 106.63 42.9059C106.631 42.9039 106.632 42.9018 106.633 42.8997C106.634 42.8977 106.635 42.8956 106.636 42.8936C106.637 42.8915 106.638 42.8894 106.639 42.8874C106.64 42.8854 106.641 42.8833 106.642 42.8813C106.643 42.8792 106.644 42.8772 106.645 42.8751C106.646 42.8731 106.647 42.8711 106.648 42.8691C106.649 42.867 106.65 42.865 106.651 42.863C106.652 42.861 106.652 42.8589 106.653 42.8569C106.654 42.8549 106.655 42.8529 106.656 42.8509C106.657 42.8489 106.658 42.8469 106.659 42.8449C106.66 42.8429 106.661 42.8409 106.662 42.8389C106.663 42.8369 106.664 42.8349 106.665 42.8329C106.666 42.8309 106.667 42.829 106.668 42.827C106.669 42.825 106.67 42.823 106.671 42.8211C106.671 42.8191 106.672 42.8171 106.673 42.8151C106.674 42.8132 106.675 42.8112 106.676 42.8093C106.677 42.8073 106.678 42.8054 106.679 42.8034C106.68 42.8014 106.681 42.7995 106.682 42.7976C106.683 42.7956 106.684 42.7937 106.684 42.7917C106.685 42.7898 106.686 42.7879 106.687 42.7859C106.688 42.784 106.689 42.7821 106.69 42.7802C106.691 42.7782 106.692 42.7763 106.693 42.7744C106.694 42.7725 106.695 42.7706 106.695 42.7687C106.696 42.7668 106.697 42.7649 106.698 42.763C106.699 42.7611 106.7 42.7592 106.701 42.7573C106.702 42.7554 106.703 42.7535 106.704 42.7516C106.704 42.7497 106.705 42.7478 106.706 42.7459C106.707 42.7441 106.708 42.7422 106.709 42.7403C106.71 42.7384 106.711 42.7366 106.712 42.7347C106.713 42.7328 106.713 42.731 106.714 42.7291C106.715 42.7273 106.716 42.7254 106.717 42.7235C106.718 42.7217 106.719 42.7198 106.72 42.718C106.72 42.7161 106.721 42.7143 106.722 42.7125C106.723 42.7106 106.724 42.7088 106.725 42.707C106.726 42.7051 106.727 42.7033 106.727 42.7015C106.728 42.6997 106.729 42.6978 106.73 42.696C106.731 42.6942 106.732 42.6924 106.733 42.6906C106.734 42.6888 106.734 42.687 106.735 42.6852C106.736 42.6834 106.737 42.6816 106.738 42.6798C106.739 42.678 106.74 42.6762 106.74 42.6744C106.741 42.6726 106.742 42.6708 106.743 42.669C106.744 42.6673 106.745 42.6655 106.745 42.6637C106.746 42.6619 106.747 42.6602 106.748 42.6584C106.749 42.6566 106.75 42.6549 106.75 42.6531C106.751 42.6513 106.752 42.6496 106.753 42.6478C106.754 42.6461 106.755 42.6443 106.756 42.6426C106.756 42.6408 106.757 42.6391 106.758 42.6374C106.759 42.6356 106.76 42.6339 106.76 42.6321C106.761 42.6304 106.762 42.6287 106.763 42.627C106.764 42.6252 106.765 42.6235 106.765 42.6218C106.766 42.6201 106.767 42.6184 106.768 42.6167C106.769 42.6149 106.769 42.6132 106.77 42.6115C106.771 42.6098 106.772 42.6081 106.773 42.6064C106.774 42.6047 106.774 42.603 106.775 42.6013C106.776 42.5997 106.777 42.598 106.778 42.5963C106.778 42.5946 106.779 42.5929 106.78 42.5913C106.781 42.5896 106.782 42.5879 106.782 42.5862C106.783 42.5846 106.784 42.5829 106.785 42.5812C106.786 42.5796 106.786 42.5779 106.787 42.5763C106.788 42.5746 106.789 42.573 106.789 42.5713C106.79 42.5697 106.791 42.568 106.792 42.5664C106.793 42.5647 106.793 42.5631 106.794 42.5615C106.795 42.5598 106.796 42.5582 106.796 42.5566C106.797 42.5549 106.798 42.5533 106.799 42.5517C106.8 42.5501 106.8 42.5485 106.801 42.5468C106.802 42.5452 106.803 42.5436 106.803 42.542C106.804 42.5404 106.805 42.5388 106.806 42.5372C106.806 42.5356 106.807 42.534 106.808 42.5324C106.809 42.5308 106.809 42.5293 106.81 42.5277C106.811 42.5261 106.812 42.5245 106.812 42.5229C106.813 42.5214 106.814 42.5198 106.815 42.5182C106.815 42.5166 106.816 42.5151 106.817 42.5135C106.818 42.5119 106.818 42.5104 106.819 42.5088C106.82 42.5073 106.821 42.5057 106.821 42.5042C106.822 42.5026 106.823 42.5011 106.824 42.4995C106.824 42.498 106.825 42.4965 106.826 42.4949C106.827 42.4934 106.827 42.4919 106.828 42.4903C106.829 42.4888 106.829 42.4873 106.83 42.4858C106.831 42.4842 106.832 42.4827 106.832 42.4812C106.833 42.4797 106.834 42.4782 106.835 42.4767C106.835 42.4752 106.836 42.4737 106.837 42.4722C106.837 42.4707 106.838 42.4692 106.839 42.4677C106.84 42.4662 106.84 42.4647 106.841 42.4632C106.842 42.4617 106.842 42.4602 106.843 42.4588C106.844 42.4573 106.844 42.4558 106.845 42.4543C106.846 42.4529 106.847 42.4514 106.847 42.4499C106.848 42.4485 106.849 42.447 106.849 42.4455C106.85 42.4441 106.851 42.4426 106.851 42.4412C106.852 42.4397 106.853 42.4383 106.853 42.4368C106.854 42.4354 106.855 42.434 106.856 42.4325C106.856 42.4311 106.857 42.4296 106.858 42.4282C106.858 42.4268 106.859 42.4254 106.86 42.4239C106.86 42.4225 106.861 42.4211 106.862 42.4197C106.862 42.4183 106.863 42.4169 106.864 42.4155C106.864 42.414 106.865 42.4126 106.866 42.4112C106.866 42.4098 106.867 42.4084 106.868 42.407C106.868 42.4056 106.869 42.4043 106.87 42.4029L104.245 41.3919ZM101.943 46.2284C100.502 48.8779 98.7564 52.1648 96.7085 56.0876L99.2899 57.1857C101.334 53.2709 103.071 49.9986 104.503 47.3673L101.943 46.2284ZM96.7085 56.0876C94.6534 60.0242 92.4055 64.5554 89.9649 69.6796L92.5897 70.6906C95.0201 65.5878 97.2533 61.0867 99.2899 57.1857L96.7085 56.0876ZM89.9817 69.6457C87.3883 74.7132 84.7362 80.093 82.0253 85.7848L84.6502 86.7957C87.3514 81.1242 89.9923 75.7672 92.573 70.7245L89.9817 69.6457ZM82.0253 85.7848C79.517 91.0514 76.9835 96.5595 74.4247 102.309L77.078 103.258C79.6283 97.5277 82.1523 92.0402 84.6502 86.7957L82.0253 85.7848ZM74.439 102.278C71.7232 107.98 69.193 113.671 66.8487 119.349L69.5301 120.233C71.8563 114.598 74.3675 108.95 77.0638 103.289L74.439 102.278ZM66.8487 119.349C64.504 125.028 62.4122 130.555 60.5737 135.929L63.3119 136.662C65.1317 131.343 67.2043 125.866 69.5301 120.233L66.8487 119.349ZM60.5862 135.894C58.5951 141.211 56.9238 146.236 55.5737 150.968L58.3516 151.575C59.6802 146.917 61.329 141.958 63.2993 136.697L60.5862 135.894ZM55.733 150.617C55.0006 151.757 54.2552 153.13 53.4948 154.727L56.1197 155.738C56.8476 154.209 57.5392 152.942 58.1923 151.926L55.733 150.617ZM53.5532 154.617C52.6594 156.118 51.7996 157.548 50.9739 158.906L53.4691 160.157C54.2996 158.791 55.1636 157.354 56.0612 155.847L53.5532 154.617ZM51.0351 158.814C50.0468 160.178 49.0903 161.152 48.182 161.792L49.8797 163.89C51.131 163.009 52.3016 161.776 53.408 160.249L51.0351 158.814ZM48.2284 161.761C47.3693 162.319 46.4905 162.424 45.3945 162.002L44.223 164.462C46.1584 165.207 48.0942 165.052 49.8333 163.922L48.2284 161.761ZM45.3945 162.002C44.4087 161.622 43.5052 161.003 42.6879 160.105L40.4662 161.853C41.5328 163.025 42.7837 163.908 44.223 164.462L45.3945 162.002ZM42.9713 161.263C45.0456 153.538 47.5643 145.814 50.5278 138.093L47.8223 137.271C44.8274 145.073 42.2808 152.881 40.1828 160.695L42.9713 161.263ZM50.5375 138.067C53.2833 130.429 56.3718 123.008 59.8028 115.804L57.178 114.793C53.7086 122.078 50.5869 129.579 47.8126 137.297L50.5375 138.067ZM59.8028 115.804C61.5467 112.143 63.4409 108.539 65.4855 104.993L62.9583 103.796C60.8787 107.403 58.952 111.069 57.178 114.793L59.8028 115.804ZM65.5099 104.949C67.3439 101.473 69.2191 98.0977 71.1356 94.8231L68.6171 93.6114C66.68 96.9213 64.7856 100.331 62.9339 103.84L65.5099 104.949ZM71.1887 94.7227C72.1082 92.7921 73.2457 90.7696 74.6049 88.6546L72.1457 87.3464C70.7338 89.5433 69.5386 91.6653 68.5639 93.7118L71.1887 94.7227ZM74.5988 88.6641C75.9519 86.5965 77.1814 84.4001 78.2882 82.0762L75.6634 81.0652C74.6054 83.2866 73.4346 85.3768 72.1518 87.3369L74.5988 88.6641ZM78.2882 82.0762C79.0678 80.4393 79.7194 78.6768 80.2459 76.7915L77.4642 76.1987C76.9734 77.956 76.3721 79.5772 75.6634 81.0652L78.2882 82.0762ZM80.2511 76.7724C80.7224 74.9779 80.9477 73.1011 80.9333 71.146L78.0589 71.2436C78.0718 72.9973 77.8698 74.654 77.459 76.2178L80.2511 76.7724ZM79.6204 69.8672C74.8213 69.6147 70.383 70.4953 66.3456 72.5329L67.6634 74.859C71.1823 73.083 75.0717 72.2962 79.3718 72.5224L79.6204 69.8672ZM66.3839 72.5143C62.5745 74.3062 58.3319 75.7017 53.6479 76.6934L54.2091 79.2851C59.1005 78.2494 63.5752 76.7827 67.6251 74.8777L66.3839 72.5143ZM54.0692 76.6626C52.8097 76.5828 51.4807 76.763 50.0998 77.1614L50.8801 79.6984C51.9945 79.3769 52.9579 79.2633 53.7878 79.3159L54.0692 76.6626ZM50.2038 77.1353C48.8046 77.4369 47.4053 77.7384 46.0061 78.04L46.5784 80.6293C47.9776 80.3277 49.3769 80.0261 50.7761 79.7246L50.2038 77.1353ZM46.0061 78.04C44.6192 78.3389 43.345 78.5955 42.1828 78.8102L42.664 81.4177C43.8618 81.1965 45.1668 80.9335 46.5784 80.6293L46.0061 78.04ZM42.2809 78.7952C41.1599 78.9295 40.2203 78.8184 39.4204 78.5103L38.2488 80.9702C39.5709 81.4794 41.0237 81.6173 42.5659 81.4326L42.2809 78.7952ZM39.4204 78.5103C38.4239 78.1265 38.0108 77.7401 37.8586 77.4713C37.7423 77.2661 37.6779 76.9563 37.9545 76.3756L35.3296 75.3646C34.7944 76.4883 34.6895 77.6758 35.304 78.7607C35.8827 79.782 36.9718 80.4784 38.2488 80.9702L39.4204 78.5103ZM37.9545 76.3756C38.4609 75.3123 39.6402 74.1263 41.7678 72.8734L40.2766 70.642C37.917 72.0315 36.1762 73.587 35.3296 75.3646L37.9545 76.3756ZM41.7206 72.9C43.6902 71.8328 45.3036 71.5595 46.6483 71.8266L47.3314 69.2256C45.0711 68.7766 42.706 69.3244 40.3237 70.6154L41.7206 72.9ZM46.6483 71.8266C48.6896 72.2321 50.6988 72.1397 52.6462 71.5307L51.7994 69.0137C50.3747 69.4593 48.8953 69.5362 47.3314 69.2256L46.6483 71.8266ZM52.5416 71.5594C54.2344 71.1565 55.9858 70.608 57.7949 69.9175L56.7673 67.4632C55.069 68.1114 53.4482 68.6174 51.904 68.985L52.5416 71.5594ZM57.7045 69.9488C59.3623 69.4304 61.0974 68.9398 62.9101 68.4772L62.2234 65.9149C60.3608 66.3901 58.5721 66.8957 56.8577 67.4319L57.7045 69.9488ZM62.9901 68.4545C64.4533 67.997 66.0104 67.8557 67.6814 68.0487L68.121 65.4095C66.0516 65.1705 64.0524 65.3405 62.1434 65.9376L62.9901 68.4545ZM68.787 67.7513C71.0378 66.0599 73.4334 65.3113 76.0307 65.4334L76.2619 62.7773C72.8941 62.619 69.7929 63.6197 67.0154 65.7069L68.787 67.7513ZM76.0586 65.4344C79.1039 65.5224 81.986 64.9939 84.683 63.8381L83.5397 61.4307C81.2786 62.3996 78.8507 62.8518 76.234 62.7762L76.0586 65.4344ZM85.2271 63.4413C89.7311 58.1861 93.2083 53.0093 95.6369 47.9103L93.012 46.8994C90.705 51.7432 87.3734 56.7195 82.9955 61.8275L85.2271 63.4413ZM95.6369 47.9103C98.0629 42.8165 100.03 36.5662 101.556 29.1824L98.7333 28.7586C97.2345 36.011 95.3215 42.0502 93.012 46.8994L95.6369 47.9103ZM99.6718 27.7284C96.0542 28.9942 92.4303 30.0901 88.7997 31.0165L89.4864 33.5789C93.2065 32.6296 96.917 31.5074 100.618 30.2126L99.6718 27.7284ZM88.7896 31.0191C84.8832 32.0437 81.0522 33.0978 77.2966 34.1813L78.077 36.7182C81.8074 35.642 85.6139 34.5946 89.4965 33.5763L88.7896 31.0191ZM77.3333 34.1712C73.3881 35.2059 69.6333 36.4029 66.0699 37.7628L67.0975 40.2171C70.5491 38.8998 74.1964 37.7365 78.0402 36.7283L77.3333 34.1712ZM66.1108 37.7479C62.3271 39.0718 58.7935 40.8412 55.5134 43.0547L57.1614 45.1871C60.2249 43.1199 63.5222 41.4687 67.0566 40.232L66.1108 37.7479ZM40.1505 107.933C40.8888 108.995 41.8648 109.937 43.0533 110.765L44.8266 108.624C43.8606 107.951 43.1205 107.223 42.5813 106.447L40.1505 107.933ZM42.8845 110.626C43.7259 111.445 44.4894 112.231 45.1758 112.985L47.3975 111.237C46.671 110.439 45.87 109.614 44.9954 108.763L42.8845 110.626ZM45.1758 112.985C45.779 113.648 46.2661 114.414 46.6335 115.291L49.3179 114.267C48.8461 113.14 48.2072 112.127 47.3975 111.237L45.1758 112.985ZM46.5925 115.178C46.8625 116.056 46.8779 117.163 46.5417 118.547L49.3453 119.056C49.7559 117.365 49.7928 115.79 49.3589 114.38L46.5925 115.178ZM47.3416 117.611C45.7701 118.324 44.1217 119.011 42.3958 119.67L43.4234 122.124C45.2051 121.444 46.9126 120.733 48.5455 119.991L47.3416 117.611ZM42.3958 119.67C40.7873 120.283 39.2111 120.286 37.5804 119.658L36.4088 122.118C38.7189 123.007 41.0861 123.016 43.4234 122.124L42.3958 119.67ZM38.4283 120.755L37.5383 109.066L34.671 109.331L35.5609 121.021L38.4283 120.755ZM37.3343 109.853C37.8913 108.986 38.3872 108.747 38.7579 108.695L38.4121 106.065C36.8612 106.282 35.7035 107.255 34.875 108.544L37.3343 109.853ZM38.648 108.706C39.3896 108.656 40.3165 108.592 41.4289 108.517L41.3029 105.864C40.1906 105.94 39.2636 106.003 38.522 106.054L38.648 108.706Z" fill="#F0F0F0" mask="url(#path-1-outside-1_1172_1743)"/>
</svg>
