<svg width="132" height="111" viewBox="0 0 132 111" fill="none" xmlns="http://www.w3.org/2000/svg">
<mask id="path-1-outside-1_1172_1722" maskUnits="userSpaceOnUse" x="-2.58989" y="-2.4159" width="136.55" height="115.289" fill="black">
<rect fill="white" x="-2.58989" y="-2.4159" width="136.55" height="115.289"/>
<path d="M54.1533 83.9283C54.8275 83.7175 55.7394 84.2015 56.8891 85.3804C58.0387 86.5593 58.0113 87.7039 56.8067 88.8143C54.2759 90.008 51.6897 90.6036 49.0481 90.6013C46.506 90.5205 43.9307 90.2252 41.3222 89.7155C38.7137 89.2058 36.1052 88.696 33.4967 88.1863C30.8882 87.6766 28.2024 87.6289 25.4393 88.0432C23.4056 87.4011 21.2613 87.0065 19.0065 86.8595C16.8402 86.8032 14.7236 86.7077 12.6568 86.573C10.6894 86.3598 8.77724 86.0229 6.92033 85.5621C5.16288 85.023 3.6651 84.1186 2.427 82.849C1.63109 82.0329 1.6475 81.0574 2.47626 79.9225C3.40448 78.7092 4.61455 77.5143 6.10646 76.3378C6.90214 75.7103 7.89123 75.0105 9.07373 74.2384C10.3447 73.557 11.5659 72.9148 12.7374 72.3119C14.0083 71.6304 15.0858 71.0213 15.9699 70.4845C17.042 69.96 17.6774 69.6193 17.8763 69.4624C18.3736 69.0702 19.5174 68.1682 21.3077 66.7564C23.2859 65.3568 25.7117 63.6043 28.585 61.4988C31.4583 59.3933 34.6853 56.9287 38.2659 54.105C41.9349 51.3721 45.7586 48.4369 49.737 45.2995C53.4171 42.3974 57.2021 39.3323 61.0921 36.1042C65.0705 32.9668 68.9107 29.7779 72.6128 26.5376C76.3149 23.2973 79.7794 20.0839 83.0062 16.8975C86.3215 13.8018 89.2997 10.8115 91.9408 7.92659C92.8249 7.38979 93.814 6.69 94.908 5.82721C96.0905 5.05511 97.2233 4.32223 98.3064 3.62856C99.5773 2.94715 100.738 2.51328 101.788 2.32697C103.026 2.15291 104.087 2.5193 104.971 3.42614C105.679 4.15161 106.187 5.03396 106.497 6.07317C102.22 10.8895 97.623 15.5576 92.7054 20.0774C87.9756 24.6094 83.0745 28.8755 78.002 32.8757C75.416 34.915 72.7416 36.8637 69.9788 38.7216C67.4038 40.5918 64.8344 42.3774 62.2705 44.0785C60.878 45.1766 59.2977 46.2624 57.5294 47.336C55.8606 48.3312 54.2306 49.4562 52.6392 50.7112C51.5451 51.574 50.4898 52.5667 49.4731 53.6893C48.5559 54.7334 47.7714 55.9136 47.1195 57.2298C50.314 58.8817 53.6133 59.6487 57.0175 59.531C60.5101 59.5039 64.163 59.9119 67.9763 60.7549C68.7058 61.1421 69.5846 61.4117 70.6125 61.5636C71.7288 61.8063 72.8452 62.0489 73.9615 62.2915C75.0779 62.5341 76.1003 62.7706 77.0288 63.0009C78.0456 63.322 78.8636 63.7999 79.4827 64.4347C80.8092 65.795 80.8757 66.9457 79.6822 67.8869C78.6876 68.6713 77.1458 69.1652 75.0569 69.3687C73.0675 69.4938 71.4869 69.136 70.3152 68.2953C69.1435 67.4547 67.8557 66.9461 66.452 66.7697C65.1478 66.5148 63.7441 66.3384 62.2409 66.2404C60.8372 66.064 59.3893 65.8422 57.8971 65.5751C56.4934 65.3987 55.156 64.9293 53.8848 64.1671C51.3981 64.6844 49.1046 64.4075 47.0044 63.3364C44.9927 62.3561 42.9037 61.8378 40.7374 61.7815C35.6867 63.9998 31.4208 66.4816 27.9397 69.2268C24.4586 71.972 20.8671 75.6866 17.1652 80.3706C20.26 80.6573 23.2995 81.0677 26.2838 81.6019C29.456 82.1484 32.584 82.6495 35.6677 83.1053C38.8399 83.6518 41.9292 84.023 44.9355 84.219C48.0303 84.5057 51.1029 84.4088 54.1533 83.9283ZM87.4538 44.1917C87.321 43.3338 87.0004 42.4637 86.4918 41.5814C86.1711 40.7113 85.8947 39.8865 85.6625 39.1071C85.4302 38.3277 85.3417 37.5152 85.3968 36.6696C85.5514 35.7456 86.0375 34.8007 86.8553 33.835C88.27 33.8423 89.729 33.895 91.2321 33.993C92.9232 34.1032 94.3436 34.7478 95.4932 35.9267L91.9633 44.4856C91.0792 45.0224 90.2669 45.1818 89.5263 44.9637C88.9736 44.7578 88.2828 44.5005 87.4538 44.1917Z"/>
</mask>
<path d="M54.1533 83.9283C54.8275 83.7175 55.7394 84.2015 56.8891 85.3804C58.0387 86.5593 58.0113 87.7039 56.8067 88.8143C54.2759 90.008 51.6897 90.6036 49.0481 90.6013C46.506 90.5205 43.9307 90.2252 41.3222 89.7155C38.7137 89.2058 36.1052 88.696 33.4967 88.1863C30.8882 87.6766 28.2024 87.6289 25.4393 88.0432C23.4056 87.4011 21.2613 87.0065 19.0065 86.8595C16.8402 86.8032 14.7236 86.7077 12.6568 86.573C10.6894 86.3598 8.77724 86.0229 6.92033 85.5621C5.16288 85.023 3.6651 84.1186 2.427 82.849C1.63109 82.0329 1.6475 81.0574 2.47626 79.9225C3.40448 78.7092 4.61455 77.5143 6.10646 76.3378C6.90214 75.7103 7.89123 75.0105 9.07373 74.2384C10.3447 73.557 11.5659 72.9148 12.7374 72.3119C14.0083 71.6304 15.0858 71.0213 15.9699 70.4845C17.042 69.96 17.6774 69.6193 17.8763 69.4624C18.3736 69.0702 19.5174 68.1682 21.3077 66.7564C23.2859 65.3568 25.7117 63.6043 28.585 61.4988C31.4583 59.3933 34.6853 56.9287 38.2659 54.105C41.9349 51.3721 45.7586 48.4369 49.737 45.2995C53.4171 42.3974 57.2021 39.3323 61.0921 36.1042C65.0705 32.9668 68.9107 29.7779 72.6128 26.5376C76.3149 23.2973 79.7794 20.0839 83.0062 16.8975C86.3215 13.8018 89.2997 10.8115 91.9408 7.92659C92.8249 7.38979 93.814 6.69 94.908 5.82721C96.0905 5.05511 97.2233 4.32223 98.3064 3.62856C99.5773 2.94715 100.738 2.51328 101.788 2.32697C103.026 2.15291 104.087 2.5193 104.971 3.42614C105.679 4.15161 106.187 5.03396 106.497 6.07317C102.22 10.8895 97.623 15.5576 92.7054 20.0774C87.9756 24.6094 83.0745 28.8755 78.002 32.8757C75.416 34.915 72.7416 36.8637 69.9788 38.7216C67.4038 40.5918 64.8344 42.3774 62.2705 44.0785C60.878 45.1766 59.2977 46.2624 57.5294 47.336C55.8606 48.3312 54.2306 49.4562 52.6392 50.7112C51.5451 51.574 50.4898 52.5667 49.4731 53.6893C48.5559 54.7334 47.7714 55.9136 47.1195 57.2298C50.314 58.8817 53.6133 59.6487 57.0175 59.531C60.5101 59.5039 64.163 59.9119 67.9763 60.7549C68.7058 61.1421 69.5846 61.4117 70.6125 61.5636C71.7288 61.8063 72.8452 62.0489 73.9615 62.2915C75.0779 62.5341 76.1003 62.7706 77.0288 63.0009C78.0456 63.322 78.8636 63.7999 79.4827 64.4347C80.8092 65.795 80.8757 66.9457 79.6822 67.8869C78.6876 68.6713 77.1458 69.1652 75.0569 69.3687C73.0675 69.4938 71.4869 69.136 70.3152 68.2953C69.1435 67.4547 67.8557 66.9461 66.452 66.7697C65.1478 66.5148 63.7441 66.3384 62.2409 66.2404C60.8372 66.064 59.3893 65.8422 57.8971 65.5751C56.4934 65.3987 55.156 64.9293 53.8848 64.1671C51.3981 64.6844 49.1046 64.4075 47.0044 63.3364C44.9927 62.3561 42.9037 61.8378 40.7374 61.7815C35.6867 63.9998 31.4208 66.4816 27.9397 69.2268C24.4586 71.972 20.8671 75.6866 17.1652 80.3706C20.26 80.6573 23.2995 81.0677 26.2838 81.6019C29.456 82.1484 32.584 82.6495 35.6677 83.1053C38.8399 83.6518 41.9292 84.023 44.9355 84.219C48.0303 84.5057 51.1029 84.4088 54.1533 83.9283ZM87.4538 44.1917C87.321 43.3338 87.0004 42.4637 86.4918 41.5814C86.1711 40.7113 85.8947 39.8865 85.6625 39.1071C85.4302 38.3277 85.3417 37.5152 85.3968 36.6696C85.5514 35.7456 86.0375 34.8007 86.8553 33.835C88.27 33.8423 89.729 33.895 91.2321 33.993C92.9232 34.1032 94.3436 34.7478 95.4932 35.9267L91.9633 44.4856C91.0792 45.0224 90.2669 45.1818 89.5263 44.9637C88.9736 44.7578 88.2828 44.5005 87.4538 44.1917Z" fill="#F0F0F0"/>
<path d="M54.1533 83.9283L54.423 85.2202L54.5377 85.2021L54.6474 85.1678L54.1533 83.9283ZM56.8067 88.8143L57.4957 89.9779L57.6964 89.8832L57.8546 89.7374L56.8067 88.8143ZM49.0481 90.6013L49.0167 91.9119L49.0416 91.9127L49.0666 91.9127L49.0481 90.6013ZM41.3222 89.7155L41.0323 90.9969L41.3222 89.7155ZM25.4393 88.0432L24.9747 89.2801L25.3293 89.3921L25.6974 89.3369L25.4393 88.0432ZM19.0065 86.8595L19.0918 85.5516L19.0602 85.5495L19.0286 85.5487L19.0065 86.8595ZM12.6568 86.573L12.5025 87.875L12.5369 87.8787L12.5715 87.881L12.6568 86.573ZM6.92032 85.5621L6.46804 86.8029L6.50951 86.8157L6.55172 86.8261L6.92032 85.5621ZM2.47627 79.9225L1.27401 79.1683L1.2653 79.1797L1.25684 79.1913L2.47627 79.9225ZM9.07373 74.2384L8.31666 73.1091L8.26117 73.1389L8.20892 73.173L9.07373 74.2384ZM12.7374 72.3119L13.4725 73.4527L13.4835 73.447L13.4944 73.4412L12.7374 72.3119ZM15.9699 70.4845L15.2617 69.3302L15.2017 69.3595L15.1451 69.3939L15.9699 70.4845ZM21.3077 66.7564L20.399 65.7208L20.3691 65.742L20.3405 65.7645L21.3077 66.7564ZM38.2659 54.105L37.3292 53.0897L37.3137 53.1013L37.2986 53.1132L38.2659 54.105ZM61.0921 36.1042L60.1248 35.1123L60.1112 35.1231L60.0979 35.1341L61.0921 36.1042ZM83.0062 16.8975L81.9519 15.9803L81.9381 15.9932L81.9247 16.0064L83.0062 16.8975ZM91.9408 7.92659L91.1159 6.83596L90.9443 6.94018L90.8126 7.08397L91.9408 7.92659ZM94.908 5.82721L94.0432 4.76175L93.9901 4.79643L93.9408 4.83534L94.908 5.82721ZM98.3064 3.62856L97.5493 2.49922L97.4994 2.52596L97.4521 2.55625L98.3064 3.62856ZM101.788 2.32697L101.544 1.03118L101.516 1.03516L101.488 1.04015L101.788 2.32697ZM106.497 6.07317L107.638 6.90086L108.093 6.38896L107.902 5.74943L106.497 6.07317ZM92.7054 20.0774L91.659 19.1529L91.6486 19.1624L91.6384 19.1722L92.7054 20.0774ZM69.9788 38.7216L69.0978 37.6668L69.0765 37.6812L69.0557 37.6962L69.9788 38.7216ZM62.2705 44.0785L61.3969 43.0188L61.3484 43.0509L61.3032 43.0866L62.2705 44.0785ZM57.5294 47.336L58.3445 48.4326L58.3543 48.4266L57.5294 47.336ZM49.4731 53.6892L48.3402 52.8519L48.3334 52.8593L48.3268 52.8668L49.4731 53.6892ZM47.1195 57.2298L45.7888 56.6818L45.2514 57.7669L46.4079 58.3649L47.1195 57.2298ZM57.0175 59.531L56.985 58.2196L56.9634 58.2198L56.9417 58.2205L57.0175 59.531ZM67.9763 60.7549L68.7025 59.6274L68.5153 59.528L68.3049 59.4815L67.9763 60.7549ZM70.6125 61.5636L70.9355 60.289L70.8826 60.2775L70.829 60.2696L70.6125 61.5636ZM77.0288 63.0009L77.4934 61.764L77.4459 61.749L77.3974 61.7369L77.0288 63.0009ZM75.0569 69.3687L75.178 70.6769L75.2055 70.6752L75.233 70.6725L75.0569 69.3687ZM70.3152 68.2953L71.2125 67.2738L70.3152 68.2953ZM66.452 66.7697L66.1621 68.0511L66.2159 68.0616L66.2703 68.0685L66.452 66.7697ZM62.2409 66.2404L62.0592 67.5392L62.1073 67.5452L62.1556 67.5484L62.2409 66.2404ZM57.8971 65.5751L58.162 64.289L58.1206 64.2816L58.0789 64.2763L57.8971 65.5751ZM53.8848 64.1671L54.6798 63.0785L54.1516 62.7617L53.539 62.8891L53.8848 64.1671ZM47.0044 63.3365L47.7084 62.1973L47.696 62.191L47.6834 62.1849L47.0044 63.3365ZM40.7374 61.7815L40.7594 60.4706L40.4034 60.4614L40.085 60.6012L40.7374 61.7815ZM17.1652 80.3706L15.9755 79.6003L14.5199 81.442L17.036 81.6751L17.1652 80.3706ZM26.2838 81.6019L26.019 82.8881L26.0293 82.8899L26.2838 81.6019ZM35.6677 83.1053L35.9222 81.8174L35.9032 81.8141L35.8842 81.8113L35.6677 83.1053ZM44.9355 84.219L45.0647 82.9145L45.0428 82.9125L45.0208 82.911L44.9355 84.219ZM87.4538 44.1917L86.0121 44.3553L86.129 45.1104L86.9134 45.4026L87.4538 44.1917ZM86.4918 41.5814L85.1109 41.9792L85.1478 42.0793L85.2018 42.1731L86.4918 41.5814ZM85.3968 36.6696L83.9573 36.4569L83.9475 36.5156L83.9436 36.5749L85.3968 36.6696ZM86.8553 33.835L86.8437 32.5236L86.1259 32.5199L85.6934 33.0306L86.8553 33.835ZM91.2321 33.993L91.3174 32.685L91.3174 32.685L91.2321 33.993ZM95.4932 35.9267L96.8586 36.3981L97.1615 35.6639L96.5811 35.0688L95.4932 35.9267ZM91.9633 44.4856L92.7882 45.5763L93.1686 45.3453L93.3287 44.9571L91.9633 44.4856ZM89.5263 44.9637L88.9859 46.1746L89.0378 46.1939L89.0911 46.2096L89.5263 44.9637ZM54.6474 85.1678C54.422 85.2383 54.354 85.1213 54.6167 85.2607C54.8779 85.3994 55.2724 85.6961 55.8012 86.2383L57.9769 84.5225C57.356 83.8858 56.7197 83.3511 56.069 83.0057C55.4198 82.6611 54.5587 82.4075 53.6592 82.6887L54.6474 85.1678ZM55.8012 86.2383C56.2212 86.669 56.2787 86.9392 56.2754 87.0768C56.272 87.2152 56.2009 87.4836 55.7589 87.8911L57.8546 89.7374C58.6171 89.0345 59.162 88.1755 59.1861 87.1693C59.2102 86.1623 58.7065 85.2707 57.9769 84.5225L55.8012 86.2383ZM56.1177 87.6506C53.7747 88.7558 51.4169 89.292 49.0296 89.2899L49.0666 91.9127C51.9624 91.9153 54.777 91.2602 57.4957 89.9779L56.1177 87.6506ZM49.0795 89.2907C46.6282 89.2128 44.1394 88.9279 41.6121 88.434L41.0323 90.9969C43.7219 91.5225 46.3838 91.8282 49.0167 91.9119L49.0795 89.2907ZM41.6121 88.434C39.0036 87.9243 36.3951 87.4146 33.7866 86.9049L33.2068 89.4677C35.8153 89.9775 38.4238 90.4872 41.0323 90.9969L41.6121 88.434ZM33.7866 86.9049C30.9877 86.3579 28.1157 86.3095 25.1813 86.7495L25.6974 89.3369C28.2892 88.9483 30.7887 88.9952 33.2068 89.4677L33.7866 86.9049ZM25.904 86.8062C23.7413 86.1234 21.469 85.7065 19.0918 85.5516L18.9213 88.1675C21.0536 88.3065 23.0698 88.6787 24.9747 89.2801L25.904 86.8062ZM19.0286 85.5487C16.8824 85.4929 14.7869 85.3983 12.7421 85.265L12.5715 87.881C14.6604 88.0171 16.798 88.1136 18.9845 88.1704L19.0286 85.5487ZM12.8111 85.271C10.9138 85.0654 9.07336 84.7409 7.28893 84.2981L6.55172 86.8261C8.48111 87.3048 10.465 87.6542 12.5025 87.875L12.8111 85.271ZM7.37262 84.3213C5.86213 83.8579 4.58311 83.0865 3.51488 81.9911L1.33913 83.7069C2.7471 85.1507 4.46361 86.188 6.46804 86.8029L7.37262 84.3213ZM3.51488 81.9911C3.33122 81.8028 3.29582 81.6672 3.29792 81.5431C3.30061 81.3832 3.3738 81.0945 3.6957 80.6537L1.25684 79.1913C0.749968 79.8854 0.400573 80.6519 0.386837 81.4674C0.37251 82.3189 0.72687 83.0791 1.33913 83.7069L3.51488 81.9911ZM3.67851 80.6767C4.5272 79.5674 5.65265 78.4504 7.07373 77.3297L5.13917 75.346C3.57645 76.5783 2.28177 77.8511 1.27401 79.1683L3.67851 80.6767ZM7.07373 77.3297C7.82685 76.7358 8.7792 76.0609 9.93855 75.3039L8.20892 73.173C7.00327 73.9602 5.97743 74.6849 5.13917 75.346L7.07373 77.3297ZM9.83081 75.3678C11.0952 74.6899 12.309 74.0516 13.4725 73.4527L12.0022 71.171C10.8227 71.7781 9.59419 72.4242 8.31666 73.1091L9.83081 75.3678ZM13.4944 73.4412C14.7803 72.7518 15.8819 72.1294 16.7948 71.5752L15.1451 69.3939C14.2897 69.9132 13.2363 70.5091 11.9803 71.1825L13.4944 73.4412ZM16.6782 71.6389C17.2216 71.373 17.6669 71.1476 18.0076 70.9649C18.3123 70.8016 18.6315 70.6215 18.8436 70.4543L16.9091 68.4705C16.9223 68.4601 16.8243 68.5289 16.4935 68.7063C16.1987 68.8643 15.7903 69.0715 15.2617 69.3302L16.6782 71.6389ZM18.8436 70.4543C18.8446 70.4535 18.8456 70.4527 18.8465 70.452C18.8475 70.4512 18.8485 70.4504 18.8495 70.4497C18.8505 70.4489 18.8514 70.4481 18.8524 70.4473C18.8534 70.4466 18.8544 70.4458 18.8554 70.445C18.8564 70.4442 18.8574 70.4434 18.8584 70.4426C18.8594 70.4419 18.8604 70.4411 18.8614 70.4403C18.8624 70.4395 18.8634 70.4387 18.8644 70.4379C18.8654 70.4371 18.8664 70.4363 18.8674 70.4355C18.8684 70.4347 18.8694 70.4339 18.8704 70.4331C18.8715 70.4323 18.8725 70.4315 18.8735 70.4307C18.8745 70.4299 18.8755 70.4291 18.8766 70.4283C18.8776 70.4275 18.8786 70.4267 18.8797 70.4259C18.8807 70.4251 18.8817 70.4242 18.8828 70.4234C18.8838 70.4226 18.8848 70.4218 18.8859 70.421C18.8869 70.4201 18.8879 70.4193 18.889 70.4185C18.89 70.4177 18.8911 70.4168 18.8921 70.416C18.8932 70.4152 18.8942 70.4144 18.8953 70.4135C18.8964 70.4127 18.8974 70.4119 18.8985 70.411C18.8995 70.4102 18.9006 70.4094 18.9017 70.4085C18.9027 70.4077 18.9038 70.4068 18.9049 70.406C18.9059 70.4051 18.907 70.4043 18.9081 70.4034C18.9091 70.4026 18.9102 70.4018 18.9113 70.4009C18.9124 70.4001 18.9135 70.3992 18.9146 70.3983C18.9156 70.3975 18.9167 70.3966 18.9178 70.3958C18.9189 70.3949 18.92 70.394 18.9211 70.3932C18.9222 70.3923 18.9233 70.3915 18.9244 70.3906C18.9255 70.3897 18.9266 70.3889 18.9277 70.388C18.9288 70.3871 18.9299 70.3862 18.931 70.3854C18.9321 70.3845 18.9332 70.3836 18.9343 70.3827C18.9355 70.3819 18.9366 70.381 18.9377 70.3801C18.9388 70.3792 18.9399 70.3783 18.9411 70.3774C18.9422 70.3765 18.9433 70.3757 18.9444 70.3748C18.9456 70.3739 18.9467 70.373 18.9478 70.3721C18.949 70.3712 18.9501 70.3703 18.9512 70.3694C18.9524 70.3685 18.9535 70.3676 18.9547 70.3667C18.9558 70.3658 18.957 70.3649 18.9581 70.364C18.9593 70.3631 18.9604 70.3622 18.9616 70.3613C18.9627 70.3604 18.9639 70.3594 18.965 70.3585C18.9662 70.3576 18.9673 70.3567 18.9685 70.3558C18.9697 70.3549 18.9708 70.3539 18.972 70.353C18.9732 70.3521 18.9744 70.3512 18.9755 70.3503C18.9767 70.3493 18.9779 70.3484 18.9791 70.3475C18.9802 70.3465 18.9814 70.3456 18.9826 70.3447C18.9838 70.3437 18.985 70.3428 18.9862 70.3419C18.9873 70.3409 18.9885 70.34 18.9897 70.3391C18.9909 70.3381 18.9921 70.3372 18.9933 70.3362C18.9945 70.3353 18.9957 70.3343 18.9969 70.3334C18.9981 70.3324 18.9993 70.3315 19.0005 70.3305C19.0017 70.3296 19.003 70.3286 19.0042 70.3277C19.0054 70.3267 19.0066 70.3258 19.0078 70.3248C19.009 70.3238 19.0102 70.3229 19.0115 70.3219C19.0127 70.3209 19.0139 70.32 19.0151 70.319C19.0164 70.318 19.0176 70.3171 19.0188 70.3161C19.0201 70.3151 19.0213 70.3142 19.0225 70.3132C19.0238 70.3122 19.025 70.3112 19.0263 70.3102C19.0275 70.3093 19.0288 70.3083 19.03 70.3073C19.0312 70.3063 19.0325 70.3053 19.0338 70.3043C19.035 70.3034 19.0363 70.3024 19.0375 70.3014C19.0388 70.3004 19.04 70.2994 19.0413 70.2984C19.0426 70.2974 19.0438 70.2964 19.0451 70.2954C19.0464 70.2944 19.0476 70.2934 19.0489 70.2924C19.0502 70.2914 19.0514 70.2904 19.0527 70.2894C19.054 70.2884 19.0553 70.2874 19.0566 70.2864C19.0578 70.2853 19.0591 70.2843 19.0604 70.2833C19.0617 70.2823 19.063 70.2813 19.0643 70.2803C19.0656 70.2792 19.0669 70.2782 19.0682 70.2772C19.0695 70.2762 19.0708 70.2752 19.0721 70.2741C19.0734 70.2731 19.0747 70.2721 19.076 70.271C19.0773 70.27 19.0786 70.269 19.0799 70.2679C19.0812 70.2669 19.0825 70.2659 19.0838 70.2648C19.0852 70.2638 19.0865 70.2628 19.0878 70.2617C19.0891 70.2607 19.0904 70.2596 19.0918 70.2586C19.0931 70.2575 19.0944 70.2565 19.0958 70.2554C19.0971 70.2544 19.0984 70.2533 19.0998 70.2523C19.1011 70.2512 19.1024 70.2502 19.1038 70.2491C19.1051 70.2481 19.1065 70.247 19.1078 70.2459C19.1092 70.2449 19.1105 70.2438 19.1119 70.2427C19.1132 70.2417 19.1146 70.2406 19.1159 70.2395C19.1173 70.2385 19.1186 70.2374 19.12 70.2363C19.1214 70.2353 19.1227 70.2342 19.1241 70.2331C19.1255 70.232 19.1268 70.2309 19.1282 70.2299C19.1296 70.2288 19.1309 70.2277 19.1323 70.2266C19.1337 70.2255 19.1351 70.2244 19.1364 70.2234C19.1378 70.2223 19.1392 70.2212 19.1406 70.2201C19.142 70.219 19.1434 70.2179 19.1448 70.2168C19.1461 70.2157 19.1475 70.2146 19.1489 70.2135C19.1503 70.2124 19.1517 70.2113 19.1531 70.2102C19.1545 70.2091 19.1559 70.208 19.1573 70.2069C19.1587 70.2058 19.1601 70.2047 19.1616 70.2035C19.163 70.2024 19.1644 70.2013 19.1658 70.2002C19.1672 70.1991 19.1686 70.198 19.1701 70.1969C19.1715 70.1957 19.1729 70.1946 19.1743 70.1935C19.1757 70.1924 19.1772 70.1912 19.1786 70.1901C19.18 70.189 19.1815 70.1879 19.1829 70.1867C19.1843 70.1856 19.1858 70.1845 19.1872 70.1833C19.1887 70.1822 19.1901 70.181 19.1915 70.1799C19.193 70.1788 19.1944 70.1776 19.1959 70.1765C19.1973 70.1753 19.1988 70.1742 19.2002 70.173C19.2017 70.1719 19.2031 70.1708 19.2046 70.1696C19.2061 70.1685 19.2075 70.1673 19.209 70.1661C19.2105 70.165 19.2119 70.1638 19.2134 70.1627C19.2149 70.1615 19.2163 70.1604 19.2178 70.1592C19.2193 70.158 19.2208 70.1569 19.2222 70.1557C19.2237 70.1545 19.2252 70.1534 19.2267 70.1522C19.2282 70.151 19.2297 70.1498 19.2312 70.1487C19.2326 70.1475 19.2341 70.1463 19.2356 70.1451C19.2371 70.144 19.2386 70.1428 19.2401 70.1416C19.2416 70.1404 19.2431 70.1392 19.2446 70.1381C19.2461 70.1369 19.2476 70.1357 19.2491 70.1345C19.2506 70.1333 19.2522 70.1321 19.2537 70.1309C19.2552 70.1297 19.2567 70.1285 19.2582 70.1273C19.2597 70.1261 19.2613 70.1249 19.2628 70.1237C19.2643 70.1225 19.2658 70.1213 19.2674 70.1201C19.2689 70.1189 19.2704 70.1177 19.272 70.1165C19.2735 70.1153 19.275 70.1141 19.2766 70.1129C19.2781 70.1116 19.2796 70.1104 19.2812 70.1092C19.2827 70.108 19.2843 70.1068 19.2858 70.1056C19.2874 70.1043 19.2889 70.1031 19.2905 70.1019C19.292 70.1007 19.2936 70.0994 19.2951 70.0982C19.2967 70.097 19.2983 70.0957 19.2998 70.0945C19.3014 70.0933 19.303 70.092 19.3045 70.0908C19.3061 70.0896 19.3077 70.0883 19.3092 70.0871C19.3108 70.0859 19.3124 70.0846 19.314 70.0834C19.3155 70.0821 19.3171 70.0809 19.3187 70.0796C19.3203 70.0784 19.3219 70.0771 19.3235 70.0759C19.325 70.0746 19.3266 70.0734 19.3282 70.0721C19.3298 70.0709 19.3314 70.0696 19.333 70.0683C19.3346 70.0671 19.3362 70.0658 19.3378 70.0646C19.3394 70.0633 19.341 70.062 19.3426 70.0608C19.3442 70.0595 19.3458 70.0582 19.3475 70.0569C19.3491 70.0557 19.3507 70.0544 19.3523 70.0531C19.3539 70.0519 19.3555 70.0506 19.3572 70.0493C19.3588 70.048 19.3604 70.0467 19.362 70.0454C19.3637 70.0442 19.3653 70.0429 19.3669 70.0416C19.3686 70.0403 19.3702 70.039 19.3718 70.0377C19.3735 70.0364 19.3751 70.0351 19.3768 70.0338C19.3784 70.0326 19.38 70.0313 19.3817 70.03C19.3833 70.0287 19.385 70.0274 19.3866 70.0261C19.3883 70.0248 19.3899 70.0234 19.3916 70.0221C19.3933 70.0208 19.3949 70.0195 19.3966 70.0182C19.3982 70.0169 19.3999 70.0156 19.4016 70.0143C19.4032 70.013 19.4049 70.0116 19.4066 70.0103C19.4082 70.009 19.4099 70.0077 19.4116 70.0064C19.4133 70.005 19.415 70.0037 19.4166 70.0024C19.4183 70.0011 19.42 69.9997 19.4217 69.9984C19.4234 69.9971 19.4251 69.9957 19.4268 69.9944C19.4284 69.9931 19.4301 69.9917 19.4318 69.9904C19.4335 69.9891 19.4352 69.9877 19.4369 69.9864C19.4386 69.985 19.4403 69.9837 19.442 69.9824C19.4437 69.981 19.4455 69.9797 19.4472 69.9783C19.4489 69.977 19.4506 69.9756 19.4523 69.9743C19.454 69.9729 19.4557 69.9716 19.4575 69.9702C19.4592 69.9688 19.4609 69.9675 19.4626 69.9661C19.4644 69.9648 19.4661 69.9634 19.4678 69.962C19.4696 69.9607 19.4713 69.9593 19.473 69.9579C19.4748 69.9566 19.4765 69.9552 19.4782 69.9538C19.48 69.9524 19.4817 69.9511 19.4835 69.9497C19.4852 69.9483 19.487 69.9469 19.4887 69.9456C19.4905 69.9442 19.4922 69.9428 19.494 69.9414C19.4957 69.94 19.4975 69.9386 19.4992 69.9372C19.501 69.9359 19.5028 69.9345 19.5045 69.9331C19.5063 69.9317 19.5081 69.9303 19.5098 69.9289C19.5116 69.9275 19.5134 69.9261 19.5152 69.9247C19.5169 69.9233 19.5187 69.9219 19.5205 69.9205C19.5223 69.9191 19.5241 69.9177 19.5258 69.9163C19.5276 69.9149 19.5294 69.9135 19.5312 69.912C19.533 69.9106 19.5348 69.9092 19.5366 69.9078C19.5384 69.9064 19.5402 69.905 19.542 69.9036C19.5438 69.9021 19.5456 69.9007 19.5474 69.8993C19.5492 69.8979 19.551 69.8964 19.5528 69.895C19.5546 69.8936 19.5564 69.8922 19.5582 69.8907C19.5601 69.8893 19.5619 69.8879 19.5637 69.8864C19.5655 69.885 19.5673 69.8836 19.5692 69.8821C19.571 69.8807 19.5728 69.8792 19.5746 69.8778C19.5765 69.8764 19.5783 69.8749 19.5801 69.8735C19.582 69.872 19.5838 69.8706 19.5856 69.8691C19.5875 69.8677 19.5893 69.8662 19.5912 69.8648C19.593 69.8633 19.5949 69.8618 19.5967 69.8604C19.5986 69.8589 19.6004 69.8575 19.6023 69.856C19.6041 69.8545 19.606 69.8531 19.6078 69.8516C19.6097 69.8502 19.6116 69.8487 19.6134 69.8472C19.6153 69.8457 19.6171 69.8443 19.619 69.8428C19.6209 69.8413 19.6228 69.8398 19.6246 69.8384C19.6265 69.8369 19.6284 69.8354 19.6303 69.8339C19.6321 69.8324 19.634 69.831 19.6359 69.8295C19.6378 69.828 19.6397 69.8265 19.6416 69.825C19.6434 69.8235 19.6453 69.822 19.6472 69.8205C19.6491 69.8191 19.651 69.8176 19.6529 69.8161C19.6548 69.8146 19.6567 69.8131 19.6586 69.8116C19.6605 69.8101 19.6624 69.8086 19.6643 69.8071C19.6663 69.8055 19.6682 69.804 19.6701 69.8025C19.672 69.801 19.6739 69.7995 19.6758 69.798C19.6777 69.7965 19.6797 69.795 19.6816 69.7935C19.6835 69.7919 19.6854 69.7904 19.6874 69.7889C19.6893 69.7874 19.6912 69.7859 19.6932 69.7843C19.6951 69.7828 19.697 69.7813 19.699 69.7797C19.7009 69.7782 19.7028 69.7767 19.7048 69.7752C19.7067 69.7736 19.7087 69.7721 19.7106 69.7706C19.7126 69.769 19.7145 69.7675 19.7165 69.7659C19.7184 69.7644 19.7204 69.7629 19.7223 69.7613C19.7243 69.7598 19.7263 69.7582 19.7282 69.7567C19.7302 69.7551 19.7321 69.7536 19.7341 69.752C19.7361 69.7505 19.7381 69.7489 19.74 69.7474C19.742 69.7458 19.744 69.7443 19.746 69.7427C19.7479 69.7411 19.7499 69.7396 19.7519 69.738C19.7539 69.7365 19.7559 69.7349 19.7578 69.7333C19.7598 69.7318 19.7618 69.7302 19.7638 69.7286C19.7658 69.727 19.7678 69.7255 19.7698 69.7239C19.7718 69.7223 19.7738 69.7207 19.7758 69.7192C19.7778 69.7176 19.7798 69.716 19.7818 69.7144C19.7838 69.7128 19.7858 69.7112 19.7878 69.7097C19.7899 69.7081 19.7919 69.7065 19.7939 69.7049C19.7959 69.7033 19.7979 69.7017 19.7999 69.7001C19.802 69.6985 19.804 69.6969 19.806 69.6953C19.808 69.6937 19.8101 69.6921 19.8121 69.6905C19.8141 69.6889 19.8162 69.6873 19.8182 69.6857C19.8202 69.6841 19.8223 69.6825 19.8243 69.6809C19.8264 69.6793 19.8284 69.6777 19.8305 69.6761C19.8325 69.6744 19.8346 69.6728 19.8366 69.6712C19.8387 69.6696 19.8407 69.668 19.8428 69.6663C19.8448 69.6647 19.8469 69.6631 19.8489 69.6615C19.851 69.6599 19.8531 69.6582 19.8551 69.6566C19.8572 69.655 19.8593 69.6533 19.8613 69.6517C19.8634 69.6501 19.8655 69.6484 19.8676 69.6468C19.8696 69.6452 19.8717 69.6435 19.8738 69.6419C19.8759 69.6402 19.878 69.6386 19.88 69.6369C19.8821 69.6353 19.8842 69.6337 19.8863 69.632C19.8884 69.6304 19.8905 69.6287 19.8926 69.6271C19.8947 69.6254 19.8968 69.6237 19.8989 69.6221C19.901 69.6204 19.9031 69.6188 19.9052 69.6171C19.9073 69.6155 19.9094 69.6138 19.9115 69.6121C19.9136 69.6105 19.9157 69.6088 19.9179 69.6071C19.92 69.6055 19.9221 69.6038 19.9242 69.6021C19.9263 69.6004 19.9285 69.5988 19.9306 69.5971C19.9327 69.5954 19.9348 69.5937 19.937 69.5921C19.9391 69.5904 19.9412 69.5887 19.9434 69.587C19.9455 69.5853 19.9476 69.5836 19.9498 69.582C19.9519 69.5803 19.9541 69.5786 19.9562 69.5769C19.9584 69.5752 19.9605 69.5735 19.9627 69.5718C19.9648 69.5701 19.967 69.5684 19.9691 69.5667C19.9713 69.565 19.9734 69.5633 19.9756 69.5616C19.9777 69.5599 19.9799 69.5582 19.9821 69.5565C19.9842 69.5548 19.9864 69.5531 19.9886 69.5514C19.9907 69.5497 19.9929 69.5479 19.9951 69.5462C19.9973 69.5445 19.9994 69.5428 20.0016 69.5411C20.0038 69.5394 20.006 69.5376 20.0082 69.5359C20.0104 69.5342 20.0125 69.5325 20.0147 69.5307C20.0169 69.529 20.0191 69.5273 20.0213 69.5256C20.0235 69.5238 20.0257 69.5221 20.0279 69.5204C20.0301 69.5186 20.0323 69.5169 20.0345 69.5151C20.0367 69.5134 20.0389 69.5117 20.0411 69.5099C20.0433 69.5082 20.0455 69.5064 20.0478 69.5047C20.05 69.5029 20.0522 69.5012 20.0544 69.4994C20.0566 69.4977 20.0588 69.4959 20.0611 69.4942C20.0633 69.4924 20.0655 69.4907 20.0677 69.4889C20.07 69.4872 20.0722 69.4854 20.0744 69.4836C20.0767 69.4819 20.0789 69.4801 20.0812 69.4784C20.0834 69.4766 20.0856 69.4748 20.0879 69.4731C20.0901 69.4713 20.0924 69.4695 20.0946 69.4677C20.0969 69.466 20.0991 69.4642 20.1014 69.4624C20.1036 69.4606 20.1059 69.4589 20.1081 69.4571C20.1104 69.4553 20.1127 69.4535 20.1149 69.4517C20.1172 69.4499 20.1195 69.4482 20.1217 69.4464C20.124 69.4446 20.1263 69.4428 20.1285 69.441C20.1308 69.4392 20.1331 69.4374 20.1354 69.4356C20.1376 69.4338 20.1399 69.432 20.1422 69.4302C20.1445 69.4284 20.1468 69.4266 20.1491 69.4248C20.1513 69.423 20.1536 69.4212 20.1559 69.4194C20.1582 69.4176 20.1605 69.4158 20.1628 69.414C20.1651 69.4121 20.1674 69.4103 20.1697 69.4085C20.172 69.4067 20.1743 69.4049 20.1766 69.4031C20.1789 69.4012 20.1813 69.3994 20.1836 69.3976C20.1859 69.3958 20.1882 69.3939 20.1905 69.3921C20.1928 69.3903 20.1952 69.3885 20.1975 69.3866C20.1998 69.3848 20.2021 69.383 20.2044 69.3811C20.2068 69.3793 20.2091 69.3774 20.2114 69.3756C20.2138 69.3738 20.2161 69.3719 20.2184 69.3701C20.2208 69.3682 20.2231 69.3664 20.2255 69.3645C20.2278 69.3627 20.2302 69.3609 20.2325 69.359C20.2349 69.3571 20.2372 69.3553 20.2396 69.3534C20.2419 69.3516 20.2443 69.3497 20.2466 69.3479C20.249 69.346 20.2513 69.3442 20.2537 69.3423C20.2561 69.3404 20.2584 69.3386 20.2608 69.3367C20.2632 69.3348 20.2655 69.333 20.2679 69.3311C20.2703 69.3292 20.2726 69.3273 20.275 69.3255C20.2774 69.3236 20.2798 69.3217 20.2822 69.3198C20.2845 69.318 20.2869 69.3161 20.2893 69.3142C20.2917 69.3123 20.2941 69.3104 20.2965 69.3085C20.2989 69.3067 20.3013 69.3048 20.3037 69.3029C20.3061 69.301 20.3085 69.2991 20.3109 69.2972C20.3133 69.2953 20.3157 69.2934 20.3181 69.2915C20.3205 69.2896 20.3229 69.2877 20.3253 69.2858C20.3277 69.2839 20.3301 69.282 20.3325 69.2801C20.335 69.2782 20.3374 69.2763 20.3398 69.2744C20.3422 69.2725 20.3446 69.2706 20.3471 69.2687C20.3495 69.2667 20.3519 69.2648 20.3544 69.2629C20.3568 69.261 20.3592 69.2591 20.3617 69.2571C20.3641 69.2552 20.3665 69.2533 20.369 69.2514C20.3714 69.2495 20.3739 69.2475 20.3763 69.2456C20.3788 69.2437 20.3812 69.2417 20.3837 69.2398C20.3861 69.2379 20.3886 69.2359 20.391 69.234C20.3935 69.2321 20.3959 69.2301 20.3984 69.2282C20.4008 69.2262 20.4033 69.2243 20.4058 69.2224C20.4082 69.2204 20.4107 69.2185 20.4132 69.2165C20.4157 69.2146 20.4181 69.2126 20.4206 69.2107C20.4231 69.2087 20.4256 69.2068 20.428 69.2048C20.4305 69.2028 20.433 69.2009 20.4355 69.1989C20.438 69.197 20.4405 69.195 20.443 69.193C20.4454 69.1911 20.4479 69.1891 20.4504 69.1871C20.4529 69.1852 20.4554 69.1832 20.4579 69.1812C20.4604 69.1793 20.4629 69.1773 20.4654 69.1753C20.4679 69.1733 20.4704 69.1714 20.473 69.1694C20.4755 69.1674 20.478 69.1654 20.4805 69.1634C20.483 69.1615 20.4855 69.1595 20.488 69.1575C20.4906 69.1555 20.4931 69.1535 20.4956 69.1515C20.4981 69.1495 20.5007 69.1475 20.5032 69.1455C20.5057 69.1435 20.5083 69.1415 20.5108 69.1395C20.5133 69.1375 20.5159 69.1355 20.5184 69.1335C20.5209 69.1315 20.5235 69.1295 20.526 69.1275C20.5286 69.1255 20.5311 69.1235 20.5337 69.1215C20.5362 69.1195 20.5388 69.1175 20.5413 69.1155C20.5439 69.1134 20.5464 69.1114 20.549 69.1094C20.5516 69.1074 20.5541 69.1054 20.5567 69.1033C20.5592 69.1013 20.5618 69.0993 20.5644 69.0973C20.567 69.0953 20.5695 69.0932 20.5721 69.0912C20.5747 69.0892 20.5773 69.0871 20.5798 69.0851C20.5824 69.0831 20.585 69.081 20.5876 69.079C20.5902 69.0769 20.5927 69.0749 20.5953 69.0729C20.5979 69.0708 20.6005 69.0688 20.6031 69.0667C20.6057 69.0647 20.6083 69.0626 20.6109 69.0606C20.6135 69.0585 20.6161 69.0565 20.6187 69.0544C20.6213 69.0524 20.6239 69.0503 20.6265 69.0483C20.6291 69.0462 20.6317 69.0442 20.6344 69.0421C20.637 69.04 20.6396 69.038 20.6422 69.0359C20.6448 69.0338 20.6475 69.0318 20.6501 69.0297C20.6527 69.0276 20.6553 69.0256 20.658 69.0235C20.6606 69.0214 20.6632 69.0193 20.6658 69.0173C20.6685 69.0152 20.6711 69.0131 20.6737 69.011C20.6764 69.0089 20.679 69.0069 20.6817 69.0048C20.6843 69.0027 20.687 69.0006 20.6896 68.9985C20.6923 68.9964 20.6949 68.9943 20.6976 68.9923C20.7002 68.9902 20.7029 68.9881 20.7055 68.986C20.7082 68.9839 20.7109 68.9818 20.7135 68.9797C20.7162 68.9776 20.7188 68.9755 20.7215 68.9734C20.7242 68.9713 20.7268 68.9692 20.7295 68.9671C20.7322 68.9649 20.7349 68.9628 20.7375 68.9607C20.7402 68.9586 20.7429 68.9565 20.7456 68.9544C20.7483 68.9523 20.751 68.9501 20.7536 68.948C20.7563 68.9459 20.759 68.9438 20.7617 68.9417C20.7644 68.9395 20.7671 68.9374 20.7698 68.9353C20.7725 68.9332 20.7752 68.931 20.7779 68.9289C20.7806 68.9268 20.7833 68.9246 20.786 68.9225C20.7887 68.9204 20.7914 68.9182 20.7941 68.9161C20.7969 68.9139 20.7996 68.9118 20.8023 68.9097C20.805 68.9075 20.8077 68.9054 20.8104 68.9032C20.8132 68.9011 20.8159 68.8989 20.8186 68.8968C20.8213 68.8946 20.8241 68.8925 20.8268 68.8903C20.8295 68.8882 20.8323 68.886 20.835 68.8839C20.8378 68.8817 20.8405 68.8795 20.8432 68.8774C20.846 68.8752 20.8487 68.873 20.8515 68.8709C20.8542 68.8687 20.857 68.8665 20.8597 68.8644C20.8625 68.8622 20.8652 68.86 20.868 68.8579C20.8707 68.8557 20.8735 68.8535 20.8763 68.8513C20.879 68.8492 20.8818 68.847 20.8846 68.8448C20.8873 68.8426 20.8901 68.8404 20.8929 68.8382C20.8956 68.8361 20.8984 68.8339 20.9012 68.8317C20.904 68.8295 20.9067 68.8273 20.9095 68.8251C20.9123 68.8229 20.9151 68.8207 20.9179 68.8185C20.9207 68.8163 20.9234 68.8141 20.9262 68.8119C20.929 68.8097 20.9318 68.8075 20.9346 68.8053C20.9374 68.8031 20.9402 68.8009 20.943 68.7987C20.9458 68.7965 20.9486 68.7943 20.9514 68.7921C20.9542 68.7898 20.957 68.7876 20.9598 68.7854C20.9627 68.7832 20.9655 68.781 20.9683 68.7788C20.9711 68.7765 20.9739 68.7743 20.9767 68.7721C20.9796 68.7699 20.9824 68.7676 20.9852 68.7654C20.988 68.7632 20.9909 68.7609 20.9937 68.7587C20.9965 68.7565 20.9994 68.7543 21.0022 68.752C21.005 68.7498 21.0079 68.7475 21.0107 68.7453C21.0136 68.7431 21.0164 68.7408 21.0192 68.7386C21.0221 68.7363 21.0249 68.7341 21.0278 68.7318C21.0306 68.7296 21.0335 68.7273 21.0363 68.7251C21.0392 68.7228 21.0421 68.7206 21.0449 68.7183C21.0478 68.7161 21.0506 68.7138 21.0535 68.7116C21.0564 68.7093 21.0592 68.707 21.0621 68.7048C21.065 68.7025 21.0679 68.7002 21.0707 68.698C21.0736 68.6957 21.0765 68.6934 21.0794 68.6912C21.0822 68.6889 21.0851 68.6866 21.088 68.6843C21.0909 68.6821 21.0938 68.6798 21.0967 68.6775C21.0996 68.6752 21.1025 68.6729 21.1054 68.6707C21.1082 68.6684 21.1111 68.6661 21.114 68.6638C21.1169 68.6615 21.1198 68.6592 21.1227 68.6569C21.1257 68.6547 21.1286 68.6524 21.1315 68.6501C21.1344 68.6478 21.1373 68.6455 21.1402 68.6432C21.1431 68.6409 21.146 68.6386 21.149 68.6363C21.1519 68.634 21.1548 68.6317 21.1577 68.6294C21.1607 68.6271 21.1636 68.6248 21.1665 68.6224C21.1694 68.6201 21.1724 68.6178 21.1753 68.6155C21.1782 68.6132 21.1812 68.6109 21.1841 68.6086C21.1871 68.6062 21.19 68.6039 21.1929 68.6016C21.1959 68.5993 21.1988 68.5969 21.2018 68.5946C21.2047 68.5923 21.2077 68.59 21.2106 68.5876C21.2136 68.5853 21.2165 68.583 21.2195 68.5806C21.2225 68.5783 21.2254 68.576 21.2284 68.5736C21.2314 68.5713 21.2343 68.569 21.2373 68.5666C21.2403 68.5643 21.2432 68.5619 21.2462 68.5596C21.2492 68.5572 21.2522 68.5549 21.2551 68.5526C21.2581 68.5502 21.2611 68.5478 21.2641 68.5455C21.2671 68.5431 21.27 68.5408 21.273 68.5384C21.276 68.5361 21.279 68.5337 21.282 68.5314C21.285 68.529 21.288 68.5266 21.291 68.5243C21.294 68.5219 21.297 68.5195 21.3 68.5172C21.303 68.5148 21.306 68.5124 21.309 68.5101C21.312 68.5077 21.315 68.5053 21.318 68.5029C21.3211 68.5006 21.3241 68.4982 21.3271 68.4958C21.3301 68.4934 21.3331 68.491 21.3362 68.4887C21.3392 68.4863 21.3422 68.4839 21.3452 68.4815C21.3483 68.4791 21.3513 68.4767 21.3543 68.4743C21.3574 68.4719 21.3604 68.4695 21.3634 68.4671C21.3665 68.4647 21.3695 68.4623 21.3726 68.4599C21.3756 68.4575 21.3786 68.4551 21.3817 68.4527C21.3847 68.4503 21.3878 68.4479 21.3908 68.4455C21.3939 68.4431 21.3969 68.4407 21.4 68.4383C21.4031 68.4359 21.4061 68.4335 21.4092 68.4311C21.4122 68.4286 21.4153 68.4262 21.4184 68.4238C21.4214 68.4214 21.4245 68.419 21.4276 68.4165C21.4307 68.4141 21.4337 68.4117 21.4368 68.4093C21.4399 68.4068 21.443 68.4044 21.4461 68.402C21.4491 68.3996 21.4522 68.3971 21.4553 68.3947C21.4584 68.3923 21.4615 68.3898 21.4646 68.3874C21.4677 68.3849 21.4708 68.3825 21.4739 68.3801C21.477 68.3776 21.4801 68.3752 21.4832 68.3727C21.4863 68.3703 21.4894 68.3678 21.4925 68.3654C21.4956 68.3629 21.4987 68.3605 21.5018 68.358C21.5049 68.3556 21.508 68.3531 21.5111 68.3507C21.5143 68.3482 21.5174 68.3457 21.5205 68.3433C21.5236 68.3408 21.5267 68.3384 21.5299 68.3359C21.533 68.3334 21.5361 68.331 21.5393 68.3285C21.5424 68.326 21.5455 68.3235 21.5487 68.3211C21.5518 68.3186 21.5549 68.3161 21.5581 68.3136C21.5612 68.3112 21.5644 68.3087 21.5675 68.3062C21.5707 68.3037 21.5738 68.3012 21.577 68.2988C21.5801 68.2963 21.5833 68.2938 21.5864 68.2913C21.5896 68.2888 21.5927 68.2863 21.5959 68.2838C21.5991 68.2813 21.6022 68.2788 21.6054 68.2763C21.6086 68.2738 21.6117 68.2713 21.6149 68.2688C21.6181 68.2663 21.6212 68.2638 21.6244 68.2613C21.6276 68.2588 21.6308 68.2563 21.634 68.2538C21.6371 68.2513 21.6403 68.2488 21.6435 68.2463C21.6467 68.2438 21.6499 68.2413 21.6531 68.2387C21.6563 68.2362 21.6595 68.2337 21.6626 68.2312C21.6658 68.2287 21.669 68.2261 21.6722 68.2236C21.6754 68.2211 21.6786 68.2186 21.6819 68.216C21.6851 68.2135 21.6883 68.211 21.6915 68.2084C21.6947 68.2059 21.6979 68.2034 21.7011 68.2008C21.7043 68.1983 21.7075 68.1958 21.7108 68.1932C21.714 68.1907 21.7172 68.1882 21.7204 68.1856C21.7237 68.1831 21.7269 68.1805 21.7301 68.178C21.7334 68.1754 21.7366 68.1729 21.7398 68.1703C21.7431 68.1678 21.7463 68.1652 21.7495 68.1627C21.7528 68.1601 21.756 68.1575 21.7593 68.155C21.7625 68.1524 21.7658 68.1499 21.769 68.1473C21.7723 68.1447 21.7755 68.1422 21.7788 68.1396C21.782 68.137 21.7853 68.1345 21.7885 68.1319C21.7918 68.1293 21.7951 68.1268 21.7983 68.1242C21.8016 68.1216 21.8049 68.119 21.8081 68.1165C21.8114 68.1139 21.8147 68.1113 21.8179 68.1087C21.8212 68.1061 21.8245 68.1035 21.8278 68.101C21.8311 68.0984 21.8343 68.0958 21.8376 68.0932C21.8409 68.0906 21.8442 68.088 21.8475 68.0854C21.8508 68.0828 21.8541 68.0802 21.8574 68.0776C21.8607 68.075 21.8639 68.0724 21.8672 68.0698C21.8705 68.0672 21.8739 68.0646 21.8772 68.062C21.8805 68.0594 21.8838 68.0568 21.8871 68.0542C21.8904 68.0516 21.8937 68.049 21.897 68.0464C21.9003 68.0437 21.9036 68.0411 21.907 68.0385C21.9103 68.0359 21.9136 68.0333 21.9169 68.0307C21.9202 68.028 21.9236 68.0254 21.9269 68.0228C21.9302 68.0202 21.9336 68.0175 21.9369 68.0149C21.9402 68.0123 21.9436 68.0096 21.9469 68.007C21.9502 68.0044 21.9536 68.0017 21.9569 67.9991C21.9603 67.9965 21.9636 67.9938 21.967 67.9912C21.9703 67.9886 21.9737 67.9859 21.977 67.9833C21.9804 67.9806 21.9837 67.978 21.9871 67.9753C21.9904 67.9727 21.9938 67.97 21.9972 67.9674C22.0005 67.9647 22.0039 67.9621 22.0073 67.9594C22.0106 67.9568 22.014 67.9541 22.0174 67.9514C22.0208 67.9488 22.0241 67.9461 22.0275 67.9434C22.0309 67.9408 22.0343 67.9381 22.0377 67.9354C22.041 67.9328 22.0444 67.9301 22.0478 67.9274C22.0512 67.9248 22.0546 67.9221 22.058 67.9194C22.0614 67.9167 22.0648 67.9141 22.0682 67.9114C22.0716 67.9087 22.075 67.906 22.0784 67.9033C22.0818 67.9007 22.0852 67.898 22.0886 67.8953C22.092 67.8926 22.0954 67.8899 22.0988 67.8872C22.1022 67.8845 22.1056 67.8818 22.1091 67.8791C22.1125 67.8764 22.1159 67.8737 22.1193 67.871C22.1227 67.8683 22.1262 67.8656 22.1296 67.8629C22.133 67.8602 22.1365 67.8575 22.1399 67.8548C22.1433 67.8521 22.1468 67.8494 22.1502 67.8467C22.1536 67.844 22.1571 67.8413 22.1605 67.8386C22.164 67.8358 22.1674 67.8331 22.1708 67.8304C22.1743 67.8277 22.1777 67.825 22.1812 67.8222C22.1846 67.8195 22.1881 67.8168 22.1916 67.8141C22.195 67.8114 22.1985 67.8086 22.2019 67.8059C22.2054 67.8032 22.2089 67.8004 22.2123 67.7977C22.2158 67.795 22.2193 67.7922 22.2227 67.7895C22.2262 67.7868 22.2297 67.784 22.2332 67.7813C22.2366 67.7785 22.2401 67.7758 22.2436 67.773C22.2471 67.7703 22.2506 67.7675 22.2541 67.7648C22.2575 67.762 22.261 67.7593 22.2645 67.7565C22.268 67.7538 22.2715 67.751 22.275 67.7483L20.3405 65.7645C20.337 65.7673 20.3335 65.77 20.33 65.7728C20.3265 65.7755 20.323 65.7783 20.3195 65.781C20.316 65.7838 20.3125 65.7865 20.309 65.7893C20.3056 65.792 20.3021 65.7948 20.2986 65.7975C20.2951 65.8003 20.2917 65.803 20.2882 65.8057C20.2847 65.8085 20.2812 65.8112 20.2778 65.814C20.2743 65.8167 20.2708 65.8194 20.2674 65.8221C20.2639 65.8249 20.2605 65.8276 20.257 65.8303C20.2535 65.8331 20.2501 65.8358 20.2466 65.8385C20.2432 65.8412 20.2397 65.8439 20.2363 65.8467C20.2328 65.8494 20.2294 65.8521 20.226 65.8548C20.2225 65.8575 20.2191 65.8602 20.2156 65.863C20.2122 65.8657 20.2088 65.8684 20.2053 65.8711C20.2019 65.8738 20.1985 65.8765 20.195 65.8792C20.1916 65.8819 20.1882 65.8846 20.1848 65.8873C20.1813 65.89 20.1779 65.8927 20.1745 65.8954C20.1711 65.8981 20.1677 65.9008 20.1643 65.9035C20.1608 65.9062 20.1574 65.9089 20.154 65.9115C20.1506 65.9142 20.1472 65.9169 20.1438 65.9196C20.1404 65.9223 20.137 65.925 20.1336 65.9276C20.1302 65.9303 20.1268 65.933 20.1234 65.9357C20.12 65.9383 20.1166 65.941 20.1133 65.9437C20.1099 65.9464 20.1065 65.949 20.1031 65.9517C20.0997 65.9544 20.0963 65.957 20.093 65.9597C20.0896 65.9624 20.0862 65.965 20.0828 65.9677C20.0795 65.9704 20.0761 65.973 20.0727 65.9757C20.0693 65.9783 20.066 65.981 20.0626 65.9836C20.0593 65.9863 20.0559 65.9889 20.0525 65.9916C20.0492 65.9942 20.0458 65.9969 20.0425 65.9995C20.0391 66.0022 20.0358 66.0048 20.0324 66.0074C20.0291 66.0101 20.0257 66.0127 20.0224 66.0154C20.019 66.018 20.0157 66.0206 20.0124 66.0233C20.009 66.0259 20.0057 66.0285 20.0023 66.0312C19.999 66.0338 19.9957 66.0364 19.9923 66.039C19.989 66.0417 19.9857 66.0443 19.9824 66.0469C19.979 66.0495 19.9757 66.0522 19.9724 66.0548C19.9691 66.0574 19.9658 66.06 19.9624 66.0626C19.9591 66.0652 19.9558 66.0678 19.9525 66.0705C19.9492 66.0731 19.9459 66.0757 19.9426 66.0783C19.9393 66.0809 19.936 66.0835 19.9327 66.0861C19.9294 66.0887 19.9261 66.0913 19.9228 66.0939C19.9195 66.0965 19.9162 66.0991 19.9129 66.1017C19.9096 66.1043 19.9063 66.1069 19.9031 66.1095C19.8998 66.112 19.8965 66.1146 19.8932 66.1172C19.8899 66.1198 19.8867 66.1224 19.8834 66.125C19.8801 66.1276 19.8768 66.1301 19.8736 66.1327C19.8703 66.1353 19.867 66.1379 19.8638 66.1404C19.8605 66.143 19.8572 66.1456 19.854 66.1482C19.8507 66.1507 19.8475 66.1533 19.8442 66.1559C19.841 66.1584 19.8377 66.161 19.8345 66.1636C19.8312 66.1661 19.828 66.1687 19.8247 66.1712C19.8215 66.1738 19.8182 66.1764 19.815 66.1789C19.8117 66.1815 19.8085 66.184 19.8053 66.1866C19.802 66.1891 19.7988 66.1917 19.7956 66.1942C19.7923 66.1968 19.7891 66.1993 19.7859 66.2019C19.7827 66.2044 19.7794 66.2069 19.7762 66.2095C19.773 66.212 19.7698 66.2146 19.7666 66.2171C19.7633 66.2196 19.7601 66.2222 19.7569 66.2247C19.7537 66.2272 19.7505 66.2298 19.7473 66.2323C19.7441 66.2348 19.7409 66.2373 19.7377 66.2399C19.7345 66.2424 19.7313 66.2449 19.7281 66.2474C19.7249 66.25 19.7217 66.2525 19.7185 66.255C19.7153 66.2575 19.7121 66.26 19.7089 66.2625C19.7058 66.265 19.7026 66.2676 19.6994 66.2701C19.6962 66.2726 19.693 66.2751 19.6899 66.2776C19.6867 66.2801 19.6835 66.2826 19.6803 66.2851C19.6772 66.2876 19.674 66.2901 19.6708 66.2926C19.6677 66.2951 19.6645 66.2976 19.6613 66.3001C19.6582 66.3026 19.655 66.3051 19.6519 66.3075C19.6487 66.31 19.6456 66.3125 19.6424 66.315C19.6393 66.3175 19.6361 66.32 19.633 66.3225C19.6298 66.3249 19.6267 66.3274 19.6235 66.3299C19.6204 66.3324 19.6172 66.3348 19.6141 66.3373C19.611 66.3398 19.6078 66.3423 19.6047 66.3447C19.6016 66.3472 19.5984 66.3497 19.5953 66.3521C19.5922 66.3546 19.5891 66.3571 19.586 66.3595C19.5828 66.362 19.5797 66.3645 19.5766 66.3669C19.5735 66.3694 19.5704 66.3718 19.5672 66.3743C19.5641 66.3767 19.561 66.3792 19.5579 66.3816C19.5548 66.3841 19.5517 66.3865 19.5486 66.389C19.5455 66.3914 19.5424 66.3939 19.5393 66.3963C19.5362 66.3988 19.5331 66.4012 19.53 66.4036C19.5269 66.4061 19.5238 66.4085 19.5208 66.4109C19.5177 66.4134 19.5146 66.4158 19.5115 66.4182C19.5084 66.4207 19.5053 66.4231 19.5023 66.4255C19.4992 66.428 19.4961 66.4304 19.493 66.4328C19.49 66.4352 19.4869 66.4376 19.4838 66.4401C19.4808 66.4425 19.4777 66.4449 19.4746 66.4473C19.4716 66.4497 19.4685 66.4521 19.4654 66.4546C19.4624 66.457 19.4593 66.4594 19.4563 66.4618C19.4532 66.4642 19.4502 66.4666 19.4471 66.469C19.4441 66.4714 19.441 66.4738 19.438 66.4762C19.435 66.4786 19.4319 66.481 19.4289 66.4834C19.4258 66.4858 19.4228 66.4882 19.4198 66.4906C19.4167 66.493 19.4137 66.4954 19.4107 66.4978C19.4076 66.5001 19.4046 66.5025 19.4016 66.5049C19.3986 66.5073 19.3956 66.5097 19.3925 66.5121C19.3895 66.5144 19.3865 66.5168 19.3835 66.5192C19.3805 66.5216 19.3775 66.5239 19.3745 66.5263C19.3714 66.5287 19.3684 66.5311 19.3654 66.5334C19.3624 66.5358 19.3594 66.5382 19.3564 66.5405C19.3534 66.5429 19.3504 66.5453 19.3474 66.5476C19.3445 66.55 19.3415 66.5523 19.3385 66.5547C19.3355 66.557 19.3325 66.5594 19.3295 66.5618C19.3265 66.5641 19.3236 66.5665 19.3206 66.5688C19.3176 66.5712 19.3146 66.5735 19.3116 66.5758C19.3087 66.5782 19.3057 66.5805 19.3027 66.5829C19.2998 66.5852 19.2968 66.5876 19.2938 66.5899C19.2909 66.5922 19.2879 66.5946 19.2849 66.5969C19.282 66.5992 19.279 66.6016 19.2761 66.6039C19.2731 66.6062 19.2702 66.6086 19.2672 66.6109C19.2643 66.6132 19.2613 66.6155 19.2584 66.6178C19.2554 66.6202 19.2525 66.6225 19.2496 66.6248C19.2466 66.6271 19.2437 66.6294 19.2407 66.6318C19.2378 66.6341 19.2349 66.6364 19.2319 66.6387C19.229 66.641 19.2261 66.6433 19.2232 66.6456C19.2202 66.6479 19.2173 66.6502 19.2144 66.6525C19.2115 66.6548 19.2086 66.6571 19.2057 66.6594C19.2027 66.6617 19.1998 66.664 19.1969 66.6663C19.194 66.6686 19.1911 66.6709 19.1882 66.6732C19.1853 66.6755 19.1824 66.6778 19.1795 66.6801C19.1766 66.6824 19.1737 66.6846 19.1708 66.6869C19.1679 66.6892 19.165 66.6915 19.1621 66.6938C19.1592 66.696 19.1563 66.6983 19.1535 66.7006C19.1506 66.7029 19.1477 66.7051 19.1448 66.7074C19.1419 66.7097 19.139 66.712 19.1362 66.7142C19.1333 66.7165 19.1304 66.7188 19.1276 66.721C19.1247 66.7233 19.1218 66.7255 19.119 66.7278C19.1161 66.7301 19.1132 66.7323 19.1104 66.7346C19.1075 66.7368 19.1046 66.7391 19.1018 66.7413C19.0989 66.7436 19.0961 66.7458 19.0932 66.7481C19.0904 66.7503 19.0875 66.7526 19.0847 66.7548C19.0818 66.7571 19.079 66.7593 19.0762 66.7616C19.0733 66.7638 19.0705 66.766 19.0676 66.7683C19.0648 66.7705 19.062 66.7727 19.0591 66.775C19.0563 66.7772 19.0535 66.7794 19.0507 66.7817C19.0478 66.7839 19.045 66.7861 19.0422 66.7883C19.0394 66.7906 19.0365 66.7928 19.0337 66.795C19.0309 66.7972 19.0281 66.7995 19.0253 66.8017C19.0225 66.8039 19.0197 66.8061 19.0169 66.8083C19.0141 66.8105 19.0113 66.8127 19.0085 66.8149C19.0057 66.8172 19.0029 66.8194 19.0001 66.8216C18.9973 66.8238 18.9945 66.826 18.9917 66.8282C18.9889 66.8304 18.9861 66.8326 18.9833 66.8348C18.9805 66.837 18.9777 66.8392 18.975 66.8414C18.9722 66.8436 18.9694 66.8457 18.9666 66.8479C18.9638 66.8501 18.9611 66.8523 18.9583 66.8545C18.9555 66.8567 18.9528 66.8589 18.95 66.861C18.9472 66.8632 18.9445 66.8654 18.9417 66.8676C18.9389 66.8698 18.9362 66.8719 18.9334 66.8741C18.9307 66.8763 18.9279 66.8785 18.9252 66.8806C18.9224 66.8828 18.9197 66.885 18.9169 66.8871C18.9142 66.8893 18.9114 66.8915 18.9087 66.8936C18.9059 66.8958 18.9032 66.898 18.9005 66.9001C18.8977 66.9023 18.895 66.9044 18.8923 66.9066C18.8895 66.9087 18.8868 66.9109 18.8841 66.913C18.8813 66.9152 18.8786 66.9173 18.8759 66.9195C18.8732 66.9216 18.8705 66.9238 18.8677 66.9259C18.865 66.9281 18.8623 66.9302 18.8596 66.9323C18.8569 66.9345 18.8542 66.9366 18.8515 66.9388C18.8488 66.9409 18.846 66.943 18.8433 66.9452C18.8406 66.9473 18.8379 66.9494 18.8352 66.9515C18.8325 66.9537 18.8299 66.9558 18.8272 66.9579C18.8245 66.96 18.8218 66.9622 18.8191 66.9643C18.8164 66.9664 18.8137 66.9685 18.811 66.9706C18.8084 66.9727 18.8057 66.9749 18.803 66.977C18.8003 66.9791 18.7976 66.9812 18.795 66.9833C18.7923 66.9854 18.7896 66.9875 18.787 66.9896C18.7843 66.9917 18.7816 66.9938 18.779 66.9959C18.7763 66.998 18.7736 67.0001 18.771 67.0022C18.7683 67.0043 18.7657 67.0064 18.763 67.0085C18.7604 67.0106 18.7577 67.0127 18.7551 67.0148C18.7524 67.0169 18.7498 67.019 18.7471 67.021C18.7445 67.0231 18.7418 67.0252 18.7392 67.0273C18.7366 67.0294 18.7339 67.0314 18.7313 67.0335C18.7287 67.0356 18.726 67.0377 18.7234 67.0397C18.7208 67.0418 18.7181 67.0439 18.7155 67.046C18.7129 67.048 18.7103 67.0501 18.7077 67.0522C18.705 67.0542 18.7024 67.0563 18.6998 67.0583C18.6972 67.0604 18.6946 67.0625 18.692 67.0645C18.6894 67.0666 18.6868 67.0686 18.6842 67.0707C18.6815 67.0727 18.6789 67.0748 18.6763 67.0768C18.6737 67.0789 18.6712 67.0809 18.6686 67.083C18.666 67.085 18.6634 67.0871 18.6608 67.0891C18.6582 67.0912 18.6556 67.0932 18.653 67.0952C18.6504 67.0973 18.6479 67.0993 18.6453 67.1013C18.6427 67.1034 18.6401 67.1054 18.6375 67.1074C18.635 67.1095 18.6324 67.1115 18.6298 67.1135C18.6273 67.1156 18.6247 67.1176 18.6221 67.1196C18.6196 67.1216 18.617 67.1236 18.6144 67.1257C18.6119 67.1277 18.6093 67.1297 18.6068 67.1317C18.6042 67.1337 18.6017 67.1357 18.5991 67.1377C18.5966 67.1398 18.594 67.1418 18.5915 67.1438C18.5889 67.1458 18.5864 67.1478 18.5838 67.1498C18.5813 67.1518 18.5788 67.1538 18.5762 67.1558C18.5737 67.1578 18.5712 67.1598 18.5686 67.1618C18.5661 67.1638 18.5636 67.1658 18.5611 67.1678C18.5585 67.1698 18.556 67.1717 18.5535 67.1737C18.551 67.1757 18.5484 67.1777 18.5459 67.1797C18.5434 67.1817 18.5409 67.1837 18.5384 67.1856C18.5359 67.1876 18.5334 67.1896 18.5309 67.1916C18.5284 67.1935 18.5259 67.1955 18.5234 67.1975C18.5209 67.1995 18.5184 67.2014 18.5159 67.2034C18.5134 67.2054 18.5109 67.2073 18.5084 67.2093C18.5059 67.2113 18.5034 67.2132 18.5009 67.2152C18.4984 67.2171 18.496 67.2191 18.4935 67.2211C18.491 67.223 18.4885 67.225 18.486 67.2269C18.4836 67.2289 18.4811 67.2308 18.4786 67.2328C18.4762 67.2347 18.4737 67.2367 18.4712 67.2386C18.4688 67.2406 18.4663 67.2425 18.4638 67.2444C18.4614 67.2464 18.4589 67.2483 18.4565 67.2503C18.454 67.2522 18.4515 67.2541 18.4491 67.2561C18.4466 67.258 18.4442 67.2599 18.4417 67.2619C18.4393 67.2638 18.4369 67.2657 18.4344 67.2676C18.432 67.2696 18.4295 67.2715 18.4271 67.2734C18.4247 67.2753 18.4222 67.2772 18.4198 67.2792C18.4174 67.2811 18.4149 67.283 18.4125 67.2849C18.4101 67.2868 18.4077 67.2887 18.4052 67.2906C18.4028 67.2926 18.4004 67.2945 18.398 67.2964C18.3956 67.2983 18.3932 67.3002 18.3907 67.3021C18.3883 67.304 18.3859 67.3059 18.3835 67.3078C18.3811 67.3097 18.3787 67.3116 18.3763 67.3135C18.3739 67.3154 18.3715 67.3172 18.3691 67.3191C18.3667 67.321 18.3643 67.3229 18.3619 67.3248C18.3595 67.3267 18.3571 67.3286 18.3548 67.3305C18.3524 67.3323 18.35 67.3342 18.3476 67.3361C18.3452 67.338 18.3428 67.3398 18.3405 67.3417C18.3381 67.3436 18.3357 67.3455 18.3333 67.3473C18.331 67.3492 18.3286 67.3511 18.3262 67.3529C18.3239 67.3548 18.3215 67.3567 18.3191 67.3585C18.3168 67.3604 18.3144 67.3623 18.3121 67.3641C18.3097 67.366 18.3073 67.3678 18.305 67.3697C18.3026 67.3716 18.3003 67.3734 18.2979 67.3753C18.2956 67.3771 18.2933 67.379 18.2909 67.3808C18.2886 67.3826 18.2862 67.3845 18.2839 67.3863C18.2816 67.3882 18.2792 67.39 18.2769 67.3919C18.2746 67.3937 18.2722 67.3955 18.2699 67.3974C18.2676 67.3992 18.2652 67.401 18.2629 67.4029C18.2606 67.4047 18.2583 67.4065 18.256 67.4084C18.2536 67.4102 18.2513 67.412 18.249 67.4138C18.2467 67.4157 18.2444 67.4175 18.2421 67.4193C18.2398 67.4211 18.2375 67.4229 18.2352 67.4248C18.2329 67.4266 18.2306 67.4284 18.2283 67.4302C18.226 67.432 18.2237 67.4338 18.2214 67.4356C18.2191 67.4374 18.2168 67.4393 18.2145 67.4411C18.2122 67.4429 18.2099 67.4447 18.2076 67.4465C18.2054 67.4483 18.2031 67.4501 18.2008 67.4519C18.1985 67.4537 18.1962 67.4555 18.194 67.4572C18.1917 67.459 18.1894 67.4608 18.1872 67.4626C18.1849 67.4644 18.1826 67.4662 18.1804 67.468C18.1781 67.4698 18.1758 67.4715 18.1736 67.4733C18.1713 67.4751 18.1691 67.4769 18.1668 67.4787C18.1646 67.4804 18.1623 67.4822 18.1601 67.484C18.1578 67.4858 18.1556 67.4875 18.1533 67.4893C18.1511 67.4911 18.1488 67.4928 18.1466 67.4946C18.1444 67.4964 18.1421 67.4981 18.1399 67.4999C18.1377 67.5017 18.1354 67.5034 18.1332 67.5052C18.131 67.5069 18.1287 67.5087 18.1265 67.5104C18.1243 67.5122 18.1221 67.514 18.1198 67.5157C18.1176 67.5175 18.1154 67.5192 18.1132 67.5209C18.111 67.5227 18.1088 67.5244 18.1066 67.5262C18.1044 67.5279 18.1021 67.5297 18.0999 67.5314C18.0977 67.5331 18.0955 67.5349 18.0933 67.5366C18.0911 67.5383 18.0889 67.5401 18.0867 67.5418C18.0846 67.5435 18.0824 67.5453 18.0802 67.547C18.078 67.5487 18.0758 67.5504 18.0736 67.5522C18.0714 67.5539 18.0692 67.5556 18.0671 67.5573C18.0649 67.559 18.0627 67.5608 18.0605 67.5625C18.0584 67.5642 18.0562 67.5659 18.054 67.5676C18.0518 67.5693 18.0497 67.571 18.0475 67.5727C18.0453 67.5745 18.0432 67.5762 18.041 67.5779C18.0389 67.5796 18.0367 67.5813 18.0346 67.583C18.0324 67.5847 18.0302 67.5864 18.0281 67.5881C18.0259 67.5898 18.0238 67.5915 18.0217 67.5931C18.0195 67.5948 18.0174 67.5965 18.0152 67.5982C18.0131 67.5999 18.0109 67.6016 18.0088 67.6033C18.0067 67.605 18.0045 67.6066 18.0024 67.6083C18.0003 67.61 17.9982 67.6117 17.996 67.6133C17.9939 67.615 17.9918 67.6167 17.9897 67.6184C17.9875 67.62 17.9854 67.6217 17.9833 67.6234C17.9812 67.6251 17.9791 67.6267 17.977 67.6284C17.9749 67.63 17.9727 67.6317 17.9706 67.6334C17.9685 67.635 17.9664 67.6367 17.9643 67.6383C17.9622 67.64 17.9601 67.6417 17.958 67.6433C17.9559 67.645 17.9538 67.6466 17.9518 67.6483C17.9497 67.6499 17.9476 67.6516 17.9455 67.6532C17.9434 67.6548 17.9413 67.6565 17.9392 67.6581C17.9372 67.6598 17.9351 67.6614 17.933 67.663C17.9309 67.6647 17.9289 67.6663 17.9268 67.668C17.9247 67.6696 17.9226 67.6712 17.9206 67.6729C17.9185 67.6745 17.9164 67.6761 17.9144 67.6777C17.9123 67.6794 17.9103 67.681 17.9082 67.6826C17.9061 67.6842 17.9041 67.6858 17.902 67.6875C17.9 67.6891 17.8979 67.6907 17.8959 67.6923C17.8939 67.6939 17.8918 67.6955 17.8898 67.6971C17.8877 67.6988 17.8857 67.7004 17.8836 67.702C17.8816 67.7036 17.8796 67.7052 17.8775 67.7068C17.8755 67.7084 17.8735 67.71 17.8715 67.7116C17.8694 67.7132 17.8674 67.7148 17.8654 67.7164C17.8634 67.718 17.8613 67.7196 17.8593 67.7212C17.8573 67.7227 17.8553 67.7243 17.8533 67.7259C17.8513 67.7275 17.8493 67.7291 17.8473 67.7307C17.8452 67.7323 17.8432 67.7338 17.8412 67.7354C17.8392 67.737 17.8372 67.7386 17.8352 67.7401C17.8332 67.7417 17.8312 67.7433 17.8293 67.7449C17.8273 67.7464 17.8253 67.748 17.8233 67.7496C17.8213 67.7511 17.8193 67.7527 17.8173 67.7543C17.8154 67.7558 17.8134 67.7574 17.8114 67.759C17.8094 67.7605 17.8074 67.7621 17.8055 67.7636C17.8035 67.7652 17.8015 67.7667 17.7996 67.7683C17.7976 67.7698 17.7956 67.7714 17.7937 67.7729C17.7917 67.7745 17.7897 67.776 17.7878 67.7776C17.7858 67.7791 17.7839 67.7807 17.7819 67.7822C17.78 67.7837 17.778 67.7853 17.7761 67.7868C17.7741 67.7883 17.7722 67.7899 17.7702 67.7914C17.7683 67.7929 17.7663 67.7945 17.7644 67.796C17.7625 67.7975 17.7605 67.7991 17.7586 67.8006C17.7567 67.8021 17.7547 67.8036 17.7528 67.8052C17.7509 67.8067 17.749 67.8082 17.747 67.8097C17.7451 67.8112 17.7432 67.8127 17.7413 67.8143C17.7393 67.8158 17.7374 67.8173 17.7355 67.8188C17.7336 67.8203 17.7317 67.8218 17.7298 67.8233C17.7279 67.8248 17.726 67.8263 17.7241 67.8278C17.7222 67.8293 17.7203 67.8308 17.7184 67.8323C17.7165 67.8338 17.7146 67.8353 17.7127 67.8368C17.7108 67.8383 17.7089 67.8398 17.707 67.8413C17.7051 67.8428 17.7032 67.8442 17.7014 67.8457C17.6995 67.8472 17.6976 67.8487 17.6957 67.8502C17.6938 67.8517 17.692 67.8531 17.6901 67.8546C17.6882 67.8561 17.6863 67.8576 17.6845 67.8591C17.6826 67.8605 17.6807 67.862 17.6789 67.8635C17.677 67.8649 17.6751 67.8664 17.6733 67.8679C17.6714 67.8693 17.6696 67.8708 17.6677 67.8723C17.6658 67.8737 17.664 67.8752 17.6622 67.8766C17.6603 67.8781 17.6585 67.8796 17.6566 67.881C17.6548 67.8825 17.6529 67.8839 17.6511 67.8854C17.6492 67.8868 17.6474 67.8883 17.6456 67.8897C17.6437 67.8912 17.6419 67.8926 17.6401 67.8941C17.6383 67.8955 17.6364 67.8969 17.6346 67.8984C17.6328 67.8998 17.6309 67.9013 17.6291 67.9027C17.6273 67.9041 17.6255 67.9056 17.6237 67.907C17.6219 67.9084 17.6201 67.9098 17.6182 67.9113C17.6164 67.9127 17.6146 67.9141 17.6128 67.9155C17.611 67.917 17.6092 67.9184 17.6074 67.9198C17.6056 67.9212 17.6038 67.9226 17.602 67.9241C17.6002 67.9255 17.5984 67.9269 17.5966 67.9283C17.5949 67.9297 17.5931 67.9311 17.5913 67.9325C17.5895 67.9339 17.5877 67.9353 17.5859 67.9368C17.5842 67.9382 17.5824 67.9396 17.5806 67.941C17.5788 67.9424 17.577 67.9438 17.5753 67.9452C17.5735 67.9465 17.5717 67.9479 17.57 67.9493C17.5682 67.9507 17.5665 67.9521 17.5647 67.9535C17.5629 67.9549 17.5612 67.9563 17.5594 67.9577C17.5577 67.9591 17.5559 67.9604 17.5542 67.9618C17.5524 67.9632 17.5507 67.9646 17.5489 67.9659C17.5472 67.9673 17.5454 67.9687 17.5437 67.9701C17.5419 67.9714 17.5402 67.9728 17.5385 67.9742C17.5367 67.9756 17.535 67.9769 17.5333 67.9783C17.5315 67.9796 17.5298 67.981 17.5281 67.9824C17.5264 67.9837 17.5246 67.9851 17.5229 67.9865C17.5212 67.9878 17.5195 67.9892 17.5178 67.9905C17.516 67.9919 17.5143 67.9932 17.5126 67.9946C17.5109 67.9959 17.5092 67.9973 17.5075 67.9986C17.5058 68 17.5041 68.0013 17.5024 68.0026C17.5007 68.004 17.499 68.0053 17.4973 68.0067C17.4956 68.008 17.4939 68.0093 17.4922 68.0107C17.4905 68.012 17.4888 68.0133 17.4871 68.0147C17.4854 68.016 17.4838 68.0173 17.4821 68.0187C17.4804 68.02 17.4787 68.0213 17.477 68.0226C17.4754 68.0239 17.4737 68.0253 17.472 68.0266C17.4703 68.0279 17.4687 68.0292 17.467 68.0305C17.4653 68.0318 17.4637 68.0332 17.462 68.0345C17.4604 68.0358 17.4587 68.0371 17.457 68.0384C17.4554 68.0397 17.4537 68.041 17.4521 68.0423C17.4504 68.0436 17.4488 68.0449 17.4471 68.0462C17.4455 68.0475 17.4438 68.0488 17.4422 68.0501C17.4406 68.0514 17.4389 68.0527 17.4373 68.054C17.4356 68.0553 17.434 68.0566 17.4324 68.0578C17.4307 68.0591 17.4291 68.0604 17.4275 68.0617C17.4259 68.063 17.4242 68.0643 17.4226 68.0656C17.421 68.0668 17.4194 68.0681 17.4178 68.0694C17.4161 68.0707 17.4145 68.0719 17.4129 68.0732C17.4113 68.0745 17.4097 68.0757 17.4081 68.077C17.4065 68.0783 17.4049 68.0795 17.4033 68.0808C17.4017 68.0821 17.4001 68.0833 17.3985 68.0846C17.3969 68.0859 17.3953 68.0871 17.3937 68.0884C17.3921 68.0896 17.3905 68.0909 17.3889 68.0921C17.3873 68.0934 17.3857 68.0946 17.3841 68.0959C17.3826 68.0971 17.381 68.0984 17.3794 68.0996C17.3778 68.1009 17.3763 68.1021 17.3747 68.1033C17.3731 68.1046 17.3715 68.1058 17.37 68.1071C17.3684 68.1083 17.3668 68.1095 17.3653 68.1108C17.3637 68.112 17.3621 68.1132 17.3606 68.1145C17.359 68.1157 17.3575 68.1169 17.3559 68.1181C17.3544 68.1194 17.3528 68.1206 17.3513 68.1218C17.3497 68.123 17.3482 68.1242 17.3466 68.1255C17.3451 68.1267 17.3435 68.1279 17.342 68.1291C17.3405 68.1303 17.3389 68.1315 17.3374 68.1327C17.3359 68.134 17.3343 68.1352 17.3328 68.1364C17.3313 68.1376 17.3298 68.1388 17.3282 68.14C17.3267 68.1412 17.3252 68.1424 17.3237 68.1436C17.3221 68.1448 17.3206 68.146 17.3191 68.1472C17.3176 68.1484 17.3161 68.1496 17.3146 68.1507C17.3131 68.1519 17.3116 68.1531 17.3101 68.1543C17.3086 68.1555 17.3071 68.1567 17.3056 68.1579C17.3041 68.159 17.3026 68.1602 17.3011 68.1614C17.2996 68.1626 17.2981 68.1638 17.2966 68.1649C17.2951 68.1661 17.2936 68.1673 17.2921 68.1684C17.2906 68.1696 17.2892 68.1708 17.2877 68.172C17.2862 68.1731 17.2847 68.1743 17.2833 68.1754C17.2818 68.1766 17.2803 68.1778 17.2788 68.1789C17.2774 68.1801 17.2759 68.1812 17.2744 68.1824C17.273 68.1836 17.2715 68.1847 17.27 68.1859C17.2686 68.187 17.2671 68.1882 17.2657 68.1893C17.2642 68.1905 17.2628 68.1916 17.2613 68.1927C17.2599 68.1939 17.2584 68.195 17.257 68.1962C17.2555 68.1973 17.2541 68.1984 17.2527 68.1996C17.2512 68.2007 17.2498 68.2018 17.2483 68.203C17.2469 68.2041 17.2455 68.2052 17.244 68.2064C17.2426 68.2075 17.2412 68.2086 17.2398 68.2097C17.2383 68.2109 17.2369 68.212 17.2355 68.2131C17.2341 68.2142 17.2327 68.2153 17.2312 68.2165C17.2298 68.2176 17.2284 68.2187 17.227 68.2198C17.2256 68.2209 17.2242 68.222 17.2228 68.2231C17.2214 68.2242 17.22 68.2253 17.2186 68.2265C17.2172 68.2276 17.2158 68.2287 17.2144 68.2298C17.213 68.2309 17.2116 68.232 17.2102 68.2331C17.2088 68.2342 17.2074 68.2352 17.206 68.2363C17.2046 68.2374 17.2033 68.2385 17.2019 68.2396C17.2005 68.2407 17.1991 68.2418 17.1978 68.2429C17.1964 68.244 17.195 68.245 17.1936 68.2461C17.1923 68.2472 17.1909 68.2483 17.1895 68.2494C17.1882 68.2504 17.1868 68.2515 17.1854 68.2526C17.1841 68.2537 17.1827 68.2547 17.1814 68.2558C17.18 68.2569 17.1786 68.2579 17.1773 68.259C17.1759 68.2601 17.1746 68.2611 17.1733 68.2622C17.1719 68.2633 17.1706 68.2643 17.1692 68.2654C17.1679 68.2664 17.1665 68.2675 17.1652 68.2685C17.1639 68.2696 17.1625 68.2706 17.1612 68.2717C17.1599 68.2727 17.1585 68.2738 17.1572 68.2748C17.1559 68.2759 17.1546 68.2769 17.1532 68.278C17.1519 68.279 17.1506 68.2801 17.1493 68.2811C17.148 68.2821 17.1467 68.2832 17.1453 68.2842C17.144 68.2852 17.1427 68.2863 17.1414 68.2873C17.1401 68.2883 17.1388 68.2894 17.1375 68.2904C17.1362 68.2914 17.1349 68.2924 17.1336 68.2935C17.1323 68.2945 17.131 68.2955 17.1297 68.2965C17.1284 68.2975 17.1271 68.2986 17.1259 68.2996C17.1246 68.3006 17.1233 68.3016 17.122 68.3026C17.1207 68.3036 17.1194 68.3046 17.1182 68.3056C17.1169 68.3066 17.1156 68.3076 17.1143 68.3086C17.1131 68.3097 17.1118 68.3107 17.1105 68.3117C17.1093 68.3127 17.108 68.3137 17.1067 68.3146C17.1055 68.3156 17.1042 68.3166 17.103 68.3176C17.1017 68.3186 17.1004 68.3196 17.0992 68.3206C17.0979 68.3216 17.0967 68.3226 17.0954 68.3236C17.0942 68.3245 17.093 68.3255 17.0917 68.3265C17.0905 68.3275 17.0892 68.3285 17.088 68.3294C17.0868 68.3304 17.0855 68.3314 17.0843 68.3324C17.083 68.3333 17.0818 68.3343 17.0806 68.3353C17.0794 68.3362 17.0781 68.3372 17.0769 68.3382C17.0757 68.3391 17.0745 68.3401 17.0733 68.3411C17.072 68.342 17.0708 68.343 17.0696 68.3439C17.0684 68.3449 17.0672 68.3458 17.066 68.3468C17.0648 68.3477 17.0636 68.3487 17.0624 68.3496C17.0612 68.3506 17.06 68.3515 17.0588 68.3525C17.0576 68.3534 17.0564 68.3544 17.0552 68.3553C17.054 68.3563 17.0528 68.3572 17.0516 68.3581C17.0504 68.3591 17.0492 68.36 17.048 68.3609C17.0469 68.3619 17.0457 68.3628 17.0445 68.3637C17.0433 68.3647 17.0421 68.3656 17.041 68.3665C17.0398 68.3674 17.0386 68.3684 17.0375 68.3693C17.0363 68.3702 17.0351 68.3711 17.034 68.372C17.0328 68.373 17.0316 68.3739 17.0305 68.3748C17.0293 68.3757 17.0282 68.3766 17.027 68.3775C17.0259 68.3784 17.0247 68.3793 17.0236 68.3802C17.0224 68.3812 17.0213 68.3821 17.0201 68.383C17.019 68.3839 17.0178 68.3848 17.0167 68.3857C17.0156 68.3866 17.0144 68.3875 17.0133 68.3883C17.0121 68.3892 17.011 68.3901 17.0099 68.391C17.0088 68.3919 17.0076 68.3928 17.0065 68.3937C17.0054 68.3946 17.0043 68.3955 17.0031 68.3963C17.002 68.3972 17.0009 68.3981 16.9998 68.399C16.9987 68.3999 16.9976 68.4007 16.9965 68.4016C16.9953 68.4025 16.9942 68.4034 16.9931 68.4042C16.992 68.4051 16.9909 68.406 16.9898 68.4068C16.9887 68.4077 16.9876 68.4086 16.9865 68.4094C16.9854 68.4103 16.9844 68.4112 16.9833 68.412C16.9822 68.4129 16.9811 68.4137 16.98 68.4146C16.9789 68.4155 16.9778 68.4163 16.9768 68.4172C16.9757 68.418 16.9746 68.4189 16.9735 68.4197C16.9724 68.4206 16.9714 68.4214 16.9703 68.4222C16.9692 68.4231 16.9682 68.4239 16.9671 68.4248C16.966 68.4256 16.965 68.4264 16.9639 68.4273C16.9629 68.4281 16.9618 68.4289 16.9607 68.4298C16.9597 68.4306 16.9586 68.4314 16.9576 68.4323C16.9565 68.4331 16.9555 68.4339 16.9544 68.4347C16.9534 68.4356 16.9523 68.4364 16.9513 68.4372C16.9503 68.438 16.9492 68.4389 16.9482 68.4397C16.9472 68.4405 16.9461 68.4413 16.9451 68.4421C16.9441 68.4429 16.943 68.4437 16.942 68.4445C16.941 68.4454 16.94 68.4462 16.9389 68.447C16.9379 68.4478 16.9369 68.4486 16.9359 68.4494C16.9349 68.4502 16.9339 68.451 16.9329 68.4518C16.9318 68.4526 16.9308 68.4534 16.9298 68.4542C16.9288 68.455 16.9278 68.4557 16.9268 68.4565C16.9258 68.4573 16.9248 68.4581 16.9238 68.4589C16.9228 68.4597 16.9218 68.4605 16.9208 68.4612C16.9199 68.462 16.9189 68.4628 16.9179 68.4636C16.9169 68.4644 16.9159 68.4651 16.9149 68.4659C16.9139 68.4667 16.913 68.4675 16.912 68.4682C16.911 68.469 16.91 68.4698 16.9091 68.4705L18.8436 70.4543ZM22.2165 67.792C24.2033 66.3863 26.6358 64.6288 29.5128 62.5206L27.6572 60.4769C24.7875 62.5797 22.3685 64.3273 20.399 65.7208L22.2165 67.792ZM29.5128 62.5206C32.4026 60.4031 35.6431 57.9281 39.2331 55.0969L37.2986 53.1132C33.7275 55.9293 30.514 58.3835 27.6572 60.4769L29.5128 62.5206ZM39.2026 55.1204C42.8829 52.3789 46.7169 49.4358 50.7043 46.2914L48.7697 44.3076C44.8003 47.4379 40.9868 50.3652 37.3292 53.0897L39.2026 55.1204ZM50.7043 46.2914C54.3941 43.3816 58.1881 40.3092 62.0862 37.0743L60.0979 35.1341C56.2161 38.3554 52.44 41.4132 48.7697 44.3076L50.7043 46.2914ZM62.0593 37.0961C66.0559 33.9444 69.9143 30.7404 73.6345 27.4842L71.5911 25.591C67.9071 28.8154 64.0851 31.9892 60.1248 35.1123L62.0593 37.0961ZM73.6345 27.4842C77.3556 24.2273 80.8401 20.9954 84.0877 17.7886L81.9247 16.0064C78.7186 19.1724 75.2742 22.3672 71.5911 25.591L73.6345 27.4842ZM84.0605 17.8147C87.3977 14.6985 90.4011 11.6833 93.0689 8.7692L90.8126 7.08397C88.1982 9.93969 85.2452 12.9051 81.9519 15.9803L84.0605 17.8147ZM92.7656 9.01721C93.7137 8.4416 94.7512 7.7056 95.8753 6.81909L93.9408 4.83534C92.8768 5.6744 91.9361 6.33798 91.1159 6.83596L92.7656 9.01721ZM95.7729 6.89268C96.9522 6.12265 98.0814 5.39206 99.1606 4.70087L97.4521 2.55625C96.3652 3.25239 95.2289 3.98757 94.0432 4.76175L95.7729 6.89268ZM99.0634 4.7579C100.244 4.12501 101.248 3.76273 102.088 3.61379L101.488 1.04015C100.227 1.26383 98.9107 1.76928 97.5493 2.49922L99.0634 4.7579ZM102.031 3.62276C102.74 3.52317 103.308 3.69442 103.883 4.28404L106.059 2.56825C104.865 1.34418 103.312 0.782648 101.544 1.03118L102.031 3.62276ZM103.883 4.28404C104.424 4.83815 104.833 5.53145 105.091 6.39692L107.902 5.74943C107.541 4.53646 106.934 3.46508 106.059 2.56825L103.883 4.28404ZM105.355 5.24548C101.109 10.0273 96.544 14.6631 91.659 19.1529L93.7518 21.0019C98.7021 16.4521 103.331 11.7518 107.638 6.90086L105.355 5.24548ZM91.6384 19.1722C86.9395 23.6746 82.0716 27.9117 77.0347 31.8838L78.9693 33.8676C84.0774 29.8393 89.0117 25.5442 93.7723 20.9826L91.6384 19.1722ZM77.0347 31.8838C74.4767 33.9011 71.831 35.8288 69.0978 37.6668L70.8598 39.7763C73.6522 37.8985 76.3554 35.9289 78.9693 33.8676L77.0347 31.8838ZM69.0557 37.6962C66.4964 39.5551 63.9434 41.3293 61.3969 43.0188L63.1441 45.1382C65.7254 43.4256 68.3113 41.6285 70.9018 39.747L69.0557 37.6962ZM61.3032 43.0866C59.962 44.1443 58.4303 45.1976 56.7046 46.2454L58.3543 48.4266C60.165 47.3273 61.794 46.2089 63.2377 45.0704L61.3032 43.0866ZM56.7144 46.2395C54.9894 47.2682 53.3087 48.4286 51.6719 49.7193L53.6065 51.7031C55.1525 50.4839 56.7319 49.3942 58.3444 48.4326L56.7144 46.2395ZM51.6719 49.7193C50.512 50.634 49.4019 51.6795 48.3402 52.8519L50.6061 54.5266C51.5776 53.4538 52.5782 52.5139 53.6065 51.7031L51.6719 49.7193ZM48.3268 52.8668C47.3301 54.0016 46.4854 55.2753 45.7888 56.6818L48.4502 57.7778C49.0574 56.5518 49.7818 55.4652 50.6194 54.5117L48.3268 52.8668ZM46.4079 58.3649C49.8236 60.1312 53.394 60.9694 57.0932 60.8414L56.9417 58.2205C53.8326 58.3281 50.8043 57.6321 47.8311 56.0946L46.4079 58.3649ZM57.0499 60.8423C60.4075 60.8163 63.9388 61.2083 67.6477 62.0283L68.3049 59.4815C64.3873 58.6154 60.6126 58.1915 56.985 58.2196L57.0499 60.8423ZM67.2502 61.8824C68.1692 62.3702 69.2294 62.6852 70.396 62.8577L70.829 60.2696C69.9398 60.1382 69.2425 59.914 68.7025 59.6274L67.2502 61.8824ZM70.2895 62.8383C71.4058 63.0809 72.5222 63.3235 73.6385 63.5661L74.2846 61.0169C73.1682 60.7743 72.0519 60.5316 70.9355 60.289L70.2895 62.8383ZM73.6385 63.5661C74.7424 63.806 75.7494 64.039 76.6601 64.265L77.3974 61.7369C76.4512 61.5022 75.4134 61.2622 74.2846 61.0169L73.6385 63.5661ZM76.5641 64.2379C77.3778 64.4948 77.9682 64.8551 78.3948 65.2926L80.5705 63.5768C79.759 62.7447 78.7135 62.1492 77.4934 61.764L76.5641 64.2379ZM78.3948 65.2926C78.9547 65.8668 79.065 66.2169 79.0737 66.3682C79.0783 66.4481 79.0716 66.6138 78.7149 66.8951L80.6495 68.8788C81.4863 68.2188 82.0431 67.3386 81.9812 66.2677C81.9234 65.2683 81.3371 64.3629 80.5705 63.5768L78.3948 65.2926ZM78.7149 66.8951C78.0362 67.4303 76.8334 67.8747 74.8808 68.0649L75.233 70.6725C77.4583 70.4557 79.3389 69.9123 80.6495 68.8788L78.7149 66.8951ZM74.9358 68.0605C73.1847 68.1705 72.0083 67.8448 71.2125 67.2738L69.4179 69.3168C70.9655 70.4272 72.9502 70.817 75.178 70.6769L74.9358 68.0605ZM71.2125 67.2738C69.8447 66.2925 68.3123 65.6819 66.6338 65.4709L66.2703 68.0685C67.3992 68.2104 68.4422 68.6168 69.4179 69.3168L71.2125 67.2738ZM66.742 65.4882C65.3621 65.2186 63.8893 65.0343 62.3262 64.9324L62.1556 67.5484C63.5988 67.6425 64.9335 67.811 66.1621 68.0511L66.742 65.4882ZM62.4227 64.9416C61.0487 64.7689 59.6285 64.5515 58.162 64.289L57.6323 66.8612C59.15 67.1329 60.6257 67.359 62.0592 67.5392L62.4227 64.9416ZM58.0789 64.2763C56.9097 64.1294 55.78 63.7381 54.6798 63.0785L53.0898 65.2558C54.532 66.1206 56.0772 66.668 57.7154 66.8739L58.0789 64.2763ZM53.539 62.8891C51.3812 63.3379 49.4659 63.0936 47.7084 62.1973L46.3005 64.4756C48.7434 65.7213 51.4149 66.0308 54.2307 65.4451L53.539 62.8891ZM47.6834 62.1849C45.4794 61.1109 43.1663 60.5332 40.7594 60.4706L40.7153 63.0924C42.641 63.1424 44.5061 63.6014 46.3255 64.488L47.6834 62.1849ZM40.085 60.6012C34.9437 62.8593 30.5664 65.4007 26.9724 68.2349L28.907 70.2187C32.2752 67.5624 36.4297 65.1403 41.3897 62.9618L40.085 60.6012ZM26.9724 68.2349C23.3831 71.0655 19.7193 74.8632 15.9755 79.6003L18.355 81.1409C22.0148 76.51 25.534 72.8786 28.907 70.2187L26.9724 68.2349ZM17.036 81.6751C20.0864 81.9577 23.0806 82.3621 26.019 82.8881L26.5487 80.3158C23.5185 79.7733 20.4336 79.3569 17.2945 79.0661L17.036 81.6751ZM26.0293 82.8899C29.2137 83.4385 32.3544 83.9416 35.4512 84.3994L35.8842 81.8113C32.8136 81.3574 29.6983 80.8583 26.5383 80.314L26.0293 82.8899ZM35.4132 84.3933C38.6375 84.9487 41.7834 85.3271 44.8502 85.527L45.0208 82.911C42.0749 82.719 39.0423 82.3549 35.9222 81.8174L35.4132 84.3933ZM44.8062 85.5235C48.0342 85.8225 51.241 85.7214 54.423 85.2202L53.8836 82.6364C50.9647 83.0961 48.0264 83.1888 45.0647 82.9145L44.8062 85.5235ZM88.8955 44.0281C88.7366 43.0013 88.3567 41.9872 87.7818 40.9897L85.2018 42.1731C85.644 42.9403 85.9055 43.6663 86.0121 44.3553L88.8955 44.0281ZM87.8727 41.1836C87.5599 40.3348 87.292 39.5348 87.0681 38.7834L84.2569 39.4309C84.4974 40.2382 84.7824 41.0878 85.1109 41.9792L87.8727 41.1836ZM87.0681 38.7834C86.8787 38.1478 86.8035 37.477 86.85 36.7644L83.9436 36.5749C83.8798 37.5534 83.9818 38.5076 84.2569 39.4309L87.0681 38.7834ZM86.8363 36.8824C86.9455 36.2299 87.3022 35.4836 88.0171 34.6394L85.6934 33.0306C84.7728 34.1178 84.1573 35.2613 83.9573 36.4569L86.8363 36.8824ZM86.8669 35.1464C88.2473 35.1535 89.6739 35.2049 91.1469 35.3009L91.3174 32.685C89.784 32.585 88.2927 32.5311 86.8437 32.5236L86.8669 35.1464ZM91.1469 35.3009C92.4434 35.3855 93.5061 35.8624 94.4054 36.7846L96.5811 35.0688C95.181 33.6331 93.403 32.8209 91.3174 32.685L91.1469 35.3009ZM94.1278 35.4552L90.5979 44.0142L93.3287 44.9571L96.8586 36.3981L94.1278 35.4552ZM91.1384 43.395C90.4731 43.799 90.1275 43.7666 89.9615 43.7177L89.0911 46.2096C90.4062 46.597 91.6852 46.2459 92.7882 45.5763L91.1384 43.395ZM90.0667 43.7528C89.5141 43.5469 88.8232 43.2896 87.9942 42.9808L86.9134 45.4026C87.7424 45.7114 88.4332 45.9687 88.9859 46.1746L90.0667 43.7528Z" fill="#F0F0F0" mask="url(#path-1-outside-1_1172_1722)"/>
</svg>
