<svg width="58" height="154" viewBox="0 0 58 154" fill="none" xmlns="http://www.w3.org/2000/svg">
<mask id="path-1-outside-1_1172_1738" maskUnits="userSpaceOnUse" x="-1.38965" y="-1.4917" width="61" height="157" fill="black">
<rect fill="white" x="-1.38965" y="-1.4917" width="61" height="157"/>
<path d="M13.4864 44.9503C18.6664 38.2903 23.9944 32.0003 29.4704 26.0803C35.0944 20.0123 40.2744 13.2783 45.0104 5.8783C46.0464 4.5463 47.2304 3.4363 48.5624 2.5483C49.8944 1.51229 51.3744 0.994293 53.0024 0.994293C54.1864 0.994293 55.1484 1.80829 55.8884 3.43629C56.7764 5.06429 57.2944 6.9143 57.4424 8.9863C56.4064 31.9263 55.8144 54.8663 55.6664 77.8063C55.6664 100.746 55.2224 123.908 54.3344 147.292C53.5944 148.328 53.0764 149.512 52.7804 150.844C52.6324 152.028 51.8184 152.916 50.3384 153.508C49.4504 153.36 48.7844 152.99 48.3404 152.398C48.0444 151.658 47.8224 150.918 47.6744 150.178C47.5264 149.438 47.2304 148.772 46.7864 148.18C46.4904 147.44 45.8984 146.848 45.0104 146.404C45.0104 142.704 45.1584 137.524 45.4544 130.864C45.8984 124.204 46.2684 116.73 46.5644 108.442C47.0084 100.154 47.3784 91.3483 47.6744 82.0243C48.1184 72.7003 48.3404 63.4503 48.3404 54.2743C48.3404 48.6503 48.1924 43.2483 47.8964 38.0683C47.7484 32.7403 47.5264 27.7083 47.2304 22.9723C46.4904 22.0843 45.8244 21.6403 45.2324 21.6403C44.3444 21.6403 43.4564 22.0103 42.5684 22.7503C41.6804 23.4903 40.7184 23.9343 39.6824 24.0823C36.1304 27.9303 32.8744 31.9263 29.9144 36.0703C26.9544 40.0663 23.3284 43.6183 19.0364 46.7263C18.7404 47.1703 18.4444 47.9843 18.1484 49.1683C17.8524 50.2043 17.4084 51.3883 16.8164 52.7203C16.3724 54.0523 15.7804 55.3843 15.0404 56.7163C14.3004 57.9003 13.3384 58.7883 12.1544 59.3803C12.1544 61.3043 11.9324 64.4123 11.4884 68.7043C11.1924 72.8483 10.8224 77.7323 10.3784 83.3563C10.0824 88.9803 9.71235 95.0483 9.26835 101.56C8.97235 108.072 8.82435 114.584 8.82435 121.096C8.82435 126.276 8.97235 131.382 9.26835 136.414C9.56435 141.446 10.0824 146.108 10.8224 150.4C10.5264 150.696 10.1564 151.066 9.71235 151.51C9.26835 151.806 9.04635 152.176 9.04635 152.62C5.64235 151.584 3.34835 149.586 2.16435 146.626C1.12835 143.666 0.610352 140.336 0.610352 136.636C0.610352 134.268 0.832352 129.31 1.27635 121.762C1.72035 114.214 2.23835 105.26 2.83035 94.9003C3.42235 84.5403 3.94035 73.4403 4.38435 61.6003C4.82835 49.7603 5.05035 38.3643 5.05035 27.4123C5.05035 23.2683 5.05035 19.2723 5.05035 15.4243C5.05035 11.5763 4.90235 7.9503 4.60635 4.5463C5.19835 3.80629 6.08635 2.99229 7.27035 2.10429C8.45435 1.21629 9.56435 0.772296 10.6004 0.772296L13.4864 44.9503Z"/>
</mask>
<path d="M13.4864 44.9503C18.6664 38.2903 23.9944 32.0003 29.4704 26.0803C35.0944 20.0123 40.2744 13.2783 45.0104 5.8783C46.0464 4.5463 47.2304 3.4363 48.5624 2.5483C49.8944 1.51229 51.3744 0.994293 53.0024 0.994293C54.1864 0.994293 55.1484 1.80829 55.8884 3.43629C56.7764 5.06429 57.2944 6.9143 57.4424 8.9863C56.4064 31.9263 55.8144 54.8663 55.6664 77.8063C55.6664 100.746 55.2224 123.908 54.3344 147.292C53.5944 148.328 53.0764 149.512 52.7804 150.844C52.6324 152.028 51.8184 152.916 50.3384 153.508C49.4504 153.36 48.7844 152.99 48.3404 152.398C48.0444 151.658 47.8224 150.918 47.6744 150.178C47.5264 149.438 47.2304 148.772 46.7864 148.18C46.4904 147.44 45.8984 146.848 45.0104 146.404C45.0104 142.704 45.1584 137.524 45.4544 130.864C45.8984 124.204 46.2684 116.73 46.5644 108.442C47.0084 100.154 47.3784 91.3483 47.6744 82.0243C48.1184 72.7003 48.3404 63.4503 48.3404 54.2743C48.3404 48.6503 48.1924 43.2483 47.8964 38.0683C47.7484 32.7403 47.5264 27.7083 47.2304 22.9723C46.4904 22.0843 45.8244 21.6403 45.2324 21.6403C44.3444 21.6403 43.4564 22.0103 42.5684 22.7503C41.6804 23.4903 40.7184 23.9343 39.6824 24.0823C36.1304 27.9303 32.8744 31.9263 29.9144 36.0703C26.9544 40.0663 23.3284 43.6183 19.0364 46.7263C18.7404 47.1703 18.4444 47.9843 18.1484 49.1683C17.8524 50.2043 17.4084 51.3883 16.8164 52.7203C16.3724 54.0523 15.7804 55.3843 15.0404 56.7163C14.3004 57.9003 13.3384 58.7883 12.1544 59.3803C12.1544 61.3043 11.9324 64.4123 11.4884 68.7043C11.1924 72.8483 10.8224 77.7323 10.3784 83.3563C10.0824 88.9803 9.71235 95.0483 9.26835 101.56C8.97235 108.072 8.82435 114.584 8.82435 121.096C8.82435 126.276 8.97235 131.382 9.26835 136.414C9.56435 141.446 10.0824 146.108 10.8224 150.4C10.5264 150.696 10.1564 151.066 9.71235 151.51C9.26835 151.806 9.04635 152.176 9.04635 152.62C5.64235 151.584 3.34835 149.586 2.16435 146.626C1.12835 143.666 0.610352 140.336 0.610352 136.636C0.610352 134.268 0.832352 129.31 1.27635 121.762C1.72035 114.214 2.23835 105.26 2.83035 94.9003C3.42235 84.5403 3.94035 73.4403 4.38435 61.6003C4.82835 49.7603 5.05035 38.3643 5.05035 27.4123C5.05035 23.2683 5.05035 19.2723 5.05035 15.4243C5.05035 11.5763 4.90235 7.9503 4.60635 4.5463C5.19835 3.80629 6.08635 2.99229 7.27035 2.10429C8.45435 1.21629 9.56435 0.772296 10.6004 0.772296L13.4864 44.9503Z" fill="#F0F0F0"/>
<path d="M13.4864 44.9503L12.1039 45.0406L12.3415 48.6788L14.58 45.8009L13.4864 44.9503ZM29.4704 26.0803L28.4542 25.1385L28.4533 25.1395L29.4704 26.0803ZM45.0104 5.8783L43.9168 5.02772L43.8777 5.07791L43.8434 5.13147L45.0104 5.8783ZM48.5624 2.5483L49.3309 3.70105L49.373 3.67297L49.4129 3.6419L48.5624 2.5483ZM55.8884 3.43629L54.6271 4.00959L54.648 4.05546L54.6721 4.09971L55.8884 3.43629ZM57.4424 8.9863L58.8264 9.0488L58.83 8.96813L58.8243 8.88759L57.4424 8.9863ZM55.6664 77.8063L54.2809 77.7974V77.8063H55.6664ZM54.3344 147.292L55.4617 148.098L55.703 147.76L55.7188 147.345L54.3344 147.292ZM52.7804 150.844L51.4279 150.544L51.4137 150.608L51.4056 150.672L52.7804 150.844ZM50.3384 153.508L50.1106 154.875L50.493 154.939L50.8529 154.795L50.3384 153.508ZM48.3404 152.398L47.054 152.913L47.1221 153.083L47.232 153.23L48.3404 152.398ZM47.6744 150.178L46.3158 150.45L47.6744 150.178ZM46.7864 148.18L45.5 148.695L45.5681 148.865L45.678 149.012L46.7864 148.18ZM45.0104 146.404H43.6249V147.261L44.3908 147.643L45.0104 146.404ZM45.4544 130.864L44.072 130.772L44.071 130.787L44.0703 130.803L45.4544 130.864ZM46.5644 108.442L45.1809 108.368L45.1802 108.381L45.1798 108.393L46.5644 108.442ZM47.6744 82.0243L46.2905 81.9584L46.29 81.9694L46.2896 81.9803L47.6744 82.0243ZM47.8964 38.0683L46.5115 38.1068L46.512 38.1271L46.5132 38.1473L47.8964 38.0683ZM47.2304 22.9723L48.6131 22.8859L48.5848 22.4335L48.2947 22.0854L47.2304 22.9723ZM39.6824 24.0823L39.4864 22.7108L38.9986 22.7805L38.6643 23.1426L39.6824 24.0823ZM29.9144 36.0703L31.0276 36.8949L31.0348 36.8853L31.0417 36.8756L29.9144 36.0703ZM19.0364 46.7263L18.2238 45.6042L18.0219 45.7504L17.8836 45.9578L19.0364 46.7263ZM18.1484 49.1683L19.4805 49.5489L19.4868 49.5267L19.4924 49.5043L18.1484 49.1683ZM16.8164 52.7203L15.5503 52.1576L15.5232 52.2187L15.502 52.2822L16.8164 52.7203ZM15.0404 56.7163L16.2152 57.4506L16.2341 57.4203L16.2514 57.3891L15.0404 56.7163ZM12.1544 59.3803L11.5348 58.1411L10.7689 58.524V59.3803H12.1544ZM11.4884 68.7043L10.1103 68.5617L10.108 68.5836L10.1064 68.6056L11.4884 68.7043ZM10.3784 83.3563L8.99721 83.2473L8.99578 83.2654L8.99483 83.2835L10.3784 83.3563ZM9.26835 101.56L7.88612 101.466L7.88506 101.482L7.88434 101.497L9.26835 101.56ZM9.26835 136.414L10.6514 136.333L9.26835 136.414ZM10.8224 150.4L11.802 151.38L12.3096 150.872L12.1876 150.165L10.8224 150.4ZM9.71235 151.51L10.4809 152.663L10.595 152.587L10.692 152.49L9.71235 151.51ZM9.04635 152.62L8.64297 153.946L10.4318 154.49V152.62H9.04635ZM2.16435 146.626L0.856695 147.084L0.866727 147.113L0.878005 147.141L2.16435 146.626ZM2.83035 94.9003L4.21353 94.9793L2.83035 94.9003ZM4.38435 61.6003L2.99989 61.5484L4.38435 61.6003ZM4.60635 4.5463L3.5245 3.68083L3.17808 4.11386L3.22612 4.66632L4.60635 4.5463ZM7.27035 2.10429L6.43909 0.99594L7.27035 2.10429ZM10.6004 0.772295L11.9828 0.681982L11.8982 -0.613142H10.6004V0.772295ZM14.58 45.8009C19.7368 39.1706 25.0394 32.9108 30.4874 27.0211L28.4533 25.1395C22.9493 31.0898 17.5959 37.41 12.3928 44.0997L14.58 45.8009ZM30.4865 27.0221C36.1698 20.8901 41.3996 14.0902 46.1773 6.62512L43.8434 5.13147C39.1491 12.4664 34.0189 19.1345 28.4542 25.1385L30.4865 27.0221ZM46.104 6.72887C47.0535 5.50802 48.1293 4.50207 49.3309 3.70105L47.7938 1.39555C46.3314 2.37052 45.0392 3.58457 43.9168 5.02772L46.104 6.72887ZM49.4129 3.6419C50.5113 2.7876 51.6944 2.37973 53.0024 2.37973V-0.391145C51.0544 -0.391145 49.2774 0.236994 47.7118 1.4547L49.4129 3.6419ZM53.0024 2.37973C53.3867 2.37973 53.982 2.59027 54.6271 4.00959L57.1496 2.86299C56.3148 1.02631 54.986 -0.391145 53.0024 -0.391145V2.37973ZM54.6721 4.09971C55.4542 5.53365 55.9249 7.18705 56.0604 9.085L58.8243 8.88759C58.6638 6.64155 58.0985 4.59494 57.1046 2.77287L54.6721 4.09971ZM56.0583 8.92379C55.0215 31.8816 54.4291 54.8395 54.2809 77.7974L57.0518 77.8152C57.1996 54.8931 57.7912 31.971 58.8264 9.0488L56.0583 8.92379ZM54.2809 77.8063C54.2809 100.728 53.8373 123.873 52.9499 147.24L55.7188 147.345C56.6074 123.944 57.0518 100.764 57.0518 77.8063H54.2809ZM53.207 146.487C52.3512 147.685 51.7613 149.043 51.4279 150.544L54.1328 151.145C54.3914 149.981 54.8375 148.972 55.4617 148.098L53.207 146.487ZM51.4056 150.672C51.341 151.189 51.016 151.745 49.8238 152.222L50.8529 154.795C52.6207 154.088 53.9237 152.867 54.1551 151.016L51.4056 150.672ZM50.5661 152.142C49.949 152.039 49.6345 151.815 49.4487 151.567L47.232 153.23C47.9342 154.166 48.9517 154.682 50.1106 154.875L50.5661 152.142ZM49.6267 151.884C49.3604 151.218 49.1634 150.559 49.0329 149.907L46.3158 150.45C46.4813 151.277 46.7283 152.099 47.054 152.913L49.6267 151.884ZM49.0329 149.907C48.8451 148.968 48.4653 148.11 47.8947 147.349L45.678 149.012C45.9954 149.435 46.2076 149.909 46.3158 150.45L49.0329 149.907ZM48.0727 147.666C47.6218 146.539 46.744 145.722 45.6299 145.165L44.3908 147.643C45.0528 147.974 45.3589 148.342 45.5 148.695L48.0727 147.666ZM46.3958 146.404C46.3958 142.735 46.5427 137.579 46.8384 130.926L44.0703 130.803C43.774 137.47 43.6249 142.674 43.6249 146.404H46.3958ZM46.8367 130.956C47.2819 124.279 47.6525 116.791 47.9489 108.492L45.1798 108.393C44.8842 116.67 44.5148 124.129 44.072 130.772L46.8367 130.956ZM47.9478 108.516C48.3924 100.217 48.7628 91.4011 49.0591 82.0683L46.2896 81.9803C45.9939 91.2955 45.6243 100.091 45.1809 108.368L47.9478 108.516ZM49.0582 82.0902C49.5033 72.7446 49.7258 63.4726 49.7258 54.2743H46.9549C46.9549 63.4279 46.7335 72.656 46.2905 81.9584L49.0582 82.0902ZM49.7258 54.2743C49.7258 48.6261 49.5772 43.1977 49.2795 37.9893L46.5132 38.1473C46.8075 43.2989 46.9549 48.6745 46.9549 54.2743H49.7258ZM49.2813 38.0298C49.1329 32.6877 48.9102 27.6396 48.6131 22.8859L45.8476 23.0587C46.1425 27.7769 46.3638 32.7928 46.5115 38.1068L49.2813 38.0298ZM48.2947 22.0854C47.5179 21.1532 46.4914 20.2549 45.2324 20.2549V23.0257C45.174 23.0257 45.2238 23.0037 45.4073 23.126C45.5923 23.2493 45.847 23.4764 46.166 23.8592L48.2947 22.0854ZM45.2324 20.2549C43.9332 20.2549 42.7422 20.802 41.6814 21.686L43.4553 23.8146C44.1705 23.2186 44.7555 23.0257 45.2324 23.0257V20.2549ZM41.6814 21.686C40.9695 22.2792 40.2419 22.6029 39.4864 22.7108L39.8783 25.4538C41.1948 25.2657 42.3912 24.7014 43.4553 23.8146L41.6814 21.686ZM38.6643 23.1426C35.0742 27.0319 31.7815 31.0727 28.787 35.265L31.0417 36.8756C33.9672 32.7799 37.1865 28.8287 40.7004 25.022L38.6643 23.1426ZM28.8011 35.2456C25.9309 39.1204 22.4085 42.5739 18.2238 45.6042L19.8489 47.8484C24.2483 44.6627 27.9778 41.0122 31.0276 36.8949L28.8011 35.2456ZM17.8836 45.9578C17.4429 46.6188 17.102 47.6414 16.8043 48.8323L19.4924 49.5043C19.7867 48.3272 20.0378 47.7218 20.1891 47.4948L17.8836 45.9578ZM16.8162 48.7877C16.5429 49.7442 16.1246 50.8656 15.5503 52.1576L18.0824 53.283C18.6921 51.911 19.1618 50.6644 19.4805 49.5489L16.8162 48.7877ZM15.502 52.2822C15.0873 53.5264 14.5312 54.7801 13.8293 56.0435L16.2514 57.3891C17.0295 55.9885 17.6574 54.5782 18.1307 53.1584L15.502 52.2822ZM13.8655 55.982C13.2529 56.9622 12.4781 57.6695 11.5348 58.1411L12.7739 60.6195C14.1986 59.9071 15.3478 58.8384 16.2152 57.4506L13.8655 55.982ZM10.7689 59.3803C10.7689 61.2271 10.5539 64.2738 10.1103 68.5617L12.8664 68.8469C13.3109 64.5508 13.5398 61.3815 13.5398 59.3803H10.7689ZM10.1064 68.6056C9.81075 72.7452 9.44103 77.6256 8.99721 83.2473L11.7595 83.4653C12.2037 77.839 12.574 72.9514 12.8703 68.803L10.1064 68.6056ZM8.99483 83.2835C8.69926 88.8993 8.32971 94.9601 7.88612 101.466L10.6506 101.655C11.095 95.1365 11.4654 89.0613 11.7619 83.4291L8.99483 83.2835ZM7.88434 101.497C7.58739 108.03 7.43891 114.563 7.43891 121.096H10.2098C10.2098 114.605 10.3573 108.114 10.6524 101.623L7.88434 101.497ZM7.43891 121.096C7.43891 126.303 7.58767 131.436 7.8853 136.496L10.6514 136.333C10.357 131.329 10.2098 126.25 10.2098 121.096H7.43891ZM7.8853 136.496C8.18388 141.571 8.70703 146.286 9.45706 150.636L12.1876 150.165C11.4577 145.931 10.9448 141.321 10.6514 136.333L7.8853 136.496ZM9.8427 149.421C9.5467 149.717 9.1767 150.087 8.7327 150.531L10.692 152.49C11.136 152.046 11.506 151.676 11.802 151.38L9.8427 149.421ZM8.94385 150.358C8.20376 150.851 7.66091 151.615 7.66091 152.62H10.4318C10.4318 152.626 10.4309 152.643 10.4246 152.666C10.4182 152.689 10.4091 152.709 10.4009 152.723C10.3844 152.75 10.3901 152.724 10.4809 152.663L8.94385 150.358ZM9.44974 151.295C6.39481 150.365 4.45913 148.633 3.4507 146.112L0.878005 147.141C2.23758 150.54 4.8899 152.803 8.64297 153.946L9.44974 151.295ZM3.47201 146.169C2.49581 143.379 1.99579 140.208 1.99579 136.636H-0.775086C-0.775086 140.465 -0.239109 143.953 0.856695 147.084L3.47201 146.169ZM1.99579 136.636C1.99579 134.316 2.21489 129.4 2.6594 121.844L-0.106695 121.681C-0.550185 129.22 -0.775086 134.22 -0.775086 136.636H1.99579ZM2.6594 121.844C3.10346 114.295 3.6215 105.34 4.21353 94.9793L1.44717 94.8213C0.8552 105.181 0.337246 114.134 -0.106695 121.681L2.6594 121.844ZM4.21353 94.9793C4.80612 84.6091 5.32452 73.5 5.76882 61.6522L2.99989 61.5484C2.55618 73.3806 2.03859 84.4715 1.44717 94.8213L4.21353 94.9793ZM5.76882 61.6522C6.21341 49.7963 6.43579 38.3829 6.43579 27.4123H3.66491C3.66491 38.3457 3.44329 49.7243 2.99989 61.5484L5.76882 61.6522ZM6.43579 27.4123C6.43579 27.4042 6.43579 27.3961 6.43579 27.388C6.43579 27.3799 6.43579 27.3718 6.43579 27.3637C6.43579 27.3556 6.43579 27.3476 6.43579 27.3395C6.43579 27.3314 6.43579 27.3233 6.43579 27.3152C6.43579 27.3071 6.43579 27.299 6.43579 27.2909C6.43579 27.2828 6.43579 27.2748 6.43579 27.2667C6.43579 27.2586 6.43579 27.2505 6.43579 27.2424C6.43579 27.2343 6.43579 27.2262 6.43579 27.2182C6.43579 27.2101 6.43579 27.202 6.43579 27.1939C6.43579 27.1858 6.43579 27.1777 6.43579 27.1697C6.43579 27.1616 6.43579 27.1535 6.43579 27.1454C6.43579 27.1373 6.43579 27.1292 6.43579 27.1212C6.43579 27.1131 6.43579 27.105 6.43579 27.0969C6.43579 27.0888 6.43579 27.0808 6.43579 27.0727C6.43579 27.0646 6.43579 27.0565 6.43579 27.0485C6.43579 27.0404 6.43579 27.0323 6.43579 27.0242C6.43579 27.0162 6.43579 27.0081 6.43579 27C6.43579 26.9919 6.43579 26.9839 6.43579 26.9758C6.43579 26.9677 6.43579 26.9596 6.43579 26.9516C6.43579 26.9435 6.43579 26.9354 6.43579 26.9273C6.43579 26.9193 6.43579 26.9112 6.43579 26.9031C6.43579 26.8951 6.43579 26.887 6.43579 26.8789C6.43579 26.8709 6.43579 26.8628 6.43579 26.8547C6.43579 26.8467 6.43579 26.8386 6.43579 26.8305C6.43579 26.8225 6.43579 26.8144 6.43579 26.8063C6.43579 26.7983 6.43579 26.7902 6.43579 26.7821C6.43579 26.7741 6.43579 26.766 6.43579 26.7579C6.43579 26.7499 6.43579 26.7418 6.43579 26.7337C6.43579 26.7257 6.43579 26.7176 6.43579 26.7096C6.43579 26.7015 6.43579 26.6934 6.43579 26.6854C6.43579 26.6773 6.43579 26.6693 6.43579 26.6612C6.43579 26.6531 6.43579 26.6451 6.43579 26.637C6.43579 26.629 6.43579 26.6209 6.43579 26.6129C6.43579 26.6048 6.43579 26.5967 6.43579 26.5887C6.43579 26.5806 6.43579 26.5726 6.43579 26.5645C6.43579 26.5565 6.43579 26.5484 6.43579 26.5404C6.43579 26.5323 6.43579 26.5243 6.43579 26.5162C6.43579 26.5082 6.43579 26.5001 6.43579 26.4921C6.43579 26.484 6.43579 26.476 6.43579 26.4679C6.43579 26.4599 6.43579 26.4518 6.43579 26.4438C6.43579 26.4357 6.43579 26.4277 6.43579 26.4196C6.43579 26.4116 6.43579 26.4035 6.43579 26.3955C6.43579 26.3874 6.43579 26.3794 6.43579 26.3713C6.43579 26.3633 6.43579 26.3552 6.43579 26.3472C6.43579 26.3392 6.43579 26.3311 6.43579 26.3231C6.43579 26.315 6.43579 26.307 6.43579 26.2989C6.43579 26.2909 6.43579 26.2829 6.43579 26.2748C6.43579 26.2668 6.43579 26.2587 6.43579 26.2507C6.43579 26.2427 6.43579 26.2346 6.43579 26.2266C6.43579 26.2185 6.43579 26.2105 6.43579 26.2025C6.43579 26.1944 6.43579 26.1864 6.43579 26.1784C6.43579 26.1703 6.43579 26.1623 6.43579 26.1543C6.43579 26.1462 6.43579 26.1382 6.43579 26.1301C6.43579 26.1221 6.43579 26.1141 6.43579 26.106C6.43579 26.098 6.43579 26.09 6.43579 26.082C6.43579 26.0739 6.43579 26.0659 6.43579 26.0579C6.43579 26.0498 6.43579 26.0418 6.43579 26.0338C6.43579 26.0257 6.43579 26.0177 6.43579 26.0097C6.43579 26.0017 6.43579 25.9936 6.43579 25.9856C6.43579 25.9776 6.43579 25.9695 6.43579 25.9615C6.43579 25.9535 6.43579 25.9455 6.43579 25.9374C6.43579 25.9294 6.43579 25.9214 6.43579 25.9134C6.43579 25.9053 6.43579 25.8973 6.43579 25.8893C6.43579 25.8813 6.43579 25.8733 6.43579 25.8652C6.43579 25.8572 6.43579 25.8492 6.43579 25.8412C6.43579 25.8332 6.43579 25.8251 6.43579 25.8171C6.43579 25.8091 6.43579 25.8011 6.43579 25.7931C6.43579 25.785 6.43579 25.777 6.43579 25.769C6.43579 25.761 6.43579 25.753 6.43579 25.745C6.43579 25.7369 6.43579 25.7289 6.43579 25.7209C6.43579 25.7129 6.43579 25.7049 6.43579 25.6969C6.43579 25.6889 6.43579 25.6808 6.43579 25.6728C6.43579 25.6648 6.43579 25.6568 6.43579 25.6488C6.43579 25.6408 6.43579 25.6328 6.43579 25.6248C6.43579 25.6167 6.43579 25.6087 6.43579 25.6007C6.43579 25.5927 6.43579 25.5847 6.43579 25.5767C6.43579 25.5687 6.43579 25.5607 6.43579 25.5527C6.43579 25.5447 6.43579 25.5367 6.43579 25.5287C6.43579 25.5207 6.43579 25.5127 6.43579 25.5046C6.43579 25.4966 6.43579 25.4886 6.43579 25.4806C6.43579 25.4726 6.43579 25.4646 6.43579 25.4566C6.43579 25.4486 6.43579 25.4406 6.43579 25.4326C6.43579 25.4246 6.43579 25.4166 6.43579 25.4086C6.43579 25.4006 6.43579 25.3926 6.43579 25.3846C6.43579 25.3766 6.43579 25.3686 6.43579 25.3606C6.43579 25.3526 6.43579 25.3446 6.43579 25.3366C6.43579 25.3286 6.43579 25.3206 6.43579 25.3126C6.43579 25.3047 6.43579 25.2967 6.43579 25.2887C6.43579 25.2807 6.43579 25.2727 6.43579 25.2647C6.43579 25.2567 6.43579 25.2487 6.43579 25.2407C6.43579 25.2327 6.43579 25.2247 6.43579 25.2167C6.43579 25.2087 6.43579 25.2007 6.43579 25.1928C6.43579 25.1848 6.43579 25.1768 6.43579 25.1688C6.43579 25.1608 6.43579 25.1528 6.43579 25.1448C6.43579 25.1368 6.43579 25.1289 6.43579 25.1209C6.43579 25.1129 6.43579 25.1049 6.43579 25.0969C6.43579 25.0889 6.43579 25.0809 6.43579 25.073C6.43579 25.065 6.43579 25.057 6.43579 25.049C6.43579 25.041 6.43579 25.033 6.43579 25.0251C6.43579 25.0171 6.43579 25.0091 6.43579 25.0011C6.43579 24.9931 6.43579 24.9851 6.43579 24.9772C6.43579 24.9692 6.43579 24.9612 6.43579 24.9532C6.43579 24.9453 6.43579 24.9373 6.43579 24.9293C6.43579 24.9213 6.43579 24.9133 6.43579 24.9054C6.43579 24.8974 6.43579 24.8894 6.43579 24.8814C6.43579 24.8735 6.43579 24.8655 6.43579 24.8575C6.43579 24.8495 6.43579 24.8416 6.43579 24.8336C6.43579 24.8256 6.43579 24.8176 6.43579 24.8097C6.43579 24.8017 6.43579 24.7937 6.43579 24.7858C6.43579 24.7778 6.43579 24.7698 6.43579 24.7619C6.43579 24.7539 6.43579 24.7459 6.43579 24.7379C6.43579 24.73 6.43579 24.722 6.43579 24.714C6.43579 24.7061 6.43579 24.6981 6.43579 24.6901C6.43579 24.6822 6.43579 24.6742 6.43579 24.6662C6.43579 24.6583 6.43579 24.6503 6.43579 24.6424C6.43579 24.6344 6.43579 24.6264 6.43579 24.6185C6.43579 24.6105 6.43579 24.6025 6.43579 24.5946C6.43579 24.5866 6.43579 24.5787 6.43579 24.5707C6.43579 24.5627 6.43579 24.5548 6.43579 24.5468C6.43579 24.5389 6.43579 24.5309 6.43579 24.5229C6.43579 24.515 6.43579 24.507 6.43579 24.4991C6.43579 24.4911 6.43579 24.4832 6.43579 24.4752C6.43579 24.4672 6.43579 24.4593 6.43579 24.4513C6.43579 24.4434 6.43579 24.4354 6.43579 24.4275C6.43579 24.4195 6.43579 24.4116 6.43579 24.4036C6.43579 24.3957 6.43579 24.3877 6.43579 24.3797C6.43579 24.3718 6.43579 24.3638 6.43579 24.3559C6.43579 24.3479 6.43579 24.34 6.43579 24.332C6.43579 24.3241 6.43579 24.3161 6.43579 24.3082C6.43579 24.3003 6.43579 24.2923 6.43579 24.2844C6.43579 24.2764 6.43579 24.2685 6.43579 24.2605C6.43579 24.2526 6.43579 24.2446 6.43579 24.2367C6.43579 24.2287 6.43579 24.2208 6.43579 24.2129C6.43579 24.2049 6.43579 24.197 6.43579 24.189C6.43579 24.1811 6.43579 24.1731 6.43579 24.1652C6.43579 24.1573 6.43579 24.1493 6.43579 24.1414C6.43579 24.1334 6.43579 24.1255 6.43579 24.1176C6.43579 24.1096 6.43579 24.1017 6.43579 24.0937C6.43579 24.0858 6.43579 24.0779 6.43579 24.0699C6.43579 24.062 6.43579 24.0541 6.43579 24.0461C6.43579 24.0382 6.43579 24.0302 6.43579 24.0223C6.43579 24.0144 6.43579 24.0064 6.43579 23.9985C6.43579 23.9906 6.43579 23.9826 6.43579 23.9747C6.43579 23.9668 6.43579 23.9588 6.43579 23.9509C6.43579 23.943 6.43579 23.9351 6.43579 23.9271C6.43579 23.9192 6.43579 23.9113 6.43579 23.9033C6.43579 23.8954 6.43579 23.8875 6.43579 23.8796C6.43579 23.8716 6.43579 23.8637 6.43579 23.8558C6.43579 23.8478 6.43579 23.8399 6.43579 23.832C6.43579 23.8241 6.43579 23.8161 6.43579 23.8082C6.43579 23.8003 6.43579 23.7924 6.43579 23.7844C6.43579 23.7765 6.43579 23.7686 6.43579 23.7607C6.43579 23.7528 6.43579 23.7448 6.43579 23.7369C6.43579 23.729 6.43579 23.7211 6.43579 23.7132C6.43579 23.7052 6.43579 23.6973 6.43579 23.6894C6.43579 23.6815 6.43579 23.6736 6.43579 23.6656C6.43579 23.6577 6.43579 23.6498 6.43579 23.6419C6.43579 23.634 6.43579 23.6261 6.43579 23.6181C6.43579 23.6102 6.43579 23.6023 6.43579 23.5944C6.43579 23.5865 6.43579 23.5786 6.43579 23.5707C6.43579 23.5627 6.43579 23.5548 6.43579 23.5469C6.43579 23.539 6.43579 23.5311 6.43579 23.5232C6.43579 23.5153 6.43579 23.5074 6.43579 23.4995C6.43579 23.4915 6.43579 23.4836 6.43579 23.4757C6.43579 23.4678 6.43579 23.4599 6.43579 23.452C6.43579 23.4441 6.43579 23.4362 6.43579 23.4283C6.43579 23.4204 6.43579 23.4125 6.43579 23.4046C6.43579 23.3967 6.43579 23.3888 6.43579 23.3808C6.43579 23.3729 6.43579 23.365 6.43579 23.3571C6.43579 23.3492 6.43579 23.3413 6.43579 23.3334C6.43579 23.3255 6.43579 23.3176 6.43579 23.3097C6.43579 23.3018 6.43579 23.2939 6.43579 23.286C6.43579 23.2781 6.43579 23.2702 6.43579 23.2623C6.43579 23.2544 6.43579 23.2465 6.43579 23.2386C6.43579 23.2307 6.43579 23.2228 6.43579 23.2149C6.43579 23.2071 6.43579 23.1992 6.43579 23.1913C6.43579 23.1834 6.43579 23.1755 6.43579 23.1676C6.43579 23.1597 6.43579 23.1518 6.43579 23.1439C6.43579 23.136 6.43579 23.1281 6.43579 23.1202C6.43579 23.1123 6.43579 23.1044 6.43579 23.0965C6.43579 23.0887 6.43579 23.0808 6.43579 23.0729C6.43579 23.065 6.43579 23.0571 6.43579 23.0492C6.43579 23.0413 6.43579 23.0334 6.43579 23.0255C6.43579 23.0177 6.43579 23.0098 6.43579 23.0019C6.43579 22.994 6.43579 22.9861 6.43579 22.9782C6.43579 22.9703 6.43579 22.9625 6.43579 22.9546C6.43579 22.9467 6.43579 22.9388 6.43579 22.9309C6.43579 22.923 6.43579 22.9152 6.43579 22.9073C6.43579 22.8994 6.43579 22.8915 6.43579 22.8836C6.43579 22.8758 6.43579 22.8679 6.43579 22.86C6.43579 22.8521 6.43579 22.8442 6.43579 22.8364C6.43579 22.8285 6.43579 22.8206 6.43579 22.8127C6.43579 22.8049 6.43579 22.797 6.43579 22.7891C6.43579 22.7812 6.43579 22.7734 6.43579 22.7655C6.43579 22.7576 6.43579 22.7497 6.43579 22.7419C6.43579 22.734 6.43579 22.7261 6.43579 22.7182C6.43579 22.7104 6.43579 22.7025 6.43579 22.6946C6.43579 22.6868 6.43579 22.6789 6.43579 22.671C6.43579 22.6631 6.43579 22.6553 6.43579 22.6474C6.43579 22.6395 6.43579 22.6317 6.43579 22.6238C6.43579 22.6159 6.43579 22.6081 6.43579 22.6002C6.43579 22.5923 6.43579 22.5845 6.43579 22.5766C6.43579 22.5687 6.43579 22.5609 6.43579 22.553C6.43579 22.5451 6.43579 22.5373 6.43579 22.5294C6.43579 22.5215 6.43579 22.5137 6.43579 22.5058C6.43579 22.498 6.43579 22.4901 6.43579 22.4822C6.43579 22.4744 6.43579 22.4665 6.43579 22.4587C6.43579 22.4508 6.43579 22.4429 6.43579 22.4351C6.43579 22.4272 6.43579 22.4194 6.43579 22.4115C6.43579 22.4036 6.43579 22.3958 6.43579 22.3879C6.43579 22.3801 6.43579 22.3722 6.43579 22.3644C6.43579 22.3565 6.43579 22.3486 6.43579 22.3408C6.43579 22.3329 6.43579 22.3251 6.43579 22.3172C6.43579 22.3094 6.43579 22.3015 6.43579 22.2937C6.43579 22.2858 6.43579 22.278 6.43579 22.2701C6.43579 22.2623 6.43579 22.2544 6.43579 22.2466C6.43579 22.2387 6.43579 22.2309 6.43579 22.223C6.43579 22.2152 6.43579 22.2073 6.43579 22.1995C6.43579 22.1916 6.43579 22.1838 6.43579 22.1759C6.43579 22.1681 6.43579 22.1602 6.43579 22.1524C6.43579 22.1446 6.43579 22.1367 6.43579 22.1289C6.43579 22.121 6.43579 22.1132 6.43579 22.1053C6.43579 22.0975 6.43579 22.0896 6.43579 22.0818C6.43579 22.074 6.43579 22.0661 6.43579 22.0583C6.43579 22.0504 6.43579 22.0426 6.43579 22.0348C6.43579 22.0269 6.43579 22.0191 6.43579 22.0112C6.43579 22.0034 6.43579 21.9956 6.43579 21.9877C6.43579 21.9799 6.43579 21.9721 6.43579 21.9642C6.43579 21.9564 6.43579 21.9485 6.43579 21.9407C6.43579 21.9329 6.43579 21.925 6.43579 21.9172C6.43579 21.9094 6.43579 21.9015 6.43579 21.8937C6.43579 21.8859 6.43579 21.878 6.43579 21.8702C6.43579 21.8624 6.43579 21.8545 6.43579 21.8467C6.43579 21.8389 6.43579 21.8311 6.43579 21.8232C6.43579 21.8154 6.43579 21.8076 6.43579 21.7997C6.43579 21.7919 6.43579 21.7841 6.43579 21.7763C6.43579 21.7684 6.43579 21.7606 6.43579 21.7528C6.43579 21.7449 6.43579 21.7371 6.43579 21.7293C6.43579 21.7215 6.43579 21.7136 6.43579 21.7058C6.43579 21.698 6.43579 21.6902 6.43579 21.6824C6.43579 21.6745 6.43579 21.6667 6.43579 21.6589C6.43579 21.6511 6.43579 21.6432 6.43579 21.6354C6.43579 21.6276 6.43579 21.6198 6.43579 21.612C6.43579 21.6041 6.43579 21.5963 6.43579 21.5885C6.43579 21.5807 6.43579 21.5729 6.43579 21.5651C6.43579 21.5572 6.43579 21.5494 6.43579 21.5416C6.43579 21.5338 6.43579 21.526 6.43579 21.5182C6.43579 21.5103 6.43579 21.5025 6.43579 21.4947C6.43579 21.4869 6.43579 21.4791 6.43579 21.4713C6.43579 21.4635 6.43579 21.4557 6.43579 21.4478C6.43579 21.44 6.43579 21.4322 6.43579 21.4244C6.43579 21.4166 6.43579 21.4088 6.43579 21.401C6.43579 21.3932 6.43579 21.3854 6.43579 21.3776C6.43579 21.3697 6.43579 21.3619 6.43579 21.3541C6.43579 21.3463 6.43579 21.3385 6.43579 21.3307C6.43579 21.3229 6.43579 21.3151 6.43579 21.3073C6.43579 21.2995 6.43579 21.2917 6.43579 21.2839C6.43579 21.2761 6.43579 21.2683 6.43579 21.2605C6.43579 21.2527 6.43579 21.2449 6.43579 21.2371C6.43579 21.2293 6.43579 21.2215 6.43579 21.2137C6.43579 21.2059 6.43579 21.1981 6.43579 21.1903C6.43579 21.1825 6.43579 21.1747 6.43579 21.1669C6.43579 21.1591 6.43579 21.1513 6.43579 21.1435C6.43579 21.1357 6.43579 21.1279 6.43579 21.1201C6.43579 21.1123 6.43579 21.1045 6.43579 21.0967C6.43579 21.0889 6.43579 21.0811 6.43579 21.0733C6.43579 21.0655 6.43579 21.0577 6.43579 21.0499C6.43579 21.0422 6.43579 21.0344 6.43579 21.0266C6.43579 21.0188 6.43579 21.011 6.43579 21.0032C6.43579 20.9954 6.43579 20.9876 6.43579 20.9798C6.43579 20.972 6.43579 20.9643 6.43579 20.9565C6.43579 20.9487 6.43579 20.9409 6.43579 20.9331C6.43579 20.9253 6.43579 20.9175 6.43579 20.9097C6.43579 20.902 6.43579 20.8942 6.43579 20.8864C6.43579 20.8786 6.43579 20.8708 6.43579 20.863C6.43579 20.8553 6.43579 20.8475 6.43579 20.8397C6.43579 20.8319 6.43579 20.8241 6.43579 20.8163C6.43579 20.8086 6.43579 20.8008 6.43579 20.793C6.43579 20.7852 6.43579 20.7774 6.43579 20.7697C6.43579 20.7619 6.43579 20.7541 6.43579 20.7463C6.43579 20.7386 6.43579 20.7308 6.43579 20.723C6.43579 20.7152 6.43579 20.7075 6.43579 20.6997C6.43579 20.6919 6.43579 20.6841 6.43579 20.6764C6.43579 20.6686 6.43579 20.6608 6.43579 20.653C6.43579 20.6453 6.43579 20.6375 6.43579 20.6297C6.43579 20.6219 6.43579 20.6142 6.43579 20.6064C6.43579 20.5986 6.43579 20.5909 6.43579 20.5831C6.43579 20.5753 6.43579 20.5675 6.43579 20.5598C6.43579 20.552 6.43579 20.5442 6.43579 20.5365C6.43579 20.5287 6.43579 20.5209 6.43579 20.5132C6.43579 20.5054 6.43579 20.4976 6.43579 20.4899C6.43579 20.4821 6.43579 20.4743 6.43579 20.4666C6.43579 20.4588 6.43579 20.4511 6.43579 20.4433C6.43579 20.4355 6.43579 20.4278 6.43579 20.42C6.43579 20.4122 6.43579 20.4045 6.43579 20.3967C6.43579 20.389 6.43579 20.3812 6.43579 20.3734C6.43579 20.3657 6.43579 20.3579 6.43579 20.3502C6.43579 20.3424 6.43579 20.3347 6.43579 20.3269C6.43579 20.3191 6.43579 20.3114 6.43579 20.3036C6.43579 20.2959 6.43579 20.2881 6.43579 20.2804C6.43579 20.2726 6.43579 20.2648 6.43579 20.2571C6.43579 20.2493 6.43579 20.2416 6.43579 20.2338C6.43579 20.2261 6.43579 20.2183 6.43579 20.2106C6.43579 20.2028 6.43579 20.1951 6.43579 20.1873C6.43579 20.1796 6.43579 20.1718 6.43579 20.1641C6.43579 20.1563 6.43579 20.1486 6.43579 20.1408C6.43579 20.1331 6.43579 20.1253 6.43579 20.1176C6.43579 20.1098 6.43579 20.1021 6.43579 20.0943C6.43579 20.0866 6.43579 20.0789 6.43579 20.0711C6.43579 20.0634 6.43579 20.0556 6.43579 20.0479C6.43579 20.0401 6.43579 20.0324 6.43579 20.0246C6.43579 20.0169 6.43579 20.0092 6.43579 20.0014C6.43579 19.9937 6.43579 19.9859 6.43579 19.9782C6.43579 19.9705 6.43579 19.9627 6.43579 19.955C6.43579 19.9472 6.43579 19.9395 6.43579 19.9318C6.43579 19.924 6.43579 19.9163 6.43579 19.9085C6.43579 19.9008 6.43579 19.8931 6.43579 19.8853C6.43579 19.8776 6.43579 19.8699 6.43579 19.8621C6.43579 19.8544 6.43579 19.8467 6.43579 19.8389C6.43579 19.8312 6.43579 19.8235 6.43579 19.8157C6.43579 19.808 6.43579 19.8003 6.43579 19.7925C6.43579 19.7848 6.43579 19.7771 6.43579 19.7693C6.43579 19.7616 6.43579 19.7539 6.43579 19.7462C6.43579 19.7384 6.43579 19.7307 6.43579 19.723C6.43579 19.7152 6.43579 19.7075 6.43579 19.6998C6.43579 19.6921 6.43579 19.6843 6.43579 19.6766C6.43579 19.6689 6.43579 19.6612 6.43579 19.6534C6.43579 19.6457 6.43579 19.638 6.43579 19.6303C6.43579 19.6225 6.43579 19.6148 6.43579 19.6071C6.43579 19.5994 6.43579 19.5917 6.43579 19.5839C6.43579 19.5762 6.43579 19.5685 6.43579 19.5608C6.43579 19.553 6.43579 19.5453 6.43579 19.5376C6.43579 19.5299 6.43579 19.5222 6.43579 19.5145C6.43579 19.5067 6.43579 19.499 6.43579 19.4913C6.43579 19.4836 6.43579 19.4759 6.43579 19.4682C6.43579 19.4604 6.43579 19.4527 6.43579 19.445C6.43579 19.4373 6.43579 19.4296 6.43579 19.4219C6.43579 19.4142 6.43579 19.4064 6.43579 19.3987C6.43579 19.391 6.43579 19.3833 6.43579 19.3756C6.43579 19.3679 6.43579 19.3602 6.43579 19.3525C6.43579 19.3448 6.43579 19.337 6.43579 19.3293C6.43579 19.3216 6.43579 19.3139 6.43579 19.3062C6.43579 19.2985 6.43579 19.2908 6.43579 19.2831C6.43579 19.2754 6.43579 19.2677 6.43579 19.26C6.43579 19.2523 6.43579 19.2446 6.43579 19.2369C6.43579 19.2292 6.43579 19.2215 6.43579 19.2137C6.43579 19.206 6.43579 19.1983 6.43579 19.1906C6.43579 19.1829 6.43579 19.1752 6.43579 19.1675C6.43579 19.1598 6.43579 19.1521 6.43579 19.1444C6.43579 19.1367 6.43579 19.129 6.43579 19.1213C6.43579 19.1136 6.43579 19.1059 6.43579 19.0982C6.43579 19.0905 6.43579 19.0829 6.43579 19.0752C6.43579 19.0675 6.43579 19.0598 6.43579 19.0521C6.43579 19.0444 6.43579 19.0367 6.43579 19.029C6.43579 19.0213 6.43579 19.0136 6.43579 19.0059C6.43579 18.9982 6.43579 18.9905 6.43579 18.9828C6.43579 18.9751 6.43579 18.9674 6.43579 18.9598C6.43579 18.9521 6.43579 18.9444 6.43579 18.9367C6.43579 18.929 6.43579 18.9213 6.43579 18.9136C6.43579 18.9059 6.43579 18.8982 6.43579 18.8906C6.43579 18.8829 6.43579 18.8752 6.43579 18.8675C6.43579 18.8598 6.43579 18.8521 6.43579 18.8444C6.43579 18.8368 6.43579 18.8291 6.43579 18.8214C6.43579 18.8137 6.43579 18.806 6.43579 18.7983C6.43579 18.7906 6.43579 18.783 6.43579 18.7753C6.43579 18.7676 6.43579 18.7599 6.43579 18.7522C6.43579 18.7446 6.43579 18.7369 6.43579 18.7292C6.43579 18.7215 6.43579 18.7138 6.43579 18.7062C6.43579 18.6985 6.43579 18.6908 6.43579 18.6831C6.43579 18.6755 6.43579 18.6678 6.43579 18.6601C6.43579 18.6524 6.43579 18.6448 6.43579 18.6371C6.43579 18.6294 6.43579 18.6217 6.43579 18.6141C6.43579 18.6064 6.43579 18.5987 6.43579 18.591C6.43579 18.5834 6.43579 18.5757 6.43579 18.568C6.43579 18.5603 6.43579 18.5527 6.43579 18.545C6.43579 18.5373 6.43579 18.5297 6.43579 18.522C6.43579 18.5143 6.43579 18.5067 6.43579 18.499C6.43579 18.4913 6.43579 18.4837 6.43579 18.476C6.43579 18.4683 6.43579 18.4607 6.43579 18.453C6.43579 18.4453 6.43579 18.4377 6.43579 18.43C6.43579 18.4223 6.43579 18.4147 6.43579 18.407C6.43579 18.3993 6.43579 18.3917 6.43579 18.384C6.43579 18.3764 6.43579 18.3687 6.43579 18.361C6.43579 18.3534 6.43579 18.3457 6.43579 18.338C6.43579 18.3304 6.43579 18.3227 6.43579 18.3151C6.43579 18.3074 6.43579 18.2997 6.43579 18.2921C6.43579 18.2844 6.43579 18.2768 6.43579 18.2691C6.43579 18.2615 6.43579 18.2538 6.43579 18.2461C6.43579 18.2385 6.43579 18.2308 6.43579 18.2232C6.43579 18.2155 6.43579 18.2079 6.43579 18.2002C6.43579 18.1926 6.43579 18.1849 6.43579 18.1773C6.43579 18.1696 6.43579 18.162 6.43579 18.1543C6.43579 18.1467 6.43579 18.139 6.43579 18.1314C6.43579 18.1237 6.43579 18.1161 6.43579 18.1084C6.43579 18.1008 6.43579 18.0931 6.43579 18.0855C6.43579 18.0778 6.43579 18.0702 6.43579 18.0625C6.43579 18.0549 6.43579 18.0472 6.43579 18.0396C6.43579 18.0319 6.43579 18.0243 6.43579 18.0166C6.43579 18.009 6.43579 18.0014 6.43579 17.9937C6.43579 17.9861 6.43579 17.9784 6.43579 17.9708C6.43579 17.9631 6.43579 17.9555 6.43579 17.9479C6.43579 17.9402 6.43579 17.9326 6.43579 17.9249C6.43579 17.9173 6.43579 17.9097 6.43579 17.902C6.43579 17.8944 6.43579 17.8867 6.43579 17.8791C6.43579 17.8715 6.43579 17.8638 6.43579 17.8562C6.43579 17.8486 6.43579 17.8409 6.43579 17.8333C6.43579 17.8257 6.43579 17.818 6.43579 17.8104C6.43579 17.8028 6.43579 17.7951 6.43579 17.7875C6.43579 17.7799 6.43579 17.7722 6.43579 17.7646C6.43579 17.757 6.43579 17.7493 6.43579 17.7417C6.43579 17.7341 6.43579 17.7264 6.43579 17.7188C6.43579 17.7112 6.43579 17.7035 6.43579 17.6959C6.43579 17.6883 6.43579 17.6807 6.43579 17.673C6.43579 17.6654 6.43579 17.6578 6.43579 17.6502C6.43579 17.6425 6.43579 17.6349 6.43579 17.6273C6.43579 17.6197 6.43579 17.612 6.43579 17.6044C6.43579 17.5968 6.43579 17.5892 6.43579 17.5815C6.43579 17.5739 6.43579 17.5663 6.43579 17.5587C6.43579 17.551 6.43579 17.5434 6.43579 17.5358C6.43579 17.5282 6.43579 17.5206 6.43579 17.5129C6.43579 17.5053 6.43579 17.4977 6.43579 17.4901C6.43579 17.4825 6.43579 17.4748 6.43579 17.4672C6.43579 17.4596 6.43579 17.452 6.43579 17.4444C6.43579 17.4368 6.43579 17.4291 6.43579 17.4215C6.43579 17.4139 6.43579 17.4063 6.43579 17.3987C6.43579 17.3911 6.43579 17.3835 6.43579 17.3759C6.43579 17.3682 6.43579 17.3606 6.43579 17.353C6.43579 17.3454 6.43579 17.3378 6.43579 17.3302C6.43579 17.3226 6.43579 17.315 6.43579 17.3074C6.43579 17.2997 6.43579 17.2921 6.43579 17.2845C6.43579 17.2769 6.43579 17.2693 6.43579 17.2617C6.43579 17.2541 6.43579 17.2465 6.43579 17.2389C6.43579 17.2313 6.43579 17.2237 6.43579 17.2161C6.43579 17.2085 6.43579 17.2009 6.43579 17.1933C6.43579 17.1856 6.43579 17.178 6.43579 17.1704C6.43579 17.1628 6.43579 17.1552 6.43579 17.1476C6.43579 17.14 6.43579 17.1324 6.43579 17.1248C6.43579 17.1172 6.43579 17.1096 6.43579 17.102C6.43579 17.0944 6.43579 17.0868 6.43579 17.0792C6.43579 17.0716 6.43579 17.064 6.43579 17.0564C6.43579 17.0489 6.43579 17.0413 6.43579 17.0337C6.43579 17.0261 6.43579 17.0185 6.43579 17.0109C6.43579 17.0033 6.43579 16.9957 6.43579 16.9881C6.43579 16.9805 6.43579 16.9729 6.43579 16.9653C6.43579 16.9577 6.43579 16.9501 6.43579 16.9425C6.43579 16.9349 6.43579 16.9274 6.43579 16.9198C6.43579 16.9122 6.43579 16.9046 6.43579 16.897C6.43579 16.8894 6.43579 16.8818 6.43579 16.8742C6.43579 16.8666 6.43579 16.8591 6.43579 16.8515C6.43579 16.8439 6.43579 16.8363 6.43579 16.8287C6.43579 16.8211 6.43579 16.8135 6.43579 16.806C6.43579 16.7984 6.43579 16.7908 6.43579 16.7832C6.43579 16.7756 6.43579 16.768 6.43579 16.7605C6.43579 16.7529 6.43579 16.7453 6.43579 16.7377C6.43579 16.7301 6.43579 16.7225 6.43579 16.715C6.43579 16.7074 6.43579 16.6998 6.43579 16.6922C6.43579 16.6847 6.43579 16.6771 6.43579 16.6695C6.43579 16.6619 6.43579 16.6543 6.43579 16.6468C6.43579 16.6392 6.43579 16.6316 6.43579 16.624C6.43579 16.6165 6.43579 16.6089 6.43579 16.6013C6.43579 16.5937 6.43579 16.5862 6.43579 16.5786C6.43579 16.571 6.43579 16.5634 6.43579 16.5559C6.43579 16.5483 6.43579 16.5407 6.43579 16.5332C6.43579 16.5256 6.43579 16.518 6.43579 16.5104C6.43579 16.5029 6.43579 16.4953 6.43579 16.4877C6.43579 16.4802 6.43579 16.4726 6.43579 16.465C6.43579 16.4575 6.43579 16.4499 6.43579 16.4423C6.43579 16.4348 6.43579 16.4272 6.43579 16.4196C6.43579 16.4121 6.43579 16.4045 6.43579 16.3969C6.43579 16.3894 6.43579 16.3818 6.43579 16.3743C6.43579 16.3667 6.43579 16.3591 6.43579 16.3516C6.43579 16.344 6.43579 16.3364 6.43579 16.3289C6.43579 16.3213 6.43579 16.3138 6.43579 16.3062C6.43579 16.2986 6.43579 16.2911 6.43579 16.2835C6.43579 16.276 6.43579 16.2684 6.43579 16.2608C6.43579 16.2533 6.43579 16.2457 6.43579 16.2382C6.43579 16.2306 6.43579 16.2231 6.43579 16.2155C6.43579 16.208 6.43579 16.2004 6.43579 16.1928C6.43579 16.1853 6.43579 16.1777 6.43579 16.1702C6.43579 16.1626 6.43579 16.1551 6.43579 16.1475C6.43579 16.14 6.43579 16.1324 6.43579 16.1249C6.43579 16.1173 6.43579 16.1098 6.43579 16.1022C6.43579 16.0947 6.43579 16.0871 6.43579 16.0796C6.43579 16.072 6.43579 16.0645 6.43579 16.0569C6.43579 16.0494 6.43579 16.0418 6.43579 16.0343C6.43579 16.0267 6.43579 16.0192 6.43579 16.0117C6.43579 16.0041 6.43579 15.9966 6.43579 15.989C6.43579 15.9815 6.43579 15.9739 6.43579 15.9664C6.43579 15.9589 6.43579 15.9513 6.43579 15.9438C6.43579 15.9362 6.43579 15.9287 6.43579 15.9211C6.43579 15.9136 6.43579 15.9061 6.43579 15.8985C6.43579 15.891 6.43579 15.8834 6.43579 15.8759C6.43579 15.8684 6.43579 15.8608 6.43579 15.8533C6.43579 15.8458 6.43579 15.8382 6.43579 15.8307C6.43579 15.8231 6.43579 15.8156 6.43579 15.8081C6.43579 15.8005 6.43579 15.793 6.43579 15.7855C6.43579 15.7779 6.43579 15.7704 6.43579 15.7629C6.43579 15.7553 6.43579 15.7478 6.43579 15.7403C6.43579 15.7327 6.43579 15.7252 6.43579 15.7177C6.43579 15.7102 6.43579 15.7026 6.43579 15.6951C6.43579 15.6876 6.43579 15.68 6.43579 15.6725C6.43579 15.665 6.43579 15.6575 6.43579 15.6499C6.43579 15.6424 6.43579 15.6349 6.43579 15.6274C6.43579 15.6198 6.43579 15.6123 6.43579 15.6048C6.43579 15.5973 6.43579 15.5897 6.43579 15.5822C6.43579 15.5747 6.43579 15.5672 6.43579 15.5596C6.43579 15.5521 6.43579 15.5446 6.43579 15.5371C6.43579 15.5295 6.43579 15.522 6.43579 15.5145C6.43579 15.507 6.43579 15.4995 6.43579 15.4919C6.43579 15.4844 6.43579 15.4769 6.43579 15.4694C6.43579 15.4619 6.43579 15.4544 6.43579 15.4468C6.43579 15.4393 6.43579 15.4318 6.43579 15.4243H3.66491C3.66491 15.4318 3.66491 15.4393 3.66491 15.4468C3.66491 15.4544 3.66491 15.4619 3.66491 15.4694C3.66491 15.4769 3.66491 15.4844 3.66491 15.4919C3.66491 15.4995 3.66491 15.507 3.66491 15.5145C3.66491 15.522 3.66491 15.5295 3.66491 15.5371C3.66491 15.5446 3.66491 15.5521 3.66491 15.5596C3.66491 15.5672 3.66491 15.5747 3.66491 15.5822C3.66491 15.5897 3.66491 15.5973 3.66491 15.6048C3.66491 15.6123 3.66491 15.6198 3.66491 15.6274C3.66491 15.6349 3.66491 15.6424 3.66491 15.6499C3.66491 15.6575 3.66491 15.665 3.66491 15.6725C3.66491 15.68 3.66491 15.6876 3.66491 15.6951C3.66491 15.7026 3.66491 15.7102 3.66491 15.7177C3.66491 15.7252 3.66491 15.7327 3.66491 15.7403C3.66491 15.7478 3.66491 15.7553 3.66491 15.7629C3.66491 15.7704 3.66491 15.7779 3.66491 15.7855C3.66491 15.793 3.66491 15.8005 3.66491 15.8081C3.66491 15.8156 3.66491 15.8231 3.66491 15.8307C3.66491 15.8382 3.66491 15.8458 3.66491 15.8533C3.66491 15.8608 3.66491 15.8684 3.66491 15.8759C3.66491 15.8834 3.66491 15.891 3.66491 15.8985C3.66491 15.9061 3.66491 15.9136 3.66491 15.9211C3.66491 15.9287 3.66491 15.9362 3.66491 15.9438C3.66491 15.9513 3.66491 15.9589 3.66491 15.9664C3.66491 15.9739 3.66491 15.9815 3.66491 15.989C3.66491 15.9966 3.66491 16.0041 3.66491 16.0117C3.66491 16.0192 3.66491 16.0267 3.66491 16.0343C3.66491 16.0418 3.66491 16.0494 3.66491 16.0569C3.66491 16.0645 3.66491 16.072 3.66491 16.0796C3.66491 16.0871 3.66491 16.0947 3.66491 16.1022C3.66491 16.1098 3.66491 16.1173 3.66491 16.1249C3.66491 16.1324 3.66491 16.14 3.66491 16.1475C3.66491 16.1551 3.66491 16.1626 3.66491 16.1702C3.66491 16.1777 3.66491 16.1853 3.66491 16.1928C3.66491 16.2004 3.66491 16.208 3.66491 16.2155C3.66491 16.2231 3.66491 16.2306 3.66491 16.2382C3.66491 16.2457 3.66491 16.2533 3.66491 16.2608C3.66491 16.2684 3.66491 16.276 3.66491 16.2835C3.66491 16.2911 3.66491 16.2986 3.66491 16.3062C3.66491 16.3138 3.66491 16.3213 3.66491 16.3289C3.66491 16.3364 3.66491 16.344 3.66491 16.3516C3.66491 16.3591 3.66491 16.3667 3.66491 16.3743C3.66491 16.3818 3.66491 16.3894 3.66491 16.3969C3.66491 16.4045 3.66491 16.4121 3.66491 16.4196C3.66491 16.4272 3.66491 16.4348 3.66491 16.4423C3.66491 16.4499 3.66491 16.4575 3.66491 16.465C3.66491 16.4726 3.66491 16.4802 3.66491 16.4877C3.66491 16.4953 3.66491 16.5029 3.66491 16.5104C3.66491 16.518 3.66491 16.5256 3.66491 16.5332C3.66491 16.5407 3.66491 16.5483 3.66491 16.5559C3.66491 16.5634 3.66491 16.571 3.66491 16.5786C3.66491 16.5862 3.66491 16.5937 3.66491 16.6013C3.66491 16.6089 3.66491 16.6165 3.66491 16.624C3.66491 16.6316 3.66491 16.6392 3.66491 16.6468C3.66491 16.6543 3.66491 16.6619 3.66491 16.6695C3.66491 16.6771 3.66491 16.6847 3.66491 16.6922C3.66491 16.6998 3.66491 16.7074 3.66491 16.715C3.66491 16.7225 3.66491 16.7301 3.66491 16.7377C3.66491 16.7453 3.66491 16.7529 3.66491 16.7605C3.66491 16.768 3.66491 16.7756 3.66491 16.7832C3.66491 16.7908 3.66491 16.7984 3.66491 16.806C3.66491 16.8135 3.66491 16.8211 3.66491 16.8287C3.66491 16.8363 3.66491 16.8439 3.66491 16.8515C3.66491 16.8591 3.66491 16.8666 3.66491 16.8742C3.66491 16.8818 3.66491 16.8894 3.66491 16.897C3.66491 16.9046 3.66491 16.9122 3.66491 16.9198C3.66491 16.9274 3.66491 16.9349 3.66491 16.9425C3.66491 16.9501 3.66491 16.9577 3.66491 16.9653C3.66491 16.9729 3.66491 16.9805 3.66491 16.9881C3.66491 16.9957 3.66491 17.0033 3.66491 17.0109C3.66491 17.0185 3.66491 17.0261 3.66491 17.0337C3.66491 17.0413 3.66491 17.0489 3.66491 17.0564C3.66491 17.064 3.66491 17.0716 3.66491 17.0792C3.66491 17.0868 3.66491 17.0944 3.66491 17.102C3.66491 17.1096 3.66491 17.1172 3.66491 17.1248C3.66491 17.1324 3.66491 17.14 3.66491 17.1476C3.66491 17.1552 3.66491 17.1628 3.66491 17.1704C3.66491 17.178 3.66491 17.1856 3.66491 17.1933C3.66491 17.2009 3.66491 17.2085 3.66491 17.2161C3.66491 17.2237 3.66491 17.2313 3.66491 17.2389C3.66491 17.2465 3.66491 17.2541 3.66491 17.2617C3.66491 17.2693 3.66491 17.2769 3.66491 17.2845C3.66491 17.2921 3.66491 17.2997 3.66491 17.3074C3.66491 17.315 3.66491 17.3226 3.66491 17.3302C3.66491 17.3378 3.66491 17.3454 3.66491 17.353C3.66491 17.3606 3.66491 17.3682 3.66491 17.3759C3.66491 17.3835 3.66491 17.3911 3.66491 17.3987C3.66491 17.4063 3.66491 17.4139 3.66491 17.4215C3.66491 17.4291 3.66491 17.4368 3.66491 17.4444C3.66491 17.452 3.66491 17.4596 3.66491 17.4672C3.66491 17.4748 3.66491 17.4825 3.66491 17.4901C3.66491 17.4977 3.66491 17.5053 3.66491 17.5129C3.66491 17.5206 3.66491 17.5282 3.66491 17.5358C3.66491 17.5434 3.66491 17.551 3.66491 17.5587C3.66491 17.5663 3.66491 17.5739 3.66491 17.5815C3.66491 17.5892 3.66491 17.5968 3.66491 17.6044C3.66491 17.612 3.66491 17.6197 3.66491 17.6273C3.66491 17.6349 3.66491 17.6425 3.66491 17.6502C3.66491 17.6578 3.66491 17.6654 3.66491 17.673C3.66491 17.6807 3.66491 17.6883 3.66491 17.6959C3.66491 17.7035 3.66491 17.7112 3.66491 17.7188C3.66491 17.7264 3.66491 17.7341 3.66491 17.7417C3.66491 17.7493 3.66491 17.757 3.66491 17.7646C3.66491 17.7722 3.66491 17.7799 3.66491 17.7875C3.66491 17.7951 3.66491 17.8028 3.66491 17.8104C3.66491 17.818 3.66491 17.8257 3.66491 17.8333C3.66491 17.8409 3.66491 17.8486 3.66491 17.8562C3.66491 17.8638 3.66491 17.8715 3.66491 17.8791C3.66491 17.8867 3.66491 17.8944 3.66491 17.902C3.66491 17.9097 3.66491 17.9173 3.66491 17.9249C3.66491 17.9326 3.66491 17.9402 3.66491 17.9479C3.66491 17.9555 3.66491 17.9631 3.66491 17.9708C3.66491 17.9784 3.66491 17.9861 3.66491 17.9937C3.66491 18.0014 3.66491 18.009 3.66491 18.0166C3.66491 18.0243 3.66491 18.0319 3.66491 18.0396C3.66491 18.0472 3.66491 18.0549 3.66491 18.0625C3.66491 18.0702 3.66491 18.0778 3.66491 18.0855C3.66491 18.0931 3.66491 18.1008 3.66491 18.1084C3.66491 18.1161 3.66491 18.1237 3.66491 18.1314C3.66491 18.139 3.66491 18.1467 3.66491 18.1543C3.66491 18.162 3.66491 18.1696 3.66491 18.1773C3.66491 18.1849 3.66491 18.1926 3.66491 18.2002C3.66491 18.2079 3.66491 18.2155 3.66491 18.2232C3.66491 18.2308 3.66491 18.2385 3.66491 18.2461C3.66491 18.2538 3.66491 18.2615 3.66491 18.2691C3.66491 18.2768 3.66491 18.2844 3.66491 18.2921C3.66491 18.2997 3.66491 18.3074 3.66491 18.3151C3.66491 18.3227 3.66491 18.3304 3.66491 18.338C3.66491 18.3457 3.66491 18.3534 3.66491 18.361C3.66491 18.3687 3.66491 18.3764 3.66491 18.384C3.66491 18.3917 3.66491 18.3993 3.66491 18.407C3.66491 18.4147 3.66491 18.4223 3.66491 18.43C3.66491 18.4377 3.66491 18.4453 3.66491 18.453C3.66491 18.4607 3.66491 18.4683 3.66491 18.476C3.66491 18.4837 3.66491 18.4913 3.66491 18.499C3.66491 18.5067 3.66491 18.5143 3.66491 18.522C3.66491 18.5297 3.66491 18.5373 3.66491 18.545C3.66491 18.5527 3.66491 18.5603 3.66491 18.568C3.66491 18.5757 3.66491 18.5834 3.66491 18.591C3.66491 18.5987 3.66491 18.6064 3.66491 18.6141C3.66491 18.6217 3.66491 18.6294 3.66491 18.6371C3.66491 18.6448 3.66491 18.6524 3.66491 18.6601C3.66491 18.6678 3.66491 18.6755 3.66491 18.6831C3.66491 18.6908 3.66491 18.6985 3.66491 18.7062C3.66491 18.7138 3.66491 18.7215 3.66491 18.7292C3.66491 18.7369 3.66491 18.7446 3.66491 18.7522C3.66491 18.7599 3.66491 18.7676 3.66491 18.7753C3.66491 18.783 3.66491 18.7906 3.66491 18.7983C3.66491 18.806 3.66491 18.8137 3.66491 18.8214C3.66491 18.8291 3.66491 18.8368 3.66491 18.8444C3.66491 18.8521 3.66491 18.8598 3.66491 18.8675C3.66491 18.8752 3.66491 18.8829 3.66491 18.8906C3.66491 18.8982 3.66491 18.9059 3.66491 18.9136C3.66491 18.9213 3.66491 18.929 3.66491 18.9367C3.66491 18.9444 3.66491 18.9521 3.66491 18.9598C3.66491 18.9674 3.66491 18.9751 3.66491 18.9828C3.66491 18.9905 3.66491 18.9982 3.66491 19.0059C3.66491 19.0136 3.66491 19.0213 3.66491 19.029C3.66491 19.0367 3.66491 19.0444 3.66491 19.0521C3.66491 19.0598 3.66491 19.0675 3.66491 19.0752C3.66491 19.0829 3.66491 19.0905 3.66491 19.0982C3.66491 19.1059 3.66491 19.1136 3.66491 19.1213C3.66491 19.129 3.66491 19.1367 3.66491 19.1444C3.66491 19.1521 3.66491 19.1598 3.66491 19.1675C3.66491 19.1752 3.66491 19.1829 3.66491 19.1906C3.66491 19.1983 3.66491 19.206 3.66491 19.2137C3.66491 19.2215 3.66491 19.2292 3.66491 19.2369C3.66491 19.2446 3.66491 19.2523 3.66491 19.26C3.66491 19.2677 3.66491 19.2754 3.66491 19.2831C3.66491 19.2908 3.66491 19.2985 3.66491 19.3062C3.66491 19.3139 3.66491 19.3216 3.66491 19.3293C3.66491 19.337 3.66491 19.3448 3.66491 19.3525C3.66491 19.3602 3.66491 19.3679 3.66491 19.3756C3.66491 19.3833 3.66491 19.391 3.66491 19.3987C3.66491 19.4064 3.66491 19.4142 3.66491 19.4219C3.66491 19.4296 3.66491 19.4373 3.66491 19.445C3.66491 19.4527 3.66491 19.4604 3.66491 19.4682C3.66491 19.4759 3.66491 19.4836 3.66491 19.4913C3.66491 19.499 3.66491 19.5067 3.66491 19.5145C3.66491 19.5222 3.66491 19.5299 3.66491 19.5376C3.66491 19.5453 3.66491 19.553 3.66491 19.5608C3.66491 19.5685 3.66491 19.5762 3.66491 19.5839C3.66491 19.5917 3.66491 19.5994 3.66491 19.6071C3.66491 19.6148 3.66491 19.6225 3.66491 19.6303C3.66491 19.638 3.66491 19.6457 3.66491 19.6534C3.66491 19.6612 3.66491 19.6689 3.66491 19.6766C3.66491 19.6843 3.66491 19.6921 3.66491 19.6998C3.66491 19.7075 3.66491 19.7152 3.66491 19.723C3.66491 19.7307 3.66491 19.7384 3.66491 19.7462C3.66491 19.7539 3.66491 19.7616 3.66491 19.7693C3.66491 19.7771 3.66491 19.7848 3.66491 19.7925C3.66491 19.8003 3.66491 19.808 3.66491 19.8157C3.66491 19.8235 3.66491 19.8312 3.66491 19.8389C3.66491 19.8467 3.66491 19.8544 3.66491 19.8621C3.66491 19.8699 3.66491 19.8776 3.66491 19.8853C3.66491 19.8931 3.66491 19.9008 3.66491 19.9085C3.66491 19.9163 3.66491 19.924 3.66491 19.9318C3.66491 19.9395 3.66491 19.9472 3.66491 19.955C3.66491 19.9627 3.66491 19.9705 3.66491 19.9782C3.66491 19.9859 3.66491 19.9937 3.66491 20.0014C3.66491 20.0092 3.66491 20.0169 3.66491 20.0246C3.66491 20.0324 3.66491 20.0401 3.66491 20.0479C3.66491 20.0556 3.66491 20.0634 3.66491 20.0711C3.66491 20.0789 3.66491 20.0866 3.66491 20.0943C3.66491 20.1021 3.66491 20.1098 3.66491 20.1176C3.66491 20.1253 3.66491 20.1331 3.66491 20.1408C3.66491 20.1486 3.66491 20.1563 3.66491 20.1641C3.66491 20.1718 3.66491 20.1796 3.66491 20.1873C3.66491 20.1951 3.66491 20.2028 3.66491 20.2106C3.66491 20.2183 3.66491 20.2261 3.66491 20.2338C3.66491 20.2416 3.66491 20.2493 3.66491 20.2571C3.66491 20.2648 3.66491 20.2726 3.66491 20.2804C3.66491 20.2881 3.66491 20.2959 3.66491 20.3036C3.66491 20.3114 3.66491 20.3191 3.66491 20.3269C3.66491 20.3347 3.66491 20.3424 3.66491 20.3502C3.66491 20.3579 3.66491 20.3657 3.66491 20.3734C3.66491 20.3812 3.66491 20.389 3.66491 20.3967C3.66491 20.4045 3.66491 20.4122 3.66491 20.42C3.66491 20.4278 3.66491 20.4355 3.66491 20.4433C3.66491 20.4511 3.66491 20.4588 3.66491 20.4666C3.66491 20.4743 3.66491 20.4821 3.66491 20.4899C3.66491 20.4976 3.66491 20.5054 3.66491 20.5132C3.66491 20.5209 3.66491 20.5287 3.66491 20.5365C3.66491 20.5442 3.66491 20.552 3.66491 20.5598C3.66491 20.5675 3.66491 20.5753 3.66491 20.5831C3.66491 20.5909 3.66491 20.5986 3.66491 20.6064C3.66491 20.6142 3.66491 20.6219 3.66491 20.6297C3.66491 20.6375 3.66491 20.6453 3.66491 20.653C3.66491 20.6608 3.66491 20.6686 3.66491 20.6764C3.66491 20.6841 3.66491 20.6919 3.66491 20.6997C3.66491 20.7075 3.66491 20.7152 3.66491 20.723C3.66491 20.7308 3.66491 20.7386 3.66491 20.7463C3.66491 20.7541 3.66491 20.7619 3.66491 20.7697C3.66491 20.7774 3.66491 20.7852 3.66491 20.793C3.66491 20.8008 3.66491 20.8086 3.66491 20.8163C3.66491 20.8241 3.66491 20.8319 3.66491 20.8397C3.66491 20.8475 3.66491 20.8553 3.66491 20.863C3.66491 20.8708 3.66491 20.8786 3.66491 20.8864C3.66491 20.8942 3.66491 20.902 3.66491 20.9097C3.66491 20.9175 3.66491 20.9253 3.66491 20.9331C3.66491 20.9409 3.66491 20.9487 3.66491 20.9565C3.66491 20.9643 3.66491 20.972 3.66491 20.9798C3.66491 20.9876 3.66491 20.9954 3.66491 21.0032C3.66491 21.011 3.66491 21.0188 3.66491 21.0266C3.66491 21.0344 3.66491 21.0422 3.66491 21.0499C3.66491 21.0577 3.66491 21.0655 3.66491 21.0733C3.66491 21.0811 3.66491 21.0889 3.66491 21.0967C3.66491 21.1045 3.66491 21.1123 3.66491 21.1201C3.66491 21.1279 3.66491 21.1357 3.66491 21.1435C3.66491 21.1513 3.66491 21.1591 3.66491 21.1669C3.66491 21.1747 3.66491 21.1825 3.66491 21.1903C3.66491 21.1981 3.66491 21.2059 3.66491 21.2137C3.66491 21.2215 3.66491 21.2293 3.66491 21.2371C3.66491 21.2449 3.66491 21.2527 3.66491 21.2605C3.66491 21.2683 3.66491 21.2761 3.66491 21.2839C3.66491 21.2917 3.66491 21.2995 3.66491 21.3073C3.66491 21.3151 3.66491 21.3229 3.66491 21.3307C3.66491 21.3385 3.66491 21.3463 3.66491 21.3541C3.66491 21.3619 3.66491 21.3697 3.66491 21.3776C3.66491 21.3854 3.66491 21.3932 3.66491 21.401C3.66491 21.4088 3.66491 21.4166 3.66491 21.4244C3.66491 21.4322 3.66491 21.44 3.66491 21.4478C3.66491 21.4557 3.66491 21.4635 3.66491 21.4713C3.66491 21.4791 3.66491 21.4869 3.66491 21.4947C3.66491 21.5025 3.66491 21.5103 3.66491 21.5182C3.66491 21.526 3.66491 21.5338 3.66491 21.5416C3.66491 21.5494 3.66491 21.5572 3.66491 21.5651C3.66491 21.5729 3.66491 21.5807 3.66491 21.5885C3.66491 21.5963 3.66491 21.6041 3.66491 21.612C3.66491 21.6198 3.66491 21.6276 3.66491 21.6354C3.66491 21.6432 3.66491 21.6511 3.66491 21.6589C3.66491 21.6667 3.66491 21.6745 3.66491 21.6824C3.66491 21.6902 3.66491 21.698 3.66491 21.7058C3.66491 21.7136 3.66491 21.7215 3.66491 21.7293C3.66491 21.7371 3.66491 21.7449 3.66491 21.7528C3.66491 21.7606 3.66491 21.7684 3.66491 21.7763C3.66491 21.7841 3.66491 21.7919 3.66491 21.7997C3.66491 21.8076 3.66491 21.8154 3.66491 21.8232C3.66491 21.8311 3.66491 21.8389 3.66491 21.8467C3.66491 21.8545 3.66491 21.8624 3.66491 21.8702C3.66491 21.878 3.66491 21.8859 3.66491 21.8937C3.66491 21.9015 3.66491 21.9094 3.66491 21.9172C3.66491 21.925 3.66491 21.9329 3.66491 21.9407C3.66491 21.9485 3.66491 21.9564 3.66491 21.9642C3.66491 21.9721 3.66491 21.9799 3.66491 21.9877C3.66491 21.9956 3.66491 22.0034 3.66491 22.0112C3.66491 22.0191 3.66491 22.0269 3.66491 22.0348C3.66491 22.0426 3.66491 22.0504 3.66491 22.0583C3.66491 22.0661 3.66491 22.074 3.66491 22.0818C3.66491 22.0896 3.66491 22.0975 3.66491 22.1053C3.66491 22.1132 3.66491 22.121 3.66491 22.1289C3.66491 22.1367 3.66491 22.1446 3.66491 22.1524C3.66491 22.1602 3.66491 22.1681 3.66491 22.1759C3.66491 22.1838 3.66491 22.1916 3.66491 22.1995C3.66491 22.2073 3.66491 22.2152 3.66491 22.223C3.66491 22.2309 3.66491 22.2387 3.66491 22.2466C3.66491 22.2544 3.66491 22.2623 3.66491 22.2701C3.66491 22.278 3.66491 22.2858 3.66491 22.2937C3.66491 22.3015 3.66491 22.3094 3.66491 22.3172C3.66491 22.3251 3.66491 22.3329 3.66491 22.3408C3.66491 22.3486 3.66491 22.3565 3.66491 22.3644C3.66491 22.3722 3.66491 22.3801 3.66491 22.3879C3.66491 22.3958 3.66491 22.4036 3.66491 22.4115C3.66491 22.4194 3.66491 22.4272 3.66491 22.4351C3.66491 22.4429 3.66491 22.4508 3.66491 22.4587C3.66491 22.4665 3.66491 22.4744 3.66491 22.4822C3.66491 22.4901 3.66491 22.498 3.66491 22.5058C3.66491 22.5137 3.66491 22.5215 3.66491 22.5294C3.66491 22.5373 3.66491 22.5451 3.66491 22.553C3.66491 22.5609 3.66491 22.5687 3.66491 22.5766C3.66491 22.5845 3.66491 22.5923 3.66491 22.6002C3.66491 22.6081 3.66491 22.6159 3.66491 22.6238C3.66491 22.6317 3.66491 22.6395 3.66491 22.6474C3.66491 22.6553 3.66491 22.6631 3.66491 22.671C3.66491 22.6789 3.66491 22.6868 3.66491 22.6946C3.66491 22.7025 3.66491 22.7104 3.66491 22.7182C3.66491 22.7261 3.66491 22.734 3.66491 22.7419C3.66491 22.7497 3.66491 22.7576 3.66491 22.7655C3.66491 22.7734 3.66491 22.7812 3.66491 22.7891C3.66491 22.797 3.66491 22.8049 3.66491 22.8127C3.66491 22.8206 3.66491 22.8285 3.66491 22.8364C3.66491 22.8442 3.66491 22.8521 3.66491 22.86C3.66491 22.8679 3.66491 22.8758 3.66491 22.8836C3.66491 22.8915 3.66491 22.8994 3.66491 22.9073C3.66491 22.9152 3.66491 22.923 3.66491 22.9309C3.66491 22.9388 3.66491 22.9467 3.66491 22.9546C3.66491 22.9625 3.66491 22.9703 3.66491 22.9782C3.66491 22.9861 3.66491 22.994 3.66491 23.0019C3.66491 23.0098 3.66491 23.0177 3.66491 23.0255C3.66491 23.0334 3.66491 23.0413 3.66491 23.0492C3.66491 23.0571 3.66491 23.065 3.66491 23.0729C3.66491 23.0808 3.66491 23.0887 3.66491 23.0965C3.66491 23.1044 3.66491 23.1123 3.66491 23.1202C3.66491 23.1281 3.66491 23.136 3.66491 23.1439C3.66491 23.1518 3.66491 23.1597 3.66491 23.1676C3.66491 23.1755 3.66491 23.1834 3.66491 23.1913C3.66491 23.1992 3.66491 23.2071 3.66491 23.2149C3.66491 23.2228 3.66491 23.2307 3.66491 23.2386C3.66491 23.2465 3.66491 23.2544 3.66491 23.2623C3.66491 23.2702 3.66491 23.2781 3.66491 23.286C3.66491 23.2939 3.66491 23.3018 3.66491 23.3097C3.66491 23.3176 3.66491 23.3255 3.66491 23.3334C3.66491 23.3413 3.66491 23.3492 3.66491 23.3571C3.66491 23.365 3.66491 23.3729 3.66491 23.3808C3.66491 23.3888 3.66491 23.3967 3.66491 23.4046C3.66491 23.4125 3.66491 23.4204 3.66491 23.4283C3.66491 23.4362 3.66491 23.4441 3.66491 23.452C3.66491 23.4599 3.66491 23.4678 3.66491 23.4757C3.66491 23.4836 3.66491 23.4915 3.66491 23.4995C3.66491 23.5074 3.66491 23.5153 3.66491 23.5232C3.66491 23.5311 3.66491 23.539 3.66491 23.5469C3.66491 23.5548 3.66491 23.5627 3.66491 23.5707C3.66491 23.5786 3.66491 23.5865 3.66491 23.5944C3.66491 23.6023 3.66491 23.6102 3.66491 23.6181C3.66491 23.6261 3.66491 23.634 3.66491 23.6419C3.66491 23.6498 3.66491 23.6577 3.66491 23.6656C3.66491 23.6736 3.66491 23.6815 3.66491 23.6894C3.66491 23.6973 3.66491 23.7052 3.66491 23.7132C3.66491 23.7211 3.66491 23.729 3.66491 23.7369C3.66491 23.7448 3.66491 23.7528 3.66491 23.7607C3.66491 23.7686 3.66491 23.7765 3.66491 23.7844C3.66491 23.7924 3.66491 23.8003 3.66491 23.8082C3.66491 23.8161 3.66491 23.8241 3.66491 23.832C3.66491 23.8399 3.66491 23.8478 3.66491 23.8558C3.66491 23.8637 3.66491 23.8716 3.66491 23.8796C3.66491 23.8875 3.66491 23.8954 3.66491 23.9033C3.66491 23.9113 3.66491 23.9192 3.66491 23.9271C3.66491 23.9351 3.66491 23.943 3.66491 23.9509C3.66491 23.9588 3.66491 23.9668 3.66491 23.9747C3.66491 23.9826 3.66491 23.9906 3.66491 23.9985C3.66491 24.0064 3.66491 24.0144 3.66491 24.0223C3.66491 24.0302 3.66491 24.0382 3.66491 24.0461C3.66491 24.0541 3.66491 24.062 3.66491 24.0699C3.66491 24.0779 3.66491 24.0858 3.66491 24.0937C3.66491 24.1017 3.66491 24.1096 3.66491 24.1176C3.66491 24.1255 3.66491 24.1334 3.66491 24.1414C3.66491 24.1493 3.66491 24.1573 3.66491 24.1652C3.66491 24.1731 3.66491 24.1811 3.66491 24.189C3.66491 24.197 3.66491 24.2049 3.66491 24.2129C3.66491 24.2208 3.66491 24.2287 3.66491 24.2367C3.66491 24.2446 3.66491 24.2526 3.66491 24.2605C3.66491 24.2685 3.66491 24.2764 3.66491 24.2844C3.66491 24.2923 3.66491 24.3003 3.66491 24.3082C3.66491 24.3161 3.66491 24.3241 3.66491 24.332C3.66491 24.34 3.66491 24.3479 3.66491 24.3559C3.66491 24.3638 3.66491 24.3718 3.66491 24.3797C3.66491 24.3877 3.66491 24.3957 3.66491 24.4036C3.66491 24.4116 3.66491 24.4195 3.66491 24.4275C3.66491 24.4354 3.66491 24.4434 3.66491 24.4513C3.66491 24.4593 3.66491 24.4672 3.66491 24.4752C3.66491 24.4832 3.66491 24.4911 3.66491 24.4991C3.66491 24.507 3.66491 24.515 3.66491 24.5229C3.66491 24.5309 3.66491 24.5389 3.66491 24.5468C3.66491 24.5548 3.66491 24.5627 3.66491 24.5707C3.66491 24.5787 3.66491 24.5866 3.66491 24.5946C3.66491 24.6025 3.66491 24.6105 3.66491 24.6185C3.66491 24.6264 3.66491 24.6344 3.66491 24.6424C3.66491 24.6503 3.66491 24.6583 3.66491 24.6662C3.66491 24.6742 3.66491 24.6822 3.66491 24.6901C3.66491 24.6981 3.66491 24.7061 3.66491 24.714C3.66491 24.722 3.66491 24.73 3.66491 24.7379C3.66491 24.7459 3.66491 24.7539 3.66491 24.7619C3.66491 24.7698 3.66491 24.7778 3.66491 24.7858C3.66491 24.7937 3.66491 24.8017 3.66491 24.8097C3.66491 24.8176 3.66491 24.8256 3.66491 24.8336C3.66491 24.8416 3.66491 24.8495 3.66491 24.8575C3.66491 24.8655 3.66491 24.8735 3.66491 24.8814C3.66491 24.8894 3.66491 24.8974 3.66491 24.9054C3.66491 24.9133 3.66491 24.9213 3.66491 24.9293C3.66491 24.9373 3.66491 24.9453 3.66491 24.9532C3.66491 24.9612 3.66491 24.9692 3.66491 24.9772C3.66491 24.9851 3.66491 24.9931 3.66491 25.0011C3.66491 25.0091 3.66491 25.0171 3.66491 25.0251C3.66491 25.033 3.66491 25.041 3.66491 25.049C3.66491 25.057 3.66491 25.065 3.66491 25.073C3.66491 25.0809 3.66491 25.0889 3.66491 25.0969C3.66491 25.1049 3.66491 25.1129 3.66491 25.1209C3.66491 25.1289 3.66491 25.1368 3.66491 25.1448C3.66491 25.1528 3.66491 25.1608 3.66491 25.1688C3.66491 25.1768 3.66491 25.1848 3.66491 25.1928C3.66491 25.2007 3.66491 25.2087 3.66491 25.2167C3.66491 25.2247 3.66491 25.2327 3.66491 25.2407C3.66491 25.2487 3.66491 25.2567 3.66491 25.2647C3.66491 25.2727 3.66491 25.2807 3.66491 25.2887C3.66491 25.2967 3.66491 25.3047 3.66491 25.3126C3.66491 25.3206 3.66491 25.3286 3.66491 25.3366C3.66491 25.3446 3.66491 25.3526 3.66491 25.3606C3.66491 25.3686 3.66491 25.3766 3.66491 25.3846C3.66491 25.3926 3.66491 25.4006 3.66491 25.4086C3.66491 25.4166 3.66491 25.4246 3.66491 25.4326C3.66491 25.4406 3.66491 25.4486 3.66491 25.4566C3.66491 25.4646 3.66491 25.4726 3.66491 25.4806C3.66491 25.4886 3.66491 25.4966 3.66491 25.5046C3.66491 25.5127 3.66491 25.5207 3.66491 25.5287C3.66491 25.5367 3.66491 25.5447 3.66491 25.5527C3.66491 25.5607 3.66491 25.5687 3.66491 25.5767C3.66491 25.5847 3.66491 25.5927 3.66491 25.6007C3.66491 25.6087 3.66491 25.6167 3.66491 25.6248C3.66491 25.6328 3.66491 25.6408 3.66491 25.6488C3.66491 25.6568 3.66491 25.6648 3.66491 25.6728C3.66491 25.6808 3.66491 25.6889 3.66491 25.6969C3.66491 25.7049 3.66491 25.7129 3.66491 25.7209C3.66491 25.7289 3.66491 25.7369 3.66491 25.745C3.66491 25.753 3.66491 25.761 3.66491 25.769C3.66491 25.777 3.66491 25.785 3.66491 25.7931C3.66491 25.8011 3.66491 25.8091 3.66491 25.8171C3.66491 25.8251 3.66491 25.8332 3.66491 25.8412C3.66491 25.8492 3.66491 25.8572 3.66491 25.8652C3.66491 25.8733 3.66491 25.8813 3.66491 25.8893C3.66491 25.8973 3.66491 25.9053 3.66491 25.9134C3.66491 25.9214 3.66491 25.9294 3.66491 25.9374C3.66491 25.9455 3.66491 25.9535 3.66491 25.9615C3.66491 25.9695 3.66491 25.9776 3.66491 25.9856C3.66491 25.9936 3.66491 26.0017 3.66491 26.0097C3.66491 26.0177 3.66491 26.0257 3.66491 26.0338C3.66491 26.0418 3.66491 26.0498 3.66491 26.0579C3.66491 26.0659 3.66491 26.0739 3.66491 26.082C3.66491 26.09 3.66491 26.098 3.66491 26.106C3.66491 26.1141 3.66491 26.1221 3.66491 26.1301C3.66491 26.1382 3.66491 26.1462 3.66491 26.1543C3.66491 26.1623 3.66491 26.1703 3.66491 26.1784C3.66491 26.1864 3.66491 26.1944 3.66491 26.2025C3.66491 26.2105 3.66491 26.2185 3.66491 26.2266C3.66491 26.2346 3.66491 26.2427 3.66491 26.2507C3.66491 26.2587 3.66491 26.2668 3.66491 26.2748C3.66491 26.2829 3.66491 26.2909 3.66491 26.2989C3.66491 26.307 3.66491 26.315 3.66491 26.3231C3.66491 26.3311 3.66491 26.3392 3.66491 26.3472C3.66491 26.3552 3.66491 26.3633 3.66491 26.3713C3.66491 26.3794 3.66491 26.3874 3.66491 26.3955C3.66491 26.4035 3.66491 26.4116 3.66491 26.4196C3.66491 26.4277 3.66491 26.4357 3.66491 26.4438C3.66491 26.4518 3.66491 26.4599 3.66491 26.4679C3.66491 26.476 3.66491 26.484 3.66491 26.4921C3.66491 26.5001 3.66491 26.5082 3.66491 26.5162C3.66491 26.5243 3.66491 26.5323 3.66491 26.5404C3.66491 26.5484 3.66491 26.5565 3.66491 26.5645C3.66491 26.5726 3.66491 26.5806 3.66491 26.5887C3.66491 26.5967 3.66491 26.6048 3.66491 26.6129C3.66491 26.6209 3.66491 26.629 3.66491 26.637C3.66491 26.6451 3.66491 26.6531 3.66491 26.6612C3.66491 26.6693 3.66491 26.6773 3.66491 26.6854C3.66491 26.6934 3.66491 26.7015 3.66491 26.7096C3.66491 26.7176 3.66491 26.7257 3.66491 26.7337C3.66491 26.7418 3.66491 26.7499 3.66491 26.7579C3.66491 26.766 3.66491 26.7741 3.66491 26.7821C3.66491 26.7902 3.66491 26.7983 3.66491 26.8063C3.66491 26.8144 3.66491 26.8225 3.66491 26.8305C3.66491 26.8386 3.66491 26.8467 3.66491 26.8547C3.66491 26.8628 3.66491 26.8709 3.66491 26.8789C3.66491 26.887 3.66491 26.8951 3.66491 26.9031C3.66491 26.9112 3.66491 26.9193 3.66491 26.9273C3.66491 26.9354 3.66491 26.9435 3.66491 26.9516C3.66491 26.9596 3.66491 26.9677 3.66491 26.9758C3.66491 26.9839 3.66491 26.9919 3.66491 27C3.66491 27.0081 3.66491 27.0162 3.66491 27.0242C3.66491 27.0323 3.66491 27.0404 3.66491 27.0485C3.66491 27.0565 3.66491 27.0646 3.66491 27.0727C3.66491 27.0808 3.66491 27.0888 3.66491 27.0969C3.66491 27.105 3.66491 27.1131 3.66491 27.1212C3.66491 27.1292 3.66491 27.1373 3.66491 27.1454C3.66491 27.1535 3.66491 27.1616 3.66491 27.1697C3.66491 27.1777 3.66491 27.1858 3.66491 27.1939C3.66491 27.202 3.66491 27.2101 3.66491 27.2182C3.66491 27.2262 3.66491 27.2343 3.66491 27.2424C3.66491 27.2505 3.66491 27.2586 3.66491 27.2667C3.66491 27.2748 3.66491 27.2828 3.66491 27.2909C3.66491 27.299 3.66491 27.3071 3.66491 27.3152C3.66491 27.3233 3.66491 27.3314 3.66491 27.3395C3.66491 27.3476 3.66491 27.3556 3.66491 27.3637C3.66491 27.3718 3.66491 27.3799 3.66491 27.388C3.66491 27.3961 3.66491 27.4042 3.66491 27.4123H6.43579ZM6.43579 15.4243C6.43579 11.5411 6.28645 7.8748 5.98658 4.42628L3.22612 4.66632C3.51825 8.0258 3.66491 11.6115 3.66491 15.4243H6.43579ZM5.6882 5.41177C6.17842 4.79899 6.96505 4.06506 8.10161 3.21264L6.43909 0.99594C5.20766 1.91951 4.21828 2.8136 3.5245 3.68083L5.6882 5.41177ZM8.10161 3.21264C9.14534 2.42985 9.96838 2.15773 10.6004 2.15773V-0.613142C9.16032 -0.613142 7.76337 0.00273609 6.43909 0.99594L8.10161 3.21264ZM9.21786 0.862609L12.1039 45.0406L14.8688 44.86L11.9828 0.681982L9.21786 0.862609Z" fill="#F0F0F0" mask="url(#path-1-outside-1_1172_1738)"/>
</svg>
