<svg width="58" height="153" viewBox="0 0 58 153" fill="none" xmlns="http://www.w3.org/2000/svg">
<mask id="path-1-outside-1_1172_1737" maskUnits="userSpaceOnUse" x="-1.37207" y="-1.4917" width="61" height="156" fill="black">
<rect fill="white" x="-1.37207" y="-1.4917" width="61" height="156"/>
<path d="M35.2599 116.656C37.0359 119.764 39.1819 122.576 41.6979 125.092C44.2139 127.608 46.5819 130.124 48.8019 132.64C51.1699 135.156 53.1679 137.894 54.7959 140.854C56.4239 143.666 57.3119 146.996 57.4599 150.844C57.0159 151.436 56.3499 151.88 55.4619 152.176C54.5739 152.324 53.6859 152.398 52.7979 152.398C51.1699 152.398 49.8379 152.102 48.8019 151.51C44.9539 147.81 41.0319 143.666 37.0359 139.078C33.1879 134.49 29.5619 129.828 26.1579 125.092C24.3819 124.944 22.9759 124.352 21.9399 123.316C21.0519 122.132 20.1639 120.948 19.2759 119.764C18.3879 118.58 17.4999 117.47 16.6119 116.434C15.7239 115.25 14.5399 114.51 13.0599 114.214C11.8759 117.766 11.2839 121.244 11.2839 124.648C11.2839 125.98 11.3579 127.682 11.5059 129.754C11.8019 131.678 12.0979 133.824 12.3939 136.192C12.8379 138.412 13.1339 140.706 13.2819 143.074C13.5779 145.442 13.7259 147.588 13.7259 149.512C12.8379 150.4 11.5799 150.844 9.95193 150.844C8.32393 150.844 6.91793 150.4 5.73393 149.512C4.69793 148.624 3.80993 147.588 3.06993 146.404C2.32993 145.22 1.81193 143.962 1.51593 142.63C1.21993 141.15 1.07193 139.818 1.07193 138.634C1.21993 123.242 1.66393 108.442 2.40393 94.2343C3.14393 80.0263 3.51393 65.8923 3.51393 51.8323C3.51393 43.9883 3.29193 36.2183 2.84793 28.5223C2.55193 20.6783 1.81193 12.7603 0.62793 4.7683C1.07193 3.14029 1.73793 1.95629 2.62593 1.21629C3.66193 0.476291 4.77193 0.106291 5.95593 0.106291C7.13993 0.106291 8.17593 0.55029 9.06393 1.43829C10.0999 2.32629 10.7659 3.58429 11.0619 5.21229V48.7243C14.6139 44.7283 17.7959 40.5843 20.6079 36.2923C23.4199 32.0003 26.2319 27.8563 29.0439 23.8603C31.8559 19.7163 34.8899 15.7943 38.1459 12.0943C41.4019 8.24629 45.1759 4.76829 49.4679 1.6603C49.7639 1.36429 50.1339 1.21629 50.5779 1.21629C51.0219 1.21629 51.3919 1.51229 51.6879 2.10429C51.9839 2.54829 52.4279 2.91829 53.0199 3.21429C52.7239 5.43429 51.8359 7.50629 50.3559 9.43029C49.0239 11.3543 47.7659 12.7603 46.5819 13.6483C44.3619 18.0883 41.8459 22.2323 39.0339 26.0803C36.3699 29.7803 33.6319 33.4803 30.8199 37.1803C28.1559 40.8803 25.4919 44.5803 22.8279 48.2803C20.3119 51.9803 18.0919 55.9763 16.1679 60.2683C15.2799 60.2683 14.4659 60.6383 13.7259 61.3783C13.1339 62.1183 12.3939 62.8583 11.5059 63.5983C11.8019 69.6663 12.0239 75.8083 12.1719 82.0243C12.3199 88.2403 12.3939 94.1603 12.3939 99.7843C14.7619 100.228 16.9079 101.116 18.8319 102.448C20.9039 103.632 22.8279 105.038 24.6039 106.666C26.3799 108.294 28.0819 109.996 29.7099 111.772C31.4859 113.548 33.3359 115.176 35.2599 116.656ZM41.9199 80.6923C41.1799 80.2483 40.3659 80.0263 39.4779 80.0263C38.5899 79.8783 37.7019 79.8043 36.8139 79.8043C35.7779 79.8043 34.7419 79.6563 33.7059 79.3603C32.8179 78.9163 32.3739 78.1023 32.3739 76.9183C32.3739 75.5863 33.0399 74.7723 34.3719 74.4763C35.8519 74.0323 36.9619 73.4403 37.7019 72.7003C41.4019 72.7003 44.0659 74.0323 45.6939 76.6963C44.9539 77.4363 44.4359 78.3243 44.1399 79.3603C43.8439 80.2483 43.1039 80.6923 41.9199 80.6923Z"/>
</mask>
<path d="M35.2599 116.656C37.0359 119.764 39.1819 122.576 41.6979 125.092C44.2139 127.608 46.5819 130.124 48.8019 132.64C51.1699 135.156 53.1679 137.894 54.7959 140.854C56.4239 143.666 57.3119 146.996 57.4599 150.844C57.0159 151.436 56.3499 151.88 55.4619 152.176C54.5739 152.324 53.6859 152.398 52.7979 152.398C51.1699 152.398 49.8379 152.102 48.8019 151.51C44.9539 147.81 41.0319 143.666 37.0359 139.078C33.1879 134.49 29.5619 129.828 26.1579 125.092C24.3819 124.944 22.9759 124.352 21.9399 123.316C21.0519 122.132 20.1639 120.948 19.2759 119.764C18.3879 118.58 17.4999 117.47 16.6119 116.434C15.7239 115.25 14.5399 114.51 13.0599 114.214C11.8759 117.766 11.2839 121.244 11.2839 124.648C11.2839 125.98 11.3579 127.682 11.5059 129.754C11.8019 131.678 12.0979 133.824 12.3939 136.192C12.8379 138.412 13.1339 140.706 13.2819 143.074C13.5779 145.442 13.7259 147.588 13.7259 149.512C12.8379 150.4 11.5799 150.844 9.95193 150.844C8.32393 150.844 6.91793 150.4 5.73393 149.512C4.69793 148.624 3.80993 147.588 3.06993 146.404C2.32993 145.22 1.81193 143.962 1.51593 142.63C1.21993 141.15 1.07193 139.818 1.07193 138.634C1.21993 123.242 1.66393 108.442 2.40393 94.2343C3.14393 80.0263 3.51393 65.8923 3.51393 51.8323C3.51393 43.9883 3.29193 36.2183 2.84793 28.5223C2.55193 20.6783 1.81193 12.7603 0.62793 4.7683C1.07193 3.14029 1.73793 1.95629 2.62593 1.21629C3.66193 0.476291 4.77193 0.106291 5.95593 0.106291C7.13993 0.106291 8.17593 0.55029 9.06393 1.43829C10.0999 2.32629 10.7659 3.58429 11.0619 5.21229V48.7243C14.6139 44.7283 17.7959 40.5843 20.6079 36.2923C23.4199 32.0003 26.2319 27.8563 29.0439 23.8603C31.8559 19.7163 34.8899 15.7943 38.1459 12.0943C41.4019 8.24629 45.1759 4.76829 49.4679 1.6603C49.7639 1.36429 50.1339 1.21629 50.5779 1.21629C51.0219 1.21629 51.3919 1.51229 51.6879 2.10429C51.9839 2.54829 52.4279 2.91829 53.0199 3.21429C52.7239 5.43429 51.8359 7.50629 50.3559 9.43029C49.0239 11.3543 47.7659 12.7603 46.5819 13.6483C44.3619 18.0883 41.8459 22.2323 39.0339 26.0803C36.3699 29.7803 33.6319 33.4803 30.8199 37.1803C28.1559 40.8803 25.4919 44.5803 22.8279 48.2803C20.3119 51.9803 18.0919 55.9763 16.1679 60.2683C15.2799 60.2683 14.4659 60.6383 13.7259 61.3783C13.1339 62.1183 12.3939 62.8583 11.5059 63.5983C11.8019 69.6663 12.0239 75.8083 12.1719 82.0243C12.3199 88.2403 12.3939 94.1603 12.3939 99.7843C14.7619 100.228 16.9079 101.116 18.8319 102.448C20.9039 103.632 22.8279 105.038 24.6039 106.666C26.3799 108.294 28.0819 109.996 29.7099 111.772C31.4859 113.548 33.3359 115.176 35.2599 116.656ZM41.9199 80.6923C41.1799 80.2483 40.3659 80.0263 39.4779 80.0263C38.5899 79.8783 37.7019 79.8043 36.8139 79.8043C35.7779 79.8043 34.7419 79.6563 33.7059 79.3603C32.8179 78.9163 32.3739 78.1023 32.3739 76.9183C32.3739 75.5863 33.0399 74.7723 34.3719 74.4763C35.8519 74.0323 36.9619 73.4403 37.7019 72.7003C41.4019 72.7003 44.0659 74.0323 45.6939 76.6963C44.9539 77.4363 44.4359 78.3243 44.1399 79.3603C43.8439 80.2483 43.1039 80.6923 41.9199 80.6923Z" fill="#F0F0F0"/>
<path d="M35.2599 116.656L36.4628 115.969L36.3249 115.728L36.1046 115.558L35.2599 116.656ZM41.6979 125.092L40.7183 126.072L41.6979 125.092ZM48.8019 132.64L47.7631 133.557L47.7778 133.574L47.7931 133.59L48.8019 132.64ZM54.7959 140.854L53.582 141.522L53.5893 141.535L53.5969 141.548L54.7959 140.854ZM57.4599 150.844L58.5683 151.676L58.8632 151.282L58.8443 150.791L57.4599 150.844ZM55.4619 152.176L55.6897 153.543L55.7969 153.525L55.9 153.491L55.4619 152.176ZM48.8019 151.51L47.8417 152.509L47.9655 152.628L48.1146 152.713L48.8019 151.51ZM37.0359 139.078L35.9744 139.969L35.9827 139.978L35.9912 139.988L37.0359 139.078ZM26.1579 125.092L27.2829 124.284L26.9099 123.765L26.273 123.712L26.1579 125.092ZM21.9399 123.316L20.8316 124.148L20.8907 124.226L20.9603 124.296L21.9399 123.316ZM19.2759 119.764L20.3843 118.933L19.2759 119.764ZM16.6119 116.434L15.5036 117.266L15.5307 117.302L15.56 117.336L16.6119 116.434ZM13.0599 114.214L13.3316 112.856L12.1323 112.616L11.7456 113.776L13.0599 114.214ZM11.5059 129.754L10.124 129.853L10.128 129.909L10.1366 129.965L11.5059 129.754ZM12.3939 136.192L11.0192 136.364L11.0255 136.414L11.0354 136.464L12.3939 136.192ZM13.2819 143.074L11.8992 143.161L11.9019 143.204L11.9072 143.246L13.2819 143.074ZM13.7259 149.512L14.7056 150.492L15.1114 150.086V149.512H13.7259ZM5.73393 149.512L4.8323 150.564L4.86656 150.594L4.90267 150.621L5.73393 149.512ZM3.06993 146.404L4.24478 145.67L3.06993 146.404ZM1.51593 142.63L0.157396 142.902L0.160287 142.916L0.163483 142.931L1.51593 142.63ZM1.07193 138.634L-0.313508 138.621V138.634H1.07193ZM2.40393 94.2343L1.02037 94.1622L2.40393 94.2343ZM2.84793 28.5223L1.46348 28.5745L1.464 28.5883L1.46479 28.6021L2.84793 28.5223ZM0.62793 4.7683L-0.708691 4.40377L-0.785118 4.684L-0.74255 4.97133L0.62793 4.7683ZM2.62593 1.21629L1.82066 0.0889125L1.77865 0.118918L1.73899 0.151967L2.62593 1.21629ZM9.06393 1.43829L8.08428 2.41794L8.1219 2.45556L8.1623 2.49019L9.06393 1.43829ZM11.0619 5.21229H12.4474V5.08737L12.425 4.96446L11.0619 5.21229ZM11.0619 48.7243H9.67649V52.3683L12.0974 49.6447L11.0619 48.7243ZM20.6079 36.2923L21.7668 37.0516L21.7668 37.0516L20.6079 36.2923ZM29.0439 23.8603L30.177 24.6576L30.1837 24.648L30.1903 24.6382L29.0439 23.8603ZM38.1459 12.0943L39.186 13.0096L39.1949 12.9995L39.2036 12.9892L38.1459 12.0943ZM49.4679 1.6603L50.2805 2.78242L50.3697 2.71782L50.4476 2.63994L49.4679 1.6603ZM51.6879 2.10429L50.4488 2.72387L50.4873 2.80102L50.5352 2.87279L51.6879 2.10429ZM53.0199 3.21429L54.3932 3.3974L54.5239 2.4173L53.6395 1.97511L53.0199 3.21429ZM50.3559 9.43029L49.2578 8.58557L49.2366 8.61312L49.2168 8.64169L50.3559 9.43029ZM46.5819 13.6483L45.7507 12.5399L45.489 12.7362L45.3428 13.0287L46.5819 13.6483ZM39.0339 26.0803L37.9153 25.2628L37.9096 25.2708L39.0339 26.0803ZM30.8199 37.1803L29.7169 36.342L29.7061 36.3562L29.6956 36.3708L30.8199 37.1803ZM22.8279 48.2803L21.7036 47.4708L21.6927 47.4859L21.6823 47.5012L22.8279 48.2803ZM16.1679 60.2683V61.6537H17.0651L17.4322 60.835L16.1679 60.2683ZM13.7259 61.3783L12.7463 60.3986L12.692 60.4529L12.6441 60.5128L13.7259 61.3783ZM11.5059 63.5983L10.619 62.534L10.0885 62.9761L10.1221 63.6658L11.5059 63.5983ZM12.1719 82.0243L10.7869 82.0573L12.1719 82.0243ZM12.3939 99.7843H11.0085V100.934L12.1386 101.146L12.3939 99.7843ZM18.8319 102.448L18.0433 103.587L18.0926 103.621L18.1446 103.651L18.8319 102.448ZM29.7099 111.772L28.6887 112.708L28.709 112.731L28.7303 112.752L29.7099 111.772ZM41.9199 80.6923L41.2071 81.8803L41.5362 82.0777H41.9199V80.6923ZM39.4779 80.0263L39.2502 81.3929L39.3633 81.4117H39.4779V80.0263ZM33.7059 79.3603L33.0863 80.5995L33.2015 80.6571L33.3253 80.6924L33.7059 79.3603ZM34.3719 74.4763L34.6725 75.8287L34.7217 75.8178L34.77 75.8033L34.3719 74.4763ZM37.7019 72.7003V71.3149H37.1281L36.7223 71.7206L37.7019 72.7003ZM45.6939 76.6963L46.6736 77.6759L47.4449 76.9046L46.8761 75.9739L45.6939 76.6963ZM44.1399 79.3603L45.4543 79.7984L45.4638 79.7699L45.4721 79.7409L44.1399 79.3603ZM34.057 117.344C35.8938 120.558 38.1147 123.468 40.7183 126.072L42.6776 124.113C40.2492 121.684 38.1781 118.971 36.4628 115.969L34.057 117.344ZM40.7183 126.072C43.2151 128.569 45.5633 131.064 47.7631 133.557L49.8408 131.724C47.6006 129.185 45.2128 126.648 42.6776 124.113L40.7183 126.072ZM47.7931 133.59C50.0829 136.023 52.0115 138.667 53.582 141.522L56.0099 140.187C54.3244 137.122 52.2569 134.29 49.8108 131.691L47.7931 133.59ZM53.5969 141.548C55.0927 144.132 55.9346 147.233 56.0755 150.898L58.8443 150.791C58.6893 146.759 57.7552 143.201 55.9949 140.16L53.5969 141.548ZM56.3516 150.013C56.1166 150.326 55.7154 150.631 55.0238 150.862L55.9 153.491C56.9844 153.129 57.9153 152.546 58.5683 151.676L56.3516 150.013ZM55.2342 150.81C54.4204 150.945 53.6086 151.013 52.7979 151.013V153.784C53.7633 153.784 54.7275 153.703 55.6897 153.543L55.2342 150.81ZM52.7979 151.013C51.3269 151.013 50.2533 150.744 49.4893 150.307L48.1146 152.713C49.4225 153.461 51.013 153.784 52.7979 153.784V151.013ZM49.7622 150.512C45.9474 146.844 42.0535 142.73 38.0807 138.168L35.9912 139.988C40.0104 144.603 43.9605 148.777 47.8417 152.509L49.7622 150.512ZM38.0974 138.188C34.271 133.626 30.6663 128.991 27.2829 124.284L25.0329 125.901C28.4576 130.666 32.1048 135.355 35.9744 139.969L38.0974 138.188ZM26.273 123.712C24.7501 123.585 23.6766 123.094 22.9196 122.337L20.9603 124.296C22.2753 125.611 24.0138 126.304 26.0429 126.473L26.273 123.712ZM23.0483 122.485C23.0465 122.483 23.0448 122.48 23.0431 122.478C23.0413 122.476 23.0396 122.473 23.0379 122.471C23.0361 122.469 23.0344 122.467 23.0327 122.464C23.0309 122.462 23.0292 122.46 23.0275 122.457C23.0257 122.455 23.024 122.453 23.0223 122.45C23.0205 122.448 23.0188 122.446 23.0171 122.443C23.0153 122.441 23.0136 122.439 23.0119 122.436C23.0101 122.434 23.0084 122.432 23.0067 122.43C23.0049 122.427 23.0032 122.425 23.0015 122.423C22.9997 122.42 22.998 122.418 22.9962 122.416C22.9945 122.413 22.9928 122.411 22.991 122.409C22.9893 122.406 22.9876 122.404 22.9858 122.402C22.9841 122.399 22.9824 122.397 22.9806 122.395C22.9789 122.393 22.9772 122.39 22.9754 122.388C22.9737 122.386 22.972 122.383 22.9702 122.381C22.9685 122.379 22.9668 122.376 22.965 122.374C22.9633 122.372 22.9616 122.369 22.9598 122.367C22.9581 122.365 22.9564 122.362 22.9546 122.36C22.9529 122.358 22.9512 122.356 22.9494 122.353C22.9477 122.351 22.946 122.349 22.9442 122.346C22.9425 122.344 22.9407 122.342 22.939 122.339C22.9373 122.337 22.9355 122.335 22.9338 122.332C22.9321 122.33 22.9303 122.328 22.9286 122.325C22.9269 122.323 22.9251 122.321 22.9234 122.319C22.9217 122.316 22.9199 122.314 22.9182 122.312C22.9165 122.309 22.9147 122.307 22.913 122.305C22.9113 122.302 22.9095 122.3 22.9078 122.298C22.9061 122.295 22.9043 122.293 22.9026 122.291C22.9009 122.288 22.8991 122.286 22.8974 122.284C22.8957 122.282 22.8939 122.279 22.8922 122.277C22.8905 122.275 22.8887 122.272 22.887 122.27C22.8852 122.268 22.8835 122.265 22.8818 122.263C22.88 122.261 22.8783 122.258 22.8766 122.256C22.8748 122.254 22.8731 122.251 22.8714 122.249C22.8696 122.247 22.8679 122.245 22.8662 122.242C22.8644 122.24 22.8627 122.238 22.861 122.235C22.8592 122.233 22.8575 122.231 22.8558 122.228C22.854 122.226 22.8523 122.224 22.8506 122.221C22.8488 122.219 22.8471 122.217 22.8454 122.214C22.8436 122.212 22.8419 122.21 22.8402 122.208C22.8384 122.205 22.8367 122.203 22.835 122.201C22.8332 122.198 22.8315 122.196 22.8297 122.194C22.828 122.191 22.8263 122.189 22.8245 122.187C22.8228 122.184 22.8211 122.182 22.8193 122.18C22.8176 122.177 22.8159 122.175 22.8141 122.173C22.8124 122.171 22.8107 122.168 22.8089 122.166C22.8072 122.164 22.8055 122.161 22.8037 122.159C22.802 122.157 22.8003 122.154 22.7985 122.152C22.7968 122.15 22.7951 122.147 22.7933 122.145C22.7916 122.143 22.7899 122.14 22.7881 122.138C22.7864 122.136 22.7847 122.134 22.7829 122.131C22.7812 122.129 22.7795 122.127 22.7777 122.124C22.776 122.122 22.7743 122.12 22.7725 122.117C22.7708 122.115 22.769 122.113 22.7673 122.11C22.7656 122.108 22.7638 122.106 22.7621 122.103C22.7604 122.101 22.7586 122.099 22.7569 122.097C22.7552 122.094 22.7534 122.092 22.7517 122.09C22.75 122.087 22.7482 122.085 22.7465 122.083C22.7448 122.08 22.743 122.078 22.7413 122.076C22.7396 122.073 22.7378 122.071 22.7361 122.069C22.7344 122.066 22.7326 122.064 22.7309 122.062C22.7292 122.06 22.7274 122.057 22.7257 122.055C22.724 122.053 22.7222 122.05 22.7205 122.048C22.7188 122.046 22.717 122.043 22.7153 122.041C22.7135 122.039 22.7118 122.036 22.7101 122.034C22.7083 122.032 22.7066 122.029 22.7049 122.027C22.7031 122.025 22.7014 122.023 22.6997 122.02C22.6979 122.018 22.6962 122.016 22.6945 122.013C22.6927 122.011 22.691 122.009 22.6893 122.006C22.6875 122.004 22.6858 122.002 22.6841 121.999C22.6823 121.997 22.6806 121.995 22.6789 121.992C22.6771 121.99 22.6754 121.988 22.6737 121.986C22.6719 121.983 22.6702 121.981 22.6685 121.979C22.6667 121.976 22.665 121.974 22.6632 121.972C22.6615 121.969 22.6598 121.967 22.658 121.965C22.6563 121.962 22.6546 121.96 22.6528 121.958C22.6511 121.955 22.6494 121.953 22.6476 121.951C22.6459 121.949 22.6442 121.946 22.6424 121.944C22.6407 121.942 22.639 121.939 22.6372 121.937C22.6355 121.935 22.6338 121.932 22.632 121.93C22.6303 121.928 22.6286 121.925 22.6268 121.923C22.6251 121.921 22.6234 121.918 22.6216 121.916C22.6199 121.914 22.6182 121.912 22.6164 121.909C22.6147 121.907 22.613 121.905 22.6112 121.902C22.6095 121.9 22.6077 121.898 22.606 121.895C22.6043 121.893 22.6025 121.891 22.6008 121.888C22.5991 121.886 22.5973 121.884 22.5956 121.881C22.5939 121.879 22.5921 121.877 22.5904 121.875C22.5887 121.872 22.5869 121.87 22.5852 121.868C22.5835 121.865 22.5817 121.863 22.58 121.861C22.5783 121.858 22.5765 121.856 22.5748 121.854C22.5731 121.851 22.5713 121.849 22.5696 121.847C22.5679 121.844 22.5661 121.842 22.5644 121.84C22.5627 121.838 22.5609 121.835 22.5592 121.833C22.5575 121.831 22.5557 121.828 22.554 121.826C22.5522 121.824 22.5505 121.821 22.5488 121.819C22.547 121.817 22.5453 121.814 22.5436 121.812C22.5418 121.81 22.5401 121.807 22.5384 121.805C22.5366 121.803 22.5349 121.801 22.5332 121.798C22.5314 121.796 22.5297 121.794 22.528 121.791C22.5262 121.789 22.5245 121.787 22.5228 121.784C22.521 121.782 22.5193 121.78 22.5176 121.777C22.5158 121.775 22.5141 121.773 22.5124 121.77C22.5106 121.768 22.5089 121.766 22.5072 121.764C22.5054 121.761 22.5037 121.759 22.502 121.757C22.5002 121.754 22.4985 121.752 22.4967 121.75C22.495 121.747 22.4933 121.745 22.4915 121.743C22.4898 121.74 22.4881 121.738 22.4863 121.736C22.4846 121.733 22.4829 121.731 22.4811 121.729C22.4794 121.727 22.4777 121.724 22.4759 121.722C22.4742 121.72 22.4725 121.717 22.4707 121.715C22.469 121.713 22.4673 121.71 22.4655 121.708C22.4638 121.706 22.4621 121.703 22.4603 121.701C22.4586 121.699 22.4569 121.696 22.4551 121.694C22.4534 121.692 22.4517 121.69 22.4499 121.687C22.4482 121.685 22.4465 121.683 22.4447 121.68C22.443 121.678 22.4412 121.676 22.4395 121.673C22.4378 121.671 22.436 121.669 22.4343 121.666C22.4326 121.664 22.4308 121.662 22.4291 121.659C22.4274 121.657 22.4256 121.655 22.4239 121.653C22.4222 121.65 22.4204 121.648 22.4187 121.646C22.417 121.643 22.4152 121.641 22.4135 121.639C22.4118 121.636 22.41 121.634 22.4083 121.632C22.4066 121.629 22.4048 121.627 22.4031 121.625C22.4014 121.622 22.3996 121.62 22.3979 121.618C22.3962 121.616 22.3944 121.613 22.3927 121.611C22.391 121.609 22.3892 121.606 22.3875 121.604C22.3857 121.602 22.384 121.599 22.3823 121.597C22.3805 121.595 22.3788 121.592 22.3771 121.59C22.3753 121.588 22.3736 121.585 22.3719 121.583C22.3701 121.581 22.3684 121.579 22.3667 121.576C22.3649 121.574 22.3632 121.572 22.3615 121.569C22.3597 121.567 22.358 121.565 22.3563 121.562C22.3545 121.56 22.3528 121.558 22.3511 121.555C22.3493 121.553 22.3476 121.551 22.3459 121.548C22.3441 121.546 22.3424 121.544 22.3407 121.542C22.3389 121.539 22.3372 121.537 22.3355 121.535C22.3337 121.532 22.332 121.53 22.3302 121.528C22.3285 121.525 22.3268 121.523 22.325 121.521C22.3233 121.518 22.3216 121.516 22.3198 121.514C22.3181 121.511 22.3164 121.509 22.3146 121.507C22.3129 121.505 22.3112 121.502 22.3094 121.5C22.3077 121.498 22.306 121.495 22.3042 121.493C22.3025 121.491 22.3008 121.488 22.299 121.486C22.2973 121.484 22.2956 121.481 22.2938 121.479C22.2921 121.477 22.2904 121.474 22.2886 121.472C22.2869 121.47 22.2852 121.468 22.2834 121.465C22.2817 121.463 22.28 121.461 22.2782 121.458C22.2765 121.456 22.2747 121.454 22.273 121.451C22.2713 121.449 22.2695 121.447 22.2678 121.444C22.2661 121.442 22.2643 121.44 22.2626 121.437C22.2609 121.435 22.2591 121.433 22.2574 121.431C22.2557 121.428 22.2539 121.426 22.2522 121.424C22.2505 121.421 22.2487 121.419 22.247 121.417C22.2453 121.414 22.2435 121.412 22.2418 121.41C22.2401 121.407 22.2383 121.405 22.2366 121.403C22.2349 121.4 22.2331 121.398 22.2314 121.396C22.2297 121.394 22.2279 121.391 22.2262 121.389C22.2245 121.387 22.2227 121.384 22.221 121.382C22.2192 121.38 22.2175 121.377 22.2158 121.375C22.214 121.373 22.2123 121.37 22.2106 121.368C22.2088 121.366 22.2071 121.363 22.2054 121.361C22.2036 121.359 22.2019 121.357 22.2002 121.354C22.1984 121.352 22.1967 121.35 22.195 121.347C22.1932 121.345 22.1915 121.343 22.1898 121.34C22.188 121.338 22.1863 121.336 22.1846 121.333C22.1828 121.331 22.1811 121.329 22.1794 121.326C22.1776 121.324 22.1759 121.322 22.1742 121.32C22.1724 121.317 22.1707 121.315 22.169 121.313C22.1672 121.31 22.1655 121.308 22.1637 121.306C22.162 121.303 22.1603 121.301 22.1585 121.299C22.1568 121.296 22.1551 121.294 22.1533 121.292C22.1516 121.289 22.1499 121.287 22.1481 121.285C22.1464 121.283 22.1447 121.28 22.1429 121.278C22.1412 121.276 22.1395 121.273 22.1377 121.271C22.136 121.269 22.1343 121.266 22.1325 121.264C22.1308 121.262 22.1291 121.259 22.1273 121.257C22.1256 121.255 22.1239 121.252 22.1221 121.25C22.1204 121.248 22.1187 121.246 22.1169 121.243C22.1152 121.241 22.1135 121.239 22.1117 121.236C22.11 121.234 22.1082 121.232 22.1065 121.229C22.1048 121.227 22.103 121.225 22.1013 121.222C22.0996 121.22 22.0978 121.218 22.0961 121.215C22.0944 121.213 22.0926 121.211 22.0909 121.209C22.0892 121.206 22.0874 121.204 22.0857 121.202C22.084 121.199 22.0822 121.197 22.0805 121.195C22.0788 121.192 22.077 121.19 22.0753 121.188C22.0736 121.185 22.0718 121.183 22.0701 121.181C22.0684 121.178 22.0666 121.176 22.0649 121.174C22.0632 121.172 22.0614 121.169 22.0597 121.167C22.058 121.165 22.0562 121.162 22.0545 121.16C22.0527 121.158 22.051 121.155 22.0493 121.153C22.0475 121.151 22.0458 121.148 22.0441 121.146C22.0423 121.144 22.0406 121.141 22.0389 121.139C22.0371 121.137 22.0354 121.135 22.0337 121.132C22.0319 121.13 22.0302 121.128 22.0285 121.125C22.0267 121.123 22.025 121.121 22.0233 121.118C22.0215 121.116 22.0198 121.114 22.0181 121.111C22.0163 121.109 22.0146 121.107 22.0129 121.104C22.0111 121.102 22.0094 121.1 22.0077 121.098C22.0059 121.095 22.0042 121.093 22.0025 121.091C22.0007 121.088 21.999 121.086 21.9972 121.084C21.9955 121.081 21.9938 121.079 21.992 121.077C21.9903 121.074 21.9886 121.072 21.9868 121.07C21.9851 121.067 21.9834 121.065 21.9816 121.063C21.9799 121.061 21.9782 121.058 21.9764 121.056C21.9747 121.054 21.973 121.051 21.9712 121.049C21.9695 121.047 21.9678 121.044 21.966 121.042C21.9643 121.04 21.9626 121.037 21.9608 121.035C21.9591 121.033 21.9574 121.03 21.9556 121.028C21.9539 121.026 21.9522 121.024 21.9504 121.021C21.9487 121.019 21.947 121.017 21.9452 121.014C21.9435 121.012 21.9417 121.01 21.94 121.007C21.9383 121.005 21.9365 121.003 21.9348 121C21.9331 120.998 21.9313 120.996 21.9296 120.993C21.9279 120.991 21.9261 120.989 21.9244 120.987C21.9227 120.984 21.9209 120.982 21.9192 120.98C21.9175 120.977 21.9157 120.975 21.914 120.973C21.9123 120.97 21.9105 120.968 21.9088 120.966C21.9071 120.963 21.9053 120.961 21.9036 120.959C21.9019 120.956 21.9001 120.954 21.8984 120.952C21.8967 120.95 21.8949 120.947 21.8932 120.945C21.8915 120.943 21.8897 120.94 21.888 120.938C21.8862 120.936 21.8845 120.933 21.8828 120.931C21.881 120.929 21.8793 120.926 21.8776 120.924C21.8758 120.922 21.8741 120.919 21.8724 120.917C21.8706 120.915 21.8689 120.913 21.8672 120.91C21.8654 120.908 21.8637 120.906 21.862 120.903C21.8602 120.901 21.8585 120.899 21.8568 120.896C21.855 120.894 21.8533 120.892 21.8516 120.889C21.8498 120.887 21.8481 120.885 21.8464 120.882C21.8446 120.88 21.8429 120.878 21.8412 120.876C21.8394 120.873 21.8377 120.871 21.836 120.869C21.8342 120.866 21.8325 120.864 21.8307 120.862C21.829 120.859 21.8273 120.857 21.8255 120.855C21.8238 120.852 21.8221 120.85 21.8203 120.848C21.8186 120.845 21.8169 120.843 21.8151 120.841C21.8134 120.839 21.8117 120.836 21.8099 120.834C21.8082 120.832 21.8065 120.829 21.8047 120.827C21.803 120.825 21.8013 120.822 21.7995 120.82C21.7978 120.818 21.7961 120.815 21.7943 120.813C21.7926 120.811 21.7909 120.808 21.7891 120.806C21.7874 120.804 21.7857 120.802 21.7839 120.799C21.7822 120.797 21.7805 120.795 21.7787 120.792C21.777 120.79 21.7752 120.788 21.7735 120.785C21.7718 120.783 21.77 120.781 21.7683 120.778C21.7666 120.776 21.7648 120.774 21.7631 120.771C21.7614 120.769 21.7596 120.767 21.7579 120.765C21.7562 120.762 21.7544 120.76 21.7527 120.758C21.751 120.755 21.7492 120.753 21.7475 120.751C21.7458 120.748 21.744 120.746 21.7423 120.744C21.7406 120.741 21.7388 120.739 21.7371 120.737C21.7354 120.734 21.7336 120.732 21.7319 120.73C21.7302 120.728 21.7284 120.725 21.7267 120.723C21.725 120.721 21.7232 120.718 21.7215 120.716C21.7197 120.714 21.718 120.711 21.7163 120.709C21.7145 120.707 21.7128 120.704 21.7111 120.702C21.7093 120.7 21.7076 120.697 21.7059 120.695C21.7041 120.693 21.7024 120.691 21.7007 120.688C21.6989 120.686 21.6972 120.684 21.6955 120.681C21.6937 120.679 21.692 120.677 21.6903 120.674C21.6885 120.672 21.6868 120.67 21.6851 120.667C21.6833 120.665 21.6816 120.663 21.6799 120.66C21.6781 120.658 21.6764 120.656 21.6747 120.654C21.6729 120.651 21.6712 120.649 21.6695 120.647C21.6677 120.644 21.666 120.642 21.6642 120.64C21.6625 120.637 21.6608 120.635 21.659 120.633C21.6573 120.63 21.6556 120.628 21.6538 120.626C21.6521 120.623 21.6504 120.621 21.6486 120.619C21.6469 120.617 21.6452 120.614 21.6434 120.612C21.6417 120.61 21.64 120.607 21.6382 120.605C21.6365 120.603 21.6348 120.6 21.633 120.598C21.6313 120.596 21.6296 120.593 21.6278 120.591C21.6261 120.589 21.6244 120.586 21.6226 120.584C21.6209 120.582 21.6192 120.58 21.6174 120.577C21.6157 120.575 21.614 120.573 21.6122 120.57C21.6105 120.568 21.6087 120.566 21.607 120.563C21.6053 120.561 21.6035 120.559 21.6018 120.556C21.6001 120.554 21.5983 120.552 21.5966 120.549C21.5949 120.547 21.5931 120.545 21.5914 120.543C21.5897 120.54 21.5879 120.538 21.5862 120.536C21.5845 120.533 21.5827 120.531 21.581 120.529C21.5793 120.526 21.5775 120.524 21.5758 120.522C21.5741 120.519 21.5723 120.517 21.5706 120.515C21.5689 120.512 21.5671 120.51 21.5654 120.508C21.5637 120.506 21.5619 120.503 21.5602 120.501C21.5585 120.499 21.5567 120.496 21.555 120.494C21.5532 120.492 21.5515 120.489 21.5498 120.487C21.548 120.485 21.5463 120.482 21.5446 120.48C21.5428 120.478 21.5411 120.475 21.5394 120.473C21.5376 120.471 21.5359 120.469 21.5342 120.466C21.5324 120.464 21.5307 120.462 21.529 120.459C21.5272 120.457 21.5255 120.455 21.5238 120.452C21.522 120.45 21.5203 120.448 21.5186 120.445C21.5168 120.443 21.5151 120.441 21.5134 120.438C21.5116 120.436 21.5099 120.434 21.5082 120.432C21.5064 120.429 21.5047 120.427 21.503 120.425C21.5012 120.422 21.4995 120.42 21.4977 120.418C21.496 120.415 21.4943 120.413 21.4925 120.411C21.4908 120.408 21.4891 120.406 21.4873 120.404C21.4856 120.401 21.4839 120.399 21.4821 120.397C21.4804 120.395 21.4787 120.392 21.4769 120.39C21.4752 120.388 21.4735 120.385 21.4717 120.383C21.47 120.381 21.4683 120.378 21.4665 120.376C21.4648 120.374 21.4631 120.371 21.4613 120.369C21.4596 120.367 21.4579 120.364 21.4561 120.362C21.4544 120.36 21.4527 120.358 21.4509 120.355C21.4492 120.353 21.4475 120.351 21.4457 120.348C21.444 120.346 21.4422 120.344 21.4405 120.341C21.4388 120.339 21.437 120.337 21.4353 120.334C21.4336 120.332 21.4318 120.33 21.4301 120.327C21.4284 120.325 21.4266 120.323 21.4249 120.321C21.4232 120.318 21.4214 120.316 21.4197 120.314C21.418 120.311 21.4162 120.309 21.4145 120.307C21.4128 120.304 21.411 120.302 21.4093 120.3C21.4076 120.297 21.4058 120.295 21.4041 120.293C21.4024 120.29 21.4006 120.288 21.3989 120.286C21.3972 120.284 21.3954 120.281 21.3937 120.279C21.392 120.277 21.3902 120.274 21.3885 120.272C21.3867 120.27 21.385 120.267 21.3833 120.265C21.3815 120.263 21.3798 120.26 21.3781 120.258C21.3763 120.256 21.3746 120.253 21.3729 120.251C21.3711 120.249 21.3694 120.247 21.3677 120.244C21.3659 120.242 21.3642 120.24 21.3625 120.237C21.3607 120.235 21.359 120.233 21.3573 120.23C21.3555 120.228 21.3538 120.226 21.3521 120.223C21.3503 120.221 21.3486 120.219 21.3469 120.216C21.3451 120.214 21.3434 120.212 21.3417 120.21C21.3399 120.207 21.3382 120.205 21.3365 120.203C21.3347 120.2 21.333 120.198 21.3312 120.196C21.3295 120.193 21.3278 120.191 21.326 120.189C21.3243 120.186 21.3226 120.184 21.3208 120.182C21.3191 120.179 21.3174 120.177 21.3156 120.175C21.3139 120.173 21.3122 120.17 21.3104 120.168C21.3087 120.166 21.307 120.163 21.3052 120.161C21.3035 120.159 21.3018 120.156 21.3 120.154C21.2983 120.152 21.2966 120.149 21.2948 120.147C21.2931 120.145 21.2914 120.142 21.2896 120.14C21.2879 120.138 21.2862 120.136 21.2844 120.133C21.2827 120.131 21.281 120.129 21.2792 120.126C21.2775 120.124 21.2757 120.122 21.274 120.119C21.2723 120.117 21.2705 120.115 21.2688 120.112C21.2671 120.11 21.2653 120.108 21.2636 120.105C21.2619 120.103 21.2601 120.101 21.2584 120.099C21.2567 120.096 21.2549 120.094 21.2532 120.092C21.2515 120.089 21.2497 120.087 21.248 120.085C21.2463 120.082 21.2445 120.08 21.2428 120.078C21.2411 120.075 21.2393 120.073 21.2376 120.071C21.2359 120.068 21.2341 120.066 21.2324 120.064C21.2307 120.062 21.2289 120.059 21.2272 120.057C21.2255 120.055 21.2237 120.052 21.222 120.05C21.2202 120.048 21.2185 120.045 21.2168 120.043C21.215 120.041 21.2133 120.038 21.2116 120.036C21.2098 120.034 21.2081 120.031 21.2064 120.029C21.2046 120.027 21.2029 120.025 21.2012 120.022C21.1994 120.02 21.1977 120.018 21.196 120.015C21.1942 120.013 21.1925 120.011 21.1908 120.008C21.189 120.006 21.1873 120.004 21.1856 120.001C21.1838 119.999 21.1821 119.997 21.1804 119.994C21.1786 119.992 21.1769 119.99 21.1752 119.988C21.1734 119.985 21.1717 119.983 21.17 119.981C21.1682 119.978 21.1665 119.976 21.1647 119.974C21.163 119.971 21.1613 119.969 21.1595 119.967C21.1578 119.964 21.1561 119.962 21.1543 119.96C21.1526 119.957 21.1509 119.955 21.1491 119.953C21.1474 119.951 21.1457 119.948 21.1439 119.946C21.1422 119.944 21.1405 119.941 21.1387 119.939C21.137 119.937 21.1353 119.934 21.1335 119.932C21.1318 119.93 21.1301 119.927 21.1283 119.925C21.1266 119.923 21.1249 119.92 21.1231 119.918C21.1214 119.916 21.1197 119.914 21.1179 119.911C21.1162 119.909 21.1145 119.907 21.1127 119.904C21.111 119.902 21.1092 119.9 21.1075 119.897C21.1058 119.895 21.104 119.893 21.1023 119.89C21.1006 119.888 21.0988 119.886 21.0971 119.883C21.0954 119.881 21.0936 119.879 21.0919 119.877C21.0902 119.874 21.0884 119.872 21.0867 119.87C21.085 119.867 21.0832 119.865 21.0815 119.863C21.0798 119.86 21.078 119.858 21.0763 119.856C21.0746 119.853 21.0728 119.851 21.0711 119.849C21.0694 119.846 21.0676 119.844 21.0659 119.842C21.0642 119.84 21.0624 119.837 21.0607 119.835C21.059 119.833 21.0572 119.83 21.0555 119.828C21.0537 119.826 21.052 119.823 21.0503 119.821C21.0485 119.819 21.0468 119.816 21.0451 119.814C21.0433 119.812 21.0416 119.809 21.0399 119.807C21.0381 119.805 21.0364 119.803 21.0347 119.8C21.0329 119.798 21.0312 119.796 21.0295 119.793C21.0277 119.791 21.026 119.789 21.0243 119.786C21.0225 119.784 21.0208 119.782 21.0191 119.779C21.0173 119.777 21.0156 119.775 21.0139 119.772C21.0121 119.77 21.0104 119.768 21.0087 119.766C21.0069 119.763 21.0052 119.761 21.0035 119.759C21.0017 119.756 21 119.754 20.9982 119.752C20.9965 119.749 20.9948 119.747 20.993 119.745C20.9913 119.742 20.9896 119.74 20.9878 119.738C20.9861 119.735 20.9844 119.733 20.9826 119.731C20.9809 119.729 20.9792 119.726 20.9774 119.724C20.9757 119.722 20.974 119.719 20.9722 119.717C20.9705 119.715 20.9688 119.712 20.967 119.71C20.9653 119.708 20.9636 119.705 20.9618 119.703C20.9601 119.701 20.9584 119.698 20.9566 119.696C20.9549 119.694 20.9532 119.692 20.9514 119.689C20.9497 119.687 20.948 119.685 20.9462 119.682C20.9445 119.68 20.9427 119.678 20.941 119.675C20.9393 119.673 20.9375 119.671 20.9358 119.668C20.9341 119.666 20.9323 119.664 20.9306 119.661C20.9289 119.659 20.9271 119.657 20.9254 119.655C20.9237 119.652 20.9219 119.65 20.9202 119.648C20.9185 119.645 20.9167 119.643 20.915 119.641C20.9133 119.638 20.9115 119.636 20.9098 119.634C20.9081 119.631 20.9063 119.629 20.9046 119.627C20.9029 119.624 20.9011 119.622 20.8994 119.62C20.8977 119.618 20.8959 119.615 20.8942 119.613C20.8925 119.611 20.8907 119.608 20.889 119.606C20.8872 119.604 20.8855 119.601 20.8838 119.599C20.882 119.597 20.8803 119.594 20.8786 119.592C20.8768 119.59 20.8751 119.587 20.8734 119.585C20.8716 119.583 20.8699 119.581 20.8682 119.578C20.8664 119.576 20.8647 119.574 20.863 119.571C20.8612 119.569 20.8595 119.567 20.8578 119.564C20.856 119.562 20.8543 119.56 20.8526 119.557C20.8508 119.555 20.8491 119.553 20.8474 119.55C20.8456 119.548 20.8439 119.546 20.8422 119.544C20.8404 119.541 20.8387 119.539 20.837 119.537C20.8352 119.534 20.8335 119.532 20.8318 119.53C20.83 119.527 20.8283 119.525 20.8265 119.523C20.8248 119.52 20.8231 119.518 20.8213 119.516C20.8196 119.513 20.8179 119.511 20.8161 119.509C20.8144 119.507 20.8127 119.504 20.8109 119.502C20.8092 119.5 20.8075 119.497 20.8057 119.495C20.804 119.493 20.8023 119.49 20.8005 119.488C20.7988 119.486 20.7971 119.483 20.7953 119.481C20.7936 119.479 20.7919 119.476 20.7901 119.474C20.7884 119.472 20.7867 119.47 20.7849 119.467C20.7832 119.465 20.7815 119.463 20.7797 119.46C20.778 119.458 20.7763 119.456 20.7745 119.453C20.7728 119.451 20.771 119.449 20.7693 119.446C20.7676 119.444 20.7658 119.442 20.7641 119.439C20.7624 119.437 20.7606 119.435 20.7589 119.433C20.7572 119.43 20.7554 119.428 20.7537 119.426C20.752 119.423 20.7502 119.421 20.7485 119.419C20.7468 119.416 20.745 119.414 20.7433 119.412C20.7416 119.409 20.7398 119.407 20.7381 119.405C20.7364 119.402 20.7346 119.4 20.7329 119.398C20.7312 119.396 20.7294 119.393 20.7277 119.391C20.726 119.389 20.7242 119.386 20.7225 119.384C20.7208 119.382 20.719 119.379 20.7173 119.377C20.7155 119.375 20.7138 119.372 20.7121 119.37C20.7103 119.368 20.7086 119.365 20.7069 119.363C20.7051 119.361 20.7034 119.359 20.7017 119.356C20.6999 119.354 20.6982 119.352 20.6965 119.349C20.6947 119.347 20.693 119.345 20.6913 119.342C20.6895 119.34 20.6878 119.338 20.6861 119.335C20.6843 119.333 20.6826 119.331 20.6809 119.328C20.6791 119.326 20.6774 119.324 20.6757 119.322C20.6739 119.319 20.6722 119.317 20.6705 119.315C20.6687 119.312 20.667 119.31 20.6653 119.308C20.6635 119.305 20.6618 119.303 20.66 119.301C20.6583 119.298 20.6566 119.296 20.6548 119.294C20.6531 119.291 20.6514 119.289 20.6496 119.287C20.6479 119.285 20.6462 119.282 20.6444 119.28C20.6427 119.278 20.641 119.275 20.6392 119.273C20.6375 119.271 20.6358 119.268 20.634 119.266C20.6323 119.264 20.6306 119.261 20.6288 119.259C20.6271 119.257 20.6254 119.254 20.6236 119.252C20.6219 119.25 20.6202 119.248 20.6184 119.245C20.6167 119.243 20.615 119.241 20.6132 119.238C20.6115 119.236 20.6098 119.234 20.608 119.231C20.6063 119.229 20.6045 119.227 20.6028 119.224C20.6011 119.222 20.5993 119.22 20.5976 119.217C20.5959 119.215 20.5941 119.213 20.5924 119.211C20.5907 119.208 20.5889 119.206 20.5872 119.204C20.5855 119.201 20.5837 119.199 20.582 119.197C20.5803 119.194 20.5785 119.192 20.5768 119.19C20.5751 119.187 20.5733 119.185 20.5716 119.183C20.5699 119.18 20.5681 119.178 20.5664 119.176C20.5647 119.174 20.5629 119.171 20.5612 119.169C20.5595 119.167 20.5577 119.164 20.556 119.162C20.5543 119.16 20.5525 119.157 20.5508 119.155C20.549 119.153 20.5473 119.15 20.5456 119.148C20.5438 119.146 20.5421 119.143 20.5404 119.141C20.5386 119.139 20.5369 119.137 20.5352 119.134C20.5334 119.132 20.5317 119.13 20.53 119.127C20.5282 119.125 20.5265 119.123 20.5248 119.12C20.523 119.118 20.5213 119.116 20.5196 119.113C20.5178 119.111 20.5161 119.109 20.5144 119.106C20.5126 119.104 20.5109 119.102 20.5092 119.1C20.5074 119.097 20.5057 119.095 20.504 119.093C20.5022 119.09 20.5005 119.088 20.4988 119.086C20.497 119.083 20.4953 119.081 20.4935 119.079C20.4918 119.076 20.4901 119.074 20.4883 119.072C20.4866 119.069 20.4849 119.067 20.4831 119.065C20.4814 119.063 20.4797 119.06 20.4779 119.058C20.4762 119.056 20.4745 119.053 20.4727 119.051C20.471 119.049 20.4693 119.046 20.4675 119.044C20.4658 119.042 20.4641 119.039 20.4623 119.037C20.4606 119.035 20.4589 119.032 20.4571 119.03C20.4554 119.028 20.4537 119.026 20.4519 119.023C20.4502 119.021 20.4485 119.019 20.4467 119.016C20.445 119.014 20.4433 119.012 20.4415 119.009C20.4398 119.007 20.438 119.005 20.4363 119.002C20.4346 119 20.4328 118.998 20.4311 118.995C20.4294 118.993 20.4276 118.991 20.4259 118.989C20.4242 118.986 20.4224 118.984 20.4207 118.982C20.419 118.979 20.4172 118.977 20.4155 118.975C20.4138 118.972 20.412 118.97 20.4103 118.968C20.4086 118.965 20.4068 118.963 20.4051 118.961C20.4034 118.958 20.4016 118.956 20.3999 118.954C20.3982 118.952 20.3964 118.949 20.3947 118.947C20.393 118.945 20.3912 118.942 20.3895 118.94C20.3878 118.938 20.386 118.935 20.3843 118.933L18.1676 120.596C18.1693 120.598 18.171 120.6 18.1728 120.603C18.1745 120.605 18.1763 120.607 18.178 120.609C18.1797 120.612 18.1815 120.614 18.1832 120.616C18.1849 120.619 18.1867 120.621 18.1884 120.623C18.1901 120.626 18.1919 120.628 18.1936 120.63C18.1953 120.633 18.1971 120.635 18.1988 120.637C18.2005 120.639 18.2023 120.642 18.204 120.644C18.2057 120.646 18.2075 120.649 18.2092 120.651C18.2109 120.653 18.2127 120.656 18.2144 120.658C18.2161 120.66 18.2179 120.663 18.2196 120.665C18.2213 120.667 18.2231 120.67 18.2248 120.672C18.2265 120.674 18.2283 120.676 18.23 120.679C18.2318 120.681 18.2335 120.683 18.2352 120.686C18.237 120.688 18.2387 120.69 18.2404 120.693C18.2422 120.695 18.2439 120.697 18.2456 120.7C18.2474 120.702 18.2491 120.704 18.2508 120.707C18.2526 120.709 18.2543 120.711 18.256 120.714C18.2578 120.716 18.2595 120.718 18.2612 120.72C18.263 120.723 18.2647 120.725 18.2664 120.727C18.2682 120.73 18.2699 120.732 18.2716 120.734C18.2734 120.737 18.2751 120.739 18.2768 120.741C18.2786 120.744 18.2803 120.746 18.282 120.748C18.2838 120.75 18.2855 120.753 18.2873 120.755C18.289 120.757 18.2907 120.76 18.2925 120.762C18.2942 120.764 18.2959 120.767 18.2977 120.769C18.2994 120.771 18.3011 120.774 18.3029 120.776C18.3046 120.778 18.3063 120.781 18.3081 120.783C18.3098 120.785 18.3115 120.787 18.3133 120.79C18.315 120.792 18.3167 120.794 18.3185 120.797C18.3202 120.799 18.3219 120.801 18.3237 120.804C18.3254 120.806 18.3271 120.808 18.3289 120.811C18.3306 120.813 18.3323 120.815 18.3341 120.818C18.3358 120.82 18.3375 120.822 18.3393 120.825C18.341 120.827 18.3428 120.829 18.3445 120.831C18.3462 120.834 18.348 120.836 18.3497 120.838C18.3514 120.841 18.3532 120.843 18.3549 120.845C18.3566 120.848 18.3584 120.85 18.3601 120.852C18.3618 120.855 18.3636 120.857 18.3653 120.859C18.367 120.861 18.3688 120.864 18.3705 120.866C18.3722 120.868 18.374 120.871 18.3757 120.873C18.3774 120.875 18.3792 120.878 18.3809 120.88C18.3826 120.882 18.3844 120.885 18.3861 120.887C18.3878 120.889 18.3896 120.892 18.3913 120.894C18.393 120.896 18.3948 120.898 18.3965 120.901C18.3983 120.903 18.4 120.905 18.4017 120.908C18.4035 120.91 18.4052 120.912 18.4069 120.915C18.4087 120.917 18.4104 120.919 18.4121 120.922C18.4139 120.924 18.4156 120.926 18.4173 120.929C18.4191 120.931 18.4208 120.933 18.4225 120.936C18.4243 120.938 18.426 120.94 18.4277 120.942C18.4295 120.945 18.4312 120.947 18.4329 120.949C18.4347 120.952 18.4364 120.954 18.4381 120.956C18.4399 120.959 18.4416 120.961 18.4433 120.963C18.4451 120.966 18.4468 120.968 18.4485 120.97C18.4503 120.972 18.452 120.975 18.4538 120.977C18.4555 120.979 18.4572 120.982 18.459 120.984C18.4607 120.986 18.4624 120.989 18.4642 120.991C18.4659 120.993 18.4676 120.996 18.4694 120.998C18.4711 121 18.4728 121.003 18.4746 121.005C18.4763 121.007 18.478 121.009 18.4798 121.012C18.4815 121.014 18.4832 121.016 18.485 121.019C18.4867 121.021 18.4884 121.023 18.4902 121.026C18.4919 121.028 18.4936 121.03 18.4954 121.033C18.4971 121.035 18.4988 121.037 18.5006 121.04C18.5023 121.042 18.504 121.044 18.5058 121.047C18.5075 121.049 18.5093 121.051 18.511 121.053C18.5127 121.056 18.5145 121.058 18.5162 121.06C18.5179 121.063 18.5197 121.065 18.5214 121.067C18.5231 121.07 18.5249 121.072 18.5266 121.074C18.5283 121.077 18.5301 121.079 18.5318 121.081C18.5335 121.083 18.5353 121.086 18.537 121.088C18.5387 121.09 18.5405 121.093 18.5422 121.095C18.5439 121.097 18.5457 121.1 18.5474 121.102C18.5491 121.104 18.5509 121.107 18.5526 121.109C18.5543 121.111 18.5561 121.114 18.5578 121.116C18.5595 121.118 18.5613 121.12 18.563 121.123C18.5648 121.125 18.5665 121.127 18.5682 121.13C18.57 121.132 18.5717 121.134 18.5734 121.137C18.5752 121.139 18.5769 121.141 18.5786 121.144C18.5804 121.146 18.5821 121.148 18.5838 121.151C18.5856 121.153 18.5873 121.155 18.589 121.158C18.5908 121.16 18.5925 121.162 18.5942 121.164C18.596 121.167 18.5977 121.169 18.5994 121.171C18.6012 121.174 18.6029 121.176 18.6046 121.178C18.6064 121.181 18.6081 121.183 18.6098 121.185C18.6116 121.188 18.6133 121.19 18.615 121.192C18.6168 121.194 18.6185 121.197 18.6203 121.199C18.622 121.201 18.6237 121.204 18.6255 121.206C18.6272 121.208 18.6289 121.211 18.6307 121.213C18.6324 121.215 18.6341 121.218 18.6359 121.22C18.6376 121.222 18.6393 121.225 18.6411 121.227C18.6428 121.229 18.6445 121.231 18.6463 121.234C18.648 121.236 18.6497 121.238 18.6515 121.241C18.6532 121.243 18.6549 121.245 18.6567 121.248C18.6584 121.25 18.6601 121.252 18.6619 121.255C18.6636 121.257 18.6653 121.259 18.6671 121.262C18.6688 121.264 18.6705 121.266 18.6723 121.269C18.674 121.271 18.6758 121.273 18.6775 121.275C18.6792 121.278 18.681 121.28 18.6827 121.282C18.6844 121.285 18.6862 121.287 18.6879 121.289C18.6896 121.292 18.6914 121.294 18.6931 121.296C18.6948 121.299 18.6966 121.301 18.6983 121.303C18.7 121.305 18.7018 121.308 18.7035 121.31C18.7052 121.312 18.707 121.315 18.7087 121.317C18.7104 121.319 18.7122 121.322 18.7139 121.324C18.7156 121.326 18.7174 121.329 18.7191 121.331C18.7208 121.333 18.7226 121.336 18.7243 121.338C18.726 121.34 18.7278 121.342 18.7295 121.345C18.7313 121.347 18.733 121.349 18.7347 121.352C18.7365 121.354 18.7382 121.356 18.7399 121.359C18.7417 121.361 18.7434 121.363 18.7451 121.366C18.7469 121.368 18.7486 121.37 18.7503 121.373C18.7521 121.375 18.7538 121.377 18.7555 121.38C18.7573 121.382 18.759 121.384 18.7607 121.386C18.7625 121.389 18.7642 121.391 18.7659 121.393C18.7677 121.396 18.7694 121.398 18.7711 121.4C18.7729 121.403 18.7746 121.405 18.7763 121.407C18.7781 121.41 18.7798 121.412 18.7815 121.414C18.7833 121.416 18.785 121.419 18.7868 121.421C18.7885 121.423 18.7902 121.426 18.792 121.428C18.7937 121.43 18.7954 121.433 18.7972 121.435C18.7989 121.437 18.8006 121.44 18.8024 121.442C18.8041 121.444 18.8058 121.447 18.8076 121.449C18.8093 121.451 18.811 121.453 18.8128 121.456C18.8145 121.458 18.8162 121.46 18.818 121.463C18.8197 121.465 18.8214 121.467 18.8232 121.47C18.8249 121.472 18.8266 121.474 18.8284 121.477C18.8301 121.479 18.8318 121.481 18.8336 121.484C18.8353 121.486 18.837 121.488 18.8388 121.491C18.8405 121.493 18.8423 121.495 18.844 121.497C18.8457 121.5 18.8475 121.502 18.8492 121.504C18.8509 121.507 18.8527 121.509 18.8544 121.511C18.8561 121.514 18.8579 121.516 18.8596 121.518C18.8613 121.521 18.8631 121.523 18.8648 121.525C18.8665 121.527 18.8683 121.53 18.87 121.532C18.8717 121.534 18.8735 121.537 18.8752 121.539C18.8769 121.541 18.8787 121.544 18.8804 121.546C18.8821 121.548 18.8839 121.551 18.8856 121.553C18.8873 121.555 18.8891 121.558 18.8908 121.56C18.8925 121.562 18.8943 121.564 18.896 121.567C18.8978 121.569 18.8995 121.571 18.9012 121.574C18.903 121.576 18.9047 121.578 18.9064 121.581C18.9082 121.583 18.9099 121.585 18.9116 121.588C18.9134 121.59 18.9151 121.592 18.9168 121.595C18.9186 121.597 18.9203 121.599 18.922 121.602C18.9238 121.604 18.9255 121.606 18.9272 121.608C18.929 121.611 18.9307 121.613 18.9324 121.615C18.9342 121.618 18.9359 121.62 18.9376 121.622C18.9394 121.625 18.9411 121.627 18.9428 121.629C18.9446 121.632 18.9463 121.634 18.948 121.636C18.9498 121.638 18.9515 121.641 18.9533 121.643C18.955 121.645 18.9567 121.648 18.9585 121.65C18.9602 121.652 18.9619 121.655 18.9637 121.657C18.9654 121.659 18.9671 121.662 18.9689 121.664C18.9706 121.666 18.9723 121.669 18.9741 121.671C18.9758 121.673 18.9775 121.675 18.9793 121.678C18.981 121.68 18.9827 121.682 18.9845 121.685C18.9862 121.687 18.9879 121.689 18.9897 121.692C18.9914 121.694 18.9931 121.696 18.9949 121.699C18.9966 121.701 18.9983 121.703 19.0001 121.706C19.0018 121.708 19.0035 121.71 19.0053 121.713C19.007 121.715 19.0088 121.717 19.0105 121.719C19.0122 121.722 19.014 121.724 19.0157 121.726C19.0174 121.729 19.0192 121.731 19.0209 121.733C19.0226 121.736 19.0244 121.738 19.0261 121.74C19.0278 121.743 19.0296 121.745 19.0313 121.747C19.033 121.749 19.0348 121.752 19.0365 121.754C19.0382 121.756 19.04 121.759 19.0417 121.761C19.0434 121.763 19.0452 121.766 19.0469 121.768C19.0486 121.77 19.0504 121.773 19.0521 121.775C19.0538 121.777 19.0556 121.78 19.0573 121.782C19.059 121.784 19.0608 121.786 19.0625 121.789C19.0643 121.791 19.066 121.793 19.0677 121.796C19.0695 121.798 19.0712 121.8 19.0729 121.803C19.0747 121.805 19.0764 121.807 19.0781 121.81C19.0799 121.812 19.0816 121.814 19.0833 121.817C19.0851 121.819 19.0868 121.821 19.0885 121.824C19.0903 121.826 19.092 121.828 19.0937 121.83C19.0955 121.833 19.0972 121.835 19.0989 121.837C19.1007 121.84 19.1024 121.842 19.1041 121.844C19.1059 121.847 19.1076 121.849 19.1093 121.851C19.1111 121.854 19.1128 121.856 19.1145 121.858C19.1163 121.86 19.118 121.863 19.1198 121.865C19.1215 121.867 19.1232 121.87 19.125 121.872C19.1267 121.874 19.1284 121.877 19.1302 121.879C19.1319 121.881 19.1336 121.884 19.1354 121.886C19.1371 121.888 19.1388 121.891 19.1406 121.893C19.1423 121.895 19.144 121.897 19.1458 121.9C19.1475 121.902 19.1492 121.904 19.151 121.907C19.1527 121.909 19.1544 121.911 19.1562 121.914C19.1579 121.916 19.1596 121.918 19.1614 121.921C19.1631 121.923 19.1648 121.925 19.1666 121.928C19.1683 121.93 19.17 121.932 19.1718 121.935C19.1735 121.937 19.1753 121.939 19.177 121.941C19.1787 121.944 19.1805 121.946 19.1822 121.948C19.1839 121.951 19.1857 121.953 19.1874 121.955C19.1891 121.958 19.1909 121.96 19.1926 121.962C19.1943 121.965 19.1961 121.967 19.1978 121.969C19.1995 121.971 19.2013 121.974 19.203 121.976C19.2047 121.978 19.2065 121.981 19.2082 121.983C19.2099 121.985 19.2117 121.988 19.2134 121.99C19.2151 121.992 19.2169 121.995 19.2186 121.997C19.2203 121.999 19.2221 122.002 19.2238 122.004C19.2255 122.006 19.2273 122.008 19.229 122.011C19.2308 122.013 19.2325 122.015 19.2342 122.018C19.236 122.02 19.2377 122.022 19.2394 122.025C19.2412 122.027 19.2429 122.029 19.2446 122.032C19.2464 122.034 19.2481 122.036 19.2498 122.039C19.2516 122.041 19.2533 122.043 19.255 122.046C19.2568 122.048 19.2585 122.05 19.2602 122.052C19.262 122.055 19.2637 122.057 19.2654 122.059C19.2672 122.062 19.2689 122.064 19.2706 122.066C19.2724 122.069 19.2741 122.071 19.2758 122.073C19.2776 122.076 19.2793 122.078 19.281 122.08C19.2828 122.082 19.2845 122.085 19.2863 122.087C19.288 122.089 19.2897 122.092 19.2915 122.094C19.2932 122.096 19.2949 122.099 19.2967 122.101C19.2984 122.103 19.3001 122.106 19.3019 122.108C19.3036 122.11 19.3053 122.113 19.3071 122.115C19.3088 122.117 19.3105 122.119 19.3123 122.122C19.314 122.124 19.3157 122.126 19.3175 122.129C19.3192 122.131 19.3209 122.133 19.3227 122.136C19.3244 122.138 19.3261 122.14 19.3279 122.143C19.3296 122.145 19.3313 122.147 19.3331 122.15C19.3348 122.152 19.3365 122.154 19.3383 122.157C19.34 122.159 19.3418 122.161 19.3435 122.163C19.3452 122.166 19.347 122.168 19.3487 122.17C19.3504 122.173 19.3522 122.175 19.3539 122.177C19.3556 122.18 19.3574 122.182 19.3591 122.184C19.3608 122.187 19.3626 122.189 19.3643 122.191C19.366 122.193 19.3678 122.196 19.3695 122.198C19.3712 122.2 19.373 122.203 19.3747 122.205C19.3764 122.207 19.3782 122.21 19.3799 122.212C19.3816 122.214 19.3834 122.217 19.3851 122.219C19.3868 122.221 19.3886 122.224 19.3903 122.226C19.392 122.228 19.3938 122.23 19.3955 122.233C19.3973 122.235 19.399 122.237 19.4007 122.24C19.4025 122.242 19.4042 122.244 19.4059 122.247C19.4077 122.249 19.4094 122.251 19.4111 122.254C19.4129 122.256 19.4146 122.258 19.4163 122.261C19.4181 122.263 19.4198 122.265 19.4215 122.268C19.4233 122.27 19.425 122.272 19.4267 122.274C19.4285 122.277 19.4302 122.279 19.4319 122.281C19.4337 122.284 19.4354 122.286 19.4371 122.288C19.4389 122.291 19.4406 122.293 19.4423 122.295C19.4441 122.298 19.4458 122.3 19.4475 122.302C19.4493 122.304 19.451 122.307 19.4528 122.309C19.4545 122.311 19.4562 122.314 19.458 122.316C19.4597 122.318 19.4614 122.321 19.4632 122.323C19.4649 122.325 19.4666 122.328 19.4684 122.33C19.4701 122.332 19.4718 122.335 19.4736 122.337C19.4753 122.339 19.477 122.341 19.4788 122.344C19.4805 122.346 19.4822 122.348 19.484 122.351C19.4857 122.353 19.4874 122.355 19.4892 122.358C19.4909 122.36 19.4926 122.362 19.4944 122.365C19.4961 122.367 19.4978 122.369 19.4996 122.372C19.5013 122.374 19.503 122.376 19.5048 122.379C19.5065 122.381 19.5083 122.383 19.51 122.385C19.5117 122.388 19.5135 122.39 19.5152 122.392C19.5169 122.395 19.5187 122.397 19.5204 122.399C19.5221 122.402 19.5239 122.404 19.5256 122.406C19.5273 122.409 19.5291 122.411 19.5308 122.413C19.5325 122.415 19.5343 122.418 19.536 122.42C19.5377 122.422 19.5395 122.425 19.5412 122.427C19.5429 122.429 19.5447 122.432 19.5464 122.434C19.5481 122.436 19.5499 122.439 19.5516 122.441C19.5533 122.443 19.5551 122.446 19.5568 122.448C19.5585 122.45 19.5603 122.452 19.562 122.455C19.5638 122.457 19.5655 122.459 19.5672 122.462C19.569 122.464 19.5707 122.466 19.5724 122.469C19.5742 122.471 19.5759 122.473 19.5776 122.476C19.5794 122.478 19.5811 122.48 19.5828 122.483C19.5846 122.485 19.5863 122.487 19.588 122.49C19.5898 122.492 19.5915 122.494 19.5932 122.496C19.595 122.499 19.5967 122.501 19.5984 122.503C19.6002 122.506 19.6019 122.508 19.6036 122.51C19.6054 122.513 19.6071 122.515 19.6088 122.517C19.6106 122.52 19.6123 122.522 19.614 122.524C19.6158 122.527 19.6175 122.529 19.6193 122.531C19.621 122.533 19.6227 122.536 19.6245 122.538C19.6262 122.54 19.6279 122.543 19.6297 122.545C19.6314 122.547 19.6331 122.55 19.6349 122.552C19.6366 122.554 19.6383 122.557 19.6401 122.559C19.6418 122.561 19.6435 122.563 19.6453 122.566C19.647 122.568 19.6487 122.57 19.6505 122.573C19.6522 122.575 19.6539 122.577 19.6557 122.58C19.6574 122.582 19.6591 122.584 19.6609 122.587C19.6626 122.589 19.6643 122.591 19.6661 122.594C19.6678 122.596 19.6695 122.598 19.6713 122.6C19.673 122.603 19.6748 122.605 19.6765 122.607C19.6782 122.61 19.68 122.612 19.6817 122.614C19.6834 122.617 19.6852 122.619 19.6869 122.621C19.6886 122.624 19.6904 122.626 19.6921 122.628C19.6938 122.631 19.6956 122.633 19.6973 122.635C19.699 122.637 19.7008 122.64 19.7025 122.642C19.7042 122.644 19.706 122.647 19.7077 122.649C19.7094 122.651 19.7112 122.654 19.7129 122.656C19.7146 122.658 19.7164 122.661 19.7181 122.663C19.7198 122.665 19.7216 122.668 19.7233 122.67C19.725 122.672 19.7268 122.674 19.7285 122.677C19.7303 122.679 19.732 122.681 19.7337 122.684C19.7355 122.686 19.7372 122.688 19.7389 122.691C19.7407 122.693 19.7424 122.695 19.7441 122.698C19.7459 122.7 19.7476 122.702 19.7493 122.705C19.7511 122.707 19.7528 122.709 19.7545 122.712C19.7563 122.714 19.758 122.716 19.7597 122.718C19.7615 122.721 19.7632 122.723 19.7649 122.725C19.7667 122.728 19.7684 122.73 19.7701 122.732C19.7719 122.735 19.7736 122.737 19.7753 122.739C19.7771 122.742 19.7788 122.744 19.7805 122.746C19.7823 122.749 19.784 122.751 19.7858 122.753C19.7875 122.755 19.7892 122.758 19.791 122.76C19.7927 122.762 19.7944 122.765 19.7962 122.767C19.7979 122.769 19.7996 122.772 19.8014 122.774C19.8031 122.776 19.8048 122.779 19.8066 122.781C19.8083 122.783 19.81 122.785 19.8118 122.788C19.8135 122.79 19.8152 122.792 19.817 122.795C19.8187 122.797 19.8204 122.799 19.8222 122.802C19.8239 122.804 19.8256 122.806 19.8274 122.809C19.8291 122.811 19.8308 122.813 19.8326 122.816C19.8343 122.818 19.836 122.82 19.8378 122.822C19.8395 122.825 19.8413 122.827 19.843 122.829C19.8447 122.832 19.8465 122.834 19.8482 122.836C19.8499 122.839 19.8517 122.841 19.8534 122.843C19.8551 122.846 19.8569 122.848 19.8586 122.85C19.8603 122.853 19.8621 122.855 19.8638 122.857C19.8655 122.859 19.8673 122.862 19.869 122.864C19.8707 122.866 19.8725 122.869 19.8742 122.871C19.8759 122.873 19.8777 122.876 19.8794 122.878C19.8811 122.88 19.8829 122.883 19.8846 122.885C19.8863 122.887 19.8881 122.89 19.8898 122.892C19.8915 122.894 19.8933 122.896 19.895 122.899C19.8968 122.901 19.8985 122.903 19.9002 122.906C19.902 122.908 19.9037 122.91 19.9054 122.913C19.9072 122.915 19.9089 122.917 19.9106 122.92C19.9124 122.922 19.9141 122.924 19.9158 122.927C19.9176 122.929 19.9193 122.931 19.921 122.934C19.9228 122.936 19.9245 122.938 19.9262 122.94C19.928 122.943 19.9297 122.945 19.9314 122.947C19.9332 122.95 19.9349 122.952 19.9366 122.954C19.9384 122.957 19.9401 122.959 19.9418 122.961C19.9436 122.964 19.9453 122.966 19.947 122.968C19.9488 122.971 19.9505 122.973 19.9523 122.975C19.954 122.977 19.9557 122.98 19.9575 122.982C19.9592 122.984 19.9609 122.987 19.9627 122.989C19.9644 122.991 19.9661 122.994 19.9679 122.996C19.9696 122.998 19.9713 123.001 19.9731 123.003C19.9748 123.005 19.9765 123.007 19.9783 123.01C19.98 123.012 19.9817 123.014 19.9835 123.017C19.9852 123.019 19.9869 123.021 19.9887 123.024C19.9904 123.026 19.9921 123.028 19.9939 123.031C19.9956 123.033 19.9973 123.035 19.9991 123.038C20.0008 123.04 20.0025 123.042 20.0043 123.044C20.006 123.047 20.0078 123.049 20.0095 123.051C20.0112 123.054 20.013 123.056 20.0147 123.058C20.0164 123.061 20.0182 123.063 20.0199 123.065C20.0216 123.068 20.0234 123.07 20.0251 123.072C20.0268 123.075 20.0286 123.077 20.0303 123.079C20.032 123.081 20.0338 123.084 20.0355 123.086C20.0372 123.088 20.039 123.091 20.0407 123.093C20.0424 123.095 20.0442 123.098 20.0459 123.1C20.0476 123.102 20.0494 123.105 20.0511 123.107C20.0528 123.109 20.0546 123.112 20.0563 123.114C20.058 123.116 20.0598 123.118 20.0615 123.121C20.0633 123.123 20.065 123.125 20.0667 123.128C20.0685 123.13 20.0702 123.132 20.0719 123.135C20.0737 123.137 20.0754 123.139 20.0771 123.142C20.0789 123.144 20.0806 123.146 20.0823 123.149C20.0841 123.151 20.0858 123.153 20.0875 123.156C20.0893 123.158 20.091 123.16 20.0927 123.162C20.0945 123.165 20.0962 123.167 20.0979 123.169C20.0997 123.172 20.1014 123.174 20.1031 123.176C20.1049 123.179 20.1066 123.181 20.1083 123.183C20.1101 123.186 20.1118 123.188 20.1135 123.19C20.1153 123.193 20.117 123.195 20.1188 123.197C20.1205 123.199 20.1222 123.202 20.124 123.204C20.1257 123.206 20.1274 123.209 20.1292 123.211C20.1309 123.213 20.1326 123.216 20.1344 123.218C20.1361 123.22 20.1378 123.223 20.1396 123.225C20.1413 123.227 20.143 123.229 20.1448 123.232C20.1465 123.234 20.1482 123.236 20.15 123.239C20.1517 123.241 20.1534 123.243 20.1552 123.246C20.1569 123.248 20.1586 123.25 20.1604 123.253C20.1621 123.255 20.1638 123.257 20.1656 123.26C20.1673 123.262 20.169 123.264 20.1708 123.266C20.1725 123.269 20.1743 123.271 20.176 123.273C20.1777 123.276 20.1795 123.278 20.1812 123.28C20.1829 123.283 20.1847 123.285 20.1864 123.287C20.1881 123.29 20.1899 123.292 20.1916 123.294C20.1933 123.297 20.1951 123.299 20.1968 123.301C20.1985 123.303 20.2003 123.306 20.202 123.308C20.2037 123.31 20.2055 123.313 20.2072 123.315C20.2089 123.317 20.2107 123.32 20.2124 123.322C20.2141 123.324 20.2159 123.327 20.2176 123.329C20.2193 123.331 20.2211 123.334 20.2228 123.336C20.2245 123.338 20.2263 123.34 20.228 123.343C20.2298 123.345 20.2315 123.347 20.2332 123.35C20.235 123.352 20.2367 123.354 20.2384 123.357C20.2402 123.359 20.2419 123.361 20.2436 123.364C20.2454 123.366 20.2471 123.368 20.2488 123.371C20.2506 123.373 20.2523 123.375 20.254 123.378C20.2558 123.38 20.2575 123.382 20.2592 123.384C20.261 123.387 20.2627 123.389 20.2644 123.391C20.2662 123.394 20.2679 123.396 20.2696 123.398C20.2714 123.401 20.2731 123.403 20.2748 123.405C20.2766 123.408 20.2783 123.41 20.28 123.412C20.2818 123.415 20.2835 123.417 20.2853 123.419C20.287 123.421 20.2887 123.424 20.2905 123.426C20.2922 123.428 20.2939 123.431 20.2957 123.433C20.2974 123.435 20.2991 123.438 20.3009 123.44C20.3026 123.442 20.3043 123.445 20.3061 123.447C20.3078 123.449 20.3095 123.451 20.3113 123.454C20.313 123.456 20.3147 123.458 20.3165 123.461C20.3182 123.463 20.3199 123.465 20.3217 123.468C20.3234 123.47 20.3251 123.472 20.3269 123.475C20.3286 123.477 20.3303 123.479 20.3321 123.482C20.3338 123.484 20.3355 123.486 20.3373 123.488C20.339 123.491 20.3408 123.493 20.3425 123.495C20.3442 123.498 20.346 123.5 20.3477 123.502C20.3494 123.505 20.3512 123.507 20.3529 123.509C20.3546 123.512 20.3564 123.514 20.3581 123.516C20.3598 123.519 20.3616 123.521 20.3633 123.523C20.365 123.525 20.3668 123.528 20.3685 123.53C20.3702 123.532 20.372 123.535 20.3737 123.537C20.3754 123.539 20.3772 123.542 20.3789 123.544C20.3806 123.546 20.3824 123.549 20.3841 123.551C20.3858 123.553 20.3876 123.556 20.3893 123.558C20.391 123.56 20.3928 123.562 20.3945 123.565C20.3963 123.567 20.398 123.569 20.3997 123.572C20.4015 123.574 20.4032 123.576 20.4049 123.579C20.4067 123.581 20.4084 123.583 20.4101 123.586C20.4119 123.588 20.4136 123.59 20.4153 123.593C20.4171 123.595 20.4188 123.597 20.4205 123.6C20.4223 123.602 20.424 123.604 20.4257 123.606C20.4275 123.609 20.4292 123.611 20.4309 123.613C20.4327 123.616 20.4344 123.618 20.4361 123.62C20.4379 123.623 20.4396 123.625 20.4413 123.627C20.4431 123.63 20.4448 123.632 20.4465 123.634C20.4483 123.637 20.45 123.639 20.4518 123.641C20.4535 123.643 20.4552 123.646 20.457 123.648C20.4587 123.65 20.4604 123.653 20.4622 123.655C20.4639 123.657 20.4656 123.66 20.4674 123.662C20.4691 123.664 20.4708 123.667 20.4726 123.669C20.4743 123.671 20.476 123.673 20.4778 123.676C20.4795 123.678 20.4812 123.68 20.483 123.683C20.4847 123.685 20.4864 123.687 20.4882 123.69C20.4899 123.692 20.4916 123.694 20.4934 123.697C20.4951 123.699 20.4968 123.701 20.4986 123.704C20.5003 123.706 20.502 123.708 20.5038 123.71C20.5055 123.713 20.5073 123.715 20.509 123.717C20.5107 123.72 20.5125 123.722 20.5142 123.724C20.5159 123.727 20.5177 123.729 20.5194 123.731C20.5211 123.734 20.5229 123.736 20.5246 123.738C20.5263 123.741 20.5281 123.743 20.5298 123.745C20.5315 123.747 20.5333 123.75 20.535 123.752C20.5367 123.754 20.5385 123.757 20.5402 123.759C20.5419 123.761 20.5437 123.764 20.5454 123.766C20.5471 123.768 20.5489 123.771 20.5506 123.773C20.5523 123.775 20.5541 123.778 20.5558 123.78C20.5575 123.782 20.5593 123.785 20.561 123.787C20.5628 123.789 20.5645 123.791 20.5662 123.794C20.568 123.796 20.5697 123.798 20.5714 123.801C20.5732 123.803 20.5749 123.805 20.5766 123.808C20.5784 123.81 20.5801 123.812 20.5818 123.815C20.5836 123.817 20.5853 123.819 20.587 123.822C20.5888 123.824 20.5905 123.826 20.5922 123.828C20.594 123.831 20.5957 123.833 20.5974 123.835C20.5992 123.838 20.6009 123.84 20.6026 123.842C20.6044 123.845 20.6061 123.847 20.6078 123.849C20.6096 123.852 20.6113 123.854 20.613 123.856C20.6148 123.859 20.6165 123.861 20.6183 123.863C20.62 123.865 20.6217 123.868 20.6235 123.87C20.6252 123.872 20.6269 123.875 20.6287 123.877C20.6304 123.879 20.6321 123.882 20.6339 123.884C20.6356 123.886 20.6373 123.889 20.6391 123.891C20.6408 123.893 20.6425 123.895 20.6443 123.898C20.646 123.9 20.6477 123.902 20.6495 123.905C20.6512 123.907 20.6529 123.909 20.6547 123.912C20.6564 123.914 20.6581 123.916 20.6599 123.919C20.6616 123.921 20.6633 123.923 20.6651 123.926C20.6668 123.928 20.6685 123.93 20.6703 123.932C20.672 123.935 20.6738 123.937 20.6755 123.939C20.6772 123.942 20.679 123.944 20.6807 123.946C20.6824 123.949 20.6842 123.951 20.6859 123.953C20.6876 123.956 20.6894 123.958 20.6911 123.96C20.6928 123.963 20.6946 123.965 20.6963 123.967C20.698 123.969 20.6998 123.972 20.7015 123.974C20.7032 123.976 20.705 123.979 20.7067 123.981C20.7084 123.983 20.7102 123.986 20.7119 123.988C20.7136 123.99 20.7154 123.993 20.7171 123.995C20.7188 123.997 20.7206 124 20.7223 124.002C20.724 124.004 20.7258 124.007 20.7275 124.009C20.7293 124.011 20.731 124.013 20.7327 124.016C20.7345 124.018 20.7362 124.02 20.7379 124.023C20.7397 124.025 20.7414 124.027 20.7431 124.03C20.7449 124.032 20.7466 124.034 20.7483 124.037C20.7501 124.039 20.7518 124.041 20.7535 124.044C20.7553 124.046 20.757 124.048 20.7587 124.05C20.7605 124.053 20.7622 124.055 20.7639 124.057C20.7657 124.06 20.7674 124.062 20.7691 124.064C20.7709 124.067 20.7726 124.069 20.7743 124.071C20.7761 124.074 20.7778 124.076 20.7795 124.078C20.7813 124.081 20.783 124.083 20.7848 124.085C20.7865 124.087 20.7882 124.09 20.79 124.092C20.7917 124.094 20.7934 124.097 20.7952 124.099C20.7969 124.101 20.7986 124.104 20.8004 124.106C20.8021 124.108 20.8038 124.111 20.8056 124.113C20.8073 124.115 20.809 124.117 20.8108 124.12C20.8125 124.122 20.8142 124.124 20.816 124.127C20.8177 124.129 20.8194 124.131 20.8212 124.134C20.8229 124.136 20.8246 124.138 20.8264 124.141C20.8281 124.143 20.8298 124.145 20.8316 124.148L23.0483 122.485ZM20.3843 118.933C19.4797 117.727 18.573 116.593 17.6638 115.533L15.56 117.336C16.4269 118.347 17.2961 119.434 18.1676 120.596L20.3843 118.933ZM17.7203 115.603C16.6233 114.14 15.1386 113.217 13.3316 112.856L12.7882 115.573C13.9413 115.803 14.8245 116.36 15.5036 117.266L17.7203 115.603ZM11.7456 113.776C10.5192 117.455 9.89849 121.081 9.89849 124.648H12.6694C12.6694 121.407 13.2327 118.077 14.3743 114.652L11.7456 113.776ZM9.89849 124.648C9.89849 126.026 9.97481 127.764 10.124 129.853L12.8878 129.656C12.7411 127.6 12.6694 125.935 12.6694 124.648H9.89849ZM10.1366 129.965C10.4302 131.874 10.7245 134.006 11.0192 136.364L13.7687 136.02C13.4714 133.642 13.1736 131.483 12.8753 129.544L10.1366 129.965ZM11.0354 136.464C11.4666 138.62 11.7549 140.852 11.8992 143.161L14.6647 142.988C14.513 140.561 14.2093 138.205 13.7525 135.921L11.0354 136.464ZM11.9072 143.246C12.1977 145.57 12.3405 147.657 12.3405 149.512H15.1114C15.1114 147.519 14.9582 145.315 14.6567 142.902L11.9072 143.246ZM12.7463 148.533C12.1887 149.09 11.3261 149.459 9.95193 149.459V152.23C11.8338 152.23 13.4872 151.71 14.7056 150.492L12.7463 148.533ZM9.95193 149.459C8.59206 149.459 7.48524 149.094 6.56519 148.404L4.90267 150.621C6.35062 151.707 8.0558 152.23 9.95193 152.23V149.459ZM6.63556 148.46C5.70869 147.666 4.91209 146.738 4.24478 145.67L1.89508 147.139C2.70777 148.439 3.68717 149.583 4.8323 150.564L6.63556 148.46ZM4.24478 145.67C3.58621 144.616 3.12944 143.505 2.86838 142.33L0.163483 142.931C0.494418 144.42 1.07365 145.824 1.89508 147.139L4.24478 145.67ZM2.87446 142.359C2.59174 140.945 2.45737 139.706 2.45737 138.634H-0.313508C-0.313508 139.93 -0.151879 141.356 0.157396 142.902L2.87446 142.359ZM2.4573 138.648C2.60513 123.274 3.04859 108.493 3.78749 94.3064L1.02037 94.1622C0.27927 108.391 -0.165271 123.211 -0.313444 138.621L2.4573 138.648ZM3.78749 94.3064C4.52873 80.0746 4.89937 65.9166 4.89937 51.8323H2.12849C2.12849 65.868 1.75913 79.978 1.02037 94.1622L3.78749 94.3064ZM4.89937 51.8323C4.89937 43.9621 4.67663 36.1655 4.23107 28.4425L1.46479 28.6021C1.90723 36.2711 2.12849 44.0144 2.12849 51.8323H4.89937ZM4.23238 28.4701C3.93442 20.5741 3.1896 12.6058 1.99841 4.56526L-0.74255 4.97133C0.434262 12.9148 1.16944 20.7825 1.46348 28.5745L4.23238 28.4701ZM1.96455 5.13283C2.36659 3.65866 2.92212 2.7729 3.51286 2.28061L1.73899 0.151967C0.553742 1.13968 -0.222735 2.62192 -0.708691 4.40377L1.96455 5.13283ZM3.4312 2.34367C4.25091 1.75816 5.08283 1.49173 5.95593 1.49173V-1.27915C4.46103 -1.27915 3.07295 -0.805578 1.82066 0.0889125L3.4312 2.34367ZM5.95593 1.49173C6.74847 1.49173 7.43861 1.77227 8.08428 2.41794L10.0436 0.458633C8.91325 -0.671692 7.53139 -1.27915 5.95593 -1.27915V1.49173ZM8.1623 2.49019C8.90839 3.1297 9.44723 4.07625 9.69884 5.46013L12.425 4.96446C12.0846 3.09233 11.2915 1.52289 9.96556 0.386387L8.1623 2.49019ZM9.67649 5.21229V48.7243H12.4474V5.21229H9.67649ZM12.0974 49.6447C15.6926 45.6002 18.9161 41.4025 21.7668 37.0516L19.4491 35.533C16.6757 39.7661 13.5353 43.8564 10.0264 47.8039L12.0974 49.6447ZM21.7668 37.0516C24.5708 32.7717 27.3742 28.6405 30.177 24.6576L27.9109 23.063C25.0897 27.0721 22.2691 31.2288 19.4491 35.533L21.7668 37.0516ZM30.1903 24.6382C32.9703 20.5414 35.9689 16.6653 39.186 13.0096L37.1059 11.179C33.811 14.9232 30.7415 18.8912 27.8975 23.0824L30.1903 24.6382ZM39.2036 12.9892C42.3837 9.23081 46.0744 5.8282 50.2805 2.78242L48.6554 0.538173C44.2774 3.70838 40.4201 7.26177 37.0883 11.1994L39.2036 12.9892ZM50.4476 2.63994C50.46 2.6275 50.4684 2.62142 50.4723 2.61879C50.4761 2.61626 50.4789 2.61486 50.482 2.61364C50.4857 2.61216 50.5121 2.60173 50.5779 2.60173V-0.169147C49.7912 -0.169147 49.0611 0.107842 48.4883 0.680652L50.4476 2.63994ZM50.5779 2.60173C50.5316 2.60173 50.4774 2.5934 50.4236 2.57382C50.3708 2.55463 50.3372 2.53155 50.323 2.52013C50.3103 2.50999 50.3189 2.51397 50.3437 2.54705C50.3687 2.58032 50.4051 2.6365 50.4488 2.72387L52.9271 1.48471C52.5253 0.681151 51.7834 -0.169147 50.5779 -0.169147V2.60173ZM50.5352 2.87279C50.9935 3.56027 51.644 4.07529 52.4004 4.45347L53.6395 1.97511C53.2119 1.7613 52.9744 1.53632 52.8407 1.33579L50.5352 2.87279ZM51.6466 3.03119C51.3854 4.99033 50.6025 6.83751 49.2578 8.58557L51.4541 10.275C53.0694 8.17506 54.0624 5.87824 54.3932 3.3974L51.6466 3.03119ZM49.2168 8.64169C47.9263 10.5058 46.767 11.7777 45.7507 12.5399L47.4132 14.7566C48.7648 13.7429 50.1215 12.2028 51.495 10.2189L49.2168 8.64169ZM45.3428 13.0287C43.1559 17.4024 40.6798 21.4799 37.9153 25.2629L40.1525 26.8977C43.012 22.9847 45.5679 18.7742 47.8211 14.2679L45.3428 13.0287ZM37.9096 25.2708C35.2527 28.9609 32.5218 32.6513 29.7169 36.342L31.923 38.0186C34.742 34.3093 37.4872 30.5997 40.1583 26.8898L37.9096 25.2708ZM29.6956 36.3708C27.0316 40.0708 24.3676 43.7708 21.7036 47.4708L23.9523 49.0898C26.6163 45.3898 29.2803 41.6898 31.9443 37.9898L29.6956 36.3708ZM21.6823 47.5012C19.1183 51.2717 16.8592 55.3392 14.9037 59.7016L17.4322 60.835C19.3246 56.6134 21.5055 52.6888 23.9736 49.0593L21.6823 47.5012ZM16.1679 58.8829C14.8474 58.8829 13.6962 59.4487 12.7463 60.3986L14.7056 62.3579C15.2357 61.8278 15.7124 61.6537 16.1679 61.6537V58.8829ZM12.6441 60.5128C12.1212 61.1664 11.4505 61.8411 10.619 62.534L12.3929 64.6626C13.3374 63.8755 14.1466 63.0702 14.8078 62.2438L12.6441 60.5128ZM10.1221 63.6658C10.4176 69.722 10.6392 75.8525 10.7869 82.0573L13.557 81.9913C13.4087 75.7641 13.1863 69.6106 12.8897 63.5308L10.1221 63.6658ZM10.7869 82.0573C10.9347 88.2634 11.0085 94.1724 11.0085 99.7843H13.7794C13.7794 94.1482 13.7052 88.2172 13.557 81.9913L10.7869 82.0573ZM12.1386 101.146C14.321 101.555 16.2843 102.37 18.0433 103.587L19.6205 101.309C17.5316 99.863 15.2029 98.9014 12.6493 98.4226L12.1386 101.146ZM18.1446 103.651C20.1263 104.784 21.9669 106.129 23.6678 107.688L25.5401 105.645C23.6889 103.948 21.6816 102.481 19.5193 101.245L18.1446 103.651ZM23.6678 107.688C25.4142 109.288 27.0878 110.962 28.6887 112.708L30.7312 110.836C29.0761 109.031 27.3457 107.3 25.5401 105.645L23.6678 107.688ZM28.7303 112.752C30.5472 114.569 32.4421 116.237 34.4152 117.754L36.1046 115.558C34.2298 114.116 32.4247 112.528 30.6896 110.793L28.7303 112.752ZM42.6327 79.5043C41.671 78.9272 40.6094 78.6409 39.4779 78.6409V81.4117C40.1225 81.4117 40.6889 81.5694 41.2071 81.8803L42.6327 79.5043ZM39.7057 78.6597C38.7435 78.4993 37.7793 78.4189 36.8139 78.4189V81.1897C37.6246 81.1897 38.4364 81.2573 39.2502 81.3929L39.7057 78.6597ZM36.8139 78.4189C35.9117 78.4189 35.0037 78.2902 34.0865 78.0282L33.3253 80.6924C34.4801 81.0224 35.6441 81.1897 36.8139 81.1897V78.4189ZM34.3255 78.1211C34.1157 78.0162 34 77.8941 33.9232 77.7534C33.8388 77.5986 33.7594 77.3412 33.7594 76.9183H30.9885C30.9885 77.6794 31.1311 78.421 31.4907 79.0802C31.8579 79.7534 32.4082 80.2604 33.0863 80.5995L34.3255 78.1211ZM33.7594 76.9183C33.7594 76.485 33.8642 76.2857 33.9457 76.1861C34.0302 76.0829 34.2188 75.9296 34.6725 75.8287L34.0714 73.1239C33.1931 73.319 32.3827 73.7207 31.8012 74.4315C31.2166 75.1459 30.9885 76.0196 30.9885 76.9183H33.7594ZM34.77 75.8033C36.3727 75.3225 37.7205 74.6411 38.6816 73.6799L36.7223 71.7206C36.2034 72.2395 35.3311 72.7421 33.9738 73.1493L34.77 75.8033ZM37.7019 74.0857C41.0241 74.0857 43.1856 75.2487 44.5118 77.4187L46.8761 75.9739C44.9462 72.8159 41.7798 71.3149 37.7019 71.3149V74.0857ZM44.7143 75.7166C43.8027 76.6282 43.1665 77.7243 42.8078 78.9797L45.4721 79.7409C45.7054 78.9243 46.1051 78.2444 46.6736 77.6759L44.7143 75.7166ZM42.8256 78.9222C42.7726 79.0811 42.7117 79.1344 42.6501 79.1713C42.5612 79.2247 42.3505 79.3069 41.9199 79.3069V82.0777C42.6733 82.0777 43.4247 81.9379 44.0757 81.5473C44.7542 81.1402 45.2112 80.5275 45.4543 79.7984L42.8256 78.9222Z" fill="#F0F0F0" mask="url(#path-1-outside-1_1172_1737)"/>
</svg>
