<svg width="44" height="156" viewBox="0 0 44 156" fill="none" xmlns="http://www.w3.org/2000/svg">
<mask id="path-1-outside-1_1172_1736" maskUnits="userSpaceOnUse" x="-1.10742" y="-2.4917" width="47" height="160" fill="black">
<rect fill="white" x="-1.10742" y="-2.4917" width="47" height="160"/>
<path d="M41.7406 10.5423C42.0366 34.3703 42.1846 57.5323 42.1846 80.0283C42.1846 102.524 42.5546 125.316 43.2946 148.404C43.2946 149.44 42.6286 149.958 41.2966 149.958L35.9686 147.294C34.7846 143.002 33.9706 138.266 33.5266 133.086C33.0826 127.758 32.8606 122.134 32.8606 116.214C32.8606 110.294 33.0086 103.634 33.3046 96.2343C33.6006 88.6863 33.9706 81.2863 34.4146 74.0343C34.8586 66.7823 35.2286 60.1963 35.5246 54.2763C35.8206 48.3563 35.9686 43.9903 35.9686 41.1783C35.9686 35.2583 35.7466 29.7083 35.3026 24.5283C33.9706 23.6403 32.7126 23.1963 31.5286 23.1963C28.7166 23.1963 26.7186 24.6763 25.5346 27.6363L11.9926 46.0623C11.5486 63.9703 11.1046 81.2863 10.6606 98.0103C10.2166 114.734 9.84658 131.828 9.55058 149.292C10.4386 150.18 10.8826 151.142 10.8826 152.178C10.8826 153.51 10.0686 154.546 8.44058 155.286L3.33458 155.508C2.44658 151.512 1.78058 147.294 1.33658 142.854C1.04058 138.414 0.892578 133.826 0.892578 129.09C0.892578 119.026 1.33658 108.814 2.22458 98.4543C3.26058 87.9463 3.77858 78.0303 3.77858 68.7063C3.77858 65.3023 3.63058 62.0463 3.33458 58.9383C3.18658 55.6823 2.81658 52.6483 2.22458 49.8363C7.84858 40.9563 13.9166 32.3723 20.4286 24.0843C26.9406 15.6483 33.6746 7.65629 40.6306 0.10829C42.5546 0.848289 43.5166 1.88429 43.5166 3.21629C43.5166 4.40029 43.2206 5.58429 42.6286 6.7683C42.0366 7.95229 41.7406 9.21029 41.7406 10.5423Z"/>
</mask>
<path d="M41.7406 10.5423C42.0366 34.3703 42.1846 57.5323 42.1846 80.0283C42.1846 102.524 42.5546 125.316 43.2946 148.404C43.2946 149.44 42.6286 149.958 41.2966 149.958L35.9686 147.294C34.7846 143.002 33.9706 138.266 33.5266 133.086C33.0826 127.758 32.8606 122.134 32.8606 116.214C32.8606 110.294 33.0086 103.634 33.3046 96.2343C33.6006 88.6863 33.9706 81.2863 34.4146 74.0343C34.8586 66.7823 35.2286 60.1963 35.5246 54.2763C35.8206 48.3563 35.9686 43.9903 35.9686 41.1783C35.9686 35.2583 35.7466 29.7083 35.3026 24.5283C33.9706 23.6403 32.7126 23.1963 31.5286 23.1963C28.7166 23.1963 26.7186 24.6763 25.5346 27.6363L11.9926 46.0623C11.5486 63.9703 11.1046 81.2863 10.6606 98.0103C10.2166 114.734 9.84658 131.828 9.55058 149.292C10.4386 150.18 10.8826 151.142 10.8826 152.178C10.8826 153.51 10.0686 154.546 8.44058 155.286L3.33458 155.508C2.44658 151.512 1.78058 147.294 1.33658 142.854C1.04058 138.414 0.892578 133.826 0.892578 129.09C0.892578 119.026 1.33658 108.814 2.22458 98.4543C3.26058 87.9463 3.77858 78.0303 3.77858 68.7063C3.77858 65.3023 3.63058 62.0463 3.33458 58.9383C3.18658 55.6823 2.81658 52.6483 2.22458 49.8363C7.84858 40.9563 13.9166 32.3723 20.4286 24.0843C26.9406 15.6483 33.6746 7.65629 40.6306 0.10829C42.5546 0.848289 43.5166 1.88429 43.5166 3.21629C43.5166 4.40029 43.2206 5.58429 42.6286 6.7683C42.0366 7.95229 41.7406 9.21029 41.7406 10.5423Z" fill="#F0F0F0"/>
<path d="M41.7406 10.5423H40.3551V10.5509L40.3553 10.5595L41.7406 10.5423ZM43.2946 148.404H44.68V148.382L44.6793 148.36L43.2946 148.404ZM41.2966 149.958L40.677 151.197L40.9695 151.344H41.2966V149.958ZM35.9686 147.294L34.633 147.663L34.7971 148.258L35.349 148.533L35.9686 147.294ZM33.5266 133.086L32.1459 133.201L32.1462 133.205L33.5266 133.086ZM33.3046 96.2343L34.6889 96.2897L34.689 96.2886L33.3046 96.2343ZM35.5246 54.2763L34.1409 54.2071L35.5246 54.2763ZM35.3026 24.5283L36.683 24.41L36.626 23.7455L36.0711 23.3755L35.3026 24.5283ZM25.5346 27.6363L26.6509 28.4568L26.7554 28.3146L26.8209 28.1508L25.5346 27.6363ZM11.9926 46.0623L10.8762 45.2418L10.6184 45.5927L10.6076 46.028L11.9926 46.0623ZM10.6606 98.0103L12.0455 98.0471L10.6606 98.0103ZM9.55058 149.292L8.16534 149.269L8.15538 149.856L8.57093 150.272L9.55058 149.292ZM8.44058 155.286L8.50076 156.67L8.76923 156.659L9.01388 156.548L8.44058 155.286ZM3.33458 155.508L1.98213 155.809L2.23414 156.943L3.39476 156.892L3.33458 155.508ZM1.33658 142.854L-0.0457909 142.946L-0.0442656 142.969L-0.0419838 142.992L1.33658 142.854ZM2.22458 98.4543L0.845825 98.3184L0.844957 98.3272L0.844202 98.336L2.22458 98.4543ZM3.33458 58.9383L1.95057 59.0012L1.95213 59.0355L1.95538 59.0696L3.33458 58.9383ZM2.22458 49.8363L1.05413 49.095L0.752859 49.5707L0.868858 50.1217L2.22458 49.8363ZM20.4286 24.0843L21.518 24.9403L21.5253 24.9309L20.4286 24.0843ZM40.6306 0.10829L41.1279 -1.1848L40.2496 -1.52264L39.6118 -0.830595L40.6306 0.10829ZM42.6286 6.7683L43.8678 7.38789L43.8678 7.38788L42.6286 6.7683ZM40.3553 10.5595C40.6512 34.3821 40.7991 57.5384 40.7991 80.0283H43.57C43.57 57.5262 43.422 34.3585 43.1259 10.5251L40.3553 10.5595ZM40.7991 80.0283C40.7991 102.539 41.1694 125.346 41.9099 148.449L44.6793 148.36C43.9398 125.286 43.57 102.509 43.57 80.0283H40.7991ZM41.9091 148.404C41.9091 148.517 41.891 148.551 41.8963 148.538C41.9052 148.518 41.9256 148.491 41.9445 148.476C41.9563 148.467 41.9298 148.492 41.823 148.52C41.7141 148.548 41.5443 148.573 41.2966 148.573V151.344C42.1039 151.344 42.9644 151.193 43.6457 150.663C44.3931 150.082 44.68 149.242 44.68 148.404H41.9091ZM41.9162 148.719L36.5882 146.055L35.349 148.533L40.677 151.197L41.9162 148.719ZM37.3041 146.926C36.1461 142.728 35.3449 138.077 34.907 132.968L32.1462 133.205C32.5963 138.456 33.4231 143.277 34.633 147.663L37.3041 146.926ZM34.9072 132.971C34.4667 127.685 34.246 122.1 34.246 116.214H31.4751C31.4751 122.169 31.6984 127.831 32.1459 133.201L34.9072 132.971ZM34.246 116.214C34.246 110.317 34.3935 103.676 34.6889 96.2897L31.9202 96.1789C31.6237 103.593 31.4751 110.272 31.4751 116.214H34.246ZM34.689 96.2886C34.9846 88.7503 35.3541 81.3605 35.7974 74.119L33.0317 73.9496C32.5871 81.2121 32.2166 88.6223 31.9202 96.18L34.689 96.2886ZM35.7974 74.119C36.2417 66.8629 36.612 60.2716 36.9083 54.3455L34.1409 54.2071C33.8452 60.121 33.4755 66.7017 33.0317 73.9496L35.7974 74.119ZM36.9083 54.3455C37.2045 48.4218 37.354 44.0269 37.354 41.1783H34.5831C34.5831 43.9537 34.4367 48.2908 34.1409 54.2071L36.9083 54.3455ZM37.354 41.1783C37.354 35.2241 37.1308 29.6343 36.683 24.41L33.9222 24.6466C34.3624 29.7823 34.5831 35.2925 34.5831 41.1783H37.354ZM36.0711 23.3755C34.5896 22.3879 33.0669 21.8109 31.5286 21.8109V24.5817C32.3582 24.5817 33.3515 24.8927 34.5341 25.681L36.0711 23.3755ZM31.5286 21.8109C29.8663 21.8109 28.3648 22.2535 27.0964 23.193C25.8403 24.1235 24.9091 25.4696 24.2482 27.1218L26.8209 28.1508C27.3441 26.843 28.0039 25.9691 28.7457 25.4196C29.4754 24.8791 30.3789 24.5817 31.5286 24.5817V21.8109ZM24.4182 26.8158L10.8762 45.2418L13.1089 46.8828L26.6509 28.4568L24.4182 26.8158ZM10.6076 46.028C10.1636 63.9352 9.71961 81.2504 9.27563 97.9735L12.0455 98.0471C12.4896 81.3222 12.9336 64.0054 13.3776 46.0966L10.6076 46.028ZM9.27563 97.9735C8.83151 114.702 8.46141 131.801 8.16534 149.269L10.9358 149.316C11.2317 131.856 11.6017 114.766 12.0455 98.0471L9.27563 97.9735ZM8.57093 150.272C9.25792 150.959 9.49714 151.585 9.49714 152.178H12.268C12.268 150.699 11.6192 149.402 10.5302 148.313L8.57093 150.272ZM9.49714 152.178C9.49714 152.776 9.20187 153.418 7.86728 154.025L9.01388 156.548C10.9353 155.674 12.268 154.245 12.268 152.178H9.49714ZM8.3804 153.902L3.2744 154.124L3.39476 156.892L8.50076 156.67L8.3804 153.902ZM4.68702 155.208C3.81196 151.27 3.15415 147.107 2.71514 142.716L-0.0419838 142.992C0.407003 147.482 1.0812 151.755 1.98213 155.809L4.68702 155.208ZM2.71895 142.762C2.42512 138.355 2.27802 133.798 2.27802 129.09H-0.492859C-0.492859 133.855 -0.343962 138.474 -0.0457909 142.946L2.71895 142.762ZM2.27802 129.09C2.27802 119.067 2.72022 108.895 3.60495 98.5726L0.844202 98.336C-0.0470596 108.734 -0.492859 118.986 -0.492859 129.09H2.27802ZM3.60333 98.5902C4.64321 88.0429 5.16402 78.0812 5.16402 68.7063H2.39314C2.39314 77.9794 1.87794 87.8497 0.845825 98.3184L3.60333 98.5902ZM5.16402 68.7063C5.16402 65.2623 5.01429 61.9623 4.71378 58.8069L1.95538 59.0696C2.24687 62.1303 2.39314 65.3423 2.39314 68.7063H5.16402ZM4.71859 58.8754C4.56763 55.5543 4.18961 52.4451 3.5803 49.5509L0.868858 50.1217C1.44354 52.8515 1.80553 55.8103 1.95057 59.0012L4.71859 58.8754ZM3.39502 50.5776C8.99389 41.7373 15.0348 33.1915 21.518 24.9403L19.3392 23.2283C12.7983 31.5531 6.70326 40.1753 1.05413 49.095L3.39502 50.5776ZM21.5253 24.9309C28.0136 16.5255 34.7217 8.56445 41.6494 1.04717L39.6118 -0.830595C32.6275 6.74813 25.8676 14.771 19.3319 23.2377L21.5253 24.9309ZM40.1332 1.40138C41.8603 2.06564 42.1311 2.74984 42.1311 3.21629H44.902C44.902 1.01874 43.2489 -0.36906 41.1279 -1.1848L40.1332 1.40138ZM42.1311 3.21629C42.1311 4.16094 41.8967 5.13413 41.3894 6.14871L43.8678 7.38788C44.5445 6.03446 44.902 4.63965 44.902 3.21629H42.1311ZM41.3894 6.14871C40.7006 7.52632 40.3551 8.9966 40.3551 10.5423H43.126C43.126 9.42398 43.3726 8.37826 43.8678 7.38789L41.3894 6.14871Z" fill="#F0F0F0" mask="url(#path-1-outside-1_1172_1736)"/>
</svg>
