<svg width="57" height="156" viewBox="0 0 57 156" fill="none" xmlns="http://www.w3.org/2000/svg">
<mask id="path-1-outside-1_1172_1728" maskUnits="userSpaceOnUse" x="-1.21387" y="-0.806152" width="60" height="158" fill="black">
<rect fill="white" x="-1.21387" y="-0.806152" width="60" height="158"/>
<path d="M53.8441 154.084C53.1041 154.084 52.2161 153.788 51.1801 153.196C50.2921 152.604 48.8121 151.05 46.7401 148.534C45.8521 145.722 45.1861 142.688 44.7421 139.432C44.4461 136.176 44.2981 132.846 44.2981 129.442C44.2981 126.63 44.3721 123.522 44.5201 120.118C44.6681 116.566 44.8161 113.162 44.9641 109.906C45.2601 106.502 45.4821 103.394 45.6301 100.582C45.7781 97.7698 45.8521 95.6238 45.8521 94.1438C45.8521 92.5158 45.7781 90.9618 45.6301 89.4818C45.6301 88.0018 45.5561 86.5218 45.4081 85.0418C41.5601 78.6778 36.8981 73.2018 31.4221 68.6138C26.0941 64.0258 20.4701 60.1038 14.5501 56.8478C13.9581 57.8838 13.5141 59.2158 13.2181 60.8438C13.0701 62.4718 12.9961 64.2478 12.9961 66.1718C12.9961 69.1318 13.1441 72.0918 13.4401 75.0518C13.7361 77.8638 13.8841 79.8618 13.8841 81.0458V117.898C13.8841 119.23 13.9581 121.45 14.1061 124.558C14.4021 127.518 14.5501 130.774 14.5501 134.326C14.5501 138.322 14.2541 142.318 13.6621 146.314C13.2181 150.162 12.1821 153.122 10.5541 155.194C7.89013 153.566 6.11413 151.716 5.22613 149.644C4.33813 147.424 3.89413 145.056 3.89413 142.54C3.89413 140.172 4.19013 138.026 4.78213 136.102C5.52213 134.03 5.89213 131.736 5.89213 129.22C5.89213 128.036 5.59613 126.556 5.00413 124.78C4.56013 123.004 4.19013 121.524 3.89413 120.34C3.89413 115.308 4.04213 110.054 4.33813 104.578C4.63413 99.1018 4.93013 93.9958 5.22613 89.2598C5.22613 86.8918 5.00413 83.6358 4.56013 79.4918C4.26413 75.3478 3.96813 70.8338 3.67213 65.9498C3.37613 61.0658 3.08013 56.1818 2.78413 51.2978C2.48813 46.2658 2.34013 41.7518 2.34013 37.7558C2.34013 36.1278 2.41413 34.4998 2.56213 32.8718C2.71013 31.2438 2.78413 29.8378 2.78413 28.6538C2.78413 26.5818 2.41413 24.2138 1.67413 21.5498C1.08213 18.8858 0.786133 16.1478 0.786133 13.3358C0.786133 10.8198 1.23013 8.45184 2.11813 6.23185C3.15413 4.01184 5.00413 2.23584 7.66813 0.903836C10.9241 2.82784 13.8841 5.12184 16.5481 7.78584C19.2121 10.3018 21.9501 13.1878 24.7621 16.4438C27.5741 19.6998 30.6081 23.3258 33.8641 27.3218C37.1201 31.3178 40.9681 35.6098 45.4081 40.1978C45.4081 39.3098 45.3341 37.6078 45.1861 35.0918C45.0381 32.5758 44.9641 29.6158 44.9641 26.2118C44.9641 21.9198 45.2601 17.4058 45.8521 12.6698C46.5921 7.78584 47.9981 3.86384 50.0701 0.903836C50.3661 0.755838 50.8841 0.681839 51.6241 0.681839C53.5481 0.681839 54.8061 1.49584 55.3981 3.12383C56.1381 4.75184 56.5821 6.45384 56.7301 8.22983C56.7301 12.9658 56.5081 18.1458 56.0641 23.7698C55.7681 29.3938 55.4721 34.8698 55.1761 40.1978C54.8801 45.5258 54.5841 50.4838 54.2881 55.0718C53.9921 59.6598 53.8441 63.3598 53.8441 66.1718C53.8441 69.7238 53.9921 74.8298 54.2881 81.4898C54.5841 88.0018 54.8801 95.3278 55.1761 103.468C55.6201 111.608 55.9901 119.97 56.2861 128.554C56.5821 137.138 56.8041 145.204 56.9521 152.752C56.2121 153.64 55.1761 154.084 53.8441 154.084ZM33.8641 54.8498C36.0841 56.7738 38.0821 58.9938 39.8581 61.5098C41.7821 64.0258 43.7801 66.0978 45.8521 67.7258L44.5201 51.5198C43.4841 50.0398 42.0041 48.7818 40.0801 47.7458C38.3041 46.5618 37.1941 45.1558 36.7501 43.5278C34.0861 42.6398 31.8661 41.3078 30.0901 39.5318C28.4621 37.6078 26.9081 35.6098 25.4281 33.5378C23.9481 31.4658 22.3201 29.6158 20.5441 27.9878C18.9161 26.3598 16.6961 25.3238 13.8841 24.8798C13.1441 27.9878 12.8481 31.1698 12.9961 34.4258C13.1441 37.5338 12.9961 40.3458 12.5521 42.8618C14.0321 42.8618 15.6601 43.3798 17.4361 44.4158C19.3601 45.3038 21.2101 46.4138 22.9861 47.7458C24.9101 49.0778 26.7601 50.4098 28.5361 51.7418C30.4601 53.0738 32.2361 54.1098 33.8641 54.8498Z"/>
</mask>
<path d="M53.8441 154.084C53.1041 154.084 52.2161 153.788 51.1801 153.196C50.2921 152.604 48.8121 151.05 46.7401 148.534C45.8521 145.722 45.1861 142.688 44.7421 139.432C44.4461 136.176 44.2981 132.846 44.2981 129.442C44.2981 126.63 44.3721 123.522 44.5201 120.118C44.6681 116.566 44.8161 113.162 44.9641 109.906C45.2601 106.502 45.4821 103.394 45.6301 100.582C45.7781 97.7698 45.8521 95.6238 45.8521 94.1438C45.8521 92.5158 45.7781 90.9618 45.6301 89.4818C45.6301 88.0018 45.5561 86.5218 45.4081 85.0418C41.5601 78.6778 36.8981 73.2018 31.4221 68.6138C26.0941 64.0258 20.4701 60.1038 14.5501 56.8478C13.9581 57.8838 13.5141 59.2158 13.2181 60.8438C13.0701 62.4718 12.9961 64.2478 12.9961 66.1718C12.9961 69.1318 13.1441 72.0918 13.4401 75.0518C13.7361 77.8638 13.8841 79.8618 13.8841 81.0458V117.898C13.8841 119.23 13.9581 121.45 14.1061 124.558C14.4021 127.518 14.5501 130.774 14.5501 134.326C14.5501 138.322 14.2541 142.318 13.6621 146.314C13.2181 150.162 12.1821 153.122 10.5541 155.194C7.89013 153.566 6.11413 151.716 5.22613 149.644C4.33813 147.424 3.89413 145.056 3.89413 142.54C3.89413 140.172 4.19013 138.026 4.78213 136.102C5.52213 134.03 5.89213 131.736 5.89213 129.22C5.89213 128.036 5.59613 126.556 5.00413 124.78C4.56013 123.004 4.19013 121.524 3.89413 120.34C3.89413 115.308 4.04213 110.054 4.33813 104.578C4.63413 99.1018 4.93013 93.9958 5.22613 89.2598C5.22613 86.8918 5.00413 83.6358 4.56013 79.4918C4.26413 75.3478 3.96813 70.8338 3.67213 65.9498C3.37613 61.0658 3.08013 56.1818 2.78413 51.2978C2.48813 46.2658 2.34013 41.7518 2.34013 37.7558C2.34013 36.1278 2.41413 34.4998 2.56213 32.8718C2.71013 31.2438 2.78413 29.8378 2.78413 28.6538C2.78413 26.5818 2.41413 24.2138 1.67413 21.5498C1.08213 18.8858 0.786133 16.1478 0.786133 13.3358C0.786133 10.8198 1.23013 8.45184 2.11813 6.23185C3.15413 4.01184 5.00413 2.23584 7.66813 0.903836C10.9241 2.82784 13.8841 5.12184 16.5481 7.78584C19.2121 10.3018 21.9501 13.1878 24.7621 16.4438C27.5741 19.6998 30.6081 23.3258 33.8641 27.3218C37.1201 31.3178 40.9681 35.6098 45.4081 40.1978C45.4081 39.3098 45.3341 37.6078 45.1861 35.0918C45.0381 32.5758 44.9641 29.6158 44.9641 26.2118C44.9641 21.9198 45.2601 17.4058 45.8521 12.6698C46.5921 7.78584 47.9981 3.86384 50.0701 0.903836C50.3661 0.755838 50.8841 0.681839 51.6241 0.681839C53.5481 0.681839 54.8061 1.49584 55.3981 3.12383C56.1381 4.75184 56.5821 6.45384 56.7301 8.22983C56.7301 12.9658 56.5081 18.1458 56.0641 23.7698C55.7681 29.3938 55.4721 34.8698 55.1761 40.1978C54.8801 45.5258 54.5841 50.4838 54.2881 55.0718C53.9921 59.6598 53.8441 63.3598 53.8441 66.1718C53.8441 69.7238 53.9921 74.8298 54.2881 81.4898C54.5841 88.0018 54.8801 95.3278 55.1761 103.468C55.6201 111.608 55.9901 119.97 56.2861 128.554C56.5821 137.138 56.8041 145.204 56.9521 152.752C56.2121 153.64 55.1761 154.084 53.8441 154.084ZM33.8641 54.8498C36.0841 56.7738 38.0821 58.9938 39.8581 61.5098C41.7821 64.0258 43.7801 66.0978 45.8521 67.7258L44.5201 51.5198C43.4841 50.0398 42.0041 48.7818 40.0801 47.7458C38.3041 46.5618 37.1941 45.1558 36.7501 43.5278C34.0861 42.6398 31.8661 41.3078 30.0901 39.5318C28.4621 37.6078 26.9081 35.6098 25.4281 33.5378C23.9481 31.4658 22.3201 29.6158 20.5441 27.9878C18.9161 26.3598 16.6961 25.3238 13.8841 24.8798C13.1441 27.9878 12.8481 31.1698 12.9961 34.4258C13.1441 37.5338 12.9961 40.3458 12.5521 42.8618C14.0321 42.8618 15.6601 43.3798 17.4361 44.4158C19.3601 45.3038 21.2101 46.4138 22.9861 47.7458C24.9101 49.0778 26.7601 50.4098 28.5361 51.7418C30.4601 53.0738 32.2361 54.1098 33.8641 54.8498Z" fill="#F0F0F0"/>
<path d="M51.1801 153.196L50.4116 154.349L50.4513 154.375L50.4928 154.399L51.1801 153.196ZM46.7401 148.534L45.419 148.951L45.4999 149.207L45.6707 149.415L46.7401 148.534ZM44.7421 139.432L43.3624 139.557L43.3652 139.588L43.3694 139.619L44.7421 139.432ZM44.5201 120.118L45.9043 120.178L45.9044 120.176L44.5201 120.118ZM44.9641 109.906L43.5839 109.786L43.5814 109.814L43.5801 109.843L44.9641 109.906ZM45.6301 100.582L47.0137 100.655L45.6301 100.582ZM45.6301 89.4818H44.2447V89.5509L44.2516 89.6197L45.6301 89.4818ZM45.4081 85.0418L46.7867 84.904L46.7556 84.5927L46.5937 84.325L45.4081 85.0418ZM31.4221 68.6138L30.5181 69.6637L30.5252 69.6698L30.5324 69.6758L31.4221 68.6138ZM14.5501 56.8478L15.2178 55.6339L14.0235 54.977L13.3472 56.1605L14.5501 56.8478ZM13.2181 60.8438L11.855 60.596L11.844 60.6568L11.8384 60.7184L13.2181 60.8438ZM13.4401 75.0518L12.0616 75.1897L12.0623 75.1969L13.4401 75.0518ZM14.1061 124.558L12.7223 124.624L12.724 124.66L12.7276 124.696L14.1061 124.558ZM13.6621 146.314L12.2917 146.111L12.2884 146.133L12.2858 146.155L13.6621 146.314ZM10.5541 155.194L9.8317 156.376L10.8826 157.018L11.6435 156.05L10.5541 155.194ZM5.22613 149.644L3.93979 150.158L3.94606 150.174L3.95271 150.19L5.22613 149.644ZM4.78213 136.102L3.47741 135.636L3.46703 135.665L3.45796 135.694L4.78213 136.102ZM5.00413 124.78L3.66006 125.116L3.67297 125.167L3.68979 125.218L5.00413 124.78ZM3.89413 120.34H2.5087V120.51L2.55006 120.676L3.89413 120.34ZM5.22613 89.2598L6.60887 89.3463L6.61157 89.3031V89.2598H5.22613ZM4.56013 79.4918L3.17822 79.5906L3.17997 79.615L3.18258 79.6394L4.56013 79.4918ZM3.67213 65.9498L2.28923 66.0337L3.67213 65.9498ZM2.78413 51.2978L1.40108 51.3792L1.40123 51.3817L2.78413 51.2978ZM2.56213 32.8718L3.94188 32.9973H3.94188L2.56213 32.8718ZM1.67413 21.5498L0.321687 21.8504L0.329544 21.8857L0.339239 21.9206L1.67413 21.5498ZM2.11813 6.23185L0.862672 5.64597L0.846228 5.6812L0.831786 5.71731L2.11813 6.23185ZM7.66813 0.903836L8.37295 -0.288924L7.72338 -0.672756L7.04855 -0.335337L7.66813 0.903836ZM16.5481 7.78584L15.5685 8.76549L15.5825 8.77948L15.5969 8.79307L16.5481 7.78584ZM24.7621 16.4438L23.7136 17.3494H23.7136L24.7621 16.4438ZM45.4081 40.1978L44.4126 41.1613L46.7936 43.6217V40.1978H45.4081ZM45.1861 35.0918L43.8031 35.1732V35.1732L45.1861 35.0918ZM45.8521 12.6698L44.4823 12.4623L44.4796 12.4801L44.4774 12.498L45.8521 12.6698ZM50.0701 0.903836L49.4506 -0.335339L49.1365 -0.178312L48.9351 0.10934L50.0701 0.903836ZM55.3981 3.12383L54.0961 3.5973L54.1145 3.64801L54.1369 3.69713L55.3981 3.12383ZM56.7301 8.22983H58.1156V8.17221L58.1108 8.11478L56.7301 8.22983ZM56.0641 23.7698L54.683 23.6608L54.6816 23.6789L54.6806 23.697L56.0641 23.7698ZM55.1761 40.1978L53.7928 40.121L55.1761 40.1978ZM54.2881 55.0718L52.9056 54.9826L54.2881 55.0718ZM54.2881 81.4898L52.9041 81.5514L52.9041 81.5528L54.2881 81.4898ZM55.1761 103.468L53.7916 103.518L53.7921 103.531L53.7928 103.543L55.1761 103.468ZM56.2861 128.554L54.9015 128.602L56.2861 128.554ZM56.9521 152.752L58.0165 153.639L58.3474 153.242L58.3373 152.725L56.9521 152.752ZM33.8641 54.8498L34.7715 53.8029L34.62 53.6716L34.4374 53.5886L33.8641 54.8498ZM39.8581 61.5098L38.7263 62.3088L38.7415 62.3304L38.7576 62.3514L39.8581 61.5098ZM45.8521 67.7258L44.9962 68.8152L47.493 70.777L47.2329 67.6124L45.8521 67.7258ZM44.5201 51.5198L45.9009 51.4064L45.8702 51.0326L45.6551 50.7253L44.5201 51.5198ZM40.0801 47.7458L39.3116 48.8986L39.3659 48.9348L39.4233 48.9657L40.0801 47.7458ZM36.7501 43.5278L38.0868 43.1633L37.8917 42.448L37.1882 42.2135L36.7501 43.5278ZM30.0901 39.5318L29.0325 40.4268L29.0697 40.4707L29.1105 40.5115L30.0901 39.5318ZM25.4281 33.5378L26.5555 32.7326L25.4281 33.5378ZM20.5441 27.9878L19.5645 28.9675L19.5858 28.9888L19.608 29.0091L20.5441 27.9878ZM13.8841 24.8798L14.1002 23.5114L12.8334 23.3113L12.5364 24.5589L13.8841 24.8798ZM12.9961 34.4258L11.6121 34.4888L11.6123 34.4917L12.9961 34.4258ZM12.5521 42.8618L11.1878 42.6211L10.9008 44.2473H12.5521V42.8618ZM17.4361 44.4158L16.738 45.6126L16.7953 45.646L16.8556 45.6738L17.4361 44.4158ZM22.9861 47.7458L22.1549 48.8542L22.1759 48.87L22.1975 48.8849L22.9861 47.7458ZM28.5361 51.7418L27.7049 52.8502L27.7259 52.866L27.7475 52.8809L28.5361 51.7418ZM53.8441 152.698C53.4501 152.698 52.8094 152.531 51.8675 151.993L50.4928 154.399C51.6229 155.045 52.7582 155.469 53.8441 155.469V152.698ZM51.9486 152.043C51.638 151.836 51.1326 151.392 50.4074 150.631C49.6988 149.887 48.8341 148.897 47.8096 147.653L45.6707 149.415C46.7182 150.687 47.6294 151.732 48.4009 152.542C49.1557 153.334 49.8343 153.964 50.4116 154.349L51.9486 152.043ZM48.0613 148.117C47.1995 145.388 46.5494 142.431 46.1149 139.245L43.3694 139.619C43.8228 142.944 44.5048 146.056 45.419 148.951L48.0613 148.117ZM46.1219 139.306C45.8298 136.094 45.6836 132.806 45.6836 129.442H42.9127C42.9127 132.886 43.0624 136.258 43.3624 139.557L46.1219 139.306ZM45.6836 129.442C45.6836 126.654 45.757 123.566 45.9043 120.178L43.136 120.058C42.9873 123.478 42.9127 126.606 42.9127 129.442H45.6836ZM45.9044 120.176C46.0523 116.625 46.2002 113.223 46.3481 109.969L43.5801 109.843C43.432 113.101 43.284 116.507 43.1359 120.06L45.9044 120.176ZM46.3444 110.026C46.6415 106.609 46.8647 103.485 47.0137 100.655L44.2466 100.509C44.0996 103.302 43.8788 106.394 43.5839 109.786L46.3444 110.026ZM47.0137 100.655C47.162 97.8358 47.2376 95.6609 47.2376 94.1438H44.4667C44.4667 95.5868 44.3943 97.7038 44.2466 100.509L47.0137 100.655ZM47.2376 94.1438C47.2376 92.4741 47.1617 90.8738 47.0087 89.344L44.2516 89.6197C44.3946 91.0498 44.4667 92.5576 44.4667 94.1438H47.2376ZM47.0156 89.4818C47.0156 87.9556 46.9393 86.4296 46.7867 84.904L44.0296 85.1797C44.173 86.6141 44.2447 88.0481 44.2447 89.4818H47.0156ZM46.5937 84.325C42.67 77.8359 37.9096 72.2418 32.3119 67.5519L30.5324 69.6758C35.8867 74.1619 40.4502 79.5198 44.2226 85.7587L46.5937 84.325ZM32.3262 67.564C26.9282 62.9158 21.2254 58.9381 15.2178 55.6339L13.8825 58.0618C19.7148 61.2696 25.26 65.1359 30.5181 69.6637L32.3262 67.564ZM13.3472 56.1605C12.6536 57.3743 12.1691 58.8688 11.855 60.596L14.5812 61.0917C14.8592 59.5629 15.2627 58.3933 15.753 57.5352L13.3472 56.1605ZM11.8384 60.7184C11.686 62.3946 11.6107 64.2131 11.6107 66.1718H14.3816C14.3816 64.2826 14.4543 62.5491 14.5979 60.9693L11.8384 60.7184ZM11.6107 66.1718C11.6107 69.1781 11.761 72.1841 12.0616 75.1897L14.8187 74.914C14.5273 71.9996 14.3816 69.0856 14.3816 66.1718H11.6107ZM12.0623 75.1969C12.3583 78.0084 12.4987 79.9419 12.4987 81.0458H15.2696C15.2696 79.7818 15.114 77.7193 14.818 74.9068L12.0623 75.1969ZM12.4987 81.0458V117.898H15.2696V81.0458H12.4987ZM12.4987 117.898C12.4987 119.266 12.5742 121.515 12.7223 124.624L15.49 124.492C15.342 121.385 15.2696 119.194 15.2696 117.898H12.4987ZM12.7276 124.696C13.0182 127.602 13.1647 130.811 13.1647 134.326H15.9356C15.9356 130.736 15.7861 127.434 15.4847 124.42L12.7276 124.696ZM13.1647 134.326C13.1647 138.253 12.8738 142.181 12.2917 146.111L15.0326 146.517C15.6345 142.454 15.9356 138.391 15.9356 134.326H13.1647ZM12.2858 146.155C11.8582 149.861 10.8768 152.541 9.46474 154.338L11.6435 156.05C13.4874 153.703 14.578 150.463 15.0384 146.473L12.2858 146.155ZM11.2766 154.012C8.7659 152.477 7.23825 150.822 6.49955 149.098L3.95271 150.19C4.99001 152.61 7.01437 154.654 9.8317 156.376L11.2766 154.012ZM6.51248 149.129C5.69332 147.081 5.27957 144.889 5.27957 142.54H2.5087C2.5087 145.223 2.98294 147.766 3.93979 150.158L6.51248 149.129ZM5.27957 142.54C5.27957 140.286 5.56134 138.28 6.10631 136.509L3.45796 135.694C2.81892 137.771 2.5087 140.057 2.5087 142.54H5.27957ZM6.08686 136.568C6.88734 134.326 7.27757 131.872 7.27757 129.22H4.5067C4.5067 131.6 4.15693 133.733 3.47741 135.636L6.08686 136.568ZM7.27757 129.22C7.27757 127.826 6.93352 126.187 6.31847 124.342L3.68979 125.218C4.25874 126.925 4.5067 128.245 4.5067 129.22H7.27757ZM6.34821 124.444C5.9042 122.668 5.5342 121.188 5.2382 120.004L2.55006 120.676C2.84606 121.86 3.21606 123.34 3.66006 125.116L6.34821 124.444ZM5.27957 120.34C5.27957 115.335 5.42678 110.106 5.72155 104.653L2.95472 104.503C2.65749 110.002 2.5087 115.281 2.5087 120.34H5.27957ZM5.72155 104.653C6.01737 99.1799 6.31315 94.0778 6.60887 89.3463L3.84339 89.1734C3.54712 93.9138 3.25089 99.0238 2.95472 104.503L5.72155 104.653ZM6.61157 89.2598C6.61157 86.8191 6.38364 83.5065 5.93769 79.3442L3.18258 79.6394C3.62462 83.7652 3.8407 86.9646 3.8407 89.2598H6.61157ZM5.94205 79.3931C5.64646 75.2549 5.35078 70.7459 5.05503 65.866L2.28923 66.0337C2.58548 70.9218 2.88181 75.4408 3.17822 79.5906L5.94205 79.3931ZM5.05503 65.866C4.75903 60.982 4.46303 56.098 4.16703 51.214L1.40123 51.3817C1.69723 56.2657 1.99323 61.1497 2.28923 66.0337L5.05503 65.866ZM4.16718 51.2165C3.87238 46.2049 3.72557 41.7188 3.72557 37.7558H0.954695C0.954695 41.7849 1.10388 46.3267 1.40109 51.3792L4.16718 51.2165ZM3.72557 37.7558C3.72557 36.1699 3.79766 34.5837 3.94188 32.9973L1.18239 32.7464C1.03061 34.4159 0.954695 36.0858 0.954695 37.7558H3.72557ZM3.94188 32.9973C4.09236 31.342 4.16957 29.8921 4.16957 28.6538H1.3987C1.3987 29.7836 1.32791 31.1457 1.18238 32.7464L3.94188 32.9973ZM4.16957 28.6538C4.16957 26.4227 3.77213 23.9262 3.00903 21.179L0.339239 21.9206C1.05614 24.5015 1.3987 26.7409 1.3987 28.6538H4.16957ZM3.02658 21.2493C2.45717 18.6869 2.17157 16.0498 2.17157 13.3358H-0.599305C-0.599305 16.2458 -0.2929 19.0847 0.321687 21.8504L3.02658 21.2493ZM2.17157 13.3358C2.17157 10.9868 2.58532 8.79428 3.40448 6.74639L0.831786 5.71731C-0.125056 8.10941 -0.599305 10.6529 -0.599305 13.3358H2.17157ZM3.37359 6.81773C4.25072 4.93817 5.84109 3.36632 8.28772 2.14301L7.04855 -0.335337C4.16717 1.10535 2.05755 3.08551 0.862672 5.64597L3.37359 6.81773ZM6.96332 2.0966C10.1195 3.96162 12.9871 6.18411 15.5685 8.76549L17.5278 6.80619C14.7812 4.05957 11.7288 1.69406 8.37295 -0.288924L6.96332 2.0966ZM15.5969 8.79307C18.2215 11.2719 20.9272 14.123 23.7136 17.3494L25.8107 15.5383C22.9731 12.2527 20.2028 9.3318 17.4994 6.77861L15.5969 8.79307ZM23.7136 17.3494C26.5155 20.5937 29.5409 24.2093 32.7901 28.197L34.9382 26.4467C31.6754 22.4424 28.6328 18.806 25.8107 15.5383L23.7136 17.3494ZM32.7901 28.197C36.076 32.2297 39.9513 36.5514 44.4126 41.1613L46.4037 39.2344C41.985 34.6683 38.1643 30.406 34.9382 26.4467L32.7901 28.197ZM46.7936 40.1978C46.7936 39.2629 46.7169 37.5214 46.5692 35.0105L43.8031 35.1732C43.9514 37.6943 44.0227 39.3568 44.0227 40.1978H46.7936ZM46.5692 35.0105C46.4232 32.5291 46.3496 29.5974 46.3496 26.2118H43.5787C43.5787 29.6343 43.6531 32.6226 43.8031 35.1732L46.5692 35.0105ZM46.3496 26.2118C46.3496 21.9832 46.6412 17.5269 47.2269 12.8417L44.4774 12.498C43.8791 17.2848 43.5787 21.8564 43.5787 26.2118H46.3496ZM47.2219 12.8774C47.9411 8.1311 49.292 4.43132 51.2051 1.69833L48.9351 0.10934C46.7042 3.29636 45.2432 7.44059 44.4823 12.4623L47.2219 12.8774ZM50.6897 2.14301C50.6503 2.16272 50.6897 2.13554 50.8766 2.10885C51.0502 2.08404 51.2952 2.06728 51.6241 2.06728V-0.703599C50.872 -0.703599 50.0623 -0.641223 49.4506 -0.335339L50.6897 2.14301ZM51.6241 2.06728C52.3942 2.06728 52.9089 2.22961 53.258 2.45551C53.5953 2.67379 53.8865 3.0208 54.0961 3.5973L56.7002 2.65037C56.3178 1.59888 55.6839 0.724888 54.7633 0.129165C53.8544 -0.45893 52.7781 -0.703599 51.6241 -0.703599V2.06728ZM54.1369 3.69713C54.8113 5.18088 55.2147 6.72792 55.3495 8.34489L58.1108 8.11478C57.9495 6.17976 57.465 4.3228 56.6594 2.55054L54.1369 3.69713ZM55.3447 8.22983C55.3447 12.9234 55.1247 18.0665 54.683 23.6608L57.4453 23.8789C57.8916 18.2252 58.1156 13.0083 58.1156 8.22983H55.3447ZM54.6806 23.697C54.3847 29.3198 54.0888 34.7944 53.7928 40.121L56.5594 40.2747C56.8555 34.9453 57.1516 29.4679 57.4477 23.8427L54.6806 23.697ZM53.7928 40.121C53.497 45.4455 53.2013 50.3993 52.9056 54.9826L55.6707 55.161C55.967 50.5683 56.2632 45.6062 56.5594 40.2747L53.7928 40.121ZM52.9056 54.9826C52.6087 59.5843 52.4587 63.3175 52.4587 66.1718H55.2296C55.2296 63.4022 55.3756 59.7354 55.6707 55.161L52.9056 54.9826ZM52.4587 66.1718C52.4587 69.755 52.6078 74.8853 52.9041 81.5514L55.6722 81.4283C55.3765 74.7744 55.2296 69.6927 55.2296 66.1718H52.4587ZM52.9041 81.5528C53.1999 88.0597 53.4957 95.3814 53.7916 103.518L56.5607 103.417C56.2645 95.2743 55.9684 87.944 55.6721 81.4269L52.9041 81.5528ZM53.7928 103.543C54.2362 111.674 54.6058 120.026 54.9015 128.602L57.6707 128.506C57.3744 119.913 57.004 111.542 56.5595 103.392L53.7928 103.543ZM54.9015 128.602C55.1973 137.18 55.4191 145.239 55.567 152.779L58.3373 152.725C58.1892 145.169 57.967 137.096 57.6707 128.506L54.9015 128.602ZM55.8878 151.865C55.4528 152.387 54.8349 152.698 53.8441 152.698V155.469C55.5173 155.469 56.9715 154.893 58.0165 153.639L55.8878 151.865ZM32.9568 55.8968C35.0882 57.7441 37.0117 59.8798 38.7263 62.3088L40.99 60.7109C39.1526 58.1079 37.0801 55.8036 34.7715 53.8029L32.9568 55.8968ZM38.7576 62.3514C40.7386 64.942 42.8163 67.1025 44.9962 68.8152L46.7081 66.6364C44.7439 65.0932 42.8256 63.1097 40.9587 60.6683L38.7576 62.3514ZM47.2329 67.6124L45.9009 51.4064L43.1394 51.6333L44.4714 67.8393L47.2329 67.6124ZM45.6551 50.7253C44.4718 49.0348 42.812 47.6433 40.737 46.526L39.4233 48.9657C41.1963 49.9204 42.4965 51.0448 43.3851 52.3143L45.6551 50.7253ZM40.8486 46.5931C39.2749 45.544 38.4214 44.3902 38.0868 43.1633L35.4135 43.8924C35.9669 45.9215 37.3333 47.5797 39.3116 48.8986L40.8486 46.5931ZM37.1882 42.2135C34.7039 41.3854 32.6765 40.1589 31.0698 38.5522L29.1105 40.5115C31.0557 42.4567 33.4683 43.8943 36.312 44.8422L37.1882 42.2135ZM31.1478 38.6369C29.5445 36.7421 28.0137 34.7741 26.5555 32.7326L24.3008 34.3431C25.8025 36.4456 27.3798 38.4735 29.0325 40.4268L31.1478 38.6369ZM26.5555 32.7326C25.0226 30.5865 23.3313 28.6633 21.4803 26.9666L19.608 29.0091C21.309 30.5684 22.8736 32.3451 24.3008 34.3431L26.5555 32.7326ZM21.5238 27.0082C19.644 25.1284 17.132 23.9901 14.1002 23.5114L13.6681 26.2483C16.2603 26.6576 18.1882 27.5912 19.5645 28.9675L21.5238 27.0082ZM12.5364 24.5589C11.7659 27.7951 11.4584 31.1064 11.6121 34.4888L14.3801 34.3629C14.2379 31.2333 14.5224 28.1806 15.2319 25.2007L12.5364 24.5589ZM11.6123 34.4917C11.7564 37.5185 11.6106 40.2253 11.1878 42.6211L13.9165 43.1026C14.3817 40.4664 14.5319 37.5492 14.38 34.3599L11.6123 34.4917ZM12.5521 44.2473C13.7095 44.2473 15.0953 44.6543 16.738 45.6126L18.1342 43.2191C16.225 42.1054 14.3548 41.4764 12.5521 41.4764V44.2473ZM16.8556 45.6738C18.6869 46.519 20.4532 47.578 22.1549 48.8542L23.8174 46.6375C21.967 45.2497 20.0334 44.0887 18.0167 43.1579L16.8556 45.6738ZM22.1975 48.8849C24.1079 50.2075 25.9436 51.5293 27.7049 52.8502L29.3674 50.6335C27.5766 49.2904 25.7124 47.9482 23.7747 46.6067L22.1975 48.8849ZM27.7475 52.8809C29.72 54.2465 31.5687 55.3283 33.2908 56.1111L34.4374 53.5886C32.9036 52.8914 31.2003 51.9012 29.3247 50.6027L27.7475 52.8809Z" fill="#F0F0F0" mask="url(#path-1-outside-1_1172_1728)"/>
</svg>
