<svg width="44" height="155" viewBox="0 0 44 155" fill="none" xmlns="http://www.w3.org/2000/svg">
<mask id="path-1-outside-1_1172_1727" maskUnits="userSpaceOnUse" x="-1.72168" y="-2.0354" width="47" height="159" fill="black">
<rect fill="white" x="-1.72168" y="-2.0354" width="47" height="159"/>
<path d="M43.3463 49.9586C42.1623 61.7986 41.2003 73.8606 40.4603 86.1446C39.7203 98.4286 39.3503 110.417 39.3503 122.109C39.3503 126.697 39.4243 131.211 39.5723 135.651C39.7203 139.943 39.9423 144.235 40.2383 148.527C39.7943 149.859 38.9803 150.525 37.7963 150.525C35.4283 149.785 33.8003 147.269 32.9123 142.977C32.1723 138.537 31.8023 133.061 31.8023 126.549C31.8023 121.665 31.9503 116.411 32.2463 110.787C32.5423 105.015 32.9123 99.3166 33.3563 93.6926C33.8003 87.9206 34.1703 82.3706 34.4663 77.0426C34.7623 71.5666 34.9103 66.6826 34.9103 62.3906C34.9103 58.9866 34.7623 56.0266 34.4663 53.5106C34.3183 50.9946 33.8743 49.0706 33.1343 47.7386C31.5063 46.7026 30.0263 45.0006 28.6943 42.6326C27.3623 40.1166 26.0303 37.6746 24.6983 35.3066C23.5143 32.7906 22.2563 30.5706 20.9243 28.6466C19.5923 26.7226 18.1123 25.7606 16.4843 25.7606C16.0403 25.7606 15.5223 26.0566 14.9303 26.6486C14.4863 27.0926 14.1163 27.5366 13.8203 27.9806V62.8346C12.6363 66.9786 11.8223 71.1966 11.3783 75.4886C11.0823 79.7806 10.9343 84.2206 10.9343 88.8086C10.9343 91.3246 10.9343 94.1366 10.9343 97.2446C11.0823 100.353 11.1563 103.387 11.1563 106.347C11.3043 109.159 11.3783 111.823 11.3783 114.339C11.5263 116.707 11.6003 118.557 11.6003 119.889C11.6003 126.105 11.2303 132.173 10.4903 138.093C9.75032 144.013 8.12232 149.637 5.60632 154.965C4.12632 154.521 2.86832 153.929 1.83232 153.189C0.79632 152.301 0.27832 151.043 0.27832 149.415C1.31432 147.195 2.20232 144.161 2.94232 140.313C3.68232 136.317 4.05232 131.803 4.05232 126.771C4.05232 120.555 3.83032 113.673 3.38632 106.125C3.09032 98.5766 2.94232 90.9546 2.94232 83.2586C2.94232 77.6346 3.09032 72.1586 3.38632 66.8306C3.68232 61.5026 4.42232 56.4706 5.60632 51.7346V1.78459C6.64232 0.748591 7.97432 0.230594 9.60232 0.230594C11.2303 0.230594 12.6363 0.748591 13.8203 1.78459L43.3463 49.9586Z"/>
</mask>
<path d="M43.3463 49.9586C42.1623 61.7986 41.2003 73.8606 40.4603 86.1446C39.7203 98.4286 39.3503 110.417 39.3503 122.109C39.3503 126.697 39.4243 131.211 39.5723 135.651C39.7203 139.943 39.9423 144.235 40.2383 148.527C39.7943 149.859 38.9803 150.525 37.7963 150.525C35.4283 149.785 33.8003 147.269 32.9123 142.977C32.1723 138.537 31.8023 133.061 31.8023 126.549C31.8023 121.665 31.9503 116.411 32.2463 110.787C32.5423 105.015 32.9123 99.3166 33.3563 93.6926C33.8003 87.9206 34.1703 82.3706 34.4663 77.0426C34.7623 71.5666 34.9103 66.6826 34.9103 62.3906C34.9103 58.9866 34.7623 56.0266 34.4663 53.5106C34.3183 50.9946 33.8743 49.0706 33.1343 47.7386C31.5063 46.7026 30.0263 45.0006 28.6943 42.6326C27.3623 40.1166 26.0303 37.6746 24.6983 35.3066C23.5143 32.7906 22.2563 30.5706 20.9243 28.6466C19.5923 26.7226 18.1123 25.7606 16.4843 25.7606C16.0403 25.7606 15.5223 26.0566 14.9303 26.6486C14.4863 27.0926 14.1163 27.5366 13.8203 27.9806V62.8346C12.6363 66.9786 11.8223 71.1966 11.3783 75.4886C11.0823 79.7806 10.9343 84.2206 10.9343 88.8086C10.9343 91.3246 10.9343 94.1366 10.9343 97.2446C11.0823 100.353 11.1563 103.387 11.1563 106.347C11.3043 109.159 11.3783 111.823 11.3783 114.339C11.5263 116.707 11.6003 118.557 11.6003 119.889C11.6003 126.105 11.2303 132.173 10.4903 138.093C9.75032 144.013 8.12232 149.637 5.60632 154.965C4.12632 154.521 2.86832 153.929 1.83232 153.189C0.79632 152.301 0.27832 151.043 0.27832 149.415C1.31432 147.195 2.20232 144.161 2.94232 140.313C3.68232 136.317 4.05232 131.803 4.05232 126.771C4.05232 120.555 3.83032 113.673 3.38632 106.125C3.09032 98.5766 2.94232 90.9546 2.94232 83.2586C2.94232 77.6346 3.09032 72.1586 3.38632 66.8306C3.68232 61.5026 4.42232 56.4706 5.60632 51.7346V1.78459C6.64232 0.748591 7.97432 0.230594 9.60232 0.230594C11.2303 0.230594 12.6363 0.748591 13.8203 1.78459L43.3463 49.9586Z" fill="#F0F0F0"/>
<path d="M43.3463 49.9586L44.7249 50.0965L44.7713 49.6323L44.5275 49.2346L43.3463 49.9586ZM40.4603 86.1446L41.8433 86.2279L40.4603 86.1446ZM39.5723 135.651L38.1877 135.697L38.1877 135.698L39.5723 135.651ZM40.2383 148.527L41.5527 148.965L41.6393 148.705L41.6205 148.431L40.2383 148.527ZM37.7963 150.525L37.3831 151.847L37.5849 151.91H37.7963V150.525ZM32.9123 142.977L31.5457 143.204L31.5502 143.231L31.5556 143.257L32.9123 142.977ZM32.2463 110.787L33.6298 110.859L33.6299 110.858L32.2463 110.787ZM33.3563 93.6926L34.7375 93.8016L34.7377 93.7989L33.3563 93.6926ZM34.4663 77.0426L35.8496 77.1194L35.8497 77.1174L34.4663 77.0426ZM34.4663 53.5106L33.0833 53.592L33.0857 53.6323L33.0904 53.6725L34.4663 53.5106ZM33.1343 47.7386L34.3454 47.0658L34.1747 46.7585L33.8781 46.5698L33.1343 47.7386ZM28.6943 42.6326L27.4699 43.2808L27.4782 43.2964L27.4868 43.3118L28.6943 42.6326ZM24.6983 35.3066L23.4448 35.8965L23.4662 35.942L23.4908 35.9858L24.6983 35.3066ZM20.9243 28.6466L19.7852 29.4352H19.7852L20.9243 28.6466ZM14.9303 26.6486L15.91 27.6283L15.91 27.6282L14.9303 26.6486ZM13.8203 27.9806L12.6676 27.2121L12.4349 27.5611V27.9806H13.8203ZM13.8203 62.8346L15.1525 63.2152L15.2058 63.0286V62.8346H13.8203ZM11.3783 75.4886L10.0002 75.346L9.9978 75.3696L9.99617 75.3933L11.3783 75.4886ZM10.9343 97.2446H9.54888V97.2776L9.55045 97.3105L10.9343 97.2446ZM11.1563 106.347H9.77088V106.383L9.7728 106.419L11.1563 106.347ZM11.3783 114.339H9.99288V114.382L9.99558 114.425L11.3783 114.339ZM10.4903 138.093L11.8651 138.264L10.4903 138.093ZM5.60632 154.965L5.20822 156.292L6.35006 156.634L6.8591 155.556L5.60632 154.965ZM1.83232 153.189L0.93069 154.241L0.977202 154.28L1.02705 154.316L1.83232 153.189ZM0.27832 149.415L-0.97714 148.829L-1.10712 149.107V149.415H0.27832ZM2.94232 140.313L4.30286 140.574L4.3046 140.565L2.94232 140.313ZM3.38632 106.125L2.00195 106.179L2.00248 106.192L2.00327 106.206L3.38632 106.125ZM3.38632 66.8306L4.76962 66.9074L3.38632 66.8306ZM5.60632 51.7346L6.95039 52.0706L6.99176 51.9051V51.7346H5.60632ZM5.60632 1.78459L4.62667 0.804933L4.22088 1.21072V1.78459H5.60632ZM13.8203 1.78459L15.0015 1.06061L14.8913 0.880807L14.7326 0.741937L13.8203 1.78459ZM41.9678 49.8207C40.7819 61.6795 39.8185 73.7597 39.0774 86.0613L41.8433 86.2279C42.5822 73.9615 43.5428 61.9177 44.7249 50.0965L41.9678 49.8207ZM39.0774 86.0613C38.3358 98.3716 37.9649 110.387 37.9649 122.109H40.7358C40.7358 110.446 41.1048 98.4856 41.8433 86.2279L39.0774 86.0613ZM37.9649 122.109C37.9649 126.711 38.0391 131.241 38.1877 135.697L40.957 135.604C40.8095 131.18 40.7358 126.682 40.7358 122.109H37.9649ZM38.1877 135.698C38.3363 140.006 38.5591 144.314 38.8562 148.622L41.6205 148.431C41.3256 144.155 41.1044 139.879 40.9569 135.603L38.1877 135.698ZM38.924 148.088C38.7578 148.587 38.5645 148.833 38.4175 148.953C38.2891 149.058 38.1111 149.139 37.7963 149.139V151.91C38.6655 151.91 39.4865 151.658 40.1721 151.097C40.8391 150.552 41.2749 149.798 41.5527 148.965L38.924 148.088ZM38.2096 149.202C36.6059 148.701 35.1346 146.879 34.269 142.696L31.5556 143.257C32.4661 147.658 34.2508 150.868 37.3831 151.847L38.2096 149.202ZM34.2789 142.749C33.5556 138.409 33.1878 133.015 33.1878 126.549H30.4169C30.4169 133.106 30.789 138.664 31.5457 143.204L34.2789 142.749ZM33.1878 126.549C33.1878 121.692 33.3349 116.463 33.6298 110.859L30.8628 110.714C30.5657 116.358 30.4169 121.637 30.4169 126.549H33.1878ZM33.6299 110.858C33.9253 105.098 34.2945 99.4127 34.7375 93.8016L31.9752 93.5836C31.5302 99.2206 31.1593 104.931 30.8627 110.716L33.6299 110.858ZM34.7377 93.7989C35.1824 88.0179 35.553 82.458 35.8496 77.1194L33.083 76.9657C32.7876 82.2831 32.4183 87.8233 31.975 93.5863L34.7377 93.7989ZM35.8497 77.1174C36.1467 71.6229 36.2958 66.7132 36.2958 62.3906H33.5249C33.5249 66.6519 33.3779 71.5103 33.0829 76.9678L35.8497 77.1174ZM36.2958 62.3906C36.2958 58.9496 36.1463 55.9331 35.8423 53.3487L33.0904 53.6725C33.3783 56.1201 33.5249 59.0236 33.5249 62.3906H36.2958ZM35.8494 53.4292C35.6962 50.8248 35.2317 48.661 34.3454 47.0658L31.9232 48.4114C32.517 49.4802 32.9405 51.1643 33.0833 53.592L35.8494 53.4292ZM33.8781 46.5698C32.5051 45.696 31.165 44.1989 29.9018 41.9534L27.4868 43.3118C28.8877 45.8023 30.5075 47.7092 32.3905 48.9074L33.8781 46.5698ZM29.9188 41.9844C28.5815 39.4585 27.2439 37.0061 25.9058 34.6274L23.4908 35.9858C24.8168 38.3431 26.1431 40.7747 27.4699 43.2808L29.9188 41.9844ZM25.9519 34.7167C24.7412 32.1439 23.4462 29.8554 22.0634 27.858L19.7852 29.4352C21.0664 31.2858 22.2875 33.4373 23.4448 35.8965L25.9519 34.7167ZM22.0634 27.858C20.5937 25.7351 18.7447 24.3752 16.4843 24.3752V27.146C17.48 27.146 18.5909 27.7101 19.7852 29.4352L22.0634 27.858ZM16.4843 24.3752C15.4593 24.3752 14.5969 25.0227 13.9507 25.6689L15.91 27.6282C16.151 27.3872 16.3314 27.2534 16.4502 27.1855C16.5692 27.1175 16.5724 27.146 16.4843 27.146V24.3752ZM13.9507 25.6689C13.4531 26.1665 13.0221 26.6803 12.6676 27.2121L14.9731 28.7491C15.2105 28.3929 15.5195 28.0187 15.91 27.6283L13.9507 25.6689ZM12.4349 27.9806V62.8346H15.2058V27.9806H12.4349ZM12.4882 62.454C11.2819 66.6759 10.4526 70.9736 10.0002 75.346L12.7564 75.6312C13.1921 71.4196 13.9907 67.2813 15.1525 63.2152L12.4882 62.454ZM9.99617 75.3933C9.69784 79.719 9.54888 84.1909 9.54888 88.8086H12.3198C12.3198 84.2503 12.4668 79.8422 12.7605 75.5839L9.99617 75.3933ZM9.54888 88.8086C9.54888 88.8135 9.54888 88.8184 9.54888 88.8233C9.54888 88.8283 9.54888 88.8332 9.54888 88.8381C9.54888 88.843 9.54888 88.8479 9.54888 88.8529C9.54888 88.8578 9.54888 88.8627 9.54888 88.8676C9.54888 88.8725 9.54888 88.8775 9.54888 88.8824C9.54888 88.8873 9.54888 88.8922 9.54888 88.8972C9.54888 88.9021 9.54888 88.907 9.54888 88.912C9.54888 88.9169 9.54888 88.9218 9.54888 88.9268C9.54888 88.9317 9.54888 88.9366 9.54888 88.9416C9.54888 88.9465 9.54888 88.9514 9.54888 88.9564C9.54888 88.9613 9.54888 88.9662 9.54888 88.9712C9.54888 88.9761 9.54888 88.981 9.54888 88.986C9.54888 88.9909 9.54888 88.9959 9.54888 89.0008C9.54888 89.0058 9.54888 89.0107 9.54888 89.0157C9.54888 89.0206 9.54888 89.0255 9.54888 89.0305C9.54888 89.0354 9.54888 89.0404 9.54888 89.0453C9.54888 89.0503 9.54888 89.0552 9.54888 89.0602C9.54888 89.0651 9.54888 89.0701 9.54888 89.0751C9.54888 89.08 9.54888 89.085 9.54888 89.0899C9.54888 89.0949 9.54888 89.0998 9.54888 89.1048C9.54888 89.1098 9.54888 89.1147 9.54888 89.1197C9.54888 89.1246 9.54888 89.1296 9.54888 89.1346C9.54888 89.1395 9.54888 89.1445 9.54888 89.1495C9.54888 89.1544 9.54888 89.1594 9.54888 89.1644C9.54888 89.1693 9.54888 89.1743 9.54888 89.1793C9.54888 89.1842 9.54888 89.1892 9.54888 89.1942C9.54888 89.1992 9.54888 89.2041 9.54888 89.2091C9.54888 89.2141 9.54888 89.2191 9.54888 89.224C9.54888 89.229 9.54888 89.234 9.54888 89.239C9.54888 89.2439 9.54888 89.2489 9.54888 89.2539C9.54888 89.2589 9.54888 89.2639 9.54888 89.2689C9.54888 89.2738 9.54888 89.2788 9.54888 89.2838C9.54888 89.2888 9.54888 89.2938 9.54888 89.2988C9.54888 89.3038 9.54888 89.3088 9.54888 89.3138C9.54888 89.3187 9.54888 89.3237 9.54888 89.3287C9.54888 89.3337 9.54888 89.3387 9.54888 89.3437C9.54888 89.3487 9.54888 89.3537 9.54888 89.3587C9.54888 89.3637 9.54888 89.3687 9.54888 89.3737C9.54888 89.3787 9.54888 89.3837 9.54888 89.3887C9.54888 89.3937 9.54888 89.3987 9.54888 89.4037C9.54888 89.4087 9.54888 89.4137 9.54888 89.4187C9.54888 89.4237 9.54888 89.4287 9.54888 89.4337C9.54888 89.4388 9.54888 89.4438 9.54888 89.4488C9.54888 89.4538 9.54888 89.4588 9.54888 89.4638C9.54888 89.4688 9.54888 89.4738 9.54888 89.4789C9.54888 89.4839 9.54888 89.4889 9.54888 89.4939C9.54888 89.4989 9.54888 89.5039 9.54888 89.509C9.54888 89.514 9.54888 89.519 9.54888 89.524C9.54888 89.5291 9.54888 89.5341 9.54888 89.5391C9.54888 89.5441 9.54888 89.5491 9.54888 89.5542C9.54888 89.5592 9.54888 89.5642 9.54888 89.5693C9.54888 89.5743 9.54888 89.5793 9.54888 89.5844C9.54888 89.5894 9.54888 89.5944 9.54888 89.5994C9.54888 89.6045 9.54888 89.6095 9.54888 89.6146C9.54888 89.6196 9.54888 89.6246 9.54888 89.6297C9.54888 89.6347 9.54888 89.6397 9.54888 89.6448C9.54888 89.6498 9.54888 89.6549 9.54888 89.6599C9.54888 89.6649 9.54888 89.67 9.54888 89.675C9.54888 89.6801 9.54888 89.6851 9.54888 89.6902C9.54888 89.6952 9.54888 89.7003 9.54888 89.7053C9.54888 89.7104 9.54888 89.7154 9.54888 89.7205C9.54888 89.7255 9.54888 89.7306 9.54888 89.7356C9.54888 89.7407 9.54888 89.7457 9.54888 89.7508C9.54888 89.7559 9.54888 89.7609 9.54888 89.766C9.54888 89.771 9.54888 89.7761 9.54888 89.7812C9.54888 89.7862 9.54888 89.7913 9.54888 89.7963C9.54888 89.8014 9.54888 89.8065 9.54888 89.8115C9.54888 89.8166 9.54888 89.8217 9.54888 89.8267C9.54888 89.8318 9.54888 89.8369 9.54888 89.8419C9.54888 89.847 9.54888 89.8521 9.54888 89.8571C9.54888 89.8622 9.54888 89.8673 9.54888 89.8724C9.54888 89.8774 9.54888 89.8825 9.54888 89.8876C9.54888 89.8927 9.54888 89.8978 9.54888 89.9028C9.54888 89.9079 9.54888 89.913 9.54888 89.9181C9.54888 89.9231 9.54888 89.9282 9.54888 89.9333C9.54888 89.9384 9.54888 89.9435 9.54888 89.9486C9.54888 89.9537 9.54888 89.9587 9.54888 89.9638C9.54888 89.9689 9.54888 89.974 9.54888 89.9791C9.54888 89.9842 9.54888 89.9893 9.54888 89.9944C9.54888 89.9995 9.54888 90.0046 9.54888 90.0097C9.54888 90.0147 9.54888 90.0198 9.54888 90.0249C9.54888 90.03 9.54888 90.0351 9.54888 90.0402C9.54888 90.0453 9.54888 90.0504 9.54888 90.0555C9.54888 90.0606 9.54888 90.0657 9.54888 90.0708C9.54888 90.0759 9.54888 90.0811 9.54888 90.0862C9.54888 90.0913 9.54888 90.0964 9.54888 90.1015C9.54888 90.1066 9.54888 90.1117 9.54888 90.1168C9.54888 90.1219 9.54888 90.127 9.54888 90.1321C9.54888 90.1373 9.54888 90.1424 9.54888 90.1475C9.54888 90.1526 9.54888 90.1577 9.54888 90.1628C9.54888 90.1679 9.54888 90.1731 9.54888 90.1782C9.54888 90.1833 9.54888 90.1884 9.54888 90.1936C9.54888 90.1987 9.54888 90.2038 9.54888 90.2089C9.54888 90.214 9.54888 90.2192 9.54888 90.2243C9.54888 90.2294 9.54888 90.2346 9.54888 90.2397C9.54888 90.2448 9.54888 90.2499 9.54888 90.2551C9.54888 90.2602 9.54888 90.2653 9.54888 90.2705C9.54888 90.2756 9.54888 90.2807 9.54888 90.2859C9.54888 90.291 9.54888 90.2961 9.54888 90.3013C9.54888 90.3064 9.54888 90.3116 9.54888 90.3167C9.54888 90.3218 9.54888 90.327 9.54888 90.3321C9.54888 90.3373 9.54888 90.3424 9.54888 90.3475C9.54888 90.3527 9.54888 90.3578 9.54888 90.363C9.54888 90.3681 9.54888 90.3733 9.54888 90.3784C9.54888 90.3836 9.54888 90.3887 9.54888 90.3939C9.54888 90.399 9.54888 90.4042 9.54888 90.4093C9.54888 90.4145 9.54888 90.4196 9.54888 90.4248C9.54888 90.4299 9.54888 90.4351 9.54888 90.4403C9.54888 90.4454 9.54888 90.4506 9.54888 90.4557C9.54888 90.4609 9.54888 90.4661 9.54888 90.4712C9.54888 90.4764 9.54888 90.4816 9.54888 90.4867C9.54888 90.4919 9.54888 90.497 9.54888 90.5022C9.54888 90.5074 9.54888 90.5126 9.54888 90.5177C9.54888 90.5229 9.54888 90.5281 9.54888 90.5332C9.54888 90.5384 9.54888 90.5436 9.54888 90.5487C9.54888 90.5539 9.54888 90.5591 9.54888 90.5643C9.54888 90.5695 9.54888 90.5746 9.54888 90.5798C9.54888 90.585 9.54888 90.5902 9.54888 90.5953C9.54888 90.6005 9.54888 90.6057 9.54888 90.6109C9.54888 90.6161 9.54888 90.6213 9.54888 90.6264C9.54888 90.6316 9.54888 90.6368 9.54888 90.642C9.54888 90.6472 9.54888 90.6524 9.54888 90.6576C9.54888 90.6628 9.54888 90.6679 9.54888 90.6731C9.54888 90.6783 9.54888 90.6835 9.54888 90.6887C9.54888 90.6939 9.54888 90.6991 9.54888 90.7043C9.54888 90.7095 9.54888 90.7147 9.54888 90.7199C9.54888 90.7251 9.54888 90.7303 9.54888 90.7355C9.54888 90.7407 9.54888 90.7459 9.54888 90.7511C9.54888 90.7563 9.54888 90.7615 9.54888 90.7667C9.54888 90.7719 9.54888 90.7771 9.54888 90.7823C9.54888 90.7875 9.54888 90.7927 9.54888 90.798C9.54888 90.8032 9.54888 90.8084 9.54888 90.8136C9.54888 90.8188 9.54888 90.824 9.54888 90.8292C9.54888 90.8344 9.54888 90.8397 9.54888 90.8449C9.54888 90.8501 9.54888 90.8553 9.54888 90.8605C9.54888 90.8657 9.54888 90.871 9.54888 90.8762C9.54888 90.8814 9.54888 90.8866 9.54888 90.8919C9.54888 90.8971 9.54888 90.9023 9.54888 90.9075C9.54888 90.9128 9.54888 90.918 9.54888 90.9232C9.54888 90.9284 9.54888 90.9337 9.54888 90.9389C9.54888 90.9441 9.54888 90.9494 9.54888 90.9546C9.54888 90.9598 9.54888 90.9651 9.54888 90.9703C9.54888 90.9755 9.54888 90.9808 9.54888 90.986C9.54888 90.9912 9.54888 90.9965 9.54888 91.0017C9.54888 91.007 9.54888 91.0122 9.54888 91.0174C9.54888 91.0227 9.54888 91.0279 9.54888 91.0332C9.54888 91.0384 9.54888 91.0437 9.54888 91.0489C9.54888 91.0541 9.54888 91.0594 9.54888 91.0646C9.54888 91.0699 9.54888 91.0751 9.54888 91.0804C9.54888 91.0856 9.54888 91.0909 9.54888 91.0961C9.54888 91.1014 9.54888 91.1067 9.54888 91.1119C9.54888 91.1172 9.54888 91.1224 9.54888 91.1277C9.54888 91.1329 9.54888 91.1382 9.54888 91.1434C9.54888 91.1487 9.54888 91.154 9.54888 91.1592C9.54888 91.1645 9.54888 91.1698 9.54888 91.175C9.54888 91.1803 9.54888 91.1855 9.54888 91.1908C9.54888 91.1961 9.54888 91.2013 9.54888 91.2066C9.54888 91.2119 9.54888 91.2172 9.54888 91.2224C9.54888 91.2277 9.54888 91.233 9.54888 91.2382C9.54888 91.2435 9.54888 91.2488 9.54888 91.2541C9.54888 91.2593 9.54888 91.2646 9.54888 91.2699C9.54888 91.2752 9.54888 91.2804 9.54888 91.2857C9.54888 91.291 9.54888 91.2963 9.54888 91.3016C9.54888 91.3069 9.54888 91.3121 9.54888 91.3174C9.54888 91.3227 9.54888 91.328 9.54888 91.3333C9.54888 91.3386 9.54888 91.3439 9.54888 91.3491C9.54888 91.3544 9.54888 91.3597 9.54888 91.365C9.54888 91.3703 9.54888 91.3756 9.54888 91.3809C9.54888 91.3862 9.54888 91.3915 9.54888 91.3968C9.54888 91.4021 9.54888 91.4074 9.54888 91.4127C9.54888 91.418 9.54888 91.4233 9.54888 91.4286C9.54888 91.4339 9.54888 91.4392 9.54888 91.4445C9.54888 91.4498 9.54888 91.4551 9.54888 91.4604C9.54888 91.4657 9.54888 91.471 9.54888 91.4763C9.54888 91.4816 9.54888 91.4869 9.54888 91.4922C9.54888 91.4975 9.54888 91.5028 9.54888 91.5081C9.54888 91.5135 9.54888 91.5188 9.54888 91.5241C9.54888 91.5294 9.54888 91.5347 9.54888 91.54C9.54888 91.5453 9.54888 91.5507 9.54888 91.556C9.54888 91.5613 9.54888 91.5666 9.54888 91.5719C9.54888 91.5773 9.54888 91.5826 9.54888 91.5879C9.54888 91.5932 9.54888 91.5986 9.54888 91.6039C9.54888 91.6092 9.54888 91.6145 9.54888 91.6199C9.54888 91.6252 9.54888 91.6305 9.54888 91.6358C9.54888 91.6412 9.54888 91.6465 9.54888 91.6518C9.54888 91.6572 9.54888 91.6625 9.54888 91.6678C9.54888 91.6732 9.54888 91.6785 9.54888 91.6838C9.54888 91.6892 9.54888 91.6945 9.54888 91.6999C9.54888 91.7052 9.54888 91.7105 9.54888 91.7159C9.54888 91.7212 9.54888 91.7266 9.54888 91.7319C9.54888 91.7372 9.54888 91.7426 9.54888 91.7479C9.54888 91.7533 9.54888 91.7586 9.54888 91.764C9.54888 91.7693 9.54888 91.7747 9.54888 91.78C9.54888 91.7854 9.54888 91.7907 9.54888 91.7961C9.54888 91.8014 9.54888 91.8068 9.54888 91.8121C9.54888 91.8175 9.54888 91.8228 9.54888 91.8282C9.54888 91.8336 9.54888 91.8389 9.54888 91.8443C9.54888 91.8496 9.54888 91.855 9.54888 91.8604C9.54888 91.8657 9.54888 91.8711 9.54888 91.8764C9.54888 91.8818 9.54888 91.8872 9.54888 91.8925C9.54888 91.8979 9.54888 91.9033 9.54888 91.9086C9.54888 91.914 9.54888 91.9194 9.54888 91.9247C9.54888 91.9301 9.54888 91.9355 9.54888 91.9409C9.54888 91.9462 9.54888 91.9516 9.54888 91.957C9.54888 91.9623 9.54888 91.9677 9.54888 91.9731C9.54888 91.9785 9.54888 91.9839 9.54888 91.9892C9.54888 91.9946 9.54888 92 9.54888 92.0054C9.54888 92.0108 9.54888 92.0161 9.54888 92.0215C9.54888 92.0269 9.54888 92.0323 9.54888 92.0377C9.54888 92.0431 9.54888 92.0485 9.54888 92.0538C9.54888 92.0592 9.54888 92.0646 9.54888 92.07C9.54888 92.0754 9.54888 92.0808 9.54888 92.0862C9.54888 92.0916 9.54888 92.097 9.54888 92.1024C9.54888 92.1078 9.54888 92.1132 9.54888 92.1186C9.54888 92.124 9.54888 92.1293 9.54888 92.1348C9.54888 92.1402 9.54888 92.1456 9.54888 92.151C9.54888 92.1564 9.54888 92.1618 9.54888 92.1672C9.54888 92.1726 9.54888 92.178 9.54888 92.1834C9.54888 92.1888 9.54888 92.1942 9.54888 92.1996C9.54888 92.205 9.54888 92.2104 9.54888 92.2158C9.54888 92.2212 9.54888 92.2267 9.54888 92.2321C9.54888 92.2375 9.54888 92.2429 9.54888 92.2483C9.54888 92.2537 9.54888 92.2591 9.54888 92.2646C9.54888 92.27 9.54888 92.2754 9.54888 92.2808C9.54888 92.2862 9.54888 92.2917 9.54888 92.2971C9.54888 92.3025 9.54888 92.3079 9.54888 92.3133C9.54888 92.3188 9.54888 92.3242 9.54888 92.3296C9.54888 92.3351 9.54888 92.3405 9.54888 92.3459C9.54888 92.3513 9.54888 92.3568 9.54888 92.3622C9.54888 92.3676 9.54888 92.3731 9.54888 92.3785C9.54888 92.3839 9.54888 92.3894 9.54888 92.3948C9.54888 92.4002 9.54888 92.4057 9.54888 92.4111C9.54888 92.4165 9.54888 92.422 9.54888 92.4274C9.54888 92.4329 9.54888 92.4383 9.54888 92.4437C9.54888 92.4492 9.54888 92.4546 9.54888 92.4601C9.54888 92.4655 9.54888 92.471 9.54888 92.4764C9.54888 92.4819 9.54888 92.4873 9.54888 92.4928C9.54888 92.4982 9.54888 92.5037 9.54888 92.5091C9.54888 92.5146 9.54888 92.52 9.54888 92.5255C9.54888 92.5309 9.54888 92.5364 9.54888 92.5418C9.54888 92.5473 9.54888 92.5527 9.54888 92.5582C9.54888 92.5637 9.54888 92.5691 9.54888 92.5746C9.54888 92.58 9.54888 92.5855 9.54888 92.591C9.54888 92.5964 9.54888 92.6019 9.54888 92.6074C9.54888 92.6128 9.54888 92.6183 9.54888 92.6238C9.54888 92.6292 9.54888 92.6347 9.54888 92.6402C9.54888 92.6456 9.54888 92.6511 9.54888 92.6566C9.54888 92.6621 9.54888 92.6675 9.54888 92.673C9.54888 92.6785 9.54888 92.684 9.54888 92.6894C9.54888 92.6949 9.54888 92.7004 9.54888 92.7059C9.54888 92.7113 9.54888 92.7168 9.54888 92.7223C9.54888 92.7278 9.54888 92.7333 9.54888 92.7387C9.54888 92.7442 9.54888 92.7497 9.54888 92.7552C9.54888 92.7607 9.54888 92.7662 9.54888 92.7717C9.54888 92.7771 9.54888 92.7826 9.54888 92.7881C9.54888 92.7936 9.54888 92.7991 9.54888 92.8046C9.54888 92.8101 9.54888 92.8156 9.54888 92.8211C9.54888 92.8266 9.54888 92.8321 9.54888 92.8376C9.54888 92.8431 9.54888 92.8486 9.54888 92.8541C9.54888 92.8596 9.54888 92.8651 9.54888 92.8706C9.54888 92.8761 9.54888 92.8816 9.54888 92.8871C9.54888 92.8926 9.54888 92.8981 9.54888 92.9036C9.54888 92.9091 9.54888 92.9146 9.54888 92.9201C9.54888 92.9256 9.54888 92.9311 9.54888 92.9366C9.54888 92.9421 9.54888 92.9476 9.54888 92.9532C9.54888 92.9587 9.54888 92.9642 9.54888 92.9697C9.54888 92.9752 9.54888 92.9807 9.54888 92.9863C9.54888 92.9918 9.54888 92.9973 9.54888 93.0028C9.54888 93.0083 9.54888 93.0138 9.54888 93.0194C9.54888 93.0249 9.54888 93.0304 9.54888 93.0359C9.54888 93.0415 9.54888 93.047 9.54888 93.0525C9.54888 93.058 9.54888 93.0636 9.54888 93.0691C9.54888 93.0746 9.54888 93.0801 9.54888 93.0857C9.54888 93.0912 9.54888 93.0967 9.54888 93.1023C9.54888 93.1078 9.54888 93.1133 9.54888 93.1189C9.54888 93.1244 9.54888 93.1299 9.54888 93.1355C9.54888 93.141 9.54888 93.1466 9.54888 93.1521C9.54888 93.1576 9.54888 93.1632 9.54888 93.1687C9.54888 93.1743 9.54888 93.1798 9.54888 93.1853C9.54888 93.1909 9.54888 93.1964 9.54888 93.202C9.54888 93.2075 9.54888 93.2131 9.54888 93.2186C9.54888 93.2242 9.54888 93.2297 9.54888 93.2353C9.54888 93.2408 9.54888 93.2464 9.54888 93.2519C9.54888 93.2575 9.54888 93.263 9.54888 93.2686C9.54888 93.2741 9.54888 93.2797 9.54888 93.2853C9.54888 93.2908 9.54888 93.2964 9.54888 93.3019C9.54888 93.3075 9.54888 93.3131 9.54888 93.3186C9.54888 93.3242 9.54888 93.3298 9.54888 93.3353C9.54888 93.3409 9.54888 93.3464 9.54888 93.352C9.54888 93.3576 9.54888 93.3631 9.54888 93.3687C9.54888 93.3743 9.54888 93.3799 9.54888 93.3854C9.54888 93.391 9.54888 93.3966 9.54888 93.4021C9.54888 93.4077 9.54888 93.4133 9.54888 93.4189C9.54888 93.4244 9.54888 93.43 9.54888 93.4356C9.54888 93.4412 9.54888 93.4468 9.54888 93.4523C9.54888 93.4579 9.54888 93.4635 9.54888 93.4691C9.54888 93.4747 9.54888 93.4802 9.54888 93.4858C9.54888 93.4914 9.54888 93.497 9.54888 93.5026C9.54888 93.5082 9.54888 93.5138 9.54888 93.5193C9.54888 93.5249 9.54888 93.5305 9.54888 93.5361C9.54888 93.5417 9.54888 93.5473 9.54888 93.5529C9.54888 93.5585 9.54888 93.5641 9.54888 93.5697C9.54888 93.5753 9.54888 93.5809 9.54888 93.5865C9.54888 93.5921 9.54888 93.5977 9.54888 93.6033C9.54888 93.6089 9.54888 93.6145 9.54888 93.6201C9.54888 93.6257 9.54888 93.6313 9.54888 93.6369C9.54888 93.6425 9.54888 93.6481 9.54888 93.6537C9.54888 93.6593 9.54888 93.6649 9.54888 93.6705C9.54888 93.6761 9.54888 93.6818 9.54888 93.6874C9.54888 93.693 9.54888 93.6986 9.54888 93.7042C9.54888 93.7098 9.54888 93.7154 9.54888 93.7211C9.54888 93.7267 9.54888 93.7323 9.54888 93.7379C9.54888 93.7435 9.54888 93.7491 9.54888 93.7548C9.54888 93.7604 9.54888 93.766 9.54888 93.7716C9.54888 93.7773 9.54888 93.7829 9.54888 93.7885C9.54888 93.7941 9.54888 93.7998 9.54888 93.8054C9.54888 93.811 9.54888 93.8166 9.54888 93.8223C9.54888 93.8279 9.54888 93.8335 9.54888 93.8392C9.54888 93.8448 9.54888 93.8504 9.54888 93.8561C9.54888 93.8617 9.54888 93.8673 9.54888 93.873C9.54888 93.8786 9.54888 93.8842 9.54888 93.8899C9.54888 93.8955 9.54888 93.9012 9.54888 93.9068C9.54888 93.9124 9.54888 93.9181 9.54888 93.9237C9.54888 93.9294 9.54888 93.935 9.54888 93.9407C9.54888 93.9463 9.54888 93.952 9.54888 93.9576C9.54888 93.9633 9.54888 93.9689 9.54888 93.9746C9.54888 93.9802 9.54888 93.9859 9.54888 93.9915C9.54888 93.9972 9.54888 94.0028 9.54888 94.0085C9.54888 94.0141 9.54888 94.0198 9.54888 94.0254C9.54888 94.0311 9.54888 94.0368 9.54888 94.0424C9.54888 94.0481 9.54888 94.0537 9.54888 94.0594C9.54888 94.0651 9.54888 94.0707 9.54888 94.0764C9.54888 94.082 9.54888 94.0877 9.54888 94.0934C9.54888 94.099 9.54888 94.1047 9.54888 94.1104C9.54888 94.116 9.54888 94.1217 9.54888 94.1274C9.54888 94.1331 9.54888 94.1387 9.54888 94.1444C9.54888 94.1501 9.54888 94.1557 9.54888 94.1614C9.54888 94.1671 9.54888 94.1728 9.54888 94.1785C9.54888 94.1841 9.54888 94.1898 9.54888 94.1955C9.54888 94.2012 9.54888 94.2068 9.54888 94.2125C9.54888 94.2182 9.54888 94.2239 9.54888 94.2296C9.54888 94.2353 9.54888 94.2409 9.54888 94.2466C9.54888 94.2523 9.54888 94.258 9.54888 94.2637C9.54888 94.2694 9.54888 94.2751 9.54888 94.2808C9.54888 94.2865 9.54888 94.2921 9.54888 94.2978C9.54888 94.3035 9.54888 94.3092 9.54888 94.3149C9.54888 94.3206 9.54888 94.3263 9.54888 94.332C9.54888 94.3377 9.54888 94.3434 9.54888 94.3491C9.54888 94.3548 9.54888 94.3605 9.54888 94.3662C9.54888 94.3719 9.54888 94.3776 9.54888 94.3833C9.54888 94.389 9.54888 94.3947 9.54888 94.4004C9.54888 94.4062 9.54888 94.4119 9.54888 94.4176C9.54888 94.4233 9.54888 94.429 9.54888 94.4347C9.54888 94.4404 9.54888 94.4461 9.54888 94.4518C9.54888 94.4575 9.54888 94.4633 9.54888 94.469C9.54888 94.4747 9.54888 94.4804 9.54888 94.4861C9.54888 94.4918 9.54888 94.4976 9.54888 94.5033C9.54888 94.509 9.54888 94.5147 9.54888 94.5204C9.54888 94.5262 9.54888 94.5319 9.54888 94.5376C9.54888 94.5433 9.54888 94.5491 9.54888 94.5548C9.54888 94.5605 9.54888 94.5663 9.54888 94.572C9.54888 94.5777 9.54888 94.5834 9.54888 94.5892C9.54888 94.5949 9.54888 94.6006 9.54888 94.6064C9.54888 94.6121 9.54888 94.6178 9.54888 94.6236C9.54888 94.6293 9.54888 94.635 9.54888 94.6408C9.54888 94.6465 9.54888 94.6523 9.54888 94.658C9.54888 94.6637 9.54888 94.6695 9.54888 94.6752C9.54888 94.681 9.54888 94.6867 9.54888 94.6925C9.54888 94.6982 9.54888 94.704 9.54888 94.7097C9.54888 94.7154 9.54888 94.7212 9.54888 94.7269C9.54888 94.7327 9.54888 94.7384 9.54888 94.7442C9.54888 94.75 9.54888 94.7557 9.54888 94.7615C9.54888 94.7672 9.54888 94.773 9.54888 94.7787C9.54888 94.7845 9.54888 94.7902 9.54888 94.796C9.54888 94.8018 9.54888 94.8075 9.54888 94.8133C9.54888 94.819 9.54888 94.8248 9.54888 94.8306C9.54888 94.8363 9.54888 94.8421 9.54888 94.8479C9.54888 94.8536 9.54888 94.8594 9.54888 94.8652C9.54888 94.8709 9.54888 94.8767 9.54888 94.8825C9.54888 94.8882 9.54888 94.894 9.54888 94.8998C9.54888 94.9055 9.54888 94.9113 9.54888 94.9171C9.54888 94.9229 9.54888 94.9286 9.54888 94.9344C9.54888 94.9402 9.54888 94.946 9.54888 94.9518C9.54888 94.9575 9.54888 94.9633 9.54888 94.9691C9.54888 94.9749 9.54888 94.9807 9.54888 94.9864C9.54888 94.9922 9.54888 94.998 9.54888 95.0038C9.54888 95.0096 9.54888 95.0154 9.54888 95.0212C9.54888 95.0269 9.54888 95.0327 9.54888 95.0385C9.54888 95.0443 9.54888 95.0501 9.54888 95.0559C9.54888 95.0617 9.54888 95.0675 9.54888 95.0733C9.54888 95.0791 9.54888 95.0849 9.54888 95.0907C9.54888 95.0965 9.54888 95.1023 9.54888 95.1081C9.54888 95.1139 9.54888 95.1197 9.54888 95.1255C9.54888 95.1313 9.54888 95.1371 9.54888 95.1429C9.54888 95.1487 9.54888 95.1545 9.54888 95.1603C9.54888 95.1661 9.54888 95.1719 9.54888 95.1777C9.54888 95.1835 9.54888 95.1893 9.54888 95.1951C9.54888 95.201 9.54888 95.2068 9.54888 95.2126C9.54888 95.2184 9.54888 95.2242 9.54888 95.23C9.54888 95.2358 9.54888 95.2416 9.54888 95.2475C9.54888 95.2533 9.54888 95.2591 9.54888 95.2649C9.54888 95.2707 9.54888 95.2766 9.54888 95.2824C9.54888 95.2882 9.54888 95.294 9.54888 95.2999C9.54888 95.3057 9.54888 95.3115 9.54888 95.3173C9.54888 95.3232 9.54888 95.329 9.54888 95.3348C9.54888 95.3406 9.54888 95.3465 9.54888 95.3523C9.54888 95.3581 9.54888 95.364 9.54888 95.3698C9.54888 95.3756 9.54888 95.3815 9.54888 95.3873C9.54888 95.3931 9.54888 95.399 9.54888 95.4048C9.54888 95.4106 9.54888 95.4165 9.54888 95.4223C9.54888 95.4282 9.54888 95.434 9.54888 95.4398C9.54888 95.4457 9.54888 95.4515 9.54888 95.4574C9.54888 95.4632 9.54888 95.4691 9.54888 95.4749C9.54888 95.4808 9.54888 95.4866 9.54888 95.4925C9.54888 95.4983 9.54888 95.5042 9.54888 95.51C9.54888 95.5159 9.54888 95.5217 9.54888 95.5276C9.54888 95.5334 9.54888 95.5393 9.54888 95.5451C9.54888 95.551 9.54888 95.5568 9.54888 95.5627C9.54888 95.5686 9.54888 95.5744 9.54888 95.5803C9.54888 95.5861 9.54888 95.592 9.54888 95.5979C9.54888 95.6037 9.54888 95.6096 9.54888 95.6154C9.54888 95.6213 9.54888 95.6272 9.54888 95.633C9.54888 95.6389 9.54888 95.6448 9.54888 95.6507C9.54888 95.6565 9.54888 95.6624 9.54888 95.6683C9.54888 95.6741 9.54888 95.68 9.54888 95.6859C9.54888 95.6918 9.54888 95.6976 9.54888 95.7035C9.54888 95.7094 9.54888 95.7153 9.54888 95.7211C9.54888 95.727 9.54888 95.7329 9.54888 95.7388C9.54888 95.7447 9.54888 95.7505 9.54888 95.7564C9.54888 95.7623 9.54888 95.7682 9.54888 95.7741C9.54888 95.78 9.54888 95.7859 9.54888 95.7917C9.54888 95.7976 9.54888 95.8035 9.54888 95.8094C9.54888 95.8153 9.54888 95.8212 9.54888 95.8271C9.54888 95.833 9.54888 95.8389 9.54888 95.8447C9.54888 95.8506 9.54888 95.8565 9.54888 95.8624C9.54888 95.8683 9.54888 95.8742 9.54888 95.8801C9.54888 95.886 9.54888 95.8919 9.54888 95.8978C9.54888 95.9037 9.54888 95.9096 9.54888 95.9155C9.54888 95.9214 9.54888 95.9273 9.54888 95.9333C9.54888 95.9392 9.54888 95.9451 9.54888 95.951C9.54888 95.9569 9.54888 95.9628 9.54888 95.9687C9.54888 95.9746 9.54888 95.9805 9.54888 95.9864C9.54888 95.9923 9.54888 95.9983 9.54888 96.0042C9.54888 96.0101 9.54888 96.016 9.54888 96.0219C9.54888 96.0278 9.54888 96.0338 9.54888 96.0397C9.54888 96.0456 9.54888 96.0515 9.54888 96.0574C9.54888 96.0633 9.54888 96.0693 9.54888 96.0752C9.54888 96.0811 9.54888 96.087 9.54888 96.093C9.54888 96.0989 9.54888 96.1048 9.54888 96.1107C9.54888 96.1167 9.54888 96.1226 9.54888 96.1285C9.54888 96.1345 9.54888 96.1404 9.54888 96.1463C9.54888 96.1523 9.54888 96.1582 9.54888 96.1641C9.54888 96.1701 9.54888 96.176 9.54888 96.1819C9.54888 96.1879 9.54888 96.1938 9.54888 96.1998C9.54888 96.2057 9.54888 96.2116 9.54888 96.2176C9.54888 96.2235 9.54888 96.2295 9.54888 96.2354C9.54888 96.2413 9.54888 96.2473 9.54888 96.2532C9.54888 96.2592 9.54888 96.2651 9.54888 96.2711C9.54888 96.277 9.54888 96.283 9.54888 96.2889C9.54888 96.2949 9.54888 96.3008 9.54888 96.3068C9.54888 96.3127 9.54888 96.3187 9.54888 96.3246C9.54888 96.3306 9.54888 96.3366 9.54888 96.3425C9.54888 96.3485 9.54888 96.3544 9.54888 96.3604C9.54888 96.3664 9.54888 96.3723 9.54888 96.3783C9.54888 96.3842 9.54888 96.3902 9.54888 96.3962C9.54888 96.4021 9.54888 96.4081 9.54888 96.4141C9.54888 96.42 9.54888 96.426 9.54888 96.432C9.54888 96.4379 9.54888 96.4439 9.54888 96.4499C9.54888 96.4558 9.54888 96.4618 9.54888 96.4678C9.54888 96.4738 9.54888 96.4797 9.54888 96.4857C9.54888 96.4917 9.54888 96.4977 9.54888 96.5036C9.54888 96.5096 9.54888 96.5156 9.54888 96.5216C9.54888 96.5276 9.54888 96.5335 9.54888 96.5395C9.54888 96.5455 9.54888 96.5515 9.54888 96.5575C9.54888 96.5635 9.54888 96.5694 9.54888 96.5754C9.54888 96.5814 9.54888 96.5874 9.54888 96.5934C9.54888 96.5994 9.54888 96.6054 9.54888 96.6114C9.54888 96.6174 9.54888 96.6233 9.54888 96.6293C9.54888 96.6353 9.54888 96.6413 9.54888 96.6473C9.54888 96.6533 9.54888 96.6593 9.54888 96.6653C9.54888 96.6713 9.54888 96.6773 9.54888 96.6833C9.54888 96.6893 9.54888 96.6953 9.54888 96.7013C9.54888 96.7073 9.54888 96.7133 9.54888 96.7193C9.54888 96.7253 9.54888 96.7313 9.54888 96.7373C9.54888 96.7434 9.54888 96.7494 9.54888 96.7554C9.54888 96.7614 9.54888 96.7674 9.54888 96.7734C9.54888 96.7794 9.54888 96.7854 9.54888 96.7914C9.54888 96.7975 9.54888 96.8035 9.54888 96.8095C9.54888 96.8155 9.54888 96.8215 9.54888 96.8275C9.54888 96.8336 9.54888 96.8396 9.54888 96.8456C9.54888 96.8516 9.54888 96.8576 9.54888 96.8637C9.54888 96.8697 9.54888 96.8757 9.54888 96.8817C9.54888 96.8878 9.54888 96.8938 9.54888 96.8998C9.54888 96.9058 9.54888 96.9119 9.54888 96.9179C9.54888 96.9239 9.54888 96.93 9.54888 96.936C9.54888 96.942 9.54888 96.9481 9.54888 96.9541C9.54888 96.9601 9.54888 96.9662 9.54888 96.9722C9.54888 96.9782 9.54888 96.9843 9.54888 96.9903C9.54888 96.9963 9.54888 97.0024 9.54888 97.0084C9.54888 97.0145 9.54888 97.0205 9.54888 97.0266C9.54888 97.0326 9.54888 97.0386 9.54888 97.0447C9.54888 97.0507 9.54888 97.0568 9.54888 97.0628C9.54888 97.0689 9.54888 97.0749 9.54888 97.081C9.54888 97.087 9.54888 97.0931 9.54888 97.0991C9.54888 97.1052 9.54888 97.1112 9.54888 97.1173C9.54888 97.1233 9.54888 97.1294 9.54888 97.1355C9.54888 97.1415 9.54888 97.1476 9.54888 97.1536C9.54888 97.1597 9.54888 97.1657 9.54888 97.1718C9.54888 97.1779 9.54888 97.1839 9.54888 97.19C9.54888 97.1961 9.54888 97.2021 9.54888 97.2082C9.54888 97.2143 9.54888 97.2203 9.54888 97.2264C9.54888 97.2325 9.54888 97.2385 9.54888 97.2446H12.3198C12.3198 97.2385 12.3198 97.2325 12.3198 97.2264C12.3198 97.2203 12.3198 97.2143 12.3198 97.2082C12.3198 97.2021 12.3198 97.1961 12.3198 97.19C12.3198 97.1839 12.3198 97.1779 12.3198 97.1718C12.3198 97.1657 12.3198 97.1597 12.3198 97.1536C12.3198 97.1476 12.3198 97.1415 12.3198 97.1355C12.3198 97.1294 12.3198 97.1233 12.3198 97.1173C12.3198 97.1112 12.3198 97.1052 12.3198 97.0991C12.3198 97.0931 12.3198 97.087 12.3198 97.081C12.3198 97.0749 12.3198 97.0689 12.3198 97.0628C12.3198 97.0568 12.3198 97.0507 12.3198 97.0447C12.3198 97.0386 12.3198 97.0326 12.3198 97.0266C12.3198 97.0205 12.3198 97.0145 12.3198 97.0084C12.3198 97.0024 12.3198 96.9963 12.3198 96.9903C12.3198 96.9843 12.3198 96.9782 12.3198 96.9722C12.3198 96.9662 12.3198 96.9601 12.3198 96.9541C12.3198 96.9481 12.3198 96.942 12.3198 96.936C12.3198 96.93 12.3198 96.9239 12.3198 96.9179C12.3198 96.9119 12.3198 96.9058 12.3198 96.8998C12.3198 96.8938 12.3198 96.8878 12.3198 96.8817C12.3198 96.8757 12.3198 96.8697 12.3198 96.8637C12.3198 96.8576 12.3198 96.8516 12.3198 96.8456C12.3198 96.8396 12.3198 96.8336 12.3198 96.8275C12.3198 96.8215 12.3198 96.8155 12.3198 96.8095C12.3198 96.8035 12.3198 96.7975 12.3198 96.7914C12.3198 96.7854 12.3198 96.7794 12.3198 96.7734C12.3198 96.7674 12.3198 96.7614 12.3198 96.7554C12.3198 96.7494 12.3198 96.7434 12.3198 96.7373C12.3198 96.7313 12.3198 96.7253 12.3198 96.7193C12.3198 96.7133 12.3198 96.7073 12.3198 96.7013C12.3198 96.6953 12.3198 96.6893 12.3198 96.6833C12.3198 96.6773 12.3198 96.6713 12.3198 96.6653C12.3198 96.6593 12.3198 96.6533 12.3198 96.6473C12.3198 96.6413 12.3198 96.6353 12.3198 96.6293C12.3198 96.6233 12.3198 96.6174 12.3198 96.6114C12.3198 96.6054 12.3198 96.5994 12.3198 96.5934C12.3198 96.5874 12.3198 96.5814 12.3198 96.5754C12.3198 96.5694 12.3198 96.5635 12.3198 96.5575C12.3198 96.5515 12.3198 96.5455 12.3198 96.5395C12.3198 96.5335 12.3198 96.5276 12.3198 96.5216C12.3198 96.5156 12.3198 96.5096 12.3198 96.5036C12.3198 96.4977 12.3198 96.4917 12.3198 96.4857C12.3198 96.4797 12.3198 96.4738 12.3198 96.4678C12.3198 96.4618 12.3198 96.4558 12.3198 96.4499C12.3198 96.4439 12.3198 96.4379 12.3198 96.432C12.3198 96.426 12.3198 96.42 12.3198 96.4141C12.3198 96.4081 12.3198 96.4021 12.3198 96.3962C12.3198 96.3902 12.3198 96.3842 12.3198 96.3783C12.3198 96.3723 12.3198 96.3664 12.3198 96.3604C12.3198 96.3544 12.3198 96.3485 12.3198 96.3425C12.3198 96.3366 12.3198 96.3306 12.3198 96.3246C12.3198 96.3187 12.3198 96.3127 12.3198 96.3068C12.3198 96.3008 12.3198 96.2949 12.3198 96.2889C12.3198 96.283 12.3198 96.277 12.3198 96.2711C12.3198 96.2651 12.3198 96.2592 12.3198 96.2532C12.3198 96.2473 12.3198 96.2413 12.3198 96.2354C12.3198 96.2295 12.3198 96.2235 12.3198 96.2176C12.3198 96.2116 12.3198 96.2057 12.3198 96.1998C12.3198 96.1938 12.3198 96.1879 12.3198 96.1819C12.3198 96.176 12.3198 96.1701 12.3198 96.1641C12.3198 96.1582 12.3198 96.1523 12.3198 96.1463C12.3198 96.1404 12.3198 96.1345 12.3198 96.1285C12.3198 96.1226 12.3198 96.1167 12.3198 96.1107C12.3198 96.1048 12.3198 96.0989 12.3198 96.093C12.3198 96.087 12.3198 96.0811 12.3198 96.0752C12.3198 96.0693 12.3198 96.0633 12.3198 96.0574C12.3198 96.0515 12.3198 96.0456 12.3198 96.0397C12.3198 96.0338 12.3198 96.0278 12.3198 96.0219C12.3198 96.016 12.3198 96.0101 12.3198 96.0042C12.3198 95.9983 12.3198 95.9923 12.3198 95.9864C12.3198 95.9805 12.3198 95.9746 12.3198 95.9687C12.3198 95.9628 12.3198 95.9569 12.3198 95.951C12.3198 95.9451 12.3198 95.9392 12.3198 95.9333C12.3198 95.9273 12.3198 95.9214 12.3198 95.9155C12.3198 95.9096 12.3198 95.9037 12.3198 95.8978C12.3198 95.8919 12.3198 95.886 12.3198 95.8801C12.3198 95.8742 12.3198 95.8683 12.3198 95.8624C12.3198 95.8565 12.3198 95.8506 12.3198 95.8447C12.3198 95.8389 12.3198 95.833 12.3198 95.8271C12.3198 95.8212 12.3198 95.8153 12.3198 95.8094C12.3198 95.8035 12.3198 95.7976 12.3198 95.7917C12.3198 95.7859 12.3198 95.78 12.3198 95.7741C12.3198 95.7682 12.3198 95.7623 12.3198 95.7564C12.3198 95.7505 12.3198 95.7447 12.3198 95.7388C12.3198 95.7329 12.3198 95.727 12.3198 95.7211C12.3198 95.7153 12.3198 95.7094 12.3198 95.7035C12.3198 95.6976 12.3198 95.6918 12.3198 95.6859C12.3198 95.68 12.3198 95.6741 12.3198 95.6683C12.3198 95.6624 12.3198 95.6565 12.3198 95.6507C12.3198 95.6448 12.3198 95.6389 12.3198 95.633C12.3198 95.6272 12.3198 95.6213 12.3198 95.6154C12.3198 95.6096 12.3198 95.6037 12.3198 95.5979C12.3198 95.592 12.3198 95.5861 12.3198 95.5803C12.3198 95.5744 12.3198 95.5686 12.3198 95.5627C12.3198 95.5568 12.3198 95.551 12.3198 95.5451C12.3198 95.5393 12.3198 95.5334 12.3198 95.5276C12.3198 95.5217 12.3198 95.5159 12.3198 95.51C12.3198 95.5042 12.3198 95.4983 12.3198 95.4925C12.3198 95.4866 12.3198 95.4808 12.3198 95.4749C12.3198 95.4691 12.3198 95.4632 12.3198 95.4574C12.3198 95.4515 12.3198 95.4457 12.3198 95.4398C12.3198 95.434 12.3198 95.4282 12.3198 95.4223C12.3198 95.4165 12.3198 95.4106 12.3198 95.4048C12.3198 95.399 12.3198 95.3931 12.3198 95.3873C12.3198 95.3815 12.3198 95.3756 12.3198 95.3698C12.3198 95.364 12.3198 95.3581 12.3198 95.3523C12.3198 95.3465 12.3198 95.3406 12.3198 95.3348C12.3198 95.329 12.3198 95.3232 12.3198 95.3173C12.3198 95.3115 12.3198 95.3057 12.3198 95.2999C12.3198 95.294 12.3198 95.2882 12.3198 95.2824C12.3198 95.2766 12.3198 95.2707 12.3198 95.2649C12.3198 95.2591 12.3198 95.2533 12.3198 95.2475C12.3198 95.2416 12.3198 95.2358 12.3198 95.23C12.3198 95.2242 12.3198 95.2184 12.3198 95.2126C12.3198 95.2068 12.3198 95.201 12.3198 95.1951C12.3198 95.1893 12.3198 95.1835 12.3198 95.1777C12.3198 95.1719 12.3198 95.1661 12.3198 95.1603C12.3198 95.1545 12.3198 95.1487 12.3198 95.1429C12.3198 95.1371 12.3198 95.1313 12.3198 95.1255C12.3198 95.1197 12.3198 95.1139 12.3198 95.1081C12.3198 95.1023 12.3198 95.0965 12.3198 95.0907C12.3198 95.0849 12.3198 95.0791 12.3198 95.0733C12.3198 95.0675 12.3198 95.0617 12.3198 95.0559C12.3198 95.0501 12.3198 95.0443 12.3198 95.0385C12.3198 95.0327 12.3198 95.0269 12.3198 95.0212C12.3198 95.0154 12.3198 95.0096 12.3198 95.0038C12.3198 94.998 12.3198 94.9922 12.3198 94.9864C12.3198 94.9807 12.3198 94.9749 12.3198 94.9691C12.3198 94.9633 12.3198 94.9575 12.3198 94.9518C12.3198 94.946 12.3198 94.9402 12.3198 94.9344C12.3198 94.9286 12.3198 94.9229 12.3198 94.9171C12.3198 94.9113 12.3198 94.9055 12.3198 94.8998C12.3198 94.894 12.3198 94.8882 12.3198 94.8825C12.3198 94.8767 12.3198 94.8709 12.3198 94.8652C12.3198 94.8594 12.3198 94.8536 12.3198 94.8479C12.3198 94.8421 12.3198 94.8363 12.3198 94.8306C12.3198 94.8248 12.3198 94.819 12.3198 94.8133C12.3198 94.8075 12.3198 94.8018 12.3198 94.796C12.3198 94.7902 12.3198 94.7845 12.3198 94.7787C12.3198 94.773 12.3198 94.7672 12.3198 94.7615C12.3198 94.7557 12.3198 94.75 12.3198 94.7442C12.3198 94.7384 12.3198 94.7327 12.3198 94.7269C12.3198 94.7212 12.3198 94.7154 12.3198 94.7097C12.3198 94.704 12.3198 94.6982 12.3198 94.6925C12.3198 94.6867 12.3198 94.681 12.3198 94.6752C12.3198 94.6695 12.3198 94.6637 12.3198 94.658C12.3198 94.6523 12.3198 94.6465 12.3198 94.6408C12.3198 94.635 12.3198 94.6293 12.3198 94.6236C12.3198 94.6178 12.3198 94.6121 12.3198 94.6064C12.3198 94.6006 12.3198 94.5949 12.3198 94.5892C12.3198 94.5834 12.3198 94.5777 12.3198 94.572C12.3198 94.5663 12.3198 94.5605 12.3198 94.5548C12.3198 94.5491 12.3198 94.5433 12.3198 94.5376C12.3198 94.5319 12.3198 94.5262 12.3198 94.5204C12.3198 94.5147 12.3198 94.509 12.3198 94.5033C12.3198 94.4976 12.3198 94.4918 12.3198 94.4861C12.3198 94.4804 12.3198 94.4747 12.3198 94.469C12.3198 94.4633 12.3198 94.4575 12.3198 94.4518C12.3198 94.4461 12.3198 94.4404 12.3198 94.4347C12.3198 94.429 12.3198 94.4233 12.3198 94.4176C12.3198 94.4119 12.3198 94.4062 12.3198 94.4004C12.3198 94.3947 12.3198 94.389 12.3198 94.3833C12.3198 94.3776 12.3198 94.3719 12.3198 94.3662C12.3198 94.3605 12.3198 94.3548 12.3198 94.3491C12.3198 94.3434 12.3198 94.3377 12.3198 94.332C12.3198 94.3263 12.3198 94.3206 12.3198 94.3149C12.3198 94.3092 12.3198 94.3035 12.3198 94.2978C12.3198 94.2921 12.3198 94.2865 12.3198 94.2808C12.3198 94.2751 12.3198 94.2694 12.3198 94.2637C12.3198 94.258 12.3198 94.2523 12.3198 94.2466C12.3198 94.2409 12.3198 94.2353 12.3198 94.2296C12.3198 94.2239 12.3198 94.2182 12.3198 94.2125C12.3198 94.2068 12.3198 94.2012 12.3198 94.1955C12.3198 94.1898 12.3198 94.1841 12.3198 94.1785C12.3198 94.1728 12.3198 94.1671 12.3198 94.1614C12.3198 94.1557 12.3198 94.1501 12.3198 94.1444C12.3198 94.1387 12.3198 94.1331 12.3198 94.1274C12.3198 94.1217 12.3198 94.116 12.3198 94.1104C12.3198 94.1047 12.3198 94.099 12.3198 94.0934C12.3198 94.0877 12.3198 94.082 12.3198 94.0764C12.3198 94.0707 12.3198 94.0651 12.3198 94.0594C12.3198 94.0537 12.3198 94.0481 12.3198 94.0424C12.3198 94.0368 12.3198 94.0311 12.3198 94.0254C12.3198 94.0198 12.3198 94.0141 12.3198 94.0085C12.3198 94.0028 12.3198 93.9972 12.3198 93.9915C12.3198 93.9859 12.3198 93.9802 12.3198 93.9746C12.3198 93.9689 12.3198 93.9633 12.3198 93.9576C12.3198 93.952 12.3198 93.9463 12.3198 93.9407C12.3198 93.935 12.3198 93.9294 12.3198 93.9237C12.3198 93.9181 12.3198 93.9124 12.3198 93.9068C12.3198 93.9012 12.3198 93.8955 12.3198 93.8899C12.3198 93.8842 12.3198 93.8786 12.3198 93.873C12.3198 93.8673 12.3198 93.8617 12.3198 93.8561C12.3198 93.8504 12.3198 93.8448 12.3198 93.8392C12.3198 93.8335 12.3198 93.8279 12.3198 93.8223C12.3198 93.8166 12.3198 93.811 12.3198 93.8054C12.3198 93.7998 12.3198 93.7941 12.3198 93.7885C12.3198 93.7829 12.3198 93.7773 12.3198 93.7716C12.3198 93.766 12.3198 93.7604 12.3198 93.7548C12.3198 93.7491 12.3198 93.7435 12.3198 93.7379C12.3198 93.7323 12.3198 93.7267 12.3198 93.7211C12.3198 93.7154 12.3198 93.7098 12.3198 93.7042C12.3198 93.6986 12.3198 93.693 12.3198 93.6874C12.3198 93.6818 12.3198 93.6761 12.3198 93.6705C12.3198 93.6649 12.3198 93.6593 12.3198 93.6537C12.3198 93.6481 12.3198 93.6425 12.3198 93.6369C12.3198 93.6313 12.3198 93.6257 12.3198 93.6201C12.3198 93.6145 12.3198 93.6089 12.3198 93.6033C12.3198 93.5977 12.3198 93.5921 12.3198 93.5865C12.3198 93.5809 12.3198 93.5753 12.3198 93.5697C12.3198 93.5641 12.3198 93.5585 12.3198 93.5529C12.3198 93.5473 12.3198 93.5417 12.3198 93.5361C12.3198 93.5305 12.3198 93.5249 12.3198 93.5193C12.3198 93.5138 12.3198 93.5082 12.3198 93.5026C12.3198 93.497 12.3198 93.4914 12.3198 93.4858C12.3198 93.4802 12.3198 93.4747 12.3198 93.4691C12.3198 93.4635 12.3198 93.4579 12.3198 93.4523C12.3198 93.4468 12.3198 93.4412 12.3198 93.4356C12.3198 93.43 12.3198 93.4244 12.3198 93.4189C12.3198 93.4133 12.3198 93.4077 12.3198 93.4021C12.3198 93.3966 12.3198 93.391 12.3198 93.3854C12.3198 93.3799 12.3198 93.3743 12.3198 93.3687C12.3198 93.3631 12.3198 93.3576 12.3198 93.352C12.3198 93.3464 12.3198 93.3409 12.3198 93.3353C12.3198 93.3298 12.3198 93.3242 12.3198 93.3186C12.3198 93.3131 12.3198 93.3075 12.3198 93.3019C12.3198 93.2964 12.3198 93.2908 12.3198 93.2853C12.3198 93.2797 12.3198 93.2741 12.3198 93.2686C12.3198 93.263 12.3198 93.2575 12.3198 93.2519C12.3198 93.2464 12.3198 93.2408 12.3198 93.2353C12.3198 93.2297 12.3198 93.2242 12.3198 93.2186C12.3198 93.2131 12.3198 93.2075 12.3198 93.202C12.3198 93.1964 12.3198 93.1909 12.3198 93.1853C12.3198 93.1798 12.3198 93.1743 12.3198 93.1687C12.3198 93.1632 12.3198 93.1576 12.3198 93.1521C12.3198 93.1466 12.3198 93.141 12.3198 93.1355C12.3198 93.1299 12.3198 93.1244 12.3198 93.1189C12.3198 93.1133 12.3198 93.1078 12.3198 93.1023C12.3198 93.0967 12.3198 93.0912 12.3198 93.0857C12.3198 93.0801 12.3198 93.0746 12.3198 93.0691C12.3198 93.0636 12.3198 93.058 12.3198 93.0525C12.3198 93.047 12.3198 93.0415 12.3198 93.0359C12.3198 93.0304 12.3198 93.0249 12.3198 93.0194C12.3198 93.0138 12.3198 93.0083 12.3198 93.0028C12.3198 92.9973 12.3198 92.9918 12.3198 92.9863C12.3198 92.9807 12.3198 92.9752 12.3198 92.9697C12.3198 92.9642 12.3198 92.9587 12.3198 92.9532C12.3198 92.9476 12.3198 92.9421 12.3198 92.9366C12.3198 92.9311 12.3198 92.9256 12.3198 92.9201C12.3198 92.9146 12.3198 92.9091 12.3198 92.9036C12.3198 92.8981 12.3198 92.8926 12.3198 92.8871C12.3198 92.8816 12.3198 92.8761 12.3198 92.8706C12.3198 92.8651 12.3198 92.8596 12.3198 92.8541C12.3198 92.8486 12.3198 92.8431 12.3198 92.8376C12.3198 92.8321 12.3198 92.8266 12.3198 92.8211C12.3198 92.8156 12.3198 92.8101 12.3198 92.8046C12.3198 92.7991 12.3198 92.7936 12.3198 92.7881C12.3198 92.7826 12.3198 92.7771 12.3198 92.7717C12.3198 92.7662 12.3198 92.7607 12.3198 92.7552C12.3198 92.7497 12.3198 92.7442 12.3198 92.7387C12.3198 92.7333 12.3198 92.7278 12.3198 92.7223C12.3198 92.7168 12.3198 92.7113 12.3198 92.7059C12.3198 92.7004 12.3198 92.6949 12.3198 92.6894C12.3198 92.684 12.3198 92.6785 12.3198 92.673C12.3198 92.6675 12.3198 92.6621 12.3198 92.6566C12.3198 92.6511 12.3198 92.6456 12.3198 92.6402C12.3198 92.6347 12.3198 92.6292 12.3198 92.6238C12.3198 92.6183 12.3198 92.6128 12.3198 92.6074C12.3198 92.6019 12.3198 92.5964 12.3198 92.591C12.3198 92.5855 12.3198 92.58 12.3198 92.5746C12.3198 92.5691 12.3198 92.5637 12.3198 92.5582C12.3198 92.5527 12.3198 92.5473 12.3198 92.5418C12.3198 92.5364 12.3198 92.5309 12.3198 92.5255C12.3198 92.52 12.3198 92.5146 12.3198 92.5091C12.3198 92.5037 12.3198 92.4982 12.3198 92.4928C12.3198 92.4873 12.3198 92.4819 12.3198 92.4764C12.3198 92.471 12.3198 92.4655 12.3198 92.4601C12.3198 92.4546 12.3198 92.4492 12.3198 92.4437C12.3198 92.4383 12.3198 92.4329 12.3198 92.4274C12.3198 92.422 12.3198 92.4165 12.3198 92.4111C12.3198 92.4057 12.3198 92.4002 12.3198 92.3948C12.3198 92.3894 12.3198 92.3839 12.3198 92.3785C12.3198 92.3731 12.3198 92.3676 12.3198 92.3622C12.3198 92.3568 12.3198 92.3513 12.3198 92.3459C12.3198 92.3405 12.3198 92.3351 12.3198 92.3296C12.3198 92.3242 12.3198 92.3188 12.3198 92.3133C12.3198 92.3079 12.3198 92.3025 12.3198 92.2971C12.3198 92.2917 12.3198 92.2862 12.3198 92.2808C12.3198 92.2754 12.3198 92.27 12.3198 92.2646C12.3198 92.2591 12.3198 92.2537 12.3198 92.2483C12.3198 92.2429 12.3198 92.2375 12.3198 92.2321C12.3198 92.2267 12.3198 92.2212 12.3198 92.2158C12.3198 92.2104 12.3198 92.205 12.3198 92.1996C12.3198 92.1942 12.3198 92.1888 12.3198 92.1834C12.3198 92.178 12.3198 92.1726 12.3198 92.1672C12.3198 92.1618 12.3198 92.1564 12.3198 92.151C12.3198 92.1456 12.3198 92.1402 12.3198 92.1348C12.3198 92.1293 12.3198 92.124 12.3198 92.1186C12.3198 92.1132 12.3198 92.1078 12.3198 92.1024C12.3198 92.097 12.3198 92.0916 12.3198 92.0862C12.3198 92.0808 12.3198 92.0754 12.3198 92.07C12.3198 92.0646 12.3198 92.0592 12.3198 92.0538C12.3198 92.0485 12.3198 92.0431 12.3198 92.0377C12.3198 92.0323 12.3198 92.0269 12.3198 92.0215C12.3198 92.0161 12.3198 92.0108 12.3198 92.0054C12.3198 92 12.3198 91.9946 12.3198 91.9892C12.3198 91.9839 12.3198 91.9785 12.3198 91.9731C12.3198 91.9677 12.3198 91.9623 12.3198 91.957C12.3198 91.9516 12.3198 91.9462 12.3198 91.9409C12.3198 91.9355 12.3198 91.9301 12.3198 91.9247C12.3198 91.9194 12.3198 91.914 12.3198 91.9086C12.3198 91.9033 12.3198 91.8979 12.3198 91.8925C12.3198 91.8872 12.3198 91.8818 12.3198 91.8764C12.3198 91.8711 12.3198 91.8657 12.3198 91.8604C12.3198 91.855 12.3198 91.8496 12.3198 91.8443C12.3198 91.8389 12.3198 91.8336 12.3198 91.8282C12.3198 91.8228 12.3198 91.8175 12.3198 91.8121C12.3198 91.8068 12.3198 91.8014 12.3198 91.7961C12.3198 91.7907 12.3198 91.7854 12.3198 91.78C12.3198 91.7747 12.3198 91.7693 12.3198 91.764C12.3198 91.7586 12.3198 91.7533 12.3198 91.7479C12.3198 91.7426 12.3198 91.7372 12.3198 91.7319C12.3198 91.7266 12.3198 91.7212 12.3198 91.7159C12.3198 91.7105 12.3198 91.7052 12.3198 91.6999C12.3198 91.6945 12.3198 91.6892 12.3198 91.6838C12.3198 91.6785 12.3198 91.6732 12.3198 91.6678C12.3198 91.6625 12.3198 91.6572 12.3198 91.6518C12.3198 91.6465 12.3198 91.6412 12.3198 91.6358C12.3198 91.6305 12.3198 91.6252 12.3198 91.6199C12.3198 91.6145 12.3198 91.6092 12.3198 91.6039C12.3198 91.5986 12.3198 91.5932 12.3198 91.5879C12.3198 91.5826 12.3198 91.5773 12.3198 91.5719C12.3198 91.5666 12.3198 91.5613 12.3198 91.556C12.3198 91.5507 12.3198 91.5453 12.3198 91.54C12.3198 91.5347 12.3198 91.5294 12.3198 91.5241C12.3198 91.5188 12.3198 91.5135 12.3198 91.5081C12.3198 91.5028 12.3198 91.4975 12.3198 91.4922C12.3198 91.4869 12.3198 91.4816 12.3198 91.4763C12.3198 91.471 12.3198 91.4657 12.3198 91.4604C12.3198 91.4551 12.3198 91.4498 12.3198 91.4445C12.3198 91.4392 12.3198 91.4339 12.3198 91.4286C12.3198 91.4233 12.3198 91.418 12.3198 91.4127C12.3198 91.4074 12.3198 91.4021 12.3198 91.3968C12.3198 91.3915 12.3198 91.3862 12.3198 91.3809C12.3198 91.3756 12.3198 91.3703 12.3198 91.365C12.3198 91.3597 12.3198 91.3544 12.3198 91.3491C12.3198 91.3439 12.3198 91.3386 12.3198 91.3333C12.3198 91.328 12.3198 91.3227 12.3198 91.3174C12.3198 91.3121 12.3198 91.3069 12.3198 91.3016C12.3198 91.2963 12.3198 91.291 12.3198 91.2857C12.3198 91.2804 12.3198 91.2752 12.3198 91.2699C12.3198 91.2646 12.3198 91.2593 12.3198 91.2541C12.3198 91.2488 12.3198 91.2435 12.3198 91.2382C12.3198 91.233 12.3198 91.2277 12.3198 91.2224C12.3198 91.2172 12.3198 91.2119 12.3198 91.2066C12.3198 91.2013 12.3198 91.1961 12.3198 91.1908C12.3198 91.1855 12.3198 91.1803 12.3198 91.175C12.3198 91.1698 12.3198 91.1645 12.3198 91.1592C12.3198 91.154 12.3198 91.1487 12.3198 91.1434C12.3198 91.1382 12.3198 91.1329 12.3198 91.1277C12.3198 91.1224 12.3198 91.1172 12.3198 91.1119C12.3198 91.1067 12.3198 91.1014 12.3198 91.0961C12.3198 91.0909 12.3198 91.0856 12.3198 91.0804C12.3198 91.0751 12.3198 91.0699 12.3198 91.0646C12.3198 91.0594 12.3198 91.0541 12.3198 91.0489C12.3198 91.0437 12.3198 91.0384 12.3198 91.0332C12.3198 91.0279 12.3198 91.0227 12.3198 91.0174C12.3198 91.0122 12.3198 91.007 12.3198 91.0017C12.3198 90.9965 12.3198 90.9912 12.3198 90.986C12.3198 90.9808 12.3198 90.9755 12.3198 90.9703C12.3198 90.9651 12.3198 90.9598 12.3198 90.9546C12.3198 90.9494 12.3198 90.9441 12.3198 90.9389C12.3198 90.9337 12.3198 90.9284 12.3198 90.9232C12.3198 90.918 12.3198 90.9128 12.3198 90.9075C12.3198 90.9023 12.3198 90.8971 12.3198 90.8919C12.3198 90.8866 12.3198 90.8814 12.3198 90.8762C12.3198 90.871 12.3198 90.8657 12.3198 90.8605C12.3198 90.8553 12.3198 90.8501 12.3198 90.8449C12.3198 90.8397 12.3198 90.8344 12.3198 90.8292C12.3198 90.824 12.3198 90.8188 12.3198 90.8136C12.3198 90.8084 12.3198 90.8032 12.3198 90.798C12.3198 90.7927 12.3198 90.7875 12.3198 90.7823C12.3198 90.7771 12.3198 90.7719 12.3198 90.7667C12.3198 90.7615 12.3198 90.7563 12.3198 90.7511C12.3198 90.7459 12.3198 90.7407 12.3198 90.7355C12.3198 90.7303 12.3198 90.7251 12.3198 90.7199C12.3198 90.7147 12.3198 90.7095 12.3198 90.7043C12.3198 90.6991 12.3198 90.6939 12.3198 90.6887C12.3198 90.6835 12.3198 90.6783 12.3198 90.6731C12.3198 90.6679 12.3198 90.6628 12.3198 90.6576C12.3198 90.6524 12.3198 90.6472 12.3198 90.642C12.3198 90.6368 12.3198 90.6316 12.3198 90.6264C12.3198 90.6213 12.3198 90.6161 12.3198 90.6109C12.3198 90.6057 12.3198 90.6005 12.3198 90.5953C12.3198 90.5902 12.3198 90.585 12.3198 90.5798C12.3198 90.5746 12.3198 90.5695 12.3198 90.5643C12.3198 90.5591 12.3198 90.5539 12.3198 90.5487C12.3198 90.5436 12.3198 90.5384 12.3198 90.5332C12.3198 90.5281 12.3198 90.5229 12.3198 90.5177C12.3198 90.5126 12.3198 90.5074 12.3198 90.5022C12.3198 90.497 12.3198 90.4919 12.3198 90.4867C12.3198 90.4816 12.3198 90.4764 12.3198 90.4712C12.3198 90.4661 12.3198 90.4609 12.3198 90.4557C12.3198 90.4506 12.3198 90.4454 12.3198 90.4403C12.3198 90.4351 12.3198 90.4299 12.3198 90.4248C12.3198 90.4196 12.3198 90.4145 12.3198 90.4093C12.3198 90.4042 12.3198 90.399 12.3198 90.3939C12.3198 90.3887 12.3198 90.3836 12.3198 90.3784C12.3198 90.3733 12.3198 90.3681 12.3198 90.363C12.3198 90.3578 12.3198 90.3527 12.3198 90.3475C12.3198 90.3424 12.3198 90.3373 12.3198 90.3321C12.3198 90.327 12.3198 90.3218 12.3198 90.3167C12.3198 90.3116 12.3198 90.3064 12.3198 90.3013C12.3198 90.2961 12.3198 90.291 12.3198 90.2859C12.3198 90.2807 12.3198 90.2756 12.3198 90.2705C12.3198 90.2653 12.3198 90.2602 12.3198 90.2551C12.3198 90.2499 12.3198 90.2448 12.3198 90.2397C12.3198 90.2346 12.3198 90.2294 12.3198 90.2243C12.3198 90.2192 12.3198 90.214 12.3198 90.2089C12.3198 90.2038 12.3198 90.1987 12.3198 90.1936C12.3198 90.1884 12.3198 90.1833 12.3198 90.1782C12.3198 90.1731 12.3198 90.1679 12.3198 90.1628C12.3198 90.1577 12.3198 90.1526 12.3198 90.1475C12.3198 90.1424 12.3198 90.1373 12.3198 90.1321C12.3198 90.127 12.3198 90.1219 12.3198 90.1168C12.3198 90.1117 12.3198 90.1066 12.3198 90.1015C12.3198 90.0964 12.3198 90.0913 12.3198 90.0862C12.3198 90.0811 12.3198 90.0759 12.3198 90.0708C12.3198 90.0657 12.3198 90.0606 12.3198 90.0555C12.3198 90.0504 12.3198 90.0453 12.3198 90.0402C12.3198 90.0351 12.3198 90.03 12.3198 90.0249C12.3198 90.0198 12.3198 90.0147 12.3198 90.0097C12.3198 90.0046 12.3198 89.9995 12.3198 89.9944C12.3198 89.9893 12.3198 89.9842 12.3198 89.9791C12.3198 89.974 12.3198 89.9689 12.3198 89.9638C12.3198 89.9587 12.3198 89.9537 12.3198 89.9486C12.3198 89.9435 12.3198 89.9384 12.3198 89.9333C12.3198 89.9282 12.3198 89.9231 12.3198 89.9181C12.3198 89.913 12.3198 89.9079 12.3198 89.9028C12.3198 89.8978 12.3198 89.8927 12.3198 89.8876C12.3198 89.8825 12.3198 89.8774 12.3198 89.8724C12.3198 89.8673 12.3198 89.8622 12.3198 89.8571C12.3198 89.8521 12.3198 89.847 12.3198 89.8419C12.3198 89.8369 12.3198 89.8318 12.3198 89.8267C12.3198 89.8217 12.3198 89.8166 12.3198 89.8115C12.3198 89.8065 12.3198 89.8014 12.3198 89.7963C12.3198 89.7913 12.3198 89.7862 12.3198 89.7812C12.3198 89.7761 12.3198 89.771 12.3198 89.766C12.3198 89.7609 12.3198 89.7559 12.3198 89.7508C12.3198 89.7457 12.3198 89.7407 12.3198 89.7356C12.3198 89.7306 12.3198 89.7255 12.3198 89.7205C12.3198 89.7154 12.3198 89.7104 12.3198 89.7053C12.3198 89.7003 12.3198 89.6952 12.3198 89.6902C12.3198 89.6851 12.3198 89.6801 12.3198 89.675C12.3198 89.67 12.3198 89.6649 12.3198 89.6599C12.3198 89.6549 12.3198 89.6498 12.3198 89.6448C12.3198 89.6397 12.3198 89.6347 12.3198 89.6297C12.3198 89.6246 12.3198 89.6196 12.3198 89.6146C12.3198 89.6095 12.3198 89.6045 12.3198 89.5994C12.3198 89.5944 12.3198 89.5894 12.3198 89.5844C12.3198 89.5793 12.3198 89.5743 12.3198 89.5693C12.3198 89.5642 12.3198 89.5592 12.3198 89.5542C12.3198 89.5491 12.3198 89.5441 12.3198 89.5391C12.3198 89.5341 12.3198 89.5291 12.3198 89.524C12.3198 89.519 12.3198 89.514 12.3198 89.509C12.3198 89.5039 12.3198 89.4989 12.3198 89.4939C12.3198 89.4889 12.3198 89.4839 12.3198 89.4789C12.3198 89.4738 12.3198 89.4688 12.3198 89.4638C12.3198 89.4588 12.3198 89.4538 12.3198 89.4488C12.3198 89.4438 12.3198 89.4388 12.3198 89.4337C12.3198 89.4287 12.3198 89.4237 12.3198 89.4187C12.3198 89.4137 12.3198 89.4087 12.3198 89.4037C12.3198 89.3987 12.3198 89.3937 12.3198 89.3887C12.3198 89.3837 12.3198 89.3787 12.3198 89.3737C12.3198 89.3687 12.3198 89.3637 12.3198 89.3587C12.3198 89.3537 12.3198 89.3487 12.3198 89.3437C12.3198 89.3387 12.3198 89.3337 12.3198 89.3287C12.3198 89.3237 12.3198 89.3187 12.3198 89.3138C12.3198 89.3088 12.3198 89.3038 12.3198 89.2988C12.3198 89.2938 12.3198 89.2888 12.3198 89.2838C12.3198 89.2788 12.3198 89.2738 12.3198 89.2689C12.3198 89.2639 12.3198 89.2589 12.3198 89.2539C12.3198 89.2489 12.3198 89.2439 12.3198 89.239C12.3198 89.234 12.3198 89.229 12.3198 89.224C12.3198 89.2191 12.3198 89.2141 12.3198 89.2091C12.3198 89.2041 12.3198 89.1992 12.3198 89.1942C12.3198 89.1892 12.3198 89.1842 12.3198 89.1793C12.3198 89.1743 12.3198 89.1693 12.3198 89.1644C12.3198 89.1594 12.3198 89.1544 12.3198 89.1495C12.3198 89.1445 12.3198 89.1395 12.3198 89.1346C12.3198 89.1296 12.3198 89.1246 12.3198 89.1197C12.3198 89.1147 12.3198 89.1098 12.3198 89.1048C12.3198 89.0998 12.3198 89.0949 12.3198 89.0899C12.3198 89.085 12.3198 89.08 12.3198 89.0751C12.3198 89.0701 12.3198 89.0651 12.3198 89.0602C12.3198 89.0552 12.3198 89.0503 12.3198 89.0453C12.3198 89.0404 12.3198 89.0354 12.3198 89.0305C12.3198 89.0255 12.3198 89.0206 12.3198 89.0157C12.3198 89.0107 12.3198 89.0058 12.3198 89.0008C12.3198 88.9959 12.3198 88.9909 12.3198 88.986C12.3198 88.981 12.3198 88.9761 12.3198 88.9712C12.3198 88.9662 12.3198 88.9613 12.3198 88.9564C12.3198 88.9514 12.3198 88.9465 12.3198 88.9416C12.3198 88.9366 12.3198 88.9317 12.3198 88.9268C12.3198 88.9218 12.3198 88.9169 12.3198 88.912C12.3198 88.907 12.3198 88.9021 12.3198 88.8972C12.3198 88.8922 12.3198 88.8873 12.3198 88.8824C12.3198 88.8775 12.3198 88.8725 12.3198 88.8676C12.3198 88.8627 12.3198 88.8578 12.3198 88.8529C12.3198 88.8479 12.3198 88.843 12.3198 88.8381C12.3198 88.8332 12.3198 88.8283 12.3198 88.8233C12.3198 88.8184 12.3198 88.8135 12.3198 88.8086H9.54888ZM9.55045 97.3105C9.69746 100.398 9.77088 103.41 9.77088 106.347H12.5418C12.5418 103.364 12.4672 100.308 12.3182 97.1787L9.55045 97.3105ZM9.7728 106.419C9.91967 109.21 9.99288 111.85 9.99288 114.339H12.7638C12.7638 111.796 12.689 109.107 12.5398 106.274L9.7728 106.419ZM9.99558 114.425C10.1429 116.783 10.2149 118.599 10.2149 119.889H12.9858C12.9858 118.514 12.9097 116.631 12.7611 114.252L9.99558 114.425ZM10.2149 119.889C10.2149 126.05 9.84817 132.06 9.11558 137.921L11.8651 138.264C12.6125 132.285 12.9858 126.16 12.9858 119.889H10.2149ZM9.11558 137.921C8.39354 143.697 6.80614 149.179 4.35354 154.373L6.8591 155.556C9.4385 150.094 11.1071 144.328 11.8651 138.264L9.11558 137.921ZM6.00442 153.638C4.64009 153.228 3.52654 152.696 2.63759 152.061L1.02705 154.316C2.21011 155.161 3.61255 155.813 5.20822 156.292L6.00442 153.638ZM2.73395 152.137C2.06475 151.563 1.66376 150.724 1.66376 149.415H-1.10712C-1.10712 151.361 -0.472109 153.038 0.93069 154.241L2.73395 152.137ZM1.53378 150C2.63791 147.634 3.55249 144.476 4.30283 140.574L1.58181 140.051C0.852147 143.845 -0.00926667 146.755 -0.97714 148.829L1.53378 150ZM4.3046 140.565C5.06313 136.469 5.43776 131.868 5.43776 126.771H2.66688C2.66688 131.737 2.30151 136.164 1.58004 140.06L4.3046 140.565ZM5.43776 126.771C5.43776 120.522 5.21463 113.613 4.76937 106.043L2.00327 106.206C2.44601 113.732 2.66688 120.587 2.66688 126.771H5.43776ZM4.77069 106.07C4.47542 98.5407 4.32776 90.9368 4.32776 83.2586H1.55688C1.55688 90.9724 1.70522 98.6125 2.00195 106.179L4.77069 106.07ZM4.32776 83.2586C4.32776 77.6589 4.47512 72.2085 4.76962 66.9074L2.00302 66.7537C1.70552 72.1087 1.55688 77.6103 1.55688 83.2586H4.32776ZM4.76962 66.9074C5.06121 61.6589 5.78949 56.7142 6.95039 52.0706L4.26225 51.3986C3.05515 56.227 2.30343 61.3463 2.00302 66.7537L4.76962 66.9074ZM6.99176 51.7346V1.78459H4.22088V51.7346H6.99176ZM6.58597 2.76424C7.33213 2.01808 8.29701 1.61603 9.60232 1.61603V-1.15484C7.65163 -1.15484 5.95251 -0.5209 4.62667 0.804933L6.58597 2.76424ZM9.60232 1.61603C10.9075 1.61603 11.986 2.0205 12.908 2.82724L14.7326 0.741937C13.2866 -0.523319 11.5531 -1.15484 9.60232 -1.15484V1.61603ZM12.6391 2.50856L42.1651 50.6826L44.5275 49.2346L15.0015 1.06061L12.6391 2.50856Z" fill="#F0F0F0" mask="url(#path-1-outside-1_1172_1727)"/>
</svg>
