<svg width="47" height="152" viewBox="0 0 47 152" fill="none" xmlns="http://www.w3.org/2000/svg">
<mask id="path-1-outside-1_1172_1734" maskUnits="userSpaceOnUse" x="-1.60547" y="-1.4917" width="50" height="155" fill="black">
<rect fill="white" x="-1.60547" y="-1.4917" width="50" height="155"/>
<path d="M10.6065 71.8123C12.0865 73.2923 13.2705 74.9203 14.1585 76.6963C15.1945 78.4723 16.0825 80.3223 16.8225 82.2463C17.5625 84.0223 18.2285 85.8723 18.8205 87.7963C19.5605 89.5723 20.5225 91.2743 21.7065 92.9023C24.3705 102.67 27.9965 111.92 32.5845 120.652C37.3205 129.384 41.8345 138.19 46.1265 147.07C45.6825 148.254 45.0165 149.364 44.1285 150.4C43.2405 151.436 42.2045 151.954 41.0205 151.954C40.2805 151.954 39.4665 151.732 38.5785 151.288C34.2865 146.404 30.5865 141.15 27.4785 135.526C24.3705 129.754 21.4845 123.908 18.8205 117.988C16.3045 111.92 13.8625 105.778 11.4945 99.5623C9.27453 93.3463 6.90653 87.2783 4.39053 81.3583C2.76253 80.6183 1.65253 79.8043 1.06053 78.9163C0.616531 78.0283 0.394531 77.0663 0.394531 76.0303C0.394531 74.2543 0.986531 72.3303 2.17053 70.2583C3.35453 68.1863 4.09453 66.3363 4.39053 64.7083C7.49853 59.9723 9.94053 55.0143 11.7165 49.8343C13.4925 44.6543 15.1205 39.4743 16.6005 34.2943C18.2285 28.9663 19.8565 23.7123 21.4845 18.5323C23.2605 13.3523 25.5545 8.3943 28.3665 3.6583C29.1065 3.51029 29.9205 2.99229 30.8085 2.10429C31.8445 1.21629 32.7325 0.772296 33.4725 0.772296C34.2125 0.772296 34.8045 1.4383 35.2485 2.7703C33.1765 11.6503 30.4385 20.2343 27.0345 28.5223C23.7785 36.8103 20.6705 45.3203 17.7105 54.0523C16.3785 57.0123 14.9725 59.9723 13.4925 62.9323C12.0125 65.7443 11.0505 68.7043 10.6065 71.8123ZM45.2385 80.9143C43.3145 80.1743 41.4645 79.2123 39.6885 78.0283C38.0605 76.8443 36.3585 75.7343 34.5825 74.6983C35.0265 72.7743 35.7665 71.4423 36.8025 70.7023C37.8385 69.8143 38.9485 69.3703 40.1325 69.3703C41.9085 69.3703 43.3885 70.1843 44.5725 71.8123C45.9045 73.4403 46.5705 75.5123 46.5705 78.0283C46.5705 78.7683 46.4225 79.3603 46.1265 79.8043C45.8305 80.1003 45.5345 80.4703 45.2385 80.9143Z"/>
</mask>
<path d="M10.6065 71.8123C12.0865 73.2923 13.2705 74.9203 14.1585 76.6963C15.1945 78.4723 16.0825 80.3223 16.8225 82.2463C17.5625 84.0223 18.2285 85.8723 18.8205 87.7963C19.5605 89.5723 20.5225 91.2743 21.7065 92.9023C24.3705 102.67 27.9965 111.92 32.5845 120.652C37.3205 129.384 41.8345 138.19 46.1265 147.07C45.6825 148.254 45.0165 149.364 44.1285 150.4C43.2405 151.436 42.2045 151.954 41.0205 151.954C40.2805 151.954 39.4665 151.732 38.5785 151.288C34.2865 146.404 30.5865 141.15 27.4785 135.526C24.3705 129.754 21.4845 123.908 18.8205 117.988C16.3045 111.92 13.8625 105.778 11.4945 99.5623C9.27453 93.3463 6.90653 87.2783 4.39053 81.3583C2.76253 80.6183 1.65253 79.8043 1.06053 78.9163C0.616531 78.0283 0.394531 77.0663 0.394531 76.0303C0.394531 74.2543 0.986531 72.3303 2.17053 70.2583C3.35453 68.1863 4.09453 66.3363 4.39053 64.7083C7.49853 59.9723 9.94053 55.0143 11.7165 49.8343C13.4925 44.6543 15.1205 39.4743 16.6005 34.2943C18.2285 28.9663 19.8565 23.7123 21.4845 18.5323C23.2605 13.3523 25.5545 8.3943 28.3665 3.6583C29.1065 3.51029 29.9205 2.99229 30.8085 2.10429C31.8445 1.21629 32.7325 0.772296 33.4725 0.772296C34.2125 0.772296 34.8045 1.4383 35.2485 2.7703C33.1765 11.6503 30.4385 20.2343 27.0345 28.5223C23.7785 36.8103 20.6705 45.3203 17.7105 54.0523C16.3785 57.0123 14.9725 59.9723 13.4925 62.9323C12.0125 65.7443 11.0505 68.7043 10.6065 71.8123ZM45.2385 80.9143C43.3145 80.1743 41.4645 79.2123 39.6885 78.0283C38.0605 76.8443 36.3585 75.7343 34.5825 74.6983C35.0265 72.7743 35.7665 71.4423 36.8025 70.7023C37.8385 69.8143 38.9485 69.3703 40.1325 69.3703C41.9085 69.3703 43.3885 70.1843 44.5725 71.8123C45.9045 73.4403 46.5705 75.5123 46.5705 78.0283C46.5705 78.7683 46.4225 79.3603 46.1265 79.8043C45.8305 80.1003 45.5345 80.4703 45.2385 80.9143Z" fill="#F0F0F0"/>
<path d="M10.6065 71.8123L9.23502 71.6164L9.13705 72.3021L9.62688 72.7919L10.6065 71.8123ZM14.1585 76.6963L12.9194 77.3159L12.9393 77.3558L12.9618 77.3944L14.1585 76.6963ZM16.8225 82.2463L15.5294 82.7436L15.5363 82.7615L15.5437 82.7792L16.8225 82.2463ZM18.8205 87.7963L17.4964 88.2037L17.516 88.2675L17.5417 88.3292L18.8205 87.7963ZM21.7065 92.9023L23.0432 92.5378L22.9763 92.2928L22.827 92.0874L21.7065 92.9023ZM32.5845 120.652L31.3581 121.297L31.3623 121.305L31.3667 121.313L32.5845 120.652ZM46.1265 147.07L47.4238 147.557L47.632 147.001L47.3739 146.467L46.1265 147.07ZM44.1285 150.4L45.1804 151.302L44.1285 150.4ZM38.5785 151.288L37.5378 152.203L37.7167 152.406L37.9589 152.527L38.5785 151.288ZM27.4785 135.526L26.2587 136.183L26.2623 136.19L26.2659 136.196L27.4785 135.526ZM18.8205 117.988L17.5407 118.519L17.5487 118.538L17.5571 118.557L18.8205 117.988ZM11.4945 99.5623L10.1898 100.028L10.1947 100.042L10.1999 100.056L11.4945 99.5623ZM4.39053 81.3583L5.66559 80.8164L5.45469 80.3202L4.96383 80.097L4.39053 81.3583ZM1.06053 78.9163L-0.178641 79.5359L-0.140068 79.613L-0.0922232 79.6848L1.06053 78.9163ZM4.39053 64.7083L3.23224 63.9482L3.0778 64.1835L3.02744 64.4605L4.39053 64.7083ZM11.7165 49.8343L13.0271 50.2836H13.0271L11.7165 49.8343ZM16.6005 34.2943L15.2756 33.8895L15.2719 33.9015L15.2684 33.9137L16.6005 34.2943ZM21.4845 18.5323L20.174 18.083L20.1682 18.0999L20.1628 18.1169L21.4845 18.5323ZM28.3665 3.6583L28.0948 2.29977L27.4901 2.42072L27.1753 2.95098L28.3665 3.6583ZM30.8085 2.10429L29.9069 1.05239L29.8665 1.08701L29.8289 1.12464L30.8085 2.10429ZM35.2485 2.7703L36.5977 3.08511L36.6867 2.70372L36.5629 2.33218L35.2485 2.7703ZM27.0345 28.5223L25.753 27.9959L25.7489 28.0058L25.745 28.0157L27.0345 28.5223ZM17.7105 54.0523L18.9739 54.6208L19.0013 54.5601L19.0226 54.4971L17.7105 54.0523ZM13.4925 62.9323L14.7185 63.5776L14.7253 63.5648L14.7317 63.5519L13.4925 62.9323ZM45.2385 80.9143L44.7412 82.2074L45.7762 82.6055L46.3913 81.6828L45.2385 80.9143ZM39.6885 78.0283L38.8737 79.1488L38.8965 79.1654L38.92 79.1811L39.6885 78.0283ZM34.5825 74.6983L33.2326 74.3868L33.0032 75.3809L33.8845 75.895L34.5825 74.6983ZM36.8025 70.7023L37.6078 71.8297L37.6576 71.7941L37.7042 71.7542L36.8025 70.7023ZM44.5725 71.8123L43.4521 72.6272L43.4753 72.6591L43.5003 72.6896L44.5725 71.8123ZM46.1265 79.8043L47.1062 80.784L47.2032 80.6869L47.2793 80.5728L46.1265 79.8043ZM9.62688 72.7919C11.0073 74.1724 12.1015 75.6801 12.9194 77.3159L15.3977 76.0767C14.4396 74.1605 13.1658 72.4122 11.5862 70.8326L9.62688 72.7919ZM12.9618 77.3944C13.9603 79.106 14.8161 80.8888 15.5294 82.7436L18.1156 81.749C17.349 79.7557 16.4288 77.8386 15.3552 75.9982L12.9618 77.3944ZM15.5437 82.7792C16.2658 84.5123 16.9168 86.3203 17.4964 88.2037L20.1447 87.3889C19.5402 85.4243 18.8593 83.5323 18.1014 81.7134L15.5437 82.7792ZM17.5417 88.3292C18.3252 90.2095 19.3414 92.0057 20.5861 93.7172L22.827 92.0874C21.7037 90.5429 20.7959 88.9351 20.0994 87.2634L17.5417 88.3292ZM20.3699 93.2668C23.0597 103.129 26.7221 112.473 31.3581 121.297L33.811 120.008C29.271 111.367 25.6814 102.211 23.0432 92.5378L20.3699 93.2668ZM31.3667 121.313C36.0925 130.026 40.5966 138.813 44.8792 147.673L47.3739 146.467C43.0724 137.568 38.5486 128.743 33.8024 119.992L31.3667 121.313ZM44.8293 146.584C44.4465 147.605 43.8676 148.576 43.0766 149.499L45.1804 151.302C46.1655 150.153 46.9185 148.904 47.4238 147.557L44.8293 146.584ZM43.0766 149.499C42.4072 150.28 41.7362 150.569 41.0205 150.569V153.34C42.6728 153.34 44.0738 152.593 45.1804 151.302L43.0766 149.499ZM41.0205 150.569C40.5562 150.569 39.9564 150.428 39.1981 150.049L37.9589 152.527C38.9766 153.036 40.0049 153.34 41.0205 153.34V150.569ZM39.6192 150.374C35.3924 145.564 31.7502 140.392 28.6911 134.856L26.2659 136.196C29.4228 141.909 33.1807 147.245 37.5378 152.203L39.6192 150.374ZM28.6984 134.869C25.6058 129.126 22.7343 123.31 20.0839 117.42L17.5571 118.557C20.2347 124.507 23.1353 130.383 26.2587 136.183L28.6984 134.869ZM20.1003 117.458C17.5895 111.402 15.1525 105.273 12.7892 99.0691L10.1999 100.056C12.5726 106.284 15.0195 112.438 17.5407 118.519L20.1003 117.458ZM12.7993 99.0963C10.5704 92.8554 8.1925 86.762 5.66559 80.8164L3.11547 81.9002C5.62057 87.7945 7.97871 93.8372 10.1898 100.028L12.7993 99.0963ZM4.96383 80.097C3.42957 79.3997 2.59493 78.7203 2.21329 78.1478L-0.0922232 79.6848C0.71013 80.8883 2.09549 81.8369 3.81723 82.6196L4.96383 80.097ZM2.2997 78.2967C1.95611 77.6095 1.77997 76.8609 1.77997 76.0303H-0.990906C-0.990906 77.2717 -0.723049 78.4471 -0.178641 79.5359L2.2997 78.2967ZM1.77997 76.0303C1.77997 74.5643 2.26944 72.8776 3.37343 70.9457L0.967635 69.5709C-0.296379 71.783 -0.990906 73.9443 -0.990906 76.0303H1.77997ZM3.37343 70.9457C4.60392 68.7923 5.42007 66.7907 5.75362 64.9561L3.02744 64.4605C2.76899 65.8819 2.10514 67.5803 0.967635 69.5709L3.37343 70.9457ZM5.54882 65.4684C8.71817 60.6389 11.2122 55.5769 13.0271 50.2836L10.406 49.385C8.66882 54.4517 6.27889 59.3056 3.23224 63.9482L5.54882 65.4684ZM13.0271 50.2836C14.8107 45.0813 16.446 39.8784 17.9327 34.6749L15.2684 33.9137C13.7951 39.0702 12.1743 44.2273 10.406 49.385L13.0271 50.2836ZM17.9255 34.6992C19.5525 29.3746 21.1794 24.1241 22.8062 18.9477L20.1628 18.1169C18.5337 23.3005 16.9046 28.558 15.2756 33.8895L17.9255 34.6992ZM22.7951 18.9816C24.5401 13.892 26.794 9.02042 29.5578 4.36562L27.1753 2.95098C24.315 7.76818 21.981 12.8126 20.174 18.083L22.7951 18.9816ZM28.6383 5.01683C29.7712 4.79024 30.8223 4.04985 31.7882 3.08395L29.8289 1.12464C29.0188 1.93472 28.4419 2.23035 28.0948 2.29977L28.6383 5.01683ZM31.7102 3.1562C32.6824 2.32287 33.2464 2.15773 33.4725 2.15773V-0.613142C32.2187 -0.613142 31.0067 0.109716 29.9069 1.05239L31.7102 3.1562ZM33.4725 2.15773C33.3665 2.15773 33.3445 2.0892 33.436 2.19223C33.5564 2.32762 33.7411 2.62926 33.9342 3.20841L36.5629 2.33218C36.3119 1.57933 35.9787 0.881972 35.507 0.351361C35.0066 -0.211605 34.3185 -0.613142 33.4725 -0.613142V2.15773ZM33.8993 2.45548C31.8439 11.2646 29.1283 19.7777 25.753 27.9959L28.3161 29.0486C31.7488 20.6909 34.5092 12.036 36.5977 3.08511L33.8993 2.45548ZM25.745 28.0157C22.4807 36.3248 19.3652 44.8555 16.3984 53.6075L19.0226 54.4971C21.9758 45.7851 25.0763 37.2958 28.324 29.0289L25.745 28.0157ZM16.4471 53.4838C15.123 56.4262 13.7251 59.3692 12.2534 62.3127L14.7317 63.5519C16.22 60.5754 17.6341 57.5983 18.9739 54.6208L16.4471 53.4838ZM12.2665 62.287C10.7136 65.2376 9.70172 68.3494 9.23502 71.6164L11.978 72.0082C12.3993 69.0592 13.3115 66.251 14.7185 63.5776L12.2665 62.287ZM45.7359 79.6212C43.9105 78.9191 42.1511 78.0049 40.457 76.8755L38.92 79.1811C40.778 80.4197 42.7186 81.4295 44.7412 82.2074L45.7359 79.6212ZM40.5034 76.9078C38.837 75.6959 37.0959 74.5605 35.2806 73.5016L33.8845 75.895C35.6211 76.9081 37.2841 77.9927 38.8737 79.1488L40.5034 76.9078ZM35.9325 75.0098C36.3406 73.2414 36.9636 72.2898 37.6078 71.8297L35.9973 69.5749C34.5694 70.5948 33.7125 72.3072 33.2326 74.3868L35.9325 75.0098ZM37.7042 71.7542C38.5296 71.0467 39.329 70.7557 40.1325 70.7557V67.9849C38.5681 67.9849 37.1475 68.5819 35.9009 69.6504L37.7042 71.7542ZM40.1325 70.7557C41.4013 70.7557 42.4888 71.3026 43.4521 72.6272L45.693 70.9974C44.2883 69.066 42.4157 67.9849 40.1325 67.9849V70.7557ZM43.5003 72.6896C44.5919 74.0239 45.1851 75.7668 45.1851 78.0283H47.956C47.956 75.2578 47.2171 72.8567 45.6448 70.935L43.5003 72.6896ZM45.1851 78.0283C45.1851 78.597 45.0698 78.8917 44.9738 79.0358L47.2793 80.5728C47.7752 79.8289 47.956 78.9396 47.956 78.0283H45.1851ZM45.1469 78.8246C44.7716 79.1999 44.4193 79.6455 44.0858 80.1458L46.3913 81.6828C46.6497 81.2951 46.8894 81.0007 47.1062 80.784L45.1469 78.8246Z" fill="#F0F0F0" mask="url(#path-1-outside-1_1172_1734)"/>
</svg>
