<svg width="47" height="152" viewBox="0 0 47 152" fill="none" xmlns="http://www.w3.org/2000/svg">
<mask id="path-1-outside-1_1172_1731" maskUnits="userSpaceOnUse" x="-1.22168" y="-1.80615" width="50" height="155" fill="black">
<rect fill="white" x="-1.22168" y="-1.80615" width="50" height="155"/>
<path d="M10.9903 71.4978C12.4703 72.9778 13.6543 74.6058 14.5423 76.3818C15.5783 78.1578 16.4663 80.0078 17.2063 81.9318C17.9463 83.7078 18.6123 85.5578 19.2043 87.4818C19.9443 89.2578 20.9063 90.9598 22.0903 92.5878C24.7543 102.356 28.3803 111.606 32.9683 120.338C37.7043 129.07 42.2183 137.876 46.5103 146.756C46.0663 147.94 45.4003 149.05 44.5123 150.086C43.6243 151.122 42.5883 151.64 41.4043 151.64C40.6643 151.64 39.8503 151.418 38.9623 150.974C34.6703 146.09 30.9703 140.836 27.8623 135.212C24.7543 129.44 21.8683 123.594 19.2043 117.674C16.6883 111.606 14.2463 105.464 11.8783 99.2478C9.65832 93.0318 7.29032 86.9638 4.77432 81.0438C3.14632 80.3038 2.03632 79.4898 1.44432 78.6018C1.00032 77.7138 0.77832 76.7518 0.77832 75.7158C0.77832 73.9398 1.37032 72.0158 2.55432 69.9438C3.73832 67.8718 4.47832 66.0218 4.77432 64.3938C7.88232 59.6578 10.3243 54.6998 12.1003 49.5198C13.8763 44.3398 15.5043 39.1598 16.9843 33.9798C18.6123 28.6518 20.2403 23.3978 21.8683 18.2178C23.6443 13.0378 25.9383 8.07985 28.7503 3.34385C29.4903 3.19584 30.3043 2.67784 31.1923 1.78984C32.2283 0.901841 33.1163 0.457842 33.8563 0.457842C34.5963 0.457842 35.1883 1.12384 35.6323 2.45584C33.5603 11.3358 30.8223 19.9198 27.4183 28.2078C24.1623 36.4958 21.0543 45.0058 18.0943 53.7378C16.7623 56.6978 15.3563 59.6578 13.8763 62.6178C12.3963 65.4298 11.4343 68.3898 10.9903 71.4978ZM45.6223 80.5998C43.6983 79.8598 41.8483 78.8978 40.0723 77.7138C38.4443 76.5298 36.7423 75.4198 34.9663 74.3838C35.4103 72.4598 36.1503 71.1278 37.1863 70.3878C38.2223 69.4998 39.3323 69.0558 40.5163 69.0558C42.2923 69.0558 43.7723 69.8698 44.9563 71.4978C46.2883 73.1258 46.9543 75.1978 46.9543 77.7138C46.9543 78.4538 46.8063 79.0458 46.5103 79.4898C46.2143 79.7858 45.9183 80.1558 45.6223 80.5998Z"/>
</mask>
<path d="M10.9903 71.4978C12.4703 72.9778 13.6543 74.6058 14.5423 76.3818C15.5783 78.1578 16.4663 80.0078 17.2063 81.9318C17.9463 83.7078 18.6123 85.5578 19.2043 87.4818C19.9443 89.2578 20.9063 90.9598 22.0903 92.5878C24.7543 102.356 28.3803 111.606 32.9683 120.338C37.7043 129.07 42.2183 137.876 46.5103 146.756C46.0663 147.94 45.4003 149.05 44.5123 150.086C43.6243 151.122 42.5883 151.64 41.4043 151.64C40.6643 151.64 39.8503 151.418 38.9623 150.974C34.6703 146.09 30.9703 140.836 27.8623 135.212C24.7543 129.44 21.8683 123.594 19.2043 117.674C16.6883 111.606 14.2463 105.464 11.8783 99.2478C9.65832 93.0318 7.29032 86.9638 4.77432 81.0438C3.14632 80.3038 2.03632 79.4898 1.44432 78.6018C1.00032 77.7138 0.77832 76.7518 0.77832 75.7158C0.77832 73.9398 1.37032 72.0158 2.55432 69.9438C3.73832 67.8718 4.47832 66.0218 4.77432 64.3938C7.88232 59.6578 10.3243 54.6998 12.1003 49.5198C13.8763 44.3398 15.5043 39.1598 16.9843 33.9798C18.6123 28.6518 20.2403 23.3978 21.8683 18.2178C23.6443 13.0378 25.9383 8.07985 28.7503 3.34385C29.4903 3.19584 30.3043 2.67784 31.1923 1.78984C32.2283 0.901841 33.1163 0.457842 33.8563 0.457842C34.5963 0.457842 35.1883 1.12384 35.6323 2.45584C33.5603 11.3358 30.8223 19.9198 27.4183 28.2078C24.1623 36.4958 21.0543 45.0058 18.0943 53.7378C16.7623 56.6978 15.3563 59.6578 13.8763 62.6178C12.3963 65.4298 11.4343 68.3898 10.9903 71.4978ZM45.6223 80.5998C43.6983 79.8598 41.8483 78.8978 40.0723 77.7138C38.4443 76.5298 36.7423 75.4198 34.9663 74.3838C35.4103 72.4598 36.1503 71.1278 37.1863 70.3878C38.2223 69.4998 39.3323 69.0558 40.5163 69.0558C42.2923 69.0558 43.7723 69.8698 44.9563 71.4978C46.2883 73.1258 46.9543 75.1978 46.9543 77.7138C46.9543 78.4538 46.8063 79.0458 46.5103 79.4898C46.2143 79.7858 45.9183 80.1558 45.6223 80.5998Z" fill="#F0F0F0"/>
<path d="M10.9903 71.4978L9.61881 71.3019L9.52084 71.9877L10.0107 72.4775L10.9903 71.4978ZM14.5423 76.3818L13.3031 77.0014L13.3231 77.0414L13.3456 77.0799L14.5423 76.3818ZM17.2063 81.9318L15.9132 82.4292L15.9201 82.447L15.9275 82.4647L17.2063 81.9318ZM19.2043 87.4818L17.8801 87.8893L17.8998 87.9531L17.9255 88.0147L19.2043 87.4818ZM22.0903 92.5878L23.4269 92.2233L23.3601 91.9783L23.2108 91.773L22.0903 92.5878ZM32.9683 120.338L31.7419 120.982L31.7461 120.99L31.7505 120.998L32.9683 120.338ZM46.5103 146.756L47.8075 147.242L48.0158 146.687L47.7577 146.153L46.5103 146.756ZM44.5123 150.086L45.5642 150.987L44.5123 150.086ZM38.9623 150.974L37.9216 151.888L38.1004 152.092L38.3427 152.213L38.9623 150.974ZM27.8623 135.212L26.6425 135.869L26.6461 135.875L26.6497 135.882L27.8623 135.212ZM19.2043 117.674L17.9245 118.204L17.9324 118.224L17.9409 118.242L19.2043 117.674ZM11.8783 99.2478L10.5736 99.7138L10.5785 99.7275L10.5836 99.7411L11.8783 99.2478ZM4.77432 81.0438L6.04938 80.5019L5.83848 80.0057L5.34762 79.7826L4.77432 81.0438ZM1.44432 78.6018L0.205148 79.2214L0.243721 79.2986L0.291566 79.3703L1.44432 78.6018ZM4.77432 64.3938L3.61603 63.6337L3.46159 63.8691L3.41123 64.146L4.77432 64.3938ZM12.1003 49.5198L13.4109 49.9692H13.4109L12.1003 49.5198ZM16.9843 33.9798L15.6594 33.575L15.6557 33.5871L15.6522 33.5992L16.9843 33.9798ZM21.8683 18.2178L20.5578 17.7685L20.552 17.7854L20.5466 17.8024L21.8683 18.2178ZM28.7503 3.34385L28.4786 1.98531L27.8739 2.10626L27.559 2.63653L28.7503 3.34385ZM31.1923 1.78984L30.2907 0.737935L30.2503 0.772562L30.2127 0.810185L31.1923 1.78984ZM35.6323 2.45584L36.9815 2.77066L37.0705 2.38927L36.9467 2.01773L35.6323 2.45584ZM27.4183 28.2078L26.1368 27.6815L26.1327 27.6913L26.1288 27.7013L27.4183 28.2078ZM18.0943 53.7378L19.3577 54.3064L19.385 54.2457L19.4064 54.1826L18.0943 53.7378ZM13.8763 62.6178L15.1023 63.2631L15.109 63.2503L15.1155 63.2374L13.8763 62.6178ZM45.6223 80.5998L45.125 81.8929L46.16 82.291L46.7751 81.3683L45.6223 80.5998ZM40.0723 77.7138L39.2574 78.8343L39.2803 78.8509L39.3038 78.8666L40.0723 77.7138ZM34.9663 74.3838L33.6164 74.0723L33.3869 75.0665L34.2682 75.5806L34.9663 74.3838ZM37.1863 70.3878L37.9916 71.5152L38.0414 71.4796L38.088 71.4397L37.1863 70.3878ZM44.9563 71.4978L43.8359 72.3127L43.8591 72.3446L43.8841 72.3752L44.9563 71.4978ZM46.5103 79.4898L47.49 80.4695L47.587 80.3725L47.6631 80.2583L46.5103 79.4898ZM10.0107 72.4775C11.3911 73.8579 12.4853 75.3657 13.3031 77.0014L15.7815 75.7623C14.8234 73.846 13.5495 72.0978 11.97 70.5182L10.0107 72.4775ZM13.3456 77.0799C14.3441 78.7915 15.1998 80.5744 15.9132 82.4292L18.4994 81.4345C17.7328 79.4413 16.8126 77.5241 15.739 75.6838L13.3456 77.0799ZM15.9275 82.4647C16.6496 84.1978 17.3006 86.0058 17.8801 87.8893L20.5285 87.0744C19.924 85.1098 19.2431 83.2179 18.4852 81.399L15.9275 82.4647ZM17.9255 88.0147C18.7089 89.8951 19.7252 91.6913 20.9699 93.4027L23.2108 91.773C22.0875 90.2284 21.1797 88.6206 20.4832 86.949L17.9255 88.0147ZM20.7537 92.9524C23.4435 102.815 27.1059 112.159 31.7419 120.982L34.1948 119.693C29.6548 111.053 26.0652 101.897 23.4269 92.2233L20.7537 92.9524ZM31.7505 120.998C36.4763 129.712 40.9804 138.498 45.2629 147.359L47.7577 146.153C43.4562 137.253 38.9324 128.428 34.1862 119.677L31.7505 120.998ZM45.2131 146.269C44.8303 147.29 44.2514 148.261 43.4604 149.184L45.5642 150.987C46.5493 149.838 47.3023 148.59 47.8075 147.242L45.2131 146.269ZM43.4604 149.184C42.791 149.965 42.12 150.254 41.4043 150.254V153.025C43.0566 153.025 44.4576 152.279 45.5642 150.987L43.4604 149.184ZM41.4043 150.254C40.94 150.254 40.3402 150.114 39.5819 149.735L38.3427 152.213C39.3604 152.722 40.3887 153.025 41.4043 153.025V150.254ZM40.003 150.059C35.7762 145.249 32.134 140.077 29.0749 134.542L26.6497 135.882C29.8066 141.594 33.5645 146.93 37.9216 151.888L40.003 150.059ZM29.0822 134.555C25.9896 128.812 23.1181 122.995 20.4677 117.105L17.9409 118.242C20.6185 124.193 23.5191 130.068 26.6425 135.869L29.0822 134.555ZM20.4841 117.143C17.9733 111.088 15.5363 104.958 13.173 98.7546L10.5836 99.7411C12.9564 105.969 15.4033 112.124 17.9245 118.204L20.4841 117.143ZM13.183 98.7819C10.9541 92.5409 8.57628 86.4476 6.04938 80.5019L3.49926 81.5857C6.00436 87.4801 8.3625 93.5227 10.5736 99.7138L13.183 98.7819ZM5.34762 79.7826C3.81336 79.0852 2.97872 78.4058 2.59707 77.8333L0.291566 79.3703C1.09392 80.5739 2.47928 81.5225 4.20102 82.3051L5.34762 79.7826ZM2.68349 77.9823C2.3399 77.2951 2.16376 76.5464 2.16376 75.7158H-0.607117C-0.607117 76.9573 -0.33926 78.1326 0.205148 79.2214L2.68349 77.9823ZM2.16376 75.7158C2.16376 74.2499 2.65323 72.5632 3.75722 70.6312L1.35142 69.2565C0.08741 71.4685 -0.607117 73.6298 -0.607117 75.7158H2.16376ZM3.75722 70.6312C4.98771 68.4779 5.80386 66.4762 6.13741 64.6417L3.41123 64.146C3.15278 65.5675 2.48893 67.2658 1.35142 69.2565L3.75722 70.6312ZM5.93261 65.154C9.10196 60.3245 11.596 55.2625 13.4109 49.9692L10.7898 49.0705C9.05261 54.1372 6.66268 58.9912 3.61603 63.6337L5.93261 65.154ZM13.4109 49.9692C15.1945 44.7668 16.8297 39.5639 18.3165 34.3605L15.6522 33.5992C14.1789 38.7558 12.5581 43.9129 10.7898 49.0705L13.4109 49.9692ZM18.3093 34.3847C19.9362 29.0601 21.5632 23.8096 23.19 18.6332L20.5466 17.8024C18.9175 22.986 17.2884 28.2436 15.6594 33.575L18.3093 34.3847ZM23.1789 18.6672C24.9239 13.5776 27.1778 8.70597 29.9416 4.05116L27.559 2.63653C24.6988 7.45373 22.3648 12.4981 20.5578 17.7685L23.1789 18.6672ZM29.022 4.70238C30.155 4.47578 31.2061 3.7354 32.172 2.76949L30.2127 0.810185C29.4026 1.62027 28.8257 1.91589 28.4786 1.98531L29.022 4.70238ZM32.094 2.84174C33.0662 2.00842 33.6302 1.84328 33.8563 1.84328V-0.927595C32.6025 -0.927595 31.3905 -0.204737 30.2907 0.737935L32.094 2.84174ZM33.8563 1.84328C33.7503 1.84328 33.7282 1.77474 33.8198 1.87778C33.9402 2.01317 34.1249 2.31481 34.318 2.89396L36.9467 2.01773C36.6957 1.26488 36.3625 0.567519 35.8908 0.0369081C35.3904 -0.526058 34.7023 -0.927595 33.8563 -0.927595V1.84328ZM34.2831 2.14103C32.2277 10.9501 29.5121 19.4633 26.1368 27.6815L28.6999 28.7342C32.1325 20.3764 34.893 11.7216 36.9815 2.77066L34.2831 2.14103ZM26.1288 27.7013C22.8645 36.0104 19.749 44.541 16.7822 53.2931L19.4064 54.1826C22.3596 45.4707 25.4601 36.9813 28.7078 28.7144L26.1288 27.7013ZM16.8309 53.1693C15.5068 56.1118 14.1089 59.0548 12.6371 61.9983L15.1155 63.2374C16.6038 60.2609 18.0179 57.2839 19.3577 54.3064L16.8309 53.1693ZM12.6503 61.9726C11.0974 64.9232 10.0855 68.035 9.61881 71.3019L12.3618 71.6938C12.7831 68.7447 13.6953 65.9365 15.1023 63.2631L12.6503 61.9726ZM46.1197 79.3067C44.2943 78.6047 42.5349 77.6905 40.8408 76.5611L39.3038 78.8666C41.1617 80.1052 43.1024 81.115 45.125 81.8929L46.1197 79.3067ZM40.8872 76.5934C39.2208 75.3814 37.4797 74.2461 35.6644 73.1871L34.2682 75.5806C36.0049 76.5936 37.6679 77.6782 39.2574 78.8343L40.8872 76.5934ZM36.3163 74.6954C36.7244 72.9269 37.3474 71.9753 37.9916 71.5152L36.3811 69.2605C34.9532 70.2803 34.0963 71.9928 33.6164 74.0723L36.3163 74.6954ZM38.088 71.4397C38.9134 70.7322 39.7128 70.4413 40.5163 70.4413V67.6704C38.9518 67.6704 37.5312 68.2675 36.2847 69.3359L38.088 71.4397ZM40.5163 70.4413C41.7851 70.4413 42.8725 70.9882 43.8359 72.3127L46.0768 70.683C44.6721 68.7515 42.7995 67.6704 40.5163 67.6704V70.4413ZM43.8841 72.3752C44.9757 73.7094 45.5689 75.4524 45.5689 77.7138H48.3398C48.3398 74.9433 47.6009 72.5423 46.0286 70.6205L43.8841 72.3752ZM45.5689 77.7138C45.5689 78.2826 45.4536 78.5772 45.3576 78.7213L47.6631 80.2583C48.159 79.5144 48.3398 78.6251 48.3398 77.7138H45.5689ZM45.5307 78.5102C45.1554 78.8855 44.8031 79.331 44.4696 79.8313L46.7751 81.3683C47.0335 80.9807 47.2732 80.6862 47.49 80.4695L45.5307 78.5102Z" fill="#F0F0F0" mask="url(#path-1-outside-1_1172_1731)"/>
</svg>
