<svg width="49" height="150" viewBox="0 0 49 150" fill="none" xmlns="http://www.w3.org/2000/svg">
<mask id="path-1-outside-1_1172_1733" maskUnits="userSpaceOnUse" x="-1.3457" y="-1.4917" width="52" height="153" fill="black">
<rect fill="white" x="-1.3457" y="-1.4917" width="52" height="153"/>
<path d="M47.4963 9.7603C48.2363 24.2643 48.6063 38.1763 48.6063 51.4963C48.7543 64.6683 48.8283 78.0623 48.8283 91.6783C48.3843 97.0063 48.0883 102.408 47.9403 107.884C47.7923 113.36 47.5703 118.614 47.2743 123.646C46.9783 128.678 46.4603 133.414 45.7203 137.854C45.1283 142.294 44.1663 146.142 42.8343 149.398C42.5383 149.546 42.1683 149.62 41.7243 149.62C40.5403 149.62 39.9483 149.028 39.9483 147.844C39.9483 146.512 39.4303 145.476 38.3943 144.736C39.4303 139.556 40.0963 134.154 40.3923 128.53C40.8363 122.758 41.0583 116.764 41.0583 110.548C41.0583 101.224 40.9103 91.8263 40.6143 82.3543C40.3183 72.8823 40.0223 63.4843 39.7263 54.1603C39.4303 51.7923 38.1723 49.4243 35.9523 47.0563C33.8803 44.6883 31.3643 42.3203 28.4043 39.9523C25.5923 37.5843 22.5583 35.2903 19.3023 33.0703C16.0463 30.7023 13.0123 28.3343 10.2003 25.9663C7.5363 23.5983 5.2423 21.2303 3.3183 18.8623C1.5423 16.4943 0.654297 14.0523 0.654297 11.5363C0.654297 10.3523 1.0983 9.3903 1.9863 8.65029C2.8743 7.76229 3.8363 7.17029 4.8723 6.8743C11.6803 11.6103 17.6743 16.7903 22.8543 22.4143C28.0343 27.8903 33.6583 33.7363 39.7263 39.9523C40.9103 38.7683 41.5023 37.4363 41.5023 35.9563C41.5023 35.2163 41.4283 34.5503 41.2803 33.9583C41.1323 33.3663 41.0583 32.8483 41.0583 32.4043C41.0583 27.6683 40.4663 22.8583 39.2823 17.9743C38.0983 13.0903 37.4323 8.35429 37.2843 3.7663C38.4683 1.54629 39.7263 0.436288 41.0583 0.436288C41.7983 0.436288 42.4643 0.806292 43.0563 1.5463C43.7963 2.13829 44.4623 2.95229 45.0543 3.98829C45.6463 4.87629 46.0903 5.91229 46.3863 7.09629C46.8303 8.13229 47.2003 9.02029 47.4963 9.7603ZM25.2963 95.0083C24.8523 95.7483 24.6303 96.3403 24.6303 96.7843C24.6303 97.8203 24.8523 98.7083 25.2963 99.4483C25.8883 100.188 26.1843 101.002 26.1843 101.89C26.1843 102.334 25.9623 102.926 25.5183 103.666C25.2223 104.258 24.7043 104.554 23.9643 104.554C22.7803 104.554 21.6703 103.962 20.6343 102.778C19.7463 101.594 18.7843 100.78 17.7483 100.336C17.3043 99.4483 17.0823 98.6343 17.0823 97.8943C17.0823 96.8583 17.5263 95.8223 18.4143 94.7863C19.4503 93.6023 20.6343 93.0103 21.9663 93.0103C22.7063 93.0103 23.4463 93.1583 24.1863 93.4543C24.9263 93.6023 25.2963 94.1203 25.2963 95.0083Z"/>
</mask>
<path d="M47.4963 9.7603C48.2363 24.2643 48.6063 38.1763 48.6063 51.4963C48.7543 64.6683 48.8283 78.0623 48.8283 91.6783C48.3843 97.0063 48.0883 102.408 47.9403 107.884C47.7923 113.36 47.5703 118.614 47.2743 123.646C46.9783 128.678 46.4603 133.414 45.7203 137.854C45.1283 142.294 44.1663 146.142 42.8343 149.398C42.5383 149.546 42.1683 149.62 41.7243 149.62C40.5403 149.62 39.9483 149.028 39.9483 147.844C39.9483 146.512 39.4303 145.476 38.3943 144.736C39.4303 139.556 40.0963 134.154 40.3923 128.53C40.8363 122.758 41.0583 116.764 41.0583 110.548C41.0583 101.224 40.9103 91.8263 40.6143 82.3543C40.3183 72.8823 40.0223 63.4843 39.7263 54.1603C39.4303 51.7923 38.1723 49.4243 35.9523 47.0563C33.8803 44.6883 31.3643 42.3203 28.4043 39.9523C25.5923 37.5843 22.5583 35.2903 19.3023 33.0703C16.0463 30.7023 13.0123 28.3343 10.2003 25.9663C7.5363 23.5983 5.2423 21.2303 3.3183 18.8623C1.5423 16.4943 0.654297 14.0523 0.654297 11.5363C0.654297 10.3523 1.0983 9.3903 1.9863 8.65029C2.8743 7.76229 3.8363 7.17029 4.8723 6.8743C11.6803 11.6103 17.6743 16.7903 22.8543 22.4143C28.0343 27.8903 33.6583 33.7363 39.7263 39.9523C40.9103 38.7683 41.5023 37.4363 41.5023 35.9563C41.5023 35.2163 41.4283 34.5503 41.2803 33.9583C41.1323 33.3663 41.0583 32.8483 41.0583 32.4043C41.0583 27.6683 40.4663 22.8583 39.2823 17.9743C38.0983 13.0903 37.4323 8.35429 37.2843 3.7663C38.4683 1.54629 39.7263 0.436288 41.0583 0.436288C41.7983 0.436288 42.4643 0.806292 43.0563 1.5463C43.7963 2.13829 44.4623 2.95229 45.0543 3.98829C45.6463 4.87629 46.0903 5.91229 46.3863 7.09629C46.8303 8.13229 47.2003 9.02029 47.4963 9.7603ZM25.2963 95.0083C24.8523 95.7483 24.6303 96.3403 24.6303 96.7843C24.6303 97.8203 24.8523 98.7083 25.2963 99.4483C25.8883 100.188 26.1843 101.002 26.1843 101.89C26.1843 102.334 25.9623 102.926 25.5183 103.666C25.2223 104.258 24.7043 104.554 23.9643 104.554C22.7803 104.554 21.6703 103.962 20.6343 102.778C19.7463 101.594 18.7843 100.78 17.7483 100.336C17.3043 99.4483 17.0823 98.6343 17.0823 97.8943C17.0823 96.8583 17.5263 95.8223 18.4143 94.7863C19.4503 93.6023 20.6343 93.0103 21.9663 93.0103C22.7063 93.0103 23.4463 93.1583 24.1863 93.4543C24.9263 93.6023 25.2963 94.1203 25.2963 95.0083Z" fill="#F0F0F0"/>
<path d="M47.4963 9.7603L48.8799 9.68971L48.8682 9.45965L48.7826 9.24577L47.4963 9.7603ZM48.6063 51.4963H47.2209V51.5041L47.2209 51.5119L48.6063 51.4963ZM48.8283 91.6783L50.209 91.7934L50.2137 91.7359V91.6783H48.8283ZM47.9403 107.884L49.3252 107.922L47.9403 107.884ZM47.2743 123.646L45.8913 123.565L47.2743 123.646ZM45.7203 137.854L44.3537 137.627L44.35 137.649L44.347 137.671L45.7203 137.854ZM42.8343 149.398L43.4539 150.637L43.9195 150.405L44.1166 149.923L42.8343 149.398ZM38.3943 144.736L37.0358 144.465L36.8601 145.343L37.589 145.864L38.3943 144.736ZM40.3923 128.53L39.0109 128.424L39.0097 128.441L39.0088 128.457L40.3923 128.53ZM40.6143 82.3543L39.2295 82.3976L40.6143 82.3543ZM39.7263 54.1603L41.111 54.1163L41.109 54.0522L41.101 53.9885L39.7263 54.1603ZM35.9523 47.0563L34.9096 47.9686L34.9253 47.9865L34.9416 48.0039L35.9523 47.0563ZM28.4043 39.9523L27.5119 41.012L27.5252 41.0233L27.5388 41.0341L28.4043 39.9523ZM19.3023 33.0703L18.4874 34.1907L18.5044 34.2031L18.5218 34.215L19.3023 33.0703ZM10.2003 25.9663L9.27986 27.0018L9.29371 27.0141L9.30789 27.026L10.2003 25.9663ZM3.3183 18.8623L2.20995 19.6936L2.22608 19.7151L2.24304 19.7359L3.3183 18.8623ZM1.9863 8.65029L2.87324 9.71461L2.92151 9.67438L2.96595 9.62994L1.9863 8.65029ZM4.8723 6.8743L5.66347 5.73698L5.1238 5.36156L4.49169 5.54216L4.8723 6.8743ZM22.8543 22.4143L21.8352 23.3529L21.8415 23.3597L21.8478 23.3664L22.8543 22.4143ZM39.7263 39.9523L38.7349 40.9201L39.7144 41.9235L40.706 40.9319L39.7263 39.9523ZM39.2823 17.9743L37.9359 18.3007L39.2823 17.9743ZM37.2843 3.7663L36.0619 3.11433L35.8876 3.44097L35.8996 3.81097L37.2843 3.7663ZM43.0563 1.5463L41.9745 2.41177L42.0706 2.53198L42.1908 2.62815L43.0563 1.5463ZM45.0543 3.98829L43.8514 4.67566L43.8751 4.71709L43.9015 4.7568L45.0543 3.98829ZM46.3863 7.09629L45.0422 7.43231L45.0692 7.54001L45.1129 7.64205L46.3863 7.09629ZM25.2963 95.0083L26.4843 95.7211L26.6817 95.392V95.0083H25.2963ZM25.2963 99.4483L24.1083 100.161L24.1562 100.241L24.2145 100.314L25.2963 99.4483ZM25.5183 103.666L24.3303 102.953L24.3029 102.999L24.2791 103.047L25.5183 103.666ZM20.6343 102.778L19.5259 103.61L19.5573 103.651L19.5917 103.691L20.6343 102.778ZM17.7483 100.336L16.5091 100.956L16.7361 101.41L17.2025 101.61L17.7483 100.336ZM18.4143 94.7863L17.3716 93.8739L17.3624 93.8847L18.4143 94.7863ZM24.1863 93.4543L23.6718 94.7406L23.7899 94.7879L23.9146 94.8128L24.1863 93.4543ZM46.1127 9.83089C46.8516 24.3135 47.2209 38.2018 47.2209 51.4963H49.9917C49.9917 38.1508 49.621 24.2151 48.8799 9.68971L46.1127 9.83089ZM47.2209 51.5119C47.3689 64.6785 47.4429 78.0673 47.4429 91.6783H50.2137C50.2137 78.0573 50.1397 64.6581 49.9916 51.4807L47.2209 51.5119ZM47.4476 91.5632C47.0014 96.9177 46.7041 102.346 46.5554 107.847L49.3252 107.922C49.4725 102.471 49.7672 97.0949 50.209 91.7934L47.4476 91.5632ZM46.5554 107.847C46.4077 113.309 46.1863 118.549 45.8913 123.565L48.6573 123.728C48.9543 118.68 49.1769 113.411 49.3252 107.922L46.5554 107.847ZM45.8913 123.565C45.5978 128.554 45.0847 133.24 44.3537 137.627L47.0869 138.082C47.8359 133.588 48.3588 128.803 48.6573 123.728L45.8913 123.565ZM44.347 137.671C43.7666 142.024 42.829 145.752 41.552 148.874L44.1166 149.923C45.5036 146.532 46.49 142.564 47.0936 138.037L44.347 137.671ZM42.2147 148.159C42.1653 148.184 42.0233 148.235 41.7243 148.235V151.006C42.3133 151.006 42.9113 150.909 43.4539 150.637L42.2147 148.159ZM41.7243 148.235C41.3459 148.235 41.3165 148.141 41.3719 148.197C41.4274 148.252 41.3337 148.223 41.3337 147.844H38.5629C38.5629 148.65 38.7652 149.508 39.4126 150.156C40.0601 150.803 40.9187 151.006 41.7243 151.006V148.235ZM41.3337 147.844C41.3337 146.089 40.6191 144.623 39.1996 143.609L37.589 145.864C38.2415 146.33 38.5629 146.935 38.5629 147.844H41.3337ZM39.7528 145.008C40.8028 139.758 41.4765 134.29 41.7758 128.603L39.0088 128.457C38.7161 134.019 38.0578 139.354 37.0358 144.465L39.7528 145.008ZM41.7737 128.637C42.2206 122.827 42.4437 116.797 42.4437 110.548H39.6729C39.6729 116.731 39.452 122.69 39.0109 128.424L41.7737 128.637ZM42.4437 110.548C42.4437 101.21 42.2955 91.7972 41.9991 82.311L39.2295 82.3976C39.5251 91.8554 39.6729 101.239 39.6729 110.548H42.4437ZM41.9991 82.311C41.7031 72.8388 41.407 63.4406 41.111 54.1163L38.3416 54.2043C38.6376 63.528 38.9335 72.9258 39.2295 82.3976L41.9991 82.311ZM41.101 53.9885C40.7577 51.2417 39.3124 48.6148 36.963 46.1087L34.9416 48.0039C37.0322 50.2338 38.1029 52.3429 38.3516 54.3321L41.101 53.9885ZM36.9949 46.144C34.8594 43.7034 32.2812 41.2796 29.2698 38.8704L27.5388 41.0341C30.4474 43.361 32.9012 45.6732 34.9096 47.9686L36.9949 46.144ZM29.2967 38.8926C26.4464 36.4923 23.3748 34.1701 20.0828 31.9256L18.5218 34.215C21.7418 36.4104 24.7382 38.6763 27.5119 41.012L29.2967 38.8926ZM20.1172 31.9498C16.8853 29.5994 13.8774 27.2515 11.0927 24.9066L9.30789 27.026C12.1472 29.4171 15.2073 31.8052 18.4874 34.1907L20.1172 31.9498ZM11.1207 24.9308C8.50357 22.6044 6.26333 20.2899 4.39356 17.9886L2.24304 19.7359C4.22126 22.1707 6.56902 24.5921 9.27986 27.0018L11.1207 24.9308ZM4.42665 18.031C2.79766 15.8591 2.03973 13.7021 2.03973 11.5363H-0.731141C-0.731141 14.4025 0.28693 17.1295 2.20995 19.6936L4.42665 18.031ZM2.03973 11.5363C2.03973 10.7519 2.30986 10.1841 2.87324 9.71461L1.09936 7.58597C-0.113263 8.5965 -0.731141 9.95266 -0.731141 11.5363H2.03973ZM2.96595 9.62994C3.71521 8.88069 4.47824 8.42776 5.2529 8.20643L4.49169 5.54216C3.19435 5.91283 2.03339 6.6439 1.00665 7.67063L2.96595 9.62994ZM4.08112 8.01161C10.8131 12.6947 16.7292 17.8092 21.8352 23.3529L23.8733 21.4757C18.6194 15.7714 12.5475 10.5259 5.66347 5.73698L4.08112 8.01161ZM21.8478 23.3664C27.0335 28.8484 32.6626 34.6996 38.7349 40.9201L40.7177 38.9845C34.654 32.7729 29.0351 26.9322 23.8608 21.4622L21.8478 23.3664ZM40.706 40.9319C42.1126 39.5253 42.8877 37.8532 42.8877 35.9563H40.1169C40.1169 37.0194 39.708 38.0113 38.7466 38.9726L40.706 40.9319ZM42.8877 35.9563C42.8877 35.1261 42.8049 34.3445 42.6244 33.6223L39.9362 34.2943C40.0517 34.7561 40.1169 35.3065 40.1169 35.9563H42.8877ZM42.6244 33.6223C42.4944 33.1024 42.4437 32.7017 42.4437 32.4043H39.6729C39.6729 32.9948 39.7702 33.6302 39.9362 34.2943L42.6244 33.6223ZM42.4437 32.4043C42.4437 27.5518 41.8371 22.6323 40.6287 17.6479L37.9359 18.3007C39.0955 23.0843 39.6729 27.7848 39.6729 32.4043H42.4437ZM40.6287 17.6479C39.465 12.8476 38.8137 8.20618 38.669 3.72163L35.8996 3.81097C36.0509 8.50241 36.7316 13.333 37.9359 18.3007L40.6287 17.6479ZM38.5067 4.41827C39.6621 2.25199 40.5694 1.82173 41.0583 1.82173V-0.94915C38.8832 -0.94915 37.2745 0.840591 36.0619 3.11433L38.5067 4.41827ZM41.0583 1.82173C41.2639 1.82173 41.5651 1.90012 41.9745 2.41177L44.1381 0.680829C43.3635 -0.287534 42.3327 -0.94915 41.0583 -0.94915V1.82173ZM42.1908 2.62815C42.7642 3.08686 43.3244 3.75348 43.8514 4.67566L46.2572 3.30093C45.6002 2.1511 44.8284 1.18972 43.9218 0.46445L42.1908 2.62815ZM43.9015 4.7568C44.3938 5.49518 44.7793 6.38057 45.0422 7.43231L47.7304 6.76028C47.4013 5.44401 46.8988 4.25741 46.2071 3.21979L43.9015 4.7568ZM45.1129 7.64205C45.5541 8.67155 45.9194 9.54856 46.2099 10.2748L48.7826 9.24577C48.4812 8.49202 48.1065 7.59303 47.6597 6.55054L45.1129 7.64205ZM24.1083 94.2955C23.6363 95.0822 23.2449 95.9468 23.2449 96.7843H26.0157C26.0157 96.7874 26.0155 96.7656 26.0266 96.7138C26.0376 96.6624 26.0581 96.5897 26.094 96.4938C26.1671 96.2989 26.291 96.0432 26.4843 95.7211L24.1083 94.2955ZM23.2449 96.7843C23.2449 98.0208 23.5114 99.1662 24.1083 100.161L26.4843 98.7355C26.1932 98.2504 26.0157 97.6198 26.0157 96.7843H23.2449ZM24.2145 100.314C24.6241 100.826 24.7989 101.339 24.7989 101.89H27.5697C27.5697 100.666 27.1525 99.5508 26.3781 98.5828L24.2145 100.314ZM24.7989 101.89C24.7989 101.887 24.7991 101.909 24.788 101.961C24.777 102.012 24.7565 102.085 24.7206 102.181C24.6475 102.376 24.5236 102.631 24.3303 102.953L26.7063 104.379C27.1783 103.592 27.5697 102.728 27.5697 101.89H24.7989ZM24.2791 103.047C24.2571 103.091 24.24 103.111 24.2334 103.119C24.2275 103.125 24.2243 103.127 24.2204 103.129C24.2155 103.132 24.1505 103.169 23.9643 103.169V105.94C24.5181 105.94 25.0821 105.828 25.5952 105.535C26.1173 105.237 26.5011 104.799 26.7575 104.286L24.2791 103.047ZM23.9643 103.169C23.3003 103.169 22.5413 102.854 21.6769 101.866L19.5917 103.691C20.7993 105.071 22.2603 105.94 23.9643 105.94V103.169ZM21.7426 101.947C20.7534 100.628 19.6123 99.6279 18.2941 99.0629L17.2025 101.61C17.9563 101.933 18.7392 102.561 19.5259 103.61L21.7426 101.947ZM18.9875 99.7167C18.6083 98.9584 18.4677 98.3587 18.4677 97.8943H15.6969C15.6969 98.91 16.0003 99.9382 16.5091 100.956L18.9875 99.7167ZM18.4677 97.8943C18.4677 97.2818 18.7242 96.5536 19.4662 95.6879L17.3624 93.8847C16.3284 95.091 15.6969 96.4348 15.6969 97.8943H18.4677ZM19.4569 95.6986C20.2823 94.7554 21.107 94.3957 21.9663 94.3957V91.6249C20.1616 91.6249 18.6183 92.4492 17.3717 93.874L19.4569 95.6986ZM21.9663 94.3957C22.5169 94.3957 23.0827 94.505 23.6718 94.7406L24.7008 92.168C23.8099 91.8116 22.8957 91.6249 21.9663 91.6249V94.3957ZM23.9146 94.8128C23.9692 94.8238 23.9771 94.8334 23.9591 94.8227C23.9377 94.8098 23.9113 94.7869 23.8914 94.7591C23.854 94.7067 23.9109 94.7422 23.9109 95.0083H26.6817C26.6817 94.3864 26.5536 93.7189 26.1462 93.1485C25.7195 92.5512 25.105 92.2252 24.458 92.0958L23.9146 94.8128Z" fill="#F0F0F0" mask="url(#path-1-outside-1_1172_1733)"/>
</svg>
