<svg width="47" height="157" viewBox="0 0 47 157" fill="none" xmlns="http://www.w3.org/2000/svg">
<mask id="path-1-outside-1_1172_1730" maskUnits="userSpaceOnUse" x="-1.15234" y="-1.80615" width="49" height="160" fill="black">
<rect fill="white" x="-1.15234" y="-1.80615" width="49" height="160"/>
<path d="M12.3917 78.9378C16.2397 81.1578 19.6437 83.8218 22.6037 86.9298C25.5637 90.0378 28.3017 93.2938 30.8177 96.6978C33.4817 100.102 35.9977 103.654 38.3657 107.354C40.8817 111.054 43.5457 114.68 46.3577 118.232C46.0617 120.304 45.3217 122.006 44.1377 123.338C42.9537 124.522 41.6217 125.706 40.1417 126.89C38.6617 127.926 37.1077 128.962 35.4797 129.998C33.8517 131.034 32.4457 132.292 31.2617 133.772C28.5977 134.808 26.2297 136.436 24.1577 138.656C22.2337 140.876 20.3097 143.17 18.3857 145.538C16.6097 147.758 14.6857 149.904 12.6137 151.976C10.5417 154.048 8.17366 155.454 5.50966 156.194C4.17766 156.194 3.14166 155.602 2.40166 154.418C1.66166 153.086 1.14366 151.902 0.847656 150.866C0.847656 149.386 0.995656 146.426 1.29166 141.986C1.58766 137.398 1.88366 131.922 2.17966 125.558C2.62366 119.046 3.06766 111.868 3.51166 104.024C3.95566 96.0318 4.32566 87.9658 4.62166 79.8258C5.06566 71.5378 5.43566 63.3978 5.73166 55.4058C6.02766 47.2658 6.17566 39.7178 6.17566 32.7618C6.17566 26.1018 6.02766 20.3298 5.73166 15.4458C5.43566 10.4138 4.91766 6.63984 4.17766 4.12383C4.47366 2.79184 5.21366 2.05184 6.39766 1.90384C7.72966 1.60784 8.83966 1.23784 9.72766 0.793837C11.0597 2.42184 12.0957 4.49384 12.8357 7.00984C13.7237 9.52584 14.3897 12.1898 14.8337 15.0018C15.2777 17.8138 15.4997 20.6998 15.4997 23.6598C15.6477 26.4718 15.7217 29.0618 15.7217 31.4298C14.9817 37.3498 14.6117 44.1578 14.6117 51.8538C14.6117 59.4018 14.3157 66.6538 13.7237 73.6098C12.5397 73.7578 11.9477 74.6458 11.9477 76.2738C11.9477 77.1618 12.0957 78.0498 12.3917 78.9378ZM11.0597 141.542C15.4997 138.582 19.7917 135.326 23.9357 131.774C28.2277 128.074 32.0757 124.078 35.4797 119.786C33.4077 117.122 31.4837 114.606 29.7077 112.238C28.0797 109.722 26.3777 107.428 24.6017 105.356C22.9737 103.284 21.1977 101.434 19.2737 99.8058C17.3497 98.0298 15.0557 96.4758 12.3917 95.1438C11.3557 98.2518 10.6157 101.36 10.1717 104.468C9.87566 107.576 9.72766 110.684 9.72766 113.792C9.72766 115.124 9.80166 116.9 9.94966 119.12C10.0977 121.192 10.2457 123.486 10.3937 126.002C10.5417 128.518 10.6897 131.182 10.8377 133.994C10.9857 136.658 11.0597 139.174 11.0597 141.542ZM33.7037 48.3018C32.9637 47.7098 32.0757 47.1178 31.0397 46.5258C30.1517 45.7858 29.1897 45.0458 28.1537 44.3058C27.1177 43.4178 26.2297 42.5298 25.4897 41.6418C24.8977 40.6058 24.6017 39.4218 24.6017 38.0898C26.2297 37.3498 27.7097 36.4618 29.0417 35.4258C30.3737 34.3898 31.9277 33.8718 33.7037 33.8718C35.0357 36.3878 35.7017 38.9038 35.7017 41.4198C35.7017 42.4558 35.5537 43.4918 35.2577 44.5278C35.1097 45.4158 34.5917 46.6738 33.7037 48.3018Z"/>
</mask>
<path d="M12.3917 78.9378C16.2397 81.1578 19.6437 83.8218 22.6037 86.9298C25.5637 90.0378 28.3017 93.2938 30.8177 96.6978C33.4817 100.102 35.9977 103.654 38.3657 107.354C40.8817 111.054 43.5457 114.68 46.3577 118.232C46.0617 120.304 45.3217 122.006 44.1377 123.338C42.9537 124.522 41.6217 125.706 40.1417 126.89C38.6617 127.926 37.1077 128.962 35.4797 129.998C33.8517 131.034 32.4457 132.292 31.2617 133.772C28.5977 134.808 26.2297 136.436 24.1577 138.656C22.2337 140.876 20.3097 143.17 18.3857 145.538C16.6097 147.758 14.6857 149.904 12.6137 151.976C10.5417 154.048 8.17366 155.454 5.50966 156.194C4.17766 156.194 3.14166 155.602 2.40166 154.418C1.66166 153.086 1.14366 151.902 0.847656 150.866C0.847656 149.386 0.995656 146.426 1.29166 141.986C1.58766 137.398 1.88366 131.922 2.17966 125.558C2.62366 119.046 3.06766 111.868 3.51166 104.024C3.95566 96.0318 4.32566 87.9658 4.62166 79.8258C5.06566 71.5378 5.43566 63.3978 5.73166 55.4058C6.02766 47.2658 6.17566 39.7178 6.17566 32.7618C6.17566 26.1018 6.02766 20.3298 5.73166 15.4458C5.43566 10.4138 4.91766 6.63984 4.17766 4.12383C4.47366 2.79184 5.21366 2.05184 6.39766 1.90384C7.72966 1.60784 8.83966 1.23784 9.72766 0.793837C11.0597 2.42184 12.0957 4.49384 12.8357 7.00984C13.7237 9.52584 14.3897 12.1898 14.8337 15.0018C15.2777 17.8138 15.4997 20.6998 15.4997 23.6598C15.6477 26.4718 15.7217 29.0618 15.7217 31.4298C14.9817 37.3498 14.6117 44.1578 14.6117 51.8538C14.6117 59.4018 14.3157 66.6538 13.7237 73.6098C12.5397 73.7578 11.9477 74.6458 11.9477 76.2738C11.9477 77.1618 12.0957 78.0498 12.3917 78.9378ZM11.0597 141.542C15.4997 138.582 19.7917 135.326 23.9357 131.774C28.2277 128.074 32.0757 124.078 35.4797 119.786C33.4077 117.122 31.4837 114.606 29.7077 112.238C28.0797 109.722 26.3777 107.428 24.6017 105.356C22.9737 103.284 21.1977 101.434 19.2737 99.8058C17.3497 98.0298 15.0557 96.4758 12.3917 95.1438C11.3557 98.2518 10.6157 101.36 10.1717 104.468C9.87566 107.576 9.72766 110.684 9.72766 113.792C9.72766 115.124 9.80166 116.9 9.94966 119.12C10.0977 121.192 10.2457 123.486 10.3937 126.002C10.5417 128.518 10.6897 131.182 10.8377 133.994C10.9857 136.658 11.0597 139.174 11.0597 141.542ZM33.7037 48.3018C32.9637 47.7098 32.0757 47.1178 31.0397 46.5258C30.1517 45.7858 29.1897 45.0458 28.1537 44.3058C27.1177 43.4178 26.2297 42.5298 25.4897 41.6418C24.8977 40.6058 24.6017 39.4218 24.6017 38.0898C26.2297 37.3498 27.7097 36.4618 29.0417 35.4258C30.3737 34.3898 31.9277 33.8718 33.7037 33.8718C35.0357 36.3878 35.7017 38.9038 35.7017 41.4198C35.7017 42.4558 35.5537 43.4918 35.2577 44.5278C35.1097 45.4158 34.5917 46.6738 33.7037 48.3018Z" fill="#F0F0F0"/>
<path d="M12.3917 78.9378L11.0773 79.376L11.2437 79.875L11.6993 80.1379L12.3917 78.9378ZM30.8177 96.6978L29.7035 97.5213L29.7149 97.5367L29.7266 97.5517L30.8177 96.6978ZM38.3657 107.354L37.1987 108.101L37.2091 108.117L37.22 108.133L38.3657 107.354ZM46.3577 118.232L47.7292 118.428L47.8133 117.839L47.4439 117.372L46.3577 118.232ZM44.1377 123.338L45.1173 124.317L45.1461 124.289L45.1731 124.258L44.1377 123.338ZM40.1417 126.89L40.9362 128.025L40.9725 127.999L41.0071 127.972L40.1417 126.89ZM35.4797 129.998L34.7359 128.829H34.7358L35.4797 129.998ZM31.2617 133.772L31.7638 135.063L32.1109 134.928L32.3435 134.637L31.2617 133.772ZM24.1577 138.656L23.1448 137.711L23.1274 137.729L23.1107 137.748L24.1577 138.656ZM18.3857 145.538L17.3104 144.664L17.3038 144.672L18.3857 145.538ZM12.6137 151.976L13.5933 152.956L12.6137 151.976ZM5.50966 156.194V157.579H5.6985L5.88046 157.529L5.50966 156.194ZM2.40166 154.418L1.19057 155.091L1.2079 155.122L1.22681 155.152L2.40166 154.418ZM0.847656 150.866H-0.537781V151.06L-0.484475 151.246L0.847656 150.866ZM1.29166 141.986L2.67403 142.078L2.67422 142.075L1.29166 141.986ZM2.17966 125.558L0.797428 125.464L0.79641 125.479L0.795715 125.493L2.17966 125.558ZM3.51166 104.024L4.89488 104.102L4.89496 104.101L3.51166 104.024ZM4.62166 79.8258L3.2382 79.7517L3.23757 79.7636L3.23713 79.7755L4.62166 79.8258ZM5.73166 55.4058L7.11615 55.4571L7.11618 55.4562L5.73166 55.4058ZM5.73166 15.4458L4.34861 15.5272L4.34876 15.5297L5.73166 15.4458ZM4.17766 4.12383L2.82521 3.82329L2.74771 4.17203L2.84852 4.51476L4.17766 4.12383ZM6.39766 1.90384L6.56951 3.27857L6.63438 3.27046L6.6982 3.25628L6.39766 1.90384ZM9.72766 0.793837L10.7999 -0.0834725L10.0986 -0.940619L9.10807 -0.445334L9.72766 0.793837ZM12.8357 7.00984L11.5065 7.40076L11.5169 7.43615L11.5292 7.47094L12.8357 7.00984ZM14.8337 15.0018L13.4652 15.2179L14.8337 15.0018ZM15.4997 23.6598H14.1142V23.6963L14.1161 23.7327L15.4997 23.6598ZM15.7217 31.4298L17.0964 31.6017L17.1071 31.5161V31.4298H15.7217ZM13.7237 73.6098L13.8955 74.9846L15.0089 74.8454L15.1041 73.7273L13.7237 73.6098ZM11.0597 141.542H9.67422V144.131L11.8282 142.695L11.0597 141.542ZM23.9357 131.774L24.8373 132.826L24.8403 132.823L23.9357 131.774ZM35.4797 119.786L36.5651 120.647L37.2413 119.794L36.5733 118.935L35.4797 119.786ZM29.7077 112.238L28.5445 112.99L28.5705 113.031L28.5993 113.069L29.7077 112.238ZM24.6017 105.356L23.5123 106.212L23.5305 106.235L23.5498 106.257L24.6017 105.356ZM19.2737 99.8058L18.3339 100.824L18.3559 100.844L18.3787 100.863L19.2737 99.8058ZM12.3917 95.1438L13.0112 93.9047L11.5825 93.1903L11.0773 94.7057L12.3917 95.1438ZM10.1717 104.468L8.80014 104.272L8.79554 104.304L8.79246 104.336L10.1717 104.468ZM9.94966 119.12L8.56727 119.212L8.56774 119.219L9.94966 119.12ZM10.3937 126.002L9.01061 126.083L10.3937 126.002ZM10.8377 133.994L9.45413 134.067L9.45435 134.071L10.8377 133.994ZM33.7037 48.3018L32.8382 49.3837L34.1286 50.416L34.9199 48.9653L33.7037 48.3018ZM31.0397 46.5258L30.1527 47.5902L30.2464 47.6682L30.3523 47.7287L31.0397 46.5258ZM28.1537 44.3058L27.252 45.3577L27.2985 45.3976L27.3484 45.4332L28.1537 44.3058ZM25.4897 41.6418L24.2868 42.3292L24.3473 42.4351L24.4253 42.5288L25.4897 41.6418ZM24.6017 38.0898L24.0284 36.8286L23.2162 37.1977V38.0898H24.6017ZM29.0417 35.4258L28.1911 34.3322L28.1911 34.3322L29.0417 35.4258ZM33.7037 33.8718L34.9281 33.2236L34.5378 32.4864H33.7037V33.8718ZM35.2577 44.5278L33.9255 44.1472L33.904 44.2227L33.8911 44.3001L35.2577 44.5278ZM11.6993 80.1379C15.4366 82.294 18.735 84.8766 21.6004 87.8853L23.6069 85.9744C20.5523 82.7671 17.0427 80.0217 13.084 77.7378L11.6993 80.1379ZM21.6004 87.8853C24.5213 90.9523 27.2222 94.1642 29.7035 97.5213L31.9318 95.8744C29.3811 92.4235 26.606 89.1234 23.6069 85.9744L21.6004 87.8853ZM29.7266 97.5517C32.3632 100.921 34.854 104.437 37.1987 108.101L39.5326 106.607C37.1414 102.871 34.6001 99.283 31.9087 95.844L29.7266 97.5517ZM37.22 108.133C39.7551 111.861 42.4389 115.514 45.2714 119.092L47.4439 117.372C44.6524 113.846 42.0083 110.247 39.5113 106.575L37.22 108.133ZM44.9861 118.036C44.7218 119.887 44.0758 121.322 43.1022 122.417L45.1731 124.258C46.5675 122.69 47.4016 120.721 47.7292 118.428L44.9861 118.036ZM43.158 122.358C42.0145 123.502 40.7214 124.652 39.2762 125.808L41.0071 127.972C42.5219 126.76 43.8928 125.542 45.1173 124.317L43.158 122.358ZM39.3472 125.755C37.8849 126.778 36.3479 127.803 34.7359 128.829L36.2235 131.167C37.8675 130.121 39.4384 129.073 40.9362 128.025L39.3472 125.755ZM34.7358 128.829C32.9816 129.945 31.4608 131.305 30.1798 132.906L32.3435 134.637C33.4305 133.279 34.7217 132.122 36.2235 131.167L34.7358 128.829ZM30.7595 132.481C27.8894 133.597 25.3498 135.348 23.1448 137.711L25.1705 139.601C27.1095 137.524 29.3059 136.019 31.7638 135.063L30.7595 132.481ZM23.1107 137.748C21.1767 139.98 19.2433 142.285 17.3104 144.664L19.4609 146.411C21.376 144.054 23.2906 141.772 25.2046 139.563L23.1107 137.748ZM17.3038 144.672C15.5607 146.851 13.671 148.959 11.634 150.996L13.5933 152.956C15.7003 150.848 17.6586 148.664 19.4675 146.403L17.3038 144.672ZM11.634 150.996C9.72046 152.91 7.55882 154.187 5.13885 154.859L5.88046 157.529C8.7885 156.721 11.3628 155.186 13.5933 152.956L11.634 150.996ZM5.50966 154.808C4.68257 154.808 4.07811 154.486 3.5765 153.684L1.22681 155.152C2.2052 156.718 3.67274 157.579 5.50966 157.579V154.808ZM3.61275 153.745C2.90479 152.471 2.43752 151.387 2.17979 150.485L-0.484475 151.246C-0.150211 152.416 0.418521 153.701 1.19057 155.091L3.61275 153.745ZM2.23309 150.866C2.23309 149.44 2.37751 146.526 2.67403 142.078L-0.0907128 141.894C-0.386195 146.326 -0.537781 149.332 -0.537781 150.866H2.23309ZM2.67422 142.075C2.97091 137.476 3.26735 131.992 3.5636 125.622L0.795715 125.493C0.499965 131.852 0.204401 137.319 -0.090907 141.897L2.67422 142.075ZM3.56188 125.652C4.00631 119.134 4.45064 111.95 4.89488 104.102L2.12843 103.946C1.68468 111.785 1.241 118.958 0.797428 125.464L3.56188 125.652ZM4.89496 104.101C5.33946 96.0997 5.70986 88.0249 6.00618 79.8762L3.23713 79.7755C2.94145 87.9068 2.57185 95.964 2.12835 103.947L4.89496 104.101ZM6.00511 79.9C6.4495 71.6046 6.81985 63.457 7.11615 55.4571L4.34717 55.3546C4.05146 63.3387 3.68181 71.4711 3.2382 79.7517L6.00511 79.9ZM7.11618 55.4562C7.41269 47.3022 7.56109 39.7372 7.56109 32.7618H4.79022C4.79022 39.6985 4.64262 47.2295 4.34713 55.3555L7.11618 55.4562ZM7.56109 32.7618C7.56109 26.0831 7.41273 20.2818 7.11456 15.362L4.34876 15.5297C4.64259 20.3779 4.79022 26.1206 4.79022 32.7618H7.56109ZM7.1147 15.3645C6.81708 10.3049 6.29235 6.4038 5.5068 3.73291L2.84852 4.51476C3.54296 6.87587 4.05423 10.5228 4.34861 15.5272L7.1147 15.3645ZM5.5301 4.42438C5.63802 3.93877 5.79939 3.68441 5.93431 3.54949C6.05645 3.42735 6.23825 3.31998 6.56951 3.27857L6.22581 0.529098C5.37306 0.635696 4.59286 0.97233 3.975 1.59019C3.36992 2.19527 3.0133 2.97691 2.82521 3.82329L5.5301 4.42438ZM6.6982 3.25628C8.10274 2.94417 9.32817 2.54255 10.3472 2.03301L9.10807 -0.445334C8.35115 -0.0668712 7.35658 0.271513 6.09712 0.551389L6.6982 3.25628ZM8.65539 1.67115C9.84503 3.12516 10.8063 5.02001 11.5065 7.40076L14.1648 6.61891C13.385 3.96767 12.2743 1.71852 10.7999 -0.0834725L8.65539 1.67115ZM11.5292 7.47094C12.3873 9.90222 13.0335 12.4838 13.4652 15.2179L16.2021 14.7858C15.7458 11.8959 15.06 9.14946 14.1421 6.54874L11.5292 7.47094ZM13.4652 15.2179C13.8974 17.9557 14.1142 20.7693 14.1142 23.6598H16.8851C16.8851 20.6303 16.6579 17.672 16.2021 14.7858L13.4652 15.2179ZM14.1161 23.7327C14.2631 26.5248 14.3362 29.0901 14.3362 31.4298H17.1071C17.1071 29.0335 17.0322 26.4189 16.8832 23.587L14.1161 23.7327ZM14.3469 31.258C13.5981 37.2486 13.2262 44.1159 13.2262 51.8538H15.9971C15.9971 44.1998 16.3652 37.4511 17.0964 31.6017L14.3469 31.258ZM13.2262 51.8538C13.2262 59.3657 12.9316 66.5784 12.3432 73.4924L15.1041 73.7273C15.6997 66.7293 15.9971 59.4379 15.9971 51.8538H13.2262ZM13.5518 72.2351C12.6131 72.3524 11.7862 72.7974 11.2389 73.6183C10.7309 74.3804 10.5622 75.3203 10.5622 76.2738H13.3331C13.3331 75.5994 13.4604 75.2813 13.5444 75.1553C13.5891 75.0883 13.6502 75.0152 13.8955 74.9846L13.5518 72.2351ZM10.5622 76.2738C10.5622 77.3186 10.7368 78.3544 11.0773 79.376L13.706 78.4997C13.4545 77.7453 13.3331 77.005 13.3331 76.2738H10.5622ZM11.8282 142.695C16.3156 139.703 20.6519 136.413 24.8373 132.826L23.034 130.722C18.9314 134.239 14.6837 137.461 10.2912 140.389L11.8282 142.695ZM24.8403 132.823C29.1961 129.068 33.1051 125.009 36.5651 120.647L34.3942 118.925C31.0462 123.146 27.2592 127.08 23.031 130.725L24.8403 132.823ZM36.5733 118.935C34.5056 116.277 32.5865 113.767 30.816 111.407L28.5993 113.069C30.3808 115.444 32.3098 117.967 34.3861 120.636L36.5733 118.935ZM30.8708 111.485C29.2124 108.922 27.4736 106.578 25.6536 104.454L23.5498 106.257C25.2817 108.278 26.947 110.522 28.5445 112.99L30.8708 111.485ZM25.6911 104.5C24.0078 102.358 22.1672 100.439 20.1686 98.7482L18.3787 100.863C20.2281 102.428 21.9395 104.21 23.5123 106.212L25.6911 104.5ZM20.2134 98.7878C18.1815 96.9122 15.7761 95.2871 13.0112 93.9047L11.7721 96.383C14.3352 97.6646 16.5178 99.1475 18.3339 100.824L20.2134 98.7878ZM11.0773 94.7057C10.0162 97.8892 9.2564 101.078 8.80014 104.272L11.5432 104.664C11.9749 101.642 12.6951 98.6145 13.706 95.582L11.0773 94.7057ZM8.79246 104.336C8.49232 107.488 8.34222 110.64 8.34222 113.792H11.1131C11.1131 110.728 11.259 107.664 11.5509 104.599L8.79246 104.336ZM8.34222 113.792C8.34222 115.168 8.4184 116.979 8.56729 119.212L11.332 119.028C11.1849 116.821 11.1131 115.08 11.1131 113.792H8.34222ZM8.56774 119.219C8.71525 121.284 8.86288 123.572 9.01061 126.083L11.7767 125.92C11.6284 123.4 11.4801 121.1 11.3316 119.021L8.56774 119.219ZM9.01061 126.083C9.15842 128.596 9.30627 131.257 9.45413 134.067L12.2212 133.921C12.073 131.107 11.9249 128.44 11.7767 125.92L9.01061 126.083ZM9.45435 134.071C9.60111 136.712 9.67422 139.202 9.67422 141.542H12.4451C12.4451 139.145 12.3702 136.603 12.221 133.917L9.45435 134.071ZM34.5691 47.22C33.7608 46.5733 32.8102 45.9419 31.727 45.3229L30.3523 47.7287C31.3411 48.2938 32.1665 48.8464 32.8382 49.3837L34.5691 47.22ZM31.9266 45.4615C31.0097 44.6974 30.0202 43.9365 28.9589 43.1785L27.3484 45.4332C28.3592 46.1552 29.2936 46.8743 30.1527 47.5902L31.9266 45.4615ZM29.0553 43.2539C28.0679 42.4076 27.2366 41.574 26.554 40.7549L24.4253 42.5288C25.2228 43.4857 26.1675 44.4281 27.252 45.3577L29.0553 43.2539ZM26.6926 40.9545C26.2336 40.1514 25.9871 39.2094 25.9871 38.0898H23.2162C23.2162 39.6343 23.5617 41.0603 24.2868 42.3292L26.6926 40.9545ZM25.175 39.3511C26.8958 38.5689 28.4697 37.6258 29.8922 36.5194L28.1911 34.3322C26.9496 35.2979 25.5636 36.1308 24.0284 36.8286L25.175 39.3511ZM29.8922 36.5194C30.9677 35.683 32.2184 35.2573 33.7037 35.2573V32.4864C31.6369 32.4864 29.7796 33.0967 28.1911 34.3322L29.8922 36.5194ZM32.4792 34.5201C33.7196 36.8629 34.3162 39.1581 34.3162 41.4198H37.0871C37.0871 38.6496 36.3518 35.9128 34.9281 33.2236L32.4792 34.5201ZM34.3162 41.4198C34.3162 42.322 34.1876 43.23 33.9255 44.1472L36.5898 44.9085C36.9197 43.7536 37.0871 42.5896 37.0871 41.4198H34.3162ZM33.8911 44.3001C33.7834 44.9464 33.3627 46.0337 32.4874 47.6384L34.9199 48.9653C35.8206 47.314 36.436 45.8853 36.6242 44.7556L33.8911 44.3001Z" fill="#F0F0F0" mask="url(#path-1-outside-1_1172_1730)"/>
</svg>
