<svg width="1024" height="764" viewBox="0 0 1024 764" fill="none" xmlns="http://www.w3.org/2000/svg">
<g clip-path="url(#clip0_933_2154)">
<rect width="1024" height="764" fill="#880707"/>
<rect x="733.725" y="423.393" width="290.276" height="114.836" fill="#B47208"/>
<rect y="524.604" width="220.653" height="207.289" fill="#35AD7F"/>
<rect x="787.279" y="34.1167" width="236.72" height="219.941" fill="#99A82F"/>
<rect x="294.355" y="130.618" width="309.556" height="105.105" fill="#E4D82F"/>
<rect x="409.535" y="503.632" width="324.552" height="113.863" fill="#E4D82F"/>
<rect x="148.887" y="324.127" width="146.745" height="101.212" fill="#E4D82F"/>
<rect x="733.725" y="324.127" width="138.176" height="99.2654" fill="#E4D82F"/>
<rect x="24.7422" y="511.055" width="24.7428" height="186.507" transform="rotate(180 24.7422 511.055)" fill="#99A82F"/>
<rect x="601.975" y="170.363" width="267.782" height="155.71" fill="#35AD7F"/>
<rect x="148.887" y="423.393" width="261.356" height="155.71" fill="#99A82F"/>
<rect x="517.355" y="509.033" width="221.724" height="275.413" transform="rotate(180 517.355 509.033)" fill="#B47208"/>
<rect x="734.795" y="509.033" width="217.439" height="275.413" transform="rotate(180 734.795 509.033)" fill="#99A82F"/>
<rect x="315.777" y="255.586" width="396.318" height="234.539" fill="#950E0E"/>
<rect x="411.242" y="34.1167" width="235.648" height="102.185" fill="#99A82F"/>
<rect x="360.906" y="616.835" width="232.435" height="114.836" fill="#99A82F"/>
<rect y="218.768" width="295.632" height="106.078" fill="#99A82F"/>
<rect x="148.887" y="524.604" width="148.887" height="226.753" transform="rotate(180 148.887 524.604)" fill="#951919"/>
<rect x="220.127" y="538.163" width="305.272" height="78.8284" fill="#951919"/>
<rect width="154.243" height="240.378" transform="matrix(1 0 0 -1 869.758 451.615)" fill="#951919"/>
<rect x="787.506" y="214.529" width="305.272" height="78.8284" transform="rotate(180 787.506 214.529)" fill="#951919"/>
<rect y="219.023" width="184.906" height="411.314" transform="rotate(-90 0 219.023)" fill="#E4D82F"/>
<rect x="592" y="732" width="194" height="432" transform="rotate(-90 592 732)" fill="#E4D82F"/>
<rect x="149.311" y="731.894" width="114.836" height="212.084" transform="rotate(-90 149.311 731.894)" fill="#E4D82F"/>
<rect x="646.729" y="136.185" width="102.185" height="222.795" transform="rotate(-90 646.729 136.185)" fill="#E4D82F"/>
<rect x="273.879" y="34.2292" width="305.272" height="59.3646" fill="#B47208"/>
<rect x="434" y="675" width="324" height="57" fill="#B47208"/>
<rect x="592.123" y="537.964" width="273.138" height="94.3994" fill="#35AD7F"/>
<rect x="163.816" y="125.979" width="248.502" height="93.4262" fill="#35AD7F"/>
</g>
<defs>
<clipPath id="clip0_933_2154">
<rect width="1024" height="764" fill="white"/>
</clipPath>
</defs>
</svg>
