<svg width="1157" height="1437" viewBox="0 0 1157 1437" fill="none" xmlns="http://www.w3.org/2000/svg">
<g clip-path="url(#clip0_1616_2)">
<rect width="1157" height="1437" fill="#880707"/>
<rect x="805.605" y="1392.99" width="377.908" height="351.394" transform="rotate(-90 805.605 1392.99)" fill="#35AD7F"/>
<rect x="637.746" y="1197.39" width="182.497" height="169.793" transform="rotate(-90 637.746 1197.39)" fill="#99A82F"/>
<rect x="937" y="927" width="380" height="219" transform="rotate(-90 937 927)" fill="#99A82F"/>
<rect x="1157" y="586.503" width="351.393" height="540.472" transform="rotate(180 1157 586.503)" fill="#E4D82F"/>
<rect x="1155.87" y="1197.7" width="211.288" height="279.736" transform="rotate(180 1155.87 1197.7)" fill="#E4D82F"/>
<rect x="1056.44" y="821.903" width="426.466" height="100.56" transform="rotate(-90 1056.44 821.903)" fill="#B47208"/>
<rect x="576.324" y="581.7" width="325.686" height="368.136" transform="rotate(-90 576.324 581.7)" fill="#35AD7F"/>
<rect x="636" y="437" width="392" height="170" transform="rotate(-90 636 437)" fill="#B47208"/>
<rect y="458.774" width="412.743" height="387.55" transform="rotate(-90 0 458.774)" fill="#99A82F"/>
<rect y="852.516" width="308.238" height="211.288" transform="rotate(-90 0 852.516)" fill="#99A82F"/>
<rect x="335.574" y="1392.99" width="335.575" height="540.472" transform="rotate(180 335.574 1392.99)" fill="#E4D82F"/>
<rect x="212.418" y="548.501" width="212.418" height="297.682" transform="rotate(180 212.418 548.501)" fill="#E4D82F"/>
<rect y="1033.03" width="401.131" height="105.079" transform="rotate(-90 0 1033.03)" fill="#B47208"/>
<rect x="212.697" y="1176.92" width="303.225" height="369.638" transform="rotate(-90 212.697 1176.92)" fill="#35AD7F"/>
<rect x="335.561" y="1393.07" width="379.032" height="154.767" transform="rotate(-90 335.561 1393.07)" fill="#99A82F"/>
<rect x="486" y="437" width="189" height="152" transform="rotate(-90 486 437)" fill="#E4D82F"/>
<rect x="318" y="437" width="189" height="171" transform="rotate(-90 318 437)" fill="#35AD7F"/>
<rect width="202.15" height="357.618" transform="matrix(-5.36585e-08 -1 -1 3.56082e-08 675.496 247.591)" fill="#951919"/>
<rect x="490.676" y="1197.98" width="183.9" height="148.757" transform="rotate(-90 490.676 1197.98)" fill="#E4D82F"/>
<rect x="807.727" y="1197.98" width="195.131" height="356.115" transform="rotate(90 807.727 1197.98)" fill="#951919"/>
<rect x="806.662" y="523.272" width="595.028" height="95.4598" transform="rotate(-180 806.662 523.272)" fill="#951919"/>
<rect x="944.584" y="1014.35" width="608.551" height="95.4598" transform="rotate(-180 944.584 1014.35)" fill="#951919"/>
<rect x="580.832" y="873.695" width="369.638" height="350.955" transform="rotate(180 580.832 873.695)" fill="#B47208"/>
<rect x="944.461" y="918.617" width="362.125" height="336.917" transform="rotate(180 944.461 918.617)" fill="#E4D82F"/>
<rect x="246.725" y="581.008" width="661.142" height="293.398" fill="#950E0E"/>
</g>
<defs>
<clipPath id="clip0_1616_2">
<rect width="1157" height="1437" fill="white"/>
</clipPath>
</defs>
</svg>
