<svg width="1280" height="900" viewBox="0 0 1280 900" fill="none" xmlns="http://www.w3.org/2000/svg">
<g clip-path="url(#clip0_903_3)">
<rect width="1280" height="900" fill="#880707"/>
<rect y="596.074" width="274.742" height="251.926" fill="#35AD7F"/>
<rect x="982.895" y="52" width="296.04" height="250.867" fill="#99A82F"/>
<rect x="367.387" y="162.085" width="386.556" height="119.612" fill="#E4D82F"/>
<rect x="511.148" y="587.606" width="405.724" height="130.197" fill="#E4D82F"/>
<rect x="176.771" y="383.314" width="191.681" height="113.261" fill="#E4D82F"/>
<rect x="915.807" y="383.314" width="187.421" height="113.261" fill="#E4D82F"/>
<rect x="1280" y="503.984" width="27.6872" height="220.17" transform="rotate(180 1280 503.984)" fill="#B47208"/>
<rect x="30.8828" y="596.074" width="30.8819" height="212.761" transform="rotate(180 30.8828 596.074)" fill="#99A82F"/>
<rect x="750.748" y="207.601" width="334.376" height="177.83" fill="#35AD7F"/>
<rect x="186.355" y="496.574" width="324.792" height="177.83" fill="#99A82F"/>
<rect x="645.324" y="593.958" width="276.872" height="314.378" transform="rotate(180 645.324 593.958)" fill="#B47208"/>
<rect x="916.871" y="593.958" width="271.547" height="314.378" transform="rotate(180 916.871 593.958)" fill="#99A82F"/>
<rect x="394.129" y="304.644" width="495.175" height="267.803" fill="#950E0E"/>
<rect x="513.277" y="52" width="293.91" height="116.436" fill="#99A82F"/>
<rect x="450.449" y="716.745" width="289.651" height="131.255" fill="#99A82F"/>
<rect x="916.871" y="496.574" width="362.063" height="131.255" fill="#B47208"/>
<rect y="262.644" width="368.453" height="120.67" fill="#99A82F"/>
<rect x="186.355" y="626.771" width="186.356" height="274.154" transform="rotate(180 186.355 626.771)" fill="#951919"/>
<rect x="274.742" y="626.998" width="381.231" height="89.9734" fill="#951919"/>
<rect width="194.875" height="274.154" transform="matrix(1 0 0 -1 1085.12 528.33)" fill="#951919"/>
<rect x="982.895" y="257.809" width="381.231" height="89.9734" transform="rotate(180 982.895 257.809)" fill="#951919"/>
<rect y="262.644" width="210.644" height="513.278" transform="rotate(-90 0 262.644)" fill="#E4D82F"/>
<rect x="739.035" y="848" width="221.229" height="539.9" transform="rotate(-90 739.035 848)" fill="#E4D82F"/>
<rect x="186.355" y="848" width="131.255" height="264.093" transform="rotate(-90 186.355 848)" fill="#E4D82F"/>
<rect x="807.188" y="168.436" width="116.436" height="277.937" transform="rotate(-90 807.188 168.436)" fill="#E4D82F"/>
<rect x="341.83" y="52" width="380.915" height="67.9596" fill="#B47208"/>
<rect x="542.029" y="763.354" width="404.659" height="64.5691" fill="#B47208"/>
<rect x="739.035" y="626.771" width="340.765" height="107.968" fill="#35AD7F"/>
<rect x="204.459" y="156.792" width="310.948" height="106.91" fill="#35AD7F"/>
</g>
<defs>
<clipPath id="clip0_903_3">
<rect width="1280" height="900" fill="white"/>
</clipPath>
</defs>
</svg>
