<svg width="1366" height="768" viewBox="0 0 1366 768" fill="none" xmlns="http://www.w3.org/2000/svg">
<rect width="1366" height="768" fill="#880707"/>
<rect x="0.0644531" y="531.39" width="293.528" height="182.279" fill="#35AD7F"/>
<rect x="1049" y="54.9595" width="317" height="167.888" fill="#99A82F"/>
<rect x="392.498" y="150.523" width="412.641" height="94.0174" fill="#E4D82F"/>
<rect x="545.645" y="501.65" width="434.975" height="104.57" fill="#E4D82F"/>
<rect x="198.939" y="328.965" width="194.622" height="94.9768" fill="#E4D82F"/>
<rect x="977.428" y="328.965" width="180.796" height="94.0174" fill="#E4D82F"/>
<rect x="33.0098" y="505.854" width="32.9457" height="176.468" transform="rotate(180 33.0098 505.854)" fill="#99A82F"/>
<rect x="800.988" y="183.646" width="377.545" height="146.782" fill="#35AD7F"/>
<rect x="198.877" y="423.327" width="346.704" height="147.742" fill="#99A82F"/>
<rect x="688.518" y="504.098" width="295.655" height="259.987" transform="rotate(180 688.518 504.098)" fill="#B47208"/>
<rect x="978.492" y="504.528" width="290.338" height="260.946" transform="rotate(180 978.492 504.528)" fill="#99A82F"/>
<rect x="420.537" y="264.136" width="528.564" height="222.572" fill="#950E0E"/>
<rect x="547.646" y="54.5874" width="313.735" height="96.8955" fill="#99A82F"/>
<rect x="480.619" y="605.941" width="308.417" height="108.408" fill="#99A82F"/>
<rect x="979" y="423.354" width="387" height="108.408" fill="#B47208"/>
<rect x="0.0644531" y="229.3" width="393.498" height="99.7736" fill="#99A82F"/>
<rect x="198.877" y="531.315" width="198.876" height="227.369" transform="rotate(180 198.877 531.315)" fill="#951919"/>
<rect x="861.201" y="151.162" width="96.8955" height="296.719" transform="rotate(-90 861.201 151.162)" fill="#E4D82F"/>
<rect x="293.166" y="531.503" width="406.26" height="74.8302" fill="#951919"/>
<rect width="208" height="227.369" transform="matrix(1 0 0 -1 1158 449.257)" fill="#951919"/>
<rect x="1048.65" y="225.289" width="406.26" height="74.8302" transform="rotate(180 1048.65 225.289)" fill="#951919"/>
<rect x="0.0644531" y="229.191" width="174.604" height="547.707" transform="rotate(-90 0.0644531 229.191)" fill="#E4D82F"/>
<rect x="788" y="715" width="183.238" height="578" transform="rotate(-90 788 715)" fill="#E4D82F"/>
<rect x="198.877" y="714.807" width="108.408" height="281.83" transform="rotate(-90 198.877 714.807)" fill="#E4D82F"/>
<rect x="364.742" y="54" width="406.26" height="56.6023" fill="#B47208"/>
<rect x="578.32" y="660.909" width="431.784" height="53.7242" fill="#B47208"/>
<rect x="788.492" y="531.315" width="363.72" height="89.2206" fill="#35AD7F"/>
<rect x="218.189" y="141.505" width="331.815" height="88.2612" fill="#35AD7F"/>
</svg>
