<svg width="1440" height="900" viewBox="0 0 1440 900" fill="none" xmlns="http://www.w3.org/2000/svg">
<rect width="1440" height="900" fill="#880707"/>
<rect y="629.53" width="308.834" height="225" fill="#35AD7F"/>
<rect x="1106.43" y="44.53" width="333.328" height="255" fill="#99A82F"/>
<rect x="413.561" y="156.577" width="434.497" height="121" fill="#E4D82F"/>
<rect x="571.875" y="589.53" width="460.056" height="133" fill="#E4D82F"/>
<rect x="206.6" y="381.53" width="208.729" height="118" fill="#E4D82F"/>
<rect x="1030.87" y="381.53" width="197.015" height="119" fill="#E4D82F"/>
<rect x="845.102" y="202.904" width="375.925" height="180.998" fill="#35AD7F"/>
<rect x="908.635" y="163.041" width="118" height="313.094" transform="rotate(-90 908.635 163.041)" fill="#E4D82F"/>
<rect x="209.777" y="497.026" width="365.276" height="180.998" fill="#99A82F"/>
<rect x="726.428" y="596.144" width="311.669" height="319.979" transform="rotate(180 726.428 596.144)" fill="#B47208"/>
<rect x="1032.1" y="596.144" width="305.639" height="320" transform="rotate(180 1032.1 596.144)" fill="#99A82F"/>
<rect x="443.664" y="301.676" width="556.966" height="273" fill="#950E0E"/>
<rect x="577.787" y="44.53" width="331.198" height="119" fill="#99A82F"/>
<rect x="507.061" y="721.119" width="325.873" height="134" fill="#99A82F"/>
<rect x="1032" y="497" width="408" height="134" fill="#B47208"/>
<rect y="257.53" width="415.328" height="126" fill="#99A82F"/>
<rect x="209.777" y="629.542" width="209.777" height="279.039" transform="rotate(180 209.777 629.542)" fill="#951919"/>
<rect x="309.271" y="629.773" width="429.172" height="92" fill="#951919"/>
<rect width="219.378" height="279" transform="matrix(1 0 0 -1 1220.44 529.347)" fill="#951919"/>
<rect x="1106.43" y="254.006" width="429.172" height="92" transform="rotate(180 1106.43 254.006)" fill="#951919"/>
<rect y="258.53" width="214" height="580.395" transform="rotate(-90 0 258.53)" fill="#E4D82F"/>
<rect x="831.916" y="854.543" width="225" height="608.083" transform="rotate(-90 831.916 854.543)" fill="#E4D82F"/>
<rect x="209.777" y="854.713" width="134" height="297.119" transform="rotate(-90 209.777 854.713)" fill="#E4D82F"/>
<rect x="384.791" y="44" width="429.172" height="69" fill="#B47208"/>
<rect x="610.152" y="789.559" width="455.796" height="66" fill="#B47208"/>
<rect x="831.914" y="629.542" width="383.38" height="110" fill="#35AD7F"/>
<rect x="230.154" y="151.19" width="350.367" height="109" fill="#35AD7F"/>
</svg>
