<svg width="1680" height="1050" viewBox="0 0 1680 1050" fill="none" xmlns="http://www.w3.org/2000/svg">
<rect width="1680" height="1050" fill="#880707"/>
<rect y="700.211" width="375.197" height="299.532" fill="#35AD7F"/>
<rect x="1261" y="51" width="419" height="298" fill="#99A82F"/>
<rect x="460.088" y="182.469" width="491.528" height="142.311" fill="#E4D82F"/>
<rect x="651.877" y="689.368" width="526.114" height="154.509" fill="#E4D82F"/>
<rect x="244.192" y="445.406" width="247.336" height="134.179" fill="#E4D82F"/>
<rect x="1176.94" y="445.406" width="249.432" height="134.179" fill="#E4D82F"/>
<rect x="943.23" y="236.683" width="483.144" height="211.434" fill="#35AD7F"/>
<rect x="233.712" y="579.585" width="418.166" height="211.434" fill="#99A82F"/>
<rect x="842.621" y="696.145" width="351.092" height="374.076" transform="rotate(180 842.621 696.145)" fill="#B47208"/>
<rect x="1177.99" y="696.145" width="339.563" height="374.076" transform="rotate(180 1177.99 696.145)" fill="#99A82F"/>
<rect x="522.969" y="351.887" width="620.437" height="319.862" fill="#950E0E"/>
<rect x="660.262" y="51" width="381.485" height="138.245" fill="#99A82F"/>
<rect x="583.756" y="842.522" width="372.052" height="157.22" fill="#99A82F"/>
<rect x="1178" y="580" width="502" height="157" fill="#B47208"/>
<rect y="296.318" width="491.528" height="149.088" fill="#99A82F"/>
<rect x="249.433" y="735.45" width="249.432" height="325.283" transform="rotate(180 249.433 735.45)" fill="#951919"/>
<rect x="374.148" y="735.45" width="477.904" height="108.428" fill="#951919"/>
<rect width="253.624" height="325.283" transform="matrix(1 0 0 -1 1426.38 617.535)" fill="#951919"/>
<rect x="1260.79" y="296.318" width="476.856" height="107.072" transform="rotate(180 1260.79 296.318)" fill="#951919"/>
<rect y="301.739" width="250.739" height="671.79" transform="rotate(-90 0 301.739)" fill="#E4D82F"/>
<rect x="955.809" y="999.742" width="264.293" height="723.144" transform="rotate(-90 955.809 999.742)" fill="#E4D82F"/>
<rect x="233.712" y="999.742" width="155.865" height="350.044" transform="rotate(-90 233.712 999.742)" fill="#E4D82F"/>
<rect x="1040.7" y="189.245" width="138.245" height="347.948" transform="rotate(-90 1040.7 189.245)" fill="#E4D82F"/>
<rect x="427.598" y="51" width="476.856" height="81.3208" fill="#B47208"/>
<rect x="679.127" y="922.488" width="536.594" height="77.2547" fill="#B47208"/>
<rect x="955.809" y="735.45" width="426.55" height="128.758" fill="#35AD7F"/>
<rect x="255.721" y="175.692" width="416.07" height="127.403" fill="#35AD7F"/>
</svg>
