<svg width="1920" height="1080" viewBox="0 0 1920 1080" fill="none" xmlns="http://www.w3.org/2000/svg">
<g clip-path="url(#clip0_1172_1459)">
<rect width="1920" height="1080" fill="#880707"/>
<rect x="1441.65" y="70.2742" width="478.132" height="295.885" fill="#99A82F"/>
<rect x="526.035" y="200.266" width="552.84" height="141.132" fill="#E4D82F"/>
<rect x="746.015" y="703.24" width="601.934" height="152.809" fill="#E4D82F"/>
<rect x="267.882" y="461.86" width="294.564" height="133.343" fill="#E4D82F"/>
<rect x="1346.45" y="461.64" width="283.891" height="133.343" fill="#E4D82F"/>
<rect x="1079" y="254.547" width="551.773" height="209.261" fill="#35AD7F"/>
<rect x="267.882" y="595.203" width="478.132" height="220.94" fill="#99A82F"/>
<rect y="320.731" width="562.446" height="145.022" fill="#99A82F"/>
<rect x="267.882" y="816.143" width="267.882" height="390.295" transform="rotate(180 267.882 816.143)" fill="#951919"/>
<rect y="805.437" width="430.106" height="204.394" fill="#35AD7F"/>
<rect x="755.715" y="70.2742" width="435.442" height="137.236" fill="#99A82F"/>
<rect x="668.104" y="855.076" width="425.837" height="154.755" fill="#99A82F"/>
<rect x="1347.67" y="594.765" width="572.051" height="154.755" fill="#B47208"/>
<rect x="428.614" y="749.25" width="545.37" height="106.09" fill="#951919"/>
<rect x="1442.16" y="313.299" width="545.37" height="106.09" transform="rotate(180 1442.16 313.299)" fill="#951919"/>
<rect y="321.705" width="251.113" height="767.36" transform="rotate(-90 0 321.705)" fill="#E4D82F"/>
<rect x="1093.94" y="1009.83" width="260.846" height="826.059" transform="rotate(-90 1093.94 1009.83)" fill="#E4D82F"/>
<rect x="267.882" y="1009.83" width="154.755" height="403.424" transform="rotate(-90 267.882 1009.83)" fill="#E4D82F"/>
<rect x="1189.99" y="207.828" width="137.236" height="398.088" transform="rotate(-90 1189.99 207.828)" fill="#E4D82F"/>
<rect x="489.456" y="70" width="545.37" height="79.811" fill="#B47208"/>
<rect x="776.463" y="934.082" width="613.674" height="75.9178" fill="#B47208"/>
<rect x="1093.13" y="748.981" width="487.738" height="127.503" fill="#35AD7F"/>
<rect x="293.136" y="195.364" width="474.931" height="126.53" fill="#35AD7F"/>
<rect x="1630.77" y="309.052" width="289.227" height="323.137" fill="#951919"/>
<rect x="959.542" y="709.873" width="397.021" height="371.802" transform="rotate(180 959.542 709.873)" fill="#B47208"/>
<rect x="1347.67" y="710.234" width="388.482" height="371.802" transform="rotate(180 1347.67 710.234)" fill="#99A82F"/>
<rect x="599.484" y="368.604" width="708.66" height="316.324" fill="#950E0E"/>
</g>
<defs>
<clipPath id="clip0_1172_1459">
<rect width="1920" height="1080" fill="white"/>
</clipPath>
</defs>
</svg>
