<svg width="360" height="640" viewBox="0 0 360 640" fill="none" xmlns="http://www.w3.org/2000/svg">
<g clip-path="url(#clip0_1167_422)">
<rect width="360" height="640" fill="#880707"/>
<rect x="276" y="610.583" width="204.523" height="84" transform="rotate(-90 276 610.583)" fill="#35AD7F"/>
<rect x="319.109" y="406.345" width="137.976" height="146.365" transform="rotate(180 319.109 406.345)" fill="#E4D82F"/>
<rect x="217.344" y="524.542" width="77.5444" height="58.9734" transform="rotate(-90 217.344 524.542)" fill="#99A82F"/>
<rect x="319" y="406.06" width="160.905" height="41" transform="rotate(-90 319 406.06)" fill="#99A82F"/>
<rect x="360" y="259.695" width="91" height="230.695" transform="rotate(180 360 259.695)" fill="#E4D82F"/>
<rect x="360" y="517.53" width="41" height="111.47" transform="rotate(180 360 517.53)" fill="#E4D82F"/>
<rect x="329.959" y="355.536" width="174.475" height="30.0431" transform="rotate(-90 329.959 355.536)" fill="#B47208"/>
<rect x="185.936" y="260.789" width="140.549" height="133.525" transform="rotate(-90 185.936 260.789)" fill="#35AD7F"/>
<rect x="199.756" y="194.03" width="164.782" height="68.9878" transform="rotate(-90 199.756 194.03)" fill="#B47208"/>
<rect y="194.03" width="164.782" height="86.7911" transform="rotate(-90 0 194.03)" fill="#99A82F"/>
<rect y="377.891" width="134.733" height="42.2828" transform="rotate(-90 0 377.891)" fill="#99A82F"/>
<rect x="95.4805" y="611" width="95.4802" height="234.204" transform="rotate(180 95.4805 611)" fill="#E4D82F"/>
<rect x="38.9492" y="243.278" width="38.9459" height="126.01" transform="rotate(180 38.9492 243.278)" fill="#E4D82F"/>
<rect y="455.594" width="174.475" height="30.0431" transform="rotate(-90 0 455.594)" fill="#B47208"/>
<rect x="39" y="517.53" width="130.856" height="142" transform="rotate(-90 39 517.53)" fill="#35AD7F"/>
<rect x="154.529" y="194.03" width="77.5444" height="61.1988" transform="rotate(-90 154.529 194.03)" fill="#E4D82F"/>
<rect x="85.4316" y="194.03" width="77.5444" height="68.9878" transform="rotate(-90 85.4316 194.03)" fill="#35AD7F"/>
<rect width="87.2374" height="130.187" transform="matrix(-5.01784e-08 -1 -1 3.80778e-08 216.088 116.327)" fill="#951919"/>
<rect x="162.066" y="524.542" width="77.5444" height="55.6353" transform="rotate(-90 162.066 524.542)" fill="#E4D82F"/>
<rect x="186" y="386.673" width="147" height="152.181" transform="rotate(180 186 386.673)" fill="#B47208"/>
<rect x="45.1133" y="259.99" width="269.276" height="126.979" fill="#950E0E"/>
<rect x="162.066" y="446.838" width="163.812" height="68.9878" transform="rotate(90 162.066 446.838)" fill="#99A82F"/>
<rect width="86.2681" height="114.609" transform="matrix(5.01784e-08 1 1 -3.80778e-08 162.066 524.542)" fill="#951919"/>
<rect x="269.283" y="235.243" width="230.507" height="41.6801" transform="rotate(-180 269.283 235.243)" fill="#951919"/>
<rect x="319.109" y="447.299" width="225.881" height="41.6801" transform="rotate(-180 319.109 447.299)" fill="#951919"/>
</g>
<defs>
<clipPath id="clip0_1167_422">
<rect width="360" height="640" fill="white"/>
</clipPath>
</defs>
</svg>
