<svg width="414" height="896" viewBox="0 0 414 896" fill="none" xmlns="http://www.w3.org/2000/svg">
<g clip-path="url(#clip0_1167_421)">
<rect width="414" height="896" fill="#880707"/>
<rect x="317" y="859.205" width="288.688" height="99" transform="rotate(-90 317 859.205)" fill="#35AD7F"/>
<rect x="322.594" y="530.593" width="261.236" height="89.0218" transform="rotate(-90 322.594 530.593)" fill="#E4D82F"/>
<rect x="365.975" y="569.854" width="158.213" height="207.464" transform="rotate(180 365.975 569.854)" fill="#E4D82F"/>
<rect x="247.723" y="736.88" width="109.603" height="69.569" transform="rotate(-90 247.723 736.88)" fill="#99A82F"/>
<rect x="365" y="569.539" width="227.036" height="51" transform="rotate(-90 365 569.539)" fill="#99A82F"/>
<rect x="414" y="363.053" width="106" height="325.875" transform="rotate(180 414 363.053)" fill="#E4D82F"/>
<rect x="416" y="727.094" width="50" height="157.555" transform="rotate(180 416 727.094)" fill="#E4D82F"/>
<rect x="378" y="498.101" width="245.629" height="38" transform="rotate(-90 378 498.101)" fill="#B47208"/>
<rect x="213" y="364.032" width="197.678" height="152" transform="rotate(-90 213 364.032)" fill="#35AD7F"/>
<rect x="229" y="270.086" width="232.907" height="79" transform="rotate(-90 229 270.086)" fill="#B47208"/>
<rect x="0.248047" y="270.017" width="232.907" height="99.8651" transform="rotate(-90 0.248047 270.017)" fill="#99A82F"/>
<rect x="66.582" y="622.676" width="248.52" height="72.0733" transform="rotate(-90 66.582 622.676)" fill="#E4D82F"/>
<rect x="-2" y="529.416" width="189.849" height="52" transform="rotate(-90 -2 529.416)" fill="#99A82F"/>
<rect x="110" y="859.205" width="112" height="330.768" transform="rotate(180 110 859.205)" fill="#E4D82F"/>
<rect x="45" y="339.567" width="47" height="178.106" transform="rotate(180 45 339.567)" fill="#E4D82F"/>
<rect x="-2" y="639.019" width="245.629" height="37" transform="rotate(-90 -2 639.019)" fill="#B47208"/>
<rect x="45" y="727.094" width="185.934" height="163" transform="rotate(-90 45 727.094)" fill="#35AD7F"/>
<rect x="177.354" y="270.017" width="109.603" height="70.691" transform="rotate(-90 177.354 270.017)" fill="#E4D82F"/>
<rect x="98.1621" y="270.017" width="109.603" height="79.6677" transform="rotate(-90 98.1621 270.017)" fill="#35AD7F"/>
<rect width="124.282" height="149.237" transform="matrix(-4.07226e-08 -1 -1 4.69195e-08 247.906 160.282)" fill="#951919"/>
<rect x="185.992" y="736.774" width="109.603" height="62.8365" transform="rotate(-90 185.992 736.774)" fill="#E4D82F"/>
<rect x="213.348" y="542.034" width="168.312" height="215.292" transform="rotate(180 213.348 542.034)" fill="#B47208"/>
<rect x="51.9512" y="363.167" width="308.572" height="179.084" fill="#950E0E"/>
<rect x="186.008" y="627.276" width="231.929" height="79.6677" transform="rotate(90 186.008 627.276)" fill="#99A82F"/>
<rect width="122.325" height="131.283" transform="matrix(4.07226e-08 1 1 -4.69195e-08 186.008 736.88)" fill="#951919"/>
<rect x="308.316" y="328.088" width="263.52" height="58.7161" transform="rotate(-180 308.316 328.088)" fill="#951919"/>
<rect x="366" y="627.276" width="260" height="58.7161" transform="rotate(-180 366 627.276)" fill="#951919"/>
</g>
<defs>
<clipPath id="clip0_1167_421">
<rect width="414" height="896" fill="white"/>
</clipPath>
</defs>
</svg>
