<svg width="768" height="1024" viewBox="0 0 768 1024" fill="none" xmlns="http://www.w3.org/2000/svg">
<g clip-path="url(#clip0_681_7)">
<rect width="768" height="1024" fill="#880707"/>
<rect x="525.186" y="982.969" width="279.953" height="242.815" transform="rotate(-90 525.186 982.969)" fill="#35AD7F"/>
<rect x="515.994" y="606.669" width="299.451" height="142.443" transform="rotate(-90 515.994 606.669)" fill="#E4D82F"/>
<rect x="428.688" y="846.052" width="127.698" height="125.863" transform="rotate(-90 428.688 846.052)" fill="#99A82F"/>
<rect x="656.137" y="650.835" width="259.325" height="111.383" transform="rotate(-90 656.137 650.835)" fill="#99A82F"/>
<rect x="767.756" y="391.943" width="213.856" height="351.66" transform="rotate(180 767.756 391.943)" fill="#E4D82F"/>
<rect x="767.564" y="846.052" width="111.383" height="195.476" transform="rotate(180 767.564 846.052)" fill="#E4D82F"/>
<rect x="705.469" y="583.596" width="298.617" height="62.3746" transform="rotate(-90 705.469 583.596)" fill="#B47208"/>
<rect x="383.158" y="415.235" width="227.892" height="272.889" transform="rotate(-90 383.158 415.235)" fill="#35AD7F"/>
<rect x="427.541" y="307.218" width="267.183" height="125.863" transform="rotate(-90 427.541 307.218)" fill="#B47208"/>
<rect x="0.210938" y="329.302" width="288.794" height="242.815" transform="rotate(-90 0.210938 329.302)" fill="#99A82F"/>
<rect x="106.35" y="712.221" width="284.874" height="115.324" transform="rotate(-90 106.35 712.221)" fill="#E4D82F"/>
<rect x="0.210938" y="604.902" width="216.104" height="113.611" transform="rotate(-90 0.210938 604.902)" fill="#99A82F"/>
<rect x="205.156" y="982.969" width="204.945" height="378.182" transform="rotate(180 205.156 982.969)" fill="#E4D82F"/>
<rect x="112.496" y="391.66" width="112.497" height="208.246" transform="rotate(180 112.496 391.66)" fill="#E4D82F"/>
<rect x="0.0722656" y="731.056" width="280.935" height="65.7161" transform="rotate(-90 0.0722656 731.056)" fill="#B47208"/>
<rect x="113.611" y="831.727" width="212.175" height="274.003" transform="rotate(-90 113.611 831.727)" fill="#35AD7F"/>
<rect x="204.686" y="982.97" width="265.219" height="114.725" transform="rotate(-90 204.686 982.97)" fill="#99A82F"/>
<rect x="316.328" y="307.183" width="125.733" height="112.497" transform="rotate(-90 316.328 307.183)" fill="#E4D82F"/>
<rect x="191.578" y="307.183" width="125.733" height="126.977" transform="rotate(-90 191.578 307.183)" fill="#35AD7F"/>
<rect width="141.45" height="265.092" transform="matrix(-5.68444e-08 -1 -1 3.36126e-08 456.672 181.45)" fill="#951919"/>
<rect x="319.67" y="846.461" width="128.68" height="110.269" transform="rotate(-90 319.67 846.461)" fill="#E4D82F"/>
<rect x="554.688" y="846.461" width="136.539" height="263.978" transform="rotate(90 554.688 846.461)" fill="#951919"/>
<rect x="553.9" y="374.352" width="441.077" height="66.7958" transform="rotate(-180 553.9 374.352)" fill="#951919"/>
<rect x="656.139" y="717.969" width="451.102" height="66.7958" transform="rotate(-180 656.139 717.969)" fill="#951919"/>
<rect x="386.5" y="619.552" width="274.003" height="245.573" transform="rotate(180 386.5 619.552)" fill="#B47208"/>
<rect x="656.047" y="650.985" width="268.433" height="235.75" transform="rotate(180 656.047 650.985)" fill="#E4D82F"/>
<rect x="138.836" y="414.751" width="490.086" height="205.299" fill="#950E0E"/>
</g>
<defs>
<clipPath id="clip0_681_7">
<rect width="768" height="1024" fill="white"/>
</clipPath>
</defs>
</svg>
