<svg width="1334" height="737" viewBox="0 0 1334 737" fill="none" xmlns="http://www.w3.org/2000/svg">
<g clip-path="url(#clip0_1622_337)">
<rect width="1334" height="737" fill="#880707"/>
<rect x="-0.9375" y="515.208" width="286.652" height="181.446" fill="#35AD7F"/>
<rect x="1023.43" y="39.955" width="309.573" height="167.121" fill="#99A82F"/>
<rect x="382.303" y="135.083" width="402.974" height="93.5877" fill="#E4D82F"/>
<rect x="531.863" y="484.604" width="424.784" height="104.092" fill="#E4D82F"/>
<rect x="193.279" y="312.708" width="190.062" height="94.5427" fill="#E4D82F"/>
<rect x="953.527" y="312.708" width="176.561" height="93.5877" fill="#E4D82F"/>
<rect x="31.2344" y="488.79" width="32.1739" height="175.662" transform="rotate(180 31.2344 488.79)" fill="#99A82F"/>
<rect x="781.221" y="168.054" width="368.7" height="146.111" fill="#35AD7F"/>
<rect x="193.217" y="406.639" width="338.581" height="147.066" fill="#99A82F"/>
<rect x="671.385" y="487.041" width="288.729" height="258.799" transform="rotate(180 671.385 487.041)" fill="#B47208"/>
<rect x="954.566" y="487.469" width="283.536" height="259.754" transform="rotate(180 954.566 487.469)" fill="#99A82F"/>
<rect x="409.684" y="248.176" width="516.181" height="221.555" fill="#950E0E"/>
<rect x="533.816" y="39.5847" width="306.385" height="96.4527" fill="#99A82F"/>
<rect x="468.359" y="588.418" width="301.192" height="107.912" fill="#99A82F"/>
<rect x="955.062" y="406.666" width="377.934" height="107.912" fill="#B47208"/>
<rect x="-0.9375" y="213.499" width="384.279" height="99.3176" fill="#99A82F"/>
<rect x="193.217" y="514.134" width="194.217" height="226.33" transform="rotate(180 193.217 514.134)" fill="#951919"/>
<rect x="840.025" y="135.718" width="96.4527" height="289.767" transform="rotate(-90 840.025 135.718)" fill="#E4D82F"/>
<rect x="285.297" y="514.321" width="396.742" height="74.4882" fill="#951919"/>
<rect width="203.127" height="226.33" transform="matrix(1 0 0 -1 1129.87 432.45)" fill="#951919"/>
<rect x="1023.08" y="209.506" width="396.742" height="74.4882" transform="rotate(180 1023.08 209.506)" fill="#951919"/>
<rect x="-0.9375" y="213.391" width="173.806" height="534.875" transform="rotate(-90 -0.9375 213.391)" fill="#E4D82F"/>
<rect x="770" y="697.401" width="182.401" height="564.459" transform="rotate(-90 770 697.401)" fill="#E4D82F"/>
<rect x="193.217" y="696.787" width="107.912" height="275.227" transform="rotate(-90 193.217 696.787)" fill="#E4D82F"/>
<rect x="355.197" y="39" width="396.742" height="56.3436" fill="#B47208"/>
<rect x="563.771" y="643.135" width="421.669" height="53.4787" fill="#B47208"/>
<rect x="769.02" y="514.134" width="355.199" height="88.8129" fill="#35AD7F"/>
<rect x="212.076" y="126.105" width="324.041" height="87.8579" fill="#35AD7F"/>
</g>
<defs>
<clipPath id="clip0_1622_337">
<rect width="1334" height="737" fill="white"/>
</clipPath>
</defs>
</svg>
