<svg width="1674" height="775" viewBox="0 0 1674 775" fill="none" xmlns="http://www.w3.org/2000/svg">
<rect x="14.5723" y="14.5" width="1646.92" height="745.71" fill="#921313" stroke="#921313" stroke-width="29"/>
<rect x="35" y="516" width="358" height="221" fill="#35AD7F"/>
<rect x="1238" y="37" width="399" height="220" fill="#99A82F"/>
<rect x="474" y="134" width="469" height="105" fill="#E4D82F"/>
<rect x="657" y="508" width="502" height="114" fill="#E4D82F"/>
<rect x="268" y="328" width="236" height="99" fill="#E4D82F"/>
<rect x="1158" y="328" width="238" height="99" fill="#E4D82F"/>
<rect x="935" y="174" width="461" height="156" fill="#35AD7F"/>
<rect x="258" y="427" width="399" height="156" fill="#99A82F"/>
<rect x="839" y="513" width="335" height="276" transform="rotate(180 839 513)" fill="#B47208"/>
<rect x="1159" y="513" width="324" height="276" transform="rotate(180 1159 513)" fill="#99A82F"/>
<rect x="534" y="259" width="592" height="236" fill="#950E0E"/>
<rect x="665" y="37" width="364" height="102" fill="#99A82F"/>
<rect x="592" y="621" width="355" height="116" fill="#99A82F"/>
<rect x="1159" y="427" width="478" height="116" fill="#B47208"/>
<rect x="35" y="218" width="469" height="110" fill="#99A82F"/>
<rect x="273" y="542" width="238" height="240" transform="rotate(180 273 542)" fill="#951919"/>
<rect x="392" y="542" width="456" height="80" fill="#951919"/>
<rect width="242" height="240" transform="matrix(1 0 0 -1 1396 455)" fill="#951919"/>
<rect x="1238" y="218" width="455" height="79" transform="rotate(180 1238 218)" fill="#951919"/>
<rect x="35" y="222" width="185" height="641" transform="rotate(-90 35 222)" fill="#E4D82F"/>
<rect x="947" y="737" width="195" height="690" transform="rotate(-90 947 737)" fill="#E4D82F"/>
<rect x="258" y="737" width="115" height="334" transform="rotate(-90 258 737)" fill="#E4D82F"/>
<rect x="1028" y="139" width="102" height="332" transform="rotate(-90 1028 139)" fill="#E4D82F"/>
<rect x="443" y="37" width="455" height="60" fill="#B47208"/>
<rect x="683" y="680" width="512" height="57" fill="#B47208"/>
<rect x="947" y="542" width="407" height="95" fill="#35AD7F"/>
<rect x="279" y="129" width="397" height="94" fill="#35AD7F"/>
<path d="M658.431 306.733C657.605 315 656.933 323.421 656.416 331.998C655.9 340.575 655.641 348.945 655.641 357.108C655.641 360.311 655.693 363.463 655.796 366.563C655.9 369.56 656.055 372.556 656.261 375.553C655.951 376.483 655.383 376.948 654.556 376.948C652.903 376.431 651.766 374.675 651.146 371.678C650.63 368.578 650.371 364.755 650.371 360.208C650.371 356.798 650.475 353.13 650.681 349.203C650.888 345.173 651.146 341.195 651.456 337.268C651.766 333.238 652.025 329.363 652.231 325.643C652.438 321.82 652.541 318.41 652.541 315.413C652.541 313.036 652.438 310.97 652.231 309.213C652.128 307.456 651.818 306.113 651.301 305.183C650.165 304.46 649.131 303.271 648.201 301.618C647.271 299.861 646.341 298.156 645.411 296.503C644.585 294.746 643.706 293.196 642.776 291.853C641.846 290.51 640.813 289.838 639.676 289.838C639.366 289.838 639.005 290.045 638.591 290.458C638.281 290.768 638.023 291.078 637.816 291.388V315.723C636.99 318.616 636.421 321.561 636.111 324.558C635.905 327.555 635.801 330.655 635.801 333.858C635.801 335.615 635.801 337.578 635.801 339.748C635.905 341.918 635.956 344.036 635.956 346.103C636.06 348.066 636.111 349.926 636.111 351.683C636.215 353.336 636.266 354.628 636.266 355.558C636.266 359.898 636.008 364.135 635.491 368.268C634.975 372.401 633.838 376.328 632.081 380.048C631.048 379.738 630.17 379.325 629.446 378.808C628.723 378.188 628.361 377.31 628.361 376.173C629.085 374.623 629.705 372.505 630.221 369.818C630.738 367.028 630.996 363.876 630.996 360.363C630.996 356.023 630.841 351.218 630.531 345.948C630.325 340.678 630.221 335.356 630.221 329.983C630.221 326.056 630.325 322.233 630.531 318.513C630.738 314.793 631.255 311.28 632.081 307.973V273.098C632.805 272.375 633.735 272.013 634.871 272.013C636.008 272.013 636.99 272.375 637.816 273.098L658.431 306.733Z" fill="#D6D6D6"/>
<path d="M930.158 377.285C929.642 377.285 929.022 377.078 928.298 376.665C927.678 376.252 926.645 375.167 925.198 373.41C924.578 371.447 924.113 369.328 923.803 367.055C923.597 364.782 923.493 362.457 923.493 360.08C923.493 358.117 923.545 355.947 923.648 353.57C923.752 351.09 923.855 348.713 923.958 346.44C924.165 344.063 924.32 341.893 924.423 339.93C924.527 337.967 924.578 336.468 924.578 335.435C924.578 334.298 924.527 333.213 924.423 332.18C924.423 331.147 924.372 330.113 924.268 329.08C921.582 324.637 918.327 320.813 914.503 317.61C910.783 314.407 906.857 311.668 902.723 309.395C902.31 310.118 902 311.048 901.793 312.185C901.69 313.322 901.638 314.562 901.638 315.905C901.638 317.972 901.742 320.038 901.948 322.105C902.155 324.068 902.258 325.463 902.258 326.29V352.02C902.258 352.95 902.31 354.5 902.413 356.67C902.62 358.737 902.723 361.01 902.723 363.49C902.723 366.28 902.517 369.07 902.103 371.86C901.793 374.547 901.07 376.613 899.933 378.06C898.073 376.923 896.833 375.632 896.213 374.185C895.593 372.635 895.283 370.982 895.283 369.225C895.283 367.572 895.49 366.073 895.903 364.73C896.42 363.283 896.678 361.682 896.678 359.925C896.678 359.098 896.472 358.065 896.058 356.825C895.748 355.585 895.49 354.552 895.283 353.725C895.283 350.212 895.387 346.543 895.593 342.72C895.8 338.897 896.007 335.332 896.213 332.025C896.213 330.372 896.058 328.098 895.748 325.205C895.542 322.312 895.335 319.16 895.128 315.75C894.922 312.34 894.715 308.93 894.508 305.52C894.302 302.007 894.198 298.855 894.198 296.065C894.198 294.928 894.25 293.792 894.353 292.655C894.457 291.518 894.508 290.537 894.508 289.71C894.508 288.263 894.25 286.61 893.733 284.75C893.32 282.89 893.113 280.978 893.113 279.015C893.113 277.258 893.423 275.605 894.043 274.055C894.767 272.505 896.058 271.265 897.918 270.335C900.192 271.678 902.258 273.28 904.118 275.14C905.978 276.897 907.89 278.912 909.853 281.185C911.817 283.458 913.935 285.99 916.208 288.78C918.482 291.57 921.168 294.567 924.268 297.77C924.268 297.15 924.217 295.962 924.113 294.205C924.01 292.448 923.958 290.382 923.958 288.005C923.958 285.008 924.165 281.857 924.578 278.55C925.095 275.14 926.077 272.402 927.523 270.335C927.73 270.232 928.092 270.18 928.608 270.18C929.952 270.18 930.83 270.748 931.243 271.885C931.76 273.022 932.07 274.21 932.173 275.45C932.173 278.757 932.018 282.373 931.708 286.3C931.502 290.227 931.295 294.05 931.088 297.77C930.882 301.49 930.675 304.952 930.468 308.155C930.262 311.358 930.158 313.942 930.158 315.905C930.158 318.385 930.262 321.95 930.468 326.6C930.675 331.147 930.882 336.262 931.088 341.945C931.398 347.628 931.657 353.467 931.863 359.46C932.07 365.453 932.225 371.085 932.328 376.355C931.812 376.975 931.088 377.285 930.158 377.285ZM916.208 308C917.758 309.343 919.153 310.893 920.393 312.65C921.737 314.407 923.132 315.853 924.578 316.99L923.648 305.675C922.925 304.642 921.892 303.763 920.548 303.04C919.308 302.213 918.533 301.232 918.223 300.095C916.363 299.475 914.813 298.545 913.573 297.305C912.437 295.962 911.352 294.567 910.318 293.12C909.285 291.673 908.148 290.382 906.908 289.245C905.772 288.108 904.222 287.385 902.258 287.075C901.742 289.245 901.535 291.467 901.638 293.74C901.742 295.91 901.638 297.873 901.328 299.63C902.362 299.63 903.498 299.992 904.738 300.715C906.082 301.335 907.373 302.11 908.613 303.04C909.957 303.97 911.248 304.9 912.488 305.83C913.832 306.76 915.072 307.483 916.208 308Z" fill="#D6D6D6"/>
<path d="M752.194 347.835C752.4 347.318 753.175 347.06 754.519 347.06C755.862 347.06 756.585 347.732 756.689 349.075C756.172 351.245 755.242 353.105 753.899 354.655C752.555 356.102 751.057 357.445 749.404 358.685C747.75 359.925 746.097 361.165 744.444 362.405C742.79 363.645 741.395 365.195 740.259 367.055C738.812 367.882 737.469 368.915 736.229 370.155C735.092 371.395 733.955 372.583 732.819 373.72C731.682 374.753 730.494 375.683 729.254 376.51C728.014 377.233 726.67 377.595 725.224 377.595C724.294 377.595 723.674 377.027 723.364 375.89C723.054 374.65 722.899 373.255 722.899 371.705C722.899 370.878 722.95 369.897 723.054 368.76C723.26 367.623 723.467 366.538 723.674 365.505C723.88 364.368 724.035 363.387 724.139 362.56C724.345 361.63 724.449 361.062 724.449 360.855C724.449 360.338 724.449 359.15 724.449 357.29C724.552 355.327 724.655 352.898 724.759 350.005C724.862 347.112 724.914 343.805 724.914 340.085C725.017 336.365 725.069 332.438 725.069 328.305C725.069 324.482 725.017 320.503 724.914 316.37C724.914 312.237 724.81 308.155 724.604 304.125C724.397 300.095 724.087 296.22 723.674 292.5C723.364 288.78 722.95 285.318 722.434 282.115C722.537 281.288 722.589 280.307 722.589 279.17C722.692 278.033 722.795 276.948 722.899 275.915C723.105 274.778 723.415 273.848 723.829 273.125C724.345 272.298 725.12 271.885 726.154 271.885C726.98 271.885 727.807 272.092 728.634 272.505C729.564 277.775 730.235 283.148 730.649 288.625C731.165 293.998 731.424 299.32 731.424 304.59C731.424 307.277 731.32 309.963 731.114 312.65C731.01 315.233 730.855 317.765 730.649 320.245C730.649 321.692 730.545 323.242 730.339 324.895C730.132 326.445 730.029 328.047 730.029 329.7C730.029 330.837 730.132 332.025 730.339 333.265C730.545 334.402 730.907 335.538 731.424 336.675C734.11 335.745 736.28 334.247 737.934 332.18C739.69 330.113 741.809 328.202 744.289 326.445C744.909 326.238 745.529 325.877 746.149 325.36C746.872 324.843 747.595 324.327 748.319 323.81C749.042 323.293 749.714 322.828 750.334 322.415C751.057 322.002 751.78 321.795 752.504 321.795C754.054 321.795 754.829 322.415 754.829 323.655C754.829 324.688 754.364 325.877 753.434 327.22C752.504 328.46 751.47 329.183 750.334 329.39C749.197 329.597 748.215 330.062 747.389 330.785C746.562 331.405 745.735 332.128 744.909 332.955C744.082 333.678 743.204 334.402 742.274 335.125C741.447 335.848 740.465 336.365 739.329 336.675C738.399 338.432 737.055 339.62 735.299 340.24C733.645 340.86 732.25 341.79 731.114 343.03C729.977 347.267 729.409 351.193 729.409 354.81C729.409 358.427 729.977 362.663 731.114 367.52C732.87 365.867 734.679 364.317 736.539 362.87C738.502 361.32 740.414 359.77 742.274 358.22C744.237 356.67 746.045 355.068 747.699 353.415C749.455 351.762 750.954 349.902 752.194 347.835ZM743.514 305.52C742.894 305.107 742.17 304.797 741.344 304.59C740.62 304.28 739.949 303.97 739.329 303.66C738.709 303.35 738.14 302.937 737.624 302.42C737.107 301.8 736.745 300.973 736.539 299.94C737.262 299.113 738.037 298.287 738.864 297.46C739.794 296.53 740.93 296.065 742.274 296.065L745.994 303.04C745.89 303.867 745.58 304.435 745.064 304.745C744.65 304.952 744.134 305.21 743.514 305.52Z" fill="#D6D6D6"/>
<path d="M985.839 324.12C988.526 325.67 990.903 327.53 992.969 329.7C995.036 331.87 996.948 334.143 998.704 336.52C1000.56 338.897 1002.32 341.377 1003.97 343.96C1005.73 346.543 1007.59 349.075 1009.55 351.555C1009.35 353.002 1008.83 354.19 1008 355.12C1007.18 355.947 1006.25 356.773 1005.21 357.6C1004.18 358.323 1003.1 359.047 1001.96 359.77C1000.82 360.493 999.841 361.372 999.014 362.405C997.154 363.128 995.501 364.265 994.054 365.815C992.711 367.365 991.368 368.967 990.024 370.62C988.784 372.17 987.441 373.668 985.994 375.115C984.548 376.562 982.894 377.543 981.034 378.06C980.104 378.06 979.381 377.647 978.864 376.82C978.348 375.89 977.986 375.063 977.779 374.34C977.779 373.307 977.883 371.24 978.089 368.14C978.296 364.937 978.503 361.113 978.709 356.67C979.019 352.123 979.329 347.112 979.639 341.635C979.949 336.055 980.208 330.423 980.414 324.74C980.724 318.953 980.983 313.27 981.189 307.69C981.396 302.007 981.499 296.737 981.499 291.88C981.499 287.23 981.396 283.2 981.189 279.79C980.983 276.277 980.621 273.642 980.104 271.885C980.311 270.955 980.828 270.438 981.654 270.335C982.584 270.128 983.359 269.87 983.979 269.56C984.909 270.697 985.633 272.143 986.149 273.9C986.769 275.657 987.234 277.517 987.544 279.48C987.854 281.443 988.009 283.458 988.009 285.525C988.113 287.488 988.164 289.297 988.164 290.95C987.648 295.083 987.389 299.837 987.389 305.21C987.389 310.48 987.183 315.543 986.769 320.4C985.943 320.503 985.529 321.123 985.529 322.26C985.529 322.88 985.633 323.5 985.839 324.12ZM984.909 367.83C988.009 365.763 991.006 363.49 993.899 361.01C996.896 358.427 999.583 355.637 1001.96 352.64C1000.51 350.78 999.169 349.023 997.929 347.37C996.793 345.613 995.604 344.012 994.364 342.565C993.228 341.118 991.988 339.827 990.644 338.69C989.301 337.45 987.699 336.365 985.839 335.435C985.116 337.605 984.599 339.775 984.289 341.945C984.083 344.115 983.979 346.285 983.979 348.455C983.979 349.385 984.031 350.625 984.134 352.175C984.238 353.622 984.341 355.223 984.444 356.98C984.548 358.737 984.651 360.597 984.754 362.56C984.858 364.42 984.909 366.177 984.909 367.83ZM1000.72 302.73C1000.2 302.317 999.583 301.903 998.859 301.49C998.239 300.973 997.568 300.457 996.844 299.94C996.121 299.32 995.501 298.7 994.984 298.08C994.571 297.357 994.364 296.53 994.364 295.6C995.501 295.083 996.534 294.463 997.464 293.74C998.394 293.017 999.479 292.655 1000.72 292.655C1001.65 294.412 1002.11 296.168 1002.11 297.925C1002.11 298.648 1002.01 299.372 1001.8 300.095C1001.7 300.715 1001.34 301.593 1000.72 302.73Z" fill="#D6D6D6"/>
<path d="M800.794 321.02C801.827 322.053 802.654 323.19 803.274 324.43C803.997 325.67 804.617 326.962 805.134 328.305C805.651 329.545 806.116 330.837 806.529 332.18C807.046 333.42 807.717 334.608 808.544 335.745C810.404 342.565 812.936 349.023 816.139 355.12C819.446 361.217 822.597 367.365 825.594 373.565C825.284 374.392 824.819 375.167 824.199 375.89C823.579 376.613 822.856 376.975 822.029 376.975C821.512 376.975 820.944 376.82 820.324 376.51C817.327 373.1 814.744 369.432 812.574 365.505C810.404 361.475 808.389 357.393 806.529 353.26C804.772 349.023 803.067 344.735 801.414 340.395C799.864 336.055 798.211 331.818 796.454 327.685C795.317 327.168 794.542 326.6 794.129 325.98C793.819 325.36 793.664 324.688 793.664 323.965C793.664 322.725 794.077 321.382 794.904 319.935C795.731 318.488 796.247 317.197 796.454 316.06C798.624 312.753 800.329 309.292 801.569 305.675C802.809 302.058 803.946 298.442 804.979 294.825C806.116 291.105 807.252 287.437 808.389 283.82C809.629 280.203 811.231 276.742 813.194 273.435C813.711 273.332 814.279 272.97 814.899 272.35C815.622 271.73 816.242 271.42 816.759 271.42C817.276 271.42 817.689 271.885 817.999 272.815C816.552 279.015 814.641 285.008 812.264 290.795C809.991 296.582 807.821 302.523 805.754 308.62C804.824 310.687 803.842 312.753 802.809 314.82C801.776 316.783 801.104 318.85 800.794 321.02ZM824.974 327.375C823.631 326.858 822.339 326.187 821.099 325.36C819.962 324.533 818.774 323.758 817.534 323.035C817.844 321.692 818.361 320.762 819.084 320.245C819.807 319.625 820.582 319.315 821.409 319.315C822.649 319.315 823.682 319.883 824.509 321.02C825.439 322.157 825.904 323.603 825.904 325.36C825.904 325.877 825.801 326.29 825.594 326.6C825.387 326.807 825.181 327.065 824.974 327.375Z" fill="#D6D6D6"/>
<path d="M603.712 400.539C603.712 402.606 603.351 404.311 602.627 405.654C602.007 406.894 601.181 408.031 600.147 409.064C599.114 410.098 598.029 411.131 596.892 412.164C595.859 413.094 594.929 414.231 594.102 415.574C592.552 416.608 591.261 417.796 590.227 419.139C589.194 420.483 588.212 421.878 587.282 423.324C586.456 424.771 585.526 426.218 584.492 427.664C583.562 429.008 582.426 430.248 581.082 431.384C580.979 432.831 580.876 434.949 580.772 437.739C580.772 440.529 580.772 443.629 580.772 447.039C580.772 451.896 580.824 457.063 580.927 462.539C581.134 468.016 581.444 472.769 581.857 476.799C581.341 477.419 580.824 477.729 580.307 477.729C579.791 477.729 579.274 477.574 578.757 477.264C578.241 476.851 577.724 476.541 577.207 476.334C576.484 474.888 576.122 473.079 576.122 470.909C576.122 470.599 576.071 469.928 575.967 468.894C575.967 467.861 575.916 466.724 575.812 465.484C575.709 464.244 575.606 463.108 575.502 462.074C575.502 460.938 575.502 460.111 575.502 459.594C575.502 458.664 575.451 457.269 575.347 455.409C575.244 453.446 575.141 451.328 575.037 449.054C574.934 446.678 574.831 444.249 574.727 441.769C574.624 439.289 574.572 437.016 574.572 434.949C574.572 432.469 574.676 430.041 574.882 427.664C575.192 425.184 575.709 422.653 576.432 420.069C576.432 418.829 576.329 417.073 576.122 414.799C576.019 412.423 575.864 409.839 575.657 407.049C575.554 404.156 575.399 401.211 575.192 398.214C575.089 395.114 575.037 392.324 575.037 389.844C575.037 389.121 575.037 387.829 575.037 385.969C575.141 384.109 575.347 382.249 575.657 380.389C575.967 378.426 576.381 376.721 576.897 375.274C577.517 373.828 578.292 373.104 579.222 373.104C579.636 373.104 580.049 373.363 580.462 373.879C580.876 374.293 581.237 374.758 581.547 375.274C581.961 375.791 582.426 376.308 582.942 376.824C583.459 377.238 584.027 377.496 584.647 377.599C588.161 380.699 591.467 384.316 594.567 388.449C597.771 392.583 600.819 396.613 603.712 400.539ZM583.252 416.814C588.006 412.991 592.242 408.341 595.962 402.864C594.929 401.624 593.947 400.281 593.017 398.834C592.087 397.388 591.054 395.993 589.917 394.649C588.884 393.306 587.747 392.118 586.507 391.084C585.267 390.051 583.872 389.328 582.322 388.914C582.426 392.531 582.529 396.096 582.632 399.609C582.839 403.019 582.942 406.688 582.942 410.614C582.942 411.234 582.839 411.906 582.632 412.629C582.426 413.249 582.322 413.921 582.322 414.644C582.322 415.471 582.632 416.194 583.252 416.814ZM590.537 449.209C591.467 448.796 592.346 448.331 593.172 447.814C593.999 447.194 594.929 446.884 595.962 446.884C596.479 447.711 596.841 448.538 597.047 449.364C597.254 450.088 597.771 450.759 598.597 451.379C598.597 451.896 598.391 452.309 597.977 452.619C597.564 452.929 597.202 453.291 596.892 453.704C596.272 453.291 595.601 453.033 594.877 452.929C594.154 452.723 593.482 452.516 592.862 452.309C592.242 452.103 591.674 451.793 591.157 451.379C590.744 450.863 590.537 450.139 590.537 449.209Z" fill="#D6D6D6"/>
<path d="M661.033 380.389C661.55 390.516 661.808 400.229 661.808 409.529C661.911 418.726 661.963 428.078 661.963 437.584C661.653 441.304 661.446 445.076 661.343 448.899C661.24 452.723 661.085 456.391 660.878 459.904C660.671 463.418 660.31 466.724 659.793 469.824C659.38 472.924 658.708 475.611 657.778 477.884C657.571 477.988 657.313 478.039 657.003 478.039C656.176 478.039 655.763 477.626 655.763 476.799C655.763 475.869 655.401 475.146 654.678 474.629C655.401 471.013 655.866 467.241 656.073 463.314C656.383 459.284 656.538 455.099 656.538 450.759C656.538 444.249 656.435 437.688 656.228 431.074C656.021 424.461 655.815 417.899 655.608 411.389C655.401 409.736 654.523 408.083 652.973 406.429C651.526 404.776 649.77 403.123 647.703 401.469C645.74 399.816 643.621 398.214 641.348 396.664C639.075 395.011 636.956 393.358 634.993 391.704C633.133 390.051 631.531 388.398 630.188 386.744C628.948 385.091 628.328 383.386 628.328 381.629C628.328 380.803 628.638 380.131 629.258 379.614C629.878 378.994 630.55 378.581 631.273 378.374C636.026 381.681 640.211 385.298 643.828 389.224C647.445 393.048 651.371 397.129 655.608 401.469C656.435 400.643 656.848 399.713 656.848 398.679C656.848 398.163 656.796 397.698 656.693 397.284C656.59 396.871 656.538 396.509 656.538 396.199C656.538 392.893 656.125 389.534 655.298 386.124C654.471 382.714 654.006 379.408 653.903 376.204C654.73 374.654 655.608 373.879 656.538 373.879C657.055 373.879 657.52 374.138 657.933 374.654C658.45 375.068 658.915 375.636 659.328 376.359C659.741 376.979 660.051 377.703 660.258 378.529C660.568 379.253 660.826 379.873 661.033 380.389ZM645.533 439.909C645.223 440.426 645.068 440.839 645.068 441.149C645.068 441.873 645.223 442.493 645.533 443.009C645.946 443.526 646.153 444.094 646.153 444.714C646.153 445.024 645.998 445.438 645.688 445.954C645.481 446.368 645.12 446.574 644.603 446.574C643.776 446.574 643.001 446.161 642.278 445.334C641.658 444.508 640.986 443.939 640.263 443.629C639.953 443.009 639.798 442.441 639.798 441.924C639.798 441.201 640.108 440.478 640.728 439.754C641.451 438.928 642.278 438.514 643.208 438.514C643.725 438.514 644.241 438.618 644.758 438.824C645.275 438.928 645.533 439.289 645.533 439.909Z" fill="#D6D6D6"/>
<path d="M709.376 421.619C710.409 422.653 711.236 423.789 711.856 425.029C712.579 426.269 713.199 427.561 713.716 428.904C714.233 430.144 714.698 431.436 715.111 432.779C715.628 434.019 716.299 435.208 717.126 436.344C718.986 443.164 721.518 449.623 724.721 455.719C728.028 461.816 731.179 467.964 734.176 474.164C733.866 474.991 733.401 475.766 732.781 476.489C732.161 477.213 731.438 477.574 730.611 477.574C730.094 477.574 729.526 477.419 728.906 477.109C725.909 473.699 723.326 470.031 721.156 466.104C718.986 462.074 716.971 457.993 715.111 453.859C713.354 449.623 711.649 445.334 709.996 440.994C708.446 436.654 706.793 432.418 705.036 428.284C703.899 427.768 703.124 427.199 702.711 426.579C702.401 425.959 702.246 425.288 702.246 424.564C702.246 423.324 702.659 421.981 703.486 420.534C704.313 419.088 704.829 417.796 705.036 416.659C707.206 413.353 708.911 409.891 710.151 406.274C711.391 402.658 712.528 399.041 713.561 395.424C714.698 391.704 715.834 388.036 716.971 384.419C718.211 380.803 719.813 377.341 721.776 374.034C722.293 373.931 722.861 373.569 723.481 372.949C724.204 372.329 724.824 372.019 725.341 372.019C725.858 372.019 726.271 372.484 726.581 373.414C725.134 379.614 723.223 385.608 720.846 391.394C718.573 397.181 716.403 403.123 714.336 409.219C713.406 411.286 712.424 413.353 711.391 415.419C710.358 417.383 709.686 419.449 709.376 421.619ZM733.556 427.974C732.213 427.458 730.921 426.786 729.681 425.959C728.544 425.133 727.356 424.358 726.116 423.634C726.426 422.291 726.943 421.361 727.666 420.844C728.389 420.224 729.164 419.914 729.991 419.914C731.231 419.914 732.264 420.483 733.091 421.619C734.021 422.756 734.486 424.203 734.486 425.959C734.486 426.476 734.383 426.889 734.176 427.199C733.969 427.406 733.763 427.664 733.556 427.974Z" fill="#D6D6D6"/>
<path d="M824.375 376.707C825.511 375.674 826.648 375.157 827.785 375.157C829.748 375.157 830.73 376.294 830.73 378.567L830.575 381.047V474.667C829.335 476.114 827.94 476.837 826.39 476.837C825.46 476.837 824.685 476.579 824.065 476.062C823.858 474.512 823.703 473.014 823.6 471.567C823.496 470.12 823.445 468.674 823.445 467.227C823.445 462.164 823.806 457.307 824.53 452.657C825.356 447.904 825.77 443.047 825.77 438.087C825.77 435.917 825.615 433.747 825.305 431.577C825.098 429.304 824.633 426.979 823.91 424.602C821.946 424.705 820.19 425.325 818.64 426.462C817.09 427.599 815.695 428.994 814.455 430.647C813.215 432.3 812.026 434.057 810.89 435.917C809.856 437.777 808.875 439.43 807.945 440.877C807.945 445.424 807.79 450.332 807.48 455.602C807.273 460.872 807.066 466.245 806.86 471.722C807.48 472.549 807.841 473.375 807.945 474.202C808.151 474.925 808.255 475.752 808.255 476.682C808.255 479.265 807.48 480.557 805.93 480.557C803.76 480.557 802.261 479.679 801.435 477.922C800.711 476.165 800.35 474.305 800.35 472.342C800.35 464.799 800.66 457.41 801.28 450.177C802.003 442.84 802.365 435.245 802.365 427.392C802.365 424.705 802.313 422.07 802.21 419.487C802.106 416.8 801.9 414.062 801.59 411.272C803.553 409.515 805.465 407.294 807.325 404.607C809.288 401.92 811.2 399.027 813.06 395.927C815.023 392.827 816.935 389.624 818.795 386.317C820.655 382.907 822.515 379.704 824.375 376.707ZM823.135 412.357C823.341 410.497 823.548 408.585 823.755 406.622C823.961 404.555 824.065 402.489 824.065 400.422C824.065 397.219 823.651 394.429 822.825 392.052L819.88 393.912C819.673 394.842 819.26 395.617 818.64 396.237C818.123 396.754 817.555 397.27 816.935 397.787C816.418 398.304 815.901 398.872 815.385 399.492C814.971 400.112 814.713 400.887 814.61 401.817C812.543 404.194 811.045 406.829 810.115 409.722C809.288 412.615 808.875 415.664 808.875 418.867C808.875 421.76 809.185 424.602 809.805 427.392L823.135 412.357Z" fill="#D6D6D6"/>
<path d="M896.065 377.444C896.272 394.081 896.375 410.253 896.375 425.959C896.375 441.666 896.633 457.579 897.15 473.699C897.15 474.423 896.685 474.784 895.755 474.784L892.035 472.924C891.208 469.928 890.64 466.621 890.33 463.004C890.02 459.284 889.865 455.358 889.865 451.224C889.865 447.091 889.968 442.441 890.175 437.274C890.382 432.004 890.64 426.838 890.95 421.774C891.26 416.711 891.518 412.113 891.725 407.979C891.932 403.846 892.035 400.798 892.035 398.834C892.035 394.701 891.88 390.826 891.57 387.209C890.64 386.589 889.762 386.279 888.935 386.279C886.972 386.279 885.577 387.313 884.75 389.379L875.295 402.244C874.985 414.748 874.675 426.838 874.365 438.514C874.055 450.191 873.797 462.126 873.59 474.319C874.21 474.939 874.52 475.611 874.52 476.334C874.52 477.264 873.952 477.988 872.815 478.504L869.25 478.659C868.63 475.869 868.165 472.924 867.855 469.824C867.648 466.724 867.545 463.521 867.545 460.214C867.545 453.188 867.855 446.058 868.475 438.824C869.198 431.488 869.56 424.564 869.56 418.054C869.56 415.678 869.457 413.404 869.25 411.234C869.147 408.961 868.888 406.843 868.475 404.879C872.402 398.679 876.638 392.686 881.185 386.899C885.732 381.009 890.433 375.429 895.29 370.159C896.633 370.676 897.305 371.399 897.305 372.329C897.305 373.156 897.098 373.983 896.685 374.809C896.272 375.636 896.065 376.514 896.065 377.444Z" fill="#D6D6D6"/>
<path d="M965.641 452.929C966.881 455.099 968.379 457.063 970.136 458.819C971.893 460.576 973.546 462.333 975.096 464.089C976.749 465.846 978.144 467.758 979.281 469.824C980.418 471.788 981.038 474.113 981.141 476.799C980.831 477.213 980.366 477.523 979.746 477.729C979.126 477.833 978.506 477.884 977.886 477.884C976.749 477.884 975.819 477.678 975.096 477.264C972.409 474.681 969.671 471.788 966.881 468.584C964.194 465.381 961.663 462.126 959.286 458.819C958.046 458.716 957.064 458.303 956.341 457.579C955.721 456.753 955.101 455.926 954.481 455.099C953.861 454.273 953.241 453.498 952.621 452.774C952.001 451.948 951.174 451.431 950.141 451.224C949.314 453.704 948.901 456.133 948.901 458.509C948.901 459.439 948.953 460.628 949.056 462.074C949.263 463.418 949.469 464.916 949.676 466.569C949.986 468.119 950.193 469.721 950.296 471.374C950.503 473.028 950.606 474.526 950.606 475.869C949.986 476.489 949.108 476.799 947.971 476.799C946.834 476.799 945.853 476.489 945.026 475.869C944.303 475.249 943.683 474.526 943.166 473.699C942.649 472.873 942.288 471.994 942.081 471.064C941.874 470.031 941.771 469.101 941.771 468.274C941.874 457.528 942.184 447.194 942.701 437.274C943.218 427.354 943.476 417.486 943.476 407.669C943.476 402.193 943.321 396.768 943.011 391.394C942.804 385.918 942.288 380.389 941.461 374.809C941.771 373.673 942.236 372.846 942.856 372.329C943.579 371.813 944.354 371.554 945.181 371.554C946.008 371.554 946.731 371.864 947.351 372.484C948.074 373.104 948.539 373.983 948.746 375.119V405.499C951.226 402.709 953.448 399.816 955.411 396.819C957.374 393.823 959.338 390.929 961.301 388.139C963.264 385.246 965.383 382.508 967.656 379.924C969.929 377.238 972.564 374.809 975.561 372.639C975.768 372.433 976.026 372.329 976.336 372.329C976.646 372.329 976.904 372.536 977.111 372.949C977.318 373.259 977.628 373.518 978.041 373.724C977.834 375.274 977.214 376.721 976.181 378.064C975.251 379.408 974.373 380.389 973.546 381.009C971.996 384.109 970.239 387.003 968.276 389.689C966.416 392.273 964.504 394.856 962.541 397.439C960.681 400.023 958.821 402.606 956.961 405.189C955.204 407.773 953.654 410.563 952.311 413.559C951.691 413.559 951.123 413.818 950.606 414.334C950.193 414.851 949.676 415.368 949.056 415.884C949.263 420.121 949.418 424.409 949.521 428.749C949.624 433.089 949.676 437.223 949.676 441.149C951.329 441.459 952.828 442.079 954.171 443.009C955.618 443.836 956.961 444.818 958.201 445.954C959.441 447.091 960.629 448.279 961.766 449.519C963.006 450.759 964.298 451.896 965.641 452.929ZM970.291 427.819C969.774 427.509 969.206 427.354 968.586 427.354C967.966 427.251 967.346 427.199 966.726 427.199C966.003 427.199 965.279 427.096 964.556 426.889C963.936 426.579 963.626 426.011 963.626 425.184C963.626 424.254 964.091 423.686 965.021 423.479C966.054 423.169 966.829 422.756 967.346 422.239C969.929 422.239 971.789 423.169 972.926 425.029C972.409 425.546 972.048 426.166 971.841 426.889C971.634 427.509 971.118 427.819 970.291 427.819Z" fill="#D6D6D6"/>
<path d="M1032.43 402.864C1036.05 398.214 1039.77 393.823 1043.59 389.689C1047.52 385.453 1051.14 380.751 1054.44 375.584C1055.17 374.654 1055.99 373.879 1056.92 373.259C1057.85 372.536 1058.89 372.174 1060.02 372.174C1060.85 372.174 1061.52 372.743 1062.04 373.879C1062.66 375.016 1063.02 376.308 1063.12 377.754C1062.4 393.771 1061.99 409.788 1061.88 425.804C1061.88 441.821 1061.57 457.993 1060.95 474.319C1060.44 475.043 1060.08 475.869 1059.87 476.799C1059.77 477.626 1059.2 478.246 1058.16 478.659C1057.54 478.556 1057.08 478.298 1056.77 477.884C1056.56 477.368 1056.41 476.851 1056.3 476.334C1056.2 475.818 1055.99 475.353 1055.68 474.939C1055.48 474.423 1055.06 474.009 1054.44 473.699C1054.44 471.116 1054.55 467.499 1054.75 462.849C1055.06 458.199 1055.32 452.981 1055.53 447.194C1055.84 441.408 1056.1 435.259 1056.3 428.749C1056.61 422.239 1056.77 415.781 1056.77 409.374C1056.77 405.448 1056.67 401.676 1056.46 398.059C1056.36 394.339 1056.2 390.826 1055.99 387.519C1055.48 386.899 1055.01 386.589 1054.6 386.589C1053.98 386.589 1053.36 386.848 1052.74 387.364C1052.12 387.881 1051.45 388.191 1050.72 388.294C1048.24 390.981 1045.97 393.771 1043.9 396.664C1041.84 399.454 1039.31 401.934 1036.31 404.104C1036.1 404.414 1035.9 404.983 1035.69 405.809C1035.48 406.533 1035.17 407.359 1034.76 408.289C1034.45 409.219 1034.04 410.149 1033.52 411.079C1033 411.906 1032.33 412.526 1031.5 412.939C1031.5 414.283 1031.35 416.453 1031.04 419.449C1030.83 422.343 1030.57 425.753 1030.26 429.679C1030.06 433.606 1029.8 437.843 1029.49 442.389C1029.28 446.936 1029.18 451.483 1029.18 456.029C1029.18 459.646 1029.28 463.211 1029.49 466.724C1029.7 470.238 1030.06 473.493 1030.57 476.489C1030.37 476.696 1030.11 476.954 1029.8 477.264C1029.49 477.471 1029.33 477.729 1029.33 478.039C1026.96 477.316 1025.36 475.921 1024.53 473.854C1023.81 471.788 1023.44 469.463 1023.44 466.879C1023.44 465.226 1023.6 461.764 1023.91 456.494C1024.22 451.224 1024.58 444.973 1024.99 437.739C1025.41 430.506 1025.77 422.756 1026.08 414.489C1026.39 406.223 1026.54 398.266 1026.54 390.619C1026.54 387.726 1026.54 384.936 1026.54 382.249C1026.54 379.563 1026.44 377.031 1026.23 374.654C1026.65 374.138 1027.27 373.569 1028.09 372.949C1028.92 372.329 1029.7 372.019 1030.42 372.019L1032.43 402.864Z" fill="#D6D6D6"/>
</svg>
