<svg width="736" height="384" viewBox="0 0 736 384" fill="none" xmlns="http://www.w3.org/2000/svg">
<rect x="372.07" y="382.814" width="372" height="382" transform="rotate(180 372.07 382.814)" fill="#B47208"/>
<rect x="735.733" y="383.186" width="364" height="382" transform="rotate(180 735.733 383.186)" fill="#99A82F"/>
<rect x="34.7041" y="32.186" width="664" height="325" fill="#950E0E"/>
<path d="M186.346 94.9586C185.162 106.799 184.2 118.861 183.46 131.145C182.72 143.429 182.35 155.417 182.35 167.109C182.35 171.697 182.424 176.211 182.572 180.651C182.72 184.943 182.942 189.235 183.238 193.527C182.794 194.859 181.98 195.525 180.796 195.525C178.428 194.785 176.8 192.269 175.912 187.977C175.172 183.537 174.802 178.061 174.802 171.549C174.802 166.665 174.95 161.411 175.246 155.787C175.542 150.015 175.912 144.317 176.356 138.693C176.8 132.921 177.17 127.371 177.466 122.043C177.762 116.567 177.91 111.683 177.91 107.391C177.91 103.987 177.762 101.027 177.466 98.5106C177.318 95.9946 176.874 94.0706 176.134 92.7386C174.506 91.7026 173.026 90.0006 171.694 87.6326C170.362 85.1166 169.03 82.6746 167.698 80.3066C166.514 77.7906 165.256 75.5706 163.924 73.6466C162.592 71.7226 161.112 70.7606 159.484 70.7606C159.04 70.7606 158.522 71.0566 157.93 71.6486C157.486 72.0926 157.116 72.5366 156.82 72.9806V107.835C155.636 111.979 154.822 116.197 154.378 120.489C154.082 124.781 153.934 129.221 153.934 133.809C153.934 136.325 153.934 139.137 153.934 142.245C154.082 145.353 154.156 148.387 154.156 151.347C154.304 154.159 154.378 156.823 154.378 159.339C154.526 161.707 154.6 163.557 154.6 164.889C154.6 171.105 154.23 177.173 153.49 183.093C152.75 189.013 151.122 194.637 148.606 199.965C147.126 199.521 145.868 198.929 144.832 198.189C143.796 197.301 143.278 196.043 143.278 194.415C144.314 192.195 145.202 189.161 145.942 185.313C146.682 181.317 147.052 176.803 147.052 171.771C147.052 165.555 146.83 158.673 146.386 151.125C146.09 143.577 145.942 135.955 145.942 128.259C145.942 122.635 146.09 117.159 146.386 111.831C146.682 106.503 147.422 101.471 148.606 96.7346V46.7846C149.642 45.7486 150.974 45.2306 152.602 45.2306C154.23 45.2306 155.636 45.7486 156.82 46.7846L186.346 94.9586Z" fill="#F0F0F0"/>
<path d="M499.844 196.084C499.104 196.084 498.216 195.788 497.18 195.196C496.292 194.604 494.812 193.05 492.74 190.534C491.852 187.722 491.186 184.688 490.742 181.432C490.446 178.176 490.298 174.846 490.298 171.442C490.298 168.63 490.372 165.522 490.52 162.118C490.668 158.566 490.816 155.162 490.964 151.906C491.26 148.502 491.482 145.394 491.63 142.582C491.778 139.77 491.852 137.624 491.852 136.144C491.852 134.516 491.778 132.962 491.63 131.482C491.63 130.002 491.556 128.522 491.408 127.042C487.56 120.678 482.898 115.202 477.422 110.614C472.094 106.026 466.47 102.104 460.55 98.8478C459.958 99.8838 459.514 101.216 459.218 102.844C459.07 104.472 458.996 106.248 458.996 108.172C458.996 111.132 459.144 114.092 459.44 117.052C459.736 119.864 459.884 121.862 459.884 123.046V159.898C459.884 161.23 459.958 163.45 460.106 166.558C460.402 169.518 460.55 172.774 460.55 176.326C460.55 180.322 460.254 184.318 459.662 188.314C459.218 192.162 458.182 195.122 456.554 197.194C453.89 195.566 452.114 193.716 451.226 191.644C450.338 189.424 449.894 187.056 449.894 184.54C449.894 182.172 450.19 180.026 450.782 178.102C451.522 176.03 451.892 173.736 451.892 171.22C451.892 170.036 451.596 168.556 451.004 166.78C450.56 165.004 450.19 163.524 449.894 162.34C449.894 157.308 450.042 152.054 450.338 146.578C450.634 141.102 450.93 135.996 451.226 131.26C451.226 128.892 451.004 125.636 450.56 121.492C450.264 117.348 449.968 112.834 449.672 107.95C449.376 103.066 449.08 98.1818 448.784 93.2978C448.488 88.2658 448.34 83.7518 448.34 79.7558C448.34 78.1278 448.414 76.4998 448.562 74.8718C448.71 73.2438 448.784 71.8378 448.784 70.6538C448.784 68.5818 448.414 66.2138 447.674 63.5498C447.082 60.8858 446.786 58.1478 446.786 55.3358C446.786 52.8198 447.23 50.4518 448.118 48.2318C449.154 46.0118 451.004 44.2358 453.668 42.9038C456.924 44.8278 459.884 47.1218 462.548 49.7858C465.212 52.3018 467.95 55.1878 470.762 58.4438C473.574 61.6998 476.608 65.3258 479.864 69.3218C483.12 73.3178 486.968 77.6098 491.408 82.1978C491.408 81.3098 491.334 79.6078 491.186 77.0918C491.038 74.5758 490.964 71.6158 490.964 68.2118C490.964 63.9198 491.26 59.4058 491.852 54.6698C492.592 49.7858 493.998 45.8638 496.07 42.9038C496.366 42.7558 496.884 42.6818 497.624 42.6818C499.548 42.6818 500.806 43.4958 501.398 45.1238C502.138 46.7518 502.582 48.4538 502.73 50.2298C502.73 54.9658 502.508 60.1458 502.064 65.7698C501.768 71.3938 501.472 76.8698 501.176 82.1978C500.88 87.5258 500.584 92.4838 500.288 97.0718C499.992 101.66 499.844 105.36 499.844 108.172C499.844 111.724 499.992 116.83 500.288 123.49C500.584 130.002 500.88 137.328 501.176 145.468C501.62 153.608 501.99 161.97 502.286 170.554C502.582 179.138 502.804 187.204 502.952 194.752C502.212 195.64 501.176 196.084 499.844 196.084ZM479.864 96.8498C482.084 98.7738 484.082 100.994 485.858 103.51C487.782 106.026 489.78 108.098 491.852 109.726L490.52 93.5198C489.484 92.0398 488.004 90.7818 486.08 89.7458C484.304 88.5618 483.194 87.1558 482.75 85.5278C480.086 84.6398 477.866 83.3078 476.09 81.5318C474.462 79.6078 472.908 77.6098 471.428 75.5378C469.948 73.4658 468.32 71.6158 466.544 69.9878C464.916 68.3598 462.696 67.3238 459.884 66.8798C459.144 69.9878 458.848 73.1698 458.996 76.4258C459.144 79.5338 458.996 82.3458 458.552 84.8618C460.032 84.8618 461.66 85.3798 463.436 86.4158C465.36 87.3038 467.21 88.4138 468.986 89.7458C470.91 91.0778 472.76 92.4098 474.536 93.7418C476.46 95.0738 478.236 96.1098 479.864 96.8498Z" fill="#F0F0F0"/>
<path d="M293.746 153.904C294.042 153.164 295.152 152.794 297.076 152.794C299 152.794 300.036 153.756 300.184 155.68C299.444 158.788 298.112 161.452 296.188 163.672C294.264 165.744 292.118 167.668 289.75 169.444C287.382 171.22 285.014 172.996 282.646 174.772C280.278 176.548 278.28 178.768 276.652 181.432C274.58 182.616 272.656 184.096 270.88 185.872C269.252 187.648 267.624 189.35 265.996 190.978C264.368 192.458 262.666 193.79 260.89 194.974C259.114 196.01 257.19 196.528 255.118 196.528C253.786 196.528 252.898 195.714 252.454 194.086C252.01 192.31 251.788 190.312 251.788 188.092C251.788 186.908 251.862 185.502 252.01 183.874C252.306 182.246 252.602 180.692 252.898 179.212C253.194 177.584 253.416 176.178 253.564 174.994C253.86 173.662 254.008 172.848 254.008 172.552C254.008 171.812 254.008 170.11 254.008 167.446C254.156 164.634 254.304 161.156 254.452 157.012C254.6 152.868 254.674 148.132 254.674 142.804C254.822 137.476 254.896 131.852 254.896 125.932C254.896 120.456 254.822 114.758 254.674 108.838C254.674 102.918 254.526 97.0718 254.23 91.2998C253.934 85.5278 253.49 79.9778 252.898 74.6498C252.454 69.3218 251.862 64.3638 251.122 59.7758C251.27 58.5918 251.344 57.1858 251.344 55.5578C251.492 53.9298 251.64 52.3758 251.788 50.8958C252.084 49.2678 252.528 47.9358 253.12 46.8998C253.86 45.7158 254.97 45.1238 256.45 45.1238C257.634 45.1238 258.818 45.4198 260.002 46.0118C261.334 53.5598 262.296 61.2558 262.888 69.0998C263.628 76.7958 263.998 84.4178 263.998 91.9658C263.998 95.8138 263.85 99.6618 263.554 103.51C263.406 107.21 263.184 110.836 262.888 114.388C262.888 116.46 262.74 118.68 262.444 121.048C262.148 123.268 262 125.562 262 127.93C262 129.558 262.148 131.26 262.444 133.036C262.74 134.664 263.258 136.292 263.998 137.92C267.846 136.588 270.954 134.442 273.322 131.482C275.838 128.522 278.872 125.784 282.424 123.268C283.312 122.972 284.2 122.454 285.088 121.714C286.124 120.974 287.16 120.234 288.196 119.494C289.232 118.754 290.194 118.088 291.082 117.496C292.118 116.904 293.154 116.608 294.19 116.608C296.41 116.608 297.52 117.496 297.52 119.272C297.52 120.752 296.854 122.454 295.522 124.378C294.19 126.154 292.71 127.19 291.082 127.486C289.454 127.782 288.048 128.448 286.864 129.484C285.68 130.372 284.496 131.408 283.312 132.592C282.128 133.628 280.87 134.664 279.538 135.7C278.354 136.736 276.948 137.476 275.32 137.92C273.988 140.436 272.064 142.138 269.548 143.026C267.18 143.914 265.182 145.246 263.554 147.022C261.926 153.09 261.112 158.714 261.112 163.894C261.112 169.074 261.926 175.142 263.554 182.098C266.07 179.73 268.66 177.51 271.324 175.438C274.136 173.218 276.874 170.998 279.538 168.778C282.35 166.558 284.94 164.264 287.308 161.896C289.824 159.528 291.97 156.864 293.746 153.904ZM281.314 93.2978C280.426 92.7058 279.39 92.2618 278.206 91.9658C277.17 91.5218 276.208 91.0778 275.32 90.6338C274.432 90.1898 273.618 89.5978 272.878 88.8578C272.138 87.9698 271.62 86.7858 271.324 85.3058C272.36 84.1218 273.47 82.9378 274.654 81.7538C275.986 80.4218 277.614 79.7558 279.538 79.7558L284.866 89.7458C284.718 90.9298 284.274 91.7438 283.534 92.1878C282.942 92.4838 282.202 92.8538 281.314 93.2978Z" fill="#F0F0F0"/>
<path d="M555.392 119.938C559.24 122.158 562.644 124.822 565.604 127.93C568.564 131.038 571.302 134.294 573.818 137.698C576.482 141.102 578.998 144.654 581.366 148.354C583.882 152.054 586.546 155.68 589.358 159.232C589.062 161.304 588.322 163.006 587.138 164.338C585.954 165.522 584.622 166.706 583.142 167.89C581.662 168.926 580.108 169.962 578.48 170.998C576.852 172.034 575.446 173.292 574.262 174.772C571.598 175.808 569.23 177.436 567.158 179.656C565.234 181.876 563.31 184.17 561.386 186.538C559.61 188.758 557.686 190.904 555.614 192.976C553.542 195.048 551.174 196.454 548.51 197.194C547.178 197.194 546.142 196.602 545.402 195.418C544.662 194.086 544.144 192.902 543.848 191.866C543.848 190.386 543.996 187.426 544.292 182.986C544.588 178.398 544.884 172.922 545.18 166.558C545.624 160.046 546.068 152.868 546.512 145.024C546.956 137.032 547.326 128.966 547.622 120.826C548.066 112.538 548.436 104.398 548.732 96.4058C549.028 88.2658 549.176 80.7178 549.176 73.7618C549.176 67.1018 549.028 61.3298 548.732 56.4458C548.436 51.4138 547.918 47.6398 547.178 45.1238C547.474 43.7918 548.214 43.0518 549.398 42.9038C550.73 42.6078 551.84 42.2378 552.728 41.7938C554.06 43.4218 555.096 45.4938 555.836 48.0098C556.724 50.5258 557.39 53.1898 557.834 56.0018C558.278 58.8138 558.5 61.6998 558.5 64.6598C558.648 67.4718 558.722 70.0618 558.722 72.4298C557.982 78.3498 557.612 85.1578 557.612 92.8538C557.612 100.402 557.316 107.654 556.724 114.61C555.54 114.758 554.948 115.646 554.948 117.274C554.948 118.162 555.096 119.05 555.392 119.938ZM554.06 182.542C558.5 179.582 562.792 176.326 566.936 172.774C571.228 169.074 575.076 165.078 578.48 160.786C576.408 158.122 574.484 155.606 572.708 153.238C571.08 150.722 569.378 148.428 567.602 146.356C565.974 144.284 564.198 142.434 562.274 140.806C560.35 139.03 558.056 137.476 555.392 136.144C554.356 139.252 553.616 142.36 553.172 145.468C552.876 148.576 552.728 151.684 552.728 154.792C552.728 156.124 552.802 157.9 552.95 160.12C553.098 162.192 553.246 164.486 553.394 167.002C553.542 169.518 553.69 172.182 553.838 174.994C553.986 177.658 554.06 180.174 554.06 182.542ZM576.704 89.3018C575.964 88.7098 575.076 88.1178 574.04 87.5258C573.152 86.7858 572.19 86.0458 571.154 85.3058C570.118 84.4178 569.23 83.5298 568.49 82.6418C567.898 81.6058 567.602 80.4218 567.602 79.0898C569.23 78.3498 570.71 77.4618 572.042 76.4258C573.374 75.3898 574.928 74.8718 576.704 74.8718C578.036 77.3878 578.702 79.9038 578.702 82.4198C578.702 83.4558 578.554 84.4918 578.258 85.5278C578.11 86.4158 577.592 87.6738 576.704 89.3018Z" fill="#F0F0F0"/>
<path d="M342.99 115.498C344.47 116.978 345.654 118.606 346.542 120.382C347.578 122.158 348.466 124.008 349.206 125.932C349.946 127.708 350.612 129.558 351.204 131.482C351.944 133.258 352.906 134.96 354.09 136.588C356.754 146.356 360.38 155.606 364.968 164.338C369.704 173.07 374.218 181.876 378.51 190.756C378.066 191.94 377.4 193.05 376.512 194.086C375.624 195.122 374.588 195.64 373.404 195.64C372.664 195.64 371.85 195.418 370.962 194.974C366.67 190.09 362.97 184.836 359.862 179.212C356.754 173.44 353.868 167.594 351.204 161.674C348.688 155.606 346.246 149.464 343.878 143.248C341.658 137.032 339.29 130.964 336.774 125.044C335.146 124.304 334.036 123.49 333.444 122.602C333 121.714 332.778 120.752 332.778 119.716C332.778 117.94 333.37 116.016 334.554 113.944C335.738 111.872 336.478 110.022 336.774 108.394C339.882 103.658 342.324 98.6998 344.1 93.5198C345.876 88.3398 347.504 83.1598 348.984 77.9798C350.612 72.6518 352.24 67.3978 353.868 62.2178C355.644 57.0378 357.938 52.0798 360.75 47.3438C361.49 47.1958 362.304 46.6778 363.192 45.7898C364.228 44.9018 365.116 44.4578 365.856 44.4578C366.596 44.4578 367.188 45.1238 367.632 46.4558C365.56 55.3358 362.822 63.9198 359.418 72.2078C356.162 80.4958 353.054 89.0058 350.094 97.7378C348.762 100.698 347.356 103.658 345.876 106.618C344.396 109.43 343.434 112.39 342.99 115.498ZM377.622 124.6C375.698 123.86 373.848 122.898 372.072 121.714C370.444 120.53 368.742 119.42 366.966 118.384C367.41 116.46 368.15 115.128 369.186 114.388C370.222 113.5 371.332 113.056 372.516 113.056C374.292 113.056 375.772 113.87 376.956 115.498C378.288 117.126 378.954 119.198 378.954 121.714C378.954 122.454 378.806 123.046 378.51 123.49C378.214 123.786 377.918 124.156 377.622 124.6Z" fill="#F0F0F0"/>
<path d="M118.766 230.62C118.766 233.58 118.248 236.022 117.212 237.946C116.324 239.722 115.14 241.35 113.66 242.83C112.18 244.31 110.626 245.79 108.998 247.27C107.518 248.602 106.186 250.23 105.002 252.154C102.782 253.634 100.932 255.336 99.4523 257.26C97.9723 259.184 96.5663 261.182 95.2343 263.254C94.0503 265.326 92.7183 267.398 91.2383 269.47C89.9063 271.394 88.2783 273.17 86.3543 274.798C86.2063 276.87 86.0583 279.904 85.9103 283.9C85.9103 287.896 85.9103 292.336 85.9103 297.22C85.9103 304.176 85.9843 311.576 86.1323 319.42C86.4283 327.264 86.8723 334.072 87.4643 339.844C86.7243 340.732 85.9843 341.176 85.2443 341.176C84.5043 341.176 83.7643 340.954 83.0243 340.51C82.2843 339.918 81.5443 339.474 80.8043 339.178C79.7683 337.106 79.2503 334.516 79.2503 331.408C79.2503 330.964 79.1763 330.002 79.0283 328.522C79.0283 327.042 78.9543 325.414 78.8063 323.638C78.6583 321.862 78.5103 320.234 78.3623 318.754C78.3623 317.126 78.3623 315.942 78.3623 315.202C78.3623 313.87 78.2883 311.872 78.1403 309.208C77.9923 306.396 77.8443 303.362 77.6963 300.106C77.5483 296.702 77.4003 293.224 77.2523 289.672C77.1043 286.12 77.0303 282.864 77.0303 279.904C77.0303 276.352 77.1783 272.874 77.4743 269.47C77.9183 265.918 78.6583 262.292 79.6943 258.592C79.6943 256.816 79.5463 254.3 79.2503 251.044C79.1023 247.64 78.8803 243.94 78.5843 239.944C78.4363 235.8 78.2143 231.582 77.9183 227.29C77.7703 222.85 77.6963 218.854 77.6963 215.302C77.6963 214.266 77.6963 212.416 77.6963 209.752C77.8443 207.088 78.1403 204.424 78.5843 201.76C79.0283 198.948 79.6203 196.506 80.3603 194.434C81.2483 192.362 82.3583 191.326 83.6903 191.326C84.2823 191.326 84.8743 191.696 85.4663 192.436C86.0583 193.028 86.5763 193.694 87.0203 194.434C87.6123 195.174 88.2783 195.914 89.0183 196.654C89.7583 197.246 90.5723 197.616 91.4603 197.764C96.4923 202.204 101.228 207.384 105.668 213.304C110.256 219.224 114.622 224.996 118.766 230.62ZM89.4623 253.93C96.2703 248.454 102.338 241.794 107.666 233.95C106.186 232.174 104.78 230.25 103.448 228.178C102.116 226.106 100.636 224.108 99.0083 222.184C97.5283 220.26 95.9003 218.558 94.1243 217.078C92.3483 215.598 90.3503 214.562 88.1303 213.97C88.2783 219.15 88.4263 224.256 88.5743 229.288C88.8703 234.172 89.0183 239.426 89.0183 245.05C89.0183 245.938 88.8703 246.9 88.5743 247.936C88.2783 248.824 88.1303 249.786 88.1303 250.822C88.1303 252.006 88.5743 253.042 89.4623 253.93ZM99.8963 300.328C101.228 299.736 102.486 299.07 103.67 298.33C104.854 297.442 106.186 296.998 107.666 296.998C108.406 298.182 108.924 299.366 109.22 300.55C109.516 301.586 110.256 302.548 111.44 303.436C111.44 304.176 111.144 304.768 110.552 305.212C109.96 305.656 109.442 306.174 108.998 306.766C108.11 306.174 107.148 305.804 106.112 305.656C105.076 305.36 104.114 305.064 103.226 304.768C102.338 304.472 101.524 304.028 100.784 303.436C100.192 302.696 99.8963 301.66 99.8963 300.328Z" fill="#F0F0F0"/>
<path d="M185.496 201.76C186.236 216.264 186.606 230.176 186.606 243.496C186.754 256.668 186.828 270.062 186.828 283.678C186.384 289.006 186.088 294.408 185.94 299.884C185.792 305.36 185.57 310.614 185.274 315.646C184.978 320.678 184.46 325.414 183.72 329.854C183.128 334.294 182.166 338.142 180.834 341.398C180.538 341.546 180.168 341.62 179.724 341.62C178.54 341.62 177.948 341.028 177.948 339.844C177.948 338.512 177.43 337.476 176.394 336.736C177.43 331.556 178.096 326.154 178.392 320.53C178.836 314.758 179.058 308.764 179.058 302.548C179.058 293.224 178.91 283.826 178.614 274.354C178.318 264.882 178.022 255.484 177.726 246.16C177.43 243.792 176.172 241.424 173.952 239.056C171.88 236.688 169.364 234.32 166.404 231.952C163.592 229.584 160.558 227.29 157.302 225.07C154.046 222.702 151.012 220.334 148.2 217.966C145.536 215.598 143.242 213.23 141.318 210.862C139.542 208.494 138.654 206.052 138.654 203.536C138.654 202.352 139.098 201.39 139.986 200.65C140.874 199.762 141.836 199.17 142.872 198.874C149.68 203.61 155.674 208.79 160.854 214.414C166.034 219.89 171.658 225.736 177.726 231.952C178.91 230.768 179.502 229.436 179.502 227.956C179.502 227.216 179.428 226.55 179.28 225.958C179.132 225.366 179.058 224.848 179.058 224.404C179.058 219.668 178.466 214.858 177.282 209.974C176.098 205.09 175.432 200.354 175.284 195.766C176.468 193.546 177.726 192.436 179.058 192.436C179.798 192.436 180.464 192.806 181.056 193.546C181.796 194.138 182.462 194.952 183.054 195.988C183.646 196.876 184.09 197.912 184.386 199.096C184.83 200.132 185.2 201.02 185.496 201.76ZM163.296 287.008C162.852 287.748 162.63 288.34 162.63 288.784C162.63 289.82 162.852 290.708 163.296 291.448C163.888 292.188 164.184 293.002 164.184 293.89C164.184 294.334 163.962 294.926 163.518 295.666C163.222 296.258 162.704 296.554 161.964 296.554C160.78 296.554 159.67 295.962 158.634 294.778C157.746 293.594 156.784 292.78 155.748 292.336C155.304 291.448 155.082 290.634 155.082 289.894C155.082 288.858 155.526 287.822 156.414 286.786C157.45 285.602 158.634 285.01 159.966 285.01C160.706 285.01 161.446 285.158 162.186 285.454C162.926 285.602 163.296 286.12 163.296 287.008Z" fill="#F0F0F0"/>
<path d="M233.607 260.812C235.087 262.292 236.271 263.92 237.159 265.696C238.195 267.472 239.083 269.322 239.823 271.246C240.563 273.022 241.229 274.872 241.821 276.796C242.561 278.572 243.523 280.274 244.707 281.902C247.371 291.67 250.997 300.92 255.585 309.652C260.321 318.384 264.835 327.19 269.127 336.07C268.683 337.254 268.017 338.364 267.129 339.4C266.241 340.436 265.205 340.954 264.021 340.954C263.281 340.954 262.467 340.732 261.579 340.288C257.287 335.404 253.587 330.15 250.479 324.526C247.371 318.754 244.485 312.908 241.821 306.988C239.305 300.92 236.863 294.778 234.495 288.562C232.275 282.346 229.907 276.278 227.391 270.358C225.763 269.618 224.653 268.804 224.061 267.916C223.617 267.028 223.395 266.066 223.395 265.03C223.395 263.254 223.987 261.33 225.171 259.258C226.355 257.186 227.095 255.336 227.391 253.708C230.499 248.972 232.941 244.014 234.717 238.834C236.493 233.654 238.121 228.474 239.601 223.294C241.229 217.966 242.857 212.712 244.485 207.532C246.261 202.352 248.555 197.394 251.367 192.658C252.107 192.51 252.921 191.992 253.809 191.104C254.845 190.216 255.733 189.772 256.473 189.772C257.213 189.772 257.805 190.438 258.249 191.77C256.177 200.65 253.439 209.234 250.035 217.522C246.779 225.81 243.671 234.32 240.711 243.052C239.379 246.012 237.973 248.972 236.493 251.932C235.013 254.744 234.051 257.704 233.607 260.812ZM268.239 269.914C266.315 269.174 264.465 268.212 262.689 267.028C261.061 265.844 259.359 264.734 257.583 263.698C258.027 261.774 258.767 260.442 259.803 259.702C260.839 258.814 261.949 258.37 263.133 258.37C264.909 258.37 266.389 259.184 267.573 260.812C268.905 262.44 269.571 264.512 269.571 267.028C269.571 267.768 269.423 268.36 269.127 268.804C268.831 269.1 268.535 269.47 268.239 269.914Z" fill="#F0F0F0"/>
<path d="M370.268 196.371C371.896 194.891 373.524 194.151 375.152 194.151C377.964 194.151 379.37 195.779 379.37 199.035L379.148 202.587V336.675C377.372 338.747 375.374 339.783 373.154 339.783C371.822 339.783 370.712 339.413 369.824 338.673C369.528 336.453 369.306 334.307 369.158 332.235C369.01 330.163 368.936 328.091 368.936 326.019C368.936 318.767 369.454 311.811 370.49 305.151C371.674 298.343 372.266 291.387 372.266 284.283C372.266 281.175 372.044 278.067 371.6 274.959C371.304 271.703 370.638 268.373 369.602 264.969C366.79 265.117 364.274 266.005 362.054 267.633C359.834 269.261 357.836 271.259 356.06 273.627C354.284 275.995 352.582 278.511 350.954 281.175C349.474 283.839 348.068 286.207 346.736 288.279C346.736 294.791 346.514 301.821 346.07 309.369C345.774 316.917 345.478 324.613 345.182 332.457C346.07 333.641 346.588 334.825 346.736 336.009C347.032 337.045 347.18 338.229 347.18 339.561C347.18 343.261 346.07 345.111 343.85 345.111C340.742 345.111 338.596 343.853 337.412 341.337C336.376 338.821 335.858 336.157 335.858 333.345C335.858 322.541 336.302 311.959 337.19 301.599C338.226 291.091 338.744 280.213 338.744 268.965C338.744 265.117 338.67 261.343 338.522 257.643C338.374 253.795 338.078 249.873 337.634 245.877C340.446 243.361 343.184 240.179 345.848 236.331C348.66 232.483 351.398 228.339 354.062 223.899C356.874 219.459 359.612 214.871 362.276 210.135C364.94 205.251 367.604 200.663 370.268 196.371ZM368.492 247.431C368.788 244.767 369.084 242.029 369.38 239.217C369.676 236.257 369.824 233.297 369.824 230.337C369.824 225.749 369.232 221.753 368.048 218.349L363.83 221.013C363.534 222.345 362.942 223.455 362.054 224.343C361.314 225.083 360.5 225.823 359.612 226.563C358.872 227.303 358.132 228.117 357.392 229.005C356.8 229.893 356.43 231.003 356.282 232.335C353.322 235.739 351.176 239.513 349.844 243.657C348.66 247.801 348.068 252.167 348.068 256.755C348.068 260.899 348.512 264.969 349.4 268.965L368.492 247.431Z" fill="#F0F0F0"/>
<path d="M453.741 197.542C454.037 221.37 454.185 244.532 454.185 267.028C454.185 289.524 454.555 312.316 455.295 335.404C455.295 336.44 454.629 336.958 453.297 336.958L447.969 334.294C446.785 330.002 445.971 325.266 445.527 320.086C445.083 314.758 444.861 309.134 444.861 303.214C444.861 297.294 445.009 290.634 445.305 283.234C445.601 275.686 445.971 268.286 446.415 261.034C446.859 253.782 447.229 247.196 447.525 241.276C447.821 235.356 447.969 230.99 447.969 228.178C447.969 222.258 447.747 216.708 447.303 211.528C445.971 210.64 444.713 210.196 443.529 210.196C440.717 210.196 438.719 211.676 437.535 214.636L423.993 233.062C423.549 250.97 423.105 268.286 422.661 285.01C422.217 301.734 421.847 318.828 421.551 336.292C422.439 337.18 422.883 338.142 422.883 339.178C422.883 340.51 422.069 341.546 420.441 342.286L415.335 342.508C414.447 338.512 413.781 334.294 413.337 329.854C413.041 325.414 412.893 320.826 412.893 316.09C412.893 306.026 413.337 295.814 414.225 285.454C415.261 274.946 415.779 265.03 415.779 255.706C415.779 252.302 415.631 249.046 415.335 245.938C415.187 242.682 414.817 239.648 414.225 236.836C419.849 227.956 425.917 219.372 432.429 211.084C438.941 202.648 445.675 194.656 452.631 187.108C454.555 187.848 455.517 188.884 455.517 190.216C455.517 191.4 455.221 192.584 454.629 193.768C454.037 194.952 453.741 196.21 453.741 197.542Z" fill="#F0F0F0"/>
<path d="M532.26 305.656C534.036 308.764 536.182 311.576 538.698 314.092C541.214 316.608 543.582 319.124 545.802 321.64C548.17 324.156 550.168 326.894 551.796 329.854C553.424 332.666 554.312 335.996 554.46 339.844C554.016 340.436 553.35 340.88 552.462 341.176C551.574 341.324 550.686 341.398 549.798 341.398C548.17 341.398 546.838 341.102 545.802 340.51C541.954 336.81 538.032 332.666 534.036 328.078C530.188 323.49 526.562 318.828 523.158 314.092C521.382 313.944 519.976 313.352 518.94 312.316C518.052 311.132 517.164 309.948 516.276 308.764C515.388 307.58 514.5 306.47 513.612 305.434C512.724 304.25 511.54 303.51 510.06 303.214C508.876 306.766 508.284 310.244 508.284 313.648C508.284 314.98 508.358 316.682 508.506 318.754C508.802 320.678 509.098 322.824 509.394 325.192C509.838 327.412 510.134 329.706 510.282 332.074C510.578 334.442 510.726 336.588 510.726 338.512C509.838 339.4 508.58 339.844 506.952 339.844C505.324 339.844 503.918 339.4 502.734 338.512C501.698 337.624 500.81 336.588 500.07 335.404C499.33 334.22 498.812 332.962 498.516 331.63C498.22 330.15 498.072 328.818 498.072 327.634C498.22 312.242 498.664 297.442 499.404 283.234C500.144 269.026 500.514 254.892 500.514 240.832C500.514 232.988 500.292 225.218 499.848 217.522C499.552 209.678 498.812 201.76 497.628 193.768C498.072 192.14 498.738 190.956 499.626 190.216C500.662 189.476 501.772 189.106 502.956 189.106C504.14 189.106 505.176 189.55 506.064 190.438C507.1 191.326 507.766 192.584 508.062 194.212V237.724C511.614 233.728 514.796 229.584 517.608 225.292C520.42 221 523.232 216.856 526.044 212.86C528.856 208.716 531.89 204.794 535.146 201.094C538.402 197.246 542.176 193.768 546.468 190.66C546.764 190.364 547.134 190.216 547.578 190.216C548.022 190.216 548.392 190.512 548.688 191.104C548.984 191.548 549.428 191.918 550.02 192.214C549.724 194.434 548.836 196.506 547.356 198.43C546.024 200.354 544.766 201.76 543.582 202.648C541.362 207.088 538.846 211.232 536.034 215.08C533.37 218.78 530.632 222.48 527.82 226.18C525.156 229.88 522.492 233.58 519.828 237.28C517.312 240.98 515.092 244.976 513.168 249.268C512.28 249.268 511.466 249.638 510.726 250.378C510.134 251.118 509.394 251.858 508.506 252.598C508.802 258.666 509.024 264.808 509.172 271.024C509.32 277.24 509.394 283.16 509.394 288.784C511.762 289.228 513.908 290.116 515.832 291.448C517.904 292.632 519.828 294.038 521.604 295.666C523.38 297.294 525.082 298.996 526.71 300.772C528.486 302.548 530.336 304.176 532.26 305.656ZM538.92 269.692C538.18 269.248 537.366 269.026 536.478 269.026C535.59 268.878 534.702 268.804 533.814 268.804C532.778 268.804 531.742 268.656 530.706 268.36C529.818 267.916 529.374 267.102 529.374 265.918C529.374 264.586 530.04 263.772 531.372 263.476C532.852 263.032 533.962 262.44 534.702 261.7C538.402 261.7 541.066 263.032 542.694 265.696C541.954 266.436 541.436 267.324 541.14 268.36C540.844 269.248 540.104 269.692 538.92 269.692Z" fill="#F0F0F0"/>
<path d="M604.486 233.95C609.666 227.29 614.994 221 620.47 215.08C626.094 209.012 631.274 202.278 636.01 194.878C637.046 193.546 638.23 192.436 639.562 191.548C640.894 190.512 642.374 189.994 644.002 189.994C645.186 189.994 646.148 190.808 646.888 192.436C647.776 194.064 648.294 195.914 648.442 197.986C647.406 220.926 646.814 243.866 646.666 266.806C646.666 289.746 646.222 312.908 645.334 336.292C644.594 337.328 644.076 338.512 643.78 339.844C643.632 341.028 642.818 341.916 641.338 342.508C640.45 342.36 639.784 341.99 639.34 341.398C639.044 340.658 638.822 339.918 638.674 339.178C638.526 338.438 638.23 337.772 637.786 337.18C637.49 336.44 636.898 335.848 636.01 335.404C636.01 331.704 636.158 326.524 636.454 319.864C636.898 313.204 637.268 305.73 637.564 297.442C638.008 289.154 638.378 280.348 638.674 271.024C639.118 261.7 639.34 252.45 639.34 243.274C639.34 237.65 639.192 232.248 638.896 227.068C638.748 221.74 638.526 216.708 638.23 211.972C637.49 211.084 636.824 210.64 636.232 210.64C635.344 210.64 634.456 211.01 633.568 211.75C632.68 212.49 631.718 212.934 630.682 213.082C627.13 216.93 623.874 220.926 620.914 225.07C617.954 229.066 614.328 232.618 610.036 235.726C609.74 236.17 609.444 236.984 609.148 238.168C608.852 239.204 608.408 240.388 607.816 241.72C607.372 243.052 606.78 244.384 606.04 245.716C605.3 246.9 604.338 247.788 603.154 248.38C603.154 250.304 602.932 253.412 602.488 257.704C602.192 261.848 601.822 266.732 601.378 272.356C601.082 277.98 600.712 284.048 600.268 290.56C599.972 297.072 599.824 303.584 599.824 310.096C599.824 315.276 599.972 320.382 600.268 325.414C600.564 330.446 601.082 335.108 601.822 339.4C601.526 339.696 601.156 340.066 600.712 340.51C600.268 340.806 600.046 341.176 600.046 341.62C596.642 340.584 594.348 338.586 593.164 335.626C592.128 332.666 591.61 329.336 591.61 325.636C591.61 323.268 591.832 318.31 592.276 310.762C592.72 303.214 593.238 294.26 593.83 283.9C594.422 273.54 594.94 262.44 595.384 250.6C595.828 238.76 596.05 227.364 596.05 216.412C596.05 212.268 596.05 208.272 596.05 204.424C596.05 200.576 595.902 196.95 595.606 193.546C596.198 192.806 597.086 191.992 598.27 191.104C599.454 190.216 600.564 189.772 601.6 189.772L604.486 233.95Z" fill="#F0F0F0"/>
</svg>
